<svg width="106" height="37" viewBox="0 0 106 37" fill="none" xmlns="http://www.w3.org/2000/svg">
<path d="M98.564 2.56234C100.434 2.56234 101.702 2.91851 102.442 3.65133C103.182 4.38375 103.542 5.64226 103.542 7.49862V29.6381C103.542 31.4892 103.184 32.7406 102.447 33.4641C101.709 34.1882 100.439 34.5402 98.5645 34.5402H7.36666C5.50362 34.5402 4.2479 34.1913 3.52792 33.4735C2.80794 32.7559 2.45799 31.5032 2.45799 29.644V7.49862C2.45799 5.37024 2.69016 4.19793 3.2343 3.57856C3.84346 2.8853 5.15848 2.56234 7.3729 2.56234H98.564ZM98.564 1.12744H7.3729C1.93014 1.12744 1.02417 3.01342 1.02417 7.49862V29.6439C1.02417 34.1257 2.88834 35.9751 7.36666 35.9751H98.5643C103.046 35.9751 104.976 34.1231 104.976 29.6381V7.49862C104.976 3.01342 103.046 1.12744 98.564 1.12744Z" fill="white"/>
<path fill-rule="evenodd" clip-rule="evenodd" d="M28.1261 22.8189C27.6026 23.9802 27.352 24.4986 26.678 25.525C25.7372 26.9582 24.4117 28.7427 22.7693 28.7576C21.3093 28.7712 20.9346 27.8069 18.9538 27.8178C16.973 27.8285 16.5592 28.7745 15.0993 28.7612C13.4566 28.7462 12.2005 27.1344 11.2598 25.7017C8.6296 21.6947 8.35482 16.9923 9.97667 14.4924C11.1297 12.7157 12.9478 11.6757 14.6581 11.6757C16.399 11.6757 17.4936 12.6314 18.933 12.6314C20.3292 12.6314 21.1805 11.6742 23.1931 11.6742C24.7146 11.6742 26.3267 12.5031 27.4755 13.9371C23.712 16.0011 24.3231 21.3807 28.1261 22.8189Z" fill="white"/>
<path fill-rule="evenodd" clip-rule="evenodd" d="M21.6664 10.0737C22.3972 9.13442 22.953 7.80734 22.7515 6.45166C21.5572 6.53396 20.1594 7.29456 19.3434 8.28618C18.6028 9.18659 17.9915 10.5218 18.2296 11.8192C19.5337 11.8596 20.8829 11.0801 21.6664 10.0737Z" fill="white"/>
<path fill-rule="evenodd" clip-rule="evenodd" d="M95.6941 24.7008H90.4058C90.4266 25.4183 90.6824 26.0474 91.1737 26.4601C91.6185 26.8312 92.1943 27.0004 92.9026 27.0004C93.6873 27.0004 94.398 26.8674 95.0407 26.6133L95.3179 27.8357C94.5702 28.1651 93.6814 28.3224 92.6564 28.3224C91.4295 28.3224 90.4637 27.9616 89.7619 27.2379C89.0607 26.5142 88.7072 25.5418 88.7072 24.3234C88.7072 23.1235 89.035 22.1292 89.6861 21.3309C90.3748 20.4829 91.2994 20.0591 92.4615 20.0591C93.6074 20.0591 94.4713 20.4827 95.0569 21.3307C95.523 22.0076 95.7586 22.8748 95.7586 23.8658C95.7585 24.1792 95.7358 24.4959 95.6941 24.7008ZM88.1798 21.7889C88.0773 21.7571 87.8056 21.7441 87.6111 21.7441C86.9911 21.7441 86.507 21.9778 86.1689 22.4452C85.8744 22.8598 85.7218 23.3746 85.7218 24.0114V28.0831H83.9807V22.7344C83.9807 21.8252 83.943 21.0111 83.9119 20.1911H85.4455L85.511 21.831H85.5593C85.7435 21.3186 86.0357 20.8525 86.4405 20.5393C86.8322 20.2529 87.272 20.0973 87.7287 20.0973C87.8901 20.0973 88.0773 20.0872 88.1798 20.1086V21.7889ZM81.8073 27.1492C81.0763 27.9528 80.1081 28.3552 78.9032 28.3552C77.737 28.3552 76.8069 27.9689 76.1165 27.1957C75.4268 26.4249 75.0827 25.4466 75.0827 24.2722C75.0827 23.0432 75.438 22.0347 76.1505 21.2519C76.8643 20.4649 77.8217 20.0783 79.0289 20.0783C80.1975 20.0783 81.1323 20.4607 81.8395 21.2376C82.5119 21.9846 82.8493 22.9567 82.8493 24.1421C82.8494 25.3651 82.5037 26.3629 81.8073 27.1492ZM74.5585 21.626H72.715V25.4177C72.715 26.3969 73.0187 26.8823 73.7042 26.8823C74.0196 26.8823 74.2575 26.8592 74.4662 26.8054L74.5059 28.1414C74.157 28.272 73.6958 28.3383 73.13 28.3383C72.4371 28.3383 71.8708 28.1288 71.4803 27.7011C71.085 27.2785 70.8715 26.5644 70.8715 25.5627V21.626H69.745V20.1911H70.8715V18.7853L72.715 18.2625V20.1911H74.5585V21.626ZM68.3636 27.3741C67.644 28.0174 66.6463 28.3371 65.3665 28.3371C64.1804 28.3371 63.2321 28.1074 62.5159 27.6521L62.9253 26.1826C63.6971 26.6378 64.5451 26.8688 65.4678 26.8688C66.1343 26.8688 66.6498 26.717 67.0201 26.4199C67.388 26.1215 67.5731 25.7217 67.5731 25.2145C67.5731 24.7742 67.4206 24.3983 67.1178 24.0916C66.8105 23.7874 66.3085 23.5064 65.6005 23.2427C63.6769 22.5261 62.7132 21.4755 62.7132 20.093C62.7132 19.1896 63.0493 18.4468 63.7305 17.8704C64.4106 17.2948 65.3107 17.0052 66.4326 17.0052C67.4329 17.0052 68.2658 17.1808 68.9306 17.5268L68.4858 18.9647C67.8658 18.6281 67.161 18.4575 66.3751 18.4575C65.7537 18.4575 65.2666 18.6157 64.9161 18.9135C64.6231 19.1895 64.4759 19.5215 64.4759 19.9121C64.4759 20.3447 64.6447 20.7057 64.9812 20.9928C65.2759 21.253 65.8093 21.5344 66.5789 21.8389C67.5287 22.217 68.2225 22.6662 68.6701 23.1795C69.115 23.6909 69.3391 24.3267 69.3391 25.0876C69.3389 26.0252 69.0117 26.7893 68.3636 27.3741ZM58.1804 27.3126C57.5236 28.0064 56.7042 28.3551 55.7293 28.3551C54.6798 28.3551 53.973 27.9803 53.4609 27.2261V31.4654H51.7199V22.8461C51.7199 21.9977 51.6874 21.2161 51.645 20.1911H53.1912L53.2932 21.5236H53.3235C53.915 20.6011 54.8039 20.0923 56.0007 20.0923C56.9369 20.0923 57.7175 20.4523 58.3428 21.1944C58.9699 21.933 59.282 22.9063 59.282 24.114C59.282 25.4677 58.9158 26.5269 58.1804 27.3126ZM49.4668 27.3126C48.8117 28.0064 47.9936 28.3551 47.0213 28.3551C45.9686 28.3551 45.2677 27.9803 44.7556 27.2261V31.4654H43.0145V22.8461C43.0145 21.9977 42.9742 21.2161 42.9294 20.1911H44.4798L44.5772 21.5236H44.6079C45.1986 20.6011 46.0892 20.0923 47.2876 20.0923C48.2231 20.0923 49.0016 20.4523 49.631 21.1944C50.2544 21.933 50.5683 22.9063 50.5683 24.114C50.5683 25.4677 50.2021 26.5269 49.4668 27.3126ZM40.0416 28.0831L39.0146 24.9058H35.4397L34.4592 28.0831H32.6333L36.1715 17.1164H38.3606L41.9199 28.0831H40.0416ZM92.3315 21.2817C91.7561 21.2817 91.2887 21.5766 90.928 22.0528C90.6348 22.433 90.4589 22.856 90.4058 23.4709H94.0771C94.0868 22.856 93.9752 22.4509 93.7362 22.0678C93.4304 21.5797 92.9611 21.2817 92.3315 21.2817ZM37.2178 18.6537H37.1871C37.0763 19.1662 36.9046 19.8483 36.663 20.7641L35.7491 23.6759H38.7019L37.7757 20.7641C37.6754 20.4688 37.4884 19.6787 37.2178 18.6537ZM55.4301 21.4779C54.9934 21.4779 54.6033 21.6211 54.2482 21.9093C53.8945 22.2018 53.6562 22.58 53.5467 23.0483C53.4926 23.2679 53.4609 23.4458 53.4609 23.5885V24.9093C53.4609 25.4875 53.6412 25.9763 53.9962 26.3736C54.3491 26.7673 54.8126 26.9673 55.3758 26.9673C56.043 26.9673 56.5604 26.713 56.9308 26.2C57.3014 25.688 57.4881 25.0132 57.4881 24.1726C57.4881 23.4016 57.3131 22.7639 56.9661 22.2645C56.5824 21.7441 56.0709 21.4779 55.4301 21.4779ZM78.9646 21.3682C78.2593 21.3682 77.7203 21.6814 77.3525 22.3121C77.0335 22.8311 76.8773 23.4649 76.8773 24.2142C76.8773 24.9447 77.0334 25.5673 77.3525 26.0876C77.7293 26.7171 78.2629 27.0303 78.9515 27.0303C79.6216 27.0303 80.1516 26.7128 80.5303 26.0679C80.8587 25.5412 81.0227 24.9091 81.0227 24.1838C81.0227 23.4575 80.8652 22.8311 80.5517 22.312C80.1767 21.6814 79.6509 21.3682 78.9646 21.3682ZM46.7141 21.4779C46.2798 21.4779 45.8873 21.6211 45.5326 21.9093C45.1782 22.2018 44.9468 22.58 44.8373 23.0483C44.7838 23.2679 44.7557 23.4458 44.7557 23.5885V24.9093C44.7557 25.4875 44.9304 25.9763 45.2863 26.3736C45.6391 26.7673 46.1002 26.9673 46.6649 26.9673C47.3272 26.9673 47.8479 26.713 48.2171 26.2C48.587 25.688 48.7704 25.0132 48.7704 24.1726C48.7704 23.4016 48.5985 22.7639 48.2499 22.2645C47.8672 21.7441 47.3568 21.4779 46.7141 21.4779Z" fill="white"/>
<path d="M34.9547 12.7953L34.4662 14.4054H33.3965L35.2159 8.72388H36.5383L38.383 14.4054H37.2712L36.7573 12.7953H34.9547ZM36.5805 12.0114L36.134 10.6121C36.0246 10.2665 35.9319 9.87877 35.8476 9.54997H35.8308C35.7465 9.87877 35.6622 10.275 35.5612 10.6121L35.1232 12.0114H36.5805Z" fill="white"/>
<path d="M39.5626 10.3003L40.2281 12.3823C40.346 12.7449 40.4302 13.0737 40.506 13.4108H40.5312C40.607 13.0737 40.6997 12.7533 40.8092 12.3823L41.4578 10.3003H42.5528L40.9861 14.4055H39.9669L38.4424 10.3003H39.5626Z" fill="white"/>
<path d="M45.4424 14.4054L45.375 13.9503H45.3497C45.0971 14.2705 44.6674 14.4982 44.1368 14.4982C43.3114 14.4982 42.848 13.8997 42.848 13.2759C42.848 12.2391 43.7662 11.7164 45.2823 11.7248V11.6574C45.2823 11.3876 45.1729 10.9409 44.4485 10.9409C44.0441 10.9409 43.623 11.0673 43.345 11.2443L43.1429 10.57C43.4461 10.3845 43.9767 10.2075 44.6253 10.2075C45.9393 10.2075 46.3184 11.042 46.3184 11.9357V13.4192C46.3184 13.7901 46.3353 14.1526 46.3774 14.4054H45.4424ZM45.3076 12.3992C44.5749 12.3823 43.8757 12.5425 43.8757 13.1663C43.8757 13.5709 44.1368 13.7563 44.4653 13.7563C44.878 13.7563 45.1813 13.4866 45.2739 13.1916C45.2991 13.1158 45.3076 13.0314 45.3076 12.964V12.3992Z" fill="white"/>
<path d="M48.4581 8.42041H47.4137V14.4054H48.4581V8.42041Z" fill="white"/>
<path d="M50.6818 9.15383C50.6818 9.46571 50.4545 9.71016 50.0922 9.71016C49.7469 9.71016 49.5195 9.46571 49.5195 9.15383C49.5195 8.83354 49.7553 8.58899 50.1006 8.58899C50.4545 8.58899 50.6734 8.83354 50.6818 9.15383ZM49.5784 10.3002H50.6229V14.4054H49.5784V10.3002Z" fill="white"/>
<path d="M51.7013 14.4054C51.7181 14.1272 51.735 13.6721 51.735 13.2506V8.42041H52.771V10.865H52.7879C53.0406 10.4688 53.487 10.2075 54.1019 10.2075C55.1043 10.2075 55.82 11.042 55.8116 12.2896C55.8116 13.7648 54.8767 14.4982 53.9501 14.4982C53.4195 14.4982 52.9478 14.2958 52.653 13.79H52.6361L52.5855 14.4054H51.7013ZM52.771 12.7111C52.771 12.7953 52.7794 12.8797 52.7963 12.9555C52.9058 13.3686 53.2679 13.6805 53.7144 13.6805C54.363 13.6805 54.7589 13.1578 54.7589 12.3318C54.7589 11.6068 54.4136 11.0168 53.7228 11.0168C53.3016 11.0168 52.9226 11.3202 52.8047 11.7754C52.7879 11.8513 52.771 11.944 52.771 12.0452V12.7111Z" fill="white"/>
<path d="M57.7073 8.42041H56.6628V14.4054H57.7073V8.42041Z" fill="white"/>
<path d="M59.5605 12.6437C59.5858 13.3855 60.167 13.7058 60.824 13.7058C61.3041 13.7058 61.6495 13.6384 61.9612 13.5203L62.1128 14.2368C61.7589 14.3802 61.2704 14.4897 60.6809 14.4897C59.35 14.4897 58.5665 13.6721 58.5665 12.4161C58.5665 11.2782 59.2572 10.2075 60.5713 10.2075C61.9022 10.2075 62.3401 11.3034 62.3401 12.2053C62.3401 12.3992 62.3233 12.5509 62.3065 12.6437H59.5605ZM61.3631 11.9187C61.3714 11.5394 61.203 10.9156 60.5122 10.9156C59.872 10.9156 59.6026 11.4973 59.5604 11.9187H61.3631Z" fill="white"/>
<path d="M68.8178 12.315C68.8178 13.8239 67.7564 14.4982 66.7119 14.4982C65.5495 14.4982 64.6567 13.6974 64.6567 12.3824C64.6567 11.0336 65.5411 10.2075 66.7794 10.2075C68.0007 10.2075 68.8178 11.0674 68.8178 12.315ZM65.7266 12.3571C65.7266 13.1495 66.1139 13.7479 66.7457 13.7479C67.3352 13.7479 67.748 13.1664 67.748 12.3402C67.748 11.6996 67.4616 10.9663 66.7541 10.9663C66.0213 10.9663 65.7266 11.6743 65.7266 12.3571Z" fill="white"/>
<path d="M69.6689 11.5225C69.6689 11.0505 69.6603 10.6543 69.6353 10.3003H70.5449L70.5955 10.9156H70.6207C70.7977 10.5953 71.2441 10.2075 71.9263 10.2075C72.6422 10.2075 73.3836 10.6711 73.3836 11.9693V14.4054H72.3475V12.0873C72.3475 11.4972 72.1286 11.0505 71.5642 11.0505C71.1515 11.0505 70.8652 11.3455 70.7556 11.6574C70.722 11.7501 70.7135 11.8766 70.7135 11.9946V14.4054H69.6692V11.5225H69.6689Z" fill="white"/>
<path d="M77.4186 9.12854V10.3002H78.4041V11.0758H77.4186V12.8881C77.4186 13.3855 77.5533 13.6467 77.9492 13.6467C78.1261 13.6467 78.2608 13.6214 78.3535 13.5962L78.3703 14.3886C78.2187 14.4475 77.9492 14.4897 77.6207 14.4897C77.2416 14.4897 76.9215 14.3633 76.7279 14.1525C76.5088 13.9165 76.4077 13.5456 76.4077 13.0062V11.0758H75.8181V10.3002H76.4077V9.37299L77.4186 9.12854Z" fill="white"/>
<path d="M79.1875 8.42041H80.2319V10.865H80.2488C80.3751 10.6711 80.5436 10.511 80.7626 10.393C80.9648 10.2749 81.2091 10.2075 81.4701 10.2075C82.1693 10.2075 82.902 10.6711 82.902 11.9861V14.4054H81.8661V12.1041C81.8661 11.5057 81.647 11.0589 81.0743 11.0589C80.67 11.0589 80.3836 11.3287 80.2741 11.6404C80.2405 11.7248 80.232 11.8345 80.232 11.9524V14.4054H79.1876V8.42041H79.1875Z" fill="white"/>
<path d="M84.7387 12.6437C84.764 13.3855 85.3452 13.7058 86.0022 13.7058C86.4823 13.7058 86.8278 13.6384 87.1394 13.5203L87.291 14.2368C86.9371 14.3802 86.4486 14.4897 85.859 14.4897C84.5282 14.4897 83.7448 13.6721 83.7448 12.4161C83.7448 11.2782 84.4354 10.2075 85.7495 10.2075C87.0804 10.2075 87.5183 11.3034 87.5183 12.2053C87.5183 12.3992 87.5015 12.5509 87.4847 12.6437H84.7387ZM86.5413 11.9187C86.5497 11.5394 86.3812 10.9156 85.6905 10.9156C85.0503 10.9156 84.7809 11.4973 84.7387 11.9187H86.5413Z" fill="white"/>
</svg>
