<svg width="9" height="5" viewBox="0 0 9 5" fill="none" xmlns="http://www.w3.org/2000/svg">
<path d="M4.50044 -4.5383e-05C4.56625 -0.000453084 4.63149 0.0121469 4.69241 0.0370306C4.75333 0.0619143 4.80874 0.0985917 4.85544 0.144955L8.85344 4.14295C8.94759 4.23711 9.00049 4.3648 9.00049 4.49795C9.00049 4.63111 8.94759 4.7588 8.85344 4.85295C8.75929 4.94711 8.63159 5 8.49844 5C8.36529 5 8.23759 4.94711 8.14344 4.85295L4.50044 1.20445L0.856942 4.85295C0.762791 4.94711 0.635094 5 0.501943 5C0.368792 5 0.241094 4.94711 0.146942 4.85295C0.0527906 4.7588 -0.000103029 4.63111 -0.000103041 4.49795C-0.000103052 4.3648 0.0527906 4.23711 0.146942 4.14295L4.14544 0.144955C4.19215 0.0985917 4.24755 0.0619144 4.30847 0.0370306C4.3694 0.0121469 4.43463 -0.000453073 4.50044 -4.5383e-05Z" fill="#0C576C"/>
</svg>
