<svg width="20" height="22" viewBox="0 0 20 22" fill="none" xmlns="http://www.w3.org/2000/svg">
<path d="M1.5171 10.1691C1.33989 9.99187 1.24034 9.75151 1.24034 9.5009C1.24034 9.25028 1.33989 9.00993 1.5171 8.83271L8.19755 2.15654C8.80847 1.52992 9.53773 1.03084 10.343 0.688243C11.1483 0.34565 12.0136 0.166362 12.8888 0.160779C13.7639 0.155196 14.6314 0.32343 15.441 0.655721C16.2506 0.988013 16.9862 1.47775 17.6051 2.09652C18.2239 2.71529 18.7138 3.45079 19.0462 4.26034C19.3786 5.06989 19.547 5.93739 19.5415 6.81252C19.5361 7.68765 19.3569 8.55298 19.0144 9.35833C18.672 10.1637 18.173 10.893 17.5465 11.504L8.86502 20.1855C7.97561 21.0527 6.78028 21.5346 5.53806 21.5266C4.29583 21.5187 3.10678 21.0215 2.22856 20.1429C1.35035 19.2643 0.853711 18.0751 0.846276 16.8329C0.838842 15.5906 1.32121 14.3955 2.18884 13.5065L9.53392 6.16139C10.0675 5.64052 10.7849 5.35098 11.5306 5.35555C12.2762 5.36011 12.99 5.65842 13.5172 6.18578C14.0444 6.71315 14.3424 7.42706 14.3467 8.17272C14.351 8.91837 14.0612 9.63568 13.5402 10.1691L8.19755 15.5103C8.02052 15.6873 7.78042 15.7868 7.53007 15.7868C7.27972 15.7868 7.03962 15.6873 6.8626 15.5103C6.68557 15.3333 6.58612 15.0932 6.58612 14.8428C6.58612 14.5925 6.68557 14.3524 6.8626 14.1754L12.2038 8.83271C12.2915 8.74506 12.361 8.641 12.4084 8.52647C12.4559 8.41195 12.4803 8.2892 12.4803 8.16524C12.4803 8.04128 12.4559 7.91853 12.4084 7.804C12.361 7.68948 12.2915 7.58541 12.2038 7.49776C12.1162 7.41011 12.0121 7.34058 11.8976 7.29314C11.7831 7.2457 11.6603 7.22128 11.5363 7.22128C11.4124 7.22128 11.2896 7.2457 11.1751 7.29314C11.0606 7.34058 10.9565 7.41011 10.8689 7.49776L3.5238 14.8428C2.99253 15.3741 2.69407 16.0947 2.69407 16.846C2.69407 17.218 2.76734 17.5864 2.90971 17.9301C3.05207 18.2738 3.26074 18.5861 3.5238 18.8491C3.78685 19.1122 4.09914 19.3208 4.44284 19.4632C4.78654 19.6056 5.15492 19.6788 5.52693 19.6788C6.27826 19.6788 6.99881 19.3804 7.53007 18.8491L16.2115 10.1677C16.6673 9.73316 17.0315 9.21189 17.2828 8.63452C17.5342 8.05716 17.6675 7.43536 17.6749 6.80572C17.6824 6.17607 17.5638 5.5513 17.3262 4.96815C17.0886 4.385 16.7368 3.85526 16.2914 3.4101C15.8461 2.96494 15.3162 2.61334 14.733 2.376C14.1497 2.13866 13.5249 2.02037 12.8952 2.02808C12.2656 2.0358 11.6439 2.16937 11.0666 2.42093C10.4893 2.67249 9.96823 3.03697 9.53392 3.49291L2.85632 10.1691C2.67916 10.3459 2.43911 10.4451 2.18884 10.4451C1.93858 10.4451 1.69853 10.3459 1.52137 10.1691" fill="black" fill-opacity="0.45"/>
</svg>
