<svg width="41" height="41" viewBox="0 0 41 41" fill="none" xmlns="http://www.w3.org/2000/svg">
<circle cx="20.5" cy="20.5" r="20.5" fill="white"/>
<path d="M28 22.5C28.8284 22.5 29.5 21.8284 29.5 21C29.5 20.1716 28.8284 19.5 28 19.5L28 22.5ZM11.9393 19.9393C11.3536 20.5251 11.3536 21.4749 11.9393 22.0607L21.4853 31.6066C22.0711 32.1924 23.0208 32.1924 23.6066 31.6066C24.1924 31.0208 24.1924 30.0711 23.6066 29.4853L15.1213 21L23.6066 12.5147C24.1924 11.9289 24.1924 10.9792 23.6066 10.3934C23.0208 9.80761 22.0711 9.80761 21.4853 10.3934L11.9393 19.9393ZM28 19.5L13 19.5L13 22.5L28 22.5L28 19.5Z" fill="#6A36FF"/>
</svg>
