<svg width="29" height="28" viewBox="0 0 29 28" fill="none" xmlns="http://www.w3.org/2000/svg">
<path d="M22.4729 17.5C21.4268 15.9121 20.8821 14.0463 20.9095 12.145V11.935C20.9064 10.8535 20.6353 9.78966 20.1205 8.83856C19.6057 7.88746 18.8632 7.07875 17.9595 6.48473C17.0558 5.89071 16.0189 5.5299 14.9416 5.43455C13.8644 5.3392 12.7802 5.51228 11.7862 5.93832C10.6208 6.41846 9.62688 7.23836 8.93395 8.29127C8.24102 9.34419 7.88116 10.5813 7.90121 11.8417V11.9117C7.91048 13.9487 7.25966 15.9338 6.04621 17.57L5.27621 18.6667C4.96306 19.0926 4.79534 19.608 4.79788 20.1367C4.79788 20.7926 5.05846 21.4217 5.5223 21.8856C5.98614 22.3494 6.61524 22.61 7.27121 22.61H21.2129C21.5377 22.61 21.8593 22.546 22.1594 22.4217C22.4595 22.2974 22.7321 22.1152 22.9618 21.8856C23.1915 21.6559 23.3736 21.3832 23.4979 21.0832C23.6222 20.7831 23.6862 20.4615 23.6862 20.1367V20.0667C23.6912 19.5682 23.5447 19.08 23.2662 18.6667L22.4729 17.5Z" fill="white"/>
<path d="M11.9844 23.7067C12.0625 24.2481 12.3332 24.7433 12.7467 25.1014C13.1602 25.4595 13.689 25.6567 14.236 25.6567C14.7831 25.6567 15.3118 25.4595 15.7254 25.1014C16.1389 24.7433 16.4096 24.2481 16.4877 23.7067H11.9844Z" fill="white"/>
<path d="M15.0994 5.46004V3.20837C15.0994 2.97631 15.0072 2.75375 14.8431 2.58966C14.679 2.42556 14.4565 2.33337 14.2244 2.33337C13.9924 2.33337 13.7698 2.42556 13.6057 2.58966C13.4416 2.75375 13.3494 2.97631 13.3494 3.20837V5.42504C13.3425 5.45182 13.3425 5.47992 13.3494 5.50671C13.9286 5.41883 14.5164 5.40316 15.0994 5.46004Z" fill="white"/>
</svg>
