<svg width="30" height="32" viewBox="0 0 30 32" fill="none" xmlns="http://www.w3.org/2000/svg">
<path d="M22.1583 31.3905C23.5861 31.3905 24.7435 30.2331 24.7435 28.8054C24.7435 27.3777 23.5861 26.2203 22.1583 26.2203C20.7306 26.2203 19.5732 27.3777 19.5732 28.8054C19.5732 30.2331 20.7306 31.3905 22.1583 31.3905Z" fill="white"/>
<path d="M10.3412 31.3905C11.7689 31.3905 12.9263 30.2331 12.9263 28.8054C12.9263 27.3777 11.7689 26.2203 10.3412 26.2203C8.91349 26.2203 7.7561 27.3777 7.7561 28.8054C7.7561 30.2331 8.91349 31.3905 10.3412 31.3905Z" fill="white"/>
<path d="M5.30316 3.97368L5.00772 7.59282C4.94863 8.28711 5.49519 8.86322 6.18948 8.86322H28.8055C29.4259 8.86322 29.9429 8.39051 29.9872 7.77009C30.1793 5.15544 28.185 3.02827 25.5704 3.02827H7.41556C7.26784 2.3783 6.9724 1.75787 6.51446 1.24085C5.77586 0.457933 4.74182 0 3.67823 0H1.1079C0.502249 0 0 0.502249 0 1.1079C0 1.71355 0.502249 2.2158 1.1079 2.2158H3.67823C4.13617 2.2158 4.56456 2.40784 4.87477 2.73282C5.18498 3.07258 5.3327 3.51574 5.30316 3.97368Z" fill="white"/>
<path d="M28.4519 11.0789H5.79164C5.17121 11.0789 4.66896 11.5516 4.60988 12.1572L4.07808 18.583C3.87127 21.1091 5.85073 23.2658 8.37674 23.2658H24.8032C27.019 23.2658 28.969 21.4488 29.1314 19.233L29.6189 12.3345C29.678 11.655 29.1462 11.0789 28.4519 11.0789Z" fill="white"/>
</svg>
