<svg width="30" height="30" viewBox="0 0 30 30" fill="none" xmlns="http://www.w3.org/2000/svg">
<path d="M28.7715 9.18752C28.0203 7.39464 26.9274 5.76503 25.5538 4.38954C24.1844 3.01164 22.5576 1.91613 20.7659 1.16521C18.9305 0.392212 16.9584 -0.00402572 14.9668 3.08348e-05H14.8998C12.8742 0.0100755 10.9155 0.411861 9.0706 1.20204C7.29427 1.96066 5.68278 3.05811 4.32618 4.43306C2.96591 5.80547 1.88558 7.42938 1.14538 9.21431C0.377021 11.0704 -0.0123124 13.0615 0.000296757 15.0703C0.0103414 17.394 0.566144 19.7009 1.60409 21.7634V26.8527C1.60409 27.7031 2.29382 28.3929 3.14092 28.3929H8.2235C10.2956 29.4385 12.5822 29.9886 14.9032 30H14.9735C16.9757 30 18.9143 29.6116 20.7425 28.8516C22.5251 28.1096 24.1458 27.0269 25.5137 25.6641C26.8931 24.2946 27.9779 22.6942 28.738 20.9096C29.5248 19.0614 29.9266 17.096 29.9366 15.067C29.9433 13.0279 29.5483 11.0491 28.7715 9.18752ZM8.28377 16.6072C7.39984 16.6072 6.67998 15.8873 6.67998 15C6.67998 14.1127 7.39984 13.3929 8.28377 13.3929C9.1677 13.3929 9.88756 14.1127 9.88756 15C9.88756 15.8873 9.17105 16.6072 8.28377 16.6072ZM14.9668 16.6072C14.0829 16.6072 13.363 15.8873 13.363 15C13.363 14.1127 14.0829 13.3929 14.9668 13.3929C15.8507 13.3929 16.5706 14.1127 16.5706 15C16.5706 15.8873 15.8507 16.6072 14.9668 16.6072ZM21.6498 16.6072C20.7659 16.6072 20.046 15.8873 20.046 15C20.046 14.1127 20.7659 13.3929 21.6498 13.3929C22.5338 13.3929 23.2536 14.1127 23.2536 15C23.2536 15.8873 22.5338 16.6072 21.6498 16.6072Z" fill="white"/>
</svg>
