<svg width="202" height="239" viewBox="0 0 202 239" fill="none" xmlns="http://www.w3.org/2000/svg">
<g clip-path="url(#clip0_37_7431)">
<g opacity="0.25">
<g opacity="0.41">
<path d="M199.807 120.86C199.994 117.623 199.909 114.372 199.548 111.153C197.836 96.0272 190.094 81.766 178.701 71.7048C174.636 68.1138 170.012 64.8989 167.367 60.1616C162.913 52.1825 163.248 43.0079 157.721 35.1317C152.186 27.2422 144.117 21.09 135.021 17.9333C107.894 8.51239 69.9189 23.8527 73.3366 56.6063C73.35 56.7228 73.3634 56.8929 73.3768 57.1123C73.8325 63.9183 68.5026 69.6362 61.7207 69.7974C36.693 70.3929 15.15 89.7317 10.5394 114.229C7.57291 129.981 12.4292 147.251 23.9289 158.396C32.5113 166.715 44.0289 171.287 55.5509 174.426C78.6531 180.721 102.962 182.042 126.783 179.633C149.081 177.381 172.599 170.955 187.02 153.761C194.714 144.591 199.119 132.829 199.811 120.86H199.807Z" fill="#4E7EDA"/>
</g>
<g opacity="0.31">
<path d="M193.051 17.5431C194.449 12.8693 191.801 7.94525 187.138 6.54483C182.474 5.14441 177.561 7.79799 176.164 12.4717C174.767 17.1455 177.414 22.0696 182.078 23.47C186.741 24.8704 191.654 22.2169 193.051 17.5431Z" fill="#4E7EDA"/>
</g>
<g opacity="0.31">
<path d="M170.186 5.64674C170.503 7.31241 169.413 8.91987 167.746 9.23778C166.084 9.55569 164.48 8.46316 164.163 6.79301C163.846 5.12734 164.936 3.51988 166.603 3.20197C168.265 2.88406 169.868 3.9766 170.186 5.64674Z" fill="#4E7EDA"/>
</g>
<g opacity="0.31">
<path d="M60.8589 23.9122C61.3798 21.7004 60.013 19.4841 57.8061 18.9621C55.5992 18.44 53.3878 19.8099 52.867 22.0217C52.3461 24.2336 53.7129 26.4498 55.9198 26.9718C58.1267 27.4939 60.338 26.124 60.8589 23.9122Z" fill="#4E7EDA"/>
</g>
<g opacity="0.31">
<path d="M20.3941 182.435C21.2443 178.802 18.995 175.166 15.37 174.314C11.7451 173.462 8.11723 175.716 7.26701 179.349C6.41678 182.982 8.66614 186.618 12.2911 187.47C15.916 188.322 19.5439 186.068 20.3941 182.435Z" fill="#4E7EDA"/>
</g>
</g>
<path opacity="0.58" d="M27.9499 16.7422C29.0602 16.7422 29.9603 15.8401 29.9603 14.7273C29.9603 13.6145 29.0602 12.7124 27.9499 12.7124C26.8396 12.7124 25.9395 13.6145 25.9395 14.7273C25.9395 15.8401 26.8396 16.7422 27.9499 16.7422Z" fill="#0A2830"/>
<path opacity="0.58" d="M1.59536 116.969C1.59536 117.412 1.23795 117.766 0.800123 117.766C0.362294 117.766 0.00488281 117.408 0.00488281 116.969C0.00488281 116.53 0.362294 116.172 0.800123 116.172C1.23795 116.172 1.59536 116.53 1.59536 116.969Z" fill="#0A2830"/>
<path opacity="0.58" d="M199.105 34.2899C199.105 34.7332 198.748 35.0869 198.31 35.0869C197.872 35.0869 197.515 34.7287 197.515 34.2899C197.515 33.8511 197.872 33.4929 198.31 33.4929C198.748 33.4929 199.105 33.8511 199.105 34.2899Z" fill="#0A2830"/>
<path opacity="0.58" d="M13.6354 1.66615C13.6354 2.10944 13.278 2.46317 12.8402 2.46317C12.4023 2.46317 12.0449 2.10496 12.0449 1.66615C12.0449 1.22735 12.4023 0.869141 12.8402 0.869141C13.278 0.869141 13.6354 1.22735 13.6354 1.66615Z" fill="white"/>
<path opacity="0.58" d="M200.7 87.6002C200.7 88.0435 200.342 88.3972 199.905 88.3972C199.467 88.3972 199.109 88.039 199.109 87.6002C199.109 87.1614 199.467 86.8032 199.905 86.8032C200.342 86.8032 200.7 87.1614 200.7 87.6002Z" fill="white"/>
<path opacity="0.58" d="M83.1745 1.66615C83.1745 2.10944 82.8171 2.46317 82.3792 2.46317C81.9414 2.46317 81.584 2.10496 81.584 1.66615C81.584 1.22735 81.9414 0.869141 82.3792 0.869141C82.8171 0.869141 83.1745 1.22735 83.1745 1.66615Z" fill="white"/>
<path opacity="0.58" d="M138.399 4.59441C138.122 5.90187 136.839 6.7347 135.535 6.45709C134.23 6.17948 133.399 4.89441 133.676 3.58695C133.953 2.27949 135.236 1.44665 136.54 1.72426C137.845 2.00188 138.676 3.28695 138.399 4.59441Z" fill="#0A2830"/>
<g opacity="0.25">
<g opacity="0.47">
<path d="M21.9816 28.308C19.8684 24.3588 14.9585 22.8767 11.0225 24.9946C7.08201 27.1125 2.86455 33.502 4.97775 37.4513C7.09094 41.4005 13.3769 38.2931 17.849 38.3468C24.0859 38.4184 24.0948 32.2573 21.9816 28.308Z" fill="#4E7EDA"/>
</g>
<g opacity="0.47">
<path d="M198.896 148.326C201.692 143.871 202.394 138.341 201.809 133.106C201.228 127.908 199.642 122.45 197.421 117.721C195.317 113.239 192.27 109.241 191.403 104.248C190.255 97.6527 193.262 91.3124 193.959 84.8422C195.348 71.9602 186.663 60.6139 175.887 54.4841C167.135 49.505 156.877 47.6378 146.816 47.7721C137.76 47.893 128.722 49.5005 119.948 51.6677C111.491 53.7542 103.226 56.5035 94.3617 55.6348C86.9901 54.9139 80.3512 51.8468 73.4844 49.5587C57.0926 44.096 37.2429 43.3259 22.254 51.6408C12.6351 56.9781 5.9024 65.6467 2.91802 74.9646C0.728875 81.7885 0.081067 89.6377 1.68495 96.5467C3.48541 104.311 6.8138 111.144 5.93368 119.324C5.21439 126.032 2.75272 132.574 2.97163 139.379C3.15927 145.227 5.34395 151.079 8.74382 155.808C8.96274 156.112 9.19952 156.412 9.45865 156.681H189.335C193.101 154.648 196.617 151.948 198.891 148.321L198.896 148.326Z" fill="#4E7EDA"/>
</g>
<g opacity="0.81">
<path d="M175.807 143.857C176.446 138.887 174.953 134.27 175.145 129.439C175.521 120.148 184.036 113.736 187.007 105.381C190.764 94.8048 190.586 82.9571 186.02 72.6497C183.822 67.684 180.609 63.0676 176.222 59.8751C169.458 54.9542 160.594 53.8751 152.262 54.4974C139.86 55.4243 126.77 60.596 114.301 59.1855C107.42 58.4064 105.316 51.2333 101.764 46.5049C97.7435 41.1542 92.2707 36.9497 86.217 34.1557C75.0702 29.002 61.6896 28.5139 50.2971 33.1885C38.1318 38.1766 27.53 50.3601 28.227 64.1333C28.5487 70.5049 31.198 76.8362 29.9738 83.1004C28.4325 90.9586 22.285 98.1227 17.8263 104.526C12.903 111.596 9.92306 120.032 9.34227 128.633C8.68106 138.39 11.1025 148.33 16.1688 156.685H171.531C173.787 152.75 175.23 148.357 175.807 143.857Z" fill="#4E7EDA"/>
</g>
</g>
<path d="M187.797 158.606H11.1199C10.7313 158.606 10.4141 158.288 10.4141 157.899C10.4141 157.509 10.7313 157.191 11.1199 157.191H187.797C188.186 157.191 188.503 157.509 188.503 157.899C188.503 158.288 188.186 158.606 187.797 158.606Z" fill="#222222"/>
<path d="M165.415 111.255H131.054C129.674 111.255 128.548 110.127 128.548 108.743V87.851C128.548 86.1853 129.902 84.8286 131.564 84.8286H156.216C156.462 84.8286 156.663 85.0301 156.663 85.2764C156.663 85.5226 156.462 85.7241 156.216 85.7241H131.564C130.393 85.7241 129.441 86.6779 129.441 87.851V108.743C129.441 109.635 130.165 110.36 131.054 110.36H165.415C166.304 110.36 167.028 109.635 167.028 108.743V88.3973C167.028 86.9241 165.83 85.7241 164.36 85.7241H159.598C159.352 85.7241 159.151 85.5226 159.151 85.2764C159.151 85.0301 159.352 84.8286 159.598 84.8286H164.36C166.326 84.8286 167.921 86.4316 167.921 88.3973V108.743C167.921 110.127 166.795 111.255 165.415 111.255Z" fill="#0A2830"/>
<path d="M130.178 110.642C130.053 110.642 129.932 110.593 129.843 110.49C129.678 110.306 129.696 110.024 129.879 109.858L143.916 97.3436C144.099 97.1779 144.385 97.1958 144.546 97.3794C144.711 97.563 144.694 97.8451 144.51 98.0107L130.473 110.526C130.388 110.602 130.281 110.638 130.174 110.638L130.178 110.642Z" fill="#0A2830"/>
<path d="M166.147 110.987C166.04 110.987 165.937 110.951 165.852 110.875L151.833 98.4226C151.65 98.257 151.632 97.9749 151.797 97.7913C151.962 97.6032 152.244 97.5898 152.427 97.751L166.447 110.203C166.63 110.369 166.648 110.651 166.482 110.835C166.393 110.933 166.272 110.987 166.147 110.987Z" fill="#0A2830"/>
<path d="M148.237 100.796C147.773 100.796 147.308 100.648 146.91 100.357L129.134 87.2644C128.933 87.1167 128.892 86.8391 129.04 86.6376C129.187 86.4405 129.464 86.3958 129.665 86.5435L147.442 99.636C147.916 99.9853 148.554 99.9853 149.028 99.636L166.425 86.9241C166.626 86.7764 166.903 86.8211 167.05 87.0226C167.198 87.2241 167.153 87.5017 166.952 87.6495L149.555 100.361C149.162 100.648 148.697 100.796 148.237 100.796Z" fill="#0A2830"/>
<path d="M165.718 82.0347C166.089 82.3078 166.59 82.3078 166.96 82.0347L181.744 71.2303C181.172 70.5228 180.301 70.0706 179.322 70.0706H152.807C151.989 70.0706 151.261 70.4556 150.792 71.0512C150.81 71.0601 150.828 71.0646 150.841 71.0735L165.714 82.0302L165.718 82.0347Z" fill="white"/>
<path d="M167.488 82.7602C167.144 83.0109 166.742 83.1363 166.344 83.1363C165.947 83.1363 165.536 83.0109 165.192 82.7557L162.936 81.0945L151.53 91.2631C151.53 91.2631 151.512 91.2721 151.503 91.281C151.749 91.384 152.017 91.4422 152.303 91.4422H180.386C180.547 91.4422 180.699 91.4198 180.846 91.384L169.494 81.296L167.493 82.7602H167.488Z" fill="white"/>
<path d="M162.198 80.548L150.372 71.8391C150.287 72.0943 150.238 72.3675 150.238 72.6496V89.3779C150.238 89.9286 150.457 90.4301 150.81 90.7973C150.832 90.7212 150.868 90.6495 150.931 90.5913L162.194 80.548H162.198Z" fill="white"/>
<path d="M181.623 90.8825C181.65 90.9049 181.663 90.9362 181.681 90.9631C182.137 90.5825 182.436 90.0183 182.436 89.378V73.1959C182.436 72.775 182.351 72.372 182.199 72.0049L170.222 80.7541L181.619 90.878L181.623 90.8825Z" fill="white"/>
<g opacity="0.69">
<path d="M182.491 132.99H159.169C157.789 132.99 156.663 131.862 156.663 130.478V116.911C156.663 115.245 158.017 113.888 159.679 113.888H181.432C183.397 113.888 184.992 115.491 184.992 117.457V130.478C184.992 131.862 183.867 132.99 182.486 132.99H182.491ZM159.679 114.784C158.508 114.784 157.557 115.738 157.557 116.911V130.478C157.557 131.369 158.28 132.094 159.169 132.094H182.491C183.38 132.094 184.103 131.369 184.103 130.478V117.457C184.103 115.984 182.906 114.784 181.436 114.784H159.683H159.679Z" fill="#FFFCFE"/>
<path d="M167.66 122.834L157.653 131.764L158.247 132.433L168.254 123.503L167.66 122.834Z" fill="#FFFCFE"/>
<path d="M173.894 123.12L173.302 123.79L183.299 132.67L183.891 132L173.894 123.12Z" fill="#FFFCFE"/>
<path d="M170.83 125.53C170.473 125.53 170.115 125.418 169.811 125.194L157.137 115.859L157.664 115.138L170.339 124.473C170.633 124.688 171.027 124.688 171.321 124.473L184.452 114.878L184.979 115.603L171.849 125.199C171.545 125.423 171.187 125.53 170.835 125.53H170.83Z" fill="#FFFCFE"/>
</g>
<path d="M182.267 75.7929C185.366 75.7929 187.878 73.275 187.878 70.169C187.878 67.0631 185.366 64.5452 182.267 64.5452C179.168 64.5452 176.655 67.0631 176.655 70.169C176.655 73.275 179.168 75.7929 182.267 75.7929Z" fill="#0A2830"/>
<path d="M181.024 72.3407H180.408V68.6198L179.782 69.0049V68.3691L180.408 67.9526H181.024V72.3452V72.3407Z" fill="#FFFCFE"/>
<path d="M182.338 72.0542C182.128 71.8348 182.021 71.5303 182.021 71.1363V69.1393C182.021 68.7453 182.128 68.4363 182.342 68.2214C182.557 68.002 182.865 67.8945 183.276 67.8945C183.687 67.8945 183.995 68.002 184.21 68.2214C184.42 68.4408 184.527 68.7453 184.527 69.1438V71.1408C184.527 71.5348 184.42 71.8438 184.205 72.0587C183.991 72.2781 183.682 72.3856 183.276 72.3856C182.869 72.3856 182.557 72.2736 182.342 72.0542H182.338ZM183.749 71.6289C183.852 71.5169 183.906 71.3512 183.906 71.1363V69.1393C183.906 68.9244 183.857 68.7632 183.754 68.6468C183.651 68.5348 183.49 68.4766 183.271 68.4766C183.053 68.4766 182.892 68.5348 182.789 68.6468C182.686 68.7587 182.637 68.9244 182.637 69.1393V71.1363C182.637 71.3512 182.691 71.5124 182.793 71.6289C182.896 71.7408 183.057 71.799 183.276 71.799C183.495 71.799 183.651 71.7408 183.758 71.6289H183.749Z" fill="#FFFCFE"/>
<path d="M57.7132 68.5973C57.4049 68.5973 57.1056 68.4764 56.8867 68.2436L53.1026 64.3077C52.8524 64.048 52.4995 63.8958 52.1376 63.8958L14.9757 63.851C12.9117 63.851 11.2363 62.1674 11.2363 60.1033V45.9809C11.2363 43.9123 12.9162 42.2332 14.9802 42.2332H54.6082C56.9582 42.2332 58.8703 44.1496 58.8703 46.5048V67.4465C58.8703 67.9212 58.5889 68.3421 58.151 68.5167C58.0081 68.5749 57.8651 68.6018 57.7177 68.6018L57.7132 68.5973ZM14.9802 43.1287C13.4076 43.1287 12.1299 44.4093 12.1299 45.9809V60.1033C12.1299 61.6794 13.4076 62.9555 14.9802 62.9555L52.1421 63.0003C52.7452 63.0003 53.3305 63.251 53.7504 63.6854L57.53 67.6212C57.6417 67.7331 57.7668 67.7018 57.8115 67.6839C57.8606 67.6659 57.9723 67.6033 57.9723 67.4421V46.5003C57.9723 44.6421 56.4623 43.1242 54.6037 43.1242H14.9802V43.1287Z" fill="white"/>
<path d="M48.4429 50.5794H38.9224C38.6766 50.5794 38.4756 50.3779 38.4756 50.1316C38.4756 49.8853 38.6766 49.6838 38.9224 49.6838H48.4429C48.6886 49.6838 48.8897 49.8853 48.8897 50.1316C48.8897 50.3779 48.6886 50.5794 48.4429 50.5794Z" fill="#0A2830"/>
<path d="M33.1237 50.5794H18.5503C18.3046 50.5794 18.1035 50.3779 18.1035 50.1316C18.1035 49.8853 18.3046 49.6838 18.5503 49.6838H33.1237C33.3695 49.6838 33.5705 49.8853 33.5705 50.1316C33.5705 50.3779 33.3695 50.5794 33.1237 50.5794Z" fill="#0A2830"/>
<path d="M48.4432 53.9824H24.4653C24.2196 53.9824 24.0186 53.7809 24.0186 53.5347C24.0186 53.2884 24.2196 53.0869 24.4653 53.0869H48.4432C48.6889 53.0869 48.8899 53.2884 48.8899 53.5347C48.8899 53.7809 48.6889 53.9824 48.4432 53.9824Z" fill="#0A2830"/>
<path d="M48.4431 57.3809H32.5561C32.3104 57.3809 32.1094 57.1794 32.1094 56.9331C32.1094 56.6868 32.3104 56.4854 32.5561 56.4854H48.4431C48.6888 56.4854 48.8898 56.6868 48.8898 56.9331C48.8898 57.1794 48.6888 57.3809 48.4431 57.3809Z" fill="#0A2830"/>
<path d="M52.6068 44.5123H39.6953C39.2843 44.5123 38.8866 44.6824 38.6007 44.978L35.3885 48.3182C35.0132 48.7078 34.3564 48.4436 34.3564 47.9018V30.1213C34.3564 28.3302 35.804 26.875 37.5955 26.875H53.1161C54.5725 26.875 55.752 28.0571 55.752 29.5168V41.3556C55.752 43.0974 54.3402 44.5123 52.6023 44.5123H52.6068Z" fill="#0A2830"/>
<path d="M41.1738 36.0855C41.1738 36.6989 40.6779 37.1914 40.0703 37.1914C39.4627 37.1914 38.9668 36.6944 38.9668 36.0855C38.9668 35.4765 39.4627 34.9795 40.0703 34.9795C40.6779 34.9795 41.1738 35.4765 41.1738 36.0855Z" fill="#FFFCFE"/>
<path d="M46.3525 36.0855C46.3525 36.6989 45.8566 37.1914 45.249 37.1914C44.6414 37.1914 44.1455 36.6944 44.1455 36.0855C44.1455 35.4765 44.6414 34.9795 45.249 34.9795C45.8566 34.9795 46.3525 35.4765 46.3525 36.0855Z" fill="#FFFCFE"/>
<path d="M50.5518 37.1914C51.1612 37.1914 51.6553 36.6963 51.6553 36.0855C51.6553 35.4747 51.1612 34.9795 50.5518 34.9795C49.9423 34.9795 49.4482 35.4747 49.4482 36.0855C49.4482 36.6963 49.9423 37.1914 50.5518 37.1914Z" fill="#FFFCFE"/>
<path d="M52.784 89.1229C56.3064 82.0793 53.4646 73.5076 46.4367 69.9774C39.4089 66.4472 30.8562 69.2953 27.3339 76.3388C23.8115 83.3824 26.6533 91.9541 33.6811 95.4843C40.709 99.0145 49.2617 96.1664 52.784 89.1229Z" fill="white"/>
<path d="M40.0576 90.5601C38.485 90.5601 37.167 89.3825 36.9839 87.8198L36.9258 87.3184H43.1894L43.1313 87.8198C42.9526 89.3825 41.6302 90.5601 40.0576 90.5601ZM37.9891 88.2139C38.2973 89.0691 39.1149 89.6646 40.0576 89.6646C41.0003 89.6646 41.8178 89.0691 42.1261 88.2139H37.9891Z" fill="#FFFCFE"/>
<path d="M45.5525 85.2541H34.5576V80.1944C34.5576 77.275 36.9255 74.9019 39.8339 74.9019H40.2717C43.1802 74.9019 45.5525 77.275 45.5525 80.1944V85.2541ZM35.4511 84.3586H44.659V80.1944C44.659 77.772 42.6932 75.7974 40.2717 75.7974H39.8339C37.4169 75.7974 35.4511 77.7675 35.4511 80.1944V84.3586Z" fill="#FFFCFE"/>
<path d="M45.1104 88.2183H35.0046C33.977 88.2183 33.1416 87.381 33.1416 86.3512V86.2213C33.1416 85.1915 33.977 84.3586 35.0046 84.3586H45.1104C46.138 84.3586 46.9734 85.1959 46.9734 86.2213V86.3512C46.9734 87.381 46.138 88.2183 45.1104 88.2183ZM35.0046 85.2542C34.4685 85.2542 34.0351 85.6885 34.0351 86.2213V86.3512C34.0351 86.884 34.4685 87.3228 35.0046 87.3228H45.1104C45.6421 87.3228 46.0799 86.8885 46.0799 86.3512V86.2213C46.0799 85.6885 45.6465 85.2542 45.1104 85.2542H35.0046Z" fill="#FFFCFE"/>
<path d="M67.5403 17.9177C71.0314 14.4188 71.0314 8.7458 67.5402 5.24682C64.0491 1.74785 58.3887 1.74784 54.8975 5.24682C51.4063 8.74579 51.4063 14.4188 54.8975 17.9177C58.3887 21.4167 64.0491 21.4167 67.5403 17.9177Z" fill="white"/>
<path d="M60.7207 8.04224H61.7125V13.3124H60.7207V8.04224ZM60.7207 14.1363H61.7125V15.1303H60.7207V14.1363Z" fill="#FFFCFE"/>
<path d="M181.825 31.5764H134.959C132.471 31.5764 130.451 33.6003 130.451 36.0943V60.8599C130.451 61.6122 131.367 61.9838 131.885 61.442L136.357 56.7898C136.755 56.3734 137.305 56.1406 137.881 56.1406L181.825 56.0913C183.978 56.0913 185.72 54.345 185.72 52.1868V35.4854C185.72 33.3272 183.978 31.5809 181.825 31.5809V31.5764Z" fill="#0A2830"/>
<path d="M153.513 40.8362H142.254C142.009 40.8362 141.808 40.6347 141.808 40.3884C141.808 40.1422 142.009 39.9407 142.254 39.9407H153.513C153.759 39.9407 153.96 40.1422 153.96 40.3884C153.96 40.6347 153.759 40.8362 153.513 40.8362Z" fill="#FFFCFE"/>
<path d="M177.607 40.8362H160.371C160.125 40.8362 159.924 40.6347 159.924 40.3884C159.924 40.1422 160.125 39.9407 160.371 39.9407H177.607C177.852 39.9407 178.054 40.1422 178.054 40.3884C178.054 40.6347 177.852 40.8362 177.607 40.8362Z" fill="#FFFCFE"/>
<path d="M170.611 44.8569H142.25C142.005 44.8569 141.804 44.6555 141.804 44.4092C141.804 44.1629 142.005 43.9614 142.25 43.9614H170.611C170.857 43.9614 171.058 44.1629 171.058 44.4092C171.058 44.6555 170.857 44.8569 170.611 44.8569Z" fill="#FFFCFE"/>
<path d="M161.045 48.8779H142.254C142.009 48.8779 141.808 48.6765 141.808 48.4302C141.808 48.1839 142.009 47.9824 142.254 47.9824H161.045C161.291 47.9824 161.492 48.1839 161.492 48.4302C161.492 48.6765 161.291 48.8779 161.045 48.8779Z" fill="#FFFCFE"/>
<path d="M122.24 32.5123H135.299C135.714 32.5123 136.116 32.6824 136.402 32.9824L139.65 36.363C140.03 36.757 140.691 36.4884 140.691 35.9421V17.9601C140.691 16.1466 139.226 14.678 137.416 14.678H121.717C120.247 14.678 119.05 15.8735 119.05 17.3511V29.3242C119.05 31.0884 120.475 32.5168 122.235 32.5168L122.24 32.5123Z" fill="white"/>
<path d="M133.807 23.9915C133.807 24.6094 134.307 25.1109 134.924 25.1109C135.54 25.1109 136.04 24.6094 136.04 23.9915C136.04 23.3736 135.54 22.8721 134.924 22.8721C134.307 22.8721 133.807 23.3736 133.807 23.9915Z" fill="#FFFCFE"/>
<path d="M128.565 23.9915C128.565 24.6094 129.066 25.1109 129.682 25.1109C130.299 25.1109 130.799 24.6094 130.799 23.9915C130.799 23.3736 130.299 22.8721 129.682 22.8721C129.066 22.8721 128.565 23.3736 128.565 23.9915Z" fill="#FFFCFE"/>
<path d="M123.205 23.9915C123.205 24.6094 123.705 25.1109 124.322 25.1109C124.939 25.1109 125.439 24.6094 125.439 23.9915C125.439 23.3736 124.939 22.8721 124.322 22.8721C123.705 22.8721 123.205 23.3736 123.205 23.9915Z" fill="#FFFCFE"/>
<path d="M188.73 39.6917C191.44 36.9761 191.44 32.5732 188.73 29.8576C186.02 27.142 181.627 27.142 178.918 29.8576C176.208 32.5732 176.208 36.9761 178.918 39.6917C181.627 42.4073 186.02 42.4073 188.73 39.6917Z" fill="white"/>
<path d="M184.617 38.0241H183.661V32.2435L182.691 32.839V31.8494L183.661 31.2002H184.617V38.0196V38.0241Z" fill="#FFFCFE"/>
<g opacity="0.61">
<path d="M141.285 135.726H129.593C129.348 135.726 129.146 135.524 129.146 135.278C129.146 135.032 129.348 134.83 129.593 134.83H141.285C141.531 134.83 141.732 135.032 141.732 135.278C141.732 135.524 141.531 135.726 141.285 135.726Z" fill="#FFFCFE"/>
<path d="M166.308 135.726H148.406C148.16 135.726 147.959 135.524 147.959 135.278C147.959 135.032 148.16 134.83 148.406 134.83H166.308C166.553 134.83 166.754 135.032 166.754 135.278C166.754 135.524 166.553 135.726 166.308 135.726Z" fill="#FFFCFE"/>
<path d="M159.044 139.903H129.588C129.343 139.903 129.142 139.702 129.142 139.456C129.142 139.209 129.343 139.008 129.588 139.008H159.044C159.289 139.008 159.49 139.209 159.49 139.456C159.49 139.702 159.289 139.903 159.044 139.903Z" fill="#FFFCFE"/>
<path d="M149.108 144.081H129.593C129.348 144.081 129.146 143.879 129.146 143.633C129.146 143.387 129.348 143.185 129.593 143.185H149.108C149.354 143.185 149.555 143.387 149.555 143.633C149.555 143.879 149.354 144.081 149.108 144.081Z" fill="#FFFCFE"/>
<path d="M65.9155 129.121H35.6919C35.4462 129.121 35.2451 128.92 35.2451 128.673C35.2451 128.427 35.4462 128.226 35.6919 128.226H65.9155C66.1612 128.226 66.3622 128.427 66.3622 128.673C66.3622 128.92 66.1612 129.121 65.9155 129.121Z" fill="#FFFCFE"/>
<path d="M65.9155 119.759H35.6919C35.4462 119.759 35.2451 119.557 35.2451 119.311C35.2451 119.065 35.4462 118.863 35.6919 118.863H65.9155C66.1612 118.863 66.3622 119.065 66.3622 119.311C66.3622 119.557 66.1612 119.759 65.9155 119.759Z" fill="#FFFCFE"/>
<path d="M65.9151 124.438H49.6216C49.3758 124.438 49.1748 124.236 49.1748 123.99C49.1748 123.743 49.3758 123.542 49.6216 123.542H65.9151C66.1608 123.542 66.3618 123.743 66.3618 123.99C66.3618 124.236 66.1608 124.438 65.9151 124.438Z" fill="#FFFCFE"/>
<path d="M65.9151 114.797H49.6216C49.3758 114.797 49.1748 114.596 49.1748 114.35C49.1748 114.103 49.3758 113.902 49.6216 113.902H65.9151C66.1608 113.902 66.3618 114.103 66.3618 114.35C66.3618 114.596 66.1608 114.797 65.9151 114.797Z" fill="#FFFCFE"/>
<path d="M65.9157 110.329H54.9253C54.6796 110.329 54.4785 110.127 54.4785 109.881C54.4785 109.635 54.6796 109.433 54.9253 109.433H65.9157C66.1614 109.433 66.3624 109.635 66.3624 109.881C66.3624 110.127 66.1614 110.329 65.9157 110.329Z" fill="#FFFCFE"/>
</g>
<path d="M123.012 42.6228C123.012 42.6228 122.963 42.6183 122.972 42.6049C128.445 35.2885 121.596 25.5766 115.627 24.9766C113.594 22.4378 110.865 20.3826 107.55 19.1512C105.794 18.502 103.994 18.1438 102.198 18.0453C102.166 13.5184 98.4938 9.85571 93.9681 9.85571C89.4424 9.85571 85.7387 13.5497 85.7387 18.1035C85.7387 20.2214 86.5429 22.1467 87.8519 23.6109C86.525 24.9587 85.3903 26.5214 84.5057 28.2811C84.2957 28.6975 84.1125 29.1184 83.9383 29.5393C77.2591 29.3154 71.5227 34.384 70.9955 41.1273C70.6202 45.896 72.9523 50.2527 76.6962 52.684C74.4267 53.884 72.9881 55.5362 72.8362 57.4527C72.6619 59.6825 74.2658 61.8318 76.9911 63.4929C76.4282 64.6303 76.111 65.8885 76.111 67.2094C76.111 72.3362 80.8109 76.4914 86.6099 76.4914C90.528 76.4914 93.9458 74.5929 95.7507 71.7765C97.0017 72.5914 98.3866 73.3437 99.8833 73.9974C107.612 77.369 115.292 76.8317 117.044 72.8019C117.517 71.7093 117.504 70.478 117.084 69.1885C117.548 69.1079 118.004 69.0049 118.451 68.8616C134.065 63.8646 136.169 48.587 123.012 42.6139V42.6228Z" fill="#222222"/>
<path d="M125.952 109.384L124.906 106.433L132.738 101.956L132.984 101.817V101.051C132.984 86.6242 123.732 74.9287 112.321 74.9287H100.209L100.366 75.2198L79.0015 75.3944C73.676 75.4392 69.1592 79.272 67.4035 84.6317L52.3564 118.294L54.5233 118.558L66.8629 120.072L67.1399 154.29L120.05 154.303L121.797 126.381L123.785 123.126L124.746 121.554C126.921 117.994 127.373 113.418 125.947 109.388L125.952 109.384Z" fill="white"/>
<path d="M81.7003 122.038L69.1686 120.573C69.048 120.56 68.9586 120.448 68.972 120.327C68.9854 120.202 69.1016 120.121 69.2177 120.13L81.3519 121.55L84.7964 106.648C84.8232 106.527 84.9439 106.451 85.0645 106.482C85.1851 106.509 85.2611 106.63 85.2298 106.751L81.6959 122.042L81.7003 122.038Z" fill="#14213A"/>
<path d="M94.7813 89.9824C87.4722 89.9824 81.5303 84.0227 81.5303 76.7018V75.2018C81.5303 75.0227 81.6732 74.8794 81.8519 74.8794C82.0306 74.8794 82.1736 75.0227 82.1736 75.2018V76.7018C82.1736 83.6689 87.8296 89.3331 94.7768 89.3331C101.724 89.3331 107.38 83.6645 107.38 76.7018V75.2018C107.38 75.0227 107.523 74.8794 107.702 74.8794C107.88 74.8794 108.023 75.0227 108.023 75.2018V76.7018C108.023 84.0271 102.077 89.9824 94.7724 89.9824H94.7813Z" fill="#222222"/>
<path d="M85.9356 82.751C85.8329 82.751 85.7301 82.7018 85.6676 82.6077C84.4345 80.7809 83.7822 78.6495 83.7822 76.4376V75.2018C83.7822 75.0227 83.9252 74.8794 84.1039 74.8794C84.2826 74.8794 84.4256 75.0227 84.4256 75.2018V76.4376C84.4256 78.5197 85.0376 80.5301 86.1992 82.2451C86.2975 82.3928 86.2618 82.5943 86.1143 82.6973C86.0607 82.7331 85.9937 82.751 85.9312 82.751H85.9356Z" fill="#222222"/>
<path d="M94.7812 87.4614C92.2615 87.4614 89.8936 86.6331 87.9278 85.0614C87.7893 84.9495 87.7625 84.748 87.8787 84.6047C87.9904 84.4659 88.1959 84.4435 88.3344 84.5554C90.184 86.0331 92.4134 86.8166 94.7857 86.8166C97.158 86.8166 99.3829 86.0375 101.228 84.5644C101.367 84.4525 101.572 84.4749 101.684 84.6137C101.795 84.7525 101.773 84.9584 101.635 85.0704C99.6733 86.6375 97.3054 87.4659 94.7857 87.4659L94.7812 87.4614Z" fill="#222222"/>
<path d="M104.07 82.0391C104.016 82.0391 103.963 82.0257 103.909 81.9988C103.753 81.9092 103.699 81.7122 103.788 81.5555C104.668 80.0018 105.133 78.2331 105.133 76.4376V75.2018C105.133 75.0227 105.276 74.8794 105.455 74.8794C105.633 74.8794 105.776 75.0227 105.776 75.2018V76.4376C105.776 78.3451 105.281 80.2257 104.347 81.8734C104.289 81.9809 104.177 82.0391 104.065 82.0391H104.07Z" fill="#222222"/>
<path d="M126.287 163.348L117.941 150.77C116.038 148.326 114.943 145.361 112.723 144.752L111.226 144.372L111.235 144.349L73.8008 135.027L76.8879 121.299L54.5184 118.554L47.6115 141.394C47.1602 143.364 47.1826 145.33 47.6025 147.175C48.6792 152.942 53.6696 157.5 59.9243 157.608L99.3914 157.509C103.493 161.812 116.306 170.62 116.306 170.62C116.909 171.148 117.834 171.081 118.361 170.476C118.705 170.082 118.79 169.549 118.647 169.084C118.714 169.07 118.754 169.061 118.754 169.061C118.794 169.075 118.83 169.079 118.87 169.088L119.415 169.621C120.05 170.239 121.077 170.226 121.694 169.585L121.734 169.545C122.011 169.258 122.154 168.896 122.176 168.524L122.19 168.537C122.811 169.173 123.834 169.182 124.468 168.564L124.509 168.524C125.143 167.902 125.152 166.876 124.535 166.24L124.379 166.084C124.357 166.026 124.334 165.967 124.312 165.914C124.92 166.258 125.706 166.182 126.229 165.672L126.269 165.631C126.903 165.009 126.912 163.984 126.296 163.348H126.287Z" fill="#FFBA94"/>
<path d="M124.428 166.151C124.37 166.151 124.312 166.129 124.267 166.084L119.304 160.997C119.219 160.908 119.219 160.769 119.304 160.679C119.393 160.594 119.536 160.594 119.621 160.679L124.585 165.766C124.67 165.855 124.67 165.994 124.585 166.084C124.54 166.124 124.486 166.146 124.428 166.146V166.151Z" fill="#FB8E77"/>
<path d="M121.793 168.148C121.734 168.148 121.676 168.126 121.632 168.081L116.668 162.994C116.583 162.905 116.583 162.766 116.668 162.676C116.758 162.591 116.9 162.591 116.985 162.676L121.949 167.763C122.034 167.852 122.034 167.991 121.949 168.081C121.904 168.121 121.851 168.144 121.793 168.144V168.148Z" fill="#FB8E77"/>
<path d="M118.656 169.191C118.602 169.191 118.544 169.169 118.499 169.129L113.384 164.194C113.295 164.109 113.295 163.966 113.38 163.876C113.464 163.787 113.607 163.787 113.697 163.872L118.812 168.806C118.902 168.891 118.906 169.035 118.817 169.124C118.772 169.169 118.714 169.191 118.656 169.191Z" fill="#FB8E77"/>
<path d="M77.5533 136.182C77.531 136.182 77.5086 136.182 77.4863 136.173L65.9643 132.461C65.8481 132.425 65.7811 132.296 65.8213 132.179C65.857 132.063 65.9866 131.996 66.1028 132.036L77.6248 135.748C77.741 135.784 77.808 135.914 77.7678 136.03C77.7365 136.124 77.6516 136.187 77.5533 136.187V136.182Z" fill="#FB8E77"/>
<path d="M105.516 36.3811C103.318 36.7125 101.232 38.7498 99.5611 40.9886C99.302 41.3333 99.0205 41.6513 98.7167 41.9378C96.4784 44.0557 93.2304 44.2617 90.7017 42.8736L90.0852 42.7617C87.3421 42.2736 84.724 44.105 84.2371 46.8497L84.2192 46.9438C83.7322 49.693 85.5595 52.3169 88.2982 52.805L89.5402 53.0244L89.214 54.8602C89.0174 55.9662 88.9638 57.0676 89.0398 58.1378L86.1582 74.3467C85.3227 79.0392 88.4411 83.5213 93.1232 84.3542C97.8053 85.1915 102.277 82.0661 103.108 77.3736L104.261 70.899C110.618 70.9258 116.261 66.3811 117.414 59.893L117.633 58.6527L120.367 43.2632C117.289 42.8826 106.392 41.1945 105.512 36.3677L105.516 36.3811Z" fill="#FFBA94"/>
<path opacity="0.46" d="M102.183 69.4707L101.938 69.4259C95.272 68.2348 90.6524 62.2662 90.9696 55.6662C91.0188 54.5871 90.4826 53.5617 89.54 53.0378L89.2138 54.8737C88.4945 58.9259 89.6829 62.8796 92.1312 65.8035L102.983 78.1885L104.256 71.0289L103.988 70.9124C110.453 71.0736 116.243 66.4841 117.414 59.9065L117.632 58.6662C116.341 65.9244 109.425 70.7602 102.183 69.4662V69.4707Z" fill="#FB8E77"/>
<path d="M104.252 65.9737C104.194 65.9737 104.136 65.9513 104.091 65.9021C104.006 65.8125 104.011 65.6692 104.1 65.5842C104.114 65.5707 105.382 64.3886 106.87 65.1767C106.977 65.2349 107.022 65.3692 106.964 65.4767C106.906 65.5886 106.772 65.6289 106.665 65.5707C105.458 64.9349 104.449 65.8707 104.408 65.911C104.364 65.9513 104.31 65.9737 104.257 65.9737H104.252Z" fill="#FB8E77"/>
<path d="M107.862 51.2377C107.782 51.6899 107.349 51.9944 106.897 51.9138C106.446 51.8332 106.142 51.3989 106.223 50.9466C106.303 50.4944 106.737 50.1899 107.188 50.2705C107.639 50.3511 107.943 50.7854 107.862 51.2377Z" fill="#222222"/>
<path d="M117.713 52.9974C117.633 53.4497 117.199 53.7541 116.748 53.6736C116.297 53.593 115.993 53.1586 116.073 52.7064C116.154 52.2541 116.587 51.9497 117.038 52.0303C117.49 52.1109 117.794 52.5452 117.713 52.9974Z" fill="#222222"/>
<path d="M109.712 57.5466C109.305 57.5466 108.827 57.4749 108.269 57.2914C108.153 57.2511 108.086 57.1257 108.126 57.0093C108.166 56.8929 108.291 56.8302 108.407 56.866C110.284 57.4839 111.088 56.7137 111.347 56.3511C111.396 56.2839 111.414 56.2033 111.401 56.1227L110.44 49.8138C110.422 49.6929 110.507 49.5764 110.628 49.5585C110.748 49.5406 110.865 49.6257 110.883 49.7466L111.843 56.0555C111.874 56.2526 111.825 56.4496 111.713 56.6108C111.481 56.9376 110.887 57.5466 109.712 57.5466Z" fill="#FB8E77"/>
<path d="M100.144 55.0503L106.699 58.8429L104.894 61.9761C104.588 62.5073 103.908 62.6931 103.374 62.3842L101.649 61.3856C99.5128 60.1498 98.7802 57.4096 100.013 55.2691L100.141 55.0481L100.144 55.0503Z" fill="#FFFCFE"/>
<path d="M104.414 55.2184C101.541 55.2184 99.1998 52.8766 99.1953 49.9975C99.1953 47.1139 101.532 44.7677 104.409 44.7632H104.414C105.803 44.7632 107.112 45.305 108.099 46.29C109.087 47.2751 109.632 48.5871 109.632 49.9841C109.632 52.8677 107.295 55.2139 104.418 55.2184H104.414ZM100.089 49.993C100.089 52.3796 102.032 54.3229 104.414 54.3229H104.418C106.804 54.3229 108.738 52.3751 108.738 49.9841C108.738 48.8289 108.287 47.7408 107.469 46.9214C106.652 46.1065 105.571 45.6542 104.418 45.6542H104.414C102.028 45.6542 100.093 47.602 100.093 49.993H100.089Z" fill="#FFFCFE"/>
<path d="M116.275 57.5332C113.402 57.5332 111.061 55.1914 111.057 52.3078C111.057 49.4242 113.393 47.078 116.27 47.0735H116.275C119.148 47.0735 121.489 49.4153 121.493 52.2944C121.493 55.1779 119.156 57.5242 116.279 57.5287H116.275V57.5332ZM111.95 52.3078C111.95 54.6944 113.894 56.6377 116.275 56.6377C118.661 56.6377 120.595 54.6899 120.595 52.2989C120.595 49.9123 118.652 47.969 116.27 47.969H116.266C113.88 47.969 111.946 49.9168 111.946 52.3078H111.95Z" fill="#FFFCFE"/>
<path d="M111.369 51.7258C111.369 51.7258 111.342 51.7258 111.324 51.7258L109.466 51.5467C109.22 51.5243 109.041 51.3049 109.063 51.0587C109.086 50.8124 109.305 50.6288 109.55 50.6557L111.409 50.8348C111.655 50.8572 111.833 51.0766 111.811 51.3229C111.789 51.5557 111.592 51.7258 111.369 51.7258Z" fill="#FFFCFE"/>
<path d="M103.725 43.0258C104.011 43.1332 104.368 43.075 104.717 43.0437C105.07 43.0034 105.423 42.972 105.731 42.9541C106.039 42.9362 106.397 42.9317 106.75 42.9317C107.098 42.9273 107.464 42.9407 107.733 42.8064C107.992 42.681 108.081 42.3541 107.746 41.9735C107.429 41.6064 106.638 41.2258 105.615 41.2795C104.596 41.3377 103.859 41.7944 103.6 42.1974C103.319 42.6094 103.457 42.9228 103.73 43.0213L103.725 43.0258Z" fill="#222222"/>
<path d="M119.112 45.6497C118.808 45.6497 118.495 45.4661 118.178 45.3094C117.865 45.1437 117.548 44.987 117.267 44.8616C116.985 44.7363 116.655 44.6019 116.324 44.4766C115.998 44.3467 115.654 44.2303 115.453 44.0064C115.256 43.796 115.287 43.4557 115.739 43.2228C116.163 42.99 117.039 42.9273 117.973 43.3437C118.902 43.7646 119.425 44.4586 119.527 44.9243C119.639 45.4079 119.402 45.6542 119.112 45.6452V45.6497Z" fill="#222222"/>
<path d="M87.3556 49.2362C87.2573 49.2362 87.1635 49.169 87.1411 49.066C87.1099 48.9451 87.1813 48.8242 87.302 48.7929L88.8924 48.381L88.1687 45.7078C88.1374 45.5869 88.2044 45.466 88.3251 45.4347C88.4457 45.3989 88.5663 45.475 88.5976 45.5914L89.4375 48.7033L87.4047 49.2272C87.4047 49.2272 87.369 49.2362 87.3511 49.2362H87.3556Z" fill="#FB8E77"/>
<path d="M144.162 65.7048H131.849C130.645 65.7048 129.669 66.6831 129.669 67.8899V91.6078C129.669 92.8146 130.645 93.7928 131.849 93.7928H144.162C145.366 93.7928 146.342 92.8146 146.342 91.6078V67.8899C146.342 66.6831 145.366 65.7048 144.162 65.7048Z" fill="#222222"/>
<path d="M154.706 114.497L153.339 89.6064L153.665 86.5885C154.12 82.3616 152.878 78.1393 150.238 74.8124C149.988 74.4945 149.738 74.1811 149.492 73.8811V69.8199C149.492 68.9333 148.773 68.2124 147.888 68.2124C147.003 68.2124 146.342 68.9064 146.342 69.7617V71.302C146.342 74.2348 143.974 76.6124 141.048 76.6124H136.424L129.504 76.0258C128.606 75.9497 127.806 76.6258 127.73 77.5258C127.668 78.2646 128.114 78.9318 128.771 79.1915C128.708 79.2094 128.65 79.2318 128.588 79.2497L128.396 79.2318C127.498 79.1557 126.698 79.8318 126.618 80.7318C126.542 81.6318 127.216 82.4333 128.114 82.5139C127.833 82.7736 127.636 83.1273 127.592 83.5348C127.493 84.4348 128.146 85.2542 129.039 85.3527L129.767 85.4333C129.803 85.4557 129.83 85.4825 129.866 85.5049C129.866 85.5049 129.883 85.5407 129.915 85.5989C129.459 85.7825 129.106 86.19 129.021 86.7094C128.887 87.5019 129.428 88.2586 130.219 88.393C130.219 88.393 135.307 90.0721 137.505 90.6945L135.647 100.348L135.249 102.408L132.734 101.951L124.902 106.429L125.947 109.379C127.373 113.409 126.921 117.985 124.746 121.545L123.785 123.117L127.609 124.693C132.439 126.681 139.431 128.75 144.604 127.518C146.284 127.12 147.584 126.636 148.598 126.063C152.324 124.111 154.916 119.66 154.697 114.497H154.706Z" fill="#FFBA94"/>
<path d="M135.763 79.9438C135.763 79.9438 135.75 79.9438 135.745 79.9438L128.655 79.3349C128.535 79.3259 128.441 79.214 128.45 79.0931C128.459 78.9677 128.575 78.8781 128.691 78.8871L135.781 79.496C135.902 79.505 135.996 79.6169 135.987 79.7378C135.978 79.8543 135.879 79.9438 135.763 79.9438Z" fill="#FB8E77"/>
<path d="M135.902 83.2617C135.902 83.2617 135.889 83.2617 135.884 83.2617L128.794 82.6527C128.673 82.6438 128.58 82.5318 128.588 82.4109C128.597 82.2856 128.709 82.196 128.83 82.205L135.92 82.8139C136.041 82.8229 136.134 82.9348 136.125 83.0557C136.116 83.1721 136.018 83.2617 135.902 83.2617Z" fill="#FB8E77"/>
<path d="M137.077 86.5663C137.077 86.5663 137.059 86.5663 137.05 86.5663L129.982 85.7469C129.861 85.7334 129.772 85.6215 129.786 85.5006C129.799 85.3797 129.915 85.2901 130.031 85.3036L137.099 86.123C137.22 86.1364 137.309 86.2484 137.296 86.3692C137.282 86.4812 137.184 86.5663 137.072 86.5663H137.077Z" fill="#FB8E77"/>
<path d="M132.354 114.341C132.354 114.341 132.319 114.341 132.301 114.336C132.18 114.309 132.109 114.188 132.135 114.068L135.683 99.0004C135.71 98.8795 135.826 98.8034 135.951 98.8347C136.071 98.8616 136.143 98.9825 136.116 99.1034L132.569 114.17C132.547 114.273 132.453 114.341 132.35 114.341H132.354Z" fill="#FB8E77"/>
<path d="M124.799 106.747L120.283 96.2735C120.233 96.1616 120.283 96.0272 120.399 95.978C120.51 95.9287 120.644 95.978 120.694 96.0944L125.009 106.111L132.872 101.615C132.98 101.557 133.118 101.593 133.176 101.7C133.239 101.808 133.199 101.947 133.091 102.005L124.795 106.747H124.799Z" fill="#14213A"/>
</g>
<path d="M39.42 232H36.342L31.194 224.206V232H28.116V219.364H31.194L36.342 227.194V219.364H39.42V232ZM46.2232 232.144C45.2392 232.144 44.3512 231.934 43.5592 231.514C42.7792 231.094 42.1612 230.494 41.7052 229.714C41.2612 228.934 41.0392 228.022 41.0392 226.978C41.0392 225.946 41.2672 225.04 41.7232 224.26C42.1792 223.468 42.8032 222.862 43.5952 222.442C44.3872 222.022 45.2752 221.812 46.2592 221.812C47.2432 221.812 48.1312 222.022 48.9232 222.442C49.7152 222.862 50.3392 223.468 50.7952 224.26C51.2512 225.04 51.4792 225.946 51.4792 226.978C51.4792 228.01 51.2452 228.922 50.7772 229.714C50.3212 230.494 49.6912 231.094 48.8872 231.514C48.0952 231.934 47.2072 232.144 46.2232 232.144ZM46.2232 229.48C46.8112 229.48 47.3092 229.264 47.7172 228.832C48.1372 228.4 48.3472 227.782 48.3472 226.978C48.3472 226.174 48.1432 225.556 47.7352 225.124C47.3392 224.692 46.8472 224.476 46.2592 224.476C45.6592 224.476 45.1612 224.692 44.7652 225.124C44.3692 225.544 44.1712 226.162 44.1712 226.978C44.1712 227.782 44.3632 228.4 44.7472 228.832C45.1432 229.264 45.6352 229.48 46.2232 229.48ZM68.2305 232H65.1525L60.0045 224.206V232H56.9265V219.364H60.0045L65.1525 227.194V219.364H68.2305V232ZM75.0337 232.144C74.0497 232.144 73.1617 231.934 72.3697 231.514C71.5897 231.094 70.9717 230.494 70.5157 229.714C70.0717 228.934 69.8497 228.022 69.8497 226.978C69.8497 225.946 70.0777 225.04 70.5337 224.26C70.9897 223.468 71.6137 222.862 72.4057 222.442C73.1977 222.022 74.0857 221.812 75.0697 221.812C76.0537 221.812 76.9417 222.022 77.7337 222.442C78.5257 222.862 79.1497 223.468 79.6057 224.26C80.0617 225.04 80.2897 225.946 80.2897 226.978C80.2897 228.01 80.0557 228.922 79.5877 229.714C79.1317 230.494 78.5017 231.094 77.6977 231.514C76.9057 231.934 76.0177 232.144 75.0337 232.144ZM75.0337 229.48C75.6217 229.48 76.1197 229.264 76.5277 228.832C76.9477 228.4 77.1577 227.782 77.1577 226.978C77.1577 226.174 76.9537 225.556 76.5457 225.124C76.1497 224.692 75.6577 224.476 75.0697 224.476C74.4697 224.476 73.9717 224.692 73.5757 225.124C73.1797 225.544 72.9817 226.162 72.9817 226.978C72.9817 227.782 73.1737 228.4 73.5577 228.832C73.9537 229.264 74.4457 229.48 75.0337 229.48ZM87.5206 229.39V232H85.9546C84.8386 232 83.9686 231.73 83.3446 231.19C82.7206 230.638 82.4086 229.744 82.4086 228.508V224.512H81.1846V221.956H82.4086V219.508H85.4866V221.956H87.5026V224.512H85.4866V228.544C85.4866 228.844 85.5586 229.06 85.7026 229.192C85.8466 229.324 86.0866 229.39 86.4226 229.39H87.5206ZM90.7831 220.912C90.2431 220.912 89.7991 220.756 89.4511 220.444C89.1151 220.12 88.9471 219.724 88.9471 219.256C88.9471 218.776 89.1151 218.38 89.4511 218.068C89.7991 217.744 90.2431 217.582 90.7831 217.582C91.3111 217.582 91.7431 217.744 92.0791 218.068C92.4271 218.38 92.6011 218.776 92.6011 219.256C92.6011 219.724 92.4271 220.12 92.0791 220.444C91.7431 220.756 91.3111 220.912 90.7831 220.912ZM92.3131 221.956V232H89.2351V221.956H92.3131ZM99.5837 224.512H97.9277V232H94.8497V224.512H93.7337V221.956H94.8497V221.668C94.8497 220.432 95.2037 219.496 95.9117 218.86C96.6197 218.212 97.6577 217.888 99.0257 217.888C99.2537 217.888 99.4217 217.894 99.5297 217.906V220.516C98.9417 220.48 98.5277 220.564 98.2877 220.768C98.0477 220.972 97.9277 221.338 97.9277 221.866V221.956H99.5837V224.512ZM102.578 220.912C102.038 220.912 101.594 220.756 101.246 220.444C100.91 220.12 100.742 219.724 100.742 219.256C100.742 218.776 100.91 218.38 101.246 218.068C101.594 217.744 102.038 217.582 102.578 217.582C103.106 217.582 103.538 217.744 103.874 218.068C104.222 218.38 104.396 218.776 104.396 219.256C104.396 219.724 104.222 220.12 103.874 220.444C103.538 220.756 103.106 220.912 102.578 220.912ZM104.108 221.956V232H101.03V221.956H104.108ZM105.727 226.978C105.727 225.934 105.937 225.022 106.357 224.242C106.789 223.462 107.383 222.862 108.139 222.442C108.907 222.022 109.783 221.812 110.767 221.812C112.027 221.812 113.077 222.142 113.917 222.802C114.769 223.462 115.327 224.392 115.591 225.592H112.315C112.039 224.824 111.505 224.44 110.713 224.44C110.149 224.44 109.699 224.662 109.363 225.106C109.027 225.538 108.859 226.162 108.859 226.978C108.859 227.794 109.027 228.424 109.363 228.868C109.699 229.3 110.149 229.516 110.713 229.516C111.505 229.516 112.039 229.132 112.315 228.364H115.591C115.327 229.54 114.769 230.464 113.917 231.136C113.065 231.808 112.015 232.144 110.767 232.144C109.783 232.144 108.907 231.934 108.139 231.514C107.383 231.094 106.789 230.494 106.357 229.714C105.937 228.934 105.727 228.022 105.727 226.978ZM116.625 226.96C116.625 225.928 116.817 225.022 117.201 224.242C117.597 223.462 118.131 222.862 118.803 222.442C119.475 222.022 120.225 221.812 121.053 221.812C121.761 221.812 122.379 221.956 122.907 222.244C123.447 222.532 123.861 222.91 124.149 223.378V221.956H127.227V232H124.149V230.578C123.849 231.046 123.429 231.424 122.889 231.712C122.361 232 121.743 232.144 121.035 232.144C120.219 232.144 119.475 231.934 118.803 231.514C118.131 231.082 117.597 230.476 117.201 229.696C116.817 228.904 116.625 227.992 116.625 226.96ZM124.149 226.978C124.149 226.21 123.933 225.604 123.501 225.16C123.081 224.716 122.565 224.494 121.953 224.494C121.341 224.494 120.819 224.716 120.387 225.16C119.967 225.592 119.757 226.192 119.757 226.96C119.757 227.728 119.967 228.34 120.387 228.796C120.819 229.24 121.341 229.462 121.953 229.462C122.565 229.462 123.081 229.24 123.501 228.796C123.933 228.352 124.149 227.746 124.149 226.978ZM135.052 229.39V232H133.486C132.37 232 131.5 231.73 130.876 231.19C130.252 230.638 129.94 229.744 129.94 228.508V224.512H128.716V221.956H129.94V219.508H133.018V221.956H135.034V224.512H133.018V228.544C133.018 228.844 133.09 229.06 133.234 229.192C133.378 229.324 133.618 229.39 133.954 229.39H135.052ZM138.314 220.912C137.774 220.912 137.33 220.756 136.982 220.444C136.646 220.12 136.478 219.724 136.478 219.256C136.478 218.776 136.646 218.38 136.982 218.068C137.33 217.744 137.774 217.582 138.314 217.582C138.842 217.582 139.274 217.744 139.61 218.068C139.958 218.38 140.132 218.776 140.132 219.256C140.132 219.724 139.958 220.12 139.61 220.444C139.274 220.756 138.842 220.912 138.314 220.912ZM139.844 221.956V232H136.766V221.956H139.844ZM146.647 232.144C145.663 232.144 144.775 231.934 143.983 231.514C143.203 231.094 142.585 230.494 142.129 229.714C141.685 228.934 141.463 228.022 141.463 226.978C141.463 225.946 141.691 225.04 142.147 224.26C142.603 223.468 143.227 222.862 144.019 222.442C144.811 222.022 145.699 221.812 146.683 221.812C147.667 221.812 148.555 222.022 149.347 222.442C150.139 222.862 150.763 223.468 151.219 224.26C151.675 225.04 151.903 225.946 151.903 226.978C151.903 228.01 151.669 228.922 151.201 229.714C150.745 230.494 150.115 231.094 149.311 231.514C148.519 231.934 147.631 232.144 146.647 232.144ZM146.647 229.48C147.235 229.48 147.733 229.264 148.141 228.832C148.561 228.4 148.771 227.782 148.771 226.978C148.771 226.174 148.567 225.556 148.159 225.124C147.763 224.692 147.271 224.476 146.683 224.476C146.083 224.476 145.585 224.692 145.189 225.124C144.793 225.544 144.595 226.162 144.595 226.978C144.595 227.782 144.787 228.4 145.171 228.832C145.567 229.264 146.059 229.48 146.647 229.48ZM159.656 221.848C160.832 221.848 161.768 222.232 162.464 223C163.172 223.756 163.526 224.8 163.526 226.132V232H160.466V226.546C160.466 225.874 160.292 225.352 159.944 224.98C159.596 224.608 159.128 224.422 158.54 224.422C157.952 224.422 157.484 224.608 157.136 224.98C156.788 225.352 156.614 225.874 156.614 226.546V232H153.536V221.956H156.614V223.288C156.926 222.844 157.346 222.496 157.874 222.244C158.402 221.98 158.996 221.848 159.656 221.848ZM169.751 232.144C168.875 232.144 168.095 231.994 167.411 231.694C166.727 231.394 166.187 230.986 165.791 230.47C165.395 229.942 165.173 229.354 165.125 228.706H168.167C168.203 229.054 168.365 229.336 168.653 229.552C168.941 229.768 169.295 229.876 169.715 229.876C170.099 229.876 170.393 229.804 170.597 229.66C170.813 229.504 170.921 229.306 170.921 229.066C170.921 228.778 170.771 228.568 170.471 228.436C170.171 228.292 169.685 228.136 169.013 227.968C168.293 227.8 167.693 227.626 167.213 227.446C166.733 227.254 166.319 226.96 165.971 226.564C165.623 226.156 165.449 225.61 165.449 224.926C165.449 224.35 165.605 223.828 165.917 223.36C166.241 222.88 166.709 222.502 167.321 222.226C167.945 221.95 168.683 221.812 169.535 221.812C170.795 221.812 171.785 222.124 172.505 222.748C173.237 223.372 173.657 224.2 173.765 225.232H170.921C170.873 224.884 170.717 224.608 170.453 224.404C170.201 224.2 169.865 224.098 169.445 224.098C169.085 224.098 168.809 224.17 168.617 224.314C168.425 224.446 168.329 224.632 168.329 224.872C168.329 225.16 168.479 225.376 168.779 225.52C169.091 225.664 169.571 225.808 170.219 225.952C170.963 226.144 171.569 226.336 172.037 226.528C172.505 226.708 172.913 227.008 173.261 227.428C173.621 227.836 173.807 228.388 173.819 229.084C173.819 229.672 173.651 230.2 173.315 230.668C172.991 231.124 172.517 231.484 171.893 231.748C171.281 232.012 170.567 232.144 169.751 232.144Z" fill="#0A2830"/>
<defs>
<clipPath id="clip0_37_7431">
<rect width="202" height="186.77" fill="white" transform="translate(0 0.869141)"/>
</clipPath>
</defs>
</svg>
