<svg width="59" height="56" viewBox="0 0 59 56" fill="none" xmlns="http://www.w3.org/2000/svg">
<circle cx="47" cy="9" r="47" fill="#0A2830"/>
<path d="M19.7695 17.9526H22.0076H39.9124" stroke="#D39B2D" stroke-width="2" stroke-linecap="round" stroke-linejoin="round"/>
<path d="M37.6745 17.9528V33.6194C37.6745 34.213 37.4387 34.7823 37.019 35.202C36.5992 35.6217 36.03 35.8575 35.4364 35.8575H24.2459C23.6523 35.8575 23.0831 35.6217 22.6633 35.202C22.2436 34.7823 22.0078 34.213 22.0078 33.6194V17.9528M25.365 17.9528V15.7147C25.365 15.1211 25.6008 14.5518 26.0205 14.1321C26.4402 13.7124 27.0095 13.4766 27.603 13.4766H32.0792C32.6728 13.4766 33.2421 13.7124 33.6618 14.1321C34.0815 14.5518 34.3173 15.1211 34.3173 15.7147V17.9528" stroke="#D39B2D" stroke-width="2" stroke-linecap="round" stroke-linejoin="round"/>
<path d="M27.603 23.5479V30.2621" stroke="#D39B2D" stroke-width="2" stroke-linecap="round" stroke-linejoin="round"/>
<path d="M32.0791 23.5479V30.2621" stroke="#D39B2D" stroke-width="2" stroke-linecap="round" stroke-linejoin="round"/>
</svg>
