<svg width="34" height="34" viewBox="0 0 34 34" fill="none" xmlns="http://www.w3.org/2000/svg">
<path d="M26.9167 11.3334C29.264 11.3334 31.1667 9.43058 31.1667 7.08337C31.1667 4.73616 29.264 2.83337 26.9167 2.83337C24.5695 2.83337 22.6667 4.73616 22.6667 7.08337C22.6667 9.43058 24.5695 11.3334 26.9167 11.3334Z" fill="#D39B2D"/>
<path d="M28.8149 18.02H24.1258C22.8083 18.02 21.6324 18.7567 21.0374 19.9184L19.9041 22.1567C19.6349 22.695 19.0966 23.0209 18.5016 23.0209H14.0958C13.6849 23.0209 13.0758 22.9359 12.6933 22.1425L11.5741 19.9184C10.9791 18.7425 9.80325 18.0059 8.48575 18.0059H3.76825C3.25825 18.02 2.83325 18.445 2.83325 18.955V23.3325C2.83325 28.2484 5.76575 31.1667 10.6674 31.1667H21.9441C26.5624 31.1667 29.4099 28.6309 29.7499 24.14V18.955C29.7499 18.445 29.3249 18.02 28.8149 18.02Z" fill="white"/>
<path d="M29.7499 14.7333V16.0508C29.4524 15.9517 29.1408 15.895 28.8149 15.895H24.1258C22.0008 15.895 20.0883 17.0708 19.1533 18.9692L18.1616 20.91H14.4358L13.4724 18.9833C12.5091 17.0708 10.6108 15.895 8.48575 15.895H3.76825C3.44242 15.895 3.13075 15.9517 2.83325 16.0508V12.07C2.83325 7.74917 6.33242 4.25 10.6533 4.25H19.2666C20.1733 4.25 20.8249 5.07167 20.6549 5.95C20.4283 7.08333 20.5274 8.31583 21.0799 9.61917C21.7174 11.0925 22.9074 12.2825 24.3808 12.92C25.6841 13.4725 26.9166 13.5717 28.0499 13.345C28.9283 13.175 29.7499 13.8267 29.7499 14.7333Z" fill="white"/>
</svg>
