<svg width="20" height="21" viewBox="0 0 20 21" fill="none" xmlns="http://www.w3.org/2000/svg">
<path opacity="0.3" d="M0 6.51117L0 14.8912C0 18.0999 2.60123 20.7012 5.81 20.7012H14.19C17.3988 20.7012 20 18.0999 20 14.8912V6.51117C20 3.3024 17.3988 0.701172 14.19 0.701172H5.81C2.60123 0.701172 0 3.3024 0 6.51117Z" fill="#0C576C"/>
<path d="M14.5704 9.0312C14.5699 9.1659 14.5422 9.29912 14.4889 9.42284C14.4356 9.54657 14.3579 9.65825 14.2604 9.7512L10.6104 13.2512C10.423 13.4375 10.1696 13.542 9.9054 13.542C9.64121 13.542 9.38776 13.4375 9.2004 13.2512L5.7104 9.5712C5.61913 9.47665 5.54738 9.36505 5.49924 9.24276C5.4511 9.12048 5.42752 8.98992 5.42984 8.85852C5.43217 8.72713 5.46034 8.59748 5.51277 8.47697C5.5652 8.35647 5.64085 8.24747 5.7354 8.1562C5.82995 8.06493 5.94155 7.99318 6.06384 7.94504C6.18612 7.8969 6.31668 7.87332 6.44808 7.87564C6.57947 7.87797 6.70912 7.90614 6.82963 7.95857C6.95013 8.011 7.05913 8.08665 7.1504 8.1812L10.0004 11.1112L12.9304 8.3112C13.1178 8.12495 13.3712 8.02041 13.6354 8.02041C13.8996 8.02041 14.153 8.12495 14.3404 8.3112C14.5083 8.51187 14.5909 8.77035 14.5704 9.0312Z" fill="#0C576C"/>
</svg>
