<svg width="104" height="31" viewBox="0 0 104 31" fill="none" xmlns="http://www.w3.org/2000/svg">
<path d="M17.0017 0.387316V5.33263H6.67789V10.675H14.4027V15.4759H6.67789V25.7275H0.505276V0.387316H17.0017ZM36.2009 21.2515H26.7434L25.2273 25.7275H18.7659L27.9346 0.387316H35.0819L44.2506 25.7275H37.717L36.2009 21.2515ZM34.6126 16.4867L31.4721 7.20968L28.3678 16.4867H34.6126ZM65.2701 30.0592L62.0214 25.6914C61.0588 25.884 60.1202 25.9802 59.2058 25.9802C56.8234 25.9802 54.6335 25.4267 52.6361 24.3197C50.6628 23.2128 49.0865 21.6726 47.9074 19.6993C46.7523 17.7019 46.1747 15.4639 46.1747 12.9852C46.1747 10.5066 46.7523 8.28057 47.9074 6.30725C49.0865 4.33394 50.6628 2.7938 52.6361 1.68681C54.6335 0.579834 56.8234 0.0263442 59.2058 0.0263442C61.5882 0.0263442 63.7661 0.579834 65.7394 1.68681C67.7367 2.7938 69.301 4.33394 70.432 6.30725C71.5871 8.28057 72.1647 10.5066 72.1647 12.9852C72.1647 15.1511 71.7195 17.1364 70.8291 18.9413C69.9627 20.7221 68.7475 22.202 67.1833 23.3812L72.7422 30.0592H65.2701ZM52.4917 12.9852C52.4917 15.2233 53.0933 17.0161 54.2966 18.3637C55.5239 19.6873 57.1603 20.3491 59.2058 20.3491C61.2272 20.3491 62.8396 19.6752 64.0428 18.3276C65.2701 16.98 65.8838 15.1992 65.8838 12.9852C65.8838 10.7472 65.2701 8.96641 64.0428 7.64285C62.8396 6.29522 61.2272 5.62141 59.2058 5.62141C57.1603 5.62141 55.5239 6.28319 54.2966 7.60675C53.0933 8.93032 52.4917 10.7231 52.4917 12.9852ZM77.2575 0.387316H83.5745L79.5316 10.0614H75.3804L77.2575 0.387316ZM95.5751 26.0163C93.8184 26.0163 92.2542 25.7155 90.8825 25.1139C89.5108 24.5123 88.4279 23.6941 87.6337 22.6593C86.8396 21.6004 86.3944 20.4213 86.2981 19.1218H92.3986C92.4707 19.8196 92.7956 20.3852 93.3732 20.8183C93.9507 21.2515 94.6606 21.4681 95.5029 21.4681C96.273 21.4681 96.8626 21.3237 97.2717 21.0349C97.7048 20.7221 97.9214 20.325 97.9214 19.8437C97.9214 19.2661 97.6206 18.845 97.019 18.5803C96.4174 18.2915 95.4428 17.9787 94.0951 17.6418C92.6512 17.3049 91.448 16.9559 90.4854 16.595C89.5228 16.2099 88.6926 15.6203 87.9947 14.8262C87.2968 14.008 86.9479 12.913 86.9479 11.5413C86.9479 10.3862 87.2607 9.33942 87.8864 8.40089C88.5362 7.4383 89.4747 6.68026 90.702 6.12677C91.9534 5.57328 93.4333 5.29653 95.1419 5.29653C97.6687 5.29653 99.6541 5.92222 101.098 7.17359C102.566 8.42496 103.408 10.0854 103.625 12.155H97.9214C97.8252 11.4571 97.5123 10.9036 96.9829 10.4945C96.4775 10.0854 95.8037 9.88088 94.9615 9.88088C94.2395 9.88088 93.686 10.0253 93.301 10.314C92.9159 10.5788 92.7234 10.9518 92.7234 11.4331C92.7234 12.0106 93.0242 12.4438 93.6259 12.7326C94.2515 13.0213 95.2141 13.3101 96.5136 13.5989C98.0057 13.9839 99.2209 14.369 100.159 14.754C101.098 15.115 101.916 15.7166 102.614 16.5589C103.336 17.3771 103.709 18.484 103.733 19.8798C103.733 21.059 103.396 22.1178 102.722 23.0563C102.073 23.9708 101.122 24.6928 99.8707 25.2222C98.6434 25.7516 97.2115 26.0163 95.5751 26.0163Z" fill="url(#paint0_linear_911_1780)"/>
<defs>
<linearGradient id="paint0_linear_911_1780" x1="-1.73275" y1="13.7492" x2="105.11" y2="13.7492" gradientUnits="userSpaceOnUse">
<stop stop-color="#A63F9F"/>
<stop offset="0.244792" stop-color="#8F3CA6"/>
<stop offset="0.520833" stop-color="#6D33A6"/>
<stop offset="0.765625" stop-color="#4429A6"/>
<stop offset="1" stop-color="#2621A6"/>
</linearGradient>
</defs>
</svg>
