<svg width="25" height="25" viewBox="0 0 25 25" fill="none" xmlns="http://www.w3.org/2000/svg">
<path d="M10.2516 24.0434C4.54308 23.0361 0.177734 18.0663 0.177734 12.0891C0.177734 5.44038 5.61762 0.000488281 12.2664 0.000488281C18.9151 0.000488281 24.355 5.44038 24.355 12.0891C24.355 18.0663 19.9897 23.0361 14.2811 24.0434L13.6096 23.5062H10.9232L10.2516 24.0434Z" fill="url(#paint0_linear_0_3804)"/>
<path d="M16.9676 15.4466L17.5048 12.0887H14.2812V9.7381C14.2812 8.79788 14.617 8.05913 16.0945 8.05913H17.6392V4.96981C16.7661 4.83549 15.8259 4.70117 14.9528 4.70117C12.1993 4.70117 10.2517 6.38015 10.2517 9.40231V12.0887H7.22949V15.4466H10.2517V23.9758C10.9232 24.1101 11.5948 24.1773 12.2664 24.1773C12.938 24.1773 13.6096 24.1101 14.2812 23.9758V15.4466H16.9676Z" fill="white"/>
<defs>
<linearGradient id="paint0_linear_0_3804" x1="12.2664" y1="23.341" x2="12.2664" y2="0.000488281" gradientUnits="userSpaceOnUse">
<stop stop-color="#0062E0"/>
<stop offset="1" stop-color="#19AFFF"/>
</linearGradient>
</defs>
</svg>
