<svg width="18" height="21" viewBox="0 0 18 21" fill="none" xmlns="http://www.w3.org/2000/svg">
<path d="M2.34996 8.25117L1.04996 6.93117C0.643094 6.51825 0.41654 5.96086 0.41996 5.38117V2.89117C0.425233 2.30852 0.660397 1.75152 1.07428 1.34138C1.48817 0.931239 2.04728 0.701148 2.62996 0.701172H6.99996C7.08591 0.701794 7.17011 0.725484 7.24378 0.769766C7.31745 0.814049 7.37787 0.877299 7.41874 0.952911C7.45961 1.02852 7.47943 1.11372 7.47613 1.19961C7.47282 1.2855 7.44652 1.36892 7.39996 1.44117L3.09996 8.17117C3.06134 8.23267 3.00928 8.2846 2.94769 8.32305C2.88609 8.36151 2.81658 8.38549 2.74438 8.3932C2.67217 8.4009 2.59916 8.39212 2.53084 8.36752C2.46253 8.34292 2.40068 8.30314 2.34996 8.25117ZM15.37 0.701172H10.37C10.1694 0.707421 9.97347 0.762627 9.79917 0.861979C9.62487 0.961331 9.47752 1.10181 9.36996 1.27117L4.10996 9.47117C4.05114 9.56407 4.026 9.67435 4.03874 9.78356C4.05148 9.89278 4.10134 9.99431 4.17996 10.0712L4.71996 10.6212C5.50769 11.4227 5.9555 12.4974 5.96996 13.6212V18.6212C5.95345 19.0019 6.04608 19.3795 6.23694 19.7094C6.42781 20.0393 6.70896 20.3078 7.04729 20.4832C7.38562 20.6587 7.76704 20.7339 8.14665 20.6998C8.52625 20.6658 8.88823 20.524 9.18996 20.2912L10.56 19.2912C10.81 19.115 11.0141 18.8814 11.1551 18.6099C11.296 18.3384 11.3697 18.0371 11.37 17.7312V13.6012C11.3608 13.0577 11.4666 12.5185 11.6803 12.0187C11.8939 11.519 12.2108 11.07 12.61 10.7012L16.84 6.93117C17.0755 6.724 17.2635 6.46845 17.3912 6.18197C17.5189 5.89548 17.5833 5.58481 17.58 5.27117V2.89117C17.5747 2.30852 17.3395 1.75152 16.9256 1.34138C16.5118 0.931239 15.9526 0.701148 15.37 0.701172Z" fill="#0C576C"/>
</svg>
