<svg width="753" height="561" viewBox="0 0 753 561" fill="none" xmlns="http://www.w3.org/2000/svg">
<g clip-path="url(#clip0_606_2826)">
<path d="M753 493.007H0V493.384H753V493.007Z" fill="#EBEBEB"/>
<path d="M677.55 517.232H627.671V517.609H677.55V517.232Z" fill="#EBEBEB"/>
<path d="M498.817 521.328H485.73V521.704H498.817V521.328Z" fill="#EBEBEB"/>
<path d="M626.165 503.26H597.265V503.637H626.165V503.26Z" fill="#EBEBEB"/>
<path d="M144.049 505.79H79.0049V506.166H144.049V505.79Z" fill="#EBEBEB"/>
<path d="M167 505.79H157.467V506.166H167V505.79Z" fill="#EBEBEB"/>
<path d="M339.076 512.144H197.994V512.52H339.076V512.144Z" fill="#EBEBEB"/>
<path d="M356.937 425.858H66.1437C61.3998 425.858 57.5444 422.003 57.5444 417.261V8.59695C57.5444 3.85432 61.3998 0 66.1437 0H356.952C361.696 0 365.552 3.85432 365.552 8.59695V417.261C365.536 422.003 361.681 425.858 356.937 425.858ZM66.1437 0.376399C61.6106 0.376399 57.9209 4.06511 57.9209 8.59695V417.261C57.9209 421.793 61.6106 425.481 66.1437 425.481H356.952C361.485 425.481 365.175 421.793 365.175 417.261V8.59695C365.175 4.06511 361.485 0.376399 356.952 0.376399H66.1437Z" fill="#EBEBEB"/>
<path d="M682.685 425.858H391.876C387.132 425.858 383.277 422.003 383.277 417.261V8.59695C383.277 3.85432 387.132 0 391.876 0H682.685C687.429 0 691.284 3.85432 691.284 8.59695V417.261C691.284 422.003 687.429 425.858 682.685 425.858ZM391.876 0.376399C387.343 0.376399 383.653 4.06511 383.653 8.59695V417.261C383.653 421.793 387.343 425.481 391.876 425.481H682.685C687.218 425.481 690.907 421.793 690.907 417.261V8.59695C690.907 4.06511 687.218 0.376399 682.685 0.376399H391.876Z" fill="#EBEBEB"/>
<path d="M670.803 93.6782H305.929V445.295H670.803V93.6782Z" fill="#E0E0E0"/>
<path d="M670.803 100.062H311.788V439.152H670.803V100.062Z" fill="#F5F5F5"/>
<path d="M314.438 357.037V255.048H325.025V241.573L348.88 230.416V216.64H352.856V255.048H356.832V357.037H362.133V304.055H374.061V276.247H378.037V357.037H387.298V326.579H393.925V318.629H408.503V290.806H416.455V272.272H425.732V244.449H429.707V272.272H438.984V290.806H446.921V318.629H461.499V326.579H468.125V357.037H476.077V318.629H490.655V233.849H494.631V224.575H526.423V233.849H533.049V294.781H559.555V301.405H568.817V305.38H559.555V329.229H587.371V249.748H592.672V233.849H605.924V172.918H609.9V233.849H619.177V249.748H670.803V439.167H311.788V357.037H314.438Z" fill="#E6E6E6"/>
<path d="M643.213 253.904H639.463V257.653H643.213V253.904Z" fill="#F0F0F0"/>
<path d="M643.213 260.197H639.463V263.946H643.213V260.197Z" fill="#F0F0F0"/>
<path d="M643.213 285.355H639.463V289.104H643.213V285.355Z" fill="#F0F0F0"/>
<path d="M643.213 291.649H639.463V295.398H643.213V291.649Z" fill="#F0F0F0"/>
<path d="M643.213 297.942H639.463V301.691H643.213V297.942Z" fill="#F0F0F0"/>
<path d="M643.213 316.823H639.463V320.571H643.213V316.823Z" fill="#F0F0F0"/>
<path d="M643.213 323.116H639.463V326.865H643.213V323.116Z" fill="#F0F0F0"/>
<path d="M637.249 279.062H633.5V282.811H637.249V279.062Z" fill="#F0F0F0"/>
<path d="M637.249 285.355H633.5V289.104H637.249V285.355Z" fill="#F0F0F0"/>
<path d="M637.249 291.649H633.5V295.398H637.249V291.649Z" fill="#F0F0F0"/>
<path d="M637.249 297.942H633.5V301.691H637.249V297.942Z" fill="#F0F0F0"/>
<path d="M637.249 304.236H633.5V307.985H637.249V304.236Z" fill="#F0F0F0"/>
<path d="M637.249 316.823H633.5V320.571H637.249V316.823Z" fill="#F0F0F0"/>
<path d="M637.249 323.116H633.5V326.865H637.249V323.116Z" fill="#F0F0F0"/>
<path d="M631.286 253.904H627.536V257.653H631.286V253.904Z" fill="#F0F0F0"/>
<path d="M631.286 260.197H627.536V263.946H631.286V260.197Z" fill="#F0F0F0"/>
<path d="M631.286 266.49H627.536V270.239H631.286V266.49Z" fill="#F0F0F0"/>
<path d="M631.286 272.784H627.536V276.533H631.286V272.784Z" fill="#F0F0F0"/>
<path d="M631.286 279.062H627.536V282.811H631.286V279.062Z" fill="#F0F0F0"/>
<path d="M631.286 285.355H627.536V289.104H631.286V285.355Z" fill="#F0F0F0"/>
<path d="M631.286 291.649H627.536V295.398H631.286V291.649Z" fill="#F0F0F0"/>
<path d="M631.286 297.942H627.536V301.691H631.286V297.942Z" fill="#F0F0F0"/>
<path d="M631.286 304.236H627.536V307.985H631.286V304.236Z" fill="#F0F0F0"/>
<path d="M631.286 310.529H627.536V314.278H631.286V310.529Z" fill="#F0F0F0"/>
<path d="M631.286 323.116H627.536V326.865H631.286V323.116Z" fill="#F0F0F0"/>
<path d="M625.322 253.904H621.572V257.653H625.322V253.904Z" fill="#F0F0F0"/>
<path d="M625.322 260.197H621.572V263.946H625.322V260.197Z" fill="#F0F0F0"/>
<path d="M625.322 266.49H621.572V270.239H625.322V266.49Z" fill="#F0F0F0"/>
<path d="M625.322 272.784H621.572V276.533H625.322V272.784Z" fill="#F0F0F0"/>
<path d="M625.322 279.062H621.572V282.811H625.322V279.062Z" fill="#F0F0F0"/>
<path d="M625.322 285.355H621.572V289.104H625.322V285.355Z" fill="#F0F0F0"/>
<path d="M625.322 291.649H621.572V295.398H625.322V291.649Z" fill="#F0F0F0"/>
<path d="M625.322 348.274H621.572V352.023H625.322V348.274Z" fill="#F0F0F0"/>
<path d="M619.358 253.904H615.608V257.653H619.358V253.904Z" fill="#F0F0F0"/>
<path d="M619.358 260.197H615.608V263.946H619.358V260.197Z" fill="#F0F0F0"/>
<path d="M619.358 266.49H615.608V270.239H619.358V266.49Z" fill="#F0F0F0"/>
<path d="M619.358 272.784H615.608V276.533H619.358V272.784Z" fill="#F0F0F0"/>
<path d="M619.358 279.062H615.608V282.811H619.358V279.062Z" fill="#F0F0F0"/>
<path d="M619.358 285.355H615.608V289.104H619.358V285.355Z" fill="#F0F0F0"/>
<path d="M619.358 291.649H615.608V295.398H619.358V291.649Z" fill="#F0F0F0"/>
<path d="M619.358 297.942H615.608V301.691H619.358V297.942Z" fill="#F0F0F0"/>
<path d="M619.358 335.703H615.608V339.452H619.358V335.703Z" fill="#F0F0F0"/>
<path d="M619.358 341.981H615.608V345.73H619.358V341.981Z" fill="#F0F0F0"/>
<path d="M619.358 348.274H615.608V352.023H619.358V348.274Z" fill="#F0F0F0"/>
<path d="M619.358 354.568H615.608V358.317H619.358V354.568Z" fill="#F0F0F0"/>
<path d="M619.358 379.741H615.608V383.49H619.358V379.741Z" fill="#F0F0F0"/>
<path d="M613.394 253.904H609.645V257.653H613.394V253.904Z" fill="#F0F0F0"/>
<path d="M613.394 260.197H609.645V263.946H613.394V260.197Z" fill="#F0F0F0"/>
<path d="M613.394 266.49H609.645V270.239H613.394V266.49Z" fill="#F0F0F0"/>
<path d="M613.394 272.784H609.645V276.533H613.394V272.784Z" fill="#F0F0F0"/>
<path d="M613.394 279.062H609.645V282.811H613.394V279.062Z" fill="#F0F0F0"/>
<path d="M613.394 285.355H609.645V289.104H613.394V285.355Z" fill="#F0F0F0"/>
<path d="M613.394 291.649H609.645V295.398H613.394V291.649Z" fill="#F0F0F0"/>
<path d="M613.394 297.942H609.645V301.691H613.394V297.942Z" fill="#F0F0F0"/>
<path d="M613.394 304.236H609.645V307.985H613.394V304.236Z" fill="#F0F0F0"/>
<path d="M613.394 310.529H609.645V314.278H613.394V310.529Z" fill="#F0F0F0"/>
<path d="M613.394 329.409H609.645V333.158H613.394V329.409Z" fill="#F0F0F0"/>
<path d="M613.394 335.703H609.645V339.452H613.394V335.703Z" fill="#F0F0F0"/>
<path d="M613.394 341.981H609.645V345.73H613.394V341.981Z" fill="#F0F0F0"/>
<path d="M613.394 348.274H609.645V352.023H613.394V348.274Z" fill="#F0F0F0"/>
<path d="M613.394 354.568H609.645V358.317H613.394V354.568Z" fill="#F0F0F0"/>
<path d="M613.394 379.741H609.645V383.49H613.394V379.741Z" fill="#F0F0F0"/>
<path d="M607.431 253.904H603.681V257.653H607.431V253.904Z" fill="#F0F0F0"/>
<path d="M607.431 260.197H603.681V263.946H607.431V260.197Z" fill="#F0F0F0"/>
<path d="M607.431 266.49H603.681V270.239H607.431V266.49Z" fill="#F0F0F0"/>
<path d="M607.431 272.784H603.681V276.533H607.431V272.784Z" fill="#F0F0F0"/>
<path d="M607.431 279.062H603.681V282.811H607.431V279.062Z" fill="#F0F0F0"/>
<path d="M607.431 285.355H603.681V289.104H607.431V285.355Z" fill="#F0F0F0"/>
<path d="M607.431 291.649H603.681V295.398H607.431V291.649Z" fill="#F0F0F0"/>
<path d="M607.431 297.942H603.681V301.691H607.431V297.942Z" fill="#F0F0F0"/>
<path d="M607.431 304.236H603.681V307.985H607.431V304.236Z" fill="#F0F0F0"/>
<path d="M607.431 310.529H603.681V314.278H607.431V310.529Z" fill="#F0F0F0"/>
<path d="M607.431 316.823H603.681V320.571H607.431V316.823Z" fill="#F0F0F0"/>
<path d="M607.431 323.116H603.681V326.865H607.431V323.116Z" fill="#F0F0F0"/>
<path d="M607.431 329.409H603.681V333.158H607.431V329.409Z" fill="#F0F0F0"/>
<path d="M607.431 335.703H603.681V339.452H607.431V335.703Z" fill="#F0F0F0"/>
<path d="M607.431 341.981H603.681V345.73H607.431V341.981Z" fill="#F0F0F0"/>
<path d="M607.431 348.274H603.681V352.023H607.431V348.274Z" fill="#F0F0F0"/>
<path d="M607.431 354.568H603.681V358.317H607.431V354.568Z" fill="#F0F0F0"/>
<path d="M607.431 360.861H603.681V364.61H607.431V360.861Z" fill="#F0F0F0"/>
<path d="M601.467 253.904H597.717V257.653H601.467V253.904Z" fill="#F0F0F0"/>
<path d="M601.467 260.197H597.717V263.946H601.467V260.197Z" fill="#F0F0F0"/>
<path d="M601.467 266.49H597.717V270.239H601.467V266.49Z" fill="#F0F0F0"/>
<path d="M601.467 272.784H597.717V276.533H601.467V272.784Z" fill="#F0F0F0"/>
<path d="M601.467 279.062H597.717V282.811H601.467V279.062Z" fill="#F0F0F0"/>
<path d="M601.467 285.355H597.717V289.104H601.467V285.355Z" fill="#F0F0F0"/>
<path d="M601.467 291.649H597.717V295.398H601.467V291.649Z" fill="#F0F0F0"/>
<path d="M601.467 297.942H597.717V301.691H601.467V297.942Z" fill="#F0F0F0"/>
<path d="M601.467 304.236H597.717V307.985H601.467V304.236Z" fill="#F0F0F0"/>
<path d="M601.467 310.529H597.717V314.278H601.467V310.529Z" fill="#F0F0F0"/>
<path d="M601.467 329.409H597.717V333.158H601.467V329.409Z" fill="#F0F0F0"/>
<path d="M601.467 335.703H597.717V339.452H601.467V335.703Z" fill="#F0F0F0"/>
<path d="M601.467 341.981H597.717V345.73H601.467V341.981Z" fill="#F0F0F0"/>
<path d="M601.467 348.274H597.717V352.023H601.467V348.274Z" fill="#F0F0F0"/>
<path d="M595.518 253.904H591.768V257.653H595.518V253.904Z" fill="#F0F0F0"/>
<path d="M595.518 260.197H591.768V263.946H595.518V260.197Z" fill="#F0F0F0"/>
<path d="M595.518 266.49H591.768V270.239H595.518V266.49Z" fill="#F0F0F0"/>
<path d="M595.518 272.784H591.768V276.533H595.518V272.784Z" fill="#F0F0F0"/>
<path d="M595.518 279.062H591.768V282.811H595.518V279.062Z" fill="#F0F0F0"/>
<path d="M595.518 285.355H591.768V289.104H595.518V285.355Z" fill="#F0F0F0"/>
<path d="M595.518 291.649H591.768V295.398H595.518V291.649Z" fill="#F0F0F0"/>
<path d="M595.518 297.942H591.768V301.691H595.518V297.942Z" fill="#F0F0F0"/>
<path d="M595.518 304.236H591.768V307.985H595.518V304.236Z" fill="#F0F0F0"/>
<path d="M595.518 310.529H591.768V314.278H595.518V310.529Z" fill="#F0F0F0"/>
<path d="M595.518 329.409H591.768V333.158H595.518V329.409Z" fill="#F0F0F0"/>
<path d="M595.518 335.703H591.768V339.452H595.518V335.703Z" fill="#F0F0F0"/>
<path d="M595.518 341.981H591.768V345.73H595.518V341.981Z" fill="#F0F0F0"/>
<path d="M528.38 237.568H524.63V241.317H528.38V237.568Z" fill="#F0F0F0"/>
<path d="M528.38 243.861H524.63V247.61H528.38V243.861Z" fill="#F0F0F0"/>
<path d="M528.38 250.155H524.63V253.903H528.38V250.155Z" fill="#F0F0F0"/>
<path d="M528.38 256.433H524.63V260.182H528.38V256.433Z" fill="#F0F0F0"/>
<path d="M528.38 262.726H524.63V266.475H528.38V262.726Z" fill="#F0F0F0"/>
<path d="M528.38 269.02H524.63V272.769H528.38V269.02Z" fill="#F0F0F0"/>
<path d="M528.38 275.313H524.63V279.062H528.38V275.313Z" fill="#F0F0F0"/>
<path d="M528.38 281.606H524.63V285.355H528.38V281.606Z" fill="#F0F0F0"/>
<path d="M528.38 300.487H524.63V304.236H528.38V300.487Z" fill="#F0F0F0"/>
<path d="M528.38 306.78H524.63V310.529H528.38V306.78Z" fill="#F0F0F0"/>
<path d="M522.417 237.568H518.667V241.317H522.417V237.568Z" fill="#F0F0F0"/>
<path d="M522.417 243.861H518.667V247.61H522.417V243.861Z" fill="#F0F0F0"/>
<path d="M522.417 250.155H518.667V253.903H522.417V250.155Z" fill="#F0F0F0"/>
<path d="M522.417 256.433H518.667V260.182H522.417V256.433Z" fill="#F0F0F0"/>
<path d="M522.417 262.726H518.667V266.475H522.417V262.726Z" fill="#F0F0F0"/>
<path d="M522.417 269.02H518.667V272.769H522.417V269.02Z" fill="#F0F0F0"/>
<path d="M522.417 275.313H518.667V279.062H522.417V275.313Z" fill="#F0F0F0"/>
<path d="M522.417 281.606H518.667V285.355H522.417V281.606Z" fill="#F0F0F0"/>
<path d="M522.417 306.78H518.667V310.529H522.417V306.78Z" fill="#F0F0F0"/>
<path d="M516.453 237.568H512.703V241.317H516.453V237.568Z" fill="#F0F0F0"/>
<path d="M516.453 243.861H512.703V247.61H516.453V243.861Z" fill="#F0F0F0"/>
<path d="M516.453 250.155H512.703V253.903H516.453V250.155Z" fill="#F0F0F0"/>
<path d="M516.453 256.433H512.703V260.182H516.453V256.433Z" fill="#F0F0F0"/>
<path d="M516.453 262.726H512.703V266.475H516.453V262.726Z" fill="#F0F0F0"/>
<path d="M516.453 269.02H512.703V272.769H516.453V269.02Z" fill="#F0F0F0"/>
<path d="M516.453 275.313H512.703V279.062H516.453V275.313Z" fill="#F0F0F0"/>
<path d="M516.453 281.606H512.703V285.355H516.453V281.606Z" fill="#F0F0F0"/>
<path d="M510.489 237.568H506.739V241.317H510.489V237.568Z" fill="#F0F0F0"/>
<path d="M510.489 243.861H506.739V247.61H510.489V243.861Z" fill="#F0F0F0"/>
<path d="M510.489 250.155H506.739V253.903H510.489V250.155Z" fill="#F0F0F0"/>
<path d="M510.489 256.433H506.739V260.182H510.489V256.433Z" fill="#F0F0F0"/>
<path d="M510.489 262.726H506.739V266.475H510.489V262.726Z" fill="#F0F0F0"/>
<path d="M510.489 269.02H506.739V272.769H510.489V269.02Z" fill="#F0F0F0"/>
<path d="M510.489 281.606H506.739V285.355H510.489V281.606Z" fill="#F0F0F0"/>
<path d="M510.489 287.9H506.739V291.649H510.489V287.9Z" fill="#F0F0F0"/>
<path d="M510.489 306.78H506.739V310.529H510.489V306.78Z" fill="#F0F0F0"/>
<path d="M510.489 313.073H506.739V316.822H510.489V313.073Z" fill="#F0F0F0"/>
<path d="M510.489 319.352H506.739V323.101H510.489V319.352Z" fill="#F0F0F0"/>
<path d="M510.489 325.645H506.739V329.394H510.489V325.645Z" fill="#F0F0F0"/>
<path d="M510.489 331.939H506.739V335.688H510.489V331.939Z" fill="#F0F0F0"/>
<path d="M510.489 338.232H506.739V341.981H510.489V338.232Z" fill="#F0F0F0"/>
<path d="M510.489 344.525H506.739V348.274H510.489V344.525Z" fill="#F0F0F0"/>
<path d="M504.525 237.568H500.775V241.317H504.525V237.568Z" fill="#F0F0F0"/>
<path d="M504.525 243.861H500.775V247.61H504.525V243.861Z" fill="#F0F0F0"/>
<path d="M504.525 250.155H500.775V253.903H504.525V250.155Z" fill="#F0F0F0"/>
<path d="M504.525 256.433H500.775V260.182H504.525V256.433Z" fill="#F0F0F0"/>
<path d="M504.525 262.726H500.775V266.475H504.525V262.726Z" fill="#F0F0F0"/>
<path d="M504.525 269.02H500.775V272.769H504.525V269.02Z" fill="#F0F0F0"/>
<path d="M504.525 287.9H500.775V291.649H504.525V287.9Z" fill="#F0F0F0"/>
<path d="M504.525 294.193H500.775V297.942H504.525V294.193Z" fill="#F0F0F0"/>
<path d="M504.525 300.487H500.775V304.236H504.525V300.487Z" fill="#F0F0F0"/>
<path d="M504.525 306.78H500.775V310.529H504.525V306.78Z" fill="#F0F0F0"/>
<path d="M504.525 313.073H500.775V316.822H504.525V313.073Z" fill="#F0F0F0"/>
<path d="M504.525 319.352H500.775V323.101H504.525V319.352Z" fill="#F0F0F0"/>
<path d="M504.525 325.645H500.775V329.394H504.525V325.645Z" fill="#F0F0F0"/>
<path d="M504.525 331.939H500.775V335.688H504.525V331.939Z" fill="#F0F0F0"/>
<path d="M504.525 338.232H500.775V341.981H504.525V338.232Z" fill="#F0F0F0"/>
<path d="M504.525 344.525H500.775V348.274H504.525V344.525Z" fill="#F0F0F0"/>
<path d="M504.525 350.819H500.775V354.568H504.525V350.819Z" fill="#F0F0F0"/>
<path d="M504.525 363.406H500.775V367.154H504.525V363.406Z" fill="#F0F0F0"/>
<path d="M498.562 237.568H494.812V241.317H498.562V237.568Z" fill="#F0F0F0"/>
<path d="M498.562 243.861H494.812V247.61H498.562V243.861Z" fill="#F0F0F0"/>
<path d="M498.562 250.155H494.812V253.903H498.562V250.155Z" fill="#F0F0F0"/>
<path d="M498.562 256.433H494.812V260.182H498.562V256.433Z" fill="#F0F0F0"/>
<path d="M498.562 262.726H494.812V266.475H498.562V262.726Z" fill="#F0F0F0"/>
<path d="M498.562 269.02H494.812V272.769H498.562V269.02Z" fill="#F0F0F0"/>
<path d="M498.562 287.9H494.812V291.649H498.562V287.9Z" fill="#F0F0F0"/>
<path d="M498.562 294.193H494.812V297.942H498.562V294.193Z" fill="#F0F0F0"/>
<path d="M498.562 300.487H494.812V304.236H498.562V300.487Z" fill="#F0F0F0"/>
<path d="M498.562 306.78H494.812V310.529H498.562V306.78Z" fill="#F0F0F0"/>
<path d="M498.562 325.645H494.812V329.394H498.562V325.645Z" fill="#F0F0F0"/>
<path d="M498.562 331.939H494.812V335.688H498.562V331.939Z" fill="#F0F0F0"/>
<path d="M498.562 338.232H494.812V341.981H498.562V338.232Z" fill="#F0F0F0"/>
<path d="M498.562 344.525H494.812V348.274H498.562V344.525Z" fill="#F0F0F0"/>
<path d="M498.562 350.819H494.812V354.568H498.562V350.819Z" fill="#F0F0F0"/>
<path d="M498.562 363.406H494.812V367.154H498.562V363.406Z" fill="#F0F0F0"/>
<path d="M498.562 369.699H494.812V373.448H498.562V369.699Z" fill="#F0F0F0"/>
<path d="M444.466 296.075H440.716V299.824H444.466V296.075Z" fill="#F0F0F0"/>
<path d="M444.466 302.354H440.716V306.103H444.466V302.354Z" fill="#F0F0F0"/>
<path d="M444.466 308.647H440.716V312.396H444.466V308.647Z" fill="#F0F0F0"/>
<path d="M444.466 314.94H440.716V318.689H444.466V314.94Z" fill="#F0F0F0"/>
<path d="M444.466 321.234H440.716V324.983H444.466V321.234Z" fill="#F0F0F0"/>
<path d="M444.466 327.527H440.716V331.276H444.466V327.527Z" fill="#F0F0F0"/>
<path d="M444.466 333.821H440.716V337.569H444.466V333.821Z" fill="#F0F0F0"/>
<path d="M444.466 352.701H440.716V356.45H444.466V352.701Z" fill="#F0F0F0"/>
<path d="M444.466 358.979H440.716V362.728H444.466V358.979Z" fill="#F0F0F0"/>
<path d="M444.466 365.272H440.716V369.021H444.466V365.272Z" fill="#F0F0F0"/>
<path d="M438.502 296.075H434.752V299.824H438.502V296.075Z" fill="#F0F0F0"/>
<path d="M438.502 302.354H434.752V306.103H438.502V302.354Z" fill="#F0F0F0"/>
<path d="M438.502 308.647H434.752V312.396H438.502V308.647Z" fill="#F0F0F0"/>
<path d="M438.502 314.94H434.752V318.689H438.502V314.94Z" fill="#F0F0F0"/>
<path d="M438.502 321.234H434.752V324.983H438.502V321.234Z" fill="#F0F0F0"/>
<path d="M438.502 327.527H434.752V331.276H438.502V327.527Z" fill="#F0F0F0"/>
<path d="M438.502 333.821H434.752V337.569H438.502V333.821Z" fill="#F0F0F0"/>
<path d="M432.538 296.075H428.789V299.824H432.538V296.075Z" fill="#F0F0F0"/>
<path d="M432.538 302.354H428.789V306.103H432.538V302.354Z" fill="#F0F0F0"/>
<path d="M432.538 308.647H428.789V312.396H432.538V308.647Z" fill="#F0F0F0"/>
<path d="M432.538 314.94H428.789V318.689H432.538V314.94Z" fill="#F0F0F0"/>
<path d="M432.538 321.234H428.789V324.983H432.538V321.234Z" fill="#F0F0F0"/>
<path d="M432.538 327.527H428.789V331.276H432.538V327.527Z" fill="#F0F0F0"/>
<path d="M432.538 333.821H428.789V337.569H432.538V333.821Z" fill="#F0F0F0"/>
<path d="M426.575 296.075H422.825V299.824H426.575V296.075Z" fill="#F0F0F0"/>
<path d="M426.575 302.354H422.825V306.103H426.575V302.354Z" fill="#F0F0F0"/>
<path d="M426.575 308.647H422.825V312.396H426.575V308.647Z" fill="#F0F0F0"/>
<path d="M426.575 314.94H422.825V318.689H426.575V314.94Z" fill="#F0F0F0"/>
<path d="M426.575 321.234H422.825V324.983H426.575V321.234Z" fill="#F0F0F0"/>
<path d="M426.575 327.527H422.825V331.276H426.575V327.527Z" fill="#F0F0F0"/>
<path d="M426.575 333.821H422.825V337.569H426.575V333.821Z" fill="#F0F0F0"/>
<path d="M426.575 340.114H422.825V343.863H426.575V340.114Z" fill="#F0F0F0"/>
<path d="M426.575 346.407H422.825V350.156H426.575V346.407Z" fill="#F0F0F0"/>
<path d="M426.575 352.701H422.825V356.45H426.575V352.701Z" fill="#F0F0F0"/>
<path d="M426.575 358.979H422.825V362.728H426.575V358.979Z" fill="#F0F0F0"/>
<path d="M420.611 296.075H416.861V299.824H420.611V296.075Z" fill="#F0F0F0"/>
<path d="M420.611 302.354H416.861V306.103H420.611V302.354Z" fill="#F0F0F0"/>
<path d="M420.611 308.647H416.861V312.396H420.611V308.647Z" fill="#F0F0F0"/>
<path d="M420.611 314.94H416.861V318.689H420.611V314.94Z" fill="#F0F0F0"/>
<path d="M420.611 321.234H416.861V324.983H420.611V321.234Z" fill="#F0F0F0"/>
<path d="M420.611 327.527H416.861V331.276H420.611V327.527Z" fill="#F0F0F0"/>
<path d="M420.611 333.821H416.861V337.569H420.611V333.821Z" fill="#F0F0F0"/>
<path d="M420.611 340.114H416.861V343.863H420.611V340.114Z" fill="#F0F0F0"/>
<path d="M420.611 346.407H416.861V350.156H420.611V346.407Z" fill="#F0F0F0"/>
<path d="M420.611 352.701H416.861V356.45H420.611V352.701Z" fill="#F0F0F0"/>
<path d="M420.611 358.979H416.861V362.728H420.611V358.979Z" fill="#F0F0F0"/>
<path d="M420.611 365.272H416.861V369.021H420.611V365.272Z" fill="#F0F0F0"/>
<path d="M420.611 384.153H416.861V387.902H420.611V384.153Z" fill="#F0F0F0"/>
<path d="M420.611 390.446H416.861V394.195H420.611V390.446Z" fill="#F0F0F0"/>
<path d="M414.647 296.075H410.897V299.824H414.647V296.075Z" fill="#F0F0F0"/>
<path d="M414.647 302.354H410.897V306.103H414.647V302.354Z" fill="#F0F0F0"/>
<path d="M414.647 308.647H410.897V312.396H414.647V308.647Z" fill="#F0F0F0"/>
<path d="M414.647 327.527H410.897V331.276H414.647V327.527Z" fill="#F0F0F0"/>
<path d="M414.647 333.821H410.897V337.569H414.647V333.821Z" fill="#F0F0F0"/>
<path d="M414.647 340.114H410.897V343.863H414.647V340.114Z" fill="#F0F0F0"/>
<path d="M414.647 346.407H410.897V350.156H414.647V346.407Z" fill="#F0F0F0"/>
<path d="M414.647 352.701H410.897V356.45H414.647V352.701Z" fill="#F0F0F0"/>
<path d="M414.647 358.979H410.897V362.728H414.647V358.979Z" fill="#F0F0F0"/>
<path d="M414.647 365.272H410.897V369.021H414.647V365.272Z" fill="#F0F0F0"/>
<path d="M414.647 384.153H410.897V387.902H414.647V384.153Z" fill="#F0F0F0"/>
<path d="M414.647 390.446H410.897V394.195H414.647V390.446Z" fill="#F0F0F0"/>
<path d="M414.647 396.74H410.897V400.488H414.647V396.74Z" fill="#F0F0F0"/>
<path d="M352.163 258.315H348.414V262.064H352.163V258.315Z" fill="#F0F0F0"/>
<path d="M352.163 264.608H348.414V268.357H352.163V264.608Z" fill="#F0F0F0"/>
<path d="M352.163 270.902H348.414V274.651H352.163V270.902Z" fill="#F0F0F0"/>
<path d="M352.163 277.195H348.414V280.944H352.163V277.195Z" fill="#F0F0F0"/>
<path d="M352.163 283.489H348.414V287.237H352.163V283.489Z" fill="#F0F0F0"/>
<path d="M352.163 289.782H348.414V293.531H352.163V289.782Z" fill="#F0F0F0"/>
<path d="M352.163 296.075H348.414V299.824H352.163V296.075Z" fill="#F0F0F0"/>
<path d="M352.163 302.354H348.414V306.103H352.163V302.354Z" fill="#F0F0F0"/>
<path d="M352.163 308.647H348.414V312.396H352.163V308.647Z" fill="#F0F0F0"/>
<path d="M352.163 314.94H348.414V318.689H352.163V314.94Z" fill="#F0F0F0"/>
<path d="M352.163 321.234H348.414V324.983H352.163V321.234Z" fill="#F0F0F0"/>
<path d="M352.163 327.527H348.414V331.276H352.163V327.527Z" fill="#F0F0F0"/>
<path d="M352.163 333.821H348.414V337.569H352.163V333.821Z" fill="#F0F0F0"/>
<path d="M352.163 340.114H348.414V343.863H352.163V340.114Z" fill="#F0F0F0"/>
<path d="M352.163 346.407H348.414V350.156H352.163V346.407Z" fill="#F0F0F0"/>
<path d="M352.163 352.701H348.414V356.45H352.163V352.701Z" fill="#F0F0F0"/>
<path d="M352.163 358.979H348.414V362.728H352.163V358.979Z" fill="#F0F0F0"/>
<path d="M352.163 365.272H348.414V369.021H352.163V365.272Z" fill="#F0F0F0"/>
<path d="M352.163 371.566H348.414V375.315H352.163V371.566Z" fill="#F0F0F0"/>
<path d="M352.163 377.859H348.414V381.608H352.163V377.859Z" fill="#F0F0F0"/>
<path d="M352.163 384.153H348.414V387.902H352.163V384.153Z" fill="#F0F0F0"/>
<path d="M352.163 390.446H348.414V394.195H352.163V390.446Z" fill="#F0F0F0"/>
<path d="M352.163 396.74H348.414V400.488H352.163V396.74Z" fill="#F0F0F0"/>
<path d="M346.2 258.315H342.45V262.064H346.2V258.315Z" fill="#F0F0F0"/>
<path d="M346.2 264.608H342.45V268.357H346.2V264.608Z" fill="#F0F0F0"/>
<path d="M346.2 270.902H342.45V274.651H346.2V270.902Z" fill="#F0F0F0"/>
<path d="M346.2 277.195H342.45V280.944H346.2V277.195Z" fill="#F0F0F0"/>
<path d="M346.2 283.489H342.45V287.237H346.2V283.489Z" fill="#F0F0F0"/>
<path d="M346.2 289.782H342.45V293.531H346.2V289.782Z" fill="#F0F0F0"/>
<path d="M346.2 296.075H342.45V299.824H346.2V296.075Z" fill="#F0F0F0"/>
<path d="M346.2 302.354H342.45V306.103H346.2V302.354Z" fill="#F0F0F0"/>
<path d="M346.2 308.647H342.45V312.396H346.2V308.647Z" fill="#F0F0F0"/>
<path d="M346.2 314.94H342.45V318.689H346.2V314.94Z" fill="#F0F0F0"/>
<path d="M346.2 321.234H342.45V324.983H346.2V321.234Z" fill="#F0F0F0"/>
<path d="M346.2 327.527H342.45V331.276H346.2V327.527Z" fill="#F0F0F0"/>
<path d="M346.2 333.821H342.45V337.569H346.2V333.821Z" fill="#F0F0F0"/>
<path d="M346.2 340.114H342.45V343.863H346.2V340.114Z" fill="#F0F0F0"/>
<path d="M346.2 346.407H342.45V350.156H346.2V346.407Z" fill="#F0F0F0"/>
<path d="M346.2 352.701H342.45V356.45H346.2V352.701Z" fill="#F0F0F0"/>
<path d="M346.2 358.979H342.45V362.728H346.2V358.979Z" fill="#F0F0F0"/>
<path d="M346.2 365.272H342.45V369.021H346.2V365.272Z" fill="#F0F0F0"/>
<path d="M346.2 371.566H342.45V375.315H346.2V371.566Z" fill="#F0F0F0"/>
<path d="M340.236 258.315H336.486V262.064H340.236V258.315Z" fill="#F0F0F0"/>
<path d="M340.236 264.608H336.486V268.357H340.236V264.608Z" fill="#F0F0F0"/>
<path d="M340.236 270.902H336.486V274.651H340.236V270.902Z" fill="#F0F0F0"/>
<path d="M340.236 277.195H336.486V280.944H340.236V277.195Z" fill="#F0F0F0"/>
<path d="M340.236 283.489H336.486V287.237H340.236V283.489Z" fill="#F0F0F0"/>
<path d="M340.236 289.782H336.486V293.531H340.236V289.782Z" fill="#F0F0F0"/>
<path d="M340.236 296.075H336.486V299.824H340.236V296.075Z" fill="#F0F0F0"/>
<path d="M340.236 302.354H336.486V306.103H340.236V302.354Z" fill="#F0F0F0"/>
<path d="M340.236 308.647H336.486V312.396H340.236V308.647Z" fill="#F0F0F0"/>
<path d="M340.236 314.94H336.486V318.689H340.236V314.94Z" fill="#F0F0F0"/>
<path d="M340.236 321.234H336.486V324.983H340.236V321.234Z" fill="#F0F0F0"/>
<path d="M340.236 327.527H336.486V331.276H340.236V327.527Z" fill="#F0F0F0"/>
<path d="M340.236 333.821H336.486V337.569H340.236V333.821Z" fill="#F0F0F0"/>
<path d="M340.236 340.114H336.486V343.863H340.236V340.114Z" fill="#F0F0F0"/>
<path d="M340.236 346.407H336.486V350.156H340.236V346.407Z" fill="#F0F0F0"/>
<path d="M340.236 352.701H336.486V356.45H340.236V352.701Z" fill="#F0F0F0"/>
<path d="M340.236 358.979H336.486V362.728H340.236V358.979Z" fill="#F0F0F0"/>
<path d="M340.236 365.272H336.486V369.021H340.236V365.272Z" fill="#F0F0F0"/>
<path d="M340.236 371.566H336.486V375.315H340.236V371.566Z" fill="#F0F0F0"/>
<path d="M334.272 258.315H330.522V262.064H334.272V258.315Z" fill="#F0F0F0"/>
<path d="M334.272 264.608H330.522V268.357H334.272V264.608Z" fill="#F0F0F0"/>
<path d="M334.272 270.902H330.522V274.651H334.272V270.902Z" fill="#F0F0F0"/>
<path d="M334.272 277.195H330.522V280.944H334.272V277.195Z" fill="#F0F0F0"/>
<path d="M334.272 283.489H330.522V287.237H334.272V283.489Z" fill="#F0F0F0"/>
<path d="M334.272 289.782H330.522V293.531H334.272V289.782Z" fill="#F0F0F0"/>
<path d="M334.272 296.075H330.522V299.824H334.272V296.075Z" fill="#F0F0F0"/>
<path d="M334.272 302.354H330.522V306.103H334.272V302.354Z" fill="#F0F0F0"/>
<path d="M334.272 308.647H330.522V312.396H334.272V308.647Z" fill="#F0F0F0"/>
<path d="M334.272 314.94H330.522V318.689H334.272V314.94Z" fill="#F0F0F0"/>
<path d="M334.272 321.234H330.522V324.983H334.272V321.234Z" fill="#F0F0F0"/>
<path d="M334.272 327.527H330.522V331.276H334.272V327.527Z" fill="#F0F0F0"/>
<path d="M334.272 333.821H330.522V337.569H334.272V333.821Z" fill="#F0F0F0"/>
<path d="M334.272 340.114H330.522V343.863H334.272V340.114Z" fill="#F0F0F0"/>
<path d="M334.272 346.407H330.522V350.156H334.272V346.407Z" fill="#F0F0F0"/>
<path d="M328.309 258.315H324.559V262.064H328.309V258.315Z" fill="#F0F0F0"/>
<path d="M328.309 264.608H324.559V268.357H328.309V264.608Z" fill="#F0F0F0"/>
<path d="M328.309 270.902H324.559V274.651H328.309V270.902Z" fill="#F0F0F0"/>
<path d="M328.309 277.195H324.559V280.944H328.309V277.195Z" fill="#F0F0F0"/>
<path d="M328.309 283.489H324.559V287.237H328.309V283.489Z" fill="#F0F0F0"/>
<path d="M328.309 289.782H324.559V293.531H328.309V289.782Z" fill="#F0F0F0"/>
<path d="M328.309 296.075H324.559V299.824H328.309V296.075Z" fill="#F0F0F0"/>
<path d="M328.309 302.354H324.559V306.103H328.309V302.354Z" fill="#F0F0F0"/>
<path d="M328.309 308.647H324.559V312.396H328.309V308.647Z" fill="#F0F0F0"/>
<path d="M328.309 314.94H324.559V318.689H328.309V314.94Z" fill="#F0F0F0"/>
<path d="M328.309 321.234H324.559V324.983H328.309V321.234Z" fill="#F0F0F0"/>
<path d="M328.309 327.527H324.559V331.276H328.309V327.527Z" fill="#F0F0F0"/>
<path d="M328.309 333.821H324.559V337.569H328.309V333.821Z" fill="#F0F0F0"/>
<path d="M322.345 258.315H318.595V262.064H322.345V258.315Z" fill="#F0F0F0"/>
<path d="M322.345 264.608H318.595V268.357H322.345V264.608Z" fill="#F0F0F0"/>
<path d="M322.345 270.902H318.595V274.651H322.345V270.902Z" fill="#F0F0F0"/>
<path d="M322.345 277.195H318.595V280.944H322.345V277.195Z" fill="#F0F0F0"/>
<path d="M322.345 283.489H318.595V287.237H322.345V283.489Z" fill="#F0F0F0"/>
<path d="M322.345 289.782H318.595V293.531H322.345V289.782Z" fill="#F0F0F0"/>
<path d="M322.345 296.075H318.595V299.824H322.345V296.075Z" fill="#F0F0F0"/>
<path d="M322.345 302.354H318.595V306.103H322.345V302.354Z" fill="#F0F0F0"/>
<path d="M322.345 308.647H318.595V312.396H322.345V308.647Z" fill="#F0F0F0"/>
<path d="M322.345 314.94H318.595V318.689H322.345V314.94Z" fill="#F0F0F0"/>
<path d="M322.345 321.234H318.595V324.983H322.345V321.234Z" fill="#F0F0F0"/>
<path d="M322.345 327.527H318.595V331.276H322.345V327.527Z" fill="#F0F0F0"/>
<path d="M670.366 256.433H666.616V260.182H670.366V256.433Z" fill="#F0F0F0"/>
<path d="M670.366 262.726H666.616V266.475H670.366V262.726Z" fill="#F0F0F0"/>
<path d="M670.366 269.02H666.616V272.769H670.366V269.02Z" fill="#F0F0F0"/>
<path d="M670.366 275.313H666.616V279.062H670.366V275.313Z" fill="#F0F0F0"/>
<path d="M670.366 281.606H666.616V285.355H670.366V281.606Z" fill="#F0F0F0"/>
<path d="M670.366 287.9H666.616V291.649H670.366V287.9Z" fill="#F0F0F0"/>
<path d="M670.366 294.193H666.616V297.942H670.366V294.193Z" fill="#F0F0F0"/>
<path d="M670.366 300.487H666.616V304.236H670.366V300.487Z" fill="#F0F0F0"/>
<path d="M670.366 306.78H666.616V310.529H670.366V306.78Z" fill="#F0F0F0"/>
<path d="M670.366 313.073H666.616V316.822H670.366V313.073Z" fill="#F0F0F0"/>
<path d="M670.366 319.352H666.616V323.101H670.366V319.352Z" fill="#F0F0F0"/>
<path d="M670.366 325.645H666.616V329.394H670.366V325.645Z" fill="#F0F0F0"/>
<path d="M670.366 331.939H666.616V335.688H670.366V331.939Z" fill="#F0F0F0"/>
<path d="M670.366 338.232H666.616V341.981H670.366V338.232Z" fill="#F0F0F0"/>
<path d="M670.366 344.525H666.616V348.274H670.366V344.525Z" fill="#F0F0F0"/>
<path d="M670.366 350.819H666.616V354.568H670.366V350.819Z" fill="#F0F0F0"/>
<path d="M670.366 357.112H666.616V360.861H670.366V357.112Z" fill="#F0F0F0"/>
<path d="M670.366 369.699H666.616V373.448H670.366V369.699Z" fill="#F0F0F0"/>
<path d="M670.366 375.992H666.616V379.741H670.366V375.992Z" fill="#F0F0F0"/>
<path d="M670.366 382.271H666.616V386.02H670.366V382.271Z" fill="#F0F0F0"/>
<path d="M670.366 388.564H666.616V392.313H670.366V388.564Z" fill="#F0F0F0"/>
<path d="M670.366 394.857H666.616V398.606H670.366V394.857Z" fill="#F0F0F0"/>
<path d="M664.402 256.433H660.652V260.182H664.402V256.433Z" fill="#F0F0F0"/>
<path d="M664.402 262.726H660.652V266.475H664.402V262.726Z" fill="#F0F0F0"/>
<path d="M664.402 269.02H660.652V272.769H664.402V269.02Z" fill="#F0F0F0"/>
<path d="M664.402 275.313H660.652V279.062H664.402V275.313Z" fill="#F0F0F0"/>
<path d="M664.402 281.606H660.652V285.355H664.402V281.606Z" fill="#F0F0F0"/>
<path d="M664.402 287.9H660.652V291.649H664.402V287.9Z" fill="#F0F0F0"/>
<path d="M664.402 294.193H660.652V297.942H664.402V294.193Z" fill="#F0F0F0"/>
<path d="M664.402 300.487H660.652V304.236H664.402V300.487Z" fill="#F0F0F0"/>
<path d="M664.402 306.78H660.652V310.529H664.402V306.78Z" fill="#F0F0F0"/>
<path d="M664.402 313.073H660.652V316.822H664.402V313.073Z" fill="#F0F0F0"/>
<path d="M664.402 319.352H660.652V323.101H664.402V319.352Z" fill="#F0F0F0"/>
<path d="M664.402 325.645H660.652V329.394H664.402V325.645Z" fill="#F0F0F0"/>
<path d="M664.402 331.939H660.652V335.688H664.402V331.939Z" fill="#F0F0F0"/>
<path d="M664.402 338.232H660.652V341.981H664.402V338.232Z" fill="#F0F0F0"/>
<path d="M664.402 344.525H660.652V348.274H664.402V344.525Z" fill="#F0F0F0"/>
<path d="M664.402 350.819H660.652V354.568H664.402V350.819Z" fill="#F0F0F0"/>
<path d="M664.402 388.564H660.652V392.313H664.402V388.564Z" fill="#F0F0F0"/>
<path d="M664.402 394.857H660.652V398.606H664.402V394.857Z" fill="#F0F0F0"/>
<path d="M658.454 256.433H654.704V260.182H658.454V256.433Z" fill="#F0F0F0"/>
<path d="M658.454 262.726H654.704V266.475H658.454V262.726Z" fill="#F0F0F0"/>
<path d="M658.454 269.02H654.704V272.769H658.454V269.02Z" fill="#F0F0F0"/>
<path d="M658.454 275.313H654.704V279.062H658.454V275.313Z" fill="#F0F0F0"/>
<path d="M658.454 281.606H654.704V285.355H658.454V281.606Z" fill="#F0F0F0"/>
<path d="M658.454 287.9H654.704V291.649H658.454V287.9Z" fill="#F0F0F0"/>
<path d="M658.454 294.193H654.704V297.942H658.454V294.193Z" fill="#F0F0F0"/>
<path d="M658.454 300.487H654.704V304.236H658.454V300.487Z" fill="#F0F0F0"/>
<path d="M658.454 306.78H654.704V310.529H658.454V306.78Z" fill="#F0F0F0"/>
<path d="M658.454 313.073H654.704V316.822H658.454V313.073Z" fill="#F0F0F0"/>
<path d="M658.454 319.352H654.704V323.101H658.454V319.352Z" fill="#F0F0F0"/>
<path d="M658.454 325.645H654.704V329.394H658.454V325.645Z" fill="#F0F0F0"/>
<path d="M658.454 331.939H654.704V335.688H658.454V331.939Z" fill="#F0F0F0"/>
<path d="M658.454 338.232H654.704V341.981H658.454V338.232Z" fill="#F0F0F0"/>
<path d="M658.454 344.525H654.704V348.274H658.454V344.525Z" fill="#F0F0F0"/>
<path d="M658.454 350.819H654.704V354.568H658.454V350.819Z" fill="#F0F0F0"/>
<path d="M658.454 363.406H654.704V367.154H658.454V363.406Z" fill="#F0F0F0"/>
<path d="M658.454 369.699H654.704V373.448H658.454V369.699Z" fill="#F0F0F0"/>
<path d="M658.454 375.992H654.704V379.741H658.454V375.992Z" fill="#F0F0F0"/>
<path d="M658.454 382.271H654.704V386.02H658.454V382.271Z" fill="#F0F0F0"/>
<path d="M658.454 394.857H654.704V398.606H658.454V394.857Z" fill="#F0F0F0"/>
<path d="M554.434 300.487H550.685V304.236H554.434V300.487Z" fill="#F0F0F0"/>
<path d="M554.434 306.78H550.685V310.529H554.434V306.78Z" fill="#F0F0F0"/>
<path d="M554.434 313.073H550.685V316.822H554.434V313.073Z" fill="#F0F0F0"/>
<path d="M554.434 319.352H550.685V323.101H554.434V319.352Z" fill="#F0F0F0"/>
<path d="M554.434 325.645H550.685V329.394H554.434V325.645Z" fill="#F0F0F0"/>
<path d="M554.434 331.939H550.685V335.688H554.434V331.939Z" fill="#F0F0F0"/>
<path d="M554.434 338.232H550.685V341.981H554.434V338.232Z" fill="#F0F0F0"/>
<path d="M554.434 344.525H550.685V348.274H554.434V344.525Z" fill="#F0F0F0"/>
<path d="M554.434 350.819H550.685V354.568H554.434V350.819Z" fill="#F0F0F0"/>
<path d="M554.434 357.112H550.685V360.861H554.434V357.112Z" fill="#F0F0F0"/>
<path d="M554.434 363.406H550.685V367.154H554.434V363.406Z" fill="#F0F0F0"/>
<path d="M554.434 369.699H550.685V373.448H554.434V369.699Z" fill="#F0F0F0"/>
<path d="M554.434 375.992H550.685V379.741H554.434V375.992Z" fill="#F0F0F0"/>
<path d="M554.434 388.564H550.685V392.313H554.434V388.564Z" fill="#F0F0F0"/>
<path d="M554.434 394.857H550.685V398.606H554.434V394.857Z" fill="#F0F0F0"/>
<path d="M554.434 401.151H550.685V404.9H554.434V401.151Z" fill="#F0F0F0"/>
<path d="M554.434 407.444H550.685V411.193H554.434V407.444Z" fill="#F0F0F0"/>
<path d="M554.434 420.031H550.685V423.78H554.434V420.031Z" fill="#F0F0F0"/>
<path d="M554.434 426.324H550.685V430.073H554.434V426.324Z" fill="#F0F0F0"/>
<path d="M554.434 432.618H550.685V436.367H554.434V432.618Z" fill="#F0F0F0"/>
<path d="M548.471 300.487H544.721V304.236H548.471V300.487Z" fill="#F0F0F0"/>
<path d="M548.471 306.78H544.721V310.529H548.471V306.78Z" fill="#F0F0F0"/>
<path d="M548.471 313.073H544.721V316.822H548.471V313.073Z" fill="#F0F0F0"/>
<path d="M548.471 319.352H544.721V323.101H548.471V319.352Z" fill="#F0F0F0"/>
<path d="M548.471 325.645H544.721V329.394H548.471V325.645Z" fill="#F0F0F0"/>
<path d="M548.471 331.939H544.721V335.688H548.471V331.939Z" fill="#F0F0F0"/>
<path d="M548.471 338.232H544.721V341.981H548.471V338.232Z" fill="#F0F0F0"/>
<path d="M548.471 344.525H544.721V348.274H548.471V344.525Z" fill="#F0F0F0"/>
<path d="M548.471 350.819H544.721V354.568H548.471V350.819Z" fill="#F0F0F0"/>
<path d="M548.471 357.112H544.721V360.861H548.471V357.112Z" fill="#F0F0F0"/>
<path d="M548.471 363.406H544.721V367.154H548.471V363.406Z" fill="#F0F0F0"/>
<path d="M548.471 369.699H544.721V373.448H548.471V369.699Z" fill="#F0F0F0"/>
<path d="M548.471 375.992H544.721V379.741H548.471V375.992Z" fill="#F0F0F0"/>
<path d="M548.471 394.857H544.721V398.606H548.471V394.857Z" fill="#F0F0F0"/>
<path d="M548.471 401.151H544.721V404.9H548.471V401.151Z" fill="#F0F0F0"/>
<path d="M548.471 413.738H544.721V417.487H548.471V413.738Z" fill="#F0F0F0"/>
<path d="M548.471 420.031H544.721V423.78H548.471V420.031Z" fill="#F0F0F0"/>
<path d="M548.471 426.324H544.721V430.073H548.471V426.324Z" fill="#F0F0F0"/>
<path d="M548.471 432.618H544.721V436.367H548.471V432.618Z" fill="#F0F0F0"/>
<path d="M542.507 300.487H538.757V304.236H542.507V300.487Z" fill="#F0F0F0"/>
<path d="M542.507 306.78H538.757V310.529H542.507V306.78Z" fill="#F0F0F0"/>
<path d="M542.507 313.073H538.757V316.822H542.507V313.073Z" fill="#F0F0F0"/>
<path d="M542.507 319.352H538.757V323.101H542.507V319.352Z" fill="#F0F0F0"/>
<path d="M542.507 325.645H538.757V329.394H542.507V325.645Z" fill="#F0F0F0"/>
<path d="M542.507 331.939H538.757V335.688H542.507V331.939Z" fill="#F0F0F0"/>
<path d="M542.507 338.232H538.757V341.981H542.507V338.232Z" fill="#F0F0F0"/>
<path d="M542.507 344.525H538.757V348.274H542.507V344.525Z" fill="#F0F0F0"/>
<path d="M542.507 350.819H538.757V354.568H542.507V350.819Z" fill="#F0F0F0"/>
<path d="M542.507 357.112H538.757V360.861H542.507V357.112Z" fill="#F0F0F0"/>
<path d="M542.507 363.406H538.757V367.154H542.507V363.406Z" fill="#F0F0F0"/>
<path d="M542.507 369.699H538.757V373.448H542.507V369.699Z" fill="#F0F0F0"/>
<path d="M542.507 375.992H538.757V379.741H542.507V375.992Z" fill="#F0F0F0"/>
<path d="M542.507 382.271H538.757V386.02H542.507V382.271Z" fill="#F0F0F0"/>
<path d="M542.507 394.857H538.757V398.606H542.507V394.857Z" fill="#F0F0F0"/>
<path d="M542.507 407.444H538.757V411.193H542.507V407.444Z" fill="#F0F0F0"/>
<path d="M542.507 413.738H538.757V417.487H542.507V413.738Z" fill="#F0F0F0"/>
<path d="M542.507 420.031H538.757V423.78H542.507V420.031Z" fill="#F0F0F0"/>
<path d="M542.507 426.324H538.757V430.073H542.507V426.324Z" fill="#F0F0F0"/>
<path d="M542.507 432.618H538.757V436.367H542.507V432.618Z" fill="#F0F0F0"/>
<path d="M578.726 336.365H574.976V340.114H578.726V336.365Z" fill="#F0F0F0"/>
<path d="M578.726 342.643H574.976V346.392H578.726V342.643Z" fill="#F0F0F0"/>
<path d="M578.726 348.937H574.976V352.686H578.726V348.937Z" fill="#F0F0F0"/>
<path d="M578.726 355.23H574.976V358.979H578.726V355.23Z" fill="#F0F0F0"/>
<path d="M578.726 361.524H574.976V365.273H578.726V361.524Z" fill="#F0F0F0"/>
<path d="M578.726 367.817H574.976V371.566H578.726V367.817Z" fill="#F0F0F0"/>
<path d="M578.726 386.697H574.976V390.446H578.726V386.697Z" fill="#F0F0F0"/>
<path d="M578.726 392.99H574.976V396.739H578.726V392.99Z" fill="#F0F0F0"/>
<path d="M578.726 399.269H574.976V403.018H578.726V399.269Z" fill="#F0F0F0"/>
<path d="M578.726 405.562H574.976V409.311H578.726V405.562Z" fill="#F0F0F0"/>
<path d="M578.726 411.856H574.976V415.605H578.726V411.856Z" fill="#F0F0F0"/>
<path d="M578.726 418.149H574.976V421.898H578.726V418.149Z" fill="#F0F0F0"/>
<path d="M578.726 424.442H574.976V428.191H578.726V424.442Z" fill="#F0F0F0"/>
<path d="M572.762 336.365H569.012V340.114H572.762V336.365Z" fill="#F0F0F0"/>
<path d="M572.762 342.643H569.012V346.392H572.762V342.643Z" fill="#F0F0F0"/>
<path d="M572.762 348.937H569.012V352.686H572.762V348.937Z" fill="#F0F0F0"/>
<path d="M572.762 355.23H569.012V358.979H572.762V355.23Z" fill="#F0F0F0"/>
<path d="M572.762 361.524H569.012V365.273H572.762V361.524Z" fill="#F0F0F0"/>
<path d="M572.762 367.817H569.012V371.566H572.762V367.817Z" fill="#F0F0F0"/>
<path d="M572.762 386.697H569.012V390.446H572.762V386.697Z" fill="#F0F0F0"/>
<path d="M572.762 392.99H569.012V396.739H572.762V392.99Z" fill="#F0F0F0"/>
<path d="M572.762 399.269H569.012V403.018H572.762V399.269Z" fill="#F0F0F0"/>
<path d="M572.762 405.562H569.012V409.311H572.762V405.562Z" fill="#F0F0F0"/>
<path d="M572.762 411.856H569.012V415.605H572.762V411.856Z" fill="#F0F0F0"/>
<path d="M572.762 418.149H569.012V421.898H572.762V418.149Z" fill="#F0F0F0"/>
<path d="M572.762 430.736H569.012V434.485H572.762V430.736Z" fill="#F0F0F0"/>
<path d="M374.678 308.647H370.928V312.396H374.678V308.647Z" fill="#F0F0F0"/>
<path d="M374.678 314.94H370.928V318.689H374.678V314.94Z" fill="#F0F0F0"/>
<path d="M374.678 321.234H370.928V324.983H374.678V321.234Z" fill="#F0F0F0"/>
<path d="M374.678 327.527H370.928V331.276H374.678V327.527Z" fill="#F0F0F0"/>
<path d="M374.678 333.821H370.928V337.569H374.678V333.821Z" fill="#F0F0F0"/>
<path d="M374.678 340.114H370.928V343.863H374.678V340.114Z" fill="#F0F0F0"/>
<path d="M374.678 346.407H370.928V350.156H374.678V346.407Z" fill="#F0F0F0"/>
<path d="M374.678 352.701H370.928V356.45H374.678V352.701Z" fill="#F0F0F0"/>
<path d="M374.678 358.979H370.928V362.728H374.678V358.979Z" fill="#F0F0F0"/>
<path d="M374.678 365.272H370.928V369.021H374.678V365.272Z" fill="#F0F0F0"/>
<path d="M374.678 371.566H370.928V375.315H374.678V371.566Z" fill="#F0F0F0"/>
<path d="M374.678 384.153H370.928V387.902H374.678V384.153Z" fill="#F0F0F0"/>
<path d="M374.678 390.446H370.928V394.195H374.678V390.446Z" fill="#F0F0F0"/>
<path d="M374.678 396.74H370.928V400.488H374.678V396.74Z" fill="#F0F0F0"/>
<path d="M374.678 403.033H370.928V406.782H374.678V403.033Z" fill="#F0F0F0"/>
<path d="M374.678 409.326H370.928V413.075H374.678V409.326Z" fill="#F0F0F0"/>
<path d="M374.678 415.62H370.928V419.369H374.678V415.62Z" fill="#F0F0F0"/>
<path d="M374.678 421.898H370.928V425.647H374.678V421.898Z" fill="#F0F0F0"/>
<path d="M374.678 428.191H370.928V431.94H374.678V428.191Z" fill="#F0F0F0"/>
<path d="M368.729 308.647H364.979V312.396H368.729V308.647Z" fill="#F0F0F0"/>
<path d="M368.729 314.94H364.979V318.689H368.729V314.94Z" fill="#F0F0F0"/>
<path d="M368.729 321.234H364.979V324.983H368.729V321.234Z" fill="#F0F0F0"/>
<path d="M368.729 327.527H364.979V331.276H368.729V327.527Z" fill="#F0F0F0"/>
<path d="M368.729 333.821H364.979V337.569H368.729V333.821Z" fill="#F0F0F0"/>
<path d="M368.729 340.114H364.979V343.863H368.729V340.114Z" fill="#F0F0F0"/>
<path d="M368.729 346.407H364.979V350.156H368.729V346.407Z" fill="#F0F0F0"/>
<path d="M368.729 352.701H364.979V356.45H368.729V352.701Z" fill="#F0F0F0"/>
<path d="M368.729 358.979H364.979V362.728H368.729V358.979Z" fill="#F0F0F0"/>
<path d="M368.729 365.272H364.979V369.021H368.729V365.272Z" fill="#F0F0F0"/>
<path d="M368.729 371.566H364.979V375.315H368.729V371.566Z" fill="#F0F0F0"/>
<path d="M368.729 377.859H364.979V381.608H368.729V377.859Z" fill="#F0F0F0"/>
<path d="M368.729 384.153H364.979V387.902H368.729V384.153Z" fill="#F0F0F0"/>
<path d="M368.729 390.446H364.979V394.195H368.729V390.446Z" fill="#F0F0F0"/>
<path d="M368.729 396.74H364.979V400.488H368.729V396.74Z" fill="#F0F0F0"/>
<path d="M368.729 403.033H364.979V406.782H368.729V403.033Z" fill="#F0F0F0"/>
<path d="M368.729 409.326H364.979V413.075H368.729V409.326Z" fill="#F0F0F0"/>
<path d="M368.729 415.62H364.979V419.369H368.729V415.62Z" fill="#F0F0F0"/>
<path d="M368.729 421.898H364.979V425.647H368.729V421.898Z" fill="#F0F0F0"/>
<path d="M368.729 428.191H364.979V431.94H368.729V428.191Z" fill="#F0F0F0"/>
<path d="M404.06 333.158H400.31V336.907H404.06V333.158Z" fill="#F0F0F0"/>
<path d="M404.06 339.452H400.31V343.201H404.06V339.452Z" fill="#F0F0F0"/>
<path d="M404.06 345.745H400.31V349.494H404.06V345.745Z" fill="#F0F0F0"/>
<path d="M404.06 352.038H400.31V355.787H404.06V352.038Z" fill="#F0F0F0"/>
<path d="M404.06 358.317H400.31V362.066H404.06V358.317Z" fill="#F0F0F0"/>
<path d="M404.06 364.61H400.31V368.359H404.06V364.61Z" fill="#F0F0F0"/>
<path d="M404.06 370.904H400.31V374.652H404.06V370.904Z" fill="#F0F0F0"/>
<path d="M404.06 377.197H400.31V380.946H404.06V377.197Z" fill="#F0F0F0"/>
<path d="M404.06 383.49H400.31V387.239H404.06V383.49Z" fill="#F0F0F0"/>
<path d="M404.06 389.784H400.31V393.533H404.06V389.784Z" fill="#F0F0F0"/>
<path d="M398.097 333.158H394.347V336.907H398.097V333.158Z" fill="#F0F0F0"/>
<path d="M398.097 339.452H394.347V343.201H398.097V339.452Z" fill="#F0F0F0"/>
<path d="M398.097 345.745H394.347V349.494H398.097V345.745Z" fill="#F0F0F0"/>
<path d="M398.097 352.038H394.347V355.787H398.097V352.038Z" fill="#F0F0F0"/>
<path d="M398.097 358.317H394.347V362.066H398.097V358.317Z" fill="#F0F0F0"/>
<path d="M398.097 364.61H394.347V368.359H398.097V364.61Z" fill="#F0F0F0"/>
<path d="M398.097 370.904H394.347V374.652H398.097V370.904Z" fill="#F0F0F0"/>
<path d="M398.097 377.197H394.347V380.946H398.097V377.197Z" fill="#F0F0F0"/>
<path d="M398.097 383.49H394.347V387.239H398.097V383.49Z" fill="#F0F0F0"/>
<path d="M433.563 94.3857H427.268V445.31H433.563V94.3857Z" fill="#E0E0E0"/>
<path d="M552.1 94.3857H545.805V445.31H552.1V94.3857Z" fill="#E0E0E0"/>
<path d="M670.622 94.3857H664.327V445.31H670.622V94.3857Z" fill="#E0E0E0"/>
<path d="M268.083 492.827H215.991V417.803C215.991 414.144 218.958 411.163 222.632 411.163H261.457C265.116 411.163 268.098 414.129 268.098 417.803V492.827H268.083Z" fill="#F0F0F0"/>
<path d="M268.083 422.199H215.991V428.056H268.083V422.199Z" fill="#263238"/>
<path d="M258.58 482.935H245.599C243.626 482.935 242.029 484.531 242.029 486.503V492.827H262.149V486.503C262.165 484.531 260.553 482.935 258.58 482.935Z" fill="#E0E0E0"/>
<path d="M262.225 492.827H247.783C246.503 492.827 245.463 491.788 245.463 490.508C245.463 489.228 246.503 488.189 247.783 488.189H262.225C263.505 488.189 264.544 489.228 264.544 490.508C264.544 491.788 263.505 492.827 262.225 492.827Z" fill="#263238"/>
<path d="M493.511 77.858C512.573 73.358 524.378 54.261 519.877 35.2035C515.375 16.1461 496.273 4.34496 477.211 8.84496C458.148 13.345 446.344 32.442 450.845 51.4995C455.346 70.5569 474.448 82.358 493.511 77.858Z" fill="#E0E0E0"/>
<path d="M490.222 73.1363C506.667 70.4682 517.835 54.9776 515.166 38.5371C512.497 22.0967 497.002 10.9321 480.557 13.6002C464.112 16.2684 452.945 31.759 455.614 48.1995C458.283 64.6399 473.777 75.8045 490.222 73.1363Z" fill="#F0F0F0"/>
<path d="M486.799 22.7043V43.7827L500.775 35.8783" fill="#F0F0F0"/>
<path d="M486.799 22.7043V43.7827L500.775 35.8783" stroke="#E0E0E0" stroke-width="2" stroke-miterlimit="10" stroke-linecap="round" stroke-linejoin="round"/>
<path d="M145.977 389.482C143.266 385.026 138.808 388.895 138.808 388.895C139.441 380.343 131.579 374.502 131.579 374.502C131.579 374.502 140.721 374.502 142.001 365.784C143.281 357.067 138.808 361.117 134.621 361.057C130.435 360.997 126.052 373.237 131.579 380.103C137.106 386.983 135.615 398.727 122.875 410.019C119.757 412.774 117.649 416.448 116.218 420.407C117.182 410.034 117.724 395.414 114.667 385.658C109.486 369.082 119.366 364.625 122.227 356.329C125.104 348.033 114.667 341.032 114.667 341.032C114.667 341.032 124.471 336.576 119.682 331.472C114.893 326.368 105.013 327.06 105.013 333.73C105.013 340.4 111.715 342.944 111.715 342.944C111.715 342.944 119.366 350.909 119.366 355.064C119.366 359.205 111.715 368.133 111.715 368.133C111.715 368.133 115.224 360.5 108.206 360.168C101.188 359.837 98.9594 369.082 101.836 373.237C104.712 377.377 109.486 373.869 109.486 373.869C109.486 373.869 110.044 382.798 111.685 388.218C112.408 390.597 112.062 399.946 111.459 409.672C110.044 406.164 108.056 402.942 105.254 400.458C92.4986 389.166 91.0227 377.423 96.5498 370.542C102.077 363.661 97.6943 351.436 93.5076 351.496C89.321 351.556 84.8481 347.491 86.1282 356.224C87.4083 364.956 96.5498 364.941 96.5498 364.941C96.5498 364.941 88.6734 370.798 89.321 379.335C89.321 379.335 84.8632 375.45 82.1524 379.922C77.3181 387.886 88.5228 392.825 90.4203 388.91C90.4203 388.91 114.2 405.743 108.462 429.968L109.803 431.94C109.637 433.897 109.516 435.072 109.516 435.072L111.384 434.274L113.507 437.39C113.402 443.443 114.049 447.915 114.049 447.915L119.742 439.528C114.004 415.303 137.784 398.471 137.784 398.471C139.606 402.385 150.811 397.447 145.977 389.482Z" fill="#E0E0E0"/>
<path opacity="0.2" d="M145.977 389.482C143.266 385.026 138.808 388.895 138.808 388.895C139.441 380.343 131.579 374.502 131.579 374.502C131.579 374.502 140.721 374.502 142.001 365.784C143.281 357.067 138.808 361.117 134.621 361.057C130.435 360.997 126.052 373.237 131.579 380.103C137.106 386.983 135.615 398.727 122.875 410.019C119.757 412.774 117.649 416.448 116.218 420.407C117.182 410.034 117.724 395.414 114.667 385.658C109.486 369.082 119.366 364.625 122.227 356.329C125.104 348.033 114.667 341.032 114.667 341.032C114.667 341.032 124.471 336.576 119.682 331.472C114.893 326.368 105.013 327.06 105.013 333.73C105.013 340.4 111.715 342.944 111.715 342.944C111.715 342.944 119.366 350.909 119.366 355.064C119.366 359.205 111.715 368.133 111.715 368.133C111.715 368.133 115.224 360.5 108.206 360.168C101.188 359.837 98.9594 369.082 101.836 373.237C104.712 377.377 109.486 373.869 109.486 373.869C109.486 373.869 110.044 382.798 111.685 388.218C112.408 390.597 112.062 399.946 111.459 409.672C110.044 406.164 108.056 402.942 105.254 400.458C92.4986 389.166 91.0227 377.423 96.5498 370.542C102.077 363.661 97.6943 351.436 93.5076 351.496C89.321 351.556 84.8481 347.491 86.1282 356.224C87.4083 364.956 96.5498 364.941 96.5498 364.941C96.5498 364.941 88.6734 370.798 89.321 379.335C89.321 379.335 84.8632 375.45 82.1524 379.922C77.3181 387.886 88.5228 392.825 90.4203 388.91C90.4203 388.91 114.2 405.743 108.462 429.968L109.803 431.94C109.637 433.897 109.516 435.072 109.516 435.072L111.384 434.274L113.507 437.39C113.402 443.443 114.049 447.915 114.049 447.915L119.742 439.528C114.004 415.303 137.784 398.471 137.784 398.471C139.606 402.385 150.811 397.447 145.977 389.482Z" fill="#004EFD"/>
<path d="M141.323 492.827H86.8514L80.9629 433.19H147.197L141.323 492.827Z" fill="#9FBDFF"/>
<path d="M150.103 426.61H78.0562V439.769H150.103V426.61Z" fill="#6695FF"/>
<path d="M376.5 561C537.766 561 668.498 553.369 668.498 543.956C668.498 534.544 537.766 526.913 376.5 526.913C215.234 526.913 84.5015 534.544 84.5015 543.956C84.5015 553.369 215.234 561 376.5 561Z" fill="#F5F5F5"/>
<path d="M618.138 496.485C618.364 494.95 623.635 458.59 613.078 446.033C610.744 443.247 607.792 441.802 604.313 441.712C583.003 441.215 580.081 458.334 580.051 458.499L582.566 458.891C582.657 458.273 585.187 443.79 604.253 444.256C607.009 444.316 609.268 445.446 611.135 447.674C620.969 459.357 615.683 495.748 615.623 496.109L618.138 496.485Z" fill="black"/>
<path d="M619.418 494.829L621.963 494.754C621.948 494.423 621.12 461.254 637.46 454.404C653.484 447.689 660.682 461.495 660.983 462.083L663.258 460.938C663.167 460.773 654.719 444.407 636.481 452.055C618.529 459.583 619.373 493.399 619.418 494.829Z" fill="black"/>
<path d="M619.343 497.434C619.343 496.907 619.493 444.452 629.719 429.11C639.538 414.385 655.381 421.311 656.059 421.612L657.113 419.293C656.932 419.203 638.649 411.148 627.61 427.695C616.963 443.669 616.797 495.236 616.797 497.434H619.343Z" fill="black"/>
<path d="M601.256 442.992C601.256 442.992 610.563 446.424 607.792 454.524C605.021 462.625 575.593 475.949 575.593 475.949C575.593 475.949 563.274 464.657 574.584 446.289C585.91 427.906 601 437.195 601.256 442.992Z" fill="#0075E2"/>
<path d="M630.186 426.355C630.186 426.355 623.574 425.647 624.117 421.627C624.644 417.607 649.794 407.249 664.643 423.991C664.643 423.991 655.14 440.312 641.405 440.522C627.671 440.733 630.186 426.355 630.186 426.355Z" fill="#4DA9ED"/>
<path d="M636.978 453.23C636.978 453.23 632.415 449.556 637.339 447.749C642.264 445.958 666.405 446.47 666.661 470.378C666.661 470.378 638.544 475.046 635.065 465.937C631.571 456.843 636.978 453.23 636.978 453.23Z" fill="#4DA9ED"/>
<path opacity="0.2" d="M601.256 442.992C601.256 442.992 610.563 446.424 607.792 454.524C605.021 462.625 575.593 475.949 575.593 475.949C575.593 475.949 563.274 464.657 574.584 446.289C585.91 427.906 601 437.195 601.256 442.992Z" fill="black"/>
<path opacity="0.2" d="M636.978 453.23C636.978 453.23 632.415 449.556 637.339 447.749C642.264 445.958 666.405 446.47 666.661 470.378C666.661 470.378 638.544 475.046 635.065 465.937C631.571 456.843 636.978 453.23 636.978 453.23Z" fill="black"/>
<path d="M596.256 545.206H639.9L644.598 497.434H591.557L596.256 545.206Z" fill="#407BFF"/>
<path opacity="0.5" d="M596.256 545.206H639.9L644.598 497.434H591.557L596.256 545.206Z" fill="white"/>
<path d="M589.223 502.712H646.933V492.173H589.223V502.712Z" fill="#407BFF"/>
<path opacity="0.2" d="M589.223 502.712H646.933V492.173H589.223V502.712Z" fill="white"/>
<path d="M546.859 510.969L503.471 506.708V445.747H486.272V506.693L442.704 510.969C438.382 511.391 435.083 515.034 435.083 519.37V525.89H493.185H496.378H554.479V519.37C554.479 515.019 551.196 511.391 546.859 510.969Z" fill="#263238"/>
<path opacity="0.2" d="M546.859 510.969L503.471 506.708V445.747H486.272V506.693L442.704 510.969C438.382 511.391 435.083 515.034 435.083 519.37V525.89H493.185H496.378H554.479V519.37C554.479 515.019 551.196 511.391 546.859 510.969Z" fill="white"/>
<path d="M439.677 545.206C445.89 545.206 450.926 540.171 450.926 533.96C450.926 527.748 445.89 522.713 439.677 522.713C433.463 522.713 428.427 527.748 428.427 533.96C428.427 540.171 433.463 545.206 439.677 545.206Z" fill="#263238"/>
<path d="M549.901 545.206C556.114 545.206 561.15 540.171 561.15 533.96C561.15 527.748 556.114 522.713 549.901 522.713C543.688 522.713 538.651 527.748 538.651 533.96C538.651 540.171 543.688 545.206 549.901 545.206Z" fill="#263238"/>
<path d="M500.202 458.845H489.525C486.091 458.845 483.305 456.06 483.305 452.627V404.554H506.422V452.627C506.437 456.06 503.651 458.845 500.202 458.845Z" fill="#263238"/>
<path opacity="0.3" d="M500.202 458.845H489.525C486.091 458.845 483.305 456.06 483.305 452.627V404.554H506.422V452.627C506.437 456.06 503.651 458.845 500.202 458.845Z" fill="white"/>
<path d="M535.985 309.25C535.985 309.25 539.268 390.552 516.618 404.539H542.461C542.461 404.539 562.491 376.836 556.828 309.25H535.985Z" fill="#263238"/>
<path opacity="0.3" d="M535.985 309.25C535.985 309.25 539.268 390.552 516.618 404.539H542.461C542.461 404.539 562.491 376.836 556.828 309.25H535.985Z" fill="white"/>
<path d="M442.96 393.171H543.741C547.898 393.171 551.271 396.544 551.271 400.699V410.772H435.43V400.699C435.43 396.544 438.803 393.171 442.96 393.171Z" fill="#263238"/>
<path d="M433.637 401.964H553.078C554.75 401.964 556.105 403.319 556.105 404.99V407.731C556.105 409.402 554.75 410.757 553.078 410.757H433.637C431.966 410.757 430.61 409.402 430.61 407.731V405.005C430.61 403.319 431.966 401.964 433.637 401.964Z" fill="#263238"/>
<path opacity="0.6" d="M433.637 401.964H553.078C554.75 401.964 556.105 403.319 556.105 404.99V407.731C556.105 409.402 554.75 410.757 553.078 410.757H433.637C431.966 410.757 430.61 409.402 430.61 407.731V405.005C430.61 403.319 431.966 401.964 433.637 401.964Z" fill="white"/>
<path d="M563.168 325.766H521.768C509.645 325.766 499.811 315.934 499.811 303.814V287.629C499.811 275.509 509.645 265.677 521.768 265.677H563.168C575.292 265.677 585.126 275.509 585.126 287.629V303.814C585.141 315.934 575.307 325.766 563.168 325.766Z" fill="#263238"/>
<path d="M396.154 199.236L387.886 177.45C387.886 177.45 391.425 174.167 389 170.84C386.575 167.513 371.32 158.148 368.534 159.804C365.747 161.445 359.588 167.648 362.916 171.096C366.259 174.544 381.033 180.28 381.033 180.28L388.337 208.871L396.154 199.236Z" fill="#E4897B"/>
<path d="M453.878 240.655C453.878 240.655 416.273 232.931 412.192 231.079C408.111 229.227 392.976 184.917 392.976 184.917L381.379 190.338C381.379 190.338 390.717 234.813 400.265 245.397C409.813 255.967 450.55 264.925 450.55 264.925L453.878 240.655Z" fill="#0075E2"/>
<path opacity="0.2" d="M450.55 264.895C450.55 264.895 450.309 264.85 449.857 264.729C447.794 264.262 441.378 262.757 433.743 260.514C421.349 256.915 405.716 251.405 400.265 245.367C390.732 234.783 381.379 190.308 381.379 190.308L392.976 184.887C392.976 184.887 408.111 229.212 412.207 231.049C416.288 232.886 453.878 240.61 453.878 240.61L450.55 264.895Z" fill="black"/>
<path d="M393.172 184.044L395.566 188.666L380.657 193.8L381.229 188.154L393.172 184.044Z" fill="#0075E2"/>
<path opacity="0.2" d="M450.836 264.292C448.743 263.991 442.222 262.982 434.436 261.341C438.879 253.678 451.891 249.733 451.891 249.733L450.836 264.292Z" fill="black"/>
<path d="M506.89 209.97C506.89 209.97 509.104 230.793 501.378 235.912C493.667 241.031 455.701 235.039 451.394 226.652C447.087 218.281 463.291 195.532 463.291 195.532L506.89 209.97Z" fill="#263238"/>
<path d="M353.292 483.959L363.202 486.353L368.217 472.682L372.765 460.246L361.485 455.443L357.148 470.529L353.292 483.959Z" fill="#E4897B"/>
<path opacity="0.2" d="M357.148 470.529L368.217 472.682L372.765 460.246L361.485 455.443L357.148 470.529Z" fill="black"/>
<path d="M358.142 463.317L371.877 468.421C371.877 468.421 408.518 376.836 416.048 376.52C423.578 376.203 500.248 411.434 519.465 391.892C538.681 372.364 510.896 325.284 510.896 325.284C510.896 325.284 464.677 318.69 461.198 329.123C460.52 331.141 459.782 335.101 459.24 338.488C458.713 341.68 458.351 344.36 458.351 344.36C458.351 344.36 458.336 344.36 458.321 344.345C456.89 343.984 410.491 332.014 392.208 344.36C373.639 356.917 358.142 463.317 358.142 463.317Z" fill="#407BFF"/>
<path opacity="0.6" d="M358.142 463.317L371.877 468.421C371.877 468.421 408.518 376.836 416.048 376.52C423.578 376.203 500.248 411.434 519.465 391.892C538.681 372.364 510.896 325.284 510.896 325.284C510.896 325.284 464.677 318.69 461.198 329.123C460.52 331.141 459.782 335.101 459.24 338.488C458.713 341.68 458.351 344.36 458.351 344.36C458.351 344.36 458.336 344.36 458.321 344.345C456.89 343.984 410.491 332.014 392.208 344.36C373.639 356.917 358.142 463.317 358.142 463.317Z" fill="white"/>
<path d="M437.147 523.029L447.011 520.499L445.113 506.347L443.351 493.369L431.153 494.468L434.315 509.584L437.147 523.029Z" fill="#E4897B"/>
<path opacity="0.2" d="M434.391 509.9L445.174 506.618L443.382 493.504L431.168 494.528L434.391 509.9Z" fill="black"/>
<path d="M377.554 463.332L357.54 456.542L356.696 464.732L371.862 470.092L377.554 463.332Z" fill="#407BFF"/>
<path d="M486.272 396.589C486.272 396.589 483.14 396.664 434.662 394.406C434.662 394.406 441.906 455.006 445.866 500.355L431.364 502.824C431.364 502.824 396.726 405.698 397.102 390.266C397.479 374.833 415.174 370.316 415.174 370.316C415.174 370.316 449.707 390.266 486.272 396.589Z" fill="#407BFF"/>
<path opacity="0.6" d="M486.272 396.589C486.272 396.589 483.14 396.664 434.662 394.406C434.662 394.406 441.906 455.006 445.866 500.355L431.364 502.824C431.364 502.824 396.726 405.698 397.102 390.266C397.479 374.833 415.174 370.316 415.174 370.316C415.174 370.316 449.707 390.266 486.272 396.589Z" fill="white"/>
<path opacity="0.1" d="M486.272 396.589C486.272 396.589 483.14 396.664 434.662 394.406C434.662 394.406 441.906 455.006 445.866 500.355L431.364 502.824C431.364 502.824 396.726 405.698 397.102 390.266C397.479 374.833 415.174 370.316 415.174 370.316C415.174 370.316 449.707 390.266 486.272 396.589Z" fill="black"/>
<path d="M447.975 495.958L428.051 498.217L431.906 506.031L448.035 503.968L447.975 495.958Z" fill="#407BFF"/>
<path opacity="0.1" d="M458.351 344.36L485.384 349.991C485.384 349.991 470.444 341.74 459.24 338.488C458.713 341.68 458.351 344.36 458.351 344.36Z" fill="black"/>
<path d="M509.781 318.087L510.896 325.284L461.198 329.108L459.873 320.617L509.781 318.087Z" fill="#263238"/>
<path opacity="0.2" d="M509.781 318.087L510.896 325.284L461.198 329.108L459.873 320.617L509.781 318.087Z" fill="black"/>
<path d="M494.082 330.135L496.539 329.882L495.252 317.376L492.795 317.628L494.082 330.135Z" fill="#407BFF"/>
<path d="M472.079 328.855L482.959 328.157L482.429 319.908L471.549 320.607L472.079 328.855Z" fill="white"/>
<path d="M463.631 331.469L466.087 331.216L464.801 318.711L462.344 318.964L463.631 331.469Z" fill="#407BFF"/>
<path opacity="0.6" d="M494.082 330.135L496.539 329.882L495.252 317.376L492.795 317.628L494.082 330.135Z" fill="white"/>
<path opacity="0.6" d="M463.631 331.469L466.087 331.216L464.801 318.711L462.344 318.964L463.631 331.469Z" fill="white"/>
<path d="M452.975 239.962C452.975 239.962 465.655 243.937 481.604 243.124C497.552 242.311 516.618 250.049 516.618 250.049L509.766 318.087L459.872 320.602C459.872 320.617 443.11 263.795 452.975 239.962Z" fill="#4DA9ED"/>
<path d="M461.002 201.539C461.002 201.539 463.803 168.491 491.438 180.506C526.121 195.577 498.547 235.822 481.604 227.556C464.647 219.29 461.002 201.539 461.002 201.539Z" fill="#263238"/>
<path opacity="0.2" d="M468.743 244.976L469.541 263.645L475.731 254.867C475.731 254.867 473.517 275.524 474.812 286.756C474.812 286.756 476.002 266.596 478.803 254.867L485.384 263.645L494.827 245.096C494.842 245.081 479.541 239.601 468.743 244.976Z" fill="black"/>
<path d="M477.297 248.438L491.589 244.403C482.778 238.351 487.221 224.801 487.221 224.801L473.065 229.769C473.818 232.118 474.3 234.105 474.586 235.822C476.062 244.644 472.071 245.352 472.071 245.352L477.297 248.438Z" fill="#E4897B"/>
<path opacity="0.2" d="M473.065 229.784C473.818 232.133 474.3 234.12 474.586 235.837C481.363 233.127 487.221 224.816 487.221 224.816L473.065 229.784Z" fill="black"/>
<path d="M482.311 187.447C469.782 184.676 464.255 190.488 460.474 203.195C455.761 219.079 456.8 231.335 473.23 231.35C495.549 231.38 503.124 192.054 482.311 187.447Z" fill="#E4897B"/>
<path d="M468.727 204.294C468.727 204.294 466.273 207.185 463.923 208.691C463.923 208.691 464.616 210.633 466.92 210.844L468.727 204.294Z" fill="#DE5753"/>
<path d="M476.634 204.957C476.378 205.98 476.724 206.944 477.417 207.11C478.095 207.275 478.863 206.583 479.104 205.559C479.36 204.535 479.014 203.571 478.321 203.406C477.643 203.24 476.89 203.933 476.634 204.957Z" fill="#263238"/>
<path d="M478.592 203.526L476.574 202.111C476.589 202.111 477.236 204.249 478.592 203.526Z" fill="#263238"/>
<path d="M463.953 201.614C463.697 202.638 464.044 203.602 464.736 203.767C465.414 203.933 466.182 203.24 466.423 202.217C466.679 201.193 466.333 200.229 465.64 200.064C464.962 199.898 464.209 200.59 463.953 201.614Z" fill="#263238"/>
<path d="M465.911 200.184L463.893 198.769C463.908 198.769 464.556 200.907 465.911 200.184Z" fill="#263238"/>
<path d="M478.667 196.33C478.667 196.33 482.296 196.646 483.682 199.431" stroke="#263238" stroke-width="0.7247" stroke-miterlimit="10" stroke-linecap="round" stroke-linejoin="round"/>
<path d="M469.677 193.785C469.677 193.785 467.643 192.475 464.451 193.71" stroke="#263238" stroke-width="0.7247" stroke-miterlimit="10" stroke-linecap="round" stroke-linejoin="round"/>
<path d="M491.333 211.596C491.333 211.596 487.749 200.003 490.399 192.249C490.399 192.249 467.809 176.606 461.002 201.539C461.002 201.539 463.532 178.624 485.188 182.885C506.815 187.146 499.781 218.643 486.574 225.568C486.559 225.583 493.532 218.838 491.333 211.596Z" fill="#263238"/>
<path d="M488.697 213.779C489.224 211.777 492.071 208.826 495.73 210.061C499.525 211.34 499.601 219.727 489.526 219.501C488.065 219.486 487.583 217.95 488.697 213.779Z" fill="#E4897B"/>
<path d="M464.676 215.586C465.113 217.242 465.324 220.239 465.324 220.239C465.595 220.269 465.881 220.299 466.152 220.314C469.887 220.63 471.739 219.546 472.643 218.236C473.14 217.528 473.336 216.73 473.426 216.083C473.532 215.33 473.426 214.773 473.426 214.773C471.348 215.782 467.824 215.767 465.956 215.662C465.173 215.646 464.676 215.586 464.676 215.586Z" fill="#263238"/>
<path d="M465.957 215.677L466.182 217.047C469.706 217.333 472.237 217.077 473.426 216.098C473.532 215.345 473.426 214.788 473.426 214.788C471.348 215.797 467.839 215.767 465.957 215.677Z" fill="white"/>
<path d="M466.152 220.314C469.887 220.63 471.74 219.546 472.643 218.236C471.363 218.176 469.812 218.251 468.411 218.703C467.357 219.064 466.649 219.681 466.152 220.314Z" fill="#DE5753"/>
<path d="M482.357 188.44C482.357 188.44 482.839 210.181 495.881 212.786C508.923 215.39 494.661 184.857 494.661 184.857C494.661 184.857 475.233 172.18 462.297 181.108C449.345 190.051 460.987 201.539 460.987 201.539C460.987 201.539 463.728 185.399 482.357 188.44Z" fill="#263238"/>
<path d="M482.808 187.01C482.808 187.01 478.155 200.756 487.342 207.968" stroke="#263238" stroke-width="0.5" stroke-miterlimit="10" stroke-linecap="round" stroke-linejoin="round"/>
<path d="M499.691 217.258C498.035 221.684 493.773 224.168 490.173 222.813C486.574 221.458 485.008 216.791 486.664 212.364C488.321 207.938 492.583 205.454 496.182 206.809C499.782 208.164 501.348 212.846 499.691 217.258Z" fill="#407BFF"/>
<path opacity="0.4" d="M499.691 217.258C498.035 221.684 493.773 224.168 490.173 222.813C486.574 221.458 485.008 216.791 486.664 212.364C488.321 207.938 492.583 205.454 496.182 206.809C499.782 208.164 501.348 212.846 499.691 217.258Z" fill="black"/>
<path d="M495.535 210.016C495.535 210.016 500.941 185.821 488.818 179.482C488.818 179.482 491.348 179.828 492.914 180.28C494.48 180.732 504.164 190.548 499.27 212.289L495.535 210.016Z" fill="#407BFF"/>
<path opacity="0.2" d="M495.535 210.016C495.535 210.016 500.941 185.821 488.818 179.482C488.818 179.482 491.348 179.828 492.914 180.28C494.48 180.732 504.164 190.548 499.27 212.289L495.535 210.016Z" fill="black"/>
<path d="M472.809 223.867C472.508 223.822 472.206 223.777 471.905 223.732L472.146 222.241C483.065 224.018 491.182 218.251 491.257 218.191L492.146 219.411C491.815 219.652 483.908 225.328 472.809 223.867Z" fill="#407BFF"/>
<g opacity="0.2">
<path d="M472.809 223.867C472.508 223.822 472.206 223.777 471.905 223.732L472.146 222.241C483.065 224.018 491.182 218.251 491.257 218.191L492.146 219.411C491.815 219.652 483.908 225.328 472.809 223.867Z" fill="black"/>
</g>
<path d="M499.179 216.655C498.079 219.576 495.263 221.217 492.884 220.329C490.504 219.441 489.465 216.339 490.564 213.418C491.664 210.497 494.48 208.856 496.86 209.745C499.239 210.648 500.278 213.734 499.179 216.655Z" fill="#407BFF"/>
<path d="M471.469 224.349L470.264 224.183C469.36 224.063 468.728 223.25 468.848 222.346C468.969 221.443 469.782 220.811 470.686 220.931L471.89 221.097C472.794 221.217 473.426 222.03 473.306 222.934C473.185 223.837 472.357 224.469 471.469 224.349Z" fill="#407BFF"/>
<path opacity="0.4" d="M471.469 224.349L470.264 224.183C469.36 224.063 468.728 223.25 468.848 222.346C468.969 221.443 469.782 220.811 470.686 220.931L471.89 221.097C472.794 221.217 473.426 222.03 473.306 222.934C473.185 223.837 472.357 224.469 471.469 224.349Z" fill="black"/>
<path d="M487.748 239.239L478.803 248.017L482.387 258.782L494.842 245.081L487.748 239.239Z" fill="#0075E2"/>
<path d="M474.812 241.076L476.258 247.836L471.634 257.397L468.743 244.975L474.812 241.076Z" fill="#0075E2"/>
<path d="M485.836 246.858L491.032 227.842C491.032 227.842 488.517 223.099 489.059 222.121C489.601 221.127 492.312 208.36 494.239 206.974C496.167 205.589 504.089 207.953 504.902 209.248C505.7 210.543 497.312 227.842 497.312 227.842L494.254 248.438L485.836 246.858Z" fill="#E4897B"/>
<path d="M516.618 250.05C530.91 264.684 502.251 297.837 485.836 296.422C469.42 295.007 486.242 234.903 486.242 234.903L496.754 236.635C496.754 236.635 493.065 262.651 494.224 264.684C495.399 266.717 511.814 245.126 516.618 250.05Z" fill="#0075E2"/>
<path opacity="0.2" d="M516.618 250.05C530.91 264.684 502.251 297.837 485.836 296.422C469.42 295.007 486.242 234.903 486.242 234.903L496.754 236.635C496.754 236.635 493.065 262.651 494.224 264.684C495.399 266.717 511.814 245.126 516.618 250.05Z" fill="black"/>
<path d="M485.384 232.976L483.833 237.945L498.486 239.239V234.903L485.384 232.976Z" fill="#0075E2"/>
<path opacity="0.6" d="M463.185 285.868H457.252C456.589 285.868 456.062 285.341 456.062 284.678V273.477C456.062 272.814 456.589 272.287 457.252 272.287H463.185C463.848 272.287 464.375 272.814 464.375 273.477V284.678C464.375 285.341 463.833 285.868 463.185 285.868Z" fill="white"/>
<path opacity="0.2" d="M463.291 273.175H456.544V282.405H463.291V273.175Z" fill="black"/>
<path d="M460.821 269.005H459.33V274.44H460.821V269.005Z" fill="#263238"/>
<path d="M336.907 503.2C338.413 502.508 340.04 502.101 341.681 501.981C341.681 501.981 347.404 498.608 353.067 485.54L359.437 485.51C361.651 485.54 363.594 486.94 364.332 489.018C364.437 489.304 364.497 489.605 364.512 489.906C364.452 491.442 364.287 492.977 364.015 494.498C363.443 499.271 360.296 509.494 360.296 509.494L359.211 509.223L361.169 499.707C361.817 496.47 358.428 499.602 356.847 502.854C355.266 506.106 352.856 509.388 345.808 507.777C337.63 505.85 334.332 504.676 336.907 503.2Z" fill="#407BFF"/>
<path d="M354.227 482.107C354.227 482.107 346.26 498.759 341.682 501.981C341.682 501.981 347.826 505.639 354.227 497.494C362.495 486.955 364.528 489.891 364.528 489.891C364.528 489.891 364.181 486.277 363.534 484.516C362.284 481.113 354.227 482.107 354.227 482.107Z" fill="#E4897B"/>
<path d="M424.587 542.873C425.882 541.849 427.358 541.066 428.939 540.554C428.939 540.554 433.698 535.932 436.108 521.885L442.297 520.334C444.451 519.837 446.68 520.725 447.884 522.577C448.05 522.833 448.186 523.104 448.276 523.39C448.577 524.896 448.788 526.432 448.893 527.967C449.466 532.74 448.833 543.415 448.833 543.415L447.719 543.4L447.372 533.689C447.237 530.391 444.677 534.231 443.924 537.769C443.171 541.307 441.604 545.071 434.376 545.176C425.927 545.282 422.433 544.905 424.587 542.873Z" fill="#407BFF"/>
<path d="M436.409 518.287C436.409 518.287 432.629 536.354 428.939 540.554C428.939 540.554 435.776 542.662 440.053 533.222C445.595 521.012 448.261 523.406 448.261 523.406C448.261 523.406 447.071 519.988 446.017 518.422C443.999 515.396 436.409 518.287 436.409 518.287Z" fill="#E4897B"/>
<path d="M576.436 191.617H523.847C519.63 191.617 516.211 188.2 516.211 183.984V161.49C516.211 157.275 519.63 153.857 523.847 153.857H576.436C580.653 153.857 584.072 157.275 584.072 161.49V183.984C584.072 188.2 580.653 191.617 576.436 191.617Z" fill="url(#paint0_linear_606_2826)"/>
<path d="M534.404 187.311L518.561 208.841L544.117 188.757L534.404 187.311Z" fill="url(#paint1_linear_606_2826)"/>
<path d="M534.991 172.737C534.991 173.957 533.998 174.965 532.763 174.965C531.543 174.965 530.534 173.972 530.534 172.737C530.534 171.518 531.528 170.509 532.763 170.509C533.998 170.524 534.991 171.518 534.991 172.737Z" fill="white"/>
<path d="M546.572 172.737C546.572 173.957 545.579 174.965 544.344 174.965C543.109 174.965 542.115 173.972 542.115 172.737C542.115 171.518 543.109 170.509 544.344 170.509C545.579 170.509 546.572 171.518 546.572 172.737Z" fill="white"/>
<path d="M558.154 172.737C558.154 173.957 557.16 174.965 555.925 174.965C554.705 174.965 553.696 173.972 553.696 172.737C553.696 171.518 554.69 170.509 555.925 170.509C557.16 170.524 558.154 171.518 558.154 172.737Z" fill="white"/>
<path d="M569.735 172.737C569.735 173.957 568.741 174.965 567.506 174.965C566.286 174.965 565.277 173.972 565.277 172.737C565.277 171.518 566.271 170.509 567.506 170.509C568.741 170.524 569.735 171.518 569.735 172.737Z" fill="white"/>
<path d="M365.1 161.927L327.6 141.737C326.591 141.195 326.2 139.93 326.757 138.906L338.715 116.714C339.257 115.705 340.522 115.314 341.546 115.871L379.045 136.061C380.054 136.603 380.446 137.867 379.889 138.891L367.931 161.084C367.374 162.092 366.109 162.469 365.1 161.927Z" fill="#407BFF"/>
<path opacity="0.7" d="M365.1 161.927L327.6 141.737C326.591 141.195 326.2 139.93 326.757 138.906L338.715 116.714C339.257 115.705 340.522 115.314 341.546 115.871L379.045 136.061C380.054 136.603 380.446 137.867 379.889 138.891L367.931 161.084C367.374 162.092 366.109 162.469 365.1 161.927Z" fill="white"/>
<path opacity="0.2" d="M337.721 118.551L349.452 140.457C350.371 142.158 352.223 143.152 354.136 142.956L378.548 140.547L353.684 144.206C351.455 144.537 349.272 143.363 348.323 141.315L337.721 118.551Z" fill="black"/>
<path d="M309.242 114.47C309.634 106.099 315.838 89.2216 323.383 84.0574C330.929 78.8932 325.959 86.0448 325.959 86.0448C325.959 86.0448 333.112 79.0889 336.877 79.2997C340.657 79.4954 336.877 83.8617 336.877 83.8617C336.877 83.8617 344.618 79.0889 348.202 79.2847C351.772 79.4804 348.202 83.6509 348.202 83.6509C348.202 83.6509 354.558 79.0889 357.133 81.2721C359.708 83.4552 324.167 106.882 320.191 116.413C316.245 125.943 308.836 122.947 309.242 114.47Z" fill="#407BFF"/>
<path opacity="0.4" d="M309.242 114.47C309.634 106.099 315.838 89.2216 323.383 84.0574C330.929 78.8932 325.959 86.0448 325.959 86.0448C325.959 86.0448 333.112 79.0889 336.877 79.2997C340.657 79.4954 336.877 83.8617 336.877 83.8617C336.877 83.8617 344.618 79.0889 348.202 79.2847C351.772 79.4804 348.202 83.6509 348.202 83.6509C348.202 83.6509 354.558 79.0889 357.133 81.2721C359.708 83.4552 324.167 106.882 320.191 116.413C316.245 125.943 308.836 122.947 309.242 114.47Z" fill="white"/>
<path d="M339.784 113.236L344.528 116.277C344.874 116.503 344.694 117.03 344.287 117L339.302 116.608L339.724 120.433C339.769 120.854 339.257 121.08 338.971 120.764L336.094 117.512L339.784 113.236Z" fill="#407BFF"/>
<path opacity="0.3" d="M339.784 113.236L344.528 116.277C344.874 116.503 344.694 117.03 344.287 117L339.302 116.608L339.724 120.433C339.769 120.854 339.257 121.08 338.971 120.764L336.094 117.512L339.784 113.236Z" fill="white"/>
<path d="M273.143 94.3858C273.143 94.3858 279.694 89.8238 289.634 92.7898C289.634 92.7898 292.495 105.889 300.296 110.255C304.588 112.649 315.085 112.453 323.398 109.758C333.263 106.566 338.097 106.566 339.889 110.255C341.576 113.748 339.693 117.798 332.148 119.589C324.603 121.381 318.639 134.48 304.935 134.675C291.23 134.871 284.016 121.14 287.465 109.065C287.45 109.065 283.278 100.062 273.143 94.3858Z" fill="#407BFF"/>
<path opacity="0.5" d="M273.143 94.3858C273.143 94.3858 279.694 89.8238 289.634 92.7898C289.634 92.7898 292.495 105.889 300.296 110.255C304.588 112.649 315.085 112.453 323.398 109.758C333.263 106.566 338.097 106.566 339.889 110.255C341.576 113.748 339.693 117.798 332.148 119.589C324.603 121.381 318.639 134.48 304.935 134.675C291.23 134.871 284.016 121.14 287.465 109.065C287.45 109.065 283.278 100.062 273.143 94.3858Z" fill="white"/>
<path d="M336.109 112.739C336.109 113.115 335.808 113.402 335.446 113.402C335.07 113.402 334.769 113.1 334.769 112.739C334.769 112.363 335.07 112.062 335.446 112.062C335.808 112.077 336.109 112.378 336.109 112.739Z" fill="#263238"/>
<path d="M301.742 123.775C293.655 125.988 275.673 125.296 268.43 119.71C261.186 114.124 269.529 116.638 269.529 116.638C269.529 116.638 260.704 111.986 259.74 108.343C258.761 104.699 264.077 106.927 264.077 106.927C264.077 106.927 257.15 101.04 256.231 97.5776C255.327 94.1147 260.387 96.2225 260.387 96.2225C260.387 96.2225 254.077 91.5853 255.357 88.4537C256.638 85.322 289.905 111.896 300.191 112.739C310.507 113.567 309.935 121.532 301.742 123.775Z" fill="#407BFF"/>
<path opacity="0.4" d="M301.742 123.775C293.655 125.988 275.673 125.296 268.43 119.71C261.186 114.124 269.529 116.638 269.529 116.638C269.529 116.638 260.704 111.986 259.74 108.343C258.761 104.699 264.077 106.927 264.077 106.927C264.077 106.927 257.15 101.04 256.231 97.5776C255.327 94.1147 260.387 96.2225 260.387 96.2225C260.387 96.2225 254.077 91.5853 255.357 88.4537C256.638 85.322 289.905 111.896 300.191 112.739C310.507 113.567 309.935 121.532 301.742 123.775Z" fill="white"/>
<path d="M248.731 86.5869C247.315 86.09 245.885 85.6083 244.439 85.1716" stroke="#407BFF" stroke-width="0.75" stroke-linecap="round" stroke-linejoin="round"/>
<path d="M235.644 82.9283C230.373 81.8292 224.997 81.1065 219.665 80.7301C205.027 79.7063 182.06 78.261 173.1 92.8502C164.922 106.145 178.988 128.819 183.973 141.165C190.087 156.281 197.361 174.965 190.133 190.97C175.283 223.852 111.745 206.779 90.3149 176.486" stroke="#407BFF" stroke-width="0.75" stroke-linecap="round" stroke-linejoin="round" stroke-dasharray="6.03 6.03"/>
<path d="M87.8902 172.677C87.1372 171.352 86.4595 169.997 85.8872 168.627" stroke="#407BFF" stroke-width="0.75" stroke-linecap="round" stroke-linejoin="round"/>
<path d="M270.794 292.221H213.626V303.935H270.794V292.221Z" fill="white"/>
<path opacity="0.1" d="M270.794 292.221H213.626V303.935H270.794V292.221Z" fill="black"/>
<path opacity="0.1" d="M237.707 292.221H213.626V303.935H237.707V292.221Z" fill="black"/>
<path opacity="0.1" d="M213.626 293.907H264.514L213.626 295.353V293.907Z" fill="black"/>
<path opacity="0.1" d="M270.794 295.94L226.683 297.039H270.794V295.94Z" fill="black"/>
<path opacity="0.1" d="M215.96 299.222L237.707 298.319L269.679 299.222L237.707 299.719L215.96 299.222Z" fill="black"/>
<path opacity="0.1" d="M213.626 301.707H251.306L213.626 302.595V301.707Z" fill="black"/>
<path opacity="0.1" d="M270.703 302.595L245.553 303.061H270.794L270.703 302.595Z" fill="black"/>
<path d="M262.842 280.492H205.674V292.206H262.842V280.492Z" fill="white"/>
<path opacity="0.1" d="M262.842 280.492H205.674V292.206H262.842V280.492Z" fill="black"/>
<path opacity="0.1" d="M229.755 280.492H205.674V292.206H229.755V280.492Z" fill="black"/>
<path opacity="0.1" d="M205.674 282.194H256.562L205.674 283.624V282.194Z" fill="black"/>
<path opacity="0.1" d="M262.842 284.226L218.731 285.31H262.842V284.226Z" fill="black"/>
<path opacity="0.1" d="M207.994 287.494L229.74 286.605L261.713 287.494L229.74 287.99L207.994 287.494Z" fill="black"/>
<path opacity="0.1" d="M205.674 289.978H243.354L205.674 290.866V289.978Z" fill="black"/>
<path opacity="0.1" d="M262.752 290.866L237.586 291.333H262.842L262.752 290.866Z" fill="black"/>
<path d="M269.363 268.779H212.195V280.493H269.363V268.779Z" fill="white"/>
<path opacity="0.1" d="M269.363 268.779H212.195V280.493H269.363V268.779Z" fill="black"/>
<path opacity="0.1" d="M236.276 268.779H212.195V280.493H236.276V268.779Z" fill="black"/>
<path opacity="0.1" d="M212.195 270.465H263.083L212.195 271.911V270.465Z" fill="black"/>
<path opacity="0.1" d="M269.363 272.498L225.252 273.597H269.363V272.498Z" fill="black"/>
<path opacity="0.1" d="M214.53 275.78L236.276 274.877L268.249 275.78L236.276 276.277L214.53 275.78Z" fill="black"/>
<path opacity="0.1" d="M212.195 278.264H249.875L212.195 279.153V278.264Z" fill="black"/>
<path opacity="0.1" d="M269.288 279.153L244.123 279.619H269.363L269.288 279.153Z" fill="black"/>
<path d="M307.45 303.694L308.926 298.078H369.994L398.126 300.893L399.195 303.694H307.45Z" fill="#263238"/>
<path opacity="0.4" d="M369.994 298.078V303.694H307.45L308.926 298.078H369.994Z" fill="black"/>
<path d="M357.735 271.203C358.006 274.169 355.838 276.578 352.886 276.578H259.333C256.366 276.578 253.746 274.169 253.475 271.203L247.918 211.325C247.858 210.708 247.903 210.121 248.038 209.579C248.565 207.471 250.418 205.95 252.767 205.95H346.32C349.287 205.95 351.907 208.359 352.178 211.325L357.735 271.203Z" fill="#263238"/>
<path opacity="0.4" d="M352.555 276.578H259.333C256.366 276.578 253.746 274.169 253.475 271.203L247.918 211.325C247.858 210.708 247.903 210.121 248.038 209.579H341.26C344.211 209.579 346.832 211.988 347.118 214.954L352.675 274.831C352.735 275.449 352.69 276.036 352.555 276.578Z" fill="black"/>
<path d="M288.279 239.841H307.631L302.48 295.247L333.082 299.839V303.694H268.625V299.839L281.833 295.247L288.279 239.841Z" fill="#263238"/>
<path opacity="0.1" d="M307.631 239.841L293.294 302.82L281.833 302.474L288.279 239.841H307.631Z" fill="white"/>
<path d="M307.54 545.206H298.323L281.742 314.474H293.986L307.54 545.206Z" fill="#263238"/>
<path opacity="0.4" d="M307.555 545.206H298.323L282.555 325.931L281.742 314.85H293.986L294.649 325.931L307.555 545.206Z" fill="white"/>
<path opacity="0.2" d="M294.649 325.389H282.555L281.742 314.85H293.986L294.649 325.389Z" fill="black"/>
<path d="M375.25 545.206H366.033L364.527 314.474H376.756L375.25 545.206Z" fill="#263238"/>
<path opacity="0.5" d="M376.771 314.85L376.53 352.068L375.265 545.206H366.033L364.768 352.068L364.527 314.85H376.771Z" fill="white"/>
<path opacity="0.2" d="M376.771 314.85L376.53 352.49H364.768L364.527 314.85H376.771Z" fill="black"/>
<path d="M473.2 545.206H463.983L447.402 314.474H459.646L473.2 545.206Z" fill="#263238"/>
<path opacity="0.5" d="M473.215 545.206H463.983L448.216 325.931L447.402 314.85H459.646L460.309 325.931L473.215 545.206Z" fill="white"/>
<path opacity="0.2" d="M460.309 325.389H448.216L447.402 314.85H459.646L460.309 325.389Z" fill="black"/>
<path d="M202 545.206H192.783L206.337 314.474H218.581L202 545.206Z" fill="#263238"/>
<path opacity="0.5" d="M218.581 314.85L217.768 325.931L202 545.206H192.783L205.675 325.931L206.337 314.85H218.581Z" fill="white"/>
<path opacity="0.2" d="M206.337 314.85H218.581L217.768 325.389H205.675L206.337 314.85Z" fill="black"/>
<path d="M466.092 320.255H199.891C198.099 320.255 196.638 318.795 196.638 317.003V308.707H469.345V317.003C469.345 318.795 467.884 320.255 466.092 320.255Z" fill="#407BFF"/>
<path opacity="0.6" d="M466.092 320.255H199.891C198.099 320.255 196.638 318.795 196.638 317.003V308.707H469.345V317.003C469.345 318.795 467.884 320.255 466.092 320.255Z" fill="white"/>
<path opacity="0.2" d="M469.345 308.692H196.638V314.474H469.345V308.692Z" fill="black"/>
<path d="M475.068 310.213H190.916C189.123 310.213 187.663 308.752 187.663 306.961C187.663 305.169 189.123 303.709 190.916 303.709H475.068C476.86 303.709 478.321 305.169 478.321 306.961C478.321 308.752 476.86 310.213 475.068 310.213Z" fill="#407BFF"/>
<path opacity="0.6" d="M475.068 310.213H190.916C189.123 310.213 187.663 308.752 187.663 306.961C187.663 305.169 189.123 303.709 190.916 303.709H475.068C476.86 303.709 478.321 305.169 478.321 306.961C478.321 308.752 476.86 310.213 475.068 310.213Z" fill="white"/>
<path d="M407.84 293.667L411.334 288.427C412.027 287.388 413.201 286.756 414.466 286.756H418.894C419.27 286.756 419.632 286.816 419.978 286.921L435.776 291.709C436.68 291.98 437.433 292.583 437.915 293.38L440.174 297.19L407.84 293.667Z" fill="#407BFF"/>
<path opacity="0.2" d="M440.189 297.19L417.192 294.69L407.84 293.667L411.334 288.427C412.027 287.388 413.201 286.756 414.466 286.756H418.894C419.27 286.756 419.632 286.816 419.993 286.921L420.34 287.027L435.776 291.709C436.68 291.98 437.448 292.567 437.93 293.38L440.189 297.19Z" fill="black"/>
<path opacity="0.2" d="M440.189 297.19L417.192 294.69L420.34 287.027L435.776 291.709C436.68 291.98 437.448 292.567 437.93 293.38L440.189 297.19Z" fill="black"/>
<path d="M451.122 303.197V303.694H431.077H402.298L404.105 296.633C404.813 293.983 407.222 292.131 409.963 292.131H431.62C432.343 292.131 433.05 292.251 433.728 292.507L436.439 293.516L447.192 297.521C449.556 298.409 451.122 300.668 451.122 303.197Z" fill="#407BFF"/>
<path opacity="0.2" d="M451.122 303.197V303.694H431.078L432.147 296.06C432.433 294.043 434.526 292.808 436.439 293.516L447.192 297.521C449.556 298.409 451.122 300.668 451.122 303.197Z" fill="black"/>
<path d="M434.195 298.5L440.565 279.363C440.836 278.535 441.785 278.159 442.568 278.55C443.156 278.852 443.457 279.529 443.291 280.176L437.915 300.607C437.915 300.607 434.345 302.053 434.195 298.5Z" fill="#263238"/>
<path opacity="0.2" d="M407.84 302.113H405.009L405.551 299.328H408.382L407.84 302.113Z" fill="black"/>
<path opacity="0.2" d="M412.057 301.992H409.226L409.768 299.222H412.599L412.057 301.992Z" fill="black"/>
</g>
<defs>
<linearGradient id="paint0_linear_606_2826" x1="550.142" y1="153.857" x2="550.142" y2="191.617" gradientUnits="userSpaceOnUse">
<stop stop-color="#407BFF"/>
<stop offset="1" stop-color="#407BFF"/>
</linearGradient>
<linearGradient id="paint1_linear_606_2826" x1="531.339" y1="187.311" x2="531.339" y2="208.841" gradientUnits="userSpaceOnUse">
<stop stop-color="#407BFF"/>
<stop offset="1" stop-color="#407BFF"/>
</linearGradient>
<clipPath id="clip0_606_2826">
<rect width="753" height="561" fill="white"/>
</clipPath>
</defs>
</svg>
