<svg width="107" height="37" viewBox="0 0 107 37" fill="none" xmlns="http://www.w3.org/2000/svg">
<path d="M99.4939 2.56234C101.381 2.56234 102.662 2.91851 103.409 3.65133C104.156 4.38375 104.519 5.64226 104.519 7.49862V29.6381C104.519 31.4892 104.157 32.7406 103.413 33.4641C102.669 34.1882 101.387 34.5402 99.4943 34.5402H7.43613C5.55552 34.5402 4.28796 34.1913 3.56118 33.4735C2.83441 32.7559 2.48116 31.5032 2.48116 29.644V7.49862C2.48116 5.37024 2.71552 4.19793 3.26479 3.57856C3.8797 2.8853 5.20712 2.56234 7.44244 2.56234H99.4939ZM99.4939 1.12744H7.44244C1.94833 1.12744 1.03381 3.01342 1.03381 7.49862V29.6439C1.03381 34.1257 2.91557 35.9751 7.43613 35.9751H99.4942C104.018 35.9751 105.966 34.1231 105.966 29.6381V7.49862C105.966 3.01342 104.018 1.12744 99.4939 1.12744Z" fill="white"/>
<path d="M52.5876 21.1147C50.6496 21.1147 49.1155 22.5557 49.1155 24.557C49.1155 26.4783 50.6496 27.9994 52.5876 27.9994C54.5256 27.9994 56.0599 26.5584 56.0599 24.557C56.0599 22.4756 54.5256 21.1147 52.5876 21.1147ZM52.5876 26.5584C51.5379 26.5584 50.6496 25.6778 50.6496 24.477C50.6496 23.276 51.5379 22.3954 52.5876 22.3954C53.6374 22.3954 54.5256 23.1961 54.5256 24.477C54.5256 25.6778 53.6374 26.5584 52.5876 26.5584ZM45.078 21.1147C43.14 21.1147 41.6057 22.5557 41.6057 24.557C41.6057 26.4783 43.14 27.9994 45.078 27.9994C47.016 27.9994 48.5502 26.5584 48.5502 24.557C48.5502 22.4756 47.016 21.1147 45.078 21.1147ZM45.078 26.5584C44.0282 26.5584 43.14 25.6778 43.14 24.477C43.14 23.276 44.0282 22.3954 45.078 22.3954C46.1277 22.3954 47.016 23.1961 47.016 24.477C47.016 25.6778 46.1277 26.5584 45.078 26.5584ZM36.1147 22.1554V23.5963H39.587C39.5062 24.397 39.1833 25.0375 38.7795 25.4377C38.295 25.9181 37.4875 26.4783 36.1147 26.4783C33.9345 26.4783 32.3196 24.7973 32.3196 22.6357C32.3196 20.4742 34.0152 18.7931 36.1147 18.7931C37.2453 18.7931 38.1334 19.2735 38.7795 19.8337L39.8292 18.7931C38.941 17.9924 37.8105 17.3521 36.1954 17.3521C33.2886 17.3521 30.7853 19.7538 30.7853 22.6357C30.7853 25.5177 33.2885 27.9195 36.1954 27.9195C37.8105 27.9195 38.941 27.439 39.91 26.3983C40.8789 25.4377 41.202 24.0768 41.202 23.036C41.202 22.7157 41.202 22.3955 41.1213 22.1554H36.1147ZM72.7751 23.2762C72.4521 22.4756 71.6445 21.1147 69.8681 21.1147C68.0915 21.1147 66.6381 22.4756 66.6381 24.557C66.6381 26.4783 68.0916 27.9994 70.0296 27.9994C71.564 27.9994 72.533 27.0388 72.8558 26.4783L71.7253 25.6778C71.3215 26.2382 70.8371 26.6384 70.0296 26.6384C69.2221 26.6384 68.7376 26.3182 68.3339 25.5977L72.9366 23.6764L72.7751 23.2762ZM68.0916 24.3969C68.0916 23.1161 69.1413 22.3955 69.8682 22.3955C70.4334 22.3955 70.9987 22.7157 71.1602 23.1161L68.0916 24.3969ZM64.2963 27.6792H65.8307V17.6722H64.2963V27.6792ZM61.8739 21.8351C61.4701 21.4349 60.8242 21.0345 60.0166 21.0345C58.3209 21.0345 56.7058 22.5556 56.7058 24.477C56.7058 26.3982 58.2401 27.8393 60.0166 27.8393C60.8242 27.8393 61.4701 27.439 61.7932 27.0387H61.8739V27.5191C61.8739 28.8 61.1471 29.5204 60.0166 29.5204C59.1284 29.5204 58.4824 28.8801 58.3209 28.3195L57.0289 28.8801C57.4326 29.7607 58.4016 30.8813 60.0975 30.8813C61.874 30.8813 63.3273 29.8407 63.3273 27.3589V21.2748H61.8739V21.8351ZM60.0974 26.5584C59.0476 26.5584 58.1594 25.6778 58.1594 24.477C58.1594 23.276 59.0476 22.3954 60.0974 22.3954C61.147 22.3954 61.9546 23.276 61.9546 24.477C61.9546 25.6778 61.1471 26.5584 60.0974 26.5584ZM79.8003 17.6722H76.1665V27.6792H77.7008V23.9166H79.8003C81.4959 23.9166 83.1109 22.7157 83.1109 20.7944C83.1109 18.873 81.496 17.6722 79.8003 17.6722ZM79.881 22.4756H77.7008V19.0332H79.881C81.0116 19.0332 81.6576 19.9939 81.6576 20.7142C81.5768 21.595 80.9308 22.4756 79.881 22.4756ZM89.1673 21.0346C88.0367 21.0346 86.9062 21.515 86.5026 22.5557L87.8752 23.1162C88.1983 22.5557 88.6828 22.3956 89.248 22.3956C90.0554 22.3956 90.7822 22.8761 90.8629 23.6765V23.7565C90.6207 23.5963 89.9747 23.3563 89.3288 23.3563C87.8751 23.3563 86.4218 24.157 86.4218 25.5978C86.4218 26.9588 87.633 27.8395 88.9249 27.8395C89.9747 27.8395 90.4592 27.359 90.8629 26.8788H90.9437V27.6793H92.3972V23.8367C92.2359 22.0753 90.8629 21.0346 89.1673 21.0346ZM89.0057 26.5584C88.5211 26.5584 87.7944 26.3182 87.7944 25.6778C87.7944 24.8772 88.6827 24.6371 89.4094 24.6371C90.0554 24.6371 90.3784 24.7973 90.7821 24.9573C90.6207 25.918 89.8132 26.5584 89.0057 26.5584ZM97.4844 21.2748L95.7887 25.5977H95.708L93.9315 21.2748H92.3165L94.9813 27.3589L93.447 30.7214H94.9813L99.0995 21.2748H97.4844ZM83.9185 27.6792H85.4528V17.6722H83.9185V27.6792Z" fill="white"/>
<path d="M33.6015 11.7281H36.1174C36.1318 11.785 36.1436 11.8536 36.1533 11.9342C36.1627 12.0148 36.1675 12.0953 36.1675 12.1758C36.1675 12.5027 36.1174 12.8107 36.017 13.0996C35.9167 13.3886 35.759 13.6468 35.5439 13.8741C35.3146 14.1158 35.0397 14.303 34.7197 14.4355C34.3995 14.5681 34.0339 14.6345 33.623 14.6345C33.2503 14.6345 32.899 14.5681 32.5693 14.4355C32.2397 14.303 31.9529 14.1182 31.7092 13.8813C31.4654 13.6444 31.272 13.3637 31.1286 13.0392C30.9852 12.7147 30.9136 12.3606 30.9136 11.9768C30.9136 11.5931 30.9852 11.239 31.1286 10.9145C31.272 10.59 31.4654 10.3093 31.7092 10.0723C31.9529 9.83555 32.2397 9.65076 32.5693 9.51813C32.899 9.38551 33.2503 9.31909 33.623 9.31909C34.0387 9.31909 34.4103 9.39012 34.7376 9.53228C35.0649 9.67444 35.3457 9.87102 35.5798 10.1221L34.9132 10.7688C34.7458 10.5936 34.5595 10.4596 34.3541 10.3673C34.1486 10.2748 33.9025 10.2287 33.6159 10.2287C33.3817 10.2287 33.1594 10.2702 32.9492 10.353C32.7389 10.436 32.555 10.5532 32.3973 10.7048C32.2397 10.8565 32.1141 11.0401 32.021 11.2555C31.9279 11.4711 31.8812 11.7116 31.8812 11.9768C31.8812 12.2422 31.9279 12.4825 32.021 12.6981C32.1141 12.9137 32.2407 13.0972 32.4009 13.2488C32.561 13.4005 32.7461 13.5177 32.9564 13.6006C33.1666 13.6836 33.3911 13.725 33.6301 13.725C33.9025 13.725 34.1331 13.6859 34.3219 13.6077C34.5105 13.5295 34.6719 13.429 34.8057 13.3057C34.9012 13.2204 34.9836 13.1127 35.053 12.9823C35.1221 12.8521 35.1759 12.7064 35.2143 12.5453H33.6015V11.7281Z" fill="white"/>
<path d="M37.938 10.3424V11.522H39.9951V12.4316H37.938V13.6113H40.2245V14.5208H36.9703V9.43274H40.2245V10.3424H37.938Z" fill="white"/>
<path d="M42.2028 14.5208V10.3424H40.7692V9.43274H44.604V10.3424H43.1704V14.5208H42.2028Z" fill="white"/>
<path d="M47.8365 9.43274H46.8689V14.5208H47.8365V9.43274Z" fill="white"/>
<path d="M49.9581 14.5208V10.3424H48.5245V9.43274H52.3594V10.3424H50.9258V14.5208H49.9581Z" fill="white"/>
<path d="M56.9108 14.6346C56.5285 14.6346 56.1737 14.5658 55.8464 14.4285C55.5189 14.2911 55.236 14.1029 54.997 13.8635C54.758 13.6243 54.5705 13.3425 54.4344 13.0179C54.2982 12.6935 54.23 12.3463 54.23 11.9768C54.23 11.6073 54.2981 11.2603 54.4344 10.9358C54.5706 10.6113 54.7581 10.3295 54.997 10.0901C55.236 9.85093 55.5189 9.66265 55.8464 9.5252C56.1737 9.38786 56.5285 9.31909 56.9108 9.31909C57.293 9.31909 57.6479 9.38786 57.9753 9.5252C58.3025 9.66265 58.5856 9.85093 58.8247 10.0901C59.0636 10.3295 59.2511 10.6113 59.3873 10.9358C59.5234 11.2603 59.5917 11.6073 59.5917 11.9768C59.5917 12.3463 59.5235 12.6935 59.3873 13.0179C59.2511 13.3425 59.0635 13.6243 58.8247 13.8635C58.5856 14.1029 58.3025 14.2911 57.9753 14.4285C57.6479 14.5658 57.293 14.6346 56.9108 14.6346ZM56.9108 13.725C57.1498 13.725 57.3732 13.6823 57.5809 13.5971C57.7888 13.5118 57.9704 13.3934 58.1257 13.2417C58.281 13.0901 58.4029 12.9067 58.4913 12.691C58.5797 12.4755 58.6239 12.2374 58.6239 11.9768C58.6239 11.7163 58.5797 11.4783 58.4913 11.2627C58.4029 11.0471 58.281 10.8637 58.1257 10.712C57.9704 10.5604 57.7888 10.4419 57.5809 10.3566C57.3731 10.2714 57.1497 10.2287 56.9108 10.2287C56.6719 10.2287 56.4485 10.2714 56.2407 10.3566C56.0328 10.4419 55.8511 10.5604 55.6958 10.712C55.5404 10.8637 55.4187 11.0471 55.3304 11.2627C55.2419 11.4783 55.1977 11.7163 55.1977 11.9768C55.1977 12.2374 55.2419 12.4755 55.3304 12.691C55.4187 12.9067 55.5404 13.0901 55.6958 13.2417C55.8511 13.3934 56.0328 13.5118 56.2407 13.5971C56.4486 13.6823 56.6719 13.725 56.9108 13.725Z" fill="white"/>
<path d="M60.3728 9.43274H61.4981L63.5624 12.8437H63.6198L63.5624 11.8631V9.43274H64.523V14.5208H63.5051L61.3261 10.918H61.2687L61.3261 11.8986V14.5208H60.3728V9.43274Z" fill="white"/>
<path fill-rule="evenodd" clip-rule="evenodd" d="M23.4405 15.4828L10.88 8.31836L20.8015 18.1038L23.4405 15.4828Z" fill="white"/>
<path fill-rule="evenodd" clip-rule="evenodd" d="M9.71458 8.39148C9.66671 8.47778 9.6145 8.5775 9.6145 8.68738V28.9611C9.6145 29.0247 9.64789 29.0846 9.66506 29.141L20.1721 18.7057L9.71458 8.39148Z" fill="white"/>
<path fill-rule="evenodd" clip-rule="evenodd" d="M20.8036 19.3051L10.5024 29.5359C10.5325 29.5244 10.5624 29.511 10.5917 29.4944L23.6073 22.0701L20.8036 19.3051Z" fill="white"/>
<path fill-rule="evenodd" clip-rule="evenodd" d="M28.3632 18.2907L24.2101 15.9218L21.4094 18.7033L24.3777 21.6308L28.3632 19.3575C28.7782 19.121 28.7782 18.5273 28.3632 18.2907Z" fill="white"/>
</svg>
