<svg width="15" height="13" viewBox="0 0 15 13" fill="none" xmlns="http://www.w3.org/2000/svg">
<path d="M1.91408 1.21944C2.24948 0.883889 2.6477 0.617704 3.086 0.436095C3.5243 0.254485 3.99408 0.161011 4.46852 0.161011C4.94295 0.161011 5.41273 0.254485 5.85103 0.436095C6.28933 0.617704 6.68755 0.883889 7.02295 1.21944L7.71902 1.91551L8.41508 1.21944C9.09256 0.541965 10.0114 0.161362 10.9695 0.161362C11.9276 0.161362 12.8465 0.541965 13.524 1.21944C14.2014 1.89692 14.582 2.81578 14.582 3.77388C14.582 4.73197 14.2014 5.65083 13.524 6.32831L12.8279 7.02438L7.71902 12.1332L2.61015 7.02438L1.91408 6.32831C1.57853 5.99291 1.31235 5.59469 1.13074 5.15639C0.949126 4.71809 0.855651 4.24831 0.855651 3.77388C0.855651 3.29944 0.949126 2.82966 1.13074 2.39136C1.31235 1.95306 1.57853 1.55484 1.91408 1.21944Z" fill="#0A2830"/>
</svg>
