<svg width="16" height="16" viewBox="0 0 16 16" fill="none" xmlns="http://www.w3.org/2000/svg">
<path fill-rule="evenodd" clip-rule="evenodd" d="M4.84119 1.84924C3.18871 1.84924 1.84912 3.18884 1.84912 4.84131V11.8254C1.84912 13.4779 3.18871 14.8175 4.84119 14.8175H11.8253C13.4778 14.8175 14.8174 13.4779 14.8174 11.8254V4.84131C14.8174 3.18884 13.4778 1.84924 11.8253 1.84924H4.84119ZM0.849121 4.84131C0.849121 2.63655 2.63643 0.849243 4.84119 0.849243H11.8253C14.0301 0.849243 15.8174 2.63655 15.8174 4.84131V11.8254C15.8174 14.0302 14.0301 15.8175 11.8253 15.8175H4.84119C2.63643 15.8175 0.849121 14.0302 0.849121 11.8254V4.84131ZM8.6999 6.03418C8.22268 5.96342 7.7353 6.04493 7.30708 6.26712C6.87885 6.48932 6.53159 6.84089 6.31469 7.27182C6.0978 7.70275 6.0223 8.1911 6.09894 8.66741C6.17559 9.14372 6.40047 9.58374 6.74161 9.92488C7.08274 10.266 7.52276 10.4909 7.99907 10.5675C8.47538 10.6442 8.96373 10.5687 9.39467 10.3518C9.8256 10.1349 10.1772 9.78763 10.3994 9.35941C10.6216 8.93118 10.7031 8.4438 10.6323 7.96658C10.5601 7.4798 10.3333 7.02914 9.98532 6.68117C9.63735 6.33319 9.18669 6.10636 8.6999 6.03418ZM6.84651 5.3795C7.46143 5.06043 8.16131 4.94338 8.84659 5.045C9.5456 5.14865 10.1927 5.47438 10.6924 5.97406C11.1921 6.47374 11.5178 7.12088 11.6215 7.8199C11.7231 8.50518 11.6061 9.20506 11.287 9.81998C10.9679 10.4349 10.4631 10.9336 9.84426 11.245C9.22544 11.5565 8.52418 11.6649 7.8402 11.5548C7.15622 11.4448 6.52437 11.1219 6.0345 10.632C5.54463 10.1421 5.2217 9.51026 5.11164 8.82628C5.00158 8.14231 5.10999 7.44104 5.42146 6.82223C5.73292 6.20342 6.23158 5.69857 6.84651 5.3795ZM12.1745 3.9921C11.8984 3.9921 11.6745 4.21596 11.6745 4.4921C11.6745 4.76824 11.8984 4.9921 12.1745 4.9921H12.1812C12.4573 4.9921 12.6812 4.76824 12.6812 4.4921C12.6812 4.21596 12.4573 3.9921 12.1812 3.9921H12.1745Z" fill="white"/>
</svg>
