<svg width="20" height="20" viewBox="0 0 20 20" fill="none" xmlns="http://www.w3.org/2000/svg">
<path fill-rule="evenodd" clip-rule="evenodd" d="M0.986405 0.248936C0.00936311 0.731976 0 0.808625 0 8.27948C0 15.5776 0.00358923 15.6108 0.844866 16.1635C1.17164 16.3781 1.69394 16.4212 3.96263 16.4212H6.68776L6.78935 17.3207C6.93214 18.5851 7.12658 19.1335 7.58538 19.5659L7.98346 19.9408L13.1895 19.9859C19.0806 20.0368 19.3352 19.9992 19.7462 19.0129C20.0831 18.2046 20.0853 5.20104 19.7485 4.54843C19.2709 3.62255 19.163 3.60316 14.2547 3.55764L9.7648 3.51618L9.59751 2.343C9.2698 0.0443321 9.16977 -0.00447259 4.8064 0.000220155C2.10826 0.0030358 1.38918 0.0499633 0.986405 0.248936ZM8.22597 1.44355C8.35409 1.61093 9.99638 14.2835 9.98967 15.0525C9.98748 15.3064 9.68318 15.3263 5.80513 15.3263C2.7604 15.3263 1.57207 15.2753 1.43568 15.1386C1.29586 14.9984 1.24842 13.2428 1.24842 8.20377C1.24842 4.49274 1.29523 1.40961 1.3525 1.35236C1.40962 1.29495 2.94595 1.24802 4.76645 1.24802C7.23067 1.24802 8.11471 1.29792 8.22597 1.44355ZM4.57825 4.21181C4.39271 4.29127 4.20389 4.48398 4.15863 4.6401C3.88195 5.59617 2.95641 10.6983 3.02647 10.8813C3.12947 11.1502 3.83779 11.1758 3.99774 10.9163C4.0611 10.8139 4.19093 10.3387 4.28644 9.86047L4.46028 8.99106H5.30577H6.15126L6.3251 9.86047C6.4206 10.3387 6.55044 10.8139 6.6138 10.9163C6.77375 11.1758 7.48207 11.1502 7.58506 10.8813C7.6943 10.5961 6.48864 4.5611 6.28094 4.3529C6.05825 4.12968 4.97915 4.04036 4.57825 4.21181ZM18.539 4.87708C18.8174 5.15614 18.8082 18.5894 18.5295 18.6968C18.4213 18.7384 16.25 18.7537 13.7045 18.7309L9.0763 18.6894L10.1513 17.438C10.9584 16.4985 11.2272 16.0696 11.2297 15.7173C11.2315 15.4592 10.9534 13.0307 10.6115 10.3207C10.2696 7.61061 9.98936 5.23483 9.98873 5.04133L9.98733 4.68937H14.1695C17.2143 4.68937 18.4026 4.74037 18.539 4.87708ZM5.65158 6.48826L5.88441 7.66145H5.30577H4.72713L4.95996 6.48826C5.08808 5.84301 5.24366 5.31507 5.30577 5.31507C5.36788 5.31507 5.52346 5.84301 5.65158 6.48826ZM14.2113 7.95459C14.1196 8.12618 14.0447 8.37678 14.0447 8.51146C14.0447 8.70355 13.8629 8.75642 13.2037 8.75642C12.1334 8.75642 11.5628 9.13841 11.8447 9.66634C11.945 9.85421 12.1223 10.0078 12.2387 10.0078C12.3551 10.0078 12.5666 10.2991 12.7087 10.6553C12.8509 11.0113 13.1702 11.5985 13.4183 11.96L13.8696 12.6173L13.0989 13.2066C12.3273 13.7963 12.1644 14.1611 12.5154 14.5129C12.8131 14.8113 13.0291 14.7411 13.8746 14.0713L14.6689 13.4418L15.4632 14.0713C16.3087 14.7411 16.5247 14.8113 16.8224 14.5129C17.1734 14.1611 17.0104 13.7963 16.2389 13.2066L15.4682 12.6173L15.9195 11.96C16.1676 11.5985 16.4869 11.0113 16.6291 10.6553C16.7712 10.2991 16.9827 10.0078 17.0991 10.0078C17.2155 10.0078 17.3928 9.85421 17.4931 9.66634C17.7712 9.14545 17.2038 8.75642 16.1664 8.75642C15.3886 8.75642 15.3519 8.73702 15.2084 8.24804C15.0283 7.63501 14.4696 7.47061 14.2113 7.95459ZM15.4364 10.438C15.3524 10.6747 15.1453 11.0441 14.9763 11.2592L14.6689 11.6503L14.3615 11.2592C14.1925 11.0441 13.9854 10.6747 13.9014 10.438L13.7488 10.0078H14.6689H15.589L15.4364 10.438ZM9.36312 16.499C9.36312 16.6445 8.23502 17.8291 8.0966 17.8291C8.02076 17.8291 7.95865 17.5123 7.95865 17.1252V16.4212H8.66089C9.04712 16.4212 9.36312 16.4563 9.36312 16.499Z" fill="#D39B2D"/>
</svg>
