<svg width="25" height="25" viewBox="0 0 25 25" fill="none" xmlns="http://www.w3.org/2000/svg">
<g opacity="0.3">
<path d="M12.1441 12.4786C14.8834 12.4786 17.1041 10.2579 17.1041 7.51859C17.1041 4.77926 14.8834 2.55859 12.1441 2.55859C9.40475 2.55859 7.18408 4.77926 7.18408 7.51859C7.18408 10.2579 9.40475 12.4786 12.1441 12.4786Z" fill="url(#paint0_linear_117_44374)"/>
</g>
<path d="M19.8443 22.558C20.0078 22.5672 20.1713 22.5412 20.3238 22.4816C20.4763 22.422 20.6142 22.3302 20.7281 22.2126C20.8419 22.0949 20.9291 21.9541 20.9837 21.7997C21.0383 21.6454 21.0589 21.481 21.0443 21.318C20.4043 17.558 16.6643 14.668 12.1443 14.668C7.6243 14.668 3.8843 17.558 3.2443 21.318C3.22968 21.481 3.25035 21.6454 3.30492 21.7997C3.35949 21.9541 3.44668 22.0949 3.56054 22.2126C3.6744 22.3302 3.81228 22.422 3.96478 22.4816C4.11728 22.5412 4.28083 22.5672 4.4443 22.558H19.8443Z" fill="url(#paint1_linear_117_44374)"/>
<defs>
<linearGradient id="paint0_linear_117_44374" x1="12.1441" y1="2.55859" x2="12.1441" y2="12.4786" gradientUnits="userSpaceOnUse">
<stop stop-color="#003847"/>
<stop offset="1" stop-color="#0D6976"/>
</linearGradient>
<linearGradient id="paint1_linear_117_44374" x1="12.1443" y1="14.668" x2="12.1443" y2="22.5598" gradientUnits="userSpaceOnUse">
<stop stop-color="#003847"/>
<stop offset="1" stop-color="#0D6976"/>
</linearGradient>
</defs>
</svg>
