<svg width="20" height="21" viewBox="0 0 20 21" fill="none" xmlns="http://www.w3.org/2000/svg">
<path d="M15.5045 9.09836C15.5058 8.9964 15.4868 8.8952 15.4487 8.80062C15.4106 8.70604 15.3541 8.61997 15.2825 8.54741C15.2109 8.47485 15.1255 8.41723 15.0314 8.37791C14.9374 8.33859 14.8364 8.31835 14.7345 8.31836H5.59445C5.38758 8.31836 5.18919 8.40054 5.04291 8.54682C4.89663 8.69309 4.81445 8.89149 4.81445 9.09836C4.81445 9.30523 4.89663 9.50362 5.04291 9.6499C5.18919 9.79618 5.38758 9.87836 5.59445 9.87836H14.7345C14.8364 9.87837 14.9374 9.85812 15.0314 9.8188C15.1255 9.77948 15.2109 9.72187 15.2825 9.64931C15.3541 9.57674 15.4106 9.49068 15.4487 9.3961C15.4868 9.30152 15.5058 9.20032 15.5045 9.09836Z" fill="url(#paint0_linear_117_44387)"/>
<path d="M12.2843 13.9773C12.2856 13.8761 12.267 13.7758 12.2295 13.6818C12.192 13.5879 12.1364 13.5023 12.0658 13.4298C11.9952 13.3574 11.9111 13.2996 11.8182 13.2597C11.7253 13.2198 11.6254 13.1986 11.5243 13.1973H5.64426C5.43739 13.1973 5.23899 13.2794 5.09271 13.4257C4.94644 13.572 4.86426 13.7704 4.86426 13.9773C4.86426 14.1841 4.94644 14.3825 5.09271 14.5288C5.23899 14.6751 5.43739 14.7573 5.64426 14.7573H11.5243C11.6254 14.756 11.7253 14.7347 11.8182 14.6948C11.9111 14.6549 11.9952 14.5971 12.0658 14.5247C12.1364 14.4523 12.192 14.3666 12.2295 14.2727C12.267 14.1788 12.2856 14.0784 12.2843 13.9773Z" fill="url(#paint1_linear_117_44387)"/>
<path opacity="0.3" d="M13.8744 2.24805H6.42436C3.40888 2.24805 0.964355 4.69257 0.964355 7.70805V15.098C0.964355 18.1135 3.40888 20.558 6.42436 20.558H13.8744C16.8898 20.558 19.3344 18.1135 19.3344 15.098V7.70805C19.3344 4.69257 16.8898 2.24805 13.8744 2.24805Z" fill="url(#paint2_linear_117_44387)"/>
<path d="M6.49414 3.9882C6.29523 3.9882 6.10446 3.90919 5.96381 3.76853C5.82316 3.62788 5.74414 3.43712 5.74414 3.2382V1.4082C5.74414 1.20929 5.82316 1.01853 5.96381 0.877873C6.10446 0.737221 6.29523 0.658203 6.49414 0.658203C6.69305 0.658203 6.88382 0.737221 7.02447 0.877873C7.16512 1.01853 7.24414 1.20929 7.24414 1.4082V3.2382C7.24414 3.43712 7.16512 3.62788 7.02447 3.76853C6.88382 3.90919 6.69305 3.9882 6.49414 3.9882Z" fill="url(#paint3_linear_117_44387)"/>
<path d="M13.7945 3.9882C13.6956 3.98955 13.5975 3.97107 13.5059 3.93385C13.4143 3.89664 13.3311 3.84144 13.2612 3.77153C13.1913 3.70162 13.1361 3.6184 13.0989 3.5268C13.0616 3.4352 13.0432 3.33707 13.0445 3.2382V1.4082C13.0445 1.20929 13.1235 1.01853 13.2642 0.877873C13.4048 0.737221 13.5956 0.658203 13.7945 0.658203C13.9934 0.658203 14.1842 0.737221 14.3248 0.877873C14.4655 1.01853 14.5445 1.20929 14.5445 1.4082V3.2382C14.5445 3.43712 14.4655 3.62788 14.3248 3.76853C14.1842 3.90919 13.9934 3.9882 13.7945 3.9882Z" fill="url(#paint4_linear_117_44387)"/>
<defs>
<linearGradient id="paint0_linear_117_44387" x1="10.1595" y1="8.31836" x2="10.1595" y2="9.87836" gradientUnits="userSpaceOnUse">
<stop stop-color="#003847"/>
<stop offset="1" stop-color="#0D6976"/>
</linearGradient>
<linearGradient id="paint1_linear_117_44387" x1="8.57429" y1="13.1973" x2="8.57429" y2="14.7573" gradientUnits="userSpaceOnUse">
<stop stop-color="#003847"/>
<stop offset="1" stop-color="#0D6976"/>
</linearGradient>
<linearGradient id="paint2_linear_117_44387" x1="10.1494" y1="2.24805" x2="10.1494" y2="20.558" gradientUnits="userSpaceOnUse">
<stop stop-color="#003847"/>
<stop offset="1" stop-color="#0D6976"/>
</linearGradient>
<linearGradient id="paint3_linear_117_44387" x1="6.49414" y1="0.658203" x2="6.49414" y2="3.9882" gradientUnits="userSpaceOnUse">
<stop stop-color="#003847"/>
<stop offset="1" stop-color="#0D6976"/>
</linearGradient>
<linearGradient id="paint4_linear_117_44387" x1="13.7945" y1="0.658203" x2="13.7945" y2="3.98827" gradientUnits="userSpaceOnUse">
<stop stop-color="#003847"/>
<stop offset="1" stop-color="#0D6976"/>
</linearGradient>
</defs>
</svg>
