<svg width="20" height="21" viewBox="0 0 20 21" fill="none" xmlns="http://www.w3.org/2000/svg">
<path d="M16.6445 9.55859H18.6445C18.9097 9.55859 19.1641 9.66395 19.3516 9.85149C19.5392 10.039 19.6445 10.2934 19.6445 10.5586V12.5586C19.6445 12.8238 19.5392 13.0782 19.3516 13.2657C19.1641 13.4532 18.9097 13.5586 18.6445 13.5586H16.6445V9.55859Z" fill="url(#paint0_linear_117_44381)"/>
<path d="M19.6445 4.55859V6.55859C19.6445 6.82381 19.5392 7.07816 19.3516 7.2657C19.1641 7.45324 18.9097 7.55859 18.6445 7.55859H16.6445V3.55859H18.6445C18.9097 3.55859 19.1641 3.66395 19.3516 3.85149C19.5392 4.03902 19.6445 4.29338 19.6445 4.55859Z" fill="url(#paint1_linear_117_44381)"/>
<path opacity="0.3" d="M13.7645 20.5586H3.52453C2.76071 20.5586 2.02817 20.2552 1.48806 19.7151C0.947959 19.175 0.644531 18.4424 0.644531 17.6786V3.43859C0.644531 2.67477 0.947959 1.94223 1.48806 1.40213C2.02817 0.862022 2.76071 0.558594 3.52453 0.558594H13.7645C14.5284 0.558594 15.2609 0.862022 15.801 1.40213C16.3411 1.94223 16.6445 2.67477 16.6445 3.43859V17.6786C16.6445 18.4424 16.3411 19.175 15.801 19.7151C15.2609 20.2552 14.5284 20.5586 13.7645 20.5586ZM8.64453 5.55859C8.24897 5.55859 7.86229 5.67589 7.53339 5.89565C7.20449 6.11542 6.94815 6.42777 6.79677 6.79323C6.6454 7.15868 6.60579 7.56081 6.68296 7.94877C6.76013 8.33674 6.95061 8.6931 7.23032 8.97281C7.51002 9.25251 7.86639 9.44299 8.25435 9.52016C8.64231 9.59733 9.04445 9.55773 9.4099 9.40635C9.77535 9.25498 10.0877 8.99863 10.3075 8.66973C10.5272 8.34084 10.6445 7.95416 10.6445 7.55859C10.6445 7.02816 10.4338 6.51945 10.0587 6.14438C9.68367 5.76931 9.17496 5.55859 8.64453 5.55859ZM11.9145 14.5586C12.0801 14.5686 12.2455 14.5372 12.3959 14.4674C12.5463 14.3976 12.677 14.2914 12.7762 14.1585C12.8754 14.0256 12.94 13.8701 12.9641 13.706C12.9883 13.5419 12.9712 13.3744 12.9145 13.2186C12.5475 12.4012 11.9454 11.7117 11.1849 11.2379C10.4244 10.7642 9.53999 10.5277 8.64453 10.5586C7.75547 10.5342 6.87895 10.7726 6.12474 11.2439C5.37054 11.7153 4.77215 12.3987 4.40453 13.2086C4.14453 13.8586 4.67453 14.5586 5.93453 14.5586H11.9145Z" fill="url(#paint2_linear_117_44381)"/>
<defs>
<linearGradient id="paint0_linear_117_44381" x1="18.1445" y1="9.55859" x2="18.1445" y2="13.5586" gradientUnits="userSpaceOnUse">
<stop stop-color="#003847"/>
<stop offset="1" stop-color="#0D6976"/>
</linearGradient>
<linearGradient id="paint1_linear_117_44381" x1="19.6445" y1="5.55859" x2="16.6445" y2="5.55859" gradientUnits="userSpaceOnUse">
<stop stop-color="#003847"/>
<stop offset="1" stop-color="#0D6976"/>
</linearGradient>
<linearGradient id="paint2_linear_117_44381" x1="8.64453" y1="0.558594" x2="8.64453" y2="20.5586" gradientUnits="userSpaceOnUse">
<stop stop-color="#003847"/>
<stop offset="1" stop-color="#0D6976"/>
</linearGradient>
</defs>
</svg>
