<svg width="21" height="18" viewBox="0 0 21 18" fill="none" xmlns="http://www.w3.org/2000/svg">
<g opacity="0.3">
<path d="M15.8845 0.0585938H4.40453C2.0518 0.0585938 0.144531 1.96586 0.144531 4.31859V12.7986C0.144531 15.1513 2.0518 17.0586 4.40453 17.0586H15.8845C18.2373 17.0586 20.1445 15.1513 20.1445 12.7986V4.31859C20.1445 1.96586 18.2373 0.0585938 15.8845 0.0585938Z" fill="url(#paint0_linear_117_44395)"/>
</g>
<path d="M10.1447 9.55808C9.34853 9.55497 8.57807 9.27576 7.96472 8.76808L4.56472 5.95808C4.41222 5.82547 4.31865 5.63772 4.30458 5.43612C4.29052 5.23451 4.35712 5.03558 4.48972 4.88308C4.62233 4.73058 4.81009 4.63701 5.01169 4.62294C5.21329 4.60888 5.41222 4.67547 5.56472 4.80808L8.94472 7.61808C9.28904 7.90792 9.72466 8.06685 10.1747 8.06685C10.6248 8.06685 11.0604 7.90792 11.4047 7.61808L14.6947 4.82808C14.841 4.71339 15.0251 4.65794 15.2104 4.67277C15.3956 4.68759 15.5685 4.77159 15.6947 4.90808C15.8226 5.06016 15.8858 5.25627 15.8709 5.4544C15.8559 5.65253 15.764 5.83692 15.6147 5.96808L12.3247 8.75808C11.7149 9.27308 10.9429 9.55638 10.1447 9.55808Z" fill="url(#paint1_linear_117_44395)"/>
<defs>
<linearGradient id="paint0_linear_117_44395" x1="10.1445" y1="0.0585937" x2="10.1445" y2="17.0586" gradientUnits="userSpaceOnUse">
<stop stop-color="#003847"/>
<stop offset="1" stop-color="#0D6976"/>
</linearGradient>
<linearGradient id="paint1_linear_117_44395" x1="10.0879" y1="4.62109" x2="10.0879" y2="9.55808" gradientUnits="userSpaceOnUse">
<stop stop-color="#003847"/>
<stop offset="1" stop-color="#0D6976"/>
</linearGradient>
</defs>
</svg>
