<svg width="26" height="26" viewBox="0 0 26 26" fill="none" xmlns="http://www.w3.org/2000/svg">
<g clip-path="url(#clip0_120_12673)">
<path d="M22.0643 10.5068C22.0643 17.8614 12.6083 24.1654 12.6083 24.1654C12.6083 24.1654 3.15234 17.8614 3.15234 10.5068C3.15234 7.99889 4.1486 5.59372 5.92194 3.82038C7.69529 2.04704 10.1005 1.05078 12.6083 1.05078C15.1162 1.05078 17.5214 2.04704 19.2947 3.82038C21.0681 5.59372 22.0643 7.99889 22.0643 10.5068Z" stroke="#0A2830" stroke-width="2.10133" stroke-linecap="round" stroke-linejoin="round"/>
<path d="M12.6081 13.6595C14.3489 13.6595 15.7601 12.2483 15.7601 10.5075C15.7601 8.76667 14.3489 7.35547 12.6081 7.35547C10.8673 7.35547 9.45605 8.76667 9.45605 10.5075C9.45605 12.2483 10.8673 13.6595 12.6081 13.6595Z" stroke="#0A2830" stroke-width="2.10133" stroke-linecap="round" stroke-linejoin="round"/>
</g>
<defs>
<clipPath id="clip0_120_12673">
<rect width="25.216" height="25.216" fill="white"/>
</clipPath>
</defs>
</svg>
