<svg width="138" height="57" viewBox="0 0 138 57" fill="none" xmlns="http://www.w3.org/2000/svg">
<path d="M86.7482 55.9195C86.4162 55.9195 86.2629 55.7662 86.2629 55.4342V46.6224C86.2629 46.2776 86.4162 46.1371 86.7482 46.1371H92.7753C93.1073 46.1371 93.2606 46.2903 93.2606 46.6224V48.2443C93.2606 48.5891 93.1073 48.7295 92.7753 48.7295H89.3276V50.1471H91.6772C92.0092 50.1471 92.1624 50.3003 92.1624 50.6324V52.267C92.1624 52.6119 92.0092 52.7523 91.6772 52.7523H89.3276V55.4342C89.3276 55.779 89.1744 55.9195 88.8424 55.9195H86.7482Z" fill="#D39B2D"/>
<path d="M96.4145 55.9195H94.4225C94.0905 55.9195 93.9373 55.7662 93.9373 55.4342V51.8456C93.9373 51.2965 94.1033 50.6196 94.4608 49.6746L95.6356 46.5841C95.7377 46.2776 95.9548 46.1371 96.3251 46.1371H99.9644C100.322 46.1371 100.526 46.2776 100.641 46.5841L101.816 49.6746C102.186 50.6324 102.34 51.3092 102.34 51.8456V55.4342C102.34 55.779 102.186 55.9195 101.854 55.9195H99.8112C99.4409 55.9195 99.2876 55.7662 99.2876 55.4342V53.5314H96.8998V55.4342C96.8998 55.779 96.7465 55.9195 96.4145 55.9195ZM97.0402 51.0538H99.1599L98.5215 48.985C98.4576 48.8189 98.3682 48.7551 98.2661 48.7551H97.9341C97.8319 48.7551 97.7425 48.8189 97.6787 48.985L97.0402 51.0538Z" fill="#D39B2D"/>
<path d="M104.51 55.9195C104.178 55.9195 104.025 55.7662 104.025 55.4342V46.6224C104.025 46.2776 104.178 46.1371 104.51 46.1371H105.915C106.273 46.1371 106.477 46.2265 106.707 46.5074L109.324 49.5213V46.6224C109.324 46.2776 109.478 46.1371 109.81 46.1371H111.84C112.172 46.1371 112.325 46.2903 112.325 46.6224V55.4342C112.325 55.779 112.172 55.9195 111.84 55.9195H109.81C109.478 55.9195 109.324 55.7662 109.324 55.4342V53.7612L107.013 50.9517V55.4342C107.013 55.779 106.86 55.9195 106.528 55.9195H104.498H104.51Z" fill="#D39B2D"/>
<path d="M118.25 56.1238C114.867 56.1238 114.049 55.0128 114.049 53.3526V48.7168C114.049 47.0566 114.879 45.9327 118.25 45.9327C121.622 45.9327 122.439 47.0566 122.439 48.7168V53.3526C122.439 55.0128 121.622 56.1238 118.25 56.1238ZM118.25 53.5058C119.234 53.5058 119.387 53.2376 119.387 52.8673V49.2148C119.387 48.8572 119.234 48.5891 118.25 48.5891C117.267 48.5891 117.114 48.8572 117.114 49.2148V52.8673C117.114 53.2376 117.28 53.5058 118.25 53.5058Z" fill="#D39B2D"/>
<path d="M124.405 55.9195C124.073 55.9195 123.92 55.7662 123.92 55.4342V53.8379C123.92 53.493 124.073 53.3526 124.405 53.3526H128.044C128.274 53.3526 128.402 53.1738 128.402 52.9567C128.402 52.6502 128.274 52.5225 128.044 52.4969L126.014 52.216C124.737 52.0244 123.92 51.488 123.92 49.9555V48.5252C123.92 46.98 124.967 46.1371 126.716 46.1371H130.496C130.828 46.1371 130.981 46.2903 130.981 46.6224V48.2443C130.981 48.5891 130.828 48.7295 130.496 48.7295H127.342C127.112 48.7295 126.972 48.8956 126.972 49.1382C126.972 49.3809 127.112 49.5469 127.342 49.5724L129.36 49.8406C130.637 50.0322 131.467 50.5813 131.467 52.101V53.5314C131.467 55.0766 130.407 55.9195 128.67 55.9195H124.392H124.405Z" fill="#D39B2D"/>
<path d="M37.5347 46.1115C34.6744 46.1115 32.0184 45.4091 29.4389 43.9788C24.9952 41.514 21.5091 37.172 18.7637 30.7227C17.7166 28.2452 16.8483 25.5123 16.146 22.3707L16.0055 21.7577C15.7629 20.7615 15.5075 19.7271 15.5586 18.4373C15.5586 18.3606 15.6224 18.2968 15.6863 18.284C15.6863 18.284 15.699 18.284 15.7118 18.284C15.7757 18.284 15.8395 18.3223 15.8651 18.3862L16.6568 20.404C17.2314 21.8726 17.7805 23.2774 18.3295 24.6566C20.1939 29.318 22.1093 32.6128 24.3567 35.0393C27.9066 38.8705 31.7247 41.016 35.6832 41.4119C36.0407 41.4502 36.3983 41.4629 36.7558 41.4629C40.0631 41.4629 43.3065 39.956 46.6777 36.8527C50.2786 33.5451 53.3433 29.2158 56.1781 25.0781C57.0209 23.8393 57.8637 22.5878 58.7064 21.3362C61.3242 17.4156 64.0313 13.3673 66.9938 9.84254C68.3729 8.19511 69.0241 7.47995 69.8797 6.68817C71.5525 5.15567 75.9962 1.09457 82.3937 0.813611C82.6363 0.813611 82.8662 0.800842 83.096 0.800842C86.2628 0.800842 88.5869 1.72034 89.6978 2.28225C91.6898 3.2656 93.4392 4.73423 93.6308 5.34723C93.6691 5.4494 93.6563 5.5388 93.618 5.61542C93.5797 5.67927 93.5031 5.7559 93.3371 5.7559C93.0689 5.7559 92.622 5.55157 91.9197 5.24507C90.3491 4.55545 87.7186 3.40608 84.6411 3.40608H84.4496C80.606 3.46993 77.7712 5.34724 75.2684 7.00743C70.3266 10.2895 67.5173 14.5294 63.6099 20.4167C62.2819 22.409 61.2731 24.0181 60.0089 26.3551C59.5748 27.1597 59.23 27.8366 58.898 28.5006C58.1318 30.0331 57.404 31.4762 55.6545 34.1836C51.3129 40.9266 46.55 44.7195 41.1102 45.7667C39.8843 45.9966 38.684 46.1243 37.522 46.1243L37.5347 46.1115Z" fill="#D39B2D"/>
<path d="M83.0962 0.954096C86.5695 0.954096 88.9957 2.10346 89.6341 2.40996C91.8049 3.48271 93.6948 5.15568 93.4905 5.52603C93.465 5.56434 93.4139 5.58988 93.35 5.58988C92.5711 5.58988 89.0723 3.24006 84.6541 3.24006C84.5902 3.24006 84.5264 3.24006 84.4625 3.24006C80.5806 3.30392 77.7458 5.18122 75.1919 6.86696C70.2246 10.1618 67.4537 14.3379 63.4951 20.3146C62.1543 22.3451 61.1328 23.967 59.8942 26.2657C58.4512 28.9348 58.0554 30.2119 55.5526 34.0815C51.5813 40.237 46.946 44.4641 41.1104 45.5879C39.91 45.8178 38.7225 45.9455 37.5477 45.9455C34.8278 45.9455 32.159 45.2942 29.5285 43.8256C24.9443 41.2714 21.5093 36.7122 18.9299 30.6589C17.8189 28.0537 16.9762 25.2441 16.3122 22.3324C16.044 21.1574 15.6737 19.9698 15.712 18.4373C16.5803 20.6594 17.372 22.7027 18.1765 24.7205C19.7854 28.7177 21.6753 32.3829 24.242 35.1542C27.6386 38.8322 31.4184 41.1565 35.6706 41.5779C36.0409 41.6162 36.3984 41.629 36.756 41.629C40.3825 41.629 43.6898 39.8283 46.78 36.9804C50.3299 33.7111 53.3562 29.4967 56.306 25.1675C59.8431 19.9953 63.227 14.5677 67.1089 9.94471C68.4241 8.37391 69.1009 7.60767 69.982 6.80311C71.6548 5.27062 76.0475 1.24782 82.3939 0.966864C82.6237 0.966864 82.8536 0.954096 83.0834 0.954096M83.0834 0.634827C82.8536 0.634827 82.6237 0.634825 82.3811 0.647595C75.9198 0.928552 71.4505 5.02797 69.7649 6.57323C68.8966 7.36502 68.2454 8.09295 66.8663 9.74038C63.891 13.2779 61.1839 17.3262 58.5661 21.2468C57.7234 22.4984 56.8933 23.7499 56.0506 24.9887C53.2158 29.1264 50.1511 33.4429 46.5757 36.7378C43.2301 39.8155 40.025 41.3097 36.756 41.3097C36.4112 41.3097 36.0537 41.2969 35.6961 41.2586C31.7759 40.8755 27.9962 38.7428 24.4718 34.9371C22.2372 32.5234 20.3345 29.2413 18.4702 24.6055C17.9211 23.2263 17.372 21.8471 16.8102 20.3912L16.0057 18.3223C15.9546 18.1946 15.8397 18.118 15.712 18.118C15.6992 18.118 15.6737 18.118 15.6609 18.118C15.5077 18.1435 15.4055 18.2712 15.3928 18.4245C15.3544 19.7271 15.6098 20.7743 15.8525 21.7832C15.9035 21.9875 15.9546 22.1919 15.9929 22.3962C16.708 25.5378 17.5636 28.2835 18.6234 30.7738C21.3816 37.2486 24.8932 41.6162 29.3625 44.0937C31.9675 45.5496 34.6363 46.252 37.5349 46.252C38.7097 46.252 39.9228 46.1371 41.1614 45.8944C46.6523 44.8344 51.4408 41.0288 55.8079 34.2475C57.5574 31.5273 58.2852 30.0842 59.0514 28.5517C59.3834 27.8876 59.7154 27.2236 60.1496 26.419C61.4137 24.0947 62.4225 22.4856 63.7378 20.4934C67.6324 14.6316 70.4417 10.3917 75.3451 7.13514C77.8352 5.48772 80.6445 3.61042 84.437 3.55933H84.6285C87.6804 3.55933 90.2854 4.69593 91.8432 5.38555C92.5839 5.70482 93.0308 5.90915 93.3245 5.90915C93.5799 5.90915 93.6948 5.76867 93.7459 5.67928C93.7842 5.60265 93.8353 5.46217 93.7714 5.28338C93.5416 4.56822 91.6389 3.06127 89.7491 2.12901C88.6254 1.56709 86.263 0.634827 83.0706 0.634827H83.0834Z" fill="#D39B2D"/>
<path d="M10.0423 33.3535C9.99123 32.8427 9.96569 32.3447 10.0806 31.8466C10.3232 30.7483 11 30.097 12.0726 30.0204C13.771 29.8927 15.431 30.8377 16.095 32.4724C16.7207 34.0176 16.4398 35.9716 15.0096 37.2869C14.0136 38.1937 12.826 38.6406 11.5236 38.7556C10.0423 38.8833 8.58659 38.7684 7.18196 38.1937C4.89623 37.2486 3.18513 35.6778 2.61051 33.0854C2.22743 31.3358 2.2785 29.5606 3.35113 28.0026C4.10453 26.9171 5.16439 26.3169 6.36472 26.0104C8.72706 25.3846 11.1022 25.5889 13.4773 25.9593C16.2227 26.3807 18.8787 27.1342 21.522 27.9771C23.8205 28.705 26.1445 29.318 28.5069 29.7267C31.3545 30.2247 34.2148 30.4929 37.0879 30.3141C39.3226 30.1736 41.5317 29.8544 43.7025 29.2669C45.5668 28.7561 47.3801 28.1048 49.155 27.313C49.2827 27.2619 49.3976 27.198 49.4998 27.0703C49.155 27.1214 48.7975 27.147 48.4527 27.2108C45.7328 27.7727 43.0129 28.2197 40.2675 28.5645C37.5732 28.8965 34.8661 28.9604 32.1717 28.4751C30.0648 28.1048 27.9961 27.5429 25.9402 26.9171C23.5651 26.1892 21.2155 25.3974 18.8532 24.6439C15.6736 23.6478 12.443 22.8815 9.09737 22.9198C7.36073 22.9326 5.64963 23.1752 4.05345 23.9926C2.4062 24.8354 1.25695 26.1636 0.60571 27.9771C0.0183168 29.6117 -0.147687 31.2975 0.133241 32.996C0.490784 35.1159 1.52511 36.8527 3.13405 38.1937C5.6624 40.3136 8.58659 41.1182 11.7534 40.735C13.8476 40.4796 15.7119 39.5729 16.8356 37.5551C17.8827 35.6906 18.1637 33.7111 17.2953 31.6678C16.8356 30.5951 15.9929 29.9054 14.9713 29.5223C13.7199 29.0498 12.4557 29.0243 11.1788 29.484C10.0806 29.8799 9.33999 30.8377 9.44215 31.8849C9.49322 32.434 9.7103 32.9193 10.0678 33.3791L10.0423 33.3535Z" fill="#D39B2D"/>
<path d="M22.582 25.0781C23.3609 24.4395 24.1016 23.8138 24.8677 23.2008C26.7576 21.6938 28.9156 20.6339 31.3291 19.9059C33.8319 19.1524 36.373 18.5395 38.9907 18.2457C41.2253 18.0031 43.4345 17.9392 45.6563 18.2074C49.3722 18.6544 52.7561 19.8421 56.0123 21.3362C56.1273 21.3873 56.2422 21.5278 56.4848 21.4256C55.5782 20.289 54.4928 19.3185 53.2414 18.4884C50.5981 16.7388 47.559 15.8448 44.2517 15.5128C42.9364 15.3851 41.6212 15.3212 40.3059 15.4106C39.9101 15.4362 39.8079 15.334 39.7824 15.0019C39.7441 14.5422 39.8207 14.2485 40.3443 13.9547C41.5574 13.2524 42.0298 12.0774 41.6595 10.9025C41.302 9.75317 40.4209 9.07631 39.0545 8.88475C37.7521 8.69319 36.4879 9.21679 35.7217 10.2512C35.1854 10.9664 35.1343 11.7199 35.3259 12.5116C35.594 12.5116 35.5557 12.3329 35.594 12.1924C35.8111 11.324 36.7305 10.6982 37.7904 10.6854C38.7353 10.6727 39.7313 11.3751 39.8973 12.1668C40.0889 13.0991 39.5398 14.0058 38.5821 14.3506C38.4544 14.4017 38.3267 14.4783 38.199 14.4783C37.7393 14.5039 37.701 14.7465 37.8031 15.0403C37.9436 15.4872 37.7648 15.6277 37.2285 15.7171C32.7848 16.4834 28.6858 17.8881 25.3913 20.7743C24.1399 21.8726 23.2077 23.1369 22.6331 24.58C22.582 24.7205 22.4926 24.861 22.582 25.0653V25.0781Z" fill="#D39B2D"/>
<path d="M92.3796 14.3634C94.6653 14.3634 95.8146 13.2396 95.8146 10.9919C95.8146 8.74426 94.6653 7.55658 92.3796 7.55658C90.0939 7.55658 88.8936 8.70595 88.8936 10.9919C88.8936 13.2779 90.0556 14.3634 92.3796 14.3634Z" fill="white"/>
<path d="M124.635 14.3634C126.921 14.3634 128.07 13.2396 128.07 10.9919C128.07 8.74426 126.921 7.55658 124.635 7.55658C122.349 7.55658 121.149 8.70595 121.149 10.9919C121.149 13.2779 122.311 14.3634 124.635 14.3634Z" fill="white"/>
<path d="M96.9765 17.2241H88.4593C89.7746 19.2546 90.4386 21.7704 90.4386 24.7843V39.7261H84.4752V29.203C84.4752 25.8826 83.492 23.1369 81.5127 20.9531C79.3292 18.5267 76.5582 17.3007 73.1871 17.3007C69.5606 17.3007 66.6492 18.5522 64.44 21.0425C62.2309 23.5328 61.1328 26.5978 61.1328 30.2247C61.1328 34.0304 62.2182 37.1209 64.4017 39.4963C65.2828 40.4796 66.5087 41.3225 68.0666 42.0249C69.6244 42.7273 71.0546 43.0721 72.3443 43.0721H79.7889C78.7546 48.0144 76.3922 50.4791 72.7146 50.4791C70.3778 50.4791 68.2326 49.6235 66.2533 47.8994H60.8901C63.2269 53.2504 67.3387 55.9195 73.2382 55.9195C76.5582 55.9195 79.2781 54.5658 81.4106 51.8584C83.4409 49.3681 84.4497 46.4436 84.4497 43.0721H96.951C95.6868 40.735 95.0483 38.2192 95.0483 35.5118V24.7971C95.0483 21.9365 95.6868 19.4079 96.951 17.2368L96.9765 17.2241ZM79.8016 39.7261H76.5327C75.0386 39.7772 73.9277 39.8028 73.1871 39.8028C70.7098 39.8028 68.8455 38.6662 67.5941 36.3802C66.6619 34.554 66.1894 32.2808 66.1894 29.5351C66.1894 23.5584 68.3986 20.57 72.804 20.57C75.2813 20.57 77.1201 21.7321 78.3204 24.0692C79.3036 25.8954 79.8016 28.1431 79.8016 30.8377V39.7261Z" fill="white"/>
<path d="M133.957 21.0936C131.722 18.5139 128.849 17.2113 125.325 17.2113C121.8 17.2113 118.953 18.4245 116.693 20.8382C114.432 23.2646 113.309 26.3551 113.309 30.1353C113.309 33.9154 114.394 36.9804 116.578 39.4835C116.68 39.5856 116.782 39.6623 116.884 39.7134H107.001V11.3623C107.001 8.52715 107.652 6.0113 108.942 3.84027H100.463C101.701 6.17732 102.327 8.68039 102.327 11.3623V35.499C102.327 38.2064 101.701 40.735 100.463 43.0593H124.98C128.581 43.0593 131.492 41.8333 133.727 39.3941C135.962 36.9549 137.073 33.8899 137.073 30.2119C137.073 26.5339 136.038 23.5456 133.957 21.0936ZM130.535 36.9038C129.347 38.8322 127.61 39.79 125.325 39.79C122.911 39.79 121.072 38.6278 119.77 36.2908C118.787 34.4135 118.289 32.1658 118.289 29.5223C118.289 23.5456 120.523 20.5572 124.98 20.5572C127.432 20.5572 129.283 21.7193 130.535 24.0564C131.518 25.8826 132.016 28.1303 132.016 30.8249C132.016 33.2769 131.518 35.3074 130.535 36.9038Z" fill="white"/>
<path d="M36.0282 38.5001C34.6235 39.062 32.9763 38.9343 31.6355 38.3213C30.3458 37.7339 29.3498 36.7378 28.6347 35.6267C28.6219 35.6012 28.3665 35.8821 28.3537 35.9077C28.3154 35.9587 28.1111 36.1758 28.1622 36.2397C28.8901 37.3763 29.9116 38.3852 31.2396 38.9726C32.5804 39.5729 34.2021 39.6623 35.594 39.1131C35.7345 39.062 35.8494 38.8577 35.926 38.7555C35.9515 38.73 36.092 38.4874 36.0409 38.5129L36.0282 38.5001Z" fill="#D39B2D"/>
</svg>
