<svg width="64" height="69" viewBox="0 0 64 69" fill="none" xmlns="http://www.w3.org/2000/svg">
<path d="M0.609375 9.14685C0.609375 4.16287 4.64969 0.122559 9.63367 0.122559H54.7551C59.7391 0.122559 63.7794 4.16287 63.7794 9.14685V59.6829C63.7794 64.6669 59.7391 68.7072 54.7551 68.7072H9.63367C4.64969 68.7072 0.609375 64.6669 0.609375 59.6829V9.14685Z" fill="#0075E2"/>
<g clip-path="url(#clip0_911_1522)">
<g clip-path="url(#clip1_911_1522)">
<g clip-path="url(#clip2_911_1522)">
<g clip-path="url(#clip3_911_1522)">
<path d="M27.3849 34.717C27.7404 34.6434 28.1119 34.482 28.4624 34.2291C29.47 33.5002 29.9172 32.3033 29.4602 31.5545C28.9634 30.74 27.6042 30.7948 26.5597 31.7218C25.5609 32.5841 25.3478 33.4852 25.3478 34.4323C25.3478 35.1014 25.5618 36.2962 26.8692 37.3339C27.4865 36.8569 28.2225 36.4645 29.0578 36.1808L29.0689 36.1768C28.427 35.9093 27.5903 35.3813 27.3849 34.717ZM27.2237 32.4138C27.2237 32.134 27.4466 31.909 27.7216 31.909C27.9963 31.909 28.2195 32.1351 28.2195 32.4149C28.2195 32.6947 27.9963 32.9196 27.7216 32.9196C27.4467 32.9196 27.2237 32.6936 27.2237 32.4138Z" fill="white"/>
</g>
</g>
<g clip-path="url(#clip4_911_1522)">
<g clip-path="url(#clip5_911_1522)">
<path d="M39.0591 34.4333C39.0561 33.4853 38.844 32.5842 37.8444 31.7218C36.8007 30.7958 35.4406 30.739 34.9436 31.5546C34.4876 32.3034 34.9337 33.5003 35.9413 34.2292C36.2919 34.4821 36.6633 34.6434 37.0188 34.7171C36.8953 35.1164 36.5199 35.5226 35.9474 35.8652C35.1601 36.335 34.7349 36.3932 29.6979 38.0658C27.8339 38.6991 26.7247 39.9577 26.7247 41.4324C26.7247 42.4829 27.2614 43.2935 28.0071 43.887C28.4762 43.404 29.0618 42.9849 29.7458 42.6492C28.9582 42.251 28.7152 41.9492 28.7152 41.4324C28.7152 40.5794 30.4202 40.0918 31.2067 39.8322V41.9911L33.1982 41.1028V39.8332C33.986 40.0941 35.6866 40.5812 35.6866 41.4324C35.6866 42.8486 31.6315 43.6837 29.9062 44.8737C29.0688 45.4543 28.6185 46.1922 28.6185 47.0594C28.6185 47.5573 28.6764 48.1747 29.5506 48.788C29.7985 48.9861 30.1429 48.6968 29.9819 48.4186C29.4042 47.2625 30.0176 46.685 31.2086 46.1851V47.856C31.2086 48.4056 31.6547 48.8517 32.2044 48.8517C32.754 48.8517 33.2001 48.4056 33.2001 47.856V46.1861C34.3442 46.666 35.0642 47.3441 34.4239 48.4186C34.2652 48.6915 34.6031 48.9885 34.8541 48.788C35.7005 48.1467 35.7672 47.5971 35.7672 47.0724C35.7672 46.2649 35.3251 45.4812 34.4866 44.8807C36.1815 44.2683 37.681 43.2377 37.681 41.4344C37.681 40.1887 36.8895 39.0974 35.5213 38.4063C36.1604 38.1763 36.4821 38.022 36.9092 37.7671C38.7803 36.6488 39.0591 35.1981 39.0591 34.4333ZM36.6833 32.9197C36.4084 32.9197 36.1854 32.6937 36.1854 32.4139C36.1854 32.1341 36.4084 31.9081 36.6833 31.9081C36.958 31.9081 37.1812 32.1341 37.1812 32.4139C37.1812 32.6937 36.9581 32.9197 36.6833 32.9197Z" fill="white"/>
</g>
</g>
<g clip-path="url(#clip6_911_1522)">
<g clip-path="url(#clip7_911_1522)">
<path d="M46.1349 21.9695H39.3155C37.9777 21.9695 36.9738 22.5609 36.1102 23.4246C35.1719 24.3628 34.6841 26.4485 33.1901 26.4485V23.6829C33.783 23.3379 34.1859 22.7029 34.1859 21.9676C34.1859 20.8677 33.2943 19.9761 32.1944 19.9761C31.0945 19.9761 30.2029 20.8677 30.2029 21.9676C30.2029 22.7029 30.6058 23.3379 31.1986 23.6829V35.5501C31.8132 35.354 32.4877 35.138 33.1901 34.9124V29.9246C33.6222 29.7079 33.9707 29.3574 34.1845 28.9237C34.5309 29.5157 35.1893 29.9355 35.9232 29.9355C36.6676 29.9355 37.3089 29.5222 37.6506 28.9174C38.8171 30.084 40.9854 30.1064 42.1519 28.9399L40.4597 27.2477L41.236 27.5693C42.7602 28.2007 44.5077 27.4768 45.1392 25.9526L42.7352 24.9568C45.064 24.9568 46.1349 23.4954 46.1349 21.9695Z" fill="white"/>
</g>
</g>
<g clip-path="url(#clip8_911_1522)">
<g clip-path="url(#clip9_911_1522)">
<path d="M28.2785 23.4243C27.4149 22.5606 26.411 21.9692 25.0732 21.9692H18.2538C18.2538 23.4951 19.3247 24.9565 21.6535 24.9565L19.2495 25.9522C19.881 27.4765 21.6284 28.2003 23.1527 27.569L23.9289 27.2474L22.2368 28.9396C23.4033 30.1062 25.5716 30.0837 26.7381 28.917C27.0798 29.522 27.7211 29.9353 28.4655 29.9353C28.4728 29.9353 28.4802 29.9352 28.4875 29.9351C29.4605 29.9241 30.2042 29.0452 30.2042 28.0722V26.0689C29.4193 25.4249 28.9698 24.1156 28.2785 23.4243Z" fill="white"/>
</g>
</g>
</g>
</g>
<defs>
<clipPath id="clip0_911_1522">
<rect width="28.8777" height="28.8777" fill="white" transform="translate(17.7555 19.9761)"/>
</clipPath>
<clipPath id="clip1_911_1522">
<rect width="28.8777" height="28.8777" fill="white" transform="translate(17.7555 19.9761)"/>
</clipPath>
<clipPath id="clip2_911_1522">
<rect width="4.29167" height="6.35146" fill="white" transform="translate(25.3478 30.9824)"/>
</clipPath>
<clipPath id="clip3_911_1522">
<rect width="4.29167" height="6.35146" fill="white" transform="translate(25.3478 30.9824)"/>
</clipPath>
<clipPath id="clip4_911_1522">
<rect width="12.3344" height="17.8713" fill="white" transform="translate(26.7247 30.9824)"/>
</clipPath>
<clipPath id="clip5_911_1522">
<rect width="12.3344" height="17.8713" fill="white" transform="translate(26.7247 30.9824)"/>
</clipPath>
<clipPath id="clip6_911_1522">
<rect width="15.932" height="15.574" fill="white" transform="translate(30.2029 19.9761)"/>
</clipPath>
<clipPath id="clip7_911_1522">
<rect width="15.932" height="15.574" fill="white" transform="translate(30.2029 19.9761)"/>
</clipPath>
<clipPath id="clip8_911_1522">
<rect width="11.9504" height="7.96602" fill="white" transform="translate(18.2538 21.9692)"/>
</clipPath>
<clipPath id="clip9_911_1522">
<rect width="11.9504" height="7.96602" fill="white" transform="translate(18.2538 21.9692)"/>
</clipPath>
</defs>
</svg>
