<svg width="20" height="21" viewBox="0 0 20 21" fill="none" xmlns="http://www.w3.org/2000/svg">
<path d="M6.72 9.20117H1.72C1.25929 9.18815 0.821822 8.99594 0.50062 8.6654C0.179419 8.33486 -0.000183789 7.89207 1.41131e-07 7.43117V2.43117C0.010454 1.96871 0.20154 1.52871 0.532354 1.20537C0.863167 0.882035 1.30742 0.701054 1.77 0.701172H6.77C7.23943 0.701172 7.68964 0.887653 8.02158 1.21959C8.35352 1.55153 8.54 2.00174 8.54 2.47117V7.47117C8.53482 7.70449 8.48355 7.93449 8.38914 8.14792C8.29473 8.36135 8.15905 8.554 7.98989 8.71479C7.82074 8.87558 7.62146 9.00133 7.40352 9.0848C7.18558 9.16827 6.95328 9.20782 6.72 9.20117ZM20 7.43117V2.43117C19.9895 1.96871 19.7985 1.52871 19.4676 1.20537C19.1368 0.882035 18.6926 0.701054 18.23 0.701172H13.23C12.7606 0.701172 12.3104 0.887653 11.9784 1.21959C11.6465 1.55153 11.46 2.00174 11.46 2.47117V7.47117C11.46 7.94061 11.6465 8.39081 11.9784 8.72275C12.3104 9.05469 12.7606 9.24117 13.23 9.24117H18.23C18.4658 9.24123 18.6993 9.19416 18.9167 9.10272C19.1341 9.01128 19.331 8.87731 19.4959 8.70869C19.6608 8.54007 19.7904 8.3402 19.8769 8.12081C19.9635 7.90143 20.0053 7.66696 20 7.43117ZM20 18.9312V13.9312C20 13.4617 19.8135 13.0115 19.4816 12.6796C19.1496 12.3477 18.6994 12.1612 18.23 12.1612H13.27C12.8006 12.1612 12.3504 12.3477 12.0184 12.6796C11.6865 13.0115 11.5 13.4617 11.5 13.9312V18.9312C11.5 19.4006 11.6865 19.8508 12.0184 20.1828C12.3504 20.5147 12.8006 20.7012 13.27 20.7012H18.22C18.4533 20.7025 18.6845 20.6577 18.9004 20.5693C19.1163 20.481 19.3126 20.3508 19.478 20.1863C19.6435 20.0218 19.7747 19.8262 19.8643 19.6108C19.9539 19.3954 20 19.1645 20 18.9312ZM8.5 18.9312V13.9312C8.48952 13.467 8.29704 13.0255 7.96408 12.7019C7.63111 12.3782 7.18431 12.1984 6.72 12.2012H1.72C1.25929 12.2142 0.821822 12.4064 0.50062 12.7369C0.179419 13.0675 -0.000183789 13.5103 1.41131e-07 13.9712V18.9712C0.010454 19.4336 0.20154 19.8736 0.532354 20.197C0.863167 20.5203 1.30742 20.7013 1.77 20.7012H6.77C7.23071 20.6882 7.66818 20.4959 7.98938 20.1654C8.31058 19.8349 8.49018 19.3921 8.49 18.9312H8.5Z" fill="#0C576C"/>
</svg>
