<svg width="29" height="28" viewBox="0 0 29 28" fill="none" xmlns="http://www.w3.org/2000/svg">
<path d="M20.0462 8.16671C20.0462 9.32043 19.7041 10.4482 19.0631 11.4075C18.4221 12.3668 17.5111 13.1145 16.4452 13.556C15.3793 13.9975 14.2064 14.113 13.0748 13.888C11.9433 13.6629 10.9039 13.1073 10.0881 12.2915C9.27227 11.4757 8.7167 10.4363 8.49162 9.30473C8.26654 8.17318 8.38206 7.00029 8.82357 5.93439C9.26508 4.86848 10.0128 3.95744 10.972 3.31647C11.9313 2.67549 13.0591 2.33337 14.2129 2.33337C15.76 2.33337 17.2437 2.94796 18.3377 4.04192C19.4316 5.13588 20.0462 6.61961 20.0462 8.16671ZM23.1962 25.6667C23.3869 25.6775 23.5777 25.6471 23.7556 25.5776C23.9336 25.5081 24.0944 25.401 24.2273 25.2638C24.3601 25.1265 24.4618 24.9622 24.5255 24.7821C24.5891 24.602 24.6133 24.4103 24.5962 24.22C23.8495 19.8334 19.4862 16.4617 14.2129 16.4617C8.93954 16.4617 4.5762 19.8334 3.82954 24.22C3.81247 24.4103 3.83659 24.602 3.90026 24.7821C3.96392 24.9622 4.06564 25.1265 4.19848 25.2638C4.33132 25.401 4.49217 25.5081 4.67009 25.5776C4.84801 25.6471 5.03882 25.6775 5.22954 25.6667H23.1962Z" fill="white"/>
</svg>
