<svg width="29" height="28" viewBox="0 0 29 28" fill="none" xmlns="http://www.w3.org/2000/svg">
<path d="M16.3597 25.4449L11.5297 22.7266C11.269 22.5825 10.976 22.507 10.6781 22.507C10.3802 22.507 10.0872 22.5825 9.82641 22.7266L4.99641 25.4449C4.7404 25.5928 4.4503 25.6715 4.15464 25.6733C3.85898 25.6751 3.56795 25.5999 3.31016 25.4552C3.05237 25.3104 2.83671 25.101 2.68439 24.8476C2.53206 24.5942 2.44833 24.3055 2.44141 24.0099V10.9782C2.45678 9.87251 2.91002 8.81802 3.70173 8.046C4.49344 7.27397 5.55899 6.84742 6.66474 6.85988H14.6914C15.7911 6.85671 16.8477 7.28737 17.6318 8.0584C18.416 8.82943 18.8644 9.87861 18.8797 10.9782V24.0099C18.8696 24.3004 18.7854 24.5835 18.6349 24.8322C18.4845 25.0809 18.2729 25.287 18.0203 25.4308C17.7677 25.5747 17.4825 25.6515 17.1919 25.6539C16.9012 25.6564 16.6147 25.5844 16.3597 25.4449Z" fill="white"/>
<path d="M21.7613 2.33327H13.7347C12.8658 2.32772 12.0166 2.59179 11.3041 3.0891C10.5915 3.5864 10.0508 4.29245 9.75635 5.10994H14.6913C16.2552 5.09743 17.7607 5.70356 18.8795 6.79624C19.9984 7.88891 20.6401 9.37954 20.6647 10.9433V19.3666L23.4297 20.9183C23.6865 21.0666 23.9777 21.1453 24.2743 21.1466C24.5709 21.1479 24.8627 21.0717 25.1208 20.9255C25.379 20.7794 25.5944 20.5683 25.7459 20.3133C25.8975 20.0583 25.9797 19.7682 25.9847 19.4716V6.45161C25.9693 5.3459 25.5161 4.29141 24.7244 3.51939C23.9327 2.74736 22.8671 2.32081 21.7613 2.33327Z" fill="white"/>
</svg>
