<svg width="375" height="336" viewBox="0 0 375 336" fill="none" xmlns="http://www.w3.org/2000/svg">
<g clip-path="url(#clip0_48_6390)">
<path d="M374.769 246.443H0V246.631H374.769V246.443Z" fill="#536486"/>
<path d="M337.217 258.552H312.393V258.741H337.217V258.552Z" fill="#536486"/>
<path d="M248.263 260.599H241.749V260.788H248.263V260.599Z" fill="#536486"/>
<path d="M311.643 251.568H297.26V251.756H311.643V251.568Z" fill="#536486"/>
<path d="M71.6929 252.833H39.3203V253.021H71.6929V252.833Z" fill="#536486"/>
<path d="M83.1167 252.833H78.3721V253.021H83.1167V252.833Z" fill="#536486"/>
<path d="M168.759 256.009H98.542V256.197H168.759V256.009Z" fill="#536486"/>
<path d="M177.649 212.876H32.9127C30.5516 212.876 28.6328 210.95 28.6328 208.579V4.29741C28.6328 1.92669 30.5516 0 32.9127 0H177.649C180.01 0 181.928 1.92669 181.928 4.29741V208.579C181.928 210.95 180.01 212.876 177.649 212.876ZM32.9127 0.188153C30.6566 0.188153 28.8202 2.03205 28.8202 4.29741V208.579C28.8202 210.844 30.6566 212.688 32.9127 212.688H177.649C179.905 212.688 181.741 210.844 181.741 208.579V4.29741C181.741 2.03205 179.905 0.188153 177.649 0.188153H32.9127Z" fill="#536486"/>
<path d="M339.774 212.876H195.038C192.677 212.876 190.758 210.95 190.758 208.579V4.29741C190.758 1.92669 192.677 0 195.038 0H339.774C342.135 0 344.053 1.92669 344.053 4.29741V208.579C344.053 210.95 342.135 212.876 339.774 212.876ZM195.038 0.188153C192.782 0.188153 190.945 2.03205 190.945 4.29741V208.579C190.945 210.844 192.782 212.688 195.038 212.688H339.774C342.03 212.688 343.866 210.844 343.866 208.579V4.29741C343.866 2.03205 342.03 0.188153 339.774 0.188153H195.038Z" fill="#536486"/>
<path d="M163.736 173.786H68.9795V180.499H163.736V173.786Z" fill="#536486"/>
<path d="M163.736 173.786H122.534V180.499H163.736V173.786Z" fill="#3B4965"/>
<path d="M82.9809 180.506H68.9795V246.443H82.9809V180.506Z" fill="#536486"/>
<path d="M82.9809 187.31L68.9795 182.523V180.506H82.9809V187.31Z" fill="#3B4965"/>
<path d="M163.736 180.506H149.734V246.443H163.736V180.506Z" fill="#3B4965"/>
<path d="M136.536 180.506H122.534V246.443H136.536V180.506Z" fill="#536486"/>
<path d="M136.528 187.31L122.534 182.523V180.506H136.528V187.31Z" fill="#3B4965"/>
<path d="M110.182 180.506H96.1807V246.443H110.182V180.506Z" fill="#3B4965"/>
<path d="M172.641 24.2416H53.2168V126.348H172.641V24.2416Z" fill="#536486"/>
<path d="M172.64 126.349H173.975V24.2416H172.64V126.349Z" fill="#3B4965"/>
<path d="M168.144 121.833V28.7572L57.7141 28.7572V121.833H168.144Z" fill="#14213A"/>
<path d="M111.599 107.699C118.329 85.0978 120.218 51.8172 134.572 56.4157C148.926 61.0066 130.12 110.25 130.12 110.25L111.599 107.699Z" fill="#14213A"/>
<path d="M123.186 108.828C116.321 76.1041 118.052 32.6558 96.7201 33.6568C75.3882 34.6502 96.7201 110.25 96.7201 110.25L123.186 108.828Z" fill="#14213A"/>
<path d="M138.259 105.155H91.5628C89.4866 105.155 87.9125 106.683 87.8226 108.617C86.8707 130.217 90.3935 152.231 96.952 173.786H132.712C139.271 152.231 142.794 130.217 141.842 108.617C141.759 106.683 140.185 105.155 138.252 105.155H138.259Z" fill="#536486"/>
<path d="M244.499 35.6362H241.868V246.443H244.499V35.6362Z" fill="#3B4965"/>
<path d="M306.328 35.6362H303.697V246.443H306.328V35.6362Z" fill="#3B4965"/>
<path d="M225.843 35.6362H223.212V246.443H225.843V35.6362Z" fill="#536486"/>
<path d="M287.672 35.6362H285.041V246.443H287.672V35.6362Z" fill="#536486"/>
<path d="M306.328 34.1912H223.212V37.0737H306.328V34.1912Z" fill="#536486"/>
<path d="M306.328 85.8129H223.212V88.6954H306.328V85.8129Z" fill="#536486"/>
<path d="M306.328 137.434H223.212V140.317H306.328V137.434Z" fill="#536486"/>
<path d="M306.328 189.056H223.212V191.939H306.328V189.056Z" fill="#536486"/>
<path d="M306.328 240.678H223.212V243.56H306.328V240.678Z" fill="#536486"/>
<path d="M306.328 34.1912H287.672V37.0737H306.328V34.1912Z" fill="#3B4965"/>
<path d="M306.328 85.8129H287.672V88.6954H306.328V85.8129Z" fill="#3B4965"/>
<path d="M306.328 137.434H287.672V140.317H306.328V137.434Z" fill="#3B4965"/>
<path d="M306.328 189.056H287.672V191.939H306.328V189.056Z" fill="#3B4965"/>
<path d="M306.328 240.678H287.672V243.56H306.328V240.678Z" fill="#3B4965"/>
<path d="M256.738 51.7497V47.6855H246.747V51.7497C246.747 54.4064 244.603 56.5588 241.958 56.5588C239.312 56.5588 237.168 58.7113 237.168 61.368V85.8204H266.31V61.368C266.31 58.7113 264.166 56.5588 261.52 56.5588C258.875 56.5588 256.731 54.4064 256.731 51.7497H256.738Z" fill="#345086"/>
<path d="M277.419 120.644H233.631V137.434H277.419V120.644Z" fill="#345086"/>
<path d="M277.419 137.434H285.042V120.644H277.419V137.434Z" fill="#203A6B"/>
<path d="M277.419 129.961H285.042V128.11H277.419V129.961Z" fill="#536486"/>
<path d="M277.419 128.117H233.631V129.968H277.419V128.117Z" fill="#14213A"/>
<path d="M265.689 210.995H231.487V240.678H265.689V210.995Z" fill="#345086"/>
<path d="M265.688 240.678H271.64V210.995H265.688V240.678Z" fill="#203A6B"/>
<path d="M265.688 227.469H271.64V224.196H265.688V227.469Z" fill="#536486"/>
<path d="M265.689 224.203H231.487V227.477H265.689V224.203Z" fill="#14213A"/>
<path d="M265.688 221.908H271.64V220.741H265.688V221.908Z" fill="#536486"/>
<path d="M265.689 220.741H231.487V221.908H265.689V220.741Z" fill="#14213A"/>
<path d="M239.822 158.876H233.631V189.056H239.822V158.876Z" fill="#345086"/>
<path d="M239.822 169.631H233.631V178.301H239.822V169.631Z" fill="#787878"/>
<path d="M239.822 189.056H260.884V158.876H239.822V189.056Z" fill="#203A6B"/>
<path d="M249.386 154.978H242.393V189.056H249.386V154.978Z" fill="#536486"/>
<path d="M249.386 165.808H242.393V171.054H249.386V165.808Z" fill="#787878"/>
<path d="M249.386 174.568H242.393V179.814H249.386V174.568Z" fill="#787878"/>
<path d="M249.393 189.049H273.176V154.97H249.393V189.049Z" fill="#3B4965"/>
<path d="M257.173 158.876H253.403V189.056H257.173V158.876Z" fill="#345086"/>
<path d="M256.521 162.7H254.048V185.233H256.521V162.7Z" fill="#787878"/>
<path d="M257.166 189.056H269.976V158.876H257.166V189.056Z" fill="#203A6B"/>
<path d="M267.24 157.281H262.982V189.049H267.24V157.281Z" fill="#536486"/>
<path d="M267.24 167.381H262.982V172.273H267.24V167.381Z" fill="#787878"/>
<path d="M267.24 175.547H262.982V180.439H267.24V175.547Z" fill="#787878"/>
<path d="M267.24 189.056H281.706V157.288H267.24V189.056Z" fill="#3B4965"/>
<path d="M265.307 117.905C268.948 114.249 268.948 108.321 265.307 104.665C261.666 101.008 255.762 101.008 252.121 104.665C248.479 108.321 248.479 114.249 252.121 117.905C255.762 121.561 261.666 121.561 265.307 117.905Z" fill="#14213A"/>
<path d="M270.063 120.546C273.585 119.972 275.977 116.64 275.406 113.103C274.834 109.567 271.515 107.165 267.993 107.739C264.471 108.313 262.079 111.646 262.65 115.182C263.222 118.719 266.541 121.121 270.063 120.546Z" fill="#536486"/>
<path d="M187.385 280.431C267.647 280.431 332.713 276.616 332.713 271.911C332.713 267.206 267.647 263.392 187.385 263.392C107.122 263.392 42.0566 267.206 42.0566 271.911C42.0566 276.616 107.122 280.431 187.385 280.431Z" fill="#FFFCFE" fill-opacity="0.34"/>
<path d="M94.5244 213.546H190.795V263.474C190.795 266.161 188.621 268.344 185.946 268.344H99.3739C96.6981 268.344 94.5244 266.161 94.5244 263.474V213.546Z" fill="#FFB21A"/>
<path d="M94.5242 213.546H162.642L154.262 202.776C153.34 201.595 151.062 200.639 149.166 200.639H87.9057C86.0094 200.639 85.2224 201.595 86.1368 202.776L94.5167 213.546H94.5242Z" fill="#FFB21A"/>
<path opacity="0.2" d="M94.5242 213.546H162.642L154.262 202.776C153.34 201.595 151.062 200.639 149.166 200.639H87.9057C86.0094 200.639 85.2224 201.595 86.1368 202.776L94.5167 213.546H94.5242Z" fill="black"/>
<path d="M190.795 213.546H122.677L131.057 206.524C131.979 205.757 134.257 205.132 136.153 205.132H197.413C199.31 205.132 200.097 205.757 199.182 206.524L190.802 213.546H190.795Z" fill="#FFB21A"/>
<path opacity="0.2" d="M122.677 213.546H190.795V263.474C190.795 266.161 188.621 268.344 185.945 268.344H127.526C124.85 268.344 122.677 266.161 122.677 263.474V213.546Z" fill="#14213A"/>
<path opacity="0.5" d="M102.979 213.546V247.775L105.332 245.908L106.989 247.775L108.428 245.698L109.904 247.775L111.958 246.21L114.222 247.775V213.546H102.979Z" fill="#14213A"/>
<path d="M118.217 138.879L106.112 128.674" stroke="#FFB21A" stroke-miterlimit="10"/>
<path d="M124.49 144.163L120.803 141.055" stroke="#FFB21A" stroke-miterlimit="10"/>
<path d="M160.754 165.53L200.689 115.413L147.517 70.5951L112.259 111.183L107.042 121.336C105.948 122.601 106.097 124.369 107.394 125.468L155.372 165.913C156.924 167.215 159.442 167.042 160.746 165.537L160.754 165.53Z" fill="#FFB21A"/>
<path opacity="0.5" d="M133.365 128.569L127.616 137.863L129.932 138.368L130.719 140.52L132.256 140.611L132.968 142.454L134.849 143.004L136.296 145.314L142.045 136.012L133.365 128.569Z" fill="#14213A"/>
<path opacity="0.1" d="M198.95 113.938L163.137 154.06L112.266 111.176L147.516 70.5875L198.95 113.938Z" fill="black"/>
<path d="M198.95 113.938L163.137 154.06L177.963 155.159L213.221 114.57L198.95 113.938Z" fill="#FFB21A"/>
<path opacity="0.3" d="M198.95 113.938L163.137 154.06L177.963 155.159L213.221 114.57L198.95 113.938Z" fill="black"/>
<path d="M133.253 69.9553L97.4326 110.07L112.266 111.176L147.517 70.5875L133.253 69.9553Z" fill="#FFB21A"/>
<path opacity="0.4" d="M133.253 69.9553L97.4326 110.07L112.266 111.176L147.517 70.5875L133.253 69.9553Z" fill="black"/>
<path opacity="0.1" d="M187.924 126.296L198.95 113.938L147.516 70.5875L140.936 86.5128L187.924 126.296Z" fill="black"/>
<path opacity="0.2" d="M112.266 111.176L147.516 70.5875L140.935 86.5128L116.111 114.412L112.266 111.176Z" fill="black"/>
<path d="M211.377 38.4209C211.519 38.9101 211.377 39.3767 211.062 39.467C210.747 39.5573 210.373 39.2412 210.23 38.7595C210.088 38.2779 210.23 37.8037 210.545 37.7134C210.86 37.6231 211.234 37.9392 211.377 38.4209Z" fill="#232323"/>
<path d="M211.422 39.3691C211.422 39.3691 211.145 42.5 210.328 44.2084C211.415 44.7578 212.764 43.9601 212.764 43.9601L211.422 39.3691Z" fill="#ED847E"/>
<path d="M212.367 35.2072C212.427 35.1771 212.48 35.1169 212.51 35.0417C212.562 34.8836 212.48 34.718 212.33 34.6653C210.786 34.1159 209.691 34.9438 209.646 34.9739C209.519 35.0718 209.489 35.2599 209.594 35.3879C209.691 35.5158 209.879 35.5384 210.006 35.4405C210.006 35.4405 210.906 34.7782 212.135 35.2148C212.217 35.2449 212.3 35.2373 212.375 35.1997L212.367 35.2072Z" fill="#232323"/>
<path d="M228.04 41.642C228.37 45.6308 229.352 52.9537 231.698 54.617C231.698 54.617 231.136 59.4111 222.733 60.6529C213.484 62.0227 217.636 56.7017 217.636 56.7017C222.501 54.7449 221.819 51.0044 220.425 47.6026L224 43.4934C225.342 41.9505 227.875 39.6024 228.048 41.642H228.04Z" fill="#FFC3BD"/>
<path d="M234.718 56.5588C235.468 55.8739 233.954 53.1344 233.047 52.7581C230.633 51.7421 220.755 52.743 217.044 55.9492C215.98 57.6425 216.752 59.4789 216.752 59.4789L234.718 56.5588Z" fill="#14213A"/>
<path d="M266.153 257.74C265.539 257.928 264.917 258.018 264.594 257.785C264.459 257.687 264.317 257.491 264.392 257.107C264.437 256.904 264.549 256.746 264.737 256.641C265.546 256.167 267.547 256.791 267.63 256.821C267.682 256.836 267.727 256.889 267.735 256.949C267.735 257.01 267.712 257.062 267.66 257.092C267.375 257.258 266.768 257.551 266.153 257.74ZM265.051 256.829C264.991 256.851 264.931 256.874 264.887 256.904C264.774 256.972 264.707 257.062 264.684 257.175C264.624 257.446 264.737 257.521 264.767 257.551C265.126 257.807 266.348 257.438 267.195 257.009C266.58 256.851 265.599 256.663 265.051 256.829Z" fill="#FFB21A"/>
<path d="M267.63 257.1C267.63 257.1 267.585 257.107 267.555 257.1C266.836 256.949 265.239 256.009 265.157 255.301C265.142 255.173 265.164 254.932 265.494 254.789C265.704 254.691 265.929 254.691 266.154 254.789C267.023 255.143 267.698 256.836 267.72 256.904C267.743 256.957 267.728 257.01 267.698 257.055C267.675 257.077 267.653 257.092 267.63 257.1ZM265.681 255.038C265.681 255.038 265.636 255.053 265.621 255.06C265.442 255.143 265.456 255.226 265.456 255.271C265.501 255.692 266.566 256.445 267.323 256.731C267.098 256.249 266.596 255.294 266.041 255.068C265.914 255.015 265.794 255.008 265.681 255.045V255.038Z" fill="#FFB21A"/>
<path d="M222.223 265.823C221.421 265.823 220.649 265.71 220.387 265.348C220.297 265.221 220.222 265.01 220.402 264.701C220.499 264.528 220.657 264.415 220.874 264.355C221.916 264.069 224.097 265.318 224.195 265.371C224.247 265.401 224.277 265.461 224.27 265.522C224.262 265.582 224.21 265.634 224.15 265.642C223.752 265.725 222.98 265.815 222.231 265.815L222.223 265.823ZM221.234 264.603C221.129 264.603 221.032 264.611 220.949 264.641C220.814 264.679 220.717 264.746 220.657 264.852C220.552 265.04 220.589 265.13 220.627 265.183C220.919 265.589 222.501 265.597 223.662 265.431C223.085 265.13 221.961 264.611 221.234 264.611V264.603Z" fill="#FFB21A"/>
<path d="M224.112 265.649C224.112 265.649 224.075 265.65 224.052 265.634C223.295 265.296 221.804 263.934 221.916 263.226C221.946 263.061 222.059 262.85 222.471 262.812C222.778 262.782 223.048 262.865 223.295 263.068C224.09 263.723 224.262 265.416 224.27 265.484C224.27 265.537 224.255 265.589 224.21 265.619C224.187 265.634 224.157 265.649 224.12 265.649H224.112ZM222.583 263.106C222.583 263.106 222.523 263.106 222.493 263.106C222.223 263.136 222.208 263.241 222.201 263.271C222.134 263.7 223.145 264.761 223.917 265.228C223.835 264.731 223.618 263.723 223.093 263.294C222.936 263.166 222.763 263.098 222.576 263.098L222.583 263.106Z" fill="#FFB21A"/>
<path d="M230.993 265.499H224.734L224.112 250.958H230.363L230.993 265.499Z" fill="#FFC3BD"/>
<path d="M274.953 255.572L269.189 257.566L263.208 243.854L268.972 241.859L274.953 255.572Z" fill="#FFC3BD"/>
<path d="M267.818 256.129L274.534 254.059C274.781 253.984 275.044 254.089 275.171 254.315L277.982 259.29C278.274 259.809 277.997 260.464 277.435 260.63C275.081 261.314 273.897 261.525 270.944 262.436C269.13 262.993 264.542 264.739 261.972 265.258C259.453 265.77 258.554 263.294 259.558 262.85C264.07 260.855 265.899 258.59 266.971 256.806C267.166 256.483 267.473 256.249 267.825 256.136L267.818 256.129Z" fill="#232323"/>
<path d="M224.779 264.769H231.608C231.863 264.769 232.087 264.949 232.14 265.198L233.377 270.782C233.504 271.362 233.069 271.911 232.477 271.896C230.011 271.851 226.458 271.708 223.355 271.708C219.735 271.708 218.206 271.904 213.964 271.904C211.4 271.904 210.681 269.3 211.76 269.059C216.654 267.983 219.045 267.87 223.273 265.251C223.73 264.965 224.24 264.761 224.779 264.761V264.769Z" fill="#232323"/>
<path d="M242.955 58.6208C244.777 60.2992 246.351 61.9775 247.985 63.7311C249.581 65.4922 251.133 67.2985 252.602 69.2327C254.086 71.1518 255.487 73.1688 256.769 75.4417C257.406 76.5857 258.013 77.7824 258.523 79.1596C258.65 79.5058 258.778 79.8445 258.883 80.2359C258.995 80.6122 259.108 80.981 259.19 81.4099L259.318 82.0346L259.407 82.727C259.46 83.0582 259.512 83.9764 259.407 84.6462C259.213 86.0611 258.665 87.1448 258.118 87.9878C257.564 88.8232 256.972 89.4403 256.394 89.9822C255.233 91.0509 254.101 91.811 252.969 92.4884C250.713 93.8205 248.479 94.7763 246.238 95.6418C241.741 97.3352 237.266 98.5168 232.611 99.4049L231.3 94.8817C235.37 93.1131 239.492 91.2014 243.315 89.1543C245.219 88.1308 247.07 87.0244 248.644 85.8579C249.424 85.2859 250.128 84.6688 250.585 84.1344C250.818 83.871 250.968 83.6226 251.028 83.4872C251.08 83.3592 251.005 83.3743 250.945 83.6452C250.893 84.1495 250.908 83.7581 250.78 83.4872C250.75 83.3592 250.675 83.1861 250.608 83.0205C250.555 82.8625 250.458 82.6743 250.376 82.4862C250.023 81.7486 249.551 80.9207 249.019 80.1004C247.94 78.4447 246.635 76.7739 245.271 75.1256C243.892 73.4849 242.438 71.8518 240.946 70.2487C239.485 68.6381 237.888 67.0351 236.419 65.5374L242.94 58.6284L242.955 58.6208Z" fill="#FFC3BD"/>
<path d="M233.009 94.1667L227.072 95.9579L230.865 102.22C230.865 102.22 234.358 100.767 235.122 97.7943L233.009 94.1592V94.1667Z" fill="#FFC3BD"/>
<path d="M224.727 98.1707L227.05 103.341L230.865 102.22L227.073 95.958L224.727 98.1707Z" fill="#FFC3BD"/>
<path d="M229.133 60.3218C228.571 66.3352 241.253 75.6525 241.253 75.6525L253.463 67.2609C253.463 67.2609 250.952 61.8571 244.454 57.6651C237.468 53.1569 229.838 52.8333 229.133 60.3143V60.3218Z" fill="#FFB21A"/>
<g opacity="0.3">
<path d="M229.133 60.3218C228.571 66.3352 241.253 75.6525 241.253 75.6525L253.463 67.2609C253.463 67.2609 250.952 61.8571 244.454 57.6651C237.468 53.1569 229.838 52.8333 229.133 60.3143V60.3218Z" fill="#14213A"/>
</g>
<path d="M208.371 59.8401C208.371 59.8401 202.885 68.2844 215.904 113.577L248.989 108.67C248.524 104.079 242.985 84.0516 242.805 62.1582C242.768 57.7102 239.05 54.1805 234.628 54.4063C233.661 54.4589 232.671 54.5267 231.697 54.6245C227.44 55.046 221.301 55.8212 217.636 56.7092C212.801 57.8833 208.371 59.8476 208.371 59.8476V59.8401Z" fill="#FFB21A"/>
<g opacity="0.3">
<path d="M208.371 59.8401C208.371 59.8401 202.885 68.2844 215.904 113.577L248.989 108.67C248.524 104.079 242.985 84.0516 242.805 62.1582C242.768 57.7102 239.05 54.1805 234.628 54.4063C233.661 54.4589 232.671 54.5267 231.697 54.6245C227.44 55.046 221.301 55.8212 217.636 56.7092C212.801 57.8833 208.371 59.8476 208.371 59.8476V59.8401Z" fill="#14213A"/>
</g>
<path opacity="0.2" d="M207.562 74.3882L207.675 74.2603L215.463 74.9527C216.639 79.9952 212.315 86.874 210.028 90.0651C208.702 83.6002 207.952 78.4598 207.57 74.3882H207.562Z" fill="black"/>
<path opacity="0.2" d="M224.112 250.958L224.435 258.455H230.693L230.371 250.958H224.112Z" fill="black"/>
<path opacity="0.2" d="M268.972 241.867L263.208 243.861L266.296 250.928L272.06 248.934L268.972 241.867Z" fill="black"/>
<path d="M227.223 32.6408C228.602 38.7144 229.719 42.199 227.612 46.1502C224.442 52.0883 216.309 51.5163 213.146 45.9771C210.306 40.9948 208.522 31.8957 213.649 27.8015C218.693 23.775 225.844 26.5597 227.223 32.6408Z" fill="#FFC3BD"/>
<path d="M215.072 38.5939L212.771 40.0088L212.989 32.1064C212.989 32.1064 210.575 32.2719 208.821 30.8947C209.653 30.0969 222.605 25.5436 226.645 26.3338C227.065 26.1532 227.575 25.3705 227.575 25.3705C227.575 25.3705 227.732 26.3564 227.043 26.7327C227.545 26.6424 228.774 26.8757 229.119 27.6057C228.032 27.3724 227.402 27.7036 227.402 27.7036C227.402 27.7036 231.93 28.3885 230.311 34.6502C228.519 41.5516 229.111 45.5179 229.111 45.5179C229.111 45.5179 225.768 48.1069 222.853 47.6327C219.75 44.2008 215.275 40.0765 215.065 38.5864L215.072 38.5939Z" fill="#232323"/>
<path d="M210.665 30.2625C207.007 30.2926 205.703 28.4713 204.759 26.966C207.382 26.68 212.846 24.9942 216.909 24.7082C220.971 24.4222 225.401 25.1748 224.059 26.9359C222.718 28.697 210.658 30.2625 210.658 30.2625H210.665Z" fill="#232323"/>
<path d="M211.468 28.6369C208.492 28.2229 205.539 25.3781 207.787 22.6611C208.619 24.6631 214.241 24.4298 218.221 23.5944C223.445 22.4956 227.103 24.2717 225.244 27.8617C224.225 29.826 211.468 28.6444 211.468 28.6444V28.6369Z" fill="#232323"/>
<path d="M218.311 36.7952C218.783 38.3531 218.61 40.054 218.108 41.3109C217.351 43.1999 215.695 42.8161 214.833 41.1829C214.053 39.7078 213.506 36.9532 214.78 35.591C216.032 34.2514 217.763 35.0115 218.311 36.7952Z" fill="#FFC3BD"/>
<path d="M227.643 111.838C227.643 111.838 233.009 157.71 236.907 175.682C241.172 195.363 262.211 249.047 262.211 249.047L272.735 245.404C272.735 245.404 259.243 204.989 255.668 177.473C252.917 156.333 248.997 108.677 248.997 108.677L227.65 111.846L227.643 111.838Z" fill="#232323"/>
<path d="M259.528 245.675C259.483 245.69 261.679 250.183 261.679 250.183L273.934 246.187L272.495 242.514L259.521 245.675H259.528Z" fill="#FFB21A"/>
<path opacity="0.3" d="M230.604 135.372C232.282 148.114 234.434 163.189 236.33 172.86C239.066 158.056 239.763 139.429 230.604 135.372Z" fill="black"/>
<path d="M215.905 113.577C215.905 113.577 211.452 156.671 212.135 175.818C212.839 195.732 222.111 257.009 222.111 257.009H232.702C232.702 257.009 230.753 196.898 231.225 177.338C231.742 156.016 239.703 110.054 239.703 110.054L215.912 113.584L215.905 113.577Z" fill="#232323"/>
<path d="M220.065 252.772C220.012 252.772 220.664 257.19 220.664 257.19H233.549L233.893 253.246L220.065 252.772Z" fill="#FFB21A"/>
<path d="M213.851 70.4219C212.682 72.2884 211.497 73.9668 210.261 75.6978C209.039 77.4137 207.75 79.0845 206.431 80.7403C203.77 84.0367 200.936 87.2278 197.758 90.2382C196.919 90.9683 196.139 91.7209 195.24 92.4283L194.58 92.9627L194.251 93.2261C194.131 93.3239 194.078 93.3766 193.831 93.5497C192.999 94.1593 192.174 94.5356 191.41 94.8066C189.866 95.3334 188.532 95.4613 187.265 95.514C186.006 95.5667 184.829 95.4839 183.69 95.356C179.14 94.7915 175.137 93.5196 171.135 91.7961L172.424 87.2654C176.307 87.6568 180.369 87.9879 183.989 87.8223C184.889 87.7697 185.758 87.6793 186.53 87.5439C187.295 87.4084 187.992 87.1901 188.359 86.9719C188.547 86.874 188.644 86.7762 188.614 86.7536C188.569 86.7837 188.711 86.6558 188.779 86.5881L189.026 86.3547L189.528 85.8806C190.203 85.2785 190.848 84.5485 191.5 83.8862C192.796 82.4863 194.078 81.0488 195.307 79.5135C196.559 78.0158 197.766 76.4504 198.958 74.8774C200.157 73.3044 201.319 71.6863 202.495 70.0833C203.65 68.4802 204.804 66.8019 205.883 65.2365L213.828 70.4219H213.851Z" fill="#FFC3BD"/>
<path d="M218.205 68.4274C220.724 76.6986 206.108 85.888 206.108 85.888L196.604 73.7258C196.604 73.7258 199.242 68.3898 204.474 62.6699C210.935 55.6029 216.286 62.1281 218.205 68.4274Z" fill="#FFB21A"/>
<g opacity="0.3">
<path d="M218.205 68.4274C220.724 76.6986 206.108 85.888 206.108 85.888L196.604 73.7258C196.604 73.7258 199.242 68.3898 204.474 62.6699C210.935 55.6029 216.286 62.1281 218.205 68.4274Z" fill="#14213A"/>
</g>
<path d="M174.628 87.589L166.938 86.1741L167.747 92.8648C167.747 92.8648 171.742 95.1151 174.65 91.5929L174.628 87.5965V87.589Z" fill="#FFC3BD"/>
<path d="M163.977 87.6793L165.641 92.5035L167.739 92.8572L166.93 86.1665L163.977 87.6793Z" fill="#FFC3BD"/>
</g>
<path d="M86.9921 312.54C86.9921 313.272 86.8241 313.944 86.4881 314.556C86.1521 315.156 85.6361 315.642 84.9401 316.014C84.2441 316.386 83.3801 316.572 82.3481 316.572H80.4401V321.108H77.3621V308.472H82.3481C83.3561 308.472 84.2081 308.646 84.9041 308.994C85.6001 309.342 86.1221 309.822 86.4701 310.434C86.8181 311.046 86.9921 311.748 86.9921 312.54ZM82.1141 314.124C82.7021 314.124 83.1401 313.986 83.4281 313.71C83.7161 313.434 83.8601 313.044 83.8601 312.54C83.8601 312.036 83.7161 311.646 83.4281 311.37C83.1401 311.094 82.7021 310.956 82.1141 310.956H80.4401V314.124H82.1141ZM91.6725 312.738C92.0325 312.186 92.4825 311.754 93.0225 311.442C93.5625 311.118 94.1625 310.956 94.8225 310.956V314.214H93.9765C93.2085 314.214 92.6325 314.382 92.2485 314.718C91.8645 315.042 91.6725 315.618 91.6725 316.446V321.108H88.5945V311.064H91.6725V312.738ZM100.866 321.252C99.8817 321.252 98.9937 321.042 98.2017 320.622C97.4217 320.202 96.8037 319.602 96.3477 318.822C95.9037 318.042 95.6817 317.13 95.6817 316.086C95.6817 315.054 95.9097 314.148 96.3657 313.368C96.8217 312.576 97.4457 311.97 98.2377 311.55C99.0297 311.13 99.9177 310.92 100.902 310.92C101.886 310.92 102.774 311.13 103.566 311.55C104.358 311.97 104.982 312.576 105.438 313.368C105.894 314.148 106.122 315.054 106.122 316.086C106.122 317.118 105.888 318.03 105.42 318.822C104.964 319.602 104.334 320.202 103.53 320.622C102.738 321.042 101.85 321.252 100.866 321.252ZM100.866 318.588C101.454 318.588 101.952 318.372 102.36 317.94C102.78 317.508 102.99 316.89 102.99 316.086C102.99 315.282 102.786 314.664 102.378 314.232C101.982 313.8 101.49 313.584 100.902 313.584C100.302 313.584 99.8037 313.8 99.4077 314.232C99.0117 314.652 98.8137 315.27 98.8137 316.086C98.8137 316.89 99.0057 317.508 99.3897 317.94C99.7857 318.372 100.278 318.588 100.866 318.588ZM107.143 316.068C107.143 315.036 107.335 314.13 107.719 313.35C108.115 312.57 108.649 311.97 109.321 311.55C109.993 311.13 110.743 310.92 111.571 310.92C112.231 310.92 112.831 311.058 113.371 311.334C113.923 311.61 114.355 311.982 114.667 312.45V307.788H117.745V321.108H114.667V319.668C114.379 320.148 113.965 320.532 113.425 320.82C112.897 321.108 112.279 321.252 111.571 321.252C110.743 321.252 109.993 321.042 109.321 320.622C108.649 320.19 108.115 319.584 107.719 318.804C107.335 318.012 107.143 317.1 107.143 316.068ZM114.667 316.086C114.667 315.318 114.451 314.712 114.019 314.268C113.599 313.824 113.083 313.602 112.471 313.602C111.859 313.602 111.337 313.824 110.905 314.268C110.485 314.7 110.275 315.3 110.275 316.068C110.275 316.836 110.485 317.448 110.905 317.904C111.337 318.348 111.859 318.57 112.471 318.57C113.083 318.57 113.599 318.348 114.019 317.904C114.451 317.46 114.667 316.854 114.667 316.086ZM129.889 311.064V321.108H126.811V319.74C126.499 320.184 126.073 320.544 125.533 320.82C125.005 321.084 124.417 321.216 123.769 321.216C123.001 321.216 122.323 321.048 121.735 320.712C121.147 320.364 120.691 319.866 120.367 319.218C120.043 318.57 119.881 317.808 119.881 316.932V311.064H122.941V316.518C122.941 317.19 123.115 317.712 123.463 318.084C123.811 318.456 124.279 318.642 124.867 318.642C125.467 318.642 125.941 318.456 126.289 318.084C126.637 317.712 126.811 317.19 126.811 316.518V311.064H129.889ZM131.488 316.086C131.488 315.042 131.698 314.13 132.118 313.35C132.55 312.57 133.144 311.97 133.9 311.55C134.668 311.13 135.544 310.92 136.528 310.92C137.788 310.92 138.838 311.25 139.678 311.91C140.53 312.57 141.088 313.5 141.352 314.7H138.076C137.8 313.932 137.266 313.548 136.474 313.548C135.91 313.548 135.46 313.77 135.124 314.214C134.788 314.646 134.62 315.27 134.62 316.086C134.62 316.902 134.788 317.532 135.124 317.976C135.46 318.408 135.91 318.624 136.474 318.624C137.266 318.624 137.8 318.24 138.076 317.472H141.352C141.088 318.648 140.53 319.572 139.678 320.244C138.826 320.916 137.776 321.252 136.528 321.252C135.544 321.252 134.668 321.042 133.9 320.622C133.144 320.202 132.55 319.602 132.118 318.822C131.698 318.042 131.488 317.13 131.488 316.086ZM148.597 318.498V321.108H147.031C145.915 321.108 145.045 320.838 144.421 320.298C143.797 319.746 143.485 318.852 143.485 317.616V313.62H142.261V311.064H143.485V308.616H146.563V311.064H148.579V313.62H146.563V317.652C146.563 317.952 146.635 318.168 146.779 318.3C146.923 318.432 147.163 318.498 147.499 318.498H148.597ZM160.246 310.956C161.422 310.956 162.358 311.34 163.054 312.108C163.762 312.864 164.116 313.908 164.116 315.24V321.108H161.056V315.654C161.056 314.982 160.882 314.46 160.534 314.088C160.186 313.716 159.718 313.53 159.13 313.53C158.542 313.53 158.074 313.716 157.726 314.088C157.378 314.46 157.204 314.982 157.204 315.654V321.108H154.126V311.064H157.204V312.396C157.516 311.952 157.936 311.604 158.464 311.352C158.992 311.088 159.586 310.956 160.246 310.956ZM170.827 321.252C169.843 321.252 168.955 321.042 168.163 320.622C167.383 320.202 166.765 319.602 166.309 318.822C165.865 318.042 165.643 317.13 165.643 316.086C165.643 315.054 165.871 314.148 166.327 313.368C166.783 312.576 167.407 311.97 168.199 311.55C168.991 311.13 169.879 310.92 170.863 310.92C171.847 310.92 172.735 311.13 173.527 311.55C174.319 311.97 174.943 312.576 175.399 313.368C175.855 314.148 176.083 315.054 176.083 316.086C176.083 317.118 175.849 318.03 175.381 318.822C174.925 319.602 174.295 320.202 173.491 320.622C172.699 321.042 171.811 321.252 170.827 321.252ZM170.827 318.588C171.415 318.588 171.913 318.372 172.321 317.94C172.741 317.508 172.951 316.89 172.951 316.086C172.951 315.282 172.747 314.664 172.339 314.232C171.943 313.8 171.451 313.584 170.863 313.584C170.263 313.584 169.765 313.8 169.369 314.232C168.973 314.652 168.775 315.27 168.775 316.086C168.775 316.89 168.967 317.508 169.351 317.94C169.747 318.372 170.239 318.588 170.827 318.588ZM183.314 318.498V321.108H181.748C180.632 321.108 179.762 320.838 179.138 320.298C178.514 319.746 178.202 318.852 178.202 317.616V313.62H176.978V311.064H178.202V308.616H181.28V311.064H183.296V313.62H181.28V317.652C181.28 317.952 181.352 318.168 181.496 318.3C181.64 318.432 181.88 318.498 182.216 318.498H183.314ZM193.883 313.62H192.227V321.108H189.149V313.62H188.033V311.064H189.149V310.776C189.149 309.54 189.503 308.604 190.211 307.968C190.919 307.32 191.957 306.996 193.325 306.996C193.553 306.996 193.721 307.002 193.829 307.014V309.624C193.241 309.588 192.827 309.672 192.587 309.876C192.347 310.08 192.227 310.446 192.227 310.974V311.064H193.883V313.62ZM199.901 321.252C198.917 321.252 198.029 321.042 197.237 320.622C196.457 320.202 195.839 319.602 195.383 318.822C194.939 318.042 194.717 317.13 194.717 316.086C194.717 315.054 194.945 314.148 195.401 313.368C195.857 312.576 196.481 311.97 197.273 311.55C198.065 311.13 198.953 310.92 199.937 310.92C200.921 310.92 201.809 311.13 202.601 311.55C203.393 311.97 204.017 312.576 204.473 313.368C204.929 314.148 205.157 315.054 205.157 316.086C205.157 317.118 204.923 318.03 204.455 318.822C203.999 319.602 203.369 320.202 202.565 320.622C201.773 321.042 200.885 321.252 199.901 321.252ZM199.901 318.588C200.489 318.588 200.987 318.372 201.395 317.94C201.815 317.508 202.025 316.89 202.025 316.086C202.025 315.282 201.821 314.664 201.413 314.232C201.017 313.8 200.525 313.584 199.937 313.584C199.337 313.584 198.839 313.8 198.443 314.232C198.047 314.652 197.849 315.27 197.849 316.086C197.849 316.89 198.041 317.508 198.425 317.94C198.821 318.372 199.313 318.588 199.901 318.588ZM216.708 311.064V321.108H213.63V319.74C213.318 320.184 212.892 320.544 212.352 320.82C211.824 321.084 211.236 321.216 210.588 321.216C209.82 321.216 209.142 321.048 208.554 320.712C207.966 320.364 207.51 319.866 207.186 319.218C206.862 318.57 206.7 317.808 206.7 316.932V311.064H209.76V316.518C209.76 317.19 209.934 317.712 210.282 318.084C210.63 318.456 211.098 318.642 211.686 318.642C212.286 318.642 212.76 318.456 213.108 318.084C213.456 317.712 213.63 317.19 213.63 316.518V311.064H216.708ZM225.039 310.956C226.215 310.956 227.151 311.34 227.847 312.108C228.555 312.864 228.909 313.908 228.909 315.24V321.108H225.849V315.654C225.849 314.982 225.675 314.46 225.327 314.088C224.979 313.716 224.511 313.53 223.923 313.53C223.335 313.53 222.867 313.716 222.519 314.088C222.171 314.46 221.997 314.982 221.997 315.654V321.108H218.919V311.064H221.997V312.396C222.309 311.952 222.729 311.604 223.257 311.352C223.785 311.088 224.379 310.956 225.039 310.956ZM230.436 316.068C230.436 315.036 230.628 314.13 231.012 313.35C231.408 312.57 231.942 311.97 232.614 311.55C233.286 311.13 234.036 310.92 234.864 310.92C235.524 310.92 236.124 311.058 236.664 311.334C237.216 311.61 237.648 311.982 237.96 312.45V307.788H241.038V321.108H237.96V319.668C237.672 320.148 237.258 320.532 236.718 320.82C236.19 321.108 235.572 321.252 234.864 321.252C234.036 321.252 233.286 321.042 232.614 320.622C231.942 320.19 231.408 319.584 231.012 318.804C230.628 318.012 230.436 317.1 230.436 316.068ZM237.96 316.086C237.96 315.318 237.744 314.712 237.312 314.268C236.892 313.824 236.376 313.602 235.764 313.602C235.152 313.602 234.63 313.824 234.198 314.268C233.778 314.7 233.568 315.3 233.568 316.068C233.568 316.836 233.778 317.448 234.198 317.904C234.63 318.348 235.152 318.57 235.764 318.57C236.376 318.57 236.892 318.348 237.312 317.904C237.744 317.46 237.96 316.854 237.96 316.086ZM247.314 308.022L246.954 316.644H244.344L243.984 308.022H247.314ZM245.694 321.252C245.154 321.252 244.71 321.096 244.362 320.784C244.026 320.46 243.858 320.064 243.858 319.596C243.858 319.116 244.026 318.714 244.362 318.39C244.71 318.066 245.154 317.904 245.694 317.904C246.222 317.904 246.654 318.066 246.99 318.39C247.338 318.714 247.512 319.116 247.512 319.596C247.512 320.064 247.338 320.46 246.99 320.784C246.654 321.096 246.222 321.252 245.694 321.252Z" fill="black"/>
<defs>
<clipPath id="clip0_48_6390">
<rect width="374.769" height="280.431" fill="white"/>
</clipPath>
</defs>
</svg>
