<svg width="375" height="281" viewBox="0 0 375 281" fill="none" xmlns="http://www.w3.org/2000/svg">
<g clip-path="url(#clip0_48_6391)">
<path d="M374.769 246.443H0V246.631H374.769V246.443Z" fill="#536486"/>
<path d="M337.217 258.552H312.393V258.741H337.217V258.552Z" fill="#536486"/>
<path d="M248.263 260.599H241.749V260.788H248.263V260.599Z" fill="#536486"/>
<path d="M311.643 251.568H297.26V251.756H311.643V251.568Z" fill="#536486"/>
<path d="M71.6929 252.833H39.3203V253.021H71.6929V252.833Z" fill="#536486"/>
<path d="M83.1167 252.833H78.3721V253.021H83.1167V252.833Z" fill="#536486"/>
<path d="M168.759 256.009H98.542V256.197H168.759V256.009Z" fill="#536486"/>
<path d="M177.649 212.876H32.9127C30.5516 212.876 28.6328 210.95 28.6328 208.579V4.29741C28.6328 1.92669 30.5516 0 32.9127 0H177.649C180.01 0 181.928 1.92669 181.928 4.29741V208.579C181.928 210.95 180.01 212.876 177.649 212.876ZM32.9127 0.188153C30.6566 0.188153 28.8202 2.03205 28.8202 4.29741V208.579C28.8202 210.844 30.6566 212.688 32.9127 212.688H177.649C179.905 212.688 181.741 210.844 181.741 208.579V4.29741C181.741 2.03205 179.905 0.188153 177.649 0.188153H32.9127Z" fill="#536486"/>
<path d="M339.774 212.876H195.038C192.677 212.876 190.758 210.95 190.758 208.579V4.29741C190.758 1.92669 192.677 0 195.038 0H339.774C342.135 0 344.053 1.92669 344.053 4.29741V208.579C344.053 210.95 342.135 212.876 339.774 212.876ZM195.038 0.188153C192.782 0.188153 190.945 2.03205 190.945 4.29741V208.579C190.945 210.844 192.782 212.688 195.038 212.688H339.774C342.03 212.688 343.866 210.844 343.866 208.579V4.29741C343.866 2.03205 342.03 0.188153 339.774 0.188153H195.038Z" fill="#536486"/>
<path d="M163.736 173.786H68.9795V180.499H163.736V173.786Z" fill="#536486"/>
<path d="M163.736 173.786H122.534V180.499H163.736V173.786Z" fill="#3B4965"/>
<path d="M82.9809 180.506H68.9795V246.443H82.9809V180.506Z" fill="#536486"/>
<path d="M82.9809 187.31L68.9795 182.523V180.506H82.9809V187.31Z" fill="#3B4965"/>
<path d="M163.736 180.506H149.734V246.443H163.736V180.506Z" fill="#3B4965"/>
<path d="M136.536 180.506H122.534V246.443H136.536V180.506Z" fill="#536486"/>
<path d="M136.528 187.31L122.534 182.523V180.506H136.528V187.31Z" fill="#3B4965"/>
<path d="M110.182 180.506H96.1807V246.443H110.182V180.506Z" fill="#3B4965"/>
<path d="M172.641 24.2416H53.2168V126.348H172.641V24.2416Z" fill="#536486"/>
<path d="M172.64 126.349H173.975V24.2416H172.64V126.349Z" fill="#3B4965"/>
<path d="M168.144 121.833V28.7572L57.7141 28.7572V121.833H168.144Z" fill="#14213A"/>
<path d="M111.599 107.699C118.329 85.0978 120.218 51.8172 134.572 56.4157C148.926 61.0066 130.12 110.25 130.12 110.25L111.599 107.699Z" fill="#14213A"/>
<path d="M123.186 108.828C116.321 76.1041 118.052 32.6558 96.7201 33.6568C75.3882 34.6502 96.7201 110.25 96.7201 110.25L123.186 108.828Z" fill="#14213A"/>
<path d="M138.259 105.155H91.5628C89.4866 105.155 87.9125 106.683 87.8226 108.617C86.8707 130.217 90.3935 152.231 96.952 173.786H132.712C139.271 152.231 142.794 130.217 141.842 108.617C141.759 106.683 140.185 105.155 138.252 105.155H138.259Z" fill="#536486"/>
<path d="M244.499 35.6362H241.868V246.443H244.499V35.6362Z" fill="#3B4965"/>
<path d="M306.328 35.6362H303.697V246.443H306.328V35.6362Z" fill="#3B4965"/>
<path d="M225.843 35.6362H223.212V246.443H225.843V35.6362Z" fill="#536486"/>
<path d="M287.672 35.6362H285.041V246.443H287.672V35.6362Z" fill="#536486"/>
<path d="M306.328 34.1912H223.212V37.0737H306.328V34.1912Z" fill="#536486"/>
<path d="M306.328 85.8129H223.212V88.6954H306.328V85.8129Z" fill="#536486"/>
<path d="M306.328 137.434H223.212V140.317H306.328V137.434Z" fill="#536486"/>
<path d="M306.328 189.056H223.212V191.939H306.328V189.056Z" fill="#536486"/>
<path d="M306.328 240.678H223.212V243.56H306.328V240.678Z" fill="#536486"/>
<path d="M306.328 34.1912H287.672V37.0737H306.328V34.1912Z" fill="#3B4965"/>
<path d="M306.328 85.8129H287.672V88.6954H306.328V85.8129Z" fill="#3B4965"/>
<path d="M306.328 137.434H287.672V140.317H306.328V137.434Z" fill="#3B4965"/>
<path d="M306.328 189.056H287.672V191.939H306.328V189.056Z" fill="#3B4965"/>
<path d="M306.328 240.678H287.672V243.56H306.328V240.678Z" fill="#3B4965"/>
<path d="M256.738 51.7497V47.6855H246.747V51.7497C246.747 54.4064 244.603 56.5588 241.958 56.5588C239.312 56.5588 237.168 58.7113 237.168 61.368V85.8204H266.31V61.368C266.31 58.7113 264.166 56.5588 261.52 56.5588C258.875 56.5588 256.731 54.4064 256.731 51.7497H256.738Z" fill="#345086"/>
<path d="M277.419 120.644H233.631V137.434H277.419V120.644Z" fill="#345086"/>
<path d="M277.419 137.434H285.042V120.644H277.419V137.434Z" fill="#203A6B"/>
<path d="M277.419 129.961H285.042V128.11H277.419V129.961Z" fill="#536486"/>
<path d="M277.419 128.117H233.631V129.968H277.419V128.117Z" fill="#14213A"/>
<path d="M265.689 210.995H231.487V240.678H265.689V210.995Z" fill="#345086"/>
<path d="M265.688 240.678H271.64V210.995H265.688V240.678Z" fill="#203A6B"/>
<path d="M265.688 227.469H271.64V224.196H265.688V227.469Z" fill="#536486"/>
<path d="M265.689 224.203H231.487V227.477H265.689V224.203Z" fill="#14213A"/>
<path d="M265.688 221.908H271.64V220.741H265.688V221.908Z" fill="#536486"/>
<path d="M265.689 220.741H231.487V221.908H265.689V220.741Z" fill="#14213A"/>
<path d="M239.822 158.876H233.631V189.056H239.822V158.876Z" fill="#345086"/>
<path d="M239.822 169.631H233.631V178.301H239.822V169.631Z" fill="#787878"/>
<path d="M239.822 189.056H260.884V158.876H239.822V189.056Z" fill="#203A6B"/>
<path d="M249.386 154.978H242.393V189.056H249.386V154.978Z" fill="#536486"/>
<path d="M249.386 165.808H242.393V171.054H249.386V165.808Z" fill="#787878"/>
<path d="M249.386 174.568H242.393V179.814H249.386V174.568Z" fill="#787878"/>
<path d="M249.393 189.049H273.176V154.97H249.393V189.049Z" fill="#3B4965"/>
<path d="M257.173 158.876H253.403V189.056H257.173V158.876Z" fill="#345086"/>
<path d="M256.521 162.7H254.048V185.233H256.521V162.7Z" fill="#787878"/>
<path d="M257.166 189.056H269.976V158.876H257.166V189.056Z" fill="#203A6B"/>
<path d="M267.24 157.281H262.982V189.049H267.24V157.281Z" fill="#536486"/>
<path d="M267.24 167.381H262.982V172.273H267.24V167.381Z" fill="#787878"/>
<path d="M267.24 175.547H262.982V180.439H267.24V175.547Z" fill="#787878"/>
<path d="M267.24 189.056H281.706V157.288H267.24V189.056Z" fill="#3B4965"/>
<path d="M265.307 117.905C268.948 114.249 268.948 108.321 265.307 104.665C261.666 101.008 255.762 101.008 252.121 104.665C248.479 108.321 248.479 114.249 252.121 117.905C255.762 121.561 261.666 121.561 265.307 117.905Z" fill="#14213A"/>
<path d="M270.063 120.546C273.585 119.972 275.977 116.64 275.406 113.103C274.834 109.567 271.515 107.165 267.993 107.739C264.471 108.313 262.079 111.646 262.65 115.182C263.222 118.719 266.541 121.121 270.063 120.546Z" fill="#536486"/>
<path d="M187.385 280.431C267.647 280.431 332.713 276.616 332.713 271.911C332.713 267.206 267.647 263.392 187.385 263.392C107.122 263.392 42.0566 267.206 42.0566 271.911C42.0566 276.616 107.122 280.431 187.385 280.431Z" fill="#FFFCFE" fill-opacity="0.34"/>
<path d="M94.5244 213.546H190.795V263.474C190.795 266.161 188.621 268.344 185.946 268.344H99.3739C96.6981 268.344 94.5244 266.161 94.5244 263.474V213.546Z" fill="#FFB21A"/>
<path d="M94.5242 213.546H162.642L154.262 202.776C153.34 201.595 151.062 200.639 149.166 200.639H87.9057C86.0094 200.639 85.2224 201.595 86.1368 202.776L94.5167 213.546H94.5242Z" fill="#FFB21A"/>
<path opacity="0.2" d="M94.5242 213.546H162.642L154.262 202.776C153.34 201.595 151.062 200.639 149.166 200.639H87.9057C86.0094 200.639 85.2224 201.595 86.1368 202.776L94.5167 213.546H94.5242Z" fill="black"/>
<path d="M190.795 213.546H122.677L131.057 206.524C131.979 205.757 134.257 205.132 136.153 205.132H197.413C199.31 205.132 200.097 205.757 199.182 206.524L190.802 213.546H190.795Z" fill="#FFB21A"/>
<path opacity="0.2" d="M122.677 213.546H190.795V263.474C190.795 266.161 188.621 268.344 185.945 268.344H127.526C124.85 268.344 122.677 266.161 122.677 263.474V213.546Z" fill="#14213A"/>
<path opacity="0.5" d="M102.979 213.546V247.775L105.332 245.908L106.989 247.775L108.428 245.698L109.904 247.775L111.958 246.21L114.222 247.775V213.546H102.979Z" fill="#14213A"/>
<path d="M118.217 138.879L106.112 128.674" stroke="#FFB21A" stroke-miterlimit="10"/>
<path d="M124.49 144.163L120.803 141.055" stroke="#FFB21A" stroke-miterlimit="10"/>
<path d="M160.754 165.53L200.689 115.413L147.517 70.5951L112.259 111.183L107.042 121.336C105.948 122.601 106.097 124.369 107.394 125.468L155.372 165.913C156.924 167.215 159.442 167.042 160.746 165.537L160.754 165.53Z" fill="#FFB21A"/>
<path opacity="0.5" d="M133.365 128.569L127.616 137.863L129.932 138.368L130.719 140.52L132.256 140.611L132.968 142.454L134.849 143.004L136.296 145.314L142.045 136.012L133.365 128.569Z" fill="#14213A"/>
<path opacity="0.1" d="M198.95 113.938L163.137 154.06L112.266 111.176L147.516 70.5875L198.95 113.938Z" fill="black"/>
<path d="M198.95 113.938L163.137 154.06L177.963 155.159L213.221 114.57L198.95 113.938Z" fill="#FFB21A"/>
<path opacity="0.3" d="M198.95 113.938L163.137 154.06L177.963 155.159L213.221 114.57L198.95 113.938Z" fill="black"/>
<path d="M133.253 69.9553L97.4326 110.07L112.266 111.176L147.517 70.5875L133.253 69.9553Z" fill="#FFB21A"/>
<path opacity="0.4" d="M133.253 69.9553L97.4326 110.07L112.266 111.176L147.517 70.5875L133.253 69.9553Z" fill="black"/>
<path opacity="0.1" d="M187.924 126.296L198.95 113.938L147.516 70.5875L140.936 86.5128L187.924 126.296Z" fill="black"/>
<path opacity="0.2" d="M112.266 111.176L147.516 70.5875L140.935 86.5128L116.111 114.412L112.266 111.176Z" fill="black"/>
<path d="M211.377 38.4209C211.519 38.9101 211.377 39.3767 211.062 39.467C210.747 39.5573 210.373 39.2412 210.23 38.7595C210.088 38.2779 210.23 37.8037 210.545 37.7134C210.86 37.6231 211.234 37.9392 211.377 38.4209Z" fill="#232323"/>
<path d="M211.422 39.3691C211.422 39.3691 211.145 42.5 210.328 44.2084C211.415 44.7578 212.764 43.9601 212.764 43.9601L211.422 39.3691Z" fill="#ED847E"/>
<path d="M212.367 35.2072C212.427 35.1771 212.48 35.1169 212.51 35.0417C212.562 34.8836 212.48 34.718 212.33 34.6653C210.786 34.1159 209.691 34.9438 209.646 34.9739C209.519 35.0718 209.489 35.2599 209.594 35.3879C209.691 35.5158 209.879 35.5384 210.006 35.4405C210.006 35.4405 210.906 34.7782 212.135 35.2148C212.217 35.2449 212.3 35.2373 212.375 35.1997L212.367 35.2072Z" fill="#232323"/>
<path d="M228.04 41.642C228.37 45.6308 229.352 52.9537 231.698 54.617C231.698 54.617 231.136 59.4111 222.733 60.6529C213.484 62.0227 217.636 56.7017 217.636 56.7017C222.501 54.7449 221.819 51.0044 220.425 47.6026L224 43.4934C225.342 41.9505 227.875 39.6024 228.048 41.642H228.04Z" fill="#FFC3BD"/>
<path d="M234.718 56.5588C235.468 55.8739 233.954 53.1344 233.047 52.7581C230.633 51.7421 220.755 52.743 217.044 55.9492C215.98 57.6425 216.752 59.4789 216.752 59.4789L234.718 56.5588Z" fill="#14213A"/>
<path d="M266.153 257.74C265.539 257.928 264.917 258.018 264.594 257.785C264.459 257.687 264.317 257.491 264.392 257.107C264.437 256.904 264.549 256.746 264.737 256.641C265.546 256.167 267.547 256.791 267.63 256.821C267.682 256.836 267.727 256.889 267.735 256.949C267.735 257.01 267.712 257.062 267.66 257.092C267.375 257.258 266.768 257.551 266.153 257.74ZM265.051 256.829C264.991 256.851 264.931 256.874 264.887 256.904C264.774 256.972 264.707 257.062 264.684 257.175C264.624 257.446 264.737 257.521 264.767 257.551C265.126 257.807 266.348 257.438 267.195 257.009C266.58 256.851 265.599 256.663 265.051 256.829Z" fill="#FFB21A"/>
<path d="M267.63 257.1C267.63 257.1 267.585 257.107 267.555 257.1C266.836 256.949 265.239 256.009 265.157 255.301C265.142 255.173 265.164 254.932 265.494 254.789C265.704 254.691 265.929 254.691 266.154 254.789C267.023 255.143 267.698 256.836 267.72 256.904C267.743 256.957 267.728 257.01 267.698 257.055C267.675 257.077 267.653 257.092 267.63 257.1ZM265.681 255.038C265.681 255.038 265.636 255.053 265.621 255.06C265.442 255.143 265.456 255.226 265.456 255.271C265.501 255.692 266.566 256.445 267.323 256.731C267.098 256.249 266.596 255.294 266.041 255.068C265.914 255.015 265.794 255.008 265.681 255.045V255.038Z" fill="#FFB21A"/>
<path d="M222.223 265.823C221.421 265.823 220.649 265.71 220.387 265.348C220.297 265.221 220.222 265.01 220.402 264.701C220.499 264.528 220.657 264.415 220.874 264.355C221.916 264.069 224.097 265.318 224.195 265.371C224.247 265.401 224.277 265.461 224.27 265.522C224.262 265.582 224.21 265.634 224.15 265.642C223.752 265.725 222.98 265.815 222.231 265.815L222.223 265.823ZM221.234 264.603C221.129 264.603 221.032 264.611 220.949 264.641C220.814 264.679 220.717 264.746 220.657 264.852C220.552 265.04 220.589 265.13 220.627 265.183C220.919 265.589 222.501 265.597 223.662 265.431C223.085 265.13 221.961 264.611 221.234 264.611V264.603Z" fill="#FFB21A"/>
<path d="M224.112 265.649C224.112 265.649 224.075 265.65 224.052 265.634C223.295 265.296 221.804 263.934 221.916 263.226C221.946 263.061 222.059 262.85 222.471 262.812C222.778 262.782 223.048 262.865 223.295 263.068C224.09 263.723 224.262 265.416 224.27 265.484C224.27 265.537 224.255 265.589 224.21 265.619C224.187 265.634 224.157 265.649 224.12 265.649H224.112ZM222.583 263.106C222.583 263.106 222.523 263.106 222.493 263.106C222.223 263.136 222.208 263.241 222.201 263.271C222.134 263.7 223.145 264.761 223.917 265.228C223.835 264.731 223.618 263.723 223.093 263.294C222.936 263.166 222.763 263.098 222.576 263.098L222.583 263.106Z" fill="#FFB21A"/>
<path d="M230.993 265.499H224.734L224.112 250.958H230.363L230.993 265.499Z" fill="#FFC3BD"/>
<path d="M274.953 255.572L269.189 257.566L263.208 243.854L268.972 241.859L274.953 255.572Z" fill="#FFC3BD"/>
<path d="M267.818 256.129L274.534 254.059C274.781 253.984 275.044 254.089 275.171 254.315L277.982 259.29C278.274 259.809 277.997 260.464 277.435 260.63C275.081 261.314 273.897 261.525 270.944 262.436C269.13 262.993 264.542 264.739 261.972 265.258C259.453 265.77 258.554 263.294 259.558 262.85C264.07 260.855 265.899 258.59 266.971 256.806C267.166 256.483 267.473 256.249 267.825 256.136L267.818 256.129Z" fill="#232323"/>
<path d="M224.779 264.769H231.608C231.863 264.769 232.087 264.949 232.14 265.198L233.377 270.782C233.504 271.362 233.069 271.911 232.477 271.896C230.011 271.851 226.458 271.708 223.355 271.708C219.735 271.708 218.206 271.904 213.964 271.904C211.4 271.904 210.681 269.3 211.76 269.059C216.654 267.983 219.045 267.87 223.273 265.251C223.73 264.965 224.24 264.761 224.779 264.761V264.769Z" fill="#232323"/>
<path d="M242.955 58.6208C244.777 60.2992 246.351 61.9775 247.985 63.7311C249.581 65.4922 251.133 67.2985 252.602 69.2327C254.086 71.1518 255.487 73.1688 256.769 75.4417C257.406 76.5857 258.013 77.7824 258.523 79.1596C258.65 79.5058 258.778 79.8445 258.883 80.2359C258.995 80.6122 259.108 80.981 259.19 81.4099L259.318 82.0346L259.407 82.727C259.46 83.0582 259.512 83.9764 259.407 84.6462C259.213 86.0611 258.665 87.1448 258.118 87.9878C257.564 88.8232 256.972 89.4403 256.394 89.9822C255.233 91.0509 254.101 91.811 252.969 92.4884C250.713 93.8205 248.479 94.7763 246.238 95.6418C241.741 97.3352 237.266 98.5168 232.611 99.4049L231.3 94.8817C235.37 93.1131 239.492 91.2014 243.315 89.1543C245.219 88.1308 247.07 87.0244 248.644 85.8579C249.424 85.2859 250.128 84.6688 250.585 84.1344C250.818 83.871 250.968 83.6226 251.028 83.4872C251.08 83.3592 251.005 83.3743 250.945 83.6452C250.893 84.1495 250.908 83.7581 250.78 83.4872C250.75 83.3592 250.675 83.1861 250.608 83.0205C250.555 82.8625 250.458 82.6743 250.376 82.4862C250.023 81.7486 249.551 80.9207 249.019 80.1004C247.94 78.4447 246.635 76.7739 245.271 75.1256C243.892 73.4849 242.438 71.8518 240.946 70.2487C239.485 68.6381 237.888 67.0351 236.419 65.5374L242.94 58.6284L242.955 58.6208Z" fill="#FFC3BD"/>
<path d="M233.009 94.1667L227.072 95.9579L230.865 102.22C230.865 102.22 234.358 100.767 235.122 97.7943L233.009 94.1592V94.1667Z" fill="#FFC3BD"/>
<path d="M224.727 98.1707L227.05 103.341L230.865 102.22L227.073 95.958L224.727 98.1707Z" fill="#FFC3BD"/>
<path d="M229.133 60.3218C228.571 66.3352 241.253 75.6525 241.253 75.6525L253.463 67.2609C253.463 67.2609 250.952 61.8571 244.454 57.6651C237.468 53.1569 229.838 52.8333 229.133 60.3143V60.3218Z" fill="#FFB21A"/>
<g opacity="0.3">
<path d="M229.133 60.3218C228.571 66.3352 241.253 75.6525 241.253 75.6525L253.463 67.2609C253.463 67.2609 250.952 61.8571 244.454 57.6651C237.468 53.1569 229.838 52.8333 229.133 60.3143V60.3218Z" fill="#14213A"/>
</g>
<path d="M208.371 59.8401C208.371 59.8401 202.885 68.2844 215.904 113.577L248.989 108.67C248.524 104.079 242.985 84.0516 242.805 62.1582C242.768 57.7102 239.05 54.1805 234.628 54.4063C233.661 54.4589 232.671 54.5267 231.697 54.6245C227.44 55.046 221.301 55.8212 217.636 56.7092C212.801 57.8833 208.371 59.8476 208.371 59.8476V59.8401Z" fill="#FFB21A"/>
<g opacity="0.3">
<path d="M208.371 59.8401C208.371 59.8401 202.885 68.2844 215.904 113.577L248.989 108.67C248.524 104.079 242.985 84.0516 242.805 62.1582C242.768 57.7102 239.05 54.1805 234.628 54.4063C233.661 54.4589 232.671 54.5267 231.697 54.6245C227.44 55.046 221.301 55.8212 217.636 56.7092C212.801 57.8833 208.371 59.8476 208.371 59.8476V59.8401Z" fill="#14213A"/>
</g>
<path opacity="0.2" d="M207.562 74.3882L207.675 74.2603L215.463 74.9527C216.639 79.9952 212.315 86.874 210.028 90.0651C208.702 83.6002 207.952 78.4598 207.57 74.3882H207.562Z" fill="black"/>
<path opacity="0.2" d="M224.112 250.958L224.435 258.455H230.693L230.371 250.958H224.112Z" fill="black"/>
<path opacity="0.2" d="M268.972 241.867L263.208 243.861L266.296 250.928L272.06 248.934L268.972 241.867Z" fill="black"/>
<path d="M227.223 32.6408C228.602 38.7144 229.719 42.199 227.612 46.1502C224.442 52.0883 216.309 51.5163 213.146 45.9771C210.306 40.9948 208.522 31.8957 213.649 27.8015C218.693 23.775 225.844 26.5597 227.223 32.6408Z" fill="#FFC3BD"/>
<path d="M215.072 38.5939L212.771 40.0088L212.989 32.1064C212.989 32.1064 210.575 32.2719 208.821 30.8947C209.653 30.0969 222.605 25.5436 226.645 26.3338C227.065 26.1532 227.575 25.3705 227.575 25.3705C227.575 25.3705 227.732 26.3564 227.043 26.7327C227.545 26.6424 228.774 26.8757 229.119 27.6057C228.032 27.3724 227.402 27.7036 227.402 27.7036C227.402 27.7036 231.93 28.3885 230.311 34.6502C228.519 41.5516 229.111 45.5179 229.111 45.5179C229.111 45.5179 225.768 48.1069 222.853 47.6327C219.75 44.2008 215.275 40.0765 215.065 38.5864L215.072 38.5939Z" fill="#232323"/>
<path d="M210.665 30.2625C207.007 30.2926 205.703 28.4713 204.759 26.966C207.382 26.68 212.846 24.9942 216.909 24.7082C220.971 24.4222 225.401 25.1748 224.059 26.9359C222.718 28.697 210.658 30.2625 210.658 30.2625H210.665Z" fill="#232323"/>
<path d="M211.468 28.6369C208.492 28.2229 205.539 25.3781 207.787 22.6611C208.619 24.6631 214.241 24.4298 218.221 23.5944C223.445 22.4956 227.103 24.2717 225.244 27.8617C224.225 29.826 211.468 28.6444 211.468 28.6444V28.6369Z" fill="#232323"/>
<path d="M218.311 36.7952C218.783 38.3531 218.61 40.054 218.108 41.3109C217.351 43.1999 215.695 42.8161 214.833 41.1829C214.053 39.7078 213.506 36.9532 214.78 35.591C216.032 34.2514 217.763 35.0115 218.311 36.7952Z" fill="#FFC3BD"/>
<path d="M227.643 111.838C227.643 111.838 233.009 157.71 236.907 175.682C241.172 195.363 262.211 249.047 262.211 249.047L272.735 245.404C272.735 245.404 259.243 204.989 255.668 177.473C252.917 156.333 248.997 108.677 248.997 108.677L227.65 111.846L227.643 111.838Z" fill="#232323"/>
<path d="M259.528 245.675C259.483 245.69 261.679 250.183 261.679 250.183L273.934 246.187L272.495 242.514L259.521 245.675H259.528Z" fill="#FFB21A"/>
<path opacity="0.3" d="M230.604 135.372C232.282 148.114 234.434 163.189 236.33 172.86C239.066 158.056 239.763 139.429 230.604 135.372Z" fill="black"/>
<path d="M215.905 113.577C215.905 113.577 211.452 156.671 212.135 175.818C212.839 195.732 222.111 257.009 222.111 257.009H232.702C232.702 257.009 230.753 196.898 231.225 177.338C231.742 156.016 239.703 110.054 239.703 110.054L215.912 113.584L215.905 113.577Z" fill="#232323"/>
<path d="M220.065 252.772C220.012 252.772 220.664 257.19 220.664 257.19H233.549L233.893 253.246L220.065 252.772Z" fill="#FFB21A"/>
<path d="M213.851 70.4219C212.682 72.2884 211.497 73.9668 210.261 75.6978C209.039 77.4137 207.75 79.0845 206.431 80.7403C203.77 84.0367 200.936 87.2278 197.758 90.2382C196.919 90.9683 196.139 91.7209 195.24 92.4283L194.58 92.9627L194.251 93.2261C194.131 93.3239 194.078 93.3766 193.831 93.5497C192.999 94.1593 192.174 94.5356 191.41 94.8066C189.866 95.3334 188.532 95.4613 187.265 95.514C186.006 95.5667 184.829 95.4839 183.69 95.356C179.14 94.7915 175.137 93.5196 171.135 91.7961L172.424 87.2654C176.307 87.6568 180.369 87.9879 183.989 87.8223C184.889 87.7697 185.758 87.6793 186.53 87.5439C187.295 87.4084 187.992 87.1901 188.359 86.9719C188.547 86.874 188.644 86.7762 188.614 86.7536C188.569 86.7837 188.711 86.6558 188.779 86.5881L189.026 86.3547L189.528 85.8806C190.203 85.2785 190.848 84.5485 191.5 83.8862C192.796 82.4863 194.078 81.0488 195.307 79.5135C196.559 78.0158 197.766 76.4504 198.958 74.8774C200.157 73.3044 201.319 71.6863 202.495 70.0833C203.65 68.4802 204.804 66.8019 205.883 65.2365L213.828 70.4219H213.851Z" fill="#FFC3BD"/>
<path d="M218.205 68.4274C220.724 76.6986 206.108 85.888 206.108 85.888L196.604 73.7258C196.604 73.7258 199.242 68.3898 204.474 62.6699C210.935 55.6029 216.286 62.1281 218.205 68.4274Z" fill="#FFB21A"/>
<g opacity="0.3">
<path d="M218.205 68.4274C220.724 76.6986 206.108 85.888 206.108 85.888L196.604 73.7258C196.604 73.7258 199.242 68.3898 204.474 62.6699C210.935 55.6029 216.286 62.1281 218.205 68.4274Z" fill="#14213A"/>
</g>
<path d="M174.628 87.589L166.938 86.1741L167.747 92.8648C167.747 92.8648 171.742 95.1151 174.65 91.5929L174.628 87.5965V87.589Z" fill="#FFC3BD"/>
<path d="M163.977 87.6793L165.641 92.5035L167.739 92.8572L166.93 86.1665L163.977 87.6793Z" fill="#FFC3BD"/>
</g>
<defs>
<clipPath id="clip0_48_6391">
<rect width="374.769" height="280.431" fill="white"/>
</clipPath>
</defs>
</svg>
