<svg width="28" height="30" viewBox="0 0 28 30" fill="none" xmlns="http://www.w3.org/2000/svg">
<path d="M26.8149 16.02H22.1258C20.8083 16.02 19.6324 16.7567 19.0374 17.9184L17.9041 20.1567C17.6349 20.695 17.0966 21.0209 16.5016 21.0209H12.0958C11.6849 21.0209 11.0758 20.9359 10.6933 20.1425L9.57409 17.9184C8.97909 16.7425 7.80325 16.0059 6.48575 16.0059H1.76825C1.25825 16.02 0.833252 16.445 0.833252 16.955V21.3325C0.833252 26.2484 3.76575 29.1667 8.66742 29.1667H19.9441C24.5624 29.1667 27.4099 26.6309 27.7499 22.14V16.955C27.7499 16.445 27.3249 16.02 26.8149 16.02Z" fill="white"/>
<path d="M26.8149 16.02H22.1258C20.8083 16.02 19.6324 16.7567 19.0374 17.9184L17.9041 20.1567C17.6349 20.695 17.0966 21.0209 16.5016 21.0209H12.0958C11.6849 21.0209 11.0758 20.9359 10.6933 20.1425L9.57409 17.9184C8.97909 16.7425 7.80325 16.0059 6.48575 16.0059H1.76825C1.25825 16.02 0.833252 16.445 0.833252 16.955V21.3325C0.833252 26.2484 3.76575 29.1667 8.66742 29.1667H19.9441C24.5624 29.1667 27.4099 26.6309 27.7499 22.14V16.955C27.7499 16.445 27.3249 16.02 26.8149 16.02Z" fill="white"/>
<path d="M1.76833 13.1465L6.4575 13.1465C7.775 13.1465 8.95083 12.4098 9.54583 11.2481L10.6792 9.00981C10.9483 8.47148 11.4867 8.14564 12.0817 8.14564L16.4875 8.14564C16.8983 8.14564 17.5075 8.23064 17.89 9.02398L19.0092 11.2481C19.6042 12.424 20.78 13.1606 22.0975 13.1606L26.815 13.1606C27.325 13.1465 27.75 12.7215 27.75 12.2115L27.75 7.83398C27.75 2.91815 24.8175 -0.000189084 19.9158 -0.000189512L8.63917 -0.000190498C4.02083 -0.000190902 1.17333 2.53564 0.833333 7.02647L0.833332 12.2115C0.833332 12.7215 1.25833 13.1465 1.76833 13.1465Z" fill="white"/>
<path d="M27.7499 12.7333V14.0508C27.4524 13.9517 27.1408 13.895 26.8149 13.895H22.1258C20.0008 13.895 18.0883 15.0708 17.1533 16.9692L16.1616 18.91H12.4358L11.4724 16.9833C10.5091 15.0708 8.61075 13.895 6.48575 13.895H1.76825C1.44242 13.895 1.13075 13.9517 0.833252 14.0508V10.07C0.833252 5.74917 4.33242 2.25 8.65325 2.25H17.2666C18.1733 2.25 18.8249 3.07167 18.6549 3.95C18.4283 5.08333 18.5274 6.31583 19.0799 7.61917C19.7174 9.0925 20.9074 10.2825 22.3808 10.92C23.6841 11.4725 27.7499 7.61917 27.7499 7.61917C27.7499 7.61917 27.7499 11.8267 27.7499 12.7333Z" fill="white"/>
</svg>
