<svg width="64" height="70" viewBox="0 0 64 70" fill="none" xmlns="http://www.w3.org/2000/svg">
<path d="M0.609314 9.46325C0.609314 4.47927 4.64963 0.438965 9.63361 0.438965H54.7551C59.7391 0.438965 63.7794 4.47928 63.7794 9.46326V59.9993C63.7794 64.9833 59.7391 69.0236 54.7551 69.0236H9.63361C4.64963 69.0236 0.609314 64.9833 0.609314 59.9993V9.46325Z" fill="#0075E2"/>
<g clip-path="url(#clip0_911_1990)">
<g clip-path="url(#clip1_911_1990)">
<path d="M23.4845 49.1702H40.9043C41.9409 49.1702 42.8038 48.3774 42.8038 47.4031V26.2742C42.8038 25.2997 41.9409 24.4985 40.9043 24.4985H38.0327V26.1119C38.0369 26.3919 37.8159 26.6237 37.5361 26.633H26.8186C26.5331 26.6261 26.3026 26.3973 26.2933 26.1119V24.4985H23.4845C22.4479 24.4985 21.585 25.2997 21.585 26.2742V47.4031C21.585 48.3774 22.4479 49.1702 23.4845 49.1702ZM27.3605 32.9735C27.3605 32.6962 27.5854 32.4713 27.8627 32.4713H30.4366V29.8974C30.4366 29.6201 30.6615 29.3952 30.9388 29.3952H33.4499C33.7273 29.3952 33.9522 29.6201 33.9522 29.8974V32.4713H36.5261C36.8034 32.4713 37.0283 32.6962 37.0283 32.9735V35.4846C37.0283 35.762 36.8034 35.9869 36.5261 35.9869H33.9522V38.5607C33.9522 38.8381 33.7273 39.063 33.4499 39.063H30.9388C30.6615 39.063 30.4366 38.8381 30.4366 38.5607V35.9869H27.8627C27.5854 35.9869 27.3605 35.762 27.3605 35.4846V32.9735ZM27.565 41.6368H36.8238C37.1014 41.6368 37.326 41.8617 37.326 42.1391C37.326 42.4164 37.1014 42.6413 36.8238 42.6413H27.565C27.2874 42.6413 27.0628 42.4164 27.0628 42.1391C27.0628 41.8617 27.2874 41.6368 27.565 41.6368ZM25.6817 44.148H38.7071C38.9847 44.148 39.2093 44.3728 39.2093 44.6502C39.2093 44.9275 38.9847 45.1524 38.7071 45.1524H25.6817C25.4041 45.1524 25.1795 44.9275 25.1795 44.6502C25.1795 44.3728 25.4041 44.148 25.6817 44.148Z" fill="white"/>
<path d="M37.0282 22.2386H34.678C34.4416 22.2383 34.2371 22.0733 34.1873 21.8421C33.9931 20.9445 33.1407 20.2925 32.1602 20.2925H32.1541C31.1999 20.2915 30.3664 20.9372 30.129 21.8612C30.0719 22.0831 29.8718 22.2383 29.6425 22.2386H27.2977V25.6286H37.0282V22.2386Z" fill="white"/>
<path d="M31.441 35.4849V38.0588H32.9476V35.4849C32.9476 35.2075 33.1725 34.9827 33.4499 34.9827H36.0237V33.476H33.4499C33.1725 33.476 32.9476 33.2511 32.9476 32.9738V30.3999H31.441V32.9738C31.441 33.2511 31.2161 33.476 30.9388 33.476H28.3649V34.9827H30.9388C31.2161 34.9827 31.441 35.2075 31.441 35.4849Z" fill="white"/>
</g>
</g>
<defs>
<clipPath id="clip0_911_1990">
<rect width="28.8777" height="28.8777" fill="white" transform="translate(17.7555 20.2925)"/>
</clipPath>
<clipPath id="clip1_911_1990">
<rect width="28.8777" height="28.8777" fill="white" transform="translate(17.7555 20.2925)"/>
</clipPath>
</defs>
</svg>
