<svg width="14" height="14" viewBox="0 0 14 14" fill="none" xmlns="http://www.w3.org/2000/svg">
<g opacity="0.3">
<path d="M10.2135 13.6667H1.00016C0.823352 13.6667 0.653782 13.5965 0.528758 13.4714C0.403734 13.3464 0.333496 13.1769 0.333496 13V3.78671C0.333496 2.87083 0.697328 1.99246 1.34495 1.34483C1.99258 0.697206 2.87095 0.333374 3.78683 0.333374H10.2135C10.667 0.333374 11.1161 0.422697 11.535 0.596243C11.954 0.76979 12.3347 1.02416 12.6554 1.34483C12.976 1.6655 13.2304 2.0462 13.404 2.46517C13.5775 2.88415 13.6668 3.33321 13.6668 3.78671V10.2134C13.6668 10.6669 13.5775 11.1159 13.404 11.5349C13.2304 11.9539 12.976 12.3346 12.6554 12.6552C12.3347 12.9759 11.954 13.2303 11.535 13.4038C11.1161 13.5774 10.667 13.6667 10.2135 13.6667Z" fill="black"/>
</g>
<path d="M7 9.79333C6.86793 9.79161 6.74175 9.73837 6.64836 9.64498C6.55496 9.55158 6.50173 9.4254 6.5 9.29333V4.70667C6.5 4.57406 6.55268 4.44688 6.64645 4.35311C6.74022 4.25934 6.86739 4.20667 7 4.20667C7.13261 4.20667 7.25978 4.25934 7.35355 4.35311C7.44732 4.44688 7.5 4.57406 7.5 4.70667V9.29333C7.49827 9.4254 7.44504 9.55158 7.35164 9.64498C7.25825 9.73837 7.13207 9.79161 7 9.79333Z" fill="black"/>
<path d="M9.2937 7.5H4.70703C4.57442 7.5 4.44725 7.44732 4.35348 7.35355C4.25971 7.25978 4.20703 7.13261 4.20703 7C4.20703 6.86739 4.25971 6.74022 4.35348 6.64645C4.44725 6.55268 4.57442 6.5 4.70703 6.5H9.2937C9.42631 6.5 9.55348 6.55268 9.64725 6.64645C9.74102 6.74022 9.7937 6.86739 9.7937 7C9.7937 7.13261 9.74102 7.25978 9.64725 7.35355C9.55348 7.44732 9.42631 7.5 9.2937 7.5Z" fill="black"/>
</svg>
