<svg width="182" height="37" viewBox="0 0 182 37" fill="none" xmlns="http://www.w3.org/2000/svg">
<path d="M13.4281 27.1089L8.15788 17.5431H6.67789V27.1089H0.505276V1.76866H10.8652C12.8625 1.76866 14.5591 2.1176 15.9549 2.81548C17.3747 3.51336 18.4335 4.47595 19.1314 5.70326C19.8293 6.90649 20.1782 8.25412 20.1782 9.74614C20.1782 11.4307 19.6969 12.9347 18.7344 14.2583C17.7958 15.5819 16.4001 16.5204 14.5471 17.0739L20.3948 27.1089H13.4281ZM6.67789 13.1754H10.5042C11.6352 13.1754 12.4775 12.8986 13.031 12.3451C13.6086 11.7916 13.8973 11.0095 13.8973 9.99882C13.8973 9.03623 13.6086 8.27819 13.031 7.7247C12.4775 7.17121 11.6352 6.89446 10.5042 6.89446H6.67789V13.1754ZM33.4022 27.3977C31.4289 27.3977 29.6481 26.9765 28.0598 26.1343C26.4956 25.292 25.2563 24.0888 24.3418 22.5245C23.4514 20.9603 23.0062 19.1314 23.0062 17.0378C23.0062 14.9682 23.4635 13.1513 24.3779 11.5871C25.2924 9.99882 26.5438 8.78355 28.132 7.94128C29.7203 7.09901 31.5011 6.67788 33.4744 6.67788C35.4477 6.67788 37.2285 7.09901 38.8168 7.94128C40.4051 8.78355 41.6564 9.99882 42.5709 11.5871C43.4854 13.1513 43.9426 14.9682 43.9426 17.0378C43.9426 19.1073 43.4733 20.9363 42.5348 22.5245C41.6203 24.0888 40.3569 25.292 38.7446 26.1343C37.1563 26.9765 35.3755 27.3977 33.4022 27.3977ZM33.4022 22.0553C34.5814 22.0553 35.5801 21.6221 36.3983 20.7558C37.2406 19.8894 37.6617 18.6501 37.6617 17.0378C37.6617 15.4254 37.2526 14.1861 36.4344 13.3198C35.6402 12.4534 34.6536 12.0203 33.4744 12.0203C32.2712 12.0203 31.2725 12.4534 30.4783 13.3198C29.6842 14.162 29.2871 15.4014 29.2871 17.0378C29.2871 18.6501 29.6722 19.8894 30.4422 20.7558C31.2364 21.6221 32.223 22.0553 33.4022 22.0553ZM46.1705 17.0017C46.1705 14.9321 46.5555 13.1152 47.3256 11.551C48.1197 9.98679 49.1906 8.78355 50.5382 7.94128C51.8859 7.09901 53.3899 6.67788 55.0504 6.67788C56.4702 6.67788 57.7095 6.96666 58.7684 7.54421C59.8513 8.12177 60.6815 8.87981 61.2591 9.81833V6.96666H67.4317V27.1089H61.2591V24.2572C60.6575 25.1957 59.8152 25.9538 58.7323 26.5313C57.6734 27.1089 56.4341 27.3977 55.0143 27.3977C53.3779 27.3977 51.8859 26.9765 50.5382 26.1343C49.1906 25.2679 48.1197 24.0527 47.3256 22.4884C46.5555 20.9002 46.1705 19.0712 46.1705 17.0017ZM61.2591 17.0378C61.2591 15.4976 60.8259 14.2824 59.9596 13.392C59.1173 12.5016 58.0825 12.0564 56.8552 12.0564C55.6279 12.0564 54.5811 12.5016 53.7148 13.392C52.8725 14.2583 52.4514 15.4615 52.4514 17.0017C52.4514 18.5418 52.8725 19.7691 53.7148 20.6836C54.5811 21.574 55.6279 22.0192 56.8552 22.0192C58.0825 22.0192 59.1173 21.574 59.9596 20.6836C60.8259 19.7932 61.2591 18.5779 61.2591 17.0378ZM70.8505 17.0017C70.8505 14.9321 71.2355 13.1152 72.0056 11.551C72.7998 9.98679 73.8706 8.78355 75.2183 7.94128C76.5659 7.09901 78.0699 6.67788 79.7304 6.67788C81.054 6.67788 82.2572 6.95462 83.3401 7.50811C84.4471 8.0616 85.3134 8.80761 85.9391 9.74614V0.396971H92.1117V27.1089H85.9391V24.2211C85.3616 25.1837 84.5313 25.9538 83.4484 26.5313C82.3896 27.1089 81.1502 27.3977 79.7304 27.3977C78.0699 27.3977 76.5659 26.9765 75.2183 26.1343C73.8706 25.2679 72.7998 24.0527 72.0056 22.4884C71.2355 20.9002 70.8505 19.0712 70.8505 17.0017ZM85.9391 17.0378C85.9391 15.4976 85.506 14.2824 84.6396 13.392C83.7974 12.5016 82.7626 12.0564 81.5353 12.0564C80.308 12.0564 79.2611 12.5016 78.3948 13.392C77.5525 14.2583 77.1314 15.4615 77.1314 17.0017C77.1314 18.5418 77.5525 19.7691 78.3948 20.6836C79.2611 21.574 80.308 22.0192 81.5353 22.0192C82.7626 22.0192 83.7974 21.574 84.6396 20.6836C85.506 19.7932 85.9391 18.5779 85.9391 17.0378ZM122.459 6.75007C124.962 6.75007 126.947 7.50812 128.415 9.0242C129.907 10.5403 130.653 12.6459 130.653 15.3412V27.1089H124.517V16.1714C124.517 14.8719 124.168 13.8733 123.47 13.1754C122.796 12.4534 121.857 12.0925 120.654 12.0925C119.451 12.0925 118.5 12.4534 117.803 13.1754C117.129 13.8733 116.792 14.8719 116.792 16.1714V27.1089H110.655V16.1714C110.655 14.8719 110.306 13.8733 109.608 13.1754C108.935 12.4534 107.996 12.0925 106.793 12.0925C105.59 12.0925 104.639 12.4534 103.941 13.1754C103.267 13.8733 102.93 14.8719 102.93 16.1714V27.1089H96.7579V6.96666H102.93V9.49346C103.556 8.65119 104.374 7.98941 105.385 7.50811C106.396 7.00275 107.539 6.75007 108.814 6.75007C110.33 6.75007 111.678 7.07495 112.857 7.7247C114.06 8.37445 114.999 9.30094 115.673 10.5042C116.371 9.3972 117.321 8.49477 118.524 7.79689C119.728 7.09901 121.039 6.75007 122.459 6.75007ZM133.923 17.0017C133.923 14.9321 134.308 13.1152 135.078 11.551C135.873 9.98679 136.943 8.78355 138.291 7.94128C139.639 7.09901 141.143 6.67788 142.803 6.67788C144.223 6.67788 145.462 6.96666 146.521 7.54421C147.604 8.12177 148.434 8.87981 149.012 9.81833V6.96666H155.185V27.1089H149.012V24.2572C148.41 25.1957 147.568 25.9538 146.485 26.5313C145.426 27.1089 144.187 27.3977 142.767 27.3977C141.131 27.3977 139.639 26.9765 138.291 26.1343C136.943 25.2679 135.873 24.0527 135.078 22.4884C134.308 20.9002 133.923 19.0712 133.923 17.0017ZM149.012 17.0378C149.012 15.4976 148.579 14.2824 147.712 13.392C146.87 12.5016 145.835 12.0564 144.608 12.0564C143.381 12.0564 142.334 12.5016 141.468 13.392C140.625 14.2583 140.204 15.4615 140.204 17.0017C140.204 18.5418 140.625 19.7691 141.468 20.6836C142.334 21.574 143.381 22.0192 144.608 22.0192C145.835 22.0192 146.87 21.574 147.712 20.6836C148.579 19.7932 149.012 18.5779 149.012 17.0378ZM166.003 9.81833C166.605 8.87981 167.435 8.12177 168.494 7.54421C169.553 6.96666 170.792 6.67788 172.212 6.67788C173.872 6.67788 175.376 7.09901 176.724 7.94128C178.072 8.78355 179.131 9.98679 179.901 11.551C180.695 13.1152 181.092 14.9321 181.092 17.0017C181.092 19.0712 180.695 20.9002 179.901 22.4884C179.131 24.0527 178.072 25.2679 176.724 26.1343C175.376 26.9765 173.872 27.3977 172.212 27.3977C170.816 27.3977 169.577 27.1089 168.494 26.5313C167.435 25.9538 166.605 25.2078 166.003 24.2933V36.7107H159.831V6.96666H166.003V9.81833ZM174.811 17.0017C174.811 15.4615 174.378 14.2583 173.511 13.392C172.669 12.5016 171.622 12.0564 170.371 12.0564C169.144 12.0564 168.097 12.5016 167.231 13.392C166.388 14.2824 165.967 15.4976 165.967 17.0378C165.967 18.5779 166.388 19.7932 167.231 20.6836C168.097 21.574 169.144 22.0192 170.371 22.0192C171.598 22.0192 172.645 21.574 173.511 20.6836C174.378 19.7691 174.811 18.5418 174.811 17.0017Z" fill="url(#paint0_linear_911_1800)"/>
<defs>
<linearGradient id="paint0_linear_911_1800" x1="-1.73275" y1="15.1306" x2="180.296" y2="15.1305" gradientUnits="userSpaceOnUse">
<stop stop-color="#A63F9F"/>
<stop offset="0.244792" stop-color="#8F3CA6"/>
<stop offset="0.520833" stop-color="#6D33A6"/>
<stop offset="0.765625" stop-color="#4429A6"/>
<stop offset="1" stop-color="#2621A6"/>
</linearGradient>
</defs>
</svg>
