<svg width="14" height="14" viewBox="0 0 14 14" fill="none" xmlns="http://www.w3.org/2000/svg">
<path d="M13.8508 13.0153L10.2855 9.44321C11.1374 8.41728 11.6016 7.12362 11.5967 5.78909C11.5554 2.62802 8.97439 0 5.77805 0C2.58171 0 0 2.62732 0 5.78909C0 8.95085 2.58171 11.6189 5.77805 11.6189C7.21241 11.6189 8.48227 11.0851 9.50711 10.2638L13.0724 13.8359C13.1191 13.8874 13.176 13.9287 13.2396 13.9569C13.3031 13.9852 13.3718 13.9998 13.4413 14C13.5645 14 13.7283 13.9586 13.8102 13.8359C14.0559 13.5897 14.0559 13.2201 13.8515 13.0146L13.8508 13.0153ZM1.10675 5.78909C1.10647 5.17439 1.22711 4.56567 1.46177 3.99772C1.69642 3.42976 2.0405 2.91371 2.47433 2.47905C2.90815 2.0444 3.42322 1.69967 3.99009 1.46456C4.55697 1.22945 5.16453 1.10859 5.77805 1.10886C6.39157 1.10859 6.99913 1.22945 7.56601 1.46456C8.13288 1.69967 8.64795 2.0444 9.08178 2.47905C9.5156 2.91371 9.85968 3.42976 10.0943 3.99772C10.329 4.56567 10.4496 5.17439 10.4494 5.78909C10.4494 8.37573 8.35976 10.5107 5.77805 10.5107C3.19634 10.5107 1.10675 8.41711 1.10675 5.78909Z" fill="#0A2830"/>
</svg>
