<svg width="41" height="30" viewBox="0 0 41 30" fill="none" xmlns="http://www.w3.org/2000/svg">
<path d="M0 5C0 2.23858 2.23858 0 5 0H27C29.7614 0 32 2.23858 32 5V25C32 27.7614 29.7614 30 27 30H5C2.23858 30 0 27.7614 0 25V5Z" fill="#A4A4A4"/>
<path d="M21.8721 20.156L18.8162 17.0942C19.5463 16.2148 19.9442 15.106 19.94 13.9621C19.9046 11.2526 17.6923 9 14.9526 9C12.2129 9 10 11.252 10 13.9621C10 16.6722 12.2129 18.959 14.9526 18.959C16.1821 18.959 17.2705 18.5015 18.149 17.7976L21.2049 20.8593C21.2449 20.9035 21.2937 20.9388 21.3482 20.9631C21.4026 20.9873 21.4615 20.9999 21.5211 21C21.6267 21 21.7671 20.9645 21.8373 20.8593C22.0479 20.6483 22.0479 20.3315 21.8727 20.1554L21.8721 20.156ZM10.9486 13.9621C10.9484 13.4352 11.0518 12.9134 11.2529 12.4266C11.4541 11.9398 11.749 11.4975 12.1209 11.1249C12.4927 10.7523 12.9342 10.4569 13.4201 10.2553C13.906 10.0538 14.4267 9.95022 14.9526 9.95045C15.4785 9.95022 15.9993 10.0538 16.4851 10.2553C16.971 10.4569 17.4125 10.7523 17.7844 11.1249C18.1562 11.4975 18.4511 11.9398 18.6523 12.4266C18.8534 12.9134 18.9568 13.4352 18.9566 13.9621C18.9566 16.1792 17.1655 18.0092 14.9526 18.0092C12.7397 18.0092 10.9486 16.2147 10.9486 13.9621Z" fill="white"/>
</svg>
