<svg width="21" height="21" viewBox="0 0 21 21" fill="none" xmlns="http://www.w3.org/2000/svg">
<path d="M7.1668 13.6988C7.62243 13.6988 7.9918 13.3295 7.9918 12.8738C7.9918 12.4182 7.62243 12.0488 7.1668 12.0488C6.71116 12.0488 6.3418 12.4182 6.3418 12.8738C6.3418 13.3295 6.71116 13.6988 7.1668 13.6988Z" fill="black"/>
<path d="M10.4998 13.6988C10.9554 13.6988 11.3248 13.3295 11.3248 12.8738C11.3248 12.4182 10.9554 12.0488 10.4998 12.0488C10.0442 12.0488 9.6748 12.4182 9.6748 12.8738C9.6748 13.3295 10.0442 13.6988 10.4998 13.6988Z" fill="black"/>
<path d="M13.8338 13.691C14.2894 13.691 14.6588 13.3217 14.6588 12.866C14.6588 12.4104 14.2894 12.041 13.8338 12.041C13.3782 12.041 13.0088 12.4104 13.0088 12.866C13.0088 13.3217 13.3782 13.691 13.8338 13.691Z" fill="black"/>
<path opacity="0.3" d="M15.5753 7.94922H5.42533C3.6258 7.94922 2.16699 9.40802 2.16699 11.2076V15.1576C2.16699 16.9571 3.6258 18.4159 5.42533 18.4159H15.5753C17.3749 18.4159 18.8337 16.9571 18.8337 15.1576V11.2076C18.8337 9.40802 17.3749 7.94922 15.5753 7.94922Z" fill="black"/>
<path d="M5.42493 7.95052H6.5166V6.28385C6.5166 5.41527 6.86165 4.58226 7.47583 3.96808C8.09001 3.3539 8.92302 3.00885 9.7916 3.00885H11.2083C12.0769 3.00885 12.9099 3.3539 13.524 3.96808C14.1382 4.58226 14.4833 5.41527 14.4833 6.28385V7.95052H15.5749H15.7333V6.25885C15.7289 5.06087 15.2504 3.91334 14.4026 3.06701C13.5547 2.22068 12.4063 1.74438 11.2083 1.74219H9.7916C8.59361 1.74438 7.4452 2.22068 6.59731 3.06701C5.74942 3.91334 5.271 5.06087 5.2666 6.25885V7.96719L5.42493 7.95052Z" fill="black"/>
</svg>
