<svg width="105" height="35" viewBox="0 0 105 35" fill="none" xmlns="http://www.w3.org/2000/svg">
<path d="M98.4939 1.56234C100.381 1.56234 101.662 1.91851 102.409 2.65133C103.156 3.38375 103.519 4.64226 103.519 6.49862V28.6381C103.519 30.4892 103.157 31.7406 102.413 32.4641C101.669 33.1882 100.387 33.5402 98.4943 33.5402H6.43613C4.55552 33.5402 3.28796 33.1913 2.56118 32.4735C1.83441 31.7559 1.48116 30.5032 1.48116 28.644V6.49862C1.48116 4.37024 1.71552 3.19793 2.26479 2.57856C2.8797 1.8853 4.20712 1.56234 6.44244 1.56234H98.4939ZM98.4939 0.127441H6.44244C0.948327 0.127441 0.0338135 2.01342 0.0338135 6.49862V28.6439C0.0338135 33.1257 1.91557 34.9751 6.43613 34.9751H98.4942C103.018 34.9751 104.966 33.1231 104.966 28.6381V6.49862C104.966 2.01342 103.018 0.127441 98.4939 0.127441Z" fill="white"/>
<path d="M51.5876 20.1147C49.6496 20.1147 48.1155 21.5557 48.1155 23.557C48.1155 25.4783 49.6496 26.9994 51.5876 26.9994C53.5256 26.9994 55.0599 25.5584 55.0599 23.557C55.0599 21.4756 53.5256 20.1147 51.5876 20.1147ZM51.5876 25.5584C50.5379 25.5584 49.6496 24.6778 49.6496 23.477C49.6496 22.276 50.5379 21.3954 51.5876 21.3954C52.6374 21.3954 53.5256 22.1961 53.5256 23.477C53.5256 24.6778 52.6374 25.5584 51.5876 25.5584ZM44.078 20.1147C42.14 20.1147 40.6057 21.5557 40.6057 23.557C40.6057 25.4783 42.14 26.9994 44.078 26.9994C46.016 26.9994 47.5502 25.5584 47.5502 23.557C47.5502 21.4756 46.016 20.1147 44.078 20.1147ZM44.078 25.5584C43.0282 25.5584 42.14 24.6778 42.14 23.477C42.14 22.276 43.0282 21.3954 44.078 21.3954C45.1277 21.3954 46.016 22.1961 46.016 23.477C46.016 24.6778 45.1277 25.5584 44.078 25.5584ZM35.1147 21.1554V22.5963H38.587C38.5062 23.397 38.1833 24.0375 37.7795 24.4377C37.295 24.9181 36.4875 25.4783 35.1147 25.4783C32.9345 25.4783 31.3196 23.7973 31.3196 21.6357C31.3196 19.4742 33.0152 17.7931 35.1147 17.7931C36.2453 17.7931 37.1334 18.2735 37.7795 18.8337L38.8292 17.7931C37.941 16.9924 36.8105 16.3521 35.1954 16.3521C32.2886 16.3521 29.7853 18.7538 29.7853 21.6357C29.7853 24.5177 32.2885 26.9195 35.1954 26.9195C36.8105 26.9195 37.941 26.439 38.91 25.3983C39.8789 24.4377 40.202 23.0768 40.202 22.036C40.202 21.7157 40.202 21.3955 40.1213 21.1554H35.1147ZM71.7751 22.2762C71.4521 21.4756 70.6445 20.1147 68.8681 20.1147C67.0915 20.1147 65.6381 21.4756 65.6381 23.557C65.6381 25.4783 67.0916 26.9994 69.0296 26.9994C70.564 26.9994 71.533 26.0388 71.8558 25.4783L70.7253 24.6778C70.3215 25.2382 69.8371 25.6384 69.0296 25.6384C68.2221 25.6384 67.7376 25.3182 67.3339 24.5977L71.9366 22.6764L71.7751 22.2762ZM67.0916 23.3969C67.0916 22.1161 68.1413 21.3955 68.8682 21.3955C69.4334 21.3955 69.9987 21.7157 70.1602 22.1161L67.0916 23.3969ZM63.2963 26.6792H64.8307V16.6722H63.2963V26.6792ZM60.8739 20.8351C60.4701 20.4349 59.8242 20.0345 59.0166 20.0345C57.3209 20.0345 55.7058 21.5556 55.7058 23.477C55.7058 25.3982 57.2401 26.8393 59.0166 26.8393C59.8242 26.8393 60.4701 26.439 60.7932 26.0387H60.8739V26.5191C60.8739 27.8 60.1471 28.5204 59.0166 28.5204C58.1284 28.5204 57.4824 27.8801 57.3209 27.3195L56.0289 27.8801C56.4326 28.7607 57.4016 29.8813 59.0975 29.8813C60.874 29.8813 62.3273 28.8407 62.3273 26.3589V20.2748H60.8739V20.8351ZM59.0974 25.5584C58.0476 25.5584 57.1594 24.6778 57.1594 23.477C57.1594 22.276 58.0476 21.3954 59.0974 21.3954C60.147 21.3954 60.9546 22.276 60.9546 23.477C60.9546 24.6778 60.1471 25.5584 59.0974 25.5584ZM78.8003 16.6722H75.1665V26.6792H76.7008V22.9166H78.8003C80.4959 22.9166 82.1109 21.7157 82.1109 19.7944C82.1109 17.873 80.496 16.6722 78.8003 16.6722ZM78.881 21.4756H76.7008V18.0332H78.881C80.0116 18.0332 80.6576 18.9939 80.6576 19.7142C80.5768 20.595 79.9308 21.4756 78.881 21.4756ZM88.1673 20.0346C87.0367 20.0346 85.9062 20.515 85.5026 21.5557L86.8752 22.1162C87.1983 21.5557 87.6828 21.3956 88.248 21.3956C89.0554 21.3956 89.7822 21.8761 89.8629 22.6765V22.7565C89.6207 22.5963 88.9747 22.3563 88.3288 22.3563C86.8751 22.3563 85.4218 23.157 85.4218 24.5978C85.4218 25.9588 86.633 26.8395 87.9249 26.8395C88.9747 26.8395 89.4592 26.359 89.8629 25.8788H89.9437V26.6793H91.3972V22.8367C91.2359 21.0753 89.8629 20.0346 88.1673 20.0346ZM88.0057 25.5584C87.5211 25.5584 86.7944 25.3182 86.7944 24.6778C86.7944 23.8772 87.6827 23.6371 88.4094 23.6371C89.0554 23.6371 89.3784 23.7973 89.7821 23.9573C89.6207 24.918 88.8132 25.5584 88.0057 25.5584ZM96.4844 20.2748L94.7887 24.5977H94.708L92.9315 20.2748H91.3165L93.9813 26.3589L92.447 29.7214H93.9813L98.0995 20.2748H96.4844ZM82.9185 26.6792H84.4528V16.6722H82.9185V26.6792Z" fill="white"/>
<path d="M32.6015 10.7281H35.1174C35.1318 10.785 35.1436 10.8536 35.1533 10.9342C35.1627 11.0148 35.1675 11.0953 35.1675 11.1758C35.1675 11.5027 35.1174 11.8107 35.017 12.0996C34.9167 12.3886 34.759 12.6468 34.5439 12.8741C34.3146 13.1158 34.0397 13.303 33.7197 13.4355C33.3995 13.5681 33.0339 13.6345 32.623 13.6345C32.2503 13.6345 31.899 13.5681 31.5693 13.4355C31.2397 13.303 30.9529 13.1182 30.7092 12.8813C30.4654 12.6444 30.272 12.3637 30.1286 12.0392C29.9852 11.7147 29.9136 11.3606 29.9136 10.9768C29.9136 10.5931 29.9852 10.239 30.1286 9.9145C30.272 9.59001 30.4654 9.30928 30.7092 9.07231C30.9529 8.83555 31.2397 8.65076 31.5693 8.51813C31.899 8.38551 32.2503 8.31909 32.623 8.31909C33.0387 8.31909 33.4103 8.39012 33.7376 8.53228C34.0649 8.67444 34.3457 8.87102 34.5798 9.12213L33.9132 9.76875C33.7458 9.59359 33.5595 9.45964 33.3541 9.36729C33.1486 9.27484 32.9025 9.22872 32.6159 9.22872C32.3817 9.22872 32.1594 9.27023 31.9492 9.35304C31.7389 9.43596 31.555 9.55321 31.3973 9.7048C31.2397 9.85649 31.1141 10.0401 31.021 10.2555C30.9279 10.4711 30.8812 10.7116 30.8812 10.9768C30.8812 11.2422 30.9279 11.4825 31.021 11.6981C31.1141 11.9137 31.2407 12.0972 31.4009 12.2488C31.561 12.4005 31.7461 12.5177 31.9564 12.6006C32.1666 12.6836 32.3911 12.725 32.6301 12.725C32.9025 12.725 33.1331 12.6859 33.3219 12.6077C33.5105 12.5295 33.6719 12.429 33.8057 12.3057C33.9012 12.2204 33.9836 12.1127 34.053 11.9823C34.1221 11.8521 34.1759 11.7064 34.2143 11.5453H32.6015V10.7281Z" fill="white"/>
<path d="M36.938 9.34237V10.522H38.9951V11.4316H36.938V12.6113H39.2245V13.5208H35.9703V8.43274H39.2245V9.34237H36.938Z" fill="white"/>
<path d="M41.2028 13.5208V9.34237H39.7692V8.43274H43.604V9.34237H42.1704V13.5208H41.2028Z" fill="white"/>
<path d="M46.8365 8.43274H45.8689V13.5208H46.8365V8.43274Z" fill="white"/>
<path d="M48.9581 13.5208V9.34237H47.5245V8.43274H51.3594V9.34237H49.9258V13.5208H48.9581Z" fill="white"/>
<path d="M55.9108 13.6346C55.5285 13.6346 55.1737 13.5658 54.8464 13.4285C54.5189 13.2911 54.236 13.1029 53.997 12.8635C53.758 12.6243 53.5705 12.3425 53.4344 12.0179C53.2982 11.6935 53.23 11.3463 53.23 10.9768C53.23 10.6073 53.2981 10.2603 53.4344 9.93582C53.5706 9.61132 53.7581 9.32947 53.997 9.09015C54.236 8.85093 54.5189 8.66265 54.8464 8.5252C55.1737 8.38786 55.5285 8.31909 55.9108 8.31909C56.293 8.31909 56.6479 8.38786 56.9753 8.5252C57.3025 8.66265 57.5856 8.85093 57.8247 9.09015C58.0636 9.32947 58.2511 9.61132 58.3873 9.93582C58.5234 10.2603 58.5917 10.6073 58.5917 10.9768C58.5917 11.3463 58.5235 11.6935 58.3873 12.0179C58.2511 12.3425 58.0635 12.6243 57.8247 12.8635C57.5856 13.1029 57.3025 13.2911 56.9753 13.4285C56.6479 13.5658 56.293 13.6346 55.9108 13.6346ZM55.9108 12.725C56.1498 12.725 56.3732 12.6823 56.5809 12.5971C56.7888 12.5118 56.9704 12.3934 57.1257 12.2417C57.281 12.0901 57.4029 11.9067 57.4913 11.691C57.5797 11.4755 57.6239 11.2374 57.6239 10.9768C57.6239 10.7163 57.5797 10.4783 57.4913 10.2627C57.4029 10.0471 57.281 9.86366 57.1257 9.71197C56.9704 9.56039 56.7888 9.4419 56.5809 9.35663C56.3731 9.27135 56.1497 9.22872 55.9108 9.22872C55.6719 9.22872 55.4485 9.27135 55.2407 9.35663C55.0328 9.4419 54.8511 9.56039 54.6958 9.71197C54.5404 9.86366 54.4187 10.0471 54.3304 10.2627C54.2419 10.4783 54.1977 10.7163 54.1977 10.9768C54.1977 11.2374 54.2419 11.4755 54.3304 11.691C54.4187 11.9067 54.5404 12.0901 54.6958 12.2417C54.8511 12.3934 55.0328 12.5118 55.2407 12.5971C55.4486 12.6823 55.6719 12.725 55.9108 12.725Z" fill="white"/>
<path d="M59.3728 8.43274H60.4981L62.5624 11.8437H62.6198L62.5624 10.8631V8.43274H63.523V13.5208H62.5051L60.3261 9.91797H60.2687L60.3261 10.8986V13.5208H59.3728V8.43274Z" fill="white"/>
<path fill-rule="evenodd" clip-rule="evenodd" d="M22.4405 14.4828L9.88 7.31836L19.8015 17.1038L22.4405 14.4828Z" fill="white"/>
<path fill-rule="evenodd" clip-rule="evenodd" d="M8.71458 7.39148C8.66671 7.47778 8.6145 7.5775 8.6145 7.68738V27.9611C8.6145 28.0247 8.64789 28.0846 8.66506 28.141L19.1721 17.7057L8.71458 7.39148Z" fill="white"/>
<path fill-rule="evenodd" clip-rule="evenodd" d="M19.8036 18.3051L9.50244 28.5359C9.53253 28.5244 9.5624 28.511 9.59166 28.4944L22.6073 21.0701L19.8036 18.3051Z" fill="white"/>
<path fill-rule="evenodd" clip-rule="evenodd" d="M27.3632 17.2907L23.2101 14.9218L20.4094 17.7033L23.3777 20.6308L27.3632 18.3575C27.7782 18.121 27.7782 17.5273 27.3632 17.2907Z" fill="white"/>
</svg>
