<svg width="210" height="189" viewBox="0 0 210 189" fill="none" xmlns="http://www.w3.org/2000/svg">
<g clip-path="url(#clip0_309_15334)">
<path d="M11.7967 70.5396C5.56567 87.7583 5.19704 105.925 16.5173 121.453C32.9062 143.933 60.8151 143.313 82.4622 150.388C93.7876 154.092 100.812 164.184 110.602 170.332C140.922 189.364 183.151 165.526 197.057 136.494C224.761 78.6546 165.513 6.84461 107.34 0.389555C90.1627 -1.51622 72.5449 3.67344 58.1374 12.9564C38.0671 25.8922 19.9425 48.0033 11.7915 70.5345L11.7967 70.5396Z" fill="#D39B2D"/>
<path opacity="0.7" d="M11.7967 70.5396C5.56567 87.7583 5.19704 105.925 16.5173 121.453C32.9062 143.933 60.8151 143.313 82.4622 150.388C93.7876 154.092 100.812 164.184 110.602 170.332C140.922 189.364 183.151 165.526 197.057 136.494C224.761 78.6546 165.513 6.84461 107.34 0.389555C90.1627 -1.51622 72.5449 3.67344 58.1374 12.9564C38.0671 25.8922 19.9425 48.0033 11.7915 70.5345L11.7967 70.5396Z" fill="white"/>
<path d="M96.2399 189C148.532 189 190.923 183.881 190.923 177.566C190.923 171.25 148.532 166.131 96.2399 166.131C43.9478 166.131 1.55664 171.25 1.55664 177.566C1.55664 183.881 43.9478 189 96.2399 189Z" fill="#D39B2D"/>
<path opacity="0.2" d="M96.2399 189C148.532 189 190.923 183.881 190.923 177.566C190.923 171.25 148.532 166.131 96.2399 166.131C43.9478 166.131 1.55664 171.25 1.55664 177.566C1.55664 183.881 43.9478 189 96.2399 189Z" fill="black"/>
<path d="M183.597 127.8C184.406 127.129 185.251 125.971 185.205 124.711C185.164 123.451 184.252 122.298 183.126 122.349C181.569 122.421 180.295 125.193 180.059 126.76C180.033 126.914 179.931 129.096 179.962 129.096C179.962 129.096 182.629 128.615 183.592 127.805L183.597 127.8Z" fill="#D39B2D"/>
<path d="M184.641 167.058C184.923 167.243 187.16 168.698 188.318 168.851C189.367 169.005 190.709 168.851 191.389 167.919C192.081 166.899 191.907 165.526 190.985 164.712C189.649 163.595 187.043 164.563 185.962 165.496C185.896 165.557 185.158 166.367 184.79 166.787C185 166.361 185.23 165.936 185.466 165.496C185.798 164.86 186.172 164.199 186.531 163.564L187.13 162.586C187.324 162.263 187.55 161.976 187.759 161.653C188.082 161.197 188.43 160.752 188.783 160.285C189.362 160.788 191.041 162.222 192.081 162.54C193.115 162.857 194.482 162.934 195.291 162.15C196.115 161.249 196.115 159.865 195.291 158.959C194.103 157.637 191.359 158.134 190.156 158.831C190.12 158.856 189.879 159.035 189.603 159.256C189.956 158.825 190.309 158.395 190.683 157.975C191.717 156.771 192.833 155.613 193.949 154.435L194.636 153.692C195.122 154.128 196.986 155.705 198.02 156.028C199.054 156.351 200.421 156.428 201.225 155.639C202.065 154.742 202.065 153.349 201.225 152.447C200.037 151.125 197.293 151.622 196.09 152.324C196.044 152.35 195.762 152.565 195.444 152.816C196.044 152.16 196.632 151.505 197.19 150.828C198.173 149.66 199.069 148.42 199.868 147.124C200.042 147.278 202.172 149.174 203.339 149.532C204.379 149.855 205.746 149.932 206.55 149.148C207.379 148.246 207.379 146.858 206.55 145.951C205.362 144.629 202.618 145.131 201.414 145.828C201.332 145.879 200.314 146.674 199.96 146.971L199.991 146.925C200.774 145.587 201.43 144.179 201.962 142.724C202.459 141.397 202.879 140.044 203.222 138.671C203.56 137.385 203.79 136.181 203.995 135.116C204.097 134.532 204.184 133.999 204.261 133.502V133.533C204.282 133.558 205.341 131.858 205.393 131.735C206.038 130.372 206.534 127.201 205.423 125.797C205.316 125.638 205.183 125.495 205.024 125.382C204.271 124.824 203.211 124.982 202.653 125.736C201.952 126.627 201.978 128.195 202.234 129.429C202.49 130.664 203.841 132.867 204.174 133.41C204.092 133.927 203.99 134.476 203.867 135.08C203.647 136.135 203.386 137.329 203.027 138.594C202.935 138.938 202.822 139.291 202.715 139.64C202.786 138.994 202.863 138.108 202.863 138.021C202.863 136.407 202.034 133.184 200.529 132.457C199.459 131.914 198.424 132.636 198.194 133.856C197.963 135.08 198.593 136.494 199.32 137.529C200.042 138.564 202.095 139.932 202.566 140.224C202.326 140.987 202.059 141.771 201.737 142.56C201.184 143.984 200.498 145.352 199.699 146.653L199.622 146.602C199.75 146.028 199.996 144.804 199.996 144.696C200.139 143.103 199.602 139.829 198.163 138.927C197.129 138.277 196.013 138.845 195.665 140.019C195.322 141.197 195.849 142.713 196.448 143.779C197.139 145.003 199.438 146.832 199.53 146.904C198.721 148.134 197.83 149.302 196.863 150.408C196.151 151.223 195.409 152.007 194.651 152.785C194.748 152.386 195.076 150.777 195.076 150.659C195.219 149.066 194.682 145.792 193.243 144.886C192.209 144.235 191.093 144.829 190.744 145.982C190.401 147.135 190.929 148.651 191.523 149.717C192.198 150.91 194.4 152.678 194.584 152.826L193.555 153.882C192.419 155.014 191.277 156.177 190.181 157.345C189.802 157.75 189.444 158.165 189.085 158.585C189.213 157.975 189.439 156.863 189.439 156.761C189.587 155.168 189.045 151.894 187.606 150.987C186.572 150.336 185.455 150.926 185.107 152.083C184.764 153.241 185.281 154.753 185.891 155.818C186.5 156.889 188.318 158.416 188.835 158.836C188.236 159.538 187.662 160.244 187.125 160.977C186.92 161.3 186.648 161.612 186.454 161.935L185.839 162.898C185.44 163.569 185.066 164.194 184.708 164.835C184.524 165.142 184.365 165.45 184.191 165.767C184.406 165.183 184.749 164.251 184.749 164.159C185.102 162.637 184.995 159.353 183.669 158.221C183.51 158.072 183.326 157.96 183.126 157.883C182.276 157.565 181.334 157.995 181.016 158.846C180.955 158.984 180.904 159.123 180.868 159.271C179.926 160.168 179.24 161.295 178.876 162.54C178.851 162.637 178.666 163.831 178.584 164.445C178.554 163.923 178.513 163.405 178.487 162.862C178.446 162.084 178.416 161.254 178.39 160.46C178.39 160.045 178.4 159.64 178.39 159.21C178.38 158.779 178.426 158.38 178.426 157.96C178.451 157.35 178.508 156.72 178.564 156.09C179.255 156.167 181.226 156.366 182.204 155.982C183.182 155.598 184.293 154.768 184.539 153.579C184.78 152.391 184.145 151.023 183.023 150.726C181.462 150.316 179.562 152.519 178.963 153.923C178.943 153.964 178.846 154.281 178.733 154.655C178.805 154.046 178.871 153.431 178.963 152.821C179.214 151.079 179.516 149.322 179.818 147.56C179.885 147.191 179.941 146.822 180.003 146.458C180.571 146.525 182.752 146.74 183.735 146.361C184.718 145.982 185.824 145.157 186.07 143.958C186.31 142.765 185.676 141.397 184.554 141.105C182.993 140.695 181.093 142.893 180.499 144.296C180.474 144.348 180.361 144.722 180.233 145.142C180.382 144.179 180.525 143.215 180.632 142.257C180.837 140.592 180.94 138.917 180.94 137.237C181.144 137.262 183.715 137.585 184.795 137.155C185.778 136.771 186.879 135.941 187.13 134.752C187.375 133.564 186.735 132.196 185.614 131.899C184.053 131.489 182.153 133.692 181.559 135.095C181.518 135.177 181.109 136.55 180.975 137.047V136.986C180.95 135.311 180.791 133.635 180.51 131.986C180.264 130.5 179.941 129.025 179.542 127.57C179.194 126.217 178.794 124.988 178.441 123.907C178.247 123.323 178.052 122.79 177.878 122.298H177.909V119.962C177.776 118.338 176.654 115.197 175.108 114.654C173.997 114.26 173.04 115.105 172.927 116.371C172.814 117.636 173.577 118.994 174.371 119.931C175.164 120.864 177.264 121.965 177.791 122.231C177.97 122.744 178.154 123.302 178.349 123.917C178.682 124.998 179.056 126.227 179.378 127.585C179.465 127.949 179.547 128.343 179.634 128.717C179.378 128.118 179.015 127.262 178.974 127.185C178.211 125.746 175.994 123.415 174.478 123.732C173.388 123.963 172.922 125.269 173.337 126.504C173.746 127.744 174.919 128.589 175.973 129.055C177.028 129.516 179.291 129.404 179.788 129.378C179.962 130.213 180.126 131.084 180.254 131.991C180.504 133.63 180.632 135.285 180.632 136.945H180.545C180.366 136.351 179.967 135.111 179.926 135.013C179.265 133.502 177.279 130.925 175.728 131.048C174.622 131.13 174.033 132.36 174.33 133.625C174.622 134.89 175.758 135.91 176.736 136.468C177.863 137.119 180.525 137.278 180.622 137.278C180.586 138.892 180.453 140.505 180.228 142.109C180.069 143.292 179.864 144.465 179.649 145.649C179.532 145.229 179.004 143.6 178.958 143.482C178.298 141.971 176.311 139.399 174.76 139.517C173.654 139.604 173.065 140.823 173.362 142.093C173.654 143.364 174.791 144.378 175.768 144.942C176.864 145.572 179.424 145.746 179.639 145.746C179.542 146.284 179.445 146.822 179.342 147.355C179.009 149.107 178.672 150.859 178.38 152.606C178.282 153.211 178.2 153.81 178.124 154.42C177.934 153.779 177.566 152.647 177.525 152.55C176.864 151.038 174.878 148.461 173.326 148.584C172.225 148.666 171.626 149.896 171.929 151.161C172.225 152.427 173.357 153.441 174.335 154.005C175.313 154.568 177.463 154.758 178.067 154.799C177.939 155.808 177.832 156.807 177.765 157.806C177.745 158.241 177.704 158.677 177.704 159.097V160.342C177.719 161.203 177.729 161.997 177.755 162.796C177.77 163.2 177.806 163.585 177.806 163.979C177.694 163.318 177.499 162.278 177.468 162.186C177.018 160.598 175.359 157.75 173.782 157.591C172.645 157.478 171.893 158.559 172.021 159.845C172.154 161.136 173.157 162.319 174.064 163.042C175.062 163.836 177.52 164.43 177.827 164.502C177.868 165.465 177.924 166.397 177.985 167.273C178.16 169.768 178.38 171.92 178.569 173.503H179.614C179.378 171.951 179.137 169.804 178.912 167.284C178.84 166.495 178.779 165.654 178.718 164.789C179.015 164.773 181.293 164.645 182.327 164.087C182.87 164.809 183.454 165.501 184.073 166.157C183.653 166.935 183.254 167.693 182.885 168.416C181.871 170.414 181.063 172.166 180.474 173.503H181.682C182.209 172.263 182.885 170.731 183.71 169.025C184.042 168.38 184.37 167.668 184.647 167.053L184.641 167.058Z" fill="#D39B2D"/>
<path d="M209.703 139.983C210.287 138.897 209.99 137.55 208.997 136.817C207.574 135.875 205.111 137.212 204.148 138.272C204.066 138.364 202.945 140.004 202.95 140.009C202.95 140.009 205.566 141.356 206.795 141.356C207.835 141.356 209.145 141.013 209.703 139.983Z" fill="#D39B2D"/>
<path opacity="0.2" d="M183.597 127.8C184.406 127.129 185.251 125.971 185.205 124.711C185.164 123.451 184.252 122.298 183.126 122.349C181.569 122.421 180.295 125.193 180.059 126.76C180.033 126.914 179.931 129.096 179.962 129.096C179.962 129.096 182.629 128.615 183.592 127.805L183.597 127.8Z" fill="black"/>
<path opacity="0.2" d="M184.641 167.058C184.923 167.243 187.16 168.698 188.318 168.851C189.367 169.005 190.709 168.851 191.389 167.919C192.081 166.899 191.907 165.526 190.985 164.712C189.649 163.595 187.043 164.563 185.962 165.496C185.896 165.557 185.158 166.367 184.79 166.787C185 166.361 185.23 165.936 185.466 165.496C185.798 164.86 186.172 164.199 186.531 163.564L187.13 162.586C187.324 162.263 187.55 161.976 187.759 161.653C188.082 161.197 188.43 160.752 188.783 160.285C189.362 160.788 191.041 162.222 192.081 162.54C193.115 162.857 194.482 162.934 195.291 162.15C196.115 161.249 196.115 159.865 195.291 158.959C194.103 157.637 191.359 158.134 190.156 158.831C190.12 158.856 189.879 159.035 189.603 159.256C189.956 158.825 190.309 158.395 190.683 157.975C191.717 156.771 192.833 155.613 193.949 154.435L194.636 153.692C195.122 154.128 196.986 155.705 198.02 156.028C199.054 156.351 200.421 156.428 201.225 155.639C202.065 154.742 202.065 153.349 201.225 152.447C200.037 151.125 197.293 151.622 196.09 152.324C196.044 152.35 195.762 152.565 195.444 152.816C196.044 152.16 196.632 151.505 197.19 150.828C198.173 149.66 199.069 148.42 199.868 147.124C200.042 147.278 202.172 149.174 203.339 149.532C204.379 149.855 205.746 149.932 206.55 149.148C207.379 148.246 207.379 146.858 206.55 145.951C205.362 144.629 202.618 145.131 201.414 145.828C201.332 145.879 200.314 146.674 199.96 146.971L199.991 146.925C200.774 145.587 201.43 144.179 201.962 142.724C202.459 141.397 202.879 140.044 203.222 138.671C203.56 137.385 203.79 136.181 203.995 135.116C204.097 134.532 204.184 133.999 204.261 133.502V133.533C204.282 133.558 205.341 131.858 205.393 131.735C206.038 130.372 206.534 127.201 205.423 125.797C205.316 125.638 205.183 125.495 205.024 125.382C204.271 124.824 203.211 124.982 202.653 125.736C201.952 126.627 201.978 128.195 202.234 129.429C202.49 130.664 203.841 132.867 204.174 133.41C204.092 133.927 203.99 134.476 203.867 135.08C203.647 136.135 203.386 137.329 203.027 138.594C202.935 138.938 202.822 139.291 202.715 139.64C202.786 138.994 202.863 138.108 202.863 138.021C202.863 136.407 202.034 133.184 200.529 132.457C199.459 131.914 198.424 132.636 198.194 133.856C197.963 135.08 198.593 136.494 199.32 137.529C200.042 138.564 202.095 139.932 202.566 140.224C202.326 140.987 202.059 141.771 201.737 142.56C201.184 143.984 200.498 145.352 199.699 146.653L199.622 146.602C199.75 146.028 199.996 144.804 199.996 144.696C200.139 143.103 199.602 139.829 198.163 138.927C197.129 138.277 196.013 138.845 195.665 140.019C195.322 141.197 195.849 142.713 196.448 143.779C197.139 145.003 199.438 146.832 199.53 146.904C198.721 148.134 197.83 149.302 196.863 150.408C196.151 151.223 195.409 152.007 194.651 152.785C194.748 152.386 195.076 150.777 195.076 150.659C195.219 149.066 194.682 145.792 193.243 144.886C192.209 144.235 191.093 144.829 190.744 145.982C190.401 147.135 190.929 148.651 191.523 149.717C192.198 150.91 194.4 152.678 194.584 152.826L193.555 153.882C192.419 155.014 191.277 156.177 190.181 157.345C189.802 157.75 189.444 158.165 189.085 158.585C189.213 157.975 189.439 156.863 189.439 156.761C189.587 155.168 189.045 151.894 187.606 150.987C186.572 150.336 185.455 150.926 185.107 152.083C184.764 153.241 185.281 154.753 185.891 155.818C186.5 156.889 188.318 158.416 188.835 158.836C188.236 159.538 187.662 160.244 187.125 160.977C186.92 161.3 186.648 161.612 186.454 161.935L185.839 162.898C185.44 163.569 185.066 164.194 184.708 164.835C184.524 165.142 184.365 165.45 184.191 165.767C184.406 165.183 184.749 164.251 184.749 164.159C185.102 162.637 184.995 159.353 183.669 158.221C183.51 158.072 183.326 157.96 183.126 157.883C182.276 157.565 181.334 157.995 181.016 158.846C180.955 158.984 180.904 159.123 180.868 159.271C179.926 160.168 179.24 161.295 178.876 162.54C178.851 162.637 178.666 163.831 178.584 164.445C178.554 163.923 178.513 163.405 178.487 162.862C178.446 162.084 178.416 161.254 178.39 160.46C178.39 160.045 178.4 159.64 178.39 159.21C178.38 158.779 178.426 158.38 178.426 157.96C178.451 157.35 178.508 156.72 178.564 156.09C179.255 156.167 181.226 156.366 182.204 155.982C183.182 155.598 184.293 154.768 184.539 153.579C184.78 152.391 184.145 151.023 183.023 150.726C181.462 150.316 179.562 152.519 178.963 153.923C178.943 153.964 178.846 154.281 178.733 154.655C178.805 154.046 178.871 153.431 178.963 152.821C179.214 151.079 179.516 149.322 179.818 147.56C179.885 147.191 179.941 146.822 180.003 146.458C180.571 146.525 182.752 146.74 183.735 146.361C184.718 145.982 185.824 145.157 186.07 143.958C186.31 142.765 185.676 141.397 184.554 141.105C182.993 140.695 181.093 142.893 180.499 144.296C180.474 144.348 180.361 144.722 180.233 145.142C180.382 144.179 180.525 143.215 180.632 142.257C180.837 140.592 180.94 138.917 180.94 137.237C181.144 137.262 183.715 137.585 184.795 137.155C185.778 136.771 186.879 135.941 187.13 134.752C187.375 133.564 186.735 132.196 185.614 131.899C184.053 131.489 182.153 133.692 181.559 135.095C181.518 135.177 181.109 136.55 180.975 137.047V136.986C180.95 135.311 180.791 133.635 180.51 131.986C180.264 130.5 179.941 129.025 179.542 127.57C179.194 126.217 178.794 124.988 178.441 123.907C178.247 123.323 178.052 122.79 177.878 122.298H177.909V119.962C177.776 118.338 176.654 115.197 175.108 114.654C173.997 114.26 173.04 115.105 172.927 116.371C172.814 117.636 173.577 118.994 174.371 119.931C175.164 120.864 177.264 121.965 177.791 122.231C177.97 122.744 178.154 123.302 178.349 123.917C178.682 124.998 179.056 126.227 179.378 127.585C179.465 127.949 179.547 128.343 179.634 128.717C179.378 128.118 179.015 127.262 178.974 127.185C178.211 125.746 175.994 123.415 174.478 123.732C173.388 123.963 172.922 125.269 173.337 126.504C173.746 127.744 174.919 128.589 175.973 129.055C177.028 129.516 179.291 129.404 179.788 129.378C179.962 130.213 180.126 131.084 180.254 131.991C180.504 133.63 180.632 135.285 180.632 136.945H180.545C180.366 136.351 179.967 135.111 179.926 135.013C179.265 133.502 177.279 130.925 175.728 131.048C174.622 131.13 174.033 132.36 174.33 133.625C174.622 134.89 175.758 135.91 176.736 136.468C177.863 137.119 180.525 137.278 180.622 137.278C180.586 138.892 180.453 140.505 180.228 142.109C180.069 143.292 179.864 144.465 179.649 145.649C179.532 145.229 179.004 143.6 178.958 143.482C178.298 141.971 176.311 139.399 174.76 139.517C173.654 139.604 173.065 140.823 173.362 142.093C173.654 143.364 174.791 144.378 175.768 144.942C176.864 145.572 179.424 145.746 179.639 145.746C179.542 146.284 179.445 146.822 179.342 147.355C179.009 149.107 178.672 150.859 178.38 152.606C178.282 153.211 178.2 153.81 178.124 154.42C177.934 153.779 177.566 152.647 177.525 152.55C176.864 151.038 174.878 148.461 173.326 148.584C172.225 148.666 171.626 149.896 171.929 151.161C172.225 152.427 173.357 153.441 174.335 154.005C175.313 154.568 177.463 154.758 178.067 154.799C177.939 155.808 177.832 156.807 177.765 157.806C177.745 158.241 177.704 158.677 177.704 159.097V160.342C177.719 161.203 177.729 161.997 177.755 162.796C177.77 163.2 177.806 163.585 177.806 163.979C177.694 163.318 177.499 162.278 177.468 162.186C177.018 160.598 175.359 157.75 173.782 157.591C172.645 157.478 171.893 158.559 172.021 159.845C172.154 161.136 173.157 162.319 174.064 163.042C175.062 163.836 177.52 164.43 177.827 164.502C177.868 165.465 177.924 166.397 177.985 167.273C178.16 169.768 178.38 171.92 178.569 173.503H179.614C179.378 171.951 179.137 169.804 178.912 167.284C178.84 166.495 178.779 165.654 178.718 164.789C179.015 164.773 181.293 164.645 182.327 164.087C182.87 164.809 183.454 165.501 184.073 166.157C183.653 166.935 183.254 167.693 182.885 168.416C181.871 170.414 181.063 172.166 180.474 173.503H181.682C182.209 172.263 182.885 170.731 183.71 169.025C184.042 168.38 184.37 167.668 184.647 167.053L184.641 167.058Z" fill="black"/>
<path opacity="0.2" d="M209.703 139.983C210.287 138.897 209.99 137.55 208.997 136.817C207.574 135.875 205.111 137.212 204.148 138.272C204.066 138.364 202.945 140.004 202.95 140.009C202.95 140.009 205.566 141.356 206.795 141.356C207.835 141.356 209.145 141.013 209.703 139.983Z" fill="black"/>
<path d="M26.4034 130.392C25.5945 129.721 24.7497 128.563 24.7957 127.303C24.8367 126.043 25.7481 124.89 26.8745 124.941C28.4309 125.013 29.7058 127.784 29.9413 129.352C29.9669 129.506 30.0693 131.688 30.0386 131.688C30.0386 131.688 27.3711 131.207 26.4085 130.397L26.4034 130.392Z" fill="#D39B2D"/>
<path d="M25.3595 169.65C25.0779 169.835 22.8404 171.29 21.6833 171.443C20.6337 171.597 19.2923 171.443 18.6114 170.511C17.9202 169.491 18.0942 168.118 19.0158 167.304C20.3521 166.187 22.9582 167.155 24.0385 168.088C24.1051 168.149 24.8423 168.959 25.211 169.379C25.0011 168.953 24.7707 168.528 24.5351 168.088C24.2023 167.452 23.8286 166.792 23.4702 166.156L22.8712 165.178C22.6766 164.855 22.4513 164.568 22.2414 164.245C21.9188 163.789 21.5707 163.344 21.2174 162.878C20.6389 163.38 18.9595 164.814 17.9202 165.132C16.8859 165.449 15.5189 165.526 14.71 164.742C13.8856 163.841 13.8856 162.457 14.71 161.551C15.8978 160.229 18.6421 160.726 19.8453 161.423C19.8811 161.448 20.1217 161.627 20.3982 161.848C20.0449 161.417 19.6917 160.987 19.3179 160.567C18.2837 159.363 17.1675 158.205 16.0514 157.027L15.3653 156.284C14.8789 156.72 13.0152 158.297 11.981 158.62C10.9468 158.943 9.57976 159.02 8.77593 158.231C7.93625 157.334 7.93625 155.941 8.77593 155.039C9.96376 153.717 12.7081 154.214 13.9112 154.916C13.9573 154.942 14.2389 155.157 14.5564 155.408C13.9573 154.752 13.3685 154.097 12.8105 153.42C11.8274 152.252 10.9314 151.012 10.1327 149.716C9.95864 149.87 7.82874 151.766 6.66139 152.124C5.62204 152.447 4.25501 152.524 3.45118 151.74C2.62174 150.838 2.62174 149.45 3.45118 148.543C4.639 147.221 7.3833 147.723 8.58649 148.42C8.66841 148.471 9.68728 149.266 10.0406 149.563L10.0098 149.517C9.22648 148.179 8.57113 146.771 8.03865 145.316C7.54202 143.989 7.12218 142.636 6.77915 141.263C6.44123 139.977 6.21083 138.774 6.00603 137.708C5.90363 137.124 5.81659 136.591 5.7398 136.094V136.125C5.71932 136.15 4.65948 134.45 4.60317 134.327C3.95805 132.964 3.46142 129.793 4.57245 128.389C4.67996 128.23 4.81308 128.087 4.9718 127.974C5.72444 127.416 6.78427 127.574 7.34234 128.328C8.04377 129.219 8.01817 130.787 7.76218 132.021C7.50618 133.256 6.15451 135.459 5.82171 136.002C5.90363 136.519 6.00603 137.068 6.12891 137.672C6.34907 138.727 6.61019 139.921 6.96858 141.181C7.06074 141.525 7.17338 141.878 7.2809 142.226C7.20922 141.581 7.13242 140.695 7.13242 140.608C7.13242 138.994 7.96185 135.771 9.46712 135.044C10.5372 134.501 11.5714 135.223 11.8018 136.443C12.0322 137.667 11.4025 139.081 10.6754 140.116C9.9484 141.151 7.90042 142.518 7.42938 142.81C7.67002 143.574 7.93625 144.358 8.25881 145.147C8.81177 146.571 9.49784 147.939 10.2966 149.24L10.3734 149.189C10.2454 148.615 9.9996 147.39 9.9996 147.283C9.85624 145.69 10.3938 142.416 11.8325 141.514C12.8668 140.864 13.9829 141.432 14.3311 142.606C14.6741 143.784 14.1468 145.3 13.5477 146.366C12.8565 147.59 10.5577 149.419 10.4655 149.491C11.2745 150.72 12.1653 151.889 13.133 152.995C13.8447 153.81 14.5871 154.594 15.3448 155.372C15.2475 154.973 14.9199 153.364 14.9199 153.246C14.7765 151.653 15.3141 148.379 16.7528 147.472C17.787 146.822 18.9032 147.416 19.2514 148.569C19.5944 149.721 19.067 151.238 18.4731 152.304C17.7973 153.497 15.5957 155.265 15.4114 155.413L16.4405 156.469C17.5771 157.601 18.7189 158.764 19.8145 159.932C20.1934 160.336 20.5518 160.751 20.9102 161.172C20.7822 160.567 20.5569 159.45 20.5569 159.348C20.4085 157.754 20.9512 154.481 22.3899 153.574C23.4241 152.923 24.5403 153.513 24.8884 154.67C25.2315 155.828 24.7143 157.339 24.1051 158.405C23.4958 159.476 21.6782 161.002 21.1611 161.423C21.7601 162.124 22.3336 162.831 22.8712 163.564C23.076 163.887 23.3473 164.199 23.5419 164.522L24.1563 165.485C24.5556 166.156 24.9294 166.781 25.2878 167.422C25.4721 167.729 25.6308 168.036 25.8049 168.354C25.5899 167.77 25.2468 166.838 25.2468 166.745C24.8935 165.224 25.0011 161.94 26.3271 160.808C26.4858 160.659 26.6702 160.547 26.8698 160.47C27.7198 160.152 28.6618 160.582 28.9793 161.433C29.0407 161.571 29.0919 161.709 29.1277 161.858C30.0698 162.755 30.7559 163.882 31.1194 165.127C31.145 165.224 31.3293 166.418 31.4112 167.032C31.442 166.51 31.4829 165.992 31.5085 165.449C31.5495 164.671 31.5802 163.841 31.6058 163.047C31.6058 162.632 31.5956 162.227 31.6058 161.797C31.616 161.366 31.57 160.967 31.57 160.547C31.5444 159.937 31.488 159.307 31.4317 158.677C30.7405 158.753 28.7693 158.953 27.7914 158.569C26.8135 158.185 25.7025 157.355 25.4567 156.166C25.211 154.978 25.851 153.61 26.9722 153.313C28.5338 152.903 30.4333 155.106 31.0324 156.51C31.0528 156.551 31.1501 156.868 31.2628 157.242C31.1911 156.632 31.1245 156.018 31.0324 155.408C30.7815 153.666 30.4794 151.909 30.1773 150.147C30.1108 149.778 30.0545 149.409 29.993 149.045C29.4247 149.112 27.2436 149.327 26.2606 148.948C25.2775 148.569 24.1716 147.744 23.9259 146.545C23.6852 145.352 24.3201 143.984 25.4414 143.692C27.003 143.282 28.9025 145.48 29.4964 146.883C29.522 146.935 29.6346 147.309 29.7626 147.729C29.6141 146.765 29.4708 145.802 29.3633 144.844C29.1585 143.179 29.0561 141.504 29.0561 139.824C28.8513 139.849 26.281 140.172 25.2007 139.742C24.2177 139.358 23.1169 138.528 22.866 137.339C22.6152 136.15 23.2603 134.783 24.3815 134.486C25.9431 134.076 27.8426 136.279 28.4365 137.682C28.4775 137.764 28.8871 139.137 29.0202 139.634V139.573C29.0458 137.897 29.2045 136.222 29.4861 134.573C29.7319 133.087 30.0545 131.611 30.4538 130.157C30.802 128.804 31.2013 127.574 31.5546 126.494C31.7492 125.91 31.9437 125.377 32.1178 124.885H32.0871V122.549C32.2202 120.925 33.3415 117.784 34.8877 117.241C35.9987 116.847 36.9562 117.692 37.0688 118.958C37.1814 120.223 36.4186 121.581 35.625 122.518C34.8314 123.45 32.7322 124.552 32.2048 124.818C32.0256 125.331 31.8413 125.889 31.6468 126.504C31.314 127.585 30.9402 128.814 30.6176 130.172C30.5306 130.536 30.4487 130.93 30.3616 131.304C30.6176 130.705 30.9812 129.849 31.0221 129.772C31.785 128.333 34.0019 126.002 35.5174 126.319C36.608 126.55 37.0739 127.856 36.6592 129.091C36.2496 130.331 35.0771 131.176 34.0224 131.642C32.9677 132.103 30.7047 131.991 30.208 131.965C30.034 132.8 29.8701 133.671 29.7421 134.578C29.4913 136.217 29.3633 137.872 29.3633 139.532H29.4503C29.6295 138.937 30.0289 137.698 30.0698 137.6C30.7303 136.089 32.7168 133.512 34.2682 133.635C35.3741 133.717 35.9629 134.947 35.6659 136.212C35.3741 137.477 34.2375 138.497 33.2595 139.055C32.1332 139.706 29.4708 139.865 29.3735 139.865C29.4093 141.478 29.5425 143.092 29.7677 144.696C29.9265 145.879 30.1313 147.052 30.3463 148.236C30.464 147.816 30.9914 146.187 31.0375 146.069C31.698 144.557 33.6845 141.986 35.2358 142.104C36.3418 142.191 36.9305 143.41 36.6336 144.68C36.3418 145.951 35.2051 146.965 34.2272 147.529C33.1315 148.159 30.5716 148.333 30.3565 148.333C30.4538 148.871 30.5511 149.409 30.6535 149.942C30.9863 151.694 31.3242 153.446 31.616 155.193C31.7133 155.797 31.7952 156.397 31.872 157.006C32.0615 156.366 32.4301 155.234 32.4711 155.137C33.1315 153.625 35.1181 151.048 36.6694 151.171C37.7702 151.253 38.3693 152.483 38.0672 153.748C37.7702 155.014 36.6387 156.028 35.6608 156.592C34.6829 157.155 32.5325 157.345 31.9284 157.386C32.0564 158.395 32.1639 159.394 32.2304 160.393C32.2509 160.828 32.2919 161.264 32.2919 161.684V162.929C32.2765 163.789 32.2663 164.583 32.2407 165.383C32.2253 165.787 32.1895 166.172 32.1895 166.566C32.3021 165.905 32.4967 164.865 32.5274 164.773C32.9779 163.185 34.6368 160.336 36.2138 160.178C37.3504 160.065 38.103 161.146 37.975 162.432C37.8419 163.723 36.8384 164.906 35.9322 165.629C34.9338 166.423 32.4762 167.017 32.169 167.089C32.128 168.052 32.0717 168.984 32.0103 169.86C31.8362 172.355 31.616 174.507 31.4266 176.09H30.3821C30.6176 174.538 30.8583 172.391 31.0836 169.87C31.1552 169.082 31.2167 168.241 31.2781 167.376C30.9812 167.36 28.7028 167.232 27.6686 166.674C27.1258 167.396 26.5422 168.088 25.9226 168.743C26.3425 169.522 26.7418 170.28 27.1105 171.003C28.1242 173.001 28.9332 174.753 29.522 176.09H28.3137C27.7863 174.85 27.1105 173.318 26.2862 171.612C25.9534 170.967 25.6257 170.255 25.3492 169.64L25.3595 169.65Z" fill="#D39B2D"/>
<path d="M0.297224 142.575C-0.286451 141.489 0.0105068 140.142 1.00378 139.409C2.42712 138.466 4.88982 139.803 5.85237 140.864C5.93429 140.956 7.05556 142.596 7.05044 142.601C7.05044 142.601 4.43415 143.948 3.20536 143.948C2.16601 143.948 0.855299 143.605 0.297224 142.575Z" fill="#D39B2D"/>
<path opacity="0.2" d="M26.4034 130.392C25.5945 129.721 24.7497 128.563 24.7957 127.303C24.8367 126.043 25.7481 124.89 26.8745 124.941C28.4309 125.013 29.7058 127.784 29.9413 129.352C29.9669 129.506 30.0693 131.688 30.0386 131.688C30.0386 131.688 27.3711 131.207 26.4085 130.397L26.4034 130.392Z" fill="black"/>
<path opacity="0.2" d="M25.3595 169.65C25.0779 169.835 22.8404 171.29 21.6833 171.443C20.6337 171.597 19.2923 171.443 18.6114 170.511C17.9202 169.491 18.0942 168.118 19.0158 167.304C20.3521 166.187 22.9582 167.155 24.0385 168.088C24.1051 168.149 24.8423 168.959 25.211 169.379C25.0011 168.953 24.7707 168.528 24.5351 168.088C24.2023 167.452 23.8286 166.792 23.4702 166.156L22.8712 165.178C22.6766 164.855 22.4513 164.568 22.2414 164.245C21.9188 163.789 21.5707 163.344 21.2174 162.878C20.6389 163.38 18.9595 164.814 17.9202 165.132C16.8859 165.449 15.5189 165.526 14.71 164.742C13.8856 163.841 13.8856 162.457 14.71 161.551C15.8978 160.229 18.6421 160.726 19.8453 161.423C19.8811 161.448 20.1217 161.627 20.3982 161.848C20.0449 161.417 19.6917 160.987 19.3179 160.567C18.2837 159.363 17.1675 158.205 16.0514 157.027L15.3653 156.284C14.8789 156.72 13.0152 158.297 11.981 158.62C10.9468 158.943 9.57976 159.02 8.77593 158.231C7.93625 157.334 7.93625 155.941 8.77593 155.039C9.96376 153.717 12.7081 154.214 13.9112 154.916C13.9573 154.942 14.2389 155.157 14.5564 155.408C13.9573 154.752 13.3685 154.097 12.8105 153.42C11.8274 152.252 10.9314 151.012 10.1327 149.716C9.95864 149.87 7.82874 151.766 6.66139 152.124C5.62204 152.447 4.25501 152.524 3.45118 151.74C2.62174 150.838 2.62174 149.45 3.45118 148.543C4.639 147.221 7.3833 147.723 8.58649 148.42C8.66841 148.471 9.68728 149.266 10.0406 149.563L10.0098 149.517C9.22648 148.179 8.57113 146.771 8.03865 145.316C7.54202 143.989 7.12218 142.636 6.77915 141.263C6.44123 139.977 6.21083 138.774 6.00603 137.708C5.90363 137.124 5.81659 136.591 5.7398 136.094V136.125C5.71932 136.15 4.65948 134.45 4.60317 134.327C3.95805 132.964 3.46142 129.793 4.57245 128.389C4.67996 128.23 4.81308 128.087 4.9718 127.974C5.72444 127.416 6.78427 127.574 7.34234 128.328C8.04377 129.219 8.01817 130.787 7.76218 132.021C7.50618 133.256 6.15451 135.459 5.82171 136.002C5.90363 136.519 6.00603 137.068 6.12891 137.672C6.34907 138.727 6.61019 139.921 6.96858 141.181C7.06074 141.525 7.17338 141.878 7.2809 142.226C7.20922 141.581 7.13242 140.695 7.13242 140.608C7.13242 138.994 7.96185 135.771 9.46712 135.044C10.5372 134.501 11.5714 135.223 11.8018 136.443C12.0322 137.667 11.4025 139.081 10.6754 140.116C9.9484 141.151 7.90042 142.518 7.42938 142.81C7.67002 143.574 7.93625 144.358 8.25881 145.147C8.81177 146.571 9.49784 147.939 10.2966 149.24L10.3734 149.189C10.2454 148.615 9.9996 147.39 9.9996 147.283C9.85624 145.69 10.3938 142.416 11.8325 141.514C12.8668 140.864 13.9829 141.432 14.3311 142.606C14.6741 143.784 14.1468 145.3 13.5477 146.366C12.8565 147.59 10.5577 149.419 10.4655 149.491C11.2745 150.72 12.1653 151.889 13.133 152.995C13.8447 153.81 14.5871 154.594 15.3448 155.372C15.2475 154.973 14.9199 153.364 14.9199 153.246C14.7765 151.653 15.3141 148.379 16.7528 147.472C17.787 146.822 18.9032 147.416 19.2514 148.569C19.5944 149.721 19.067 151.238 18.4731 152.304C17.7973 153.497 15.5957 155.265 15.4114 155.413L16.4405 156.469C17.5771 157.601 18.7189 158.764 19.8145 159.932C20.1934 160.336 20.5518 160.751 20.9102 161.172C20.7822 160.567 20.5569 159.45 20.5569 159.348C20.4085 157.754 20.9512 154.481 22.3899 153.574C23.4241 152.923 24.5403 153.513 24.8884 154.67C25.2315 155.828 24.7143 157.339 24.1051 158.405C23.4958 159.476 21.6782 161.002 21.1611 161.423C21.7601 162.124 22.3336 162.831 22.8712 163.564C23.076 163.887 23.3473 164.199 23.5419 164.522L24.1563 165.485C24.5556 166.156 24.9294 166.781 25.2878 167.422C25.4721 167.729 25.6308 168.036 25.8049 168.354C25.5899 167.77 25.2468 166.838 25.2468 166.745C24.8935 165.224 25.0011 161.94 26.3271 160.808C26.4858 160.659 26.6702 160.547 26.8698 160.47C27.7198 160.152 28.6618 160.582 28.9793 161.433C29.0407 161.571 29.0919 161.709 29.1277 161.858C30.0698 162.755 30.7559 163.882 31.1194 165.127C31.145 165.224 31.3293 166.418 31.4112 167.032C31.442 166.51 31.4829 165.992 31.5085 165.449C31.5495 164.671 31.5802 163.841 31.6058 163.047C31.6058 162.632 31.5956 162.227 31.6058 161.797C31.616 161.366 31.57 160.967 31.57 160.547C31.5444 159.937 31.488 159.307 31.4317 158.677C30.7405 158.753 28.7693 158.953 27.7914 158.569C26.8135 158.185 25.7025 157.355 25.4567 156.166C25.211 154.978 25.851 153.61 26.9722 153.313C28.5338 152.903 30.4333 155.106 31.0324 156.51C31.0528 156.551 31.1501 156.868 31.2628 157.242C31.1911 156.632 31.1245 156.018 31.0324 155.408C30.7815 153.666 30.4794 151.909 30.1773 150.147C30.1108 149.778 30.0545 149.409 29.993 149.045C29.4247 149.112 27.2436 149.327 26.2606 148.948C25.2775 148.569 24.1716 147.744 23.9259 146.545C23.6852 145.352 24.3201 143.984 25.4414 143.692C27.003 143.282 28.9025 145.48 29.4964 146.883C29.522 146.935 29.6346 147.309 29.7626 147.729C29.6141 146.765 29.4708 145.802 29.3633 144.844C29.1585 143.179 29.0561 141.504 29.0561 139.824C28.8513 139.849 26.281 140.172 25.2007 139.742C24.2177 139.358 23.1169 138.528 22.866 137.339C22.6152 136.15 23.2603 134.783 24.3815 134.486C25.9431 134.076 27.8426 136.279 28.4365 137.682C28.4775 137.764 28.8871 139.137 29.0202 139.634V139.573C29.0458 137.897 29.2045 136.222 29.4861 134.573C29.7319 133.087 30.0545 131.611 30.4538 130.157C30.802 128.804 31.2013 127.574 31.5546 126.494C31.7492 125.91 31.9437 125.377 32.1178 124.885H32.0871V122.549C32.2202 120.925 33.3415 117.784 34.8877 117.241C35.9987 116.847 36.9562 117.692 37.0688 118.958C37.1814 120.223 36.4186 121.581 35.625 122.518C34.8314 123.45 32.7322 124.552 32.2048 124.818C32.0256 125.331 31.8413 125.889 31.6468 126.504C31.314 127.585 30.9402 128.814 30.6176 130.172C30.5306 130.536 30.4487 130.93 30.3616 131.304C30.6176 130.705 30.9812 129.849 31.0221 129.772C31.785 128.333 34.0019 126.002 35.5174 126.319C36.608 126.55 37.0739 127.856 36.6592 129.091C36.2496 130.331 35.0771 131.176 34.0224 131.642C32.9677 132.103 30.7047 131.991 30.208 131.965C30.034 132.8 29.8701 133.671 29.7421 134.578C29.4913 136.217 29.3633 137.872 29.3633 139.532H29.4503C29.6295 138.937 30.0289 137.698 30.0698 137.6C30.7303 136.089 32.7168 133.512 34.2682 133.635C35.3741 133.717 35.9629 134.947 35.6659 136.212C35.3741 137.477 34.2375 138.497 33.2595 139.055C32.1332 139.706 29.4708 139.865 29.3735 139.865C29.4093 141.478 29.5425 143.092 29.7677 144.696C29.9265 145.879 30.1313 147.052 30.3463 148.236C30.464 147.816 30.9914 146.187 31.0375 146.069C31.698 144.557 33.6845 141.986 35.2358 142.104C36.3418 142.191 36.9305 143.41 36.6336 144.68C36.3418 145.951 35.2051 146.965 34.2272 147.529C33.1315 148.159 30.5716 148.333 30.3565 148.333C30.4538 148.871 30.5511 149.409 30.6535 149.942C30.9863 151.694 31.3242 153.446 31.616 155.193C31.7133 155.797 31.7952 156.397 31.872 157.006C32.0615 156.366 32.4301 155.234 32.4711 155.137C33.1315 153.625 35.1181 151.048 36.6694 151.171C37.7702 151.253 38.3693 152.483 38.0672 153.748C37.7702 155.014 36.6387 156.028 35.6608 156.592C34.6829 157.155 32.5325 157.345 31.9284 157.386C32.0564 158.395 32.1639 159.394 32.2304 160.393C32.2509 160.828 32.2919 161.264 32.2919 161.684V162.929C32.2765 163.789 32.2663 164.583 32.2407 165.383C32.2253 165.787 32.1895 166.172 32.1895 166.566C32.3021 165.905 32.4967 164.865 32.5274 164.773C32.9779 163.185 34.6368 160.336 36.2138 160.178C37.3504 160.065 38.103 161.146 37.975 162.432C37.8419 163.723 36.8384 164.906 35.9322 165.629C34.9338 166.423 32.4762 167.017 32.169 167.089C32.128 168.052 32.0717 168.984 32.0103 169.86C31.8362 172.355 31.616 174.507 31.4266 176.09H30.3821C30.6176 174.538 30.8583 172.391 31.0836 169.87C31.1552 169.082 31.2167 168.241 31.2781 167.376C30.9812 167.36 28.7028 167.232 27.6686 166.674C27.1258 167.396 26.5422 168.088 25.9226 168.743C26.3425 169.522 26.7418 170.28 27.1105 171.003C28.1242 173.001 28.9332 174.753 29.522 176.09H28.3137C27.7863 174.85 27.1105 173.318 26.2862 171.612C25.9534 170.967 25.6257 170.255 25.3492 169.64L25.3595 169.65Z" fill="black"/>
<path opacity="0.2" d="M0.297224 142.575C-0.286451 141.489 0.0105068 140.142 1.00378 139.409C2.42712 138.466 4.88982 139.803 5.85237 140.864C5.93429 140.956 7.05556 142.596 7.05044 142.601C7.05044 142.601 4.43415 143.948 3.20536 143.948C2.16601 143.948 0.855299 143.605 0.297224 142.575Z" fill="black"/>
<path d="M75.765 36.5629C75.7753 28.4992 69.2525 21.9519 61.1937 21.9365C53.1348 21.9263 46.5915 28.4531 46.5762 36.5168C46.5659 43.1972 51.0869 49.0324 57.5585 50.6872L61.0503 56.7785L64.3783 50.8409C71.0444 49.3398 75.7804 43.4022 75.765 36.5629Z" fill="#263238"/>
<path d="M62.5605 44.1708V46.5889H60.4102V44.263C58.5004 44.2015 56.6419 43.6021 55.0547 42.5365L56.2425 39.9187C57.4764 40.7793 58.9151 41.3019 60.4153 41.4402V37.8438C58.0294 37.2649 55.3414 36.4606 55.3414 33.3868C55.3414 31.1121 56.9952 29.1551 60.4153 28.7658V26.3682H62.5657V28.7145C64.1016 28.8067 65.5967 29.2576 66.9279 30.0363L65.8527 32.6747C64.8389 32.0906 63.7228 31.7115 62.5657 31.5578V35.2208C64.9516 35.7792 67.5781 36.5733 67.5781 39.6062C67.5883 41.8193 65.9448 43.761 62.5657 44.1657L62.5605 44.1708ZM60.4102 34.6675V31.6193C59.2735 31.8755 58.8179 32.5005 58.8179 33.2023C58.8179 33.9042 59.4681 34.3601 60.4102 34.6624V34.6675ZM64.1016 39.8469C64.1016 39.0938 63.4821 38.6891 62.5605 38.3664V41.3429C63.6357 41.097 64.1016 40.5386 64.1016 39.8521V39.8469Z" fill="#D39B2D"/>
<path d="M30.4072 73.6489L38.2868 183.487L120.477 173.912L97.3967 69.1406L30.4072 73.6489Z" fill="#D39B2D" stroke="#263238" stroke-linecap="round" stroke-linejoin="round"/>
<path d="M30.4069 73.6484L18.585 177.857L38.2865 183.487L30.4069 73.6484Z" fill="#D39B2D" stroke="#263238" stroke-linecap="round" stroke-linejoin="round"/>
<path opacity="0.1" d="M38.2865 183.487L30.4069 73.6484L18.585 177.857L38.2865 183.487Z" fill="black"/>
<path d="M53.5391 79.4587C53.5391 79.4587 58.1982 99.3413 71.208 101.252C84.2178 103.158 88.0322 74.9248 88.0322 74.9248" stroke="#263238" stroke-linecap="round" stroke-linejoin="round"/>
<path d="M53.5389 81.4206C54.899 81.4206 56.0016 80.3173 56.0016 78.9564C56.0016 77.5954 54.899 76.4922 53.5389 76.4922C52.1788 76.4922 51.0762 77.5954 51.0762 78.9564C51.0762 80.3173 52.1788 81.4206 53.5389 81.4206Z" fill="#263238"/>
<path d="M178.902 30.3281H106.244C103.47 30.3281 101.222 32.5782 101.222 35.3538V174.44C101.222 177.215 103.47 179.466 106.244 179.466H178.902C181.676 179.466 183.924 177.215 183.924 174.44V35.3538C183.924 32.5782 181.676 30.3281 178.902 30.3281Z" fill="#263238" stroke="#263238" stroke-linecap="round" stroke-linejoin="round"/>
<path d="M175.067 30.3281H102.409C99.6354 30.3281 97.3867 32.5782 97.3867 35.3538V174.44C97.3867 177.215 99.6354 179.466 102.409 179.466H175.067C177.841 179.466 180.089 177.215 180.089 174.44V35.3538C180.089 32.5782 177.841 30.3281 175.067 30.3281Z" fill="white" stroke="#263238" stroke-linecap="round" stroke-linejoin="round"/>
<path d="M144.454 39.2367H134.158C133.575 39.2367 133.104 38.7654 133.104 38.1813C133.104 37.5973 133.58 37.126 134.158 37.126H144.454C145.038 37.126 145.509 37.5973 145.509 38.1813C145.509 38.7602 145.048 39.2367 144.465 39.2367C144.465 39.2367 144.454 39.2367 144.449 39.2367H144.454Z" fill="#263238"/>
<path d="M174.857 39.3962V166.131H102.614V39.3604H119.735L121.655 40.9587C122.331 41.512 123.176 41.8245 124.057 41.8245H154.275C155.186 41.8245 156.061 41.4915 156.742 40.8921L158.488 39.4013H174.862L174.857 39.3962Z" fill="#263238"/>
<path d="M174.857 166.131H102.609V39.3604H119.73L121.65 40.9536C122.326 41.512 123.171 41.8143 124.047 41.8194H154.265C155.176 41.8194 156.051 41.4915 156.738 40.887L158.478 39.3962H174.852V166.131H174.857Z" stroke="#263238" stroke-linecap="round" stroke-linejoin="round"/>
<path d="M141.045 170.044C141.045 169.137 140.308 168.399 139.401 168.399C138.495 168.399 137.758 169.137 137.758 170.044C137.758 170.951 138.495 171.688 139.401 171.688H139.406C140.313 171.688 141.045 170.956 141.045 170.049V170.044Z" fill="#263238"/>
<path opacity="0.2" d="M174.852 100.202V116.427L125.173 166.131H108.963L174.852 100.202Z" fill="white"/>
<path opacity="0.2" d="M174.857 47.6699V74.3457L102.614 146.632V119.961L174.857 47.6699Z" fill="white"/>
<path d="M184.707 62.5781H87.7609C85.3715 62.5781 83.4346 64.5163 83.4346 66.9071V121.278C83.4346 123.669 85.3715 125.607 87.7609 125.607H184.707C187.097 125.607 189.034 123.669 189.034 121.278V66.9071C189.034 64.5163 187.097 62.5781 184.707 62.5781Z" fill="white" stroke="#263238" stroke-linecap="round" stroke-linejoin="round"/>
<path d="M108.742 91.4306V86.1846H106.679V85.2061H111.957V86.1846H109.894V91.4306H108.737H108.742Z" fill="#D39B2D"/>
<path d="M113.99 91.4306H112.833V85.2061H113.99V91.4306ZM117.298 88.7615H113.893V87.7727H117.298V88.7615ZM117.211 85.2061H118.368V91.4306H117.211V85.2061Z" fill="#D39B2D"/>
<path d="M119.151 91.4306L121.952 85.2061H123.089L125.899 91.4306H124.691L122.285 85.8208H122.746L120.344 91.4306H119.151ZM120.442 89.991L120.754 89.0842H124.113L124.425 89.991H120.442Z" fill="#D39B2D"/>
<path d="M126.688 91.4306V85.2061H127.64L131.541 90.0012H131.07V85.2061H132.217V91.4306H131.265L127.363 86.6354H127.834V91.4306H126.688Z" fill="#D39B2D"/>
<path d="M133.886 91.4306V85.2061H135.043V91.4306H133.886ZM134.915 89.9654L134.853 88.5975L138.115 85.2112H139.41L136.702 88.0903L136.062 88.7922L134.915 89.9654ZM138.222 91.4306L135.842 88.5924L136.604 87.7471L139.574 91.4306H138.222Z" fill="#D39B2D"/>
<path d="M144.352 91.4306V88.9664L144.608 89.6785L141.904 85.2061H143.138L145.309 88.8076H144.618L146.804 85.2061H147.941L145.237 89.6785L145.504 88.9664V91.4306H144.347H144.352Z" fill="#D39B2D"/>
<path d="M151.345 91.5181C150.859 91.5181 150.413 91.4361 150.004 91.2773C149.594 91.1185 149.241 90.8931 148.939 90.6062C148.637 90.3193 148.401 89.9812 148.237 89.5918C148.073 89.2025 147.986 88.7772 147.986 88.3162C147.986 87.8551 148.068 87.4299 148.237 87.0405C148.401 86.6512 148.637 86.3131 148.939 86.0262C149.241 85.7393 149.599 85.5139 150.004 85.355C150.413 85.1962 150.859 85.1143 151.335 85.1143C151.811 85.1143 152.267 85.1962 152.671 85.355C153.076 85.5139 153.429 85.7393 153.736 86.0262C154.038 86.3131 154.274 86.6512 154.437 87.0405C154.601 87.4299 154.688 87.8551 154.688 88.3162C154.688 88.7772 154.606 89.2076 154.437 89.5969C154.269 89.9863 154.038 90.3244 153.736 90.6113C153.434 90.8982 153.081 91.1185 152.671 91.2773C152.261 91.4361 151.821 91.5181 151.345 91.5181ZM151.335 90.5037C151.647 90.5037 151.939 90.4525 152.205 90.3449C152.471 90.2373 152.702 90.0836 152.896 89.889C153.091 89.6892 153.245 89.4586 153.352 89.1973C153.46 88.9361 153.516 88.644 153.516 88.3213C153.516 87.9985 153.46 87.7117 153.352 87.4453C153.245 87.184 153.091 86.9483 152.896 86.7536C152.702 86.5538 152.471 86.4001 152.205 86.2977C151.939 86.1952 151.647 86.1389 151.335 86.1389C151.022 86.1389 150.731 86.1901 150.47 86.2977C150.203 86.4053 149.973 86.559 149.778 86.7536C149.579 86.9534 149.425 87.184 149.318 87.4453C149.21 87.7117 149.154 87.9985 149.154 88.3213C149.154 88.644 149.21 88.9258 149.318 89.1922C149.425 89.4586 149.579 89.6943 149.773 89.889C149.968 90.0888 150.198 90.2424 150.464 90.3449C150.731 90.4525 151.022 90.5037 151.335 90.5037Z" fill="#D39B2D"/>
<path d="M158.59 91.5179C157.734 91.5179 157.069 91.2771 156.582 90.7956C156.096 90.314 155.855 89.6224 155.855 88.7156V85.2012H157.013V88.6695C157.013 89.3099 157.151 89.7761 157.427 90.0681C157.704 90.3601 158.093 90.5035 158.595 90.5035C159.096 90.5035 159.486 90.3601 159.757 90.0681C160.028 89.7761 160.166 89.3099 160.166 88.6695V85.2012H161.303V88.7156C161.303 89.6224 161.062 90.314 160.581 90.7956C160.1 91.2771 159.434 91.5179 158.584 91.5179H158.59Z" fill="#D39B2D"/>
<path d="M163.336 91.492C163.126 91.492 162.957 91.4254 162.819 91.2871C162.681 91.1488 162.614 90.99 162.614 90.8004C162.614 90.6109 162.681 90.4469 162.819 90.3137C162.957 90.1805 163.126 90.1139 163.336 90.1139C163.546 90.1139 163.71 90.1805 163.843 90.3137C163.976 90.4469 164.038 90.6109 164.038 90.8004C164.038 90.99 163.971 91.1539 163.843 91.2871C163.715 91.4254 163.546 91.492 163.336 91.492ZM162.891 89.366L162.676 85.2061H163.992L163.771 89.366H162.891Z" fill="#D39B2D"/>
<path d="M104.396 102.87V101.441L104.462 101.625L102.809 98.9307H103.126L104.626 101.374H104.467L105.968 98.9307H106.265L104.611 101.625L104.677 101.441V102.87H104.391H104.396Z" fill="black"/>
<path d="M107.704 102.896C107.422 102.896 107.171 102.835 106.956 102.707C106.736 102.579 106.562 102.405 106.434 102.179C106.306 101.954 106.239 101.698 106.239 101.411C106.239 101.124 106.306 100.863 106.434 100.637C106.562 100.412 106.736 100.238 106.956 100.109C107.176 99.9814 107.427 99.9199 107.704 99.9199C107.98 99.9199 108.236 99.9814 108.456 100.109C108.676 100.238 108.85 100.412 108.978 100.637C109.106 100.863 109.168 101.119 109.168 101.411C109.168 101.703 109.106 101.954 108.978 102.179C108.85 102.405 108.676 102.579 108.456 102.707C108.236 102.835 107.985 102.896 107.704 102.896ZM107.704 102.645C107.929 102.645 108.129 102.594 108.313 102.492C108.497 102.389 108.635 102.246 108.733 102.056C108.83 101.867 108.886 101.652 108.886 101.411C108.886 101.17 108.835 100.945 108.733 100.76C108.63 100.576 108.492 100.432 108.313 100.33C108.134 100.227 107.929 100.176 107.704 100.176C107.478 100.176 107.279 100.227 107.099 100.33C106.92 100.432 106.782 100.576 106.68 100.76C106.577 100.945 106.526 101.165 106.526 101.411C106.526 101.657 106.577 101.872 106.68 102.056C106.782 102.241 106.925 102.389 107.099 102.492C107.273 102.594 107.478 102.645 107.704 102.645Z" fill="black"/>
<path d="M111.231 102.896C110.98 102.896 110.759 102.85 110.58 102.758C110.396 102.666 110.258 102.528 110.155 102.343C110.058 102.159 110.007 101.928 110.007 101.657V99.9404H110.288V101.631C110.288 101.959 110.375 102.21 110.539 102.384C110.703 102.558 110.944 102.64 111.251 102.64C111.471 102.64 111.661 102.594 111.824 102.502C111.983 102.41 112.111 102.277 112.193 102.107C112.28 101.938 112.321 101.734 112.321 101.503V99.9404H112.603V102.876H112.331V102.061L112.372 102.159C112.285 102.389 112.142 102.569 111.942 102.702C111.742 102.835 111.502 102.902 111.225 102.902L111.231 102.896Z" fill="black"/>
<path d="M113.801 102.871V99.9355H114.072V100.74L114.047 100.648C114.128 100.412 114.267 100.228 114.461 100.105C114.656 99.9765 114.902 99.915 115.193 99.915V100.192C115.193 100.192 115.173 100.192 115.158 100.192C115.147 100.192 115.137 100.192 115.122 100.192C114.794 100.192 114.543 100.294 114.359 100.499C114.175 100.704 114.082 100.986 114.082 101.349V102.881H113.801V102.871Z" fill="black"/>
<path d="M118.604 102.896C118.322 102.896 118.071 102.835 117.856 102.707C117.636 102.579 117.462 102.405 117.334 102.179C117.206 101.954 117.14 101.698 117.14 101.411C117.14 101.124 117.206 100.863 117.334 100.637C117.462 100.412 117.636 100.238 117.856 100.109C118.077 99.9814 118.327 99.9199 118.604 99.9199C118.88 99.9199 119.136 99.9814 119.357 100.109C119.577 100.238 119.751 100.412 119.879 100.637C120.007 100.863 120.068 101.119 120.068 101.411C120.068 101.703 120.007 101.954 119.879 102.179C119.751 102.405 119.577 102.579 119.357 102.707C119.136 102.835 118.886 102.896 118.604 102.896ZM118.604 102.645C118.829 102.645 119.029 102.594 119.213 102.492C119.398 102.389 119.536 102.246 119.633 102.056C119.73 101.867 119.787 101.652 119.787 101.411C119.787 101.17 119.735 100.945 119.633 100.76C119.531 100.576 119.392 100.432 119.213 100.33C119.034 100.227 118.829 100.176 118.604 100.176C118.379 100.176 118.179 100.227 118 100.33C117.821 100.432 117.682 100.576 117.58 100.76C117.478 100.945 117.426 101.165 117.426 101.411C117.426 101.657 117.478 101.872 117.58 102.056C117.682 102.241 117.826 102.389 118 102.492C118.174 102.594 118.379 102.645 118.604 102.645Z" fill="black"/>
<path d="M120.943 102.871V99.9355H121.215V100.74L121.189 100.648C121.271 100.412 121.409 100.228 121.604 100.105C121.798 99.9765 122.044 99.915 122.336 99.915V100.192C122.336 100.192 122.316 100.192 122.3 100.192C122.29 100.192 122.28 100.192 122.264 100.192C121.937 100.192 121.686 100.294 121.501 100.499C121.317 100.704 121.225 100.986 121.225 101.349V102.881H120.943V102.871Z" fill="black"/>
<path d="M124.205 102.896C123.928 102.896 123.683 102.835 123.468 102.706C123.247 102.578 123.073 102.404 122.945 102.179C122.817 101.953 122.756 101.697 122.756 101.405C122.756 101.113 122.817 100.852 122.945 100.626C123.073 100.401 123.247 100.227 123.468 100.104C123.688 99.9758 123.933 99.9144 124.205 99.9144C124.461 99.9144 124.696 99.9758 124.906 100.094C125.116 100.211 125.28 100.386 125.403 100.606C125.526 100.826 125.587 101.093 125.587 101.405C125.587 101.718 125.526 101.974 125.408 102.199C125.29 102.425 125.126 102.599 124.916 102.717C124.707 102.835 124.471 102.896 124.21 102.896H124.205ZM124.22 102.645C124.445 102.645 124.645 102.594 124.824 102.491C125.004 102.389 125.142 102.245 125.244 102.056C125.347 101.866 125.398 101.651 125.398 101.41C125.398 101.17 125.347 100.944 125.244 100.76C125.142 100.575 124.998 100.432 124.824 100.329C124.65 100.227 124.445 100.176 124.22 100.176C123.995 100.176 123.795 100.227 123.616 100.329C123.437 100.432 123.299 100.575 123.196 100.76C123.094 100.944 123.043 101.164 123.043 101.41C123.043 101.656 123.094 101.871 123.196 102.056C123.299 102.24 123.442 102.389 123.616 102.491C123.79 102.594 123.995 102.645 124.22 102.645ZM125.408 102.875V101.912L125.459 101.4L125.403 100.888V98.7002H125.684V102.87H125.408V102.875Z" fill="black"/>
<path d="M128.06 102.896C127.763 102.896 127.502 102.835 127.277 102.707C127.052 102.579 126.872 102.405 126.744 102.179C126.616 101.954 126.55 101.698 126.55 101.411C126.55 101.124 126.611 100.863 126.734 100.637C126.857 100.412 127.026 100.238 127.236 100.109C127.446 99.9814 127.686 99.9199 127.958 99.9199C128.229 99.9199 128.465 99.9814 128.675 100.104C128.885 100.227 129.053 100.401 129.176 100.622C129.299 100.847 129.361 101.103 129.361 101.395C129.361 101.406 129.361 101.421 129.361 101.431C129.361 101.447 129.361 101.457 129.361 101.472H126.77V101.252H129.207L129.094 101.36C129.094 101.129 129.048 100.924 128.951 100.745C128.854 100.56 128.716 100.422 128.547 100.32C128.378 100.217 128.183 100.166 127.963 100.166C127.743 100.166 127.553 100.217 127.379 100.32C127.21 100.422 127.077 100.565 126.98 100.745C126.883 100.924 126.831 101.134 126.831 101.365V101.416C126.831 101.657 126.883 101.867 126.99 102.056C127.098 102.241 127.246 102.384 127.43 102.492C127.615 102.599 127.83 102.645 128.07 102.645C128.26 102.645 128.434 102.61 128.598 102.543C128.762 102.476 128.9 102.374 129.013 102.236L129.176 102.42C129.048 102.579 128.89 102.697 128.695 102.779C128.501 102.861 128.296 102.902 128.07 102.902L128.06 102.896Z" fill="black"/>
<path d="M130.226 102.871V99.9355H130.497V100.74L130.471 100.648C130.553 100.412 130.691 100.228 130.886 100.105C131.081 99.9765 131.326 99.915 131.618 99.915V100.192C131.618 100.192 131.598 100.192 131.582 100.192C131.572 100.192 131.562 100.192 131.547 100.192C131.219 100.192 130.968 100.294 130.784 100.499C130.599 100.704 130.507 100.986 130.507 101.349V102.881H130.226V102.871Z" fill="black"/>
<path d="M134.025 99.2226C133.964 99.2226 133.908 99.2021 133.861 99.156C133.815 99.1099 133.795 99.0586 133.795 98.9971C133.795 98.9357 133.815 98.8793 133.861 98.8332C133.908 98.7871 133.959 98.7666 134.025 98.7666C134.092 98.7666 134.148 98.7871 134.189 98.8332C134.23 98.8793 134.256 98.9305 134.256 98.992C134.256 99.0535 134.235 99.1099 134.189 99.156C134.148 99.2021 134.092 99.2226 134.025 99.2226ZM133.887 102.87V99.9347H134.169V102.87H133.887Z" fill="black"/>
<path d="M136.093 102.897C135.848 102.897 135.622 102.861 135.412 102.789C135.203 102.717 135.039 102.63 134.921 102.518L135.049 102.292C135.162 102.389 135.31 102.471 135.499 102.543C135.689 102.615 135.889 102.646 136.104 102.646C136.411 102.646 136.631 102.594 136.769 102.492C136.902 102.389 136.969 102.256 136.969 102.092C136.969 101.975 136.933 101.877 136.866 101.811C136.8 101.744 136.703 101.688 136.59 101.652C136.477 101.616 136.344 101.585 136.206 101.56C136.068 101.534 135.93 101.508 135.791 101.478C135.653 101.447 135.525 101.406 135.407 101.349C135.29 101.293 135.197 101.216 135.131 101.114C135.064 101.016 135.028 100.883 135.028 100.719C135.028 100.571 135.069 100.432 135.151 100.315C135.233 100.197 135.356 100.099 135.52 100.023C135.684 99.9509 135.889 99.915 136.139 99.915C136.324 99.915 136.508 99.9407 136.692 99.9919C136.877 100.043 137.03 100.115 137.143 100.202L137.015 100.427C136.892 100.335 136.754 100.269 136.6 100.222C136.447 100.181 136.293 100.161 136.134 100.161C135.848 100.161 135.643 100.212 135.51 100.32C135.377 100.427 135.31 100.555 135.31 100.714C135.31 100.837 135.346 100.935 135.412 101.011C135.484 101.083 135.576 101.139 135.689 101.18C135.807 101.221 135.935 101.252 136.073 101.278C136.211 101.303 136.349 101.329 136.488 101.36C136.626 101.39 136.754 101.431 136.872 101.488C136.989 101.544 137.082 101.616 137.148 101.713C137.22 101.811 137.25 101.939 137.25 102.097C137.25 102.256 137.204 102.4 137.117 102.518C137.03 102.635 136.897 102.733 136.728 102.799C136.554 102.866 136.344 102.902 136.093 102.902V102.897Z" fill="black"/>
<path d="M140.645 102.896C140.358 102.896 140.107 102.835 139.882 102.707C139.657 102.579 139.483 102.405 139.355 102.179C139.227 101.954 139.16 101.698 139.16 101.411C139.16 101.124 139.227 100.857 139.355 100.637C139.483 100.412 139.662 100.238 139.882 100.109C140.102 99.9814 140.358 99.9199 140.645 99.9199C140.88 99.9199 141.096 99.966 141.29 100.053C141.485 100.14 141.638 100.279 141.761 100.458L141.551 100.612C141.449 100.463 141.316 100.35 141.157 100.279C140.998 100.207 140.829 100.171 140.645 100.171C140.415 100.171 140.21 100.222 140.031 100.325C139.851 100.427 139.708 100.571 139.606 100.755C139.503 100.939 139.452 101.16 139.452 101.406C139.452 101.652 139.503 101.872 139.606 102.056C139.708 102.241 139.851 102.384 140.031 102.492C140.215 102.594 140.42 102.645 140.645 102.645C140.829 102.645 140.998 102.61 141.157 102.538C141.316 102.466 141.444 102.359 141.551 102.205L141.761 102.359C141.643 102.538 141.485 102.671 141.29 102.763C141.096 102.855 140.88 102.896 140.645 102.896Z" fill="black"/>
<path d="M143.697 102.896C143.415 102.896 143.164 102.835 142.949 102.707C142.729 102.579 142.555 102.405 142.427 102.179C142.299 101.954 142.232 101.698 142.232 101.411C142.232 101.124 142.299 100.863 142.427 100.637C142.555 100.412 142.729 100.238 142.949 100.109C143.169 99.9814 143.42 99.9199 143.697 99.9199C143.973 99.9199 144.229 99.9814 144.449 100.109C144.67 100.238 144.844 100.412 144.972 100.637C145.1 100.863 145.161 101.119 145.161 101.411C145.161 101.703 145.1 101.954 144.972 102.179C144.844 102.405 144.67 102.579 144.449 102.707C144.229 102.835 143.978 102.896 143.697 102.896ZM143.697 102.645C143.922 102.645 144.122 102.594 144.306 102.492C144.49 102.389 144.629 102.246 144.726 102.056C144.823 101.867 144.879 101.652 144.879 101.411C144.879 101.17 144.828 100.945 144.726 100.76C144.623 100.576 144.485 100.432 144.306 100.33C144.127 100.227 143.922 100.176 143.697 100.176C143.471 100.176 143.272 100.227 143.093 100.33C142.913 100.432 142.775 100.576 142.673 100.76C142.57 100.945 142.519 101.165 142.519 101.411C142.519 101.657 142.57 101.872 142.673 102.056C142.775 102.241 142.919 102.389 143.093 102.492C143.267 102.594 143.471 102.645 143.697 102.645Z" fill="black"/>
<path d="M147.465 99.915C147.706 99.915 147.916 99.9611 148.09 100.053C148.269 100.146 148.407 100.284 148.504 100.468C148.602 100.653 148.653 100.883 148.653 101.155V102.871H148.371V101.18C148.371 100.853 148.289 100.602 148.12 100.427C147.951 100.253 147.721 100.171 147.419 100.171C147.189 100.171 146.994 100.217 146.825 100.31C146.656 100.402 146.528 100.535 146.441 100.704C146.354 100.873 146.308 101.073 146.308 101.314V102.876H146.026V99.9407H146.298V100.755L146.257 100.668C146.349 100.438 146.492 100.253 146.702 100.12C146.912 99.9868 147.163 99.9202 147.46 99.9202L147.465 99.915Z" fill="black"/>
<path d="M149.334 100.176V99.9351H151.085V100.176H149.334ZM149.872 102.871V99.4842C149.872 99.2383 149.943 99.0437 150.081 98.8951C150.22 98.7465 150.425 98.6748 150.686 98.6748C150.793 98.6748 150.901 98.6902 151.008 98.7209C151.116 98.7516 151.198 98.8029 151.264 98.8644L151.152 99.0795C151.095 99.0232 151.029 98.9822 150.952 98.9566C150.875 98.931 150.788 98.9156 150.701 98.9156C150.522 98.9156 150.384 98.9668 150.291 99.0642C150.199 99.1615 150.153 99.3101 150.153 99.5047V100.135L150.158 102.865H149.877L149.872 102.871ZM151.797 99.223C151.735 99.223 151.679 99.2025 151.633 99.1564C151.587 99.1103 151.566 99.059 151.566 98.9976C151.566 98.9361 151.587 98.8797 151.633 98.8336C151.679 98.7875 151.73 98.767 151.797 98.767C151.863 98.767 151.92 98.7875 151.961 98.8336C152.001 98.8746 152.027 98.931 152.027 98.9924C152.027 99.0539 152.007 99.1103 151.961 99.1564C151.92 99.2025 151.863 99.223 151.797 99.223ZM151.658 102.871V99.9351H151.94V102.871H151.658Z" fill="black"/>
<path d="M153.128 102.871V99.9355H153.399V100.74L153.374 100.648C153.456 100.412 153.594 100.228 153.788 100.105C153.983 99.9765 154.229 99.915 154.521 99.915V100.192C154.521 100.192 154.5 100.192 154.485 100.192C154.474 100.192 154.464 100.192 154.449 100.192C154.121 100.192 153.87 100.294 153.686 100.499C153.502 100.704 153.41 100.986 153.41 101.349V102.881H153.128V102.871Z" fill="black"/>
<path d="M158.944 99.915C159.18 99.915 159.385 99.9611 159.559 100.053C159.733 100.146 159.871 100.284 159.968 100.468C160.066 100.653 160.117 100.883 160.117 101.155V102.871H159.835V101.18C159.835 100.853 159.753 100.602 159.594 100.427C159.431 100.253 159.21 100.171 158.919 100.171C158.698 100.171 158.504 100.217 158.345 100.31C158.186 100.402 158.058 100.535 157.977 100.704C157.89 100.873 157.849 101.073 157.849 101.314V102.876H157.567V101.186C157.567 100.858 157.485 100.607 157.326 100.432C157.168 100.258 156.942 100.176 156.65 100.176C156.43 100.176 156.241 100.222 156.077 100.315C155.913 100.407 155.79 100.54 155.708 100.709C155.621 100.878 155.58 101.078 155.58 101.319V102.881H155.299V99.9458H155.57V100.755L155.529 100.663C155.616 100.432 155.76 100.253 155.964 100.12C156.164 99.9868 156.41 99.9202 156.697 99.9202C156.983 99.9202 157.234 99.9919 157.434 100.14C157.634 100.289 157.762 100.509 157.813 100.801L157.715 100.76C157.792 100.509 157.941 100.304 158.161 100.151C158.376 99.997 158.642 99.915 158.954 99.915H158.944Z" fill="black"/>
<path d="M162.462 102.896C162.165 102.896 161.903 102.835 161.678 102.707C161.453 102.579 161.274 102.405 161.146 102.179C161.018 101.954 160.951 101.698 160.951 101.411C160.951 101.124 161.013 100.863 161.135 100.637C161.258 100.412 161.427 100.238 161.637 100.109C161.847 99.9814 162.088 99.9199 162.359 99.9199C162.631 99.9199 162.866 99.9814 163.076 100.104C163.286 100.227 163.455 100.401 163.578 100.622C163.701 100.847 163.762 101.103 163.762 101.395C163.762 101.406 163.762 101.421 163.762 101.431C163.762 101.447 163.762 101.457 163.762 101.472H161.171V101.252H163.608L163.496 101.36C163.496 101.129 163.45 100.924 163.352 100.745C163.255 100.56 163.117 100.422 162.948 100.32C162.779 100.217 162.584 100.166 162.364 100.166C162.144 100.166 161.955 100.217 161.781 100.32C161.612 100.422 161.479 100.565 161.381 100.745C161.284 100.924 161.233 101.134 161.233 101.365V101.416C161.233 101.657 161.284 101.867 161.391 102.056C161.499 102.241 161.647 102.384 161.832 102.492C162.016 102.599 162.231 102.645 162.472 102.645C162.661 102.645 162.835 102.61 162.999 102.543C163.163 102.476 163.301 102.374 163.414 102.236L163.578 102.42C163.45 102.579 163.291 102.697 163.096 102.779C162.902 102.861 162.697 102.902 162.472 102.902L162.462 102.896Z" fill="black"/>
<path d="M165.754 102.896C165.477 102.896 165.231 102.835 165.016 102.706C164.796 102.578 164.622 102.404 164.494 102.179C164.366 101.953 164.305 101.697 164.305 101.405C164.305 101.113 164.366 100.852 164.494 100.626C164.622 100.401 164.796 100.227 165.016 100.104C165.237 99.9758 165.482 99.9144 165.754 99.9144C166.01 99.9144 166.245 99.9758 166.455 100.094C166.665 100.211 166.829 100.386 166.952 100.606C167.075 100.826 167.136 101.093 167.136 101.405C167.136 101.718 167.075 101.974 166.957 102.199C166.839 102.425 166.675 102.599 166.465 102.717C166.255 102.835 166.02 102.896 165.759 102.896H165.754ZM165.769 102.645C165.994 102.645 166.194 102.594 166.373 102.491C166.552 102.389 166.691 102.245 166.793 102.056C166.895 101.866 166.947 101.651 166.947 101.41C166.947 101.17 166.895 100.944 166.793 100.76C166.691 100.575 166.547 100.432 166.373 100.329C166.199 100.227 165.994 100.176 165.769 100.176C165.544 100.176 165.344 100.227 165.165 100.329C164.986 100.432 164.847 100.575 164.745 100.76C164.643 100.944 164.591 101.164 164.591 101.41C164.591 101.656 164.643 101.871 164.745 102.056C164.847 102.24 164.991 102.389 165.165 102.491C165.339 102.594 165.544 102.645 165.769 102.645ZM166.957 102.875V101.912L167.008 101.4L166.952 100.888V98.7002H167.233V102.87H166.957V102.875Z" fill="black"/>
<path d="M62.2383 125.607L66.5083 185.106L111.031 179.916L98.5285 123.163L62.2383 125.607Z" fill="#D39B2D" stroke="#263238" stroke-linecap="round" stroke-linejoin="round"/>
<path d="M62.2378 125.606L55.8379 182.052L66.5079 185.106L62.2378 125.606Z" fill="#D39B2D" stroke="#263238" stroke-linecap="round" stroke-linejoin="round"/>
<path opacity="0.1" d="M66.5079 185.106L62.161 126.313L55.8379 182.052L66.5079 185.106Z" fill="black"/>
<path d="M75.4111 128.434C75.4111 128.434 78.8057 138.819 85.8302 139.239C92.8548 139.659 91.8769 127.251 91.8769 127.251" stroke="#263238" stroke-linecap="round" stroke-linejoin="round"/>
<path d="M76.3334 128.435C76.3334 128.942 75.9187 129.357 75.4118 129.357C74.9049 129.357 74.4902 128.942 74.4902 128.435C74.4902 127.928 74.9049 127.513 75.4118 127.513C75.9187 127.513 76.3334 127.928 76.3334 128.435Z" fill="#263238"/>
<path d="M92.6449 127.251C92.6449 127.758 92.2302 128.173 91.7233 128.173C91.2165 128.173 90.8018 127.758 90.8018 127.251C90.8018 126.744 91.2165 126.329 91.7233 126.329C92.2302 126.329 92.6449 126.744 92.6449 127.251Z" fill="#263238"/>
</g>
<defs>
<clipPath id="clip0_309_15334">
<rect width="210" height="189" fill="white"/>
</clipPath>
</defs>
</svg>
