<svg width="16" height="14" viewBox="0 0 16 14" fill="none" xmlns="http://www.w3.org/2000/svg">
<path d="M15.3334 0.99999C14.695 1.45031 13.9882 1.79473 13.2401 2.01999C12.8386 1.55833 12.305 1.23112 11.7114 1.08261C11.1179 0.934097 10.4931 0.971454 9.92147 1.18963C9.34986 1.4078 8.85904 1.79626 8.5154 2.30247C8.17176 2.80868 7.99188 3.40821 8.00008 4.01999V4.68666C6.8285 4.71703 5.6676 4.4572 4.62075 3.93029C3.57391 3.40338 2.67363 2.62575 2.00008 1.66666C2.00008 1.66666 -0.666585 7.66666 5.33341 10.3333C3.96043 11.2653 2.32485 11.7326 0.666748 11.6667C6.66675 15 14.0001 11.6667 14.0001 3.99999C13.9995 3.81429 13.9816 3.62905 13.9467 3.44666C14.6271 2.77565 15.1073 1.92847 15.3334 0.99999V0.99999Z" stroke="white" stroke-linecap="round" stroke-linejoin="round"/>
</svg>
