<svg width="14" height="8" viewBox="0 0 14 8" fill="none" xmlns="http://www.w3.org/2000/svg">
<path d="M7.20319 7.22229C7.10814 7.22288 7.0139 7.20468 6.9259 7.16873C6.8379 7.13279 6.75787 7.07981 6.69041 7.01284L0.915525 1.23796C0.779527 1.10196 0.703125 0.917506 0.703125 0.725177C0.703125 0.532848 0.779527 0.348397 0.915525 0.2124C1.05152 0.0764024 1.23597 0 1.4283 0C1.62063 0 1.80508 0.0764024 1.94108 0.2124L7.20319 5.48245L12.466 0.2124C12.602 0.0764024 12.7865 6.2076e-09 12.9788 7.64056e-09C13.1711 9.07353e-09 13.3556 0.0764024 13.4916 0.2124C13.6276 0.348397 13.704 0.532848 13.704 0.725177C13.704 0.917506 13.6276 1.10196 13.4916 1.23796L7.71597 7.01284C7.64851 7.07981 7.56848 7.13279 7.48048 7.16873C7.39248 7.20468 7.29825 7.22288 7.20319 7.22229Z" fill="#D39B2D"/>
</svg>
