<svg width="11" height="15" viewBox="0 0 11 15" fill="none" xmlns="http://www.w3.org/2000/svg">
<path fill-rule="evenodd" clip-rule="evenodd" d="M9.69395 2.73679H8.55348C8.36645 2.73679 8.21305 2.55608 8.21305 2.33833V1.31167C8.21305 0.587717 7.64909 0 6.95626 0H1.25394C0.56396 0 0 0.587717 0 1.31167V13.2826C0 14.0037 0.56396 14.5943 1.25394 14.5943H9.69395C10.3868 14.5943 10.9479 14.0037 10.9479 13.2826V4.04846C10.9479 3.3245 10.3868 2.73679 9.69395 2.73679Z" fill="#6A36FF"/>
<path fill-rule="evenodd" clip-rule="evenodd" d="M10.0368 13.2827C10.0368 13.5028 9.88284 13.6812 9.69352 13.6812H1.25351C1.06648 13.6812 0.913086 13.5028 0.913086 13.2827V1.31179C0.913086 1.09118 1.06648 0.91333 1.25351 0.91333H6.95584C7.14515 0.91333 7.29912 1.09118 7.29912 1.31179V2.33844C7.29912 3.05955 7.86022 3.64727 8.55306 3.64727H9.69352C9.88284 3.64727 10.0368 3.82797 10.0368 4.04858V13.2827Z" fill="#6A36FF"/>
<path fill-rule="evenodd" clip-rule="evenodd" d="M2.28097 4.56043H5.93217C6.18364 4.56043 6.38608 4.35578 6.38608 4.10382C6.38608 3.85243 6.18364 3.64722 5.93217 3.64722H2.28097C2.0295 3.64722 1.82422 3.85243 1.82422 4.10382C1.82422 4.35578 2.0295 4.56043 2.28097 4.56043Z" fill="white"/>
<path fill-rule="evenodd" clip-rule="evenodd" d="M8.66701 6.08057H2.28097C2.0295 6.08057 1.82422 6.28293 1.82422 6.53717C1.82422 6.78856 2.0295 6.99093 2.28097 6.99093H8.66701C8.92133 6.99093 9.12376 6.78856 9.12376 6.53717C9.12376 6.28293 8.92133 6.08057 8.66701 6.08057Z" fill="white"/>
<path fill-rule="evenodd" clip-rule="evenodd" d="M8.66701 8.51099H2.28097C2.0295 8.51099 1.82422 8.71563 1.82422 8.96759C1.82422 9.21898 2.0295 9.4242 2.28097 9.4242H8.66701C8.92133 9.4242 9.12376 9.21898 9.12376 8.96759C9.12376 8.71563 8.92133 8.51099 8.66701 8.51099Z" fill="white"/>
<path fill-rule="evenodd" clip-rule="evenodd" d="M8.66701 10.9441H2.28097C2.0295 10.9441 1.82422 11.1493 1.82422 11.4007C1.82422 11.6521 2.0295 11.8573 2.28097 11.8573H8.66701C8.92133 11.8573 9.12376 11.6521 9.12376 11.4007C9.12376 11.1493 8.92133 10.9441 8.66701 10.9441Z" fill="white"/>
</svg>
