<svg width="167" height="28" viewBox="0 0 167 28" fill="none" xmlns="http://www.w3.org/2000/svg">
<path d="M18.2797 22.4644H8.82228L7.3062 26.9404H0.844805L10.0135 1.60021H17.1607L26.3294 26.9404H19.7958L18.2797 22.4644ZM16.6915 17.6996L13.551 8.42257L10.4467 17.6996H16.6915ZM35.473 9.64988C36.0506 8.71135 36.8808 7.95331 37.9637 7.37575C39.0466 6.7982 40.286 6.50942 41.6817 6.50942C43.3422 6.50942 44.8462 6.93056 46.1939 7.77282C47.5415 8.61509 48.6003 9.81833 49.3704 11.3825C50.1646 12.9468 50.5616 14.7636 50.5616 16.8332C50.5616 18.9028 50.1646 20.7317 49.3704 22.32C48.6003 23.8842 47.5415 25.0995 46.1939 25.9658C44.8462 26.8081 43.3422 27.2292 41.6817 27.2292C40.2619 27.2292 39.0226 26.9525 37.9637 26.399C36.9049 25.8214 36.0746 25.0634 35.473 24.1248V26.9404H29.3004V0.228514H35.473V9.64988ZM44.2807 16.8332C44.2807 15.2931 43.8475 14.0898 42.9812 13.2235C42.1389 12.3331 41.0921 11.8879 39.8408 11.8879C38.6135 11.8879 37.5666 12.3331 36.7003 13.2235C35.858 14.1139 35.4369 15.3292 35.4369 16.8693C35.4369 18.4095 35.858 19.6247 36.7003 20.5151C37.5666 21.4055 38.6135 21.8507 39.8408 21.8507C41.0681 21.8507 42.1149 21.4055 42.9812 20.5151C43.8475 19.6007 44.2807 18.3734 44.2807 16.8332ZM63.1491 27.2292C61.1758 27.2292 59.395 26.8081 57.8067 25.9658C56.2425 25.1235 55.0032 23.9203 54.0887 22.3561C53.1983 20.7919 52.7531 18.963 52.7531 16.8693C52.7531 14.7997 53.2103 12.9829 54.1248 11.4186C55.0393 9.83036 56.2906 8.61509 57.8789 7.77282C59.4672 6.93056 61.248 6.50942 63.2213 6.50942C65.1946 6.50942 66.9754 6.93056 68.5637 7.77282C70.152 8.61509 71.4033 9.83036 72.3178 11.4186C73.2323 12.9829 73.6895 14.7997 73.6895 16.8693C73.6895 18.9389 73.2202 20.7678 72.2817 22.3561C71.3672 23.9203 70.1038 25.1235 68.4915 25.9658C66.9032 26.8081 65.1224 27.2292 63.1491 27.2292ZM63.1491 21.8868C64.3283 21.8868 65.327 21.4537 66.1452 20.5873C66.9874 19.721 67.4086 18.4817 67.4086 16.8693C67.4086 15.257 66.9995 14.0176 66.1813 13.1513C65.3871 12.285 64.4005 11.8518 63.2213 11.8518C62.0181 11.8518 61.0194 12.285 60.2252 13.1513C59.4311 13.9936 59.034 15.2329 59.034 16.8693C59.034 18.4817 59.4191 19.721 60.1891 20.5873C60.9833 21.4537 61.9699 21.8868 63.1491 21.8868ZM97.0342 6.7982V26.9404H90.8616V24.197C90.2359 25.0874 89.3816 25.8094 88.2987 26.3629C87.2398 26.8923 86.0607 27.157 84.7612 27.157C83.221 27.157 81.8614 26.8201 80.6822 26.1463C79.503 25.4484 78.5886 24.4497 77.9388 23.1502C77.2891 21.8507 76.9642 20.3226 76.9642 18.5659V6.7982H83.1007V17.7356C83.1007 19.0833 83.4496 20.1301 84.1475 20.8761C84.8454 21.6221 85.7839 21.9951 86.9631 21.9951C88.1663 21.9951 89.1169 21.6221 89.8148 20.8761C90.5127 20.1301 90.8616 19.0833 90.8616 17.7356V6.7982H97.0342ZM112.875 21.7063V26.9404H109.734C107.496 26.9404 105.751 26.399 104.5 25.3161C103.249 24.2091 102.623 22.4162 102.623 19.9376V11.924H100.168V6.7982H102.623V1.88898H108.796V6.7982H112.839V11.924H108.796V20.0098C108.796 20.6114 108.94 21.0446 109.229 21.3093C109.518 21.574 109.999 21.7063 110.673 21.7063H112.875ZM130.388 1.60021V16.761C130.388 18.2771 130.761 19.4442 131.507 20.2625C132.253 21.0807 133.348 21.4898 134.792 21.4898C136.235 21.4898 137.342 21.0807 138.113 20.2625C138.883 19.4442 139.268 18.2771 139.268 16.761V1.60021H145.44V16.7249C145.44 18.987 144.959 20.9002 143.996 22.4644C143.034 24.0286 141.734 25.2078 140.098 26.0019C138.486 26.796 136.681 27.1931 134.683 27.1931C132.686 27.1931 130.893 26.8081 129.305 26.038C127.741 25.2439 126.501 24.0647 125.587 22.5005C124.672 20.9122 124.215 18.987 124.215 16.7249V1.60021H130.388ZM158.149 27.2292C156.393 27.2292 154.828 26.9284 153.457 26.3268C152.085 25.7252 151.002 24.907 150.208 23.8722C149.414 22.8133 148.969 21.6341 148.872 20.3346H154.973C155.045 21.0325 155.37 21.598 155.947 22.0312C156.525 22.4644 157.235 22.681 158.077 22.681C158.847 22.681 159.437 22.5366 159.846 22.2478C160.279 21.935 160.496 21.5379 160.496 21.0566C160.496 20.479 160.195 20.0579 159.593 19.7932C158.992 19.5044 158.017 19.1916 156.669 18.8547C155.225 18.5178 154.022 18.1688 153.06 17.8078C152.097 17.4228 151.267 16.8332 150.569 16.0391C149.871 15.2209 149.522 14.1259 149.522 12.7542C149.522 11.5991 149.835 10.5523 150.461 9.61378C151.11 8.65119 152.049 7.89315 153.276 7.33966C154.528 6.78617 156.008 6.50942 157.716 6.50942C160.243 6.50942 162.228 7.13511 163.672 8.38648C165.14 9.63785 165.982 11.2983 166.199 13.3679H160.496C160.399 12.67 160.086 12.1165 159.557 11.7074C159.052 11.2983 158.378 11.0938 157.536 11.0938C156.814 11.0938 156.26 11.2382 155.875 11.5269C155.49 11.7916 155.298 12.1646 155.298 12.6459C155.298 13.2235 155.598 13.6567 156.2 13.9454C156.826 14.2342 157.788 14.523 159.088 14.8118C160.58 15.1968 161.795 15.5818 162.734 15.9669C163.672 16.3279 164.49 16.9295 165.188 17.7717C165.91 18.5899 166.283 19.6969 166.307 21.0927C166.307 22.2719 165.97 23.3307 165.297 24.2692C164.647 25.1837 163.696 25.9056 162.445 26.4351C161.218 26.9645 159.786 27.2292 158.149 27.2292Z" fill="url(#paint0_linear_911_1772)"/>
<defs>
<linearGradient id="paint0_linear_911_1772" x1="0.26725" y1="14.9621" x2="166.467" y2="14.9621" gradientUnits="userSpaceOnUse">
<stop stop-color="#A63F9F"/>
<stop offset="0.244792" stop-color="#8F3CA6"/>
<stop offset="0.520833" stop-color="#6D33A6"/>
<stop offset="0.765625" stop-color="#4429A6"/>
<stop offset="1" stop-color="#2621A6"/>
</linearGradient>
</defs>
</svg>
