<svg width="36" height="28" viewBox="0 0 36 28" fill="none" xmlns="http://www.w3.org/2000/svg">
<g clip-path="url(#clip0_4_54)">
<path d="M31.5299 0.133959C26.9854 0.132993 22.4399 0.133959 17.8945 0.133959C13.349 0.133959 8.80354 0.132993 4.25907 0.133959C1.67442 0.133959 0.000244347 1.75511 0.000244347 4.25876C-0.000747462 10.5193 0.000244347 16.7809 0.000244347 23.0415C0.000244347 25.5876 1.65954 27.2117 4.26205 27.2117H31.4832C34.0649 27.2117 35.7421 25.5867 35.7431 23.0869V4.25596C35.7421 1.77731 34.0639 0.133959 31.5299 0.133959ZM17.6921 19.411C17.5969 19.4342 17.4977 19.4439 17.4144 19.4574C16.7192 19.4217 16.2381 19.0943 15.9902 18.488C15.8305 18.0989 15.5875 17.9859 15.163 17.9936C13.6614 18.0207 12.1578 18.0216 10.6552 17.9936C10.2288 17.9859 10.0076 18.1153 9.82907 18.4899C9.474 19.2334 8.83329 19.5646 8.17176 19.4197C7.21665 19.2102 6.72273 18.2814 7.13631 17.4075C7.51716 16.6061 7.94067 15.824 8.34632 15.0333C9.39268 12.9921 10.448 10.9558 11.4834 8.90978C11.7849 8.31404 12.2045 7.89886 12.9156 7.89886C13.6287 7.89983 14.0413 8.32177 14.3438 8.91558C15.7581 11.6934 17.1913 14.4617 18.6096 17.2376C19.1055 18.2089 18.6919 19.1687 17.6921 19.411ZM28.7647 17.8517C28.7597 19.1745 27.641 19.8021 26.4468 19.188C26.301 19.1127 26.067 19.1127 25.9063 19.1668C23.0449 20.1439 20.1875 18.3798 19.889 15.4417C19.5984 12.5779 22.4191 10.249 25.3707 10.9162C25.4977 10.9452 25.6236 10.9722 25.824 11.0166C25.824 10.4431 25.816 9.94678 25.825 9.45049C25.8408 8.54674 26.4657 7.89307 27.2998 7.89596C28.1339 7.89886 28.7617 8.55157 28.7647 9.45821C28.7716 12.2564 28.7736 15.0545 28.7647 17.8517Z" fill="#D39B2D"/>
<path d="M18.6097 17.2378C17.1914 14.4618 15.7583 11.6936 14.3439 8.91573C14.0414 8.32193 13.6288 7.89998 12.9157 7.89902C12.2046 7.89902 11.7851 8.3142 11.4836 8.90994C10.4481 10.9559 9.39283 12.9923 8.34647 15.0334C7.94082 15.8242 7.51732 16.6063 7.13646 17.4077C6.72288 18.2815 7.2168 19.2104 8.17191 19.4199C8.83345 19.5647 9.47416 19.2335 9.82922 18.4901C10.0078 18.1154 10.2289 17.9861 10.6554 17.9938C12.158 18.0218 13.6616 18.0208 15.1632 17.9938C15.5877 17.9861 15.8307 18.099 15.9903 18.4881C16.2383 19.0945 16.7193 19.4218 17.4146 19.4575C17.4979 19.444 17.5971 19.4344 17.6923 19.4112C18.692 19.1688 19.1056 18.2091 18.6097 17.2378ZM11.5887 15.0962C12.0181 14.26 12.4307 13.4528 12.9128 12.5143C13.3849 13.4403 13.7915 14.2368 14.2309 15.0962H11.5887Z" fill="white"/>
<path d="M28.7648 9.45836C28.7619 8.55172 28.1341 7.89901 27.2999 7.89611C26.4658 7.89322 25.841 8.54689 25.8251 9.45064C25.8162 9.94693 25.8241 10.4432 25.8241 11.0167C25.6238 10.9723 25.4978 10.9453 25.3709 10.9163C22.4192 10.2491 19.5985 12.578 19.8891 15.4418C20.1877 18.38 23.0451 20.144 25.9065 19.1669C26.0671 19.1128 26.3012 19.1128 26.447 19.1881C27.6411 19.8022 28.7599 19.1746 28.7648 17.8518C28.7738 15.0547 28.7718 12.2565 28.7648 9.45836ZM24.3632 16.5841C23.5271 16.6053 22.8338 15.9623 22.818 15.1522C22.8021 14.3353 23.4626 13.6691 24.2997 13.6594C25.1348 13.6498 25.8172 14.3035 25.8212 15.1155C25.8241 15.9092 25.1745 16.5638 24.3632 16.5841Z" fill="white"/>
<path d="M12.9124 12.5142C13.385 13.44 13.7916 14.2365 14.2304 15.0961H11.5891C12.0177 14.2597 12.4311 13.4531 12.9124 12.5142Z" fill="#D39B2D"/>
<path d="M24.2998 13.6597C25.1345 13.65 25.8175 14.3035 25.8212 15.1154C25.8246 15.9088 25.1747 16.5634 24.363 16.584C23.5272 16.6052 22.834 15.9627 22.8181 15.1521C22.8021 14.3352 23.463 13.6695 24.2998 13.6597Z" fill="#D39B2D"/>
</g>
<defs>
<clipPath id="clip0_4_54">
<rect width="35.7432" height="27.0782" fill="white" transform="translate(0 0.133728)"/>
</clipPath>
</defs>
</svg>
