<svg width="33" height="22" viewBox="0 0 33 22" fill="none" xmlns="http://www.w3.org/2000/svg">
<g clip-path="url(#clip0_4_77)">
<path d="M30.8846 0H2.11538C0.94709 0 0 0.939479 0 2.09839V19.9016C0 21.0605 0.94709 22 2.11538 22H30.8846C32.0529 22 33 21.0605 33 19.9016V2.09839C33 0.939479 32.0529 0 30.8846 0Z" fill="#D39B2D"/>
<path d="M14.1785 2.84383H2.87816C2.54607 2.84383 2.27686 3.11088 2.27686 3.4403V10.6629C2.27686 10.9924 2.54607 11.2594 2.87816 11.2594H14.1785C14.5106 11.2594 14.7798 10.9924 14.7798 10.6629V3.4403C14.7798 3.11088 14.5106 2.84383 14.1785 2.84383Z" fill="white"/>
<path d="M30.1218 2.84383H18.4206C18.0885 2.84383 17.8193 3.11084 17.8193 3.44021C17.8193 3.76958 18.0885 4.03659 18.4206 4.03659H30.1218C30.4539 4.03659 30.7231 3.76958 30.7231 3.44021C30.7231 3.11084 30.4539 2.84383 30.1218 2.84383Z" fill="white"/>
<path d="M30.1218 6.45533H18.4206C18.0885 6.45533 17.8193 6.72234 17.8193 7.05171C17.8193 7.38108 18.0885 7.64809 18.4206 7.64809H30.1218C30.4539 7.64809 30.7231 7.38108 30.7231 7.05171C30.7231 6.72234 30.4539 6.45533 30.1218 6.45533Z" fill="white"/>
<path d="M30.1218 10.0667H18.4206C18.0885 10.0667 17.8193 10.3337 17.8193 10.663C17.8193 10.9924 18.0885 11.2594 18.4206 11.2594H30.1218C30.4539 11.2594 30.7231 10.9924 30.7231 10.663C30.7231 10.3337 30.4539 10.0667 30.1218 10.0667Z" fill="white"/>
<path d="M30.1218 14.2027H2.87816C2.54607 14.2027 2.27686 14.4698 2.27686 14.7991C2.27686 15.1285 2.54607 15.3955 2.87816 15.3955H30.1218C30.4539 15.3955 30.7231 15.1285 30.7231 14.7991C30.7231 14.4698 30.4539 14.2027 30.1218 14.2027Z" fill="white"/>
<path d="M30.1218 17.9632H2.87816C2.54607 17.9632 2.27686 18.2302 2.27686 18.5596C2.27686 18.889 2.54607 19.156 2.87816 19.156H30.1218C30.4539 19.156 30.7231 18.889 30.7231 18.5596C30.7231 18.2302 30.4539 17.9632 30.1218 17.9632Z" fill="white"/>
</g>
<defs>
<clipPath id="clip0_4_77">
<rect width="33" height="22" fill="white"/>
</clipPath>
</defs>
</svg>
