<svg width="38" height="38" viewBox="0 0 38 38" fill="none" xmlns="http://www.w3.org/2000/svg">
<g id="Icon/Fill/bell">
<path id="Mask" fill-rule="evenodd" clip-rule="evenodd" d="M22.1667 29.0404C22.1667 30.4638 20.7163 31.6671 19 31.6671C17.2837 31.6671 15.8333 30.4638 15.8333 29.0404V28.5005H22.1667V29.0404ZM32.4916 24.0782L29.64 21.2235V14.1491C29.64 8.63756 25.6785 3.95723 20.4234 3.26056C17.3818 2.85681 14.3102 3.78464 12.0064 5.80498C9.68842 7.83481 8.36 10.7561 8.36 13.8182L8.35842 21.2235L5.50842 24.0798C4.76583 24.8224 4.54575 25.9307 4.94792 26.9013C5.35167 27.8719 6.29058 28.5005 7.34192 28.5005H12.6667V29.0404C12.6667 32.2356 15.5072 34.8338 19 34.8338C22.4928 34.8338 25.3333 32.2356 25.3333 29.0404V28.5005H30.6565C31.7078 28.5005 32.6467 27.8735 33.0489 26.9013C33.4527 25.9307 33.2326 24.8224 32.4916 24.0782Z" fill="#231F20"/>
<mask id="mask0_4_87" style="mask-type:luminance" maskUnits="userSpaceOnUse" x="4" y="3" width="30" height="32">
<path id="Mask_2" fill-rule="evenodd" clip-rule="evenodd" d="M22.1667 29.0404C22.1667 30.4638 20.7163 31.6671 19 31.6671C17.2837 31.6671 15.8333 30.4638 15.8333 29.0404V28.5005H22.1667V29.0404ZM32.4916 24.0782L29.64 21.2235V14.1491C29.64 8.63756 25.6785 3.95723 20.4234 3.26056C17.3818 2.85681 14.3102 3.78464 12.0064 5.80498C9.68842 7.83481 8.36 10.7561 8.36 13.8182L8.35842 21.2235L5.50842 24.0798C4.76583 24.8224 4.54575 25.9307 4.94792 26.9013C5.35167 27.8719 6.29058 28.5005 7.34192 28.5005H12.6667V29.0404C12.6667 32.2356 15.5072 34.8338 19 34.8338C22.4928 34.8338 25.3333 32.2356 25.3333 29.0404V28.5005H30.6565C31.7078 28.5005 32.6467 27.8735 33.0489 26.9013C33.4527 25.9307 33.2326 24.8224 32.4916 24.0782Z" fill="white"/>
</mask>
<g mask="url(#mask0_4_87)">
<g id="&#240;&#159;&#142;&#168; Color">
<rect id="Base" width="38" height="38" fill="#D39B2D"/>
</g>
</g>
</g>
</svg>
