<svg width="32" height="32" viewBox="0 0 32 32" fill="none" xmlns="http://www.w3.org/2000/svg">
<path d="M9.16943 12.585H31.9795V19.3963H9.16943V12.585ZM21.7105 15.9997C21.7105 15.9997 21.7124 15.9997 21.7134 15.9997C21.7134 15.8213 21.7134 15.643 21.7134 15.4646C21.7134 15.4408 21.7134 15.4169 21.7105 15.3931C21.6733 15.0773 21.4425 14.8589 21.1449 14.858C20.8473 14.857 20.5945 15.0735 20.5793 15.3883C20.5602 15.7918 20.5602 16.1981 20.5793 16.6016C20.5936 16.9182 20.8425 17.1357 21.1401 17.1376C21.4377 17.1395 21.68 16.9221 21.7076 16.6063C21.7248 16.4051 21.7105 16.2019 21.7105 15.9997ZM23.9969 16.0035C23.9969 15.8013 24.0102 15.5981 23.994 15.3969C23.9692 15.0783 23.7326 14.8608 23.435 14.857C23.1374 14.8532 22.8818 15.0697 22.8656 15.3835C22.8456 15.787 22.8465 16.1933 22.8647 16.5968C22.879 16.9144 23.1241 17.1329 23.4217 17.1367C23.7183 17.1405 23.9644 16.924 23.9921 16.6092C24.0102 16.4089 23.9949 16.2048 23.9959 16.0026L23.9969 16.0035ZM25.1462 15.994C25.1462 16.1962 25.1329 16.3994 25.1491 16.6006C25.1748 16.9173 25.4133 17.1348 25.7109 17.1367C26.0085 17.1386 26.2613 16.9211 26.2765 16.6063C26.2966 16.2029 26.2956 15.7965 26.2765 15.3931C26.2622 15.0754 26.0133 14.8589 25.7157 14.857C25.4171 14.8551 25.1748 15.0716 25.1481 15.3873C25.131 15.5886 25.1453 15.7918 25.1443 15.994H25.1462ZM27.4316 15.9682C27.4316 15.9682 27.4316 15.9682 27.4307 15.9682C27.4307 16.1704 27.4202 16.3736 27.4326 16.5749C27.4536 16.9125 27.6949 17.1405 28.0068 17.1367C28.3044 17.1329 28.5495 16.9144 28.5638 16.5968C28.582 16.1933 28.5829 15.787 28.5629 15.3835C28.5467 15.0688 28.291 14.8532 27.9934 14.857C27.6949 14.8608 27.4602 15.0792 27.4354 15.3969C27.4202 15.5857 27.4326 15.7775 27.4326 15.9682H27.4316Z" fill="#D39B2D"/>
<path d="M31.9987 11.4207H9.20479C9.18381 11.3969 9.15519 11.3797 9.15519 11.3616C9.16568 10.0653 9.07411 8.75858 9.21624 7.47662C9.40987 5.73777 10.8692 4.57599 12.6424 4.57408C16.9042 4.56836 21.165 4.57217 25.4267 4.57217C26.4502 4.57217 27.4737 4.56741 28.4981 4.57313C30.504 4.58458 31.9853 6.06779 31.9968 8.07562C32.0034 9.17921 31.9977 10.2838 31.9977 11.4198L31.9987 11.4207ZM21.7106 7.99741C21.7106 7.99741 21.7125 7.99741 21.7134 7.99741C21.7134 7.81905 21.7134 7.64068 21.7134 7.46231C21.7134 7.43846 21.7134 7.41462 21.7106 7.39077C21.6724 7.07601 21.4378 6.85853 21.1402 6.86043C20.8416 6.86234 20.5936 7.07886 20.5793 7.39554C20.5612 7.79901 20.5602 8.20535 20.5793 8.60883C20.5946 8.92455 20.8473 9.14106 21.1449 9.14011C21.4425 9.13916 21.682 8.92168 21.7077 8.60405C21.7239 8.40279 21.7106 8.19963 21.7106 7.99741ZM22.8609 7.98597C22.8609 7.98597 22.8599 7.98597 22.859 7.98597C22.859 8.18818 22.8475 8.39135 22.8619 8.59261C22.8847 8.91119 23.1175 9.13152 23.4141 9.13915C23.7098 9.14679 23.974 8.93027 23.9893 8.61932C24.0103 8.2044 24.016 7.7847 23.9864 7.37073C23.9645 7.06074 23.7556 6.88047 23.4399 6.86234C23.1442 6.84422 22.8914 7.06933 22.8628 7.38028C22.8447 7.58059 22.859 7.78471 22.859 7.98692L22.8609 7.98597ZM26.2823 8.01268C26.2823 8.01268 26.2833 8.01268 26.2842 8.01268C26.2842 7.83431 26.2842 7.65593 26.2842 7.47756C26.2842 7.45372 26.2842 7.42987 26.2814 7.40603C26.248 7.08744 26.0229 6.86711 25.7262 6.85948C25.4143 6.85185 25.1616 7.07887 25.1472 7.41462C25.131 7.80665 25.131 8.20058 25.1472 8.59261C25.1606 8.91119 25.401 9.13152 25.6986 9.13915C26.0095 9.14679 26.2547 8.91882 26.2785 8.58403C26.2919 8.39421 26.2814 8.20345 26.2814 8.01268H26.2823ZM28.5677 8.02508C28.5677 7.82286 28.5792 7.61969 28.5649 7.41843C28.542 7.08172 28.2997 6.85376 27.9878 6.85948C27.6902 6.8652 27.4479 7.08364 27.4336 7.40222C27.4164 7.79425 27.4164 8.18818 27.4327 8.58021C27.446 8.91691 27.6969 9.14488 28.0078 9.13915C28.3178 9.13343 28.5467 8.90261 28.5668 8.56018C28.5773 8.38181 28.5687 8.20345 28.5677 8.02508Z" fill="#D39B2D"/>
<path d="M31.9413 20.5938C31.9413 21.9377 32.0462 23.2664 31.9146 24.5713C31.7505 26.2061 30.2854 27.3975 28.6248 27.4175C27.1368 27.4366 25.6488 27.4223 24.1608 27.4223C20.376 27.4223 16.5902 27.4223 12.8053 27.4223C10.5896 27.4223 9.14451 25.9753 9.14355 23.7576C9.14355 22.7113 9.14355 21.6649 9.14355 20.5938H31.9403H31.9413ZM21.7132 24.0047C21.7132 23.8139 21.7218 23.6231 21.7113 23.4333C21.6923 23.0919 21.4624 22.8601 21.1524 22.8553C20.8405 22.8496 20.5906 23.0776 20.5772 23.4143C20.562 23.8063 20.561 24.2002 20.5782 24.5922C20.5925 24.9099 20.8357 25.1302 21.1324 25.135C21.4433 25.1407 21.6856 24.9127 21.7094 24.576C21.7228 24.3862 21.7113 24.1954 21.7123 24.0047H21.7132ZM22.8607 23.9608C22.8607 24.1754 22.8464 24.39 22.8636 24.6027C22.8893 24.9185 23.1316 25.135 23.4292 25.135C23.7268 25.135 23.9767 24.9175 23.991 24.5999C24.0101 24.1964 24.0101 23.7901 23.991 23.3866C23.9757 23.0709 23.7239 22.8544 23.4263 22.8553C23.1278 22.8563 22.8893 23.0737 22.8626 23.3895C22.8464 23.5783 22.8598 23.77 22.8598 23.9608H22.8607ZM26.2821 23.998C26.2821 23.7958 26.2955 23.5926 26.2793 23.3914C26.2535 23.0747 26.0141 22.8572 25.7165 22.8553C25.418 22.8544 25.1661 23.0699 25.1509 23.3856C25.1318 23.7891 25.1318 24.1954 25.1509 24.5989C25.1652 24.9156 25.4132 25.1331 25.7117 25.135C26.0093 25.1369 26.2516 24.9204 26.2793 24.6037C26.2964 24.4024 26.2821 24.1993 26.2831 23.9971L26.2821 23.998ZM27.4315 23.998C27.4315 24.2002 27.4182 24.4034 27.4344 24.6046C27.4611 24.9194 27.7034 25.1369 28.0009 25.1359C28.2985 25.135 28.5475 24.9175 28.5618 24.5999C28.5809 24.1964 28.5809 23.7901 28.5618 23.3866C28.5465 23.0709 28.2938 22.8544 27.9962 22.8563C27.6976 22.8582 27.4592 23.0747 27.4334 23.3914C27.4172 23.5926 27.4306 23.7958 27.4306 23.998H27.4315Z" fill="#D39B2D"/>
<path d="M7.9753 10.2816C6.41577 10.2816 4.88295 10.2949 3.35013 10.2749C2.75303 10.2673 2.29996 9.75599 2.29137 9.14077C2.28088 8.39391 2.28851 7.64706 2.28851 6.85633C1.92224 6.85633 1.58172 6.85824 1.2412 6.85633C0.481941 6.84965 0.00692669 6.38799 0.00406518 5.64018C-0.000704017 4.16555 -0.000704017 2.69091 0.00406518 1.21628C0.00597285 0.48087 0.475265 0.0068042 1.20591 0.00394268C2.69294 -0.000826513 4.17998 -0.00178035 5.66606 0.00394268C6.37285 0.0068042 6.85263 0.485629 6.85549 1.19433C6.86217 2.68137 6.86121 4.16745 6.85549 5.65448C6.85263 6.38321 6.37571 6.84869 5.64126 6.85727C5.29883 6.86109 4.9564 6.85727 4.59299 6.85727V7.97994H7.97434V10.2825L7.9753 10.2816Z" fill="#D39B2D"/>
<path d="M7.97528 24.0037H4.59011V25.1387C4.92777 25.1387 5.26734 25.1368 5.6069 25.1387C6.38333 25.1435 6.85452 25.6061 6.85643 26.3787C6.86025 27.8419 6.86025 29.3041 6.85643 30.7673C6.85452 31.5218 6.38428 31.9901 5.62884 31.9921C4.16565 31.9959 2.70246 31.9959 1.23927 31.9921C0.469524 31.9901 0.00405381 31.518 0.00214614 30.7397C-0.000715379 29.2889 -0.000715379 27.8381 0.00214614 26.3864C0.00405381 25.6042 0.463804 25.1444 1.24214 25.1387C1.57407 25.1359 1.90601 25.1387 2.28659 25.1387C2.28659 24.4472 2.28277 23.7747 2.28849 23.1023C2.2904 22.9134 2.29326 22.7188 2.34095 22.5386C2.46686 22.0664 2.86557 21.724 3.34916 21.7192C4.88198 21.7049 6.41575 21.7135 7.97433 21.7135V24.0037H7.97528Z" fill="#D39B2D"/>
<path d="M7.98475 14.8552V17.1396C7.66426 17.1396 7.35712 17.1558 7.0538 17.1349C6.77432 17.1158 6.62362 17.1911 6.49294 17.4716C5.89011 18.7745 4.5328 19.5414 3.13447 19.4136C1.70658 19.2829 0.507602 18.2804 0.130836 16.9002C-0.335591 15.1938 0.565788 13.4197 2.21879 12.792C3.87179 12.1644 5.7251 12.896 6.48722 14.5051C6.62266 14.7913 6.77051 14.8886 7.07192 14.86C7.36475 14.8323 7.66139 14.8542 7.98475 14.8542V14.8552Z" fill="#D39B2D"/>
</svg>
