<svg width="38" height="38" viewBox="0 0 38 38" fill="none" xmlns="http://www.w3.org/2000/svg">
<g id="Icon/Fill/layers">
<path id="Mask" fill-rule="evenodd" clip-rule="evenodd" d="M5.13133 11.5379L18.6229 18.8782C18.8557 19.0049 19.1438 19.0049 19.3782 18.8782L32.8697 11.5379C33.4128 11.2418 33.3653 10.485 32.7874 10.2522L19.2974 4.80716C19.1074 4.73116 18.8921 4.73116 18.7021 4.80716L5.21208 10.2522C4.63575 10.485 4.58825 11.2418 5.13133 11.5379ZM32.7877 16.8725L29.8902 15.6375L19.3784 21.3565C19.1441 21.4831 18.8559 21.4831 18.6216 21.3565L8.10983 15.6375L5.21233 16.8725C4.63442 17.1179 4.58692 17.9191 5.13158 18.231L18.6216 25.9846C18.8559 26.1191 19.1441 26.1191 19.3784 25.9846L32.8684 18.231C33.4131 17.9191 33.3656 17.1179 32.7877 16.8725ZM30.3224 22.8359L32.7877 23.9031C33.3656 24.1533 33.4131 24.9655 32.8684 25.2822L19.3784 33.1482C19.1441 33.2844 18.8559 33.2844 18.6216 33.1482L5.13158 25.2822C4.58692 24.9655 4.63442 24.1533 5.21233 23.9031L7.67758 22.8359L18.6216 28.7909C18.8559 28.9175 19.1441 28.9175 19.3784 28.7909L30.3224 22.8359Z" fill="#231F20"/>
<mask id="mask0_12_4" style="mask-type:luminance" maskUnits="userSpaceOnUse" x="4" y="4" width="30" height="30">
<path id="Mask_2" fill-rule="evenodd" clip-rule="evenodd" d="M5.13133 11.5379L18.6229 18.8782C18.8557 19.0049 19.1438 19.0049 19.3782 18.8782L32.8697 11.5379C33.4128 11.2418 33.3653 10.485 32.7874 10.2522L19.2974 4.80716C19.1074 4.73116 18.8921 4.73116 18.7021 4.80716L5.21208 10.2522C4.63575 10.485 4.58825 11.2418 5.13133 11.5379ZM32.7877 16.8725L29.8902 15.6375L19.3784 21.3565C19.1441 21.4831 18.8559 21.4831 18.6216 21.3565L8.10983 15.6375L5.21233 16.8725C4.63442 17.1179 4.58692 17.9191 5.13158 18.231L18.6216 25.9846C18.8559 26.1191 19.1441 26.1191 19.3784 25.9846L32.8684 18.231C33.4131 17.9191 33.3656 17.1179 32.7877 16.8725ZM30.3224 22.8359L32.7877 23.9031C33.3656 24.1533 33.4131 24.9655 32.8684 25.2822L19.3784 33.1482C19.1441 33.2844 18.8559 33.2844 18.6216 33.1482L5.13158 25.2822C4.58692 24.9655 4.63442 24.1533 5.21233 23.9031L7.67758 22.8359L18.6216 28.7909C18.8559 28.9175 19.1441 28.9175 19.3784 28.7909L30.3224 22.8359Z" fill="white"/>
</mask>
<g mask="url(#mask0_12_4)">
<g id="&#240;&#159;&#142;&#168; Color">
<rect id="Base" width="38" height="38" fill="#D39B2D"/>
</g>
</g>
</g>
</svg>
