<svg width="32" height="34" viewBox="0 0 32 34" fill="none" xmlns="http://www.w3.org/2000/svg">
<path d="M6.64221 0.00214445C6.91765 0.0650398 7.19527 0.121432 7.46853 0.195171C9.94314 0.858826 11.6261 3.16427 11.509 5.72563C11.3919 8.2718 9.48117 10.4319 6.96753 10.8592C3.9941 11.3667 1.11173 9.30632 0.656283 6.3459C0.187821 3.3009 2.24603 0.496634 5.27368 0.0585355C5.33657 0.0498603 5.39515 0.0195193 5.45805 0C5.85277 0 6.24966 0 6.64438 0L6.64221 0.00214445ZM8.40542 3.40067C8.33385 3.31392 8.27098 3.18163 8.21893 3.18596C8.09097 3.19464 7.93483 3.2315 7.85025 3.31609C6.52728 4.62604 5.21298 5.94687 3.89652 7.2655C3.76422 7.39996 3.64709 7.54309 3.82276 7.71226C3.98325 7.86841 4.12204 7.75347 4.24567 7.62984C5.57081 6.3047 6.89596 4.97957 8.21893 3.65443C8.284 3.5872 8.33168 3.50261 8.40759 3.40067H8.40542ZM8.8197 7.10715C8.8197 6.46736 8.31219 5.95988 7.67456 5.96422C7.05211 5.96855 6.55765 6.46954 6.55548 7.0985C6.55331 7.72745 7.04126 8.23061 7.66588 8.23929C8.30568 8.24797 8.81753 7.74478 8.8197 7.10715ZM4.39747 4.96871C5.03727 4.97739 5.55346 4.46989 5.55346 3.83226C5.55346 3.20548 5.05682 2.70449 4.43004 2.69798C3.79891 2.69148 3.2914 3.17945 3.27839 3.79973C3.26538 4.44603 3.75551 4.95787 4.39964 4.96654L4.39747 4.96871Z" fill="#D39B2D"/>
<path d="M11.1158 14.4873C9.67567 15.5521 8.23126 16.6214 6.79117 17.6862C7.22927 19.3259 6.81719 20.4753 5.59182 21.0588C4.51392 21.5728 3.21481 21.2409 2.50344 20.2693C1.79641 19.3042 1.88532 17.9682 2.71381 17.0942C3.63121 16.1269 4.87178 16.077 6.24897 16.9662C7.68689 15.9035 9.13131 14.8343 10.5844 13.7585C10.1203 12.5549 10.3112 11.5008 11.324 10.6767C12.1135 10.0347 13.2109 9.9588 14.0719 10.4837C15.1758 11.1538 15.5163 12.1601 15.2365 13.4224C16.1344 13.9038 17.0301 14.3853 17.9453 14.8777C18.0039 14.8234 18.069 14.7714 18.1297 14.7107C19.0254 13.8171 20.3527 13.6978 21.372 14.4396C21.5672 14.5827 21.6779 14.5502 21.8471 14.4179C22.8859 13.6089 23.9291 12.8043 24.9831 12.017C25.1913 11.863 25.2108 11.7416 25.1241 11.5095C24.6339 10.1757 25.354 8.73777 26.716 8.29533C28.039 7.86591 29.4704 8.63148 29.863 9.98047C30.2533 11.3208 29.4487 12.737 28.0975 13.0862C27.2343 13.3096 26.4731 13.084 25.7812 12.5288C24.5711 13.4527 23.3695 14.3723 22.2005 15.2659C22.2699 15.6931 22.3871 16.0879 22.3893 16.4826C22.3936 17.9812 21.1096 19.0786 19.5806 18.916C18.2034 18.7707 17.1884 17.3783 17.4704 15.9837C17.5203 15.7408 17.4704 15.6367 17.2578 15.5283C16.4987 15.1357 15.7527 14.715 14.9936 14.3203C14.9112 14.2769 14.7355 14.2921 14.6683 14.3528C13.5817 15.3461 12.3997 15.4155 11.2134 14.5458C11.1874 14.5263 11.157 14.5155 11.1093 14.4894L11.1158 14.4873Z" fill="#D39B2D"/>
<path d="M29.6356 32.2918H25.3652V31.9275C25.3652 26.8243 25.3652 21.7189 25.3652 16.6157C25.3652 16.0692 25.491 15.9433 26.0462 15.9433C27.0677 15.9433 28.0871 15.9412 29.1086 15.9433C29.4968 15.9433 29.6508 16.093 29.6508 16.4791C29.6508 21.6929 29.6508 26.9067 29.6508 32.1205C29.6508 32.1639 29.6421 32.2072 29.6334 32.2897L29.6356 32.2918Z" fill="#D39B2D"/>
<path d="M14.2744 32.2894H10.0127V31.9228C10.0127 27.7392 10.0127 23.5556 10.0127 19.3719C10.0127 18.7972 10.132 18.6758 10.7067 18.6758C11.7065 18.6758 12.7042 18.6736 13.704 18.6758C14.1595 18.6758 14.2917 18.8124 14.2917 19.27C14.2917 23.5187 14.2917 27.7674 14.2917 32.0183C14.2917 32.1028 14.2809 32.1874 14.2744 32.2894Z" fill="#D39B2D"/>
<path d="M17.7031 32.285C17.7031 32.1483 17.7031 32.0421 17.7031 31.9336C17.7031 29.1684 17.7031 26.401 17.7031 23.6358C17.7031 23.0654 17.8007 22.9678 18.3776 22.9678C19.3775 22.9678 20.3751 22.9656 21.3749 22.9678C21.8412 22.9678 21.9843 23.1131 21.9843 23.5794C21.9843 26.3902 21.9843 29.1988 21.9843 32.0095C21.9843 32.0941 21.9735 32.1809 21.967 32.285H17.7053H17.7031Z" fill="#D39B2D"/>
<path d="M16.0025 33.7358C10.921 33.7358 5.83737 33.7358 0.755862 33.7358C0.645253 33.7358 0.534639 33.7423 0.426199 33.7314C0.174618 33.7054 0.0162504 33.5558 0.00106871 33.3085C-0.0141129 33.0548 0.13337 32.8965 0.384952 32.8553C0.491223 32.8379 0.604003 32.8379 0.712443 32.8379C10.8993 32.8379 21.0862 32.8379 31.2731 32.8379C31.7784 32.8379 32.0105 32.9875 31.9996 33.302C31.9888 33.6013 31.7654 33.738 31.2818 33.738C26.1894 33.738 21.0949 33.738 16.0025 33.738V33.7358Z" fill="#D39B2D"/>
<path d="M6.58519 32.2888H2.35819C2.35168 32.1695 2.34082 32.0633 2.34082 31.957C2.34082 30.0918 2.34082 28.2288 2.34082 26.3636C2.34082 25.8258 2.46444 25.7021 2.99363 25.7021C4.01297 25.7021 5.03233 25.7 6.05384 25.7021C6.44639 25.7021 6.61553 25.8496 6.6177 26.227C6.62421 28.2006 6.61987 30.1742 6.6177 32.1478C6.6177 32.1891 6.60037 32.2303 6.58519 32.2888Z" fill="#D39B2D"/>
</svg>
