<svg width="38" height="26" viewBox="0 0 38 26" fill="none" xmlns="http://www.w3.org/2000/svg">
<g clip-path="url(#clip0_4_39)">
<path d="M37.1358 5.15909V21.1743C37.1358 23.5884 35.196 25.5453 32.8031 25.5453H4.33036C1.93883 25.5453 0 23.5893 0 21.1766V18.5427C0 17.7495 0.510749 17.0614 1.25347 16.8009C2.74405 16.2781 3.81306 14.849 3.81306 13.1667C3.81306 11.4844 2.74358 10.0534 1.25276 9.53009C0.510515 9.26962 0 8.5815 0 7.78854V5.15673C0 2.74406 1.93883 0.788086 4.33036 0.788086H32.8031C35.196 0.788086 37.1358 2.745 37.1358 5.15909Z" fill="#D39B2D"/>
<path d="M8.86461 6.36578C8.86461 6.88471 9.2816 7.30539 9.79599 7.30539C10.3104 7.30539 10.7274 6.88471 10.7274 6.36578V4.66555C10.7274 4.14662 10.3104 3.72594 9.79599 3.72594C9.2816 3.72594 8.86461 4.14662 8.86461 4.66555V6.36578Z" fill="white"/>
<path d="M8.86461 11.4665C8.86461 11.9854 9.2816 12.4061 9.79599 12.4061C10.3104 12.4061 10.7274 11.9854 10.7274 11.4665V9.76623C10.7274 9.24729 10.3104 8.82662 9.79599 8.82662C9.2816 8.82662 8.86461 9.24729 8.86461 9.76623V11.4665Z" fill="white"/>
<path d="M8.86461 16.5671C8.86461 17.0861 9.2816 17.5068 9.79599 17.5068C10.3104 17.5068 10.7274 17.0861 10.7274 16.5671V14.8669C10.7274 14.348 10.3104 13.9273 9.79599 13.9273C9.2816 13.9273 8.86461 14.348 8.86461 14.8669V16.5671Z" fill="white"/>
<path d="M8.86461 21.6678C8.86461 22.1868 9.2816 22.6074 9.79599 22.6074C10.3104 22.6074 10.7274 22.1868 10.7274 21.6678V19.9676C10.7274 19.4487 10.3104 19.028 9.79599 19.028C9.2816 19.028 8.86461 19.4487 8.86461 19.9676V21.6678Z" fill="white"/>
<path d="M14.668 9.77403C14.668 9.29537 14.7569 8.84741 14.9348 8.42873C15.1127 8.01004 15.3557 7.6452 15.6637 7.32995C15.9711 7.01612 16.3341 6.76959 16.7522 6.59154C17.1695 6.41207 17.6157 6.32162 18.0895 6.32162C18.5632 6.32162 19.008 6.41207 19.4223 6.59154C19.8373 6.76959 20.2006 7.01612 20.5114 7.32995C20.8225 7.6452 21.0669 8.01004 21.2441 8.42873C21.422 8.84741 21.5109 9.29561 21.5109 9.77403C21.5109 10.2525 21.422 10.7021 21.2441 11.1224C21.0669 11.5442 20.8225 11.9104 20.5114 12.2212C20.2003 12.5319 19.8373 12.7771 19.4223 12.9565C19.008 13.136 18.5639 13.225 18.0895 13.225C17.615 13.225 17.1695 13.136 16.7522 12.9565C16.3341 12.7771 15.9711 12.5319 15.6637 12.2212C15.3557 11.9104 15.1127 11.5442 14.9348 11.1224C14.7569 10.7021 14.668 10.2513 14.668 9.77403ZM16.2323 9.77403C16.2323 10.0366 16.2801 10.2817 16.3749 10.5094C16.4697 10.7356 16.6012 10.934 16.7697 11.1047C16.939 11.2754 17.1356 11.4081 17.3613 11.5045C17.5862 11.5994 17.8292 11.6476 18.0895 11.6476C18.3441 11.6476 18.5857 11.5994 18.8141 11.5045C19.0419 11.4081 19.2388 11.2754 19.405 11.1047C19.5707 10.934 19.7029 10.7356 19.8005 10.5094C19.8981 10.2817 19.9466 10.0366 19.9466 9.77403C19.9466 9.51711 19.8981 9.27341 19.8005 9.04293C19.7029 8.81246 19.5704 8.61386 19.405 8.4462C19.2385 8.27996 19.0419 8.14701 18.8141 8.04783C18.5857 7.94865 18.3441 7.90047 18.0895 7.90047C17.8292 7.90047 17.5862 7.94865 17.3613 8.04783C17.1356 8.14701 16.939 8.27996 16.7697 8.4462C16.6012 8.6141 16.4697 8.81246 16.3749 9.04293C16.2801 9.27341 16.2323 9.51711 16.2323 9.77403ZM23.9549 6.89498C24.0199 6.74621 24.0902 6.64396 24.1639 6.58705C24.2376 6.53014 24.3491 6.50086 24.4972 6.50086H25.475C25.7238 6.50086 25.8481 6.57831 25.8481 6.7344C25.8481 6.76368 25.8415 6.80454 25.83 6.85554C25.8186 6.90655 25.8186 6.93134 25.83 6.93134C24.9413 9.03561 24.0675 11.1267 23.2084 13.2075C22.3491 15.287 21.4756 17.3795 20.5868 19.4837C20.5397 19.5902 20.4805 19.6734 20.4089 19.7303C20.338 19.7872 20.249 19.8148 20.1428 19.8148H19.0225C18.8156 19.8148 18.7114 19.7492 18.7114 19.6179C18.7114 19.5872 18.71 19.5683 18.7069 19.5595C18.7039 19.5508 18.717 19.51 18.7474 19.4384L23.9549 6.89498ZM23.3416 16.5608C23.3416 16.0821 23.4306 15.6341 23.6084 15.2155C23.7863 14.7968 24.0307 14.4319 24.3418 14.1167C24.6529 13.8029 25.0159 13.5563 25.4302 13.3783C25.8446 13.1988 26.2895 13.1084 26.7631 13.1084C27.2366 13.1084 27.683 13.1988 28.101 13.3783C28.5184 13.5563 28.8814 13.8029 29.1895 14.1167C29.4975 14.4319 29.7405 14.7968 29.9184 15.2155C30.0956 15.6341 30.1845 16.0823 30.1845 16.5608C30.1845 17.0392 30.0956 17.4874 29.9184 17.9047C29.7405 18.3233 29.4975 18.6898 29.1895 19.0034C28.8814 19.317 28.5184 19.5638 28.101 19.7433C27.683 19.9227 27.2375 20.0118 26.7631 20.0118C26.2886 20.0118 25.8446 19.9227 25.4302 19.7433C25.0159 19.5638 24.6529 19.3173 24.3418 19.0034C24.0307 18.6896 23.7863 18.3233 23.6084 17.9047C23.4306 17.4874 23.3416 17.0378 23.3416 16.5608ZM24.9059 16.5608C24.9059 16.8234 24.9551 17.0685 25.0527 17.2961C25.1503 17.5223 25.2818 17.7207 25.4483 17.8914C25.614 18.0622 25.8092 18.1949 26.0349 18.2912C26.2598 18.3862 26.5028 18.4343 26.7631 18.4343C27.0233 18.4343 27.2673 18.3862 27.492 18.2912C27.7169 18.1949 27.9142 18.0622 28.0828 17.8914C28.252 17.7207 28.3836 17.5223 28.4784 17.2961C28.5732 17.0685 28.6209 16.8234 28.6209 16.5608C28.6209 15.9742 28.425 15.5144 28.0343 15.1803C27.6488 14.8504 27.2251 14.687 26.7628 14.687C26.5025 14.687 26.2596 14.7337 26.0346 14.8301C25.809 14.9264 25.6138 15.0591 25.448 15.2285C25.2816 15.3992 25.1501 15.5975 25.0524 15.8252C24.9548 16.0528 24.9057 16.2979 24.9057 16.5605L24.9059 16.5608Z" fill="white"/>
</g>
<defs>
<clipPath id="clip0_4_39">
<rect width="37.1358" height="24.7572" fill="white" transform="translate(0 0.788086)"/>
</clipPath>
</defs>
</svg>
