<svg width="32" height="32" viewBox="0 0 32 32" fill="none" xmlns="http://www.w3.org/2000/svg">
<path d="M7.19803 14.3976C5.87288 14.3976 4.54766 14.4041 3.22256 14.3956C2.10804 14.3885 1.22074 13.9211 0.572322 13.0168C0.192081 12.4866 0.00251476 11.8865 0.00211605 11.2323C0.000454735 8.53749 -0.00176035 5.84268 0.00240401 3.14784C0.00481845 1.58159 1.2238 0.220029 2.78541 0.0274791C2.92416 0.0103774 3.06491 0.00204802 3.20473 0.00198156C5.8661 0.000519494 8.5275 0.000696715 11.1889 0.00100685C12.8219 0.00118407 14.1848 1.21335 14.3761 2.837C14.3907 2.96132 14.396 3.08741 14.3961 3.2127C14.3972 5.87799 14.3979 8.54329 14.3968 11.2086C14.3961 12.8707 13.0823 14.2755 11.4277 14.3859C11.3174 14.3932 11.2066 14.3971 11.096 14.3972C9.79665 14.398 8.49735 14.3977 7.19803 14.3976Z" fill="#D39B2D"/>
<path d="M7.20124 17.603C8.52271 17.603 9.84427 17.5932 11.1656 17.6059C12.4077 17.6178 13.3497 18.1748 13.9839 19.2409C14.2632 19.7103 14.3951 20.228 14.3957 20.7733C14.3987 23.457 14.3991 26.1408 14.3961 28.8245C14.3944 30.4129 13.1793 31.7807 11.605 31.9738C11.4699 31.9903 11.3329 31.9987 11.1967 31.9987C8.53166 32.0002 5.86656 32.0001 3.20149 31.9997C1.42738 31.9995 0.00115901 30.5704 0.00120331 28.7943C0.00124761 26.129 0.000228676 23.4637 0.00182353 20.7984C0.00262096 19.4682 0.822622 18.2862 2.06723 17.8114C2.4298 17.6731 2.8053 17.6041 3.19254 17.6037C4.52876 17.6023 5.86499 17.6032 7.20124 17.603Z" fill="#D39B2D"/>
<path d="M17.6024 7.19473C17.6024 5.87685 17.5962 4.55895 17.6042 3.24112C17.6115 2.04949 18.1259 1.12511 19.1245 0.478762C19.6222 0.156664 20.1766 0.00135289 20.7708 0.00115352C23.458 0.000245266 26.1453 -0.000928819 28.8325 0.00135289C30.414 0.0027042 31.7781 1.21573 31.972 2.78823C31.9877 2.91607 31.997 3.04562 31.9971 3.17437C31.9985 5.83965 31.9988 8.50496 31.9978 11.1702C31.9972 12.7066 30.9748 13.9877 29.4746 14.3214C29.2532 14.3706 29.0215 14.3938 28.7944 14.3942C26.133 14.3992 23.4717 14.3976 20.8103 14.3975C19.2105 14.3974 17.8545 13.2178 17.6363 11.6336C17.6152 11.4806 17.604 11.3249 17.6037 11.1705C17.6012 9.84523 17.6023 8.51998 17.6024 7.19473Z" fill="#D39B2D"/>
<path d="M24.805 17.6031C26.1301 17.6031 27.4555 17.5894 28.7804 17.607C30.0879 17.6244 31.0515 18.2345 31.6656 19.3863C31.8911 19.8094 31.997 20.2694 31.9973 20.7498C31.9986 23.4557 32.0033 26.1616 31.9961 28.8675C31.9919 30.4236 30.7631 31.7888 29.2215 31.9725C29.079 31.9895 28.9346 31.9987 28.7911 31.9987C26.1298 32.0002 23.4684 32.0001 20.807 31.9997C19.1771 31.9995 17.8058 30.777 17.6228 29.1602C17.6095 29.0431 17.6033 28.9245 17.6033 28.8066C17.6022 26.134 17.6012 23.4613 17.6027 20.7887C17.6036 19.1273 18.9165 17.727 20.5753 17.6146C20.6819 17.6074 20.7891 17.6036 20.896 17.6035C22.199 17.6027 23.502 17.603 24.805 17.6031Z" fill="#D39B2D"/>
</svg>
