<svg width="64" height="69" viewBox="0 0 64 69" fill="none" xmlns="http://www.w3.org/2000/svg">
<path d="M0.521118 9.05261C0.521118 4.06863 4.56143 0.0283203 9.54541 0.0283203H54.6669C59.6509 0.0283203 63.6912 4.06864 63.6912 9.05262V59.5887C63.6912 64.5727 59.6509 68.613 54.6669 68.613H9.54542C4.56144 68.613 0.521118 64.5727 0.521118 59.5887V9.05261Z" fill="#0075E2"/>
<g clip-path="url(#clip0_911_1980)">
<g clip-path="url(#clip1_911_1980)">
<g clip-path="url(#clip2_911_1980)">
<path d="M26.9172 38.4614V41.0889C26.9172 45.2877 30.3327 48.7596 34.5314 48.7596C38.7301 48.7596 42.1457 45.2877 42.1457 41.0889V40.1573C44.0741 39.7642 45.5298 38.0554 45.5298 36.0128C45.5298 33.6804 43.632 31.7826 41.2996 31.7826C38.9673 31.7826 37.0695 33.6804 37.0695 36.0128C37.0695 38.0554 38.5252 39.7642 40.4536 40.1573V41.0889C40.4536 44.3541 37.7966 47.0675 34.5314 47.0675C31.2663 47.0675 28.6092 44.3541 28.6092 41.0889V38.4625C32.062 37.8291 36.0468 33.5417 36.7366 29.4635C37.1889 26.7847 36.0713 24.6403 33.6854 23.5678V22.4199C33.6854 21.0204 32.5469 19.8818 31.1473 19.8818C29.7478 19.8818 28.6092 21.0204 28.6092 22.4199C28.6092 23.8195 29.7478 24.958 31.1473 24.958H32.6494C34.5961 25.6788 35.4142 27.1335 35.0676 29.1818C34.4736 32.6972 30.5144 36.8588 27.7632 36.8588C24.6818 36.8588 20.399 31.9655 20.373 28.3421C20.3615 26.727 21.2077 25.569 22.8543 24.958H24.3791C25.7786 24.958 26.9172 23.8195 26.9172 22.4199C26.9172 21.0204 25.7787 19.8818 24.3791 19.8818C22.9795 19.8818 21.841 21.0204 21.841 22.4199V23.5583C19.8059 24.4697 18.6781 26.1774 18.6825 28.3421C18.6911 32.5843 23.0864 37.7517 26.9172 38.4614ZM40.4536 35.1667H42.1457V36.8588H40.4536V35.1667Z" fill="white"/>
</g>
</g>
</g>
<defs>
<clipPath id="clip0_911_1980">
<rect width="28.8777" height="28.8777" fill="white" transform="translate(17.6672 19.8818)"/>
</clipPath>
<clipPath id="clip1_911_1980">
<rect width="28.8777" height="28.8777" fill="white" transform="translate(17.6672 19.8818)"/>
</clipPath>
<clipPath id="clip2_911_1980">
<rect width="26.8473" height="28.8777" fill="white" transform="translate(18.6825 19.8818)"/>
</clipPath>
</defs>
</svg>
