<svg width="32" height="39" viewBox="0 0 32 39" fill="none" xmlns="http://www.w3.org/2000/svg">
<path d="M12.0659 38.0286C11.3262 37.7598 10.7671 37.3197 10.6409 36.4867C10.6122 36.2979 10.6142 36.103 10.6142 35.9111C10.6111 31.5642 10.605 27.2173 10.6111 22.8704C10.6111 22.2313 10.4388 21.6916 10.0499 21.1664C6.84491 16.8297 3.66452 12.4746 0.470778 8.12977C0.120933 7.65374 -0.0945074 7.15512 0.0409163 6.55598C0.227637 5.73317 0.87601 5.21611 1.7655 5.1956C2.41799 5.18021 3.0705 5.19149 3.72402 5.19149C7.03882 5.19149 10.3536 5.19149 13.6694 5.19149C13.8203 5.19149 13.9701 5.19149 14.1691 5.19149C13.5751 8.05077 13.8962 10.7449 15.2771 13.2759C16.658 15.8058 18.7263 17.5571 21.444 18.6118C20.9618 19.2714 20.5443 19.9547 20.0169 20.5374C19.1757 21.4669 18.9346 22.5226 18.9602 23.7486C19.0177 26.4787 18.9571 29.2107 18.9992 31.9418C19.0156 32.9738 18.6452 33.7638 17.8573 34.3722C16.6016 35.3428 15.3356 36.2999 14.0573 37.2407C13.65 37.5403 13.1903 37.7681 12.7553 38.0286H12.0639H12.0659Z" fill="#D39B2D"/>
<path d="M28.8474 14.9881C28.4637 14.6813 28.0472 14.3592 27.644 14.0206C27.4963 13.8965 27.3834 13.878 27.2008 13.9632C26.812 14.1448 26.4098 14.3028 26.0025 14.4361C25.8014 14.5018 25.7101 14.589 25.6927 14.8024C25.6567 15.2558 25.5839 15.7062 25.5501 16.1597C25.5336 16.3793 25.4475 16.4429 25.2382 16.4398C24.4472 16.4306 23.6572 16.4295 22.8662 16.4398C22.6415 16.4429 22.5451 16.3772 22.5277 16.1433C22.4938 15.6898 22.4209 15.2394 22.385 14.786C22.3696 14.589 22.2948 14.5018 22.1039 14.4382C21.6853 14.2997 21.2842 14.1089 20.8667 13.9683C20.7497 13.9293 20.564 13.9457 20.4686 14.0155C20.0346 14.3325 19.6212 14.6783 19.2149 15.0014C18.5255 14.311 17.8504 13.6349 17.1528 12.9362C17.517 12.4766 17.9007 11.9923 18.2433 11.5604C18.0228 11.0044 17.8319 10.4924 17.6103 9.99279C17.5673 9.8943 17.4134 9.7989 17.3005 9.78556C16.7916 9.72606 16.2787 9.69733 15.7164 9.65321C15.7164 9.16487 15.7164 8.70319 15.7164 8.2405C15.7164 7.82089 15.7257 7.40128 15.7124 6.9827C15.7052 6.7652 15.7842 6.68826 15.9996 6.68005C16.4182 6.66364 16.8357 6.61644 17.2533 6.59592C17.4718 6.58463 17.5826 6.5118 17.6514 6.28096C17.7683 5.88187 17.9263 5.48996 18.1079 5.11447C18.2043 4.91646 18.1787 4.7995 18.0433 4.64561C17.7109 4.26909 17.3928 3.87924 17.0892 3.51708C17.7745 2.83073 18.4485 2.15567 19.1523 1.45085C19.5063 1.74735 19.9033 2.06743 20.2849 2.40497C20.4399 2.54142 20.5548 2.56502 20.7497 2.46243C21.1406 2.25827 21.5489 2.08385 21.9613 1.92893C22.1501 1.85814 22.2219 1.76581 22.2301 1.57088C22.2476 1.1523 22.2948 0.734744 22.3132 0.316162C22.3225 0.100715 22.3779 -0.00495155 22.6251 0.000178134C23.4274 0.0145412 24.2307 0.0104395 25.033 0.00223201C25.2279 0.000180138 25.31 0.0627528 25.3274 0.261785C25.3644 0.690626 25.4331 1.11742 25.469 1.54626C25.4854 1.74837 25.547 1.85712 25.7552 1.93201C26.1595 2.07564 26.5555 2.25006 26.9361 2.44703C27.1341 2.5486 27.2583 2.56193 27.4327 2.40189C27.802 2.0623 28.198 1.75145 28.5622 1.44572C29.2506 2.13515 29.9246 2.81124 30.6243 3.51196C30.3155 3.88129 29.9862 4.28859 29.6405 4.6805C29.5174 4.82003 29.5173 4.92262 29.5922 5.0878C29.7697 5.47868 29.937 5.87776 30.0621 6.28814C30.1319 6.51897 30.2488 6.58669 30.4653 6.59694C30.8716 6.61541 31.2768 6.66364 31.6841 6.67902C31.9027 6.68723 32.0042 6.74469 32.0001 6.98989C31.9868 7.79217 31.9899 8.59547 31.9991 9.39776C32.0012 9.59987 31.9242 9.67578 31.7334 9.68809C31.4943 9.70246 31.2553 9.76606 31.0193 9.75273C30.6356 9.73118 30.4386 9.88303 30.3371 10.2565C30.254 10.5653 30.1216 10.871 29.9534 11.1429C29.781 11.4209 29.8354 11.6015 30.0375 11.8272C30.3555 12.1832 30.6397 12.57 30.9157 12.9157C30.2253 13.6051 29.5512 14.2802 28.8454 14.986L28.8474 14.9881ZM19.6314 8.19843C19.6201 10.4791 21.4791 12.3535 23.7742 12.375C26.1071 12.3966 27.9918 10.5468 28.0092 8.21896C28.0267 5.88598 26.181 4.01671 23.8409 3.99517C21.4802 3.97363 19.6437 5.80697 19.6314 8.19843Z" fill="#D39B2D"/>
<path d="M23.8047 10.0208C22.7952 10.0126 21.9795 9.19393 21.9785 8.18852C21.9785 7.17284 22.8239 6.33157 23.8344 6.34388C24.8388 6.35517 25.6565 7.179 25.6606 8.18339C25.6647 9.20215 24.8286 10.0301 23.8047 10.0219V10.0208Z" fill="#D39B2D"/>
</svg>
