<svg width="596" height="842" viewBox="0 0 596 842" fill="none" xmlns="http://www.w3.org/2000/svg">
<path d="M136.29 519.36C136.8 502.71 136.29 485.96 138 469.43C143.38 416.86 187.33 371.01 239.77 362.89C288.11 355.41 327.89 371.14 359.44 408.35C361.033 410.137 363.182 411.334 365.54 411.75C412.54 418.21 452.29 458.52 458.1 505.75C465.48 565.91 426.28 619.86 366.61 629.39C323.22 636.32 287.86 620.44 260.61 586.39C258.39 583.61 256.3 582.48 252.78 582.5C221.94 582.63 191.1 582.25 160.28 582.72C146.11 582.93 135.9 573.72 136.67 558.89C137.35 545.75 136.81 532.56 136.81 519.39L136.29 519.36ZM349 450.77C339.823 450.716 330.725 452.478 322.232 455.954C313.738 459.43 306.016 464.552 299.509 471.024C293.003 477.497 287.842 485.193 284.322 493.669C280.802 502.144 278.993 511.232 279 520.41C278.91 559.12 310.41 590.88 348.94 590.92C387 591 419 559.1 419.06 521C419.073 511.788 417.271 502.663 413.757 494.148C410.243 485.632 405.086 477.893 398.58 471.371C392.074 464.849 384.346 459.673 375.839 456.138C367.332 452.603 358.212 450.779 349 450.77Z" fill="#D39B2D"/>
<path d="M186.41 278.22C186.317 264.911 190.175 251.873 197.497 240.758C204.818 229.643 215.273 220.95 227.537 215.781C239.802 210.611 253.325 209.197 266.394 211.717C279.463 214.238 291.49 220.58 300.952 229.94C310.414 239.3 316.886 251.257 319.549 264.298C322.211 277.338 320.944 290.876 315.908 303.196C310.872 315.516 302.294 326.065 291.259 333.507C280.224 340.948 267.229 344.948 253.92 345C216.81 345 186.53 315.08 186.41 278.22Z" fill="#D39B2D"/>
<path d="M366.13 464.04H332.57C330.98 464.04 329.69 465.329 329.69 466.92V528.02C329.69 529.611 330.98 530.9 332.57 530.9H366.13C367.721 530.9 369.01 529.611 369.01 528.02V466.92C369.01 465.329 367.721 464.04 366.13 464.04Z" fill="#D39B2D"/>
<path d="M349.31 539.8C351.939 539.745 354.552 540.219 356.994 541.192C359.436 542.166 361.658 543.62 363.528 545.468C365.398 547.317 366.878 549.522 367.879 551.953C368.881 554.384 369.385 556.991 369.36 559.62C369.386 562.248 368.895 564.856 367.913 567.294C366.931 569.732 365.478 571.952 363.637 573.828C361.796 575.704 359.604 577.199 357.185 578.227C354.766 579.255 352.168 579.797 349.54 579.82C344.227 579.784 339.139 577.672 335.363 573.935C331.586 570.198 329.421 565.132 329.33 559.82C329.14 549 338.29 539.83 349.31 539.8Z" fill="#D39B2D"/>
</svg>
