<svg width="15" height="20" viewBox="0 0 15 20" fill="none" xmlns="http://www.w3.org/2000/svg">
<path d="M3.2373 12.3379C3.24942 11.9423 3.2373 11.5444 3.27793 11.1517C3.40574 9.90288 4.44981 8.81366 5.69558 8.62076C6.84395 8.44306 7.78897 8.81675 8.53847 9.70071C8.57632 9.74316 8.62738 9.77161 8.68338 9.78148C9.79992 9.93495 10.7442 10.8926 10.8822 12.0146C11.0576 13.4437 10.1263 14.7254 8.7088 14.9518C7.67803 15.1164 6.83801 14.7391 6.19066 13.9302C6.13792 13.8642 6.08827 13.8374 6.00465 13.8378C5.27201 13.8409 4.53938 13.8319 3.80721 13.8431C3.47059 13.848 3.22804 13.6293 3.24633 13.277C3.26249 12.9648 3.24966 12.6515 3.24966 12.3386L3.2373 12.3379ZM8.29046 10.7084C8.07244 10.7072 7.85632 10.749 7.65455 10.8316C7.45277 10.9142 7.26932 11.0358 7.11476 11.1896C6.9602 11.3434 6.83758 11.5262 6.75396 11.7275C6.67034 11.9289 6.62737 12.1448 6.62753 12.3628C6.6254 13.2824 7.37371 14.0369 8.28903 14.0379C9.19319 14.0398 9.95338 13.2819 9.95481 12.3768C9.95512 12.158 9.91231 11.9412 9.82883 11.7389C9.74535 11.5366 9.62283 11.3528 9.46827 11.1978C9.31372 11.0429 9.13015 10.9199 8.92805 10.836C8.72596 10.752 8.5093 10.7087 8.29046 10.7084Z" fill="#D39B2D"/>
<path d="M4.42875 6.60948C4.42654 6.29331 4.5182 5.98358 4.69213 5.71953C4.86605 5.45548 5.11442 5.24898 5.40578 5.12617C5.69714 5.00336 6.01839 4.96976 6.32885 5.02964C6.63932 5.08952 6.92503 5.24018 7.14982 5.46253C7.37461 5.68489 7.52836 5.96895 7.59161 6.27875C7.65486 6.58854 7.62476 6.91014 7.50513 7.20281C7.38549 7.49549 7.1817 7.74609 6.91956 7.92287C6.65741 8.09966 6.3487 8.19468 6.03252 8.19591C5.15093 8.19591 4.4316 7.48513 4.42875 6.60948Z" fill="#D39B2D"/>
<path d="M8.6977 11.0237H7.90045C7.86266 11.0237 7.83203 11.0543 7.83203 11.0921V12.5436C7.83203 12.5814 7.86266 12.612 7.90045 12.612H8.6977C8.73549 12.612 8.76612 12.5814 8.76612 12.5436V11.0921C8.76612 11.0543 8.73549 11.0237 8.6977 11.0237Z" fill="#D39B2D"/>
<path d="M8.29796 12.8236C8.3604 12.8223 8.42248 12.8335 8.4805 12.8567C8.53852 12.8798 8.5913 12.9143 8.63572 12.9582C8.68014 13.0022 8.7153 13.0545 8.73909 13.1123C8.76289 13.17 8.77485 13.232 8.77427 13.2944C8.77489 13.3569 8.76321 13.4188 8.73988 13.4767C8.71655 13.5346 8.68203 13.5874 8.63831 13.632C8.59458 13.6765 8.54249 13.712 8.48503 13.7365C8.42757 13.7609 8.36586 13.7737 8.30342 13.7743C8.17721 13.7735 8.05634 13.7233 7.96663 13.6345C7.87691 13.5457 7.82548 13.4254 7.82331 13.2992C7.8188 13.0421 8.03617 12.8243 8.29796 12.8236Z" fill="#D39B2D"/>
</svg>
