<svg width="512" height="512" viewBox="0 0 512 512" fill="none" xmlns="http://www.w3.org/2000/svg">
<path d="M53.2803 95.68V382.24C53.3366 403.355 61.7495 423.589 76.6802 438.52C91.6109 453.451 111.845 461.864 132.96 461.92H240.8C242.335 450.843 245.517 440.057 250.24 429.92C263.161 401.422 286.528 378.971 315.52 367.2C305.073 359.971 296.541 350.31 290.659 339.048C284.778 327.787 281.724 315.264 281.76 302.56C281.781 281.561 290.132 261.429 304.98 246.58C319.829 231.732 339.962 223.381 360.96 223.36C368.607 223.331 376.214 224.464 383.52 226.72C395.513 230.268 406.485 236.632 415.52 245.28V95.68C415.518 74.5481 407.123 54.2823 392.18 39.3398C377.238 24.3974 356.972 16.0019 335.84 16H132.96C111.837 16.0291 91.5867 24.4333 76.6501 39.3699C61.7135 54.3064 53.3094 74.5565 53.2803 95.68ZM149.92 95.36H318.88C323.124 95.36 327.193 97.0457 330.194 100.046C333.195 103.047 334.88 107.117 334.88 111.36C334.88 115.603 333.195 119.673 330.194 122.674C327.193 125.674 323.124 127.36 318.88 127.36H149.92C145.677 127.36 141.607 125.674 138.607 122.674C135.606 119.673 133.92 115.603 133.92 111.36C133.92 107.117 135.606 103.047 138.607 100.046C141.607 97.0457 145.677 95.36 149.92 95.36ZM149.92 180.48H318.88C323.124 180.48 327.193 182.166 330.194 185.166C333.195 188.167 334.88 192.237 334.88 196.48C334.88 200.723 333.195 204.793 330.194 207.794C327.193 210.794 323.124 212.48 318.88 212.48H149.92C145.677 212.48 141.607 210.794 138.607 207.794C135.606 204.793 133.92 200.723 133.92 196.48C133.92 192.237 135.606 188.167 138.607 185.166C141.607 182.166 145.677 180.48 149.92 180.48ZM149.92 265.44H226.72C230.964 265.44 235.033 267.126 238.034 270.126C241.035 273.127 242.72 277.197 242.72 281.44C242.72 285.683 241.035 289.753 238.034 292.754C235.033 295.754 230.964 297.44 226.72 297.44H149.92C145.677 297.44 141.607 295.754 138.607 292.754C135.606 289.753 133.92 285.683 133.92 281.44C133.92 277.197 135.606 273.127 138.607 270.126C141.607 267.126 145.677 265.44 149.92 265.44Z" fill="#D39B2D"/>
<path d="M360.96 357.76C391.446 357.76 416.16 333.046 416.16 302.56C416.16 272.074 391.446 247.36 360.96 247.36C330.474 247.36 305.76 272.074 305.76 302.56C305.76 333.046 330.474 357.76 360.96 357.76Z" fill="#D39B2D"/>
<path d="M279.36 496H442.72C446.96 495.987 451.022 494.297 454.02 491.3C457.018 488.302 458.708 484.239 458.72 480C458.72 454.093 448.429 429.248 430.111 410.93C411.792 392.611 386.947 382.32 361.04 382.32C335.134 382.32 310.289 392.611 291.97 410.93C273.652 429.248 263.36 454.093 263.36 480C263.373 484.24 265.062 488.302 268.06 491.3C271.058 494.298 275.121 495.988 279.36 496Z" fill="#D39B2D"/>
</svg>
