<svg width="21" height="20" viewBox="0 0 21 20" fill="none" xmlns="http://www.w3.org/2000/svg">
<path d="M2.22266 3.7375V14.9312C2.22486 15.7561 2.55349 16.5465 3.13672 17.1297C3.71995 17.7129 4.51035 18.0415 5.33516 18.0438H9.54766C9.60762 17.611 9.73191 17.1897 9.91641 16.7938C10.4211 15.6805 11.3339 14.8036 12.4664 14.3438C12.0583 14.0614 11.725 13.684 11.4953 13.2441C11.2655 12.8042 11.1462 12.315 11.1477 11.8188C11.1485 10.9985 11.4747 10.2121 12.0547 9.63204C12.6347 9.05202 13.4211 8.72582 14.2414 8.725C14.5401 8.72386 14.8372 8.76812 15.1227 8.85625C15.5911 8.99486 16.0197 9.24343 16.3727 9.58125V3.7375C16.3726 2.91204 16.0446 2.1204 15.4609 1.53671C14.8773 0.953022 14.0856 0.625075 13.2602 0.625H5.33516C4.51002 0.626136 3.719 0.954424 3.13554 1.53788C2.55208 2.12135 2.22379 2.91236 2.22266 3.7375ZM5.99766 3.725H12.5977C12.7634 3.725 12.9224 3.79085 13.0396 3.90806C13.1568 4.02527 13.2227 4.18424 13.2227 4.35C13.2227 4.51576 13.1568 4.67473 13.0396 4.79194C12.9224 4.90915 12.7634 4.975 12.5977 4.975H5.99766C5.8319 4.975 5.67292 4.90915 5.55571 4.79194C5.4385 4.67473 5.37266 4.51576 5.37266 4.35C5.37266 4.18424 5.4385 4.02527 5.55571 3.90806C5.67292 3.79085 5.8319 3.725 5.99766 3.725ZM5.99766 7.05H12.5977C12.7634 7.05 12.9224 7.11585 13.0396 7.23306C13.1568 7.35027 13.2227 7.50924 13.2227 7.675C13.2227 7.84076 13.1568 7.99973 13.0396 8.11694C12.9224 8.23415 12.7634 8.3 12.5977 8.3H5.99766C5.8319 8.3 5.67292 8.23415 5.55571 8.11694C5.4385 7.99973 5.37266 7.84076 5.37266 7.675C5.37266 7.50924 5.4385 7.35027 5.55571 7.23306C5.67292 7.11585 5.8319 7.05 5.99766 7.05ZM5.99766 10.3687H8.99766C9.16342 10.3687 9.32239 10.4346 9.4396 10.5518C9.55681 10.669 9.62266 10.828 9.62266 10.9937C9.62266 11.1595 9.55681 11.3185 9.4396 11.4357C9.32239 11.5529 9.16342 11.6187 8.99766 11.6187H5.99766C5.8319 11.6187 5.67292 11.5529 5.55571 11.4357C5.4385 11.3185 5.37266 11.1595 5.37266 10.9937C5.37266 10.828 5.4385 10.669 5.55571 10.5518C5.67292 10.4346 5.8319 10.3687 5.99766 10.3687Z" fill="#D39B2D"/>
<path d="M14.2412 13.9751C15.4321 13.9751 16.3975 13.0097 16.3975 11.8188C16.3975 10.628 15.4321 9.6626 14.2412 9.6626C13.0503 9.6626 12.085 10.628 12.085 11.8188C12.085 13.0097 13.0503 13.9751 14.2412 13.9751Z" fill="#D39B2D"/>
<path d="M11.0537 19.375H17.435C17.6006 19.3745 17.7593 19.3084 17.8764 19.1913C17.9935 19.0742 18.0595 18.9156 18.06 18.75C18.06 17.738 17.658 16.7675 16.9424 16.0519C16.2268 15.3363 15.2563 14.9343 14.2443 14.9343C13.2324 14.9343 12.2619 15.3363 11.5463 16.0519C10.8307 16.7675 10.4287 17.738 10.4287 18.75C10.4292 18.9156 10.4952 19.0743 10.6123 19.1914C10.7294 19.3085 10.8881 19.3745 11.0537 19.375Z" fill="#D39B2D"/>
</svg>
