<svg width="64" height="70" viewBox="0 0 64 70" fill="none" xmlns="http://www.w3.org/2000/svg">
<rect x="0.12146" y="0.613525" width="63.1701" height="68.5846" rx="9.0243" fill="#0075E2"/>
<g clip-path="url(#clip0_911_1969)">
<g clip-path="url(#clip1_911_1969)">
<g clip-path="url(#clip2_911_1969)">
<path d="M31.6983 24.2736C25.4038 18.7682 17.4005 23.6054 17.2693 30.163C17.2358 31.8343 17.7182 33.4622 18.6785 34.963H24.9028L26.0099 33.1177C26.3313 32.582 27.1093 32.5648 27.449 33.0989L29.7848 36.7694L33.1897 29.5815C33.4866 28.9543 34.3715 28.9343 34.699 29.5425L37.6177 34.963H44.7181C49.9778 26.7425 39.5828 17.3776 31.6983 24.2736Z" fill="white"/>
<path d="M36.3676 36.2099L34.0025 31.8176L30.6581 38.878C30.3736 39.4787 29.5367 39.5309 29.1799 38.9701L26.7565 35.1619L26.1072 36.2441C25.9543 36.4989 25.6789 36.6548 25.3818 36.6548H20.0168C20.185 36.8308 19.2886 35.9363 31.1016 47.6881C31.4315 48.0164 31.9649 48.0164 32.2949 47.6881C43.9261 36.1171 43.2119 36.8305 43.3797 36.6548H37.1125C36.8012 36.6548 36.5152 36.484 36.3676 36.2099Z" fill="white"/>
</g>
</g>
</g>
<defs>
<clipPath id="clip0_911_1969">
<rect width="28.8777" height="28.8777" fill="white" transform="translate(17.2676 20.4668)"/>
</clipPath>
<clipPath id="clip1_911_1969">
<rect width="28.8777" height="28.8777" fill="white" transform="translate(17.2676 20.4668)"/>
</clipPath>
<clipPath id="clip2_911_1969">
<rect width="28.8777" height="26.0572" fill="white" transform="translate(17.2676 21.8772)"/>
</clipPath>
</defs>
</svg>
