<svg width="23" height="30" viewBox="0 0 23 30" fill="none" xmlns="http://www.w3.org/2000/svg">
<path d="M8.74 17.464C8.74 17.5411 8.73335 17.593 8.74096 17.6426C8.86462 18.4423 8.49132 18.9726 7.81616 19.2906C7.05322 19.6498 6.26329 19.9497 5.49427 20.2962C4.20153 20.8787 2.93651 21.5077 1.84816 22.4543C0.621902 23.5209 0.226177 24.8646 0.515543 26.4385C0.642725 27.1305 1.08706 27.6189 1.64786 28.0015C2.51227 28.5911 3.49105 28.8827 4.49466 29.0962C6.69538 29.5644 8.93021 29.6514 11.1672 29.6366C12.8962 29.6251 14.6285 29.5884 16.3524 29.4646C17.9289 29.3514 19.4931 29.0842 20.9456 28.3908C21.9051 27.9328 22.705 27.2941 22.9208 26.1672C23.1732 24.8483 22.8269 23.6789 21.8186 22.8014C21.1345 22.206 20.3924 21.6549 19.6069 21.21C18.4142 20.5343 17.1612 19.9688 15.9347 19.3547C15.699 19.2366 15.4525 19.1322 15.2365 18.9834C14.618 18.5572 14.4162 17.8332 14.7389 17.1435C14.8775 16.8474 15.0712 16.572 15.2713 16.3122C16.3842 14.8676 17.2304 13.2903 17.5618 11.4711C17.8756 9.74839 17.8824 8.03291 17.155 6.39933C16.2741 4.42071 14.7317 3.32998 12.6236 3.04741C11.4659 2.89222 10.3246 2.96046 9.23223 3.40335C7.24247 4.20997 6.1671 5.7762 5.76865 7.85494C5.37005 9.93457 5.73141 11.9202 6.59823 13.8239C6.6474 13.9318 6.77154 14.0414 6.88311 14.0759C7.18417 14.1693 7.49564 14.2327 7.80663 14.2857C7.89817 14.3013 8.00485 14.2512 8.09968 14.217C8.33586 14.1318 8.56612 13.973 8.80431 13.9613C9.41236 13.9317 10.032 13.9047 10.6313 13.9901C11.4897 14.1121 12.0749 14.964 11.9941 15.8371C11.9096 16.7502 11.2063 17.444 10.332 17.462C9.80736 17.4728 9.28245 17.464 8.74008 17.464H8.74Z" fill="#D39B2D"/>
<path d="M21.7825 11.8545C21.7825 11.3613 21.7806 10.8682 21.783 10.3752C21.7859 9.79516 21.5474 9.34919 21.0883 9.00652C20.996 8.93771 20.9106 8.79496 20.9041 8.68157C20.6768 4.68108 17.6545 1.09027 13.7782 0.22826C8.66271 -0.909406 3.75327 2.31221 2.6815 7.51707C2.60205 7.90301 2.58867 8.30262 2.5246 8.69247C2.50666 8.80147 2.44187 8.93356 2.35657 8.99505C1.86954 9.3461 1.63929 9.81517 1.64337 10.4191C1.64994 11.3838 1.64233 12.3487 1.64585 13.3134C1.65034 14.5372 2.75622 15.2828 3.86715 14.8024C4.02621 14.7336 4.12672 14.744 4.26456 14.8373C5.39583 15.604 6.66518 15.9557 8.00076 16.1113C8.12026 16.1252 8.25513 16.1976 8.33995 16.2855C8.54257 16.4957 8.76563 16.6278 9.06156 16.6247C9.46257 16.6203 9.8639 16.6304 10.2648 16.6216C10.7739 16.6107 11.1485 16.2417 11.1758 15.7394C11.2013 15.2714 10.8577 14.8243 10.3744 14.783C9.90291 14.7427 9.42493 14.7582 8.95111 14.7794C8.80383 14.7859 8.61954 14.8527 8.52463 14.9588C8.33386 15.172 8.12234 15.1825 7.87607 15.1465C6.82352 14.9928 5.81935 14.6987 4.90456 14.1282C4.7431 14.0275 4.70065 13.9413 4.72308 13.7267C4.77874 13.196 4.76576 12.6575 4.77153 12.1221C4.77746 11.5754 4.76608 11.0286 4.77457 10.482C4.78427 9.85975 4.58124 9.3548 4.05937 8.99399C3.98865 8.94511 3.93931 8.80016 3.94796 8.70622C4.27385 5.16373 6.67543 2.38785 10.0749 1.61368C14.205 0.673094 18.4319 3.41465 19.3193 7.61036C19.3547 7.77751 19.3875 7.94539 19.4157 8.11392C19.4866 8.53842 19.5852 8.93274 19.1031 9.24614C18.7453 9.47868 18.6568 9.93108 18.656 10.3663C18.6545 11.3633 18.6411 12.3605 18.6599 13.357C18.6782 14.326 19.3464 14.9652 20.2782 14.9458C21.1461 14.9277 21.779 14.2368 21.7821 13.3015C21.7837 12.8191 21.7824 12.3368 21.7824 11.8544L21.7825 11.8545Z" fill="#D39B2D"/>
</svg>
