<svg width="26" height="26" viewBox="0 0 26 26" fill="none" xmlns="http://www.w3.org/2000/svg">
<path d="M8.47806 13.0944C8.47806 10.7728 10.3607 8.89022 12.6837 8.89022C15.0067 8.89022 16.8904 10.7728 16.8904 13.0944C16.8904 15.416 15.0067 17.2985 12.6837 17.2985C10.3607 17.2985 8.47806 15.416 8.47806 13.0944ZM6.20401 13.0944C6.20401 16.671 9.10497 19.5702 12.6837 19.5702C16.2625 19.5702 19.1634 16.671 19.1634 13.0944C19.1634 9.51776 16.2625 6.61854 12.6837 6.61854C9.10497 6.61854 6.20401 9.51776 6.20401 13.0944ZM17.9057 6.36177C17.9056 6.66109 17.9943 6.95372 18.1605 7.20266C18.3268 7.4516 18.5633 7.64566 18.8399 7.76032C19.1166 7.87497 19.421 7.90506 19.7148 7.84679C20.0086 7.78851 20.2784 7.64448 20.4903 7.43292C20.7022 7.22135 20.8465 6.95176 20.905 6.65821C20.9636 6.36467 20.9337 6.06037 20.8192 5.78379C20.7047 5.50721 20.5107 5.27078 20.2618 5.10438C20.0128 4.93799 19.7201 4.84912 19.4206 4.849H19.42C19.0185 4.84919 18.6336 5.00861 18.3496 5.29225C18.0657 5.57589 17.906 5.96056 17.9057 6.36177ZM7.58564 23.3598C6.35533 23.3038 5.68663 23.099 5.24223 22.926C4.65308 22.6967 4.23271 22.4237 3.79074 21.9826C3.34877 21.5415 3.07519 21.1218 2.84684 20.533C2.67361 20.0891 2.46867 19.4206 2.41274 18.191C2.35157 16.8617 2.33935 16.4623 2.33935 13.0945C2.33935 9.72661 2.35258 9.32839 2.41274 7.99793C2.46877 6.76836 2.67522 6.10117 2.84684 5.65593C3.0762 5.06713 3.34938 4.64701 3.79074 4.20531C4.23211 3.76361 4.65207 3.49019 5.24223 3.26197C5.68642 3.08884 6.35533 2.88403 7.58564 2.82814C8.91578 2.767 9.31535 2.75479 12.6837 2.75479C16.0521 2.75479 16.4521 2.76801 17.7833 2.82814C19.0136 2.88413 19.6812 3.09046 20.1267 3.26197C20.7159 3.49019 21.1363 3.76421 21.5782 4.20531C22.0202 4.64641 22.2928 5.06713 22.5221 5.65593C22.6954 6.09985 22.9003 6.76836 22.9562 7.99793C23.0174 9.32839 23.0296 9.72661 23.0296 13.0945C23.0296 16.4623 23.0174 16.8606 22.9562 18.191C22.9002 19.4206 22.6943 20.0889 22.5221 20.533C22.2928 21.1218 22.0196 21.5419 21.5782 21.9826C21.1369 22.4233 20.7159 22.6967 20.1267 22.926C19.6825 23.0991 19.0136 23.3039 17.7833 23.3598C16.4532 23.4209 16.0536 23.4331 12.6837 23.4331C9.31384 23.4331 8.91538 23.4209 7.58564 23.3598ZM7.48115 0.559285C6.13778 0.620426 5.21982 0.833307 4.41816 1.14506C3.58793 1.46701 2.8851 1.89893 2.18278 2.59972C1.48045 3.30051 1.04939 4.00403 0.727247 4.83376C0.415304 5.63545 0.202295 6.55235 0.141118 7.89492C0.0789315 9.2396 0.0646973 9.6695 0.0646973 13.0944C0.0646973 16.5192 0.0789315 16.9491 0.141118 18.2938C0.202295 19.6365 0.415304 20.5533 0.727247 21.355C1.04939 22.1842 1.48055 22.8885 2.18278 23.589C2.885 24.2895 3.58793 24.7208 4.41816 25.0437C5.22134 25.3554 6.13778 25.5683 7.48115 25.6295C8.82735 25.6906 9.2568 25.7058 12.6837 25.7058C16.1107 25.7058 16.5408 25.6916 17.8863 25.6295C19.2298 25.5683 20.1471 25.3554 20.9493 25.0437C21.779 24.7208 22.4824 24.2898 23.1847 23.589C23.887 22.8882 24.3172 22.1842 24.6402 21.355C24.9521 20.5533 25.1662 19.6364 25.2263 18.2938C25.2875 16.9481 25.3017 16.5192 25.3017 13.0944C25.3017 9.6695 25.2875 9.2396 25.2263 7.89492C25.1652 6.55225 24.9521 5.63494 24.6402 4.83376C24.3172 4.00453 23.8859 3.30162 23.1847 2.59972C22.4835 1.89782 21.779 1.46701 20.9503 1.14506C20.1471 0.833307 19.2297 0.619417 17.8873 0.559285C16.5418 0.498145 16.1117 0.48291 12.6847 0.48291C9.25781 0.48291 8.82735 0.497136 7.48115 0.559285Z" fill="#263238"/>
</svg>
