<svg width="240" height="36" viewBox="0 0 240 36" fill="none" xmlns="http://www.w3.org/2000/svg">
<path d="M15.1968 25.7119L6.67789 14.5218V25.7119H0.505276V0.371691H6.67789V11.4896L15.1246 0.371691H22.3802L12.5617 12.7891L22.7411 25.7119H15.1968ZM44.8422 15.3159C44.8422 15.8935 44.8061 16.4951 44.7339 17.1208H30.7643C30.8606 18.3722 31.2576 19.3347 31.9555 20.0086C32.6775 20.6583 33.5558 20.9832 34.5906 20.9832C36.1308 20.9832 37.2016 20.3334 37.8033 19.0339H44.3729C44.036 20.3575 43.4224 21.5487 42.532 22.6076C41.6657 23.6664 40.5707 24.4966 39.2471 25.0983C37.9236 25.6999 36.4436 26.0007 34.8072 26.0007C32.8339 26.0007 31.0771 25.5796 29.537 24.7373C27.9969 23.895 26.7936 22.6918 25.9273 21.1276C25.0609 19.5634 24.6278 17.7344 24.6278 15.6408C24.6278 13.5472 25.0489 11.7182 25.8912 10.154C26.7575 8.58982 27.9608 7.38658 29.5009 6.54431C31.041 5.70204 32.8098 5.28091 34.8072 5.28091C36.7564 5.28091 38.4891 5.69001 40.0052 6.50821C41.5213 7.32641 42.7004 8.49356 43.5427 10.0096C44.409 11.5257 44.8422 13.2945 44.8422 15.3159ZM38.5252 13.6916C38.5252 12.6327 38.1642 11.7904 37.4423 11.1647C36.7203 10.5391 35.8179 10.2262 34.735 10.2262C33.7002 10.2262 32.8218 10.527 32.0999 11.1287C31.402 11.7303 30.9689 12.5846 30.8004 13.6916H38.5252ZM68.8544 5.56968L56.2204 35.2777H49.5786L54.199 25.0261L46.0049 5.56968H52.8995L57.556 18.1676L62.1765 5.56968H68.8544ZM95.5934 0.371691V5.31701H85.2696V10.6594H92.9944V15.4603H85.2696V25.7119H79.097V0.371691H95.5934ZM118.005 15.3159C118.005 15.8935 117.969 16.4951 117.897 17.1208H103.927C104.024 18.3722 104.421 19.3347 105.119 20.0086C105.841 20.6583 106.719 20.9832 107.754 20.9832C109.294 20.9832 110.365 20.3334 110.966 19.0339H117.536C117.199 20.3575 116.585 21.5487 115.695 22.6076C114.829 23.6664 113.734 24.4966 112.41 25.0983C111.087 25.6999 109.607 26.0007 107.97 26.0007C105.997 26.0007 104.24 25.5796 102.7 24.7373C101.16 23.895 99.9567 22.6918 99.0903 21.1276C98.224 19.5634 97.7908 17.7344 97.7908 15.6408C97.7908 13.5472 98.212 11.7182 99.0543 10.154C99.9206 8.58982 101.124 7.38658 102.664 6.54431C104.204 5.70204 105.973 5.28091 107.97 5.28091C109.92 5.28091 111.652 5.69001 113.168 6.50821C114.684 7.32641 115.864 8.49356 116.706 10.0096C117.572 11.5257 118.005 13.2945 118.005 15.3159ZM111.688 13.6916C111.688 12.6327 111.327 11.7904 110.605 11.1647C109.883 10.5391 108.981 10.2262 107.898 10.2262C106.863 10.2262 105.985 10.527 105.263 11.1287C104.565 11.7303 104.132 12.5846 103.963 13.6916H111.688ZM120.215 15.6047C120.215 13.5351 120.6 11.7182 121.37 10.154C122.164 8.58982 123.235 7.38658 124.583 6.54431C125.93 5.70204 127.434 5.28091 129.095 5.28091C130.515 5.28091 131.754 5.56968 132.813 6.14724C133.896 6.72479 134.726 7.48284 135.303 8.42136V5.56968H141.476V25.7119H135.303V22.8602C134.702 23.7988 133.86 24.5568 132.777 25.1344C131.718 25.7119 130.478 26.0007 129.059 26.0007C127.422 26.0007 125.93 25.5796 124.583 24.7373C123.235 23.871 122.164 22.6557 121.37 21.0915C120.6 19.5032 120.215 17.6743 120.215 15.6047ZM135.303 15.6408C135.303 14.1007 134.87 12.8854 134.004 11.995C133.162 11.1046 132.127 10.6594 130.9 10.6594C129.672 10.6594 128.625 11.1046 127.759 11.995C126.917 12.8613 126.496 14.0646 126.496 15.6047C126.496 17.1448 126.917 18.3722 127.759 19.2866C128.625 20.177 129.672 20.6222 130.9 20.6222C132.127 20.6222 133.162 20.177 134.004 19.2866C134.87 18.3962 135.303 17.1809 135.303 15.6408ZM157.348 20.4778V25.7119H154.208C151.97 25.7119 150.225 25.1705 148.974 24.0875C147.722 22.9806 147.097 21.1877 147.097 18.7091V10.6955H144.642V5.56968H147.097V0.660469H153.269V5.56968H157.312V10.6955H153.269V18.7813C153.269 19.3829 153.414 19.816 153.703 20.0808C153.991 20.3455 154.473 20.4778 155.146 20.4778H157.348ZM180.857 5.56968V25.7119H174.684V22.9685C174.058 23.8589 173.204 24.5809 172.121 25.1344C171.062 25.6638 169.883 25.9285 168.584 25.9285C167.043 25.9285 165.684 25.5916 164.505 24.9178C163.325 24.2199 162.411 23.2212 161.761 21.9217C161.112 20.6222 160.787 19.0941 160.787 17.3374V5.56968H166.923V16.5071C166.923 17.8548 167.272 18.9016 167.97 19.6476C168.668 20.3936 169.606 20.7666 170.786 20.7666C171.989 20.7666 172.939 20.3936 173.637 19.6476C174.335 18.9016 174.684 17.8548 174.684 16.5071V5.56968H180.857ZM191.644 8.92672C192.365 7.81974 193.268 6.95341 194.351 6.32773C195.434 5.67798 196.637 5.3531 197.961 5.3531V11.8867H196.264C194.724 11.8867 193.569 12.2236 192.799 12.8974C192.029 13.5472 191.644 14.7023 191.644 16.3627V25.7119H185.471V5.56968H191.644V8.92672ZM220.079 15.3159C220.079 15.8935 220.042 16.4951 219.97 17.1208H206.001C206.097 18.3722 206.494 19.3347 207.192 20.0086C207.914 20.6583 208.792 20.9832 209.827 20.9832C211.367 20.9832 212.438 20.3334 213.04 19.0339H219.609C219.272 20.3575 218.659 21.5487 217.768 22.6076C216.902 23.6664 215.807 24.4966 214.483 25.0983C213.16 25.6999 211.68 26.0007 210.043 26.0007C208.07 26.0007 206.313 25.5796 204.773 24.7373C203.233 23.895 202.03 22.6918 201.164 21.1276C200.297 19.5634 199.864 17.7344 199.864 15.6408C199.864 13.5472 200.285 11.7182 201.127 10.154C201.994 8.58982 203.197 7.38658 204.737 6.54431C206.277 5.70204 208.046 5.28091 210.043 5.28091C211.993 5.28091 213.725 5.69001 215.241 6.50821C216.758 7.32641 217.937 8.49356 218.779 10.0096C219.645 11.5257 220.079 13.2945 220.079 15.3159ZM213.762 13.6916C213.762 12.6327 213.401 11.7904 212.679 11.1647C211.957 10.5391 211.054 10.2262 209.971 10.2262C208.937 10.2262 208.058 10.527 207.336 11.1287C206.638 11.7303 206.205 12.5846 206.037 13.6916H213.762ZM231.709 26.0007C229.953 26.0007 228.388 25.6999 227.017 25.0983C225.645 24.4966 224.562 23.6784 223.768 22.6437C222.974 21.5848 222.529 20.4056 222.432 19.1061H228.533C228.605 19.804 228.93 20.3695 229.507 20.8027C230.085 21.2359 230.795 21.4524 231.637 21.4524C232.407 21.4524 232.997 21.3081 233.406 21.0193C233.839 20.7064 234.056 20.3094 234.056 19.8281C234.056 19.2505 233.755 18.8294 233.153 18.5647C232.552 18.2759 231.577 17.9631 230.229 17.6261C228.786 17.2892 227.582 16.9403 226.62 16.5793C225.657 16.1943 224.827 15.6047 224.129 14.8106C223.431 13.9924 223.082 12.8974 223.082 11.5257C223.082 10.3706 223.395 9.32379 224.021 8.38527C224.67 7.42267 225.609 6.66463 226.836 6.11114C228.088 5.55765 229.568 5.28091 231.276 5.28091C233.803 5.28091 235.788 5.90659 237.232 7.15796C238.7 8.40933 239.543 10.0698 239.759 12.1394H234.056C233.959 11.4415 233.647 10.888 233.117 10.4789C232.612 10.0698 231.938 9.86525 231.096 9.86525C230.374 9.86525 229.82 10.0096 229.435 10.2984C229.05 10.5631 228.858 10.9361 228.858 11.4174C228.858 11.995 229.159 12.4282 229.76 12.7169C230.386 13.0057 231.348 13.2945 232.648 13.5833C234.14 13.9683 235.355 14.3533 236.294 14.7384C237.232 15.0993 238.05 15.701 238.748 16.5432C239.47 17.3614 239.843 18.4684 239.867 19.8642C239.867 21.0433 239.53 22.1022 238.857 23.0407C238.207 23.9552 237.256 24.6771 236.005 25.2066C234.778 25.736 233.346 26.0007 231.709 26.0007Z" fill="url(#paint0_linear_911_1777)"/>
<defs>
<linearGradient id="paint0_linear_911_1777" x1="-1.73275" y1="13.7336" x2="239.653" y2="13.7336" gradientUnits="userSpaceOnUse">
<stop stop-color="#A63F9F"/>
<stop offset="0.244792" stop-color="#8F3CA6"/>
<stop offset="0.520833" stop-color="#6D33A6"/>
<stop offset="0.765625" stop-color="#4429A6"/>
<stop offset="1" stop-color="#2621A6"/>
</linearGradient>
</defs>
</svg>
