<svg width="588" height="652" viewBox="0 0 588 652" fill="none" xmlns="http://www.w3.org/2000/svg">
<path d="M582 617.041C582 636.293 451.713 651.882 291.007 651.882C130.302 651.882 0 636.293 0 617.041C0 597.789 130.287 582.199 290.993 582.199C451.698 582.199 582 597.789 582 617.041Z" fill="black" fill-opacity="0.3"/>
<path d="M581.772 593.976C581.772 612.481 451.536 627.465 290.894 627.465C130.251 627.465 0 612.481 0 593.976C0 575.472 130.236 560.488 290.879 560.488C451.522 560.488 581.772 575.472 581.772 593.976Z" fill="#EBEBEB"/>
<path d="M523.173 210.551L530.026 214.377L526.945 219.697L520.033 215.481L520.157 223.331H514.249L514.311 215.415L507.396 219.697L504.379 214.377L511.23 210.551L504.379 206.659L507.396 201.341L514.311 205.62L514.249 197.707H520.157L520.033 205.62L526.945 201.341L530.026 206.659L523.173 210.551Z" fill="#D9D9D1"/>
<path d="M551.71 210.551L558.563 214.377L555.482 219.697L548.568 215.481L548.693 223.331H542.784L542.847 215.415L535.932 219.697L532.913 214.377L539.766 210.551L532.913 206.66L535.932 201.341L542.847 205.62L542.784 197.707H548.693L548.568 205.62L555.482 201.341L558.563 206.66L551.71 210.551Z" fill="#D9D9D1"/>
<path d="M580.249 210.551L587.1 214.377L584.019 219.697L577.107 215.481L577.232 223.331H571.323L571.385 215.415L564.47 219.697L561.453 214.377L568.304 210.551L561.453 206.66L564.47 201.341L571.385 205.62L571.323 197.707H577.232L577.107 205.62L584.019 201.341L587.1 206.66L580.249 210.551Z" fill="#D9D9D1"/>
<path d="M289.916 545.496V588.962H419.46V545.496H289.916Z" fill="#F2F1EE"/>
<path d="M284.481 533.344V545.496H423.99V533.344H284.481Z" fill="#E7E6E0"/>
<path d="M354.236 588.963H419.459L419.46 545.496L423.99 545.496L423.989 533.343H351.518V544.371L354.236 588.963Z" fill="#E7E6E0"/>
<path d="M308.032 552.505V559.049H334.303V552.505H308.032Z" fill="#D9D9D1"/>
<path d="M338.387 581.045H304.652V567.229H338.387V581.045Z" fill="#FEFEFE"/>
<path d="M309.846 489.933V533.4H439.39V489.933H309.846Z" fill="#F2F1EE"/>
<path d="M304.413 477.783V489.934H443.924V477.783H304.413Z" fill="#E7E6E0"/>
<path d="M374.164 533.402H439.387V489.935H443.919V477.783H371.445V488.812L374.164 533.402Z" fill="#E7E6E0"/>
<path d="M327.963 496.944V503.487H354.236V496.944H327.963Z" fill="#D9D9D1"/>
<path d="M358.321 525.483H324.586V511.669H358.321V525.483Z" fill="#FEFEFE"/>
<path d="M468.884 248.701H226.634C221.722 248.701 217.738 244.591 217.738 239.521V9.54489C217.738 4.47514 221.722 0.365318 226.634 0.365318H468.884C473.799 0.365318 477.781 4.47514 477.781 9.54489V239.521C477.781 244.591 473.799 248.701 468.884 248.701Z" fill="#FEFEFE"/>
<path d="M468.886 248.701C468.886 248.701 469.101 248.677 469.524 248.649C469.949 248.62 470.582 248.529 471.386 248.289C472.182 248.03 473.159 247.609 474.153 246.838C475.137 246.074 476.158 244.965 476.846 243.432C477.615 241.92 477.771 240.008 477.695 237.919C477.689 235.827 477.684 233.54 477.677 231.062C477.668 226.106 477.658 220.388 477.646 213.953C477.619 188.198 477.581 150.945 477.534 104.916C477.52 81.8969 477.505 56.6867 477.489 29.6209C477.478 22.8608 477.466 15.9845 477.453 8.99766C477.296 5.6085 475.03 2.41804 471.887 1.24821C470.33 0.579323 468.627 0.687076 466.881 0.682869C465.148 0.684279 463.408 0.684279 461.662 0.685677C447.688 0.691271 433.308 0.695467 418.562 0.701061C359.576 0.709463 294.727 0.719253 226.659 0.729054C224.61 0.730452 222.586 1.50568 221.046 2.88821C219.495 4.25535 218.458 6.21721 218.189 8.2952C218.048 9.31672 218.104 10.4194 218.093 11.5095V14.7755C218.091 16.9514 218.091 19.1218 218.091 21.2907C218.091 29.9638 218.091 38.5808 218.09 47.1335C218.089 64.2402 218.087 81.0951 218.085 97.6575C218.078 130.781 218.071 162.733 218.064 193.17C218.059 208.389 218.055 223.229 218.049 237.647C218.056 238.543 218.026 239.465 218.087 240.317C218.181 241.177 218.35 242.032 218.673 242.831C219.298 244.434 220.387 245.827 221.75 246.807C223.119 247.783 224.751 248.337 226.404 248.375C228.109 248.379 229.807 248.384 231.498 248.39C238.276 248.393 244.947 248.396 251.505 248.4C277.736 248.415 302.17 248.431 324.477 248.443C369.087 248.492 405.185 248.531 430.141 248.559C442.611 248.589 452.292 248.613 458.869 248.628C462.147 248.643 464.649 248.656 466.34 248.664C468.023 248.676 468.886 248.701 468.886 248.701C468.886 248.701 468.023 248.726 466.34 248.739C464.649 248.747 462.147 248.758 458.869 248.775C452.292 248.79 442.611 248.814 430.141 248.843C405.185 248.87 369.087 248.909 324.477 248.96C302.17 248.972 277.736 248.988 251.505 249.003C244.947 249.007 238.276 249.01 231.498 249.013C229.801 249.01 228.098 249.006 226.387 249.003C224.621 248.964 222.868 248.37 221.402 247.328C219.94 246.279 218.772 244.788 218.101 243.068C217.754 242.212 217.569 241.296 217.472 240.373C217.404 239.432 217.438 238.554 217.428 237.647C217.424 223.229 217.419 208.389 217.413 193.17C217.407 162.733 217.4 130.781 217.393 97.6575C217.392 81.0951 217.39 64.2402 217.388 47.1335C217.388 38.5808 217.388 29.9638 217.386 21.2907C217.386 19.1218 217.386 16.9514 217.386 14.7755V11.5095C217.4 10.425 217.337 9.33491 217.489 8.19306C217.782 5.94294 218.905 3.81737 220.584 2.33828C222.247 0.841002 224.448 0 226.659 0C294.727 0.00980057 359.576 0.020989 418.562 0.029391C433.308 0.0349853 447.688 0.0391809 461.662 0.0447858C463.408 0.0447858 465.148 0.0461844 466.881 0.0461844C468.578 0.0517786 470.427 -0.0615686 472.101 0.656286C475.468 1.91288 477.89 5.33004 478.056 8.95988C478.062 15.9593 478.069 22.8482 478.075 29.6209C478.06 56.6867 478.046 81.8969 478.033 104.916C477.985 150.945 477.946 188.198 477.92 213.953C477.908 220.388 477.897 226.106 477.887 231.062C477.882 233.54 477.877 235.827 477.871 237.919C477.939 239.991 477.767 241.976 476.975 243.497C476.266 245.047 475.22 246.164 474.216 246.928C473.205 247.697 472.213 248.112 471.407 248.359C470.593 248.59 469.953 248.669 469.527 248.687C469.101 248.702 468.886 248.701 468.886 248.701Z" fill="#0D151D"/>
<path d="M237.363 17.5752C237.363 20.1374 235.348 22.214 232.865 22.214C230.383 22.214 228.371 20.1374 228.371 17.5752C228.371 15.013 230.383 12.9364 232.865 12.9364C235.348 12.9364 237.363 15.013 237.363 17.5752Z" fill="#0D151D"/>
<path d="M250.496 17.5752C250.496 20.1374 248.483 22.214 246 22.214C243.517 22.214 241.505 20.1374 241.505 17.5752C241.505 15.013 243.517 12.9364 246 12.9364C248.483 12.9364 250.496 15.013 250.496 17.5752Z" fill="#0D151D"/>
<path d="M263.623 17.5752C263.623 20.1374 261.612 22.214 259.128 22.214C256.646 22.214 254.635 20.1374 254.635 17.5752C254.635 15.0131 256.646 12.9365 259.128 12.9365C261.612 12.9365 263.623 15.0131 263.623 17.5752Z" fill="#0D151D"/>
<path d="M477.781 30.7348C477.781 30.9363 419.564 31.0987 347.766 31.0987C275.943 31.0987 217.738 30.9363 217.738 30.7348C217.738 30.5333 275.943 30.371 347.766 30.371C419.564 30.371 477.781 30.5333 477.781 30.7348Z" fill="#0D151D"/>
<path d="M385.506 123.006C385.506 123.006 385.604 122.852 385.804 122.562L385.971 122.32L386.138 122.001C386.256 121.767 386.405 121.503 386.507 121.172C386.563 121.009 386.63 120.838 386.687 120.655C386.731 120.467 386.776 120.269 386.825 120.062C386.882 119.856 386.91 119.634 386.935 119.402C386.956 119.171 387.01 118.932 387.01 118.679C387.081 117.668 386.978 116.497 386.742 115.209C386.268 112.624 385.098 109.602 383.351 106.336C381.606 103.062 379.237 99.56 376.348 95.9236C373.458 92.286 370.002 88.5474 366.05 84.8103C362.093 81.0776 357.63 77.3452 352.648 73.8362C350.156 72.0845 347.533 70.395 344.773 68.8125C342.017 67.2258 339.117 65.7604 336.068 64.5089C333.019 63.2741 329.812 62.2172 326.45 61.7856C324.774 61.5814 323.052 61.5174 321.369 61.8436C320.53 62.0073 319.71 62.2766 318.942 62.6657C318.185 63.0795 317.496 63.6194 316.933 64.2905C316.394 64.9816 316.002 65.7778 315.743 66.618C315.511 67.4671 315.403 68.3466 315.399 69.2264C315.392 70.9888 315.769 72.7217 316.267 74.3803C317.292 77.7047 318.884 80.7607 320.62 83.6213C322.371 86.4799 324.301 89.1488 326.318 91.6507C328.334 94.1556 330.426 96.5038 332.554 98.7066C336.814 103.109 341.191 106.948 345.478 110.273C349.768 113.594 353.971 116.408 357.971 118.671C361.971 120.932 365.748 122.693 369.193 123.861C372.632 125.034 375.732 125.667 378.285 125.676C379.56 125.681 380.697 125.572 381.647 125.315C381.889 125.27 382.109 125.172 382.327 125.108C382.543 125.039 382.749 124.973 382.936 124.876C383.124 124.79 383.305 124.706 383.476 124.627C383.642 124.537 383.791 124.438 383.937 124.351C384.235 124.188 384.461 123.989 384.662 123.827L384.937 123.601L385.138 123.387C385.379 123.132 385.506 123.006 385.506 123.006C385.506 123.006 385.389 123.141 385.153 123.402L384.953 123.62L384.68 123.851C384.481 124.017 384.256 124.219 383.957 124.387C383.812 124.476 383.664 124.578 383.498 124.671C383.325 124.75 383.145 124.835 382.955 124.924C382.768 125.022 382.561 125.091 382.343 125.162C382.124 125.228 381.905 125.327 381.663 125.375C380.707 125.639 379.565 125.755 378.284 125.756C375.718 125.76 372.607 125.136 369.158 123.97C365.702 122.809 361.913 121.056 357.903 118.799C353.891 116.541 349.678 113.728 345.377 110.41C341.082 107.087 336.692 103.247 332.422 98.8401C330.29 96.6346 328.193 94.2852 326.171 91.7764C324.148 89.2705 322.212 86.5963 320.453 83.7295C318.711 80.8594 317.11 77.7911 316.076 74.4404C315.574 72.7681 315.192 71.0199 315.199 69.2253C315.202 68.3302 315.313 67.431 315.551 66.558C315.817 65.6951 316.221 64.8747 316.779 64.1591C317.361 63.465 318.074 62.9074 318.85 62.4816C319.64 62.0806 320.479 61.8078 321.333 61.6408C323.046 61.3093 324.785 61.3768 326.474 61.5819C329.861 62.0182 333.082 63.0802 336.142 64.3201C339.199 65.577 342.105 67.0491 344.866 68.6399C347.63 70.2277 350.258 71.9241 352.753 73.6799C357.74 77.1985 362.205 80.9406 366.162 84.6831C370.116 88.4313 373.568 92.1812 376.458 95.8301C379.345 99.4777 381.71 102.995 383.448 106.28C385.19 109.56 386.352 112.594 386.819 115.194C387.051 116.489 387.148 117.667 387.068 118.683C387.068 118.937 387.012 119.178 386.99 119.41C386.962 119.643 386.933 119.867 386.874 120.073C386.824 120.28 386.776 120.479 386.731 120.668C386.672 120.854 386.602 121.023 386.544 121.186C386.439 121.518 386.286 121.783 386.165 122.015L385.992 122.333L385.819 122.576C385.615 122.862 385.506 123.006 385.506 123.006Z" fill="#4A6CD1"/>
<path d="M396.617 88.7932C396.617 88.7932 396.582 88.6154 396.519 88.2687L396.467 87.9767C396.442 87.8705 396.4 87.7577 396.363 87.6331C396.284 87.3846 396.208 87.0925 396.049 86.7884C395.977 86.6342 395.907 86.4671 395.818 86.2979C395.719 86.1354 395.613 85.9667 395.504 85.7871C395.401 85.6026 395.267 85.43 395.127 85.2496C394.981 85.0726 394.852 84.8686 394.675 84.6936C394.029 83.9408 393.144 83.2041 392.084 82.4863C389.961 81.0443 387.047 79.8095 383.559 78.8285C380.066 77.841 375.976 77.1516 371.429 76.7521C366.88 76.3528 361.863 76.2976 356.498 76.6085C351.136 76.9261 345.416 77.6136 339.487 78.8381C336.524 79.4529 333.51 80.2059 330.476 81.1344C327.442 82.0573 324.388 83.1696 321.38 84.5396C318.385 85.9193 315.401 87.5423 312.741 89.7087C311.424 90.7959 310.169 92.0149 309.214 93.4752C308.739 94.2043 308.346 94.9916 308.078 95.8254C307.833 96.6665 307.724 97.546 307.793 98.4243C307.893 99.2978 308.166 100.137 308.567 100.91C308.992 101.668 309.524 102.355 310.132 102.967C311.346 104.193 312.813 105.118 314.311 105.902C317.335 107.453 320.569 108.4 323.77 109.109C326.98 109.804 330.183 110.238 333.332 110.49C336.483 110.748 339.579 110.839 342.598 110.805C348.641 110.731 354.372 110.176 359.685 109.336C364.998 108.489 369.9 107.356 374.278 105.988C378.652 104.621 382.523 103.07 385.751 101.352C388.978 99.6422 391.594 97.8075 393.395 95.9397C394.294 95.0095 395.018 94.0998 395.506 93.2239C395.646 93.0145 395.732 92.7872 395.84 92.5826C395.944 92.3757 396.041 92.178 396.106 91.9754C396.178 91.7762 396.251 91.5866 396.315 91.4064C396.37 91.2217 396.406 91.0431 396.447 90.8766C396.544 90.5447 396.562 90.2423 396.592 89.9821C396.604 89.8522 396.623 89.7327 396.628 89.6233L396.622 89.3277C396.616 88.9748 396.617 88.7932 396.617 88.7932C396.617 88.7932 396.63 88.9734 396.643 89.3269L396.654 89.6247C396.651 89.7353 396.633 89.8547 396.622 89.9858C396.596 90.2471 396.58 90.5506 396.486 90.8849C396.446 91.0527 396.409 91.2342 396.358 91.42C396.294 91.6016 396.223 91.7936 396.153 91.9941C396.09 92.1979 395.992 92.3986 395.888 92.6068C395.781 92.8126 395.695 93.0426 395.558 93.2532C395.069 94.1375 394.348 95.0568 393.449 95.9955C391.649 97.8798 389.034 99.7297 385.804 101.453C382.572 103.184 378.696 104.748 374.316 106.127C369.935 107.506 365.031 108.649 359.711 109.504C354.392 110.353 348.652 110.914 342.599 110.994C339.576 111.031 336.473 110.942 333.316 110.686C330.159 110.435 326.948 110.003 323.728 109.306C320.517 108.596 317.268 107.646 314.221 106.083C312.709 105.293 311.23 104.361 309.991 103.114C309.373 102.49 308.83 101.788 308.393 101.01C307.981 100.216 307.695 99.3487 307.592 98.4447C307.518 97.5376 307.635 96.6294 307.886 95.7652C308.162 94.9082 308.564 94.1045 309.047 93.3619C310.022 91.8772 311.289 90.6472 312.618 89.5502C315.3 87.3675 318.295 85.7404 321.301 84.3554C324.32 82.9828 327.382 81.871 330.423 80.9474C333.464 80.0195 336.484 79.2672 339.451 78.6533C345.392 77.4333 351.117 76.7493 356.49 76.4389C361.862 76.1356 366.886 76.1983 371.441 76.6082C375.995 77.0181 380.091 77.7168 383.588 78.7178C387.084 79.7105 390.001 80.9603 392.127 82.4202C393.187 83.1477 394.073 83.8913 394.72 84.6524C394.896 84.8289 395.023 85.0359 395.168 85.2143C395.31 85.396 395.445 85.5714 395.546 85.7588C395.654 85.9399 395.758 86.113 395.857 86.2769C395.943 86.4478 396.013 86.6163 396.085 86.7719C396.242 87.079 396.316 87.3742 396.392 87.6244C396.428 87.7491 396.469 87.8648 396.493 87.9711L396.539 88.2651C396.595 88.6139 396.617 88.7932 396.617 88.7932Z" fill="#4A6CD1"/>
<path d="M384.049 58.8009C384.049 58.8009 383.908 58.6883 383.641 58.4633L383.415 58.2738L383.118 58.0806C382.899 57.9424 382.652 57.7688 382.338 57.641C382.183 57.5718 382.023 57.4893 381.849 57.4178C381.668 57.3598 381.48 57.298 381.281 57.2337C381.086 57.1599 380.873 57.115 380.65 57.0718C380.427 57.0328 380.197 56.9608 379.952 56.9431C378.977 56.7948 377.832 56.8156 376.565 56.9644C374.022 57.2623 371.007 58.2416 367.715 59.7949C364.416 61.3446 360.85 63.5185 357.119 66.2172C353.387 68.9158 349.518 72.187 345.616 75.9684C341.719 79.7546 337.787 84.0618 334.035 88.9155C332.164 91.3435 330.341 93.9103 328.613 96.6254C326.883 99.3373 325.258 102.206 323.833 105.241C322.423 108.278 321.177 111.492 320.524 114.909C320.211 116.612 320.029 118.374 320.23 120.125C320.333 120.997 320.534 121.858 320.859 122.675C321.21 123.479 321.686 124.226 322.3 124.853C322.933 125.456 323.679 125.917 324.477 126.245C325.286 126.545 326.132 126.721 326.986 126.788C328.696 126.923 330.406 126.664 332.051 126.274C335.35 125.466 338.428 124.054 341.326 122.485C344.223 120.896 346.948 119.112 349.515 117.225C352.088 115.343 354.511 113.365 356.798 111.344C361.368 107.297 365.396 103.084 368.921 98.9309C372.441 94.7728 375.467 90.6688 377.939 86.7303C380.411 82.7918 382.382 79.0455 383.754 75.5974C385.13 72.1566 385.959 69.0238 386.144 66.403C386.238 65.0968 386.209 63.923 386.025 62.9283C385.998 62.6769 385.919 62.4462 385.872 62.2178C385.819 61.9901 385.77 61.7726 385.69 61.5756C385.618 61.3753 385.551 61.1825 385.486 61.0011C385.409 60.8255 385.324 60.6644 385.248 60.5099C385.11 60.1927 384.933 59.9456 384.788 59.7286L384.589 59.4299L384.394 59.2073C384.165 58.9416 384.049 58.8009 384.049 58.8009C384.049 58.8009 384.174 58.9314 384.409 59.1935L384.607 59.4136L384.814 59.7105C384.961 59.9276 385.143 60.1726 385.284 60.4901C385.36 60.6446 385.448 60.806 385.526 60.9832C385.593 61.1661 385.662 61.3578 385.737 61.5584C385.818 61.757 385.87 61.9747 385.924 62.2025C385.972 62.4311 386.056 62.665 386.084 62.918C386.275 63.9178 386.309 65.0978 386.223 66.4104C386.047 69.0435 385.228 72.1886 383.858 75.6413C382.492 79.1014 380.528 82.8609 378.058 86.8096C375.589 90.7596 372.568 94.8754 369.049 99.0449C365.524 103.208 361.493 107.43 356.92 111.488C354.63 113.513 352.204 115.497 349.627 117.386C347.056 119.278 344.324 121.068 341.42 122.662C338.512 124.239 335.424 125.658 332.098 126.473C330.438 126.868 328.713 127.132 326.972 126.993C326.102 126.924 325.236 126.745 324.407 126.437C323.587 126.102 322.816 125.626 322.162 125.002C321.527 124.354 321.035 123.583 320.674 122.756C320.341 121.915 320.135 121.035 320.031 120.147C319.827 118.367 320.013 116.586 320.327 114.869C320.986 111.425 322.241 108.198 323.655 105.152C325.086 102.106 326.717 99.2331 328.453 96.5162C330.184 93.7973 332.013 91.2256 333.89 88.7953C337.653 83.9373 341.593 79.6297 345.501 75.8433C349.414 72.0617 353.294 68.7945 357.037 66.0985C360.778 63.4038 364.354 61.2338 367.665 59.6897C370.971 58.1436 374 57.1714 376.556 56.8847C377.829 56.7408 378.98 56.7264 379.959 56.8822C380.207 56.9016 380.437 56.9764 380.661 57.0169C380.885 57.063 381.098 57.1079 381.295 57.1832C381.494 57.2505 381.682 57.3136 381.864 57.3746C382.038 57.4489 382.2 57.5315 382.354 57.6035C382.668 57.7355 382.917 57.9121 383.133 58.0542L383.43 58.2531L383.654 58.448C383.919 58.6797 384.049 58.8009 384.049 58.8009Z" fill="#4A6CD1"/>
<path d="M307.022 107.722C307.67 108.389 307.67 109.474 307.022 110.141C306.375 110.81 305.325 110.81 304.678 110.141C304.03 109.474 304.03 108.389 304.678 107.722C305.325 107.053 306.375 107.053 307.022 107.722Z" fill="#4A6CD1"/>
<path d="M400.578 52.6067C400.578 53.5512 399.836 54.3181 398.919 54.3181C398.004 54.3181 397.26 53.5512 397.26 52.6067C397.26 51.6621 398.004 50.8953 398.919 50.8953C399.836 50.8953 400.578 51.6621 400.578 52.6067Z" fill="#4A6CD1"/>
<path d="M317.497 118.264C317.497 118.503 317.307 118.698 317.075 118.698C316.843 118.698 316.653 118.503 316.653 118.264C316.653 118.023 316.843 117.828 317.075 117.828C317.307 117.828 317.497 118.023 317.497 118.264Z" fill="#4A6CD1"/>
<path d="M326.487 70.3174C326.487 70.5567 326.298 70.7526 326.065 70.7526C325.832 70.7526 325.643 70.5567 325.643 70.3174C325.643 70.0767 325.832 69.8822 326.065 69.8822C326.298 69.8822 326.487 70.0767 326.487 70.3174Z" fill="#4A6CD1"/>
<path d="M392.248 93.6215C392.248 93.8608 392.058 94.0567 391.826 94.0567C391.594 94.0567 391.404 93.8608 391.404 93.6215C391.404 93.3808 391.594 93.1863 391.826 93.1863C392.058 93.1863 392.248 93.3808 392.248 93.6215Z" fill="#4A6CD1"/>
<path d="M398.104 73.3513C398.104 73.5919 397.916 73.7865 397.684 73.7865C397.45 73.7865 397.26 73.5919 397.26 73.3513C397.26 73.112 397.45 72.9161 397.684 72.9161C397.916 72.9161 398.104 73.112 398.104 73.3513Z" fill="#4A6CD1"/>
<path d="M367.814 78.6622L362.882 80.5351L357.589 65.3611C356.028 60.8851 352.182 57.934 347.86 57.3599C347.811 57.3533 347.764 57.3475 347.716 57.3422C345.869 57.1201 343.939 57.332 342.068 58.0428C338.27 59.485 335.559 62.6565 334.488 66.3547C334.47 66.4193 334.451 66.4839 334.433 66.5486C333.777 68.9496 333.811 71.5623 334.683 74.061L341.306 93.0762L335.047 91.107L329.754 75.9329C326.544 66.73 331.282 56.4516 340.316 53.0206C349.348 49.59 359.311 54.2852 362.521 63.4882L367.814 78.6622Z" fill="#4A6CD1"/>
<path d="M372.668 121.066H332.098C330.411 121.066 329.044 119.654 329.044 117.914V93.3157C329.044 91.575 330.411 90.1631 332.098 90.1631H372.668C374.355 90.1631 375.722 91.575 375.722 93.3157V117.914C375.722 119.654 374.355 121.066 372.668 121.066Z" fill="#4A6CD1"/>
<path d="M353.451 111.463H351.322V105.443C349.688 104.963 348.485 103.428 348.485 101.588C348.485 99.3647 350.233 97.5624 352.388 97.5624C354.542 97.5624 356.288 99.3647 356.288 101.588C356.288 103.428 355.085 104.963 353.451 105.443V111.463Z" fill="white"/>
<path d="M331.537 118.134C331.429 118.134 331.343 112.98 331.343 106.624C331.343 100.267 331.429 95.115 331.537 95.115C331.644 95.115 331.73 100.267 331.73 106.624C331.73 112.98 331.644 118.134 331.537 118.134Z" fill="#FAF9F7"/>
<path d="M349.328 106.749C349.316 106.769 349.146 106.687 348.872 106.482C348.597 106.279 348.231 105.93 347.867 105.424C347.138 104.439 346.472 102.65 346.904 100.719C347.357 98.7924 348.73 97.5008 349.809 96.9579C350.354 96.6738 350.832 96.5325 351.165 96.4779C351.5 96.4219 351.69 96.4261 351.693 96.4499C351.709 96.5255 350.952 96.5983 349.941 97.2056C348.944 97.7863 347.698 99.0303 347.281 100.81C346.881 102.593 347.454 104.283 348.092 105.263C348.732 106.273 349.375 106.689 349.328 106.749Z" fill="#FAF9F7"/>
<path d="M421.686 175.228H277.965C270.988 175.228 265.33 169.39 265.33 162.189V160.584C265.33 153.383 270.988 147.546 277.965 147.546H421.686C428.665 147.546 434.321 153.383 434.321 160.584V162.189C434.321 169.39 428.665 175.228 421.686 175.228Z" fill="#F2F1EE"/>
<path d="M422.929 213.183H279.209C272.23 213.183 266.574 207.346 266.574 200.145V198.54C266.574 191.34 272.23 185.502 279.209 185.502H422.929C429.908 185.502 435.562 191.34 435.562 198.54V200.145C435.562 207.346 429.908 213.183 422.929 213.183Z" fill="#F2F1EE"/>
<path d="M55.146 588.458H43.0047L38.5037 532.061H52.7999L55.146 588.458Z" fill="#0D151D"/>
<path d="M160.366 588.458H172.506L177.008 532.061H162.71L160.366 588.458Z" fill="#0D151D"/>
<path d="M185.353 539.202L29.0783 542.987L24.3224 438.833C23.8573 428.636 31.7444 420.104 41.6386 420.104H174.784C184.831 420.104 192.775 428.889 192.079 439.23L185.353 539.202Z" fill="#4DA9ED"/>
<path d="M193.367 438.477C193.367 438.49 193.219 438.502 192.932 438.515C192.605 438.525 192.182 438.539 191.65 438.556C190.477 438.572 188.827 438.599 186.725 438.631C182.399 438.647 176.222 438.67 168.608 438.698C153.313 438.725 132.18 438.547 108.855 439.106C85.5179 439.906 64.3666 439.769 49.0737 439.53C41.4253 439.405 35.2373 439.251 30.9628 439.118C28.8622 439.044 27.2132 438.985 26.0401 438.945C25.5086 438.918 25.0868 438.897 24.76 438.88C24.4725 438.862 24.3247 438.847 24.3247 438.833C24.3247 438.82 24.4725 438.812 24.7613 438.805C25.0882 438.805 25.5113 438.802 26.0429 438.799C27.2159 438.806 28.8663 438.819 30.9683 438.835C35.2929 438.877 41.4687 438.939 49.0805 439.015C64.3747 439.122 85.503 439.177 108.838 438.378C132.18 437.818 153.315 438.078 168.61 438.183C176.223 438.252 182.399 438.308 186.725 438.347C188.827 438.374 190.477 438.395 191.65 438.407C192.182 438.421 192.603 438.432 192.932 438.441C193.219 438.453 193.367 438.463 193.367 438.477Z" fill="#0D151D"/>
<path d="M81.3263 421.731C81.3697 421.975 76.4294 422.063 71.1799 424.873C65.891 427.611 62.9239 431.688 62.7584 431.509C62.696 431.461 63.3375 430.388 64.6949 428.917C66.0443 427.448 68.1747 425.643 70.8585 424.225C73.5449 422.816 76.2124 422.094 78.1571 421.829C80.1085 421.557 81.3263 421.653 81.3263 421.731Z" fill="#0D151D"/>
<path d="M145.602 232.363L164.707 268.371C164.707 268.371 168.833 275.419 169.909 282.9C170.838 289.358 168.976 296.317 166.396 297.223C160.826 299.18 150.277 299.537 144.245 291.749C138.753 284.659 122.77 247.426 122.77 247.426L145.602 232.363Z" fill="#FBA585"/>
<path d="M215.03 506.941C215.076 506.939 215.121 506.463 214.992 505.615C214.857 504.773 214.522 503.543 213.693 502.24C213.48 501.923 213.269 501.578 212.919 501.266C212.588 500.956 212.016 500.718 211.465 500.928C211.19 501.019 210.917 501.278 210.821 501.595C210.718 501.917 210.769 502.236 210.851 502.495C211.031 503.028 211.301 503.409 211.527 503.849C212.032 504.725 212.448 505.597 213.092 506.584C213.418 507.088 214.15 507.505 214.819 507.386C215.476 507.3 216.008 506.97 216.487 506.623C217.416 505.927 218.233 505.137 218.937 504.293C219.288 503.872 219.608 503.437 219.903 502.996C220.178 502.558 220.505 502.114 220.628 501.506C220.753 500.918 220.537 500.147 219.892 499.881C219.237 499.638 218.704 499.976 218.339 500.243C217.599 500.877 217.154 501.528 216.702 502.158C215.842 503.413 215.366 504.566 215.098 505.369C214.835 506.179 214.772 506.648 214.819 506.662C214.952 506.718 215.392 504.85 217.139 502.489C217.573 501.931 218.111 501.25 218.712 500.777C219.018 500.55 219.402 500.404 219.634 500.526C219.88 500.616 220.015 500.995 219.935 501.361C219.858 501.738 219.583 502.142 219.299 502.564C219.014 502.979 218.705 503.388 218.369 503.784C217.695 504.576 216.912 505.326 216.038 505.979C215.617 506.293 215.158 506.55 214.732 506.603C214.303 506.658 213.966 506.483 213.684 506.104C213.148 505.301 212.634 504.307 212.139 503.481C211.902 503.05 211.615 502.632 211.492 502.272C211.361 501.893 211.434 501.65 211.689 501.542C212.277 501.293 212.85 501.979 213.247 502.561C214.901 504.98 214.881 506.99 215.03 506.941Z" fill="#0D151D"/>
<path d="M181.704 508.118L165.157 545.123L138.455 532.393L155.569 486.595L181.704 508.118Z" fill="#FBA585"/>
<path d="M168.284 542.654L158.615 561.677C158.615 561.677 183.363 588.081 181.039 593.984L122.861 565.202L138.845 527.043L168.284 542.654Z" fill="#283C46"/>
<path d="M181.04 593.984C181.377 593.13 181.147 591.85 180.509 590.281C181.036 591.08 181.891 592.719 181.04 593.984Z" fill="#FEFEFE"/>
<path d="M181.039 593.984L172.227 589.624L122.861 565.202L125.282 560.415L180.157 589.801C180.157 589.801 180.309 589.981 180.507 590.28C181.146 591.849 181.375 593.131 181.039 593.984Z" fill="#A4AFAA"/>
<path d="M159.7 561.836C159.555 562.125 158.072 561.556 156.236 561.808C154.394 562.008 153.084 562.924 152.875 562.677C152.641 562.49 153.88 560.948 156.108 560.683C158.332 560.399 159.888 561.598 159.7 561.836Z" fill="#0D151D"/>
<path d="M164.591 567.462C164.523 567.776 163.061 567.667 161.519 568.43C159.957 569.145 159.09 570.365 158.814 570.213C158.525 570.127 159.126 568.312 161.06 567.403C162.984 566.475 164.714 567.179 164.591 567.462Z" fill="#0D151D"/>
<path d="M164.556 576.711C164.27 576.645 164.554 574.987 166.03 573.741C167.497 572.486 169.13 572.516 169.138 572.819C169.185 573.14 167.923 573.575 166.727 574.615C165.508 575.626 164.851 576.821 164.556 576.711Z" fill="#0D151D"/>
<path d="M162.472 554.509C162.228 554.718 161.113 553.668 159.454 552.987C157.811 552.269 156.303 552.207 156.272 551.883C156.205 551.59 157.93 551.108 159.873 551.94C161.821 552.756 162.719 554.348 162.472 554.509Z" fill="#0D151D"/>
<path d="M173.734 537.715L217.352 425.076C217.352 425.076 216.373 405.858 212.942 399.789C209.511 393.72 105.603 358.317 105.603 358.317C105.603 358.317 79.1361 351.742 61.4917 358.317C43.8473 364.891 30.613 387.65 33.0635 400.294C35.514 412.937 45.8571 422.226 45.8571 422.226L122.267 424.57L163.916 440.248L135.869 523.19L173.734 537.715Z" fill="#0D151D"/>
<path d="M212.53 460.744L213.514 501.486L184.108 502.229L179.871 453.337L212.53 460.744Z" fill="#FBA585"/>
<path d="M215.261 497.846L214.725 519.322C214.725 519.322 248.227 531.739 248.667 538.094L184.15 538.768L182.166 497.25L215.261 497.846Z" fill="#283C46"/>
<path d="M194.748 516.644C193.503 517.009 192.654 518.467 192.956 519.766C193.259 521.066 194.687 521.968 195.938 521.625C197.189 521.282 198.261 519.564 197.819 518.309C197.379 517.052 195.641 516.088 194.508 516.73" fill="#D9D9D1"/>
<path d="M248.669 538.094C248.605 537.176 247.852 536.132 246.611 535.018C247.428 535.495 248.888 536.574 248.669 538.094Z" fill="#FEFEFE"/>
<path d="M184.15 538.768L184.277 533.372L246.087 534.744C246.087 534.744 246.303 534.838 246.611 535.018C247.852 536.132 248.605 537.176 248.669 538.094L184.15 538.768Z" fill="#A4AFAA"/>
<path d="M215.769 518.97C215.762 519.295 214.188 519.459 212.649 520.521C211.082 521.54 210.297 522.957 210.006 522.831C209.714 522.771 210.166 520.823 212.052 519.571C213.926 518.303 215.836 518.671 215.769 518.97Z" fill="#0D151D"/>
<path d="M222.563 521.788C222.638 522.102 221.278 522.669 220.221 524.054C219.125 525.409 218.871 526.899 218.556 526.888C218.262 526.941 218.026 525.04 219.371 523.344C220.701 521.634 222.554 521.478 222.563 521.788Z" fill="#0D151D"/>
<path d="M226.491 530.105C226.205 530.175 225.75 528.556 226.542 526.767C227.321 524.973 228.8 524.256 228.936 524.524C229.116 524.79 228.168 525.756 227.542 527.235C226.88 528.697 226.803 530.068 226.491 530.105Z" fill="#0D151D"/>
<path d="M215.128 511.13C214.999 511.428 213.548 510.995 211.769 511.139C209.987 511.245 208.608 511.875 208.441 511.599C208.255 511.365 209.596 510.148 211.694 510.009C213.791 509.854 215.28 510.873 215.128 511.13Z" fill="#0D151D"/>
<path d="M195.359 347.63C195.359 347.63 212.977 346.176 214.938 365.901C216.897 385.626 218.823 477.674 218.823 477.674L177.651 481.213L171.28 387.144L105.604 358.318C105.604 358.318 183.595 345.102 195.359 347.63Z" fill="#0D151D"/>
<path d="M122.739 321.014C122.739 321.014 133.43 351.946 131.395 355.394C129.358 358.842 101.863 373.028 101.863 373.028L33.0616 400.294C33.0616 400.294 25.9949 388.695 25.9949 370.879C25.9949 353.062 49.9262 321.014 49.9262 321.014H122.739Z" fill="#0D151D"/>
<path d="M102.348 356.738C102.344 356.749 102.453 356.81 102.671 356.917C102.922 357.038 103.245 357.19 103.647 357.383C104.555 357.8 105.828 358.385 107.458 359.132C110.836 360.651 115.687 362.832 121.76 365.562C134.031 371.013 151.232 378.653 171.136 387.494L170.913 387.171C171.537 396.462 172.212 406.498 172.909 416.881C174.583 441.151 176.126 463.529 177.347 481.235L177.368 481.555L177.678 481.527C190.2 480.394 200.475 479.463 207.672 478.811C211.21 478.47 213.987 478.202 215.929 478.015C216.843 477.917 217.559 477.84 218.088 477.784C218.575 477.727 218.824 477.689 218.823 477.674C218.821 477.657 218.57 477.662 218.08 477.689C217.55 477.722 216.833 477.769 215.914 477.829C213.97 477.977 211.186 478.187 207.642 478.454C200.443 479.041 190.158 479.877 177.626 480.899L177.958 481.191C176.78 463.482 175.291 441.101 173.676 416.825C172.968 406.445 172.283 396.409 171.648 387.118L171.632 386.885L171.426 386.794C151.479 378.057 134.24 370.508 121.943 365.12C115.833 362.478 110.954 360.367 107.557 358.896C105.907 358.196 104.617 357.651 103.697 357.262C103.284 357.094 102.956 356.959 102.697 356.856C102.47 356.769 102.352 356.727 102.348 356.738Z" fill="#283C46"/>
<path d="M47.6304 359.832C47.6481 359.884 48.3343 359.687 49.5615 359.288C50.9271 358.833 52.6657 358.255 54.7419 357.565C59.1126 356.134 65.1772 354.141 72.0784 353.044C78.9797 351.946 85.3656 352.286 89.8259 353.279C94.3065 354.236 96.8817 355.556 96.9387 355.406C96.9577 355.366 96.3339 355.003 95.1486 354.473C93.9647 353.937 92.195 353.289 89.9425 352.733C85.4511 351.582 78.9499 351.147 71.9632 352.26C64.9792 353.37 58.9038 355.465 54.5683 357.034C52.3985 357.828 50.6573 358.51 49.4612 358.997C48.2651 359.487 47.6128 359.782 47.6304 359.832Z" fill="#283C46"/>
<path d="M57.3525 343.528C57.3715 343.652 59.6566 343.193 63.3682 343.491C65.2207 343.626 67.4257 343.92 69.8803 344.212C72.3321 344.513 75.0227 344.854 77.8081 345.399C83.398 346.426 88.2068 348.434 91.2892 350.558C94.4002 352.647 95.8566 354.553 95.9638 354.444C95.9936 354.419 95.679 353.909 94.9643 353.109C94.251 352.313 93.1458 351.209 91.593 350.093C88.5282 347.803 83.6096 345.656 77.9505 344.619C75.1298 344.068 72.4176 343.747 69.9576 343.486C67.499 343.234 65.2804 342.996 63.3967 342.933C61.5158 342.863 59.9861 342.974 58.9446 343.137C57.9017 343.301 57.343 343.48 57.3525 343.528Z" fill="#283C46"/>
<path d="M101.456 107.505L69.8816 114.406C66.8276 114.616 64.4368 117.203 64.3784 120.362L64.7582 190.868C64.7839 195.685 66.3475 200.358 69.2076 204.164L72.2181 208.172C79.0841 217.308 92.9911 216.388 98.2352 206.171C98.6013 205.457 98.8549 204.832 98.962 204.327C99.0678 203.691 99.2319 203.273 99.2604 202.734L99.8611 195.861C100.169 189.582 100.211 183.204 100.212 183.263C100.212 183.263 113.133 181.578 116.444 164.398C118.09 155.856 118.203 141.745 117.933 130.196C117.689 119.802 111.51 106.812 101.456 107.505Z" fill="#FBA585"/>
<path d="M100.299 178.935C100.299 178.935 88.0272 179.188 77.1227 171.816C77.1227 171.816 80.06 180.999 85.7503 184.342C89.1216 186.322 93.7703 187.787 100.03 187.434L100.299 178.935Z" fill="#FB7E53"/>
<path d="M148.217 233.064C148.217 233.064 135.91 211.888 132.496 207.607C129.294 203.592 125.167 201.224 122.414 199.98C120.882 199.289 119.271 198.813 117.623 198.518L99.9246 194.474C99.9246 194.474 99.8934 206.939 87.2368 207.71C74.5788 208.481 63.9211 190.287 63.9211 190.287C63.9211 190.287 43.4723 193.55 38.5795 196.147C33.6866 198.745 25.9988 202.043 21.7677 223.904L18.7978 245.292L54.0554 248.654L57.4294 302.717L74.9151 315.28C74.9151 315.28 123.392 328.287 126.489 329.146C129.587 330.007 130.612 248.654 130.612 248.654C130.612 248.654 143.064 240.348 148.217 233.064Z" fill="#0D151D"/>
<path d="M125.014 223.972C125.06 223.954 125.299 224.509 125.695 225.531C126.098 226.549 126.612 228.052 127.184 229.929C128.332 233.68 129.592 238.985 130.306 244.953C131.009 250.927 131.026 256.389 130.788 260.315C130.672 262.28 130.525 263.864 130.372 264.953C130.227 266.043 130.124 266.642 130.075 266.636C130.026 266.63 130.037 266.02 130.098 264.927C130.166 263.833 130.238 262.249 130.289 260.293C130.399 256.383 130.302 250.969 129.604 245.043C128.897 239.12 127.725 233.843 126.705 230.074C126.198 228.189 125.759 226.668 125.436 225.625C125.121 224.578 124.968 223.989 125.014 223.972Z" fill="#283C46"/>
<path d="M57.2098 297.615L54.0582 248.829L20.8063 245.839C20.8063 245.839 21.8994 279.311 23.0344 289.26C24.6672 303.572 34.9804 322.69 41.0517 326.916C42.218 327.727 47.873 320.55 50.8144 312.843C53.966 304.585 57.2098 297.615 57.2098 297.615Z" fill="#FBA585"/>
<path d="M101.279 96.4766C93.6449 93.6393 86.2286 95.4157 78.858 98.6712C71.4873 101.928 65.3747 107.786 61.2448 114.8C56.8962 122.188 54.678 131.006 55.6566 139.646C56.6352 148.285 60.9447 156.665 67.7918 161.941C77.1423 169.145 90.5185 169.764 100.825 164.456C111.13 159.146 118.279 148.506 120.642 136.939C122.27 128.971 121.739 120.405 118.429 112.913C115.119 105.419 108.902 99.1142 101.279 96.4766Z" fill="#0D151D"/>
<path d="M74.5843 119.208C76.2334 116.38 76.3529 112.898 77.3386 109.757C79.5117 102.841 86.0875 98.2027 93.0618 96.6582C99.5509 95.2206 106.862 97.1753 113.768 100.947C118.502 103.531 122.738 107.283 125.393 112.042C128.915 118.357 129.195 126.395 126.117 132.838L91.2137 120.821C87.3982 123.005 83.4954 125.224 79.1719 126.03C77.903 126.267 76.5647 126.371 75.3385 125.931C74.1123 125.491 73.0312 124.391 72.9403 123.076C72.842 121.638 73.8679 120.437 74.5843 119.208Z" fill="#0D151D"/>
<path d="M112.713 111.299L80.2117 112.151C77.1421 111.786 74.3471 113.872 73.7782 116.954L66.4516 163.628C70.5021 169.447 81.5631 177.242 87.1686 180.825C91.9997 183.913 99.2234 185.221 99.2198 185.252C99.2198 185.252 112.336 186.019 118.405 169.815C121.424 161.757 123.819 147.961 125.419 136.601C126.858 126.377 122.818 112.501 112.713 111.299Z" fill="#FBA585"/>
<path d="M118.331 148.495C118.138 149.64 117.025 150.401 115.845 150.197C114.668 149.994 113.868 148.901 114.06 147.756C114.253 146.612 115.367 145.85 116.543 146.053C117.723 146.257 118.524 147.351 118.331 148.495Z" fill="#0D151D"/>
<path d="M120.886 142.829C120.568 143.048 119.219 141.49 116.951 140.98C114.692 140.439 112.785 141.24 112.597 140.904C112.502 140.752 112.871 140.311 113.705 139.942C114.529 139.573 115.85 139.334 117.261 139.662C118.672 139.989 119.75 140.785 120.322 141.478C120.906 142.178 121.041 142.734 120.886 142.829Z" fill="#0D151D"/>
<path d="M98.0121 144.254C97.8202 145.399 96.7073 146.16 95.5277 145.956C94.351 145.751 93.5507 144.662 93.7439 143.516C93.9356 142.372 95.0487 141.611 96.2256 141.814C97.4052 142.018 98.2054 143.109 98.0121 144.254Z" fill="#0D151D"/>
<path d="M99.367 138.325C99.0479 138.542 97.6967 136.986 95.4301 136.476C93.1716 135.934 91.2661 136.736 91.0779 136.4C90.9831 136.248 91.3492 135.806 92.1862 135.438C93.0093 135.069 94.3312 134.83 95.7424 135.156C97.1531 135.485 98.2322 136.281 98.8039 136.975C99.3873 137.673 99.5209 138.23 99.367 138.325Z" fill="#0D151D"/>
<path d="M103.131 157.386C103.147 157.251 104.626 157.327 107.004 157.554C107.603 157.627 108.182 157.636 108.365 157.253C108.592 156.855 108.477 156.159 108.335 155.404C108.08 153.84 107.814 152.203 107.532 150.485C106.45 143.496 105.797 137.803 106.074 137.765C106.35 137.727 107.453 143.362 108.535 150.352C108.788 152.072 109.03 153.711 109.259 155.281C109.343 156.006 109.568 156.859 109.084 157.681C108.834 158.09 108.337 158.314 107.939 158.33C107.539 158.362 107.208 158.293 106.914 158.244C104.559 157.84 103.112 157.52 103.131 157.386Z" fill="#0D151D"/>
<path d="M101 162.876C100.408 161.59 99.0978 160.657 97.6433 160.488C96.6345 160.368 95.5402 160.624 94.7732 161.303C94.0063 161.981 93.6421 163.113 94.0286 164.016C94.4626 165.033 95.7028 165.528 96.8513 165.464C98.0013 165.399 99.084 164.887 100.12 164.367C100.405 164.222 100.7 164.073 100.908 163.833C101.118 163.595 101.223 163.243 101.081 162.973" fill="#FB7E53"/>
<path d="M96.0836 157.562C96.4584 157.625 95.9478 160.138 97.6985 162.404C99.4425 164.678 102.137 165 102.084 165.355C102.085 165.52 101.397 165.709 100.279 165.485C99.1805 165.274 97.6612 164.552 96.5901 163.165C95.5234 161.776 95.2669 160.19 95.3932 159.14C95.5133 158.069 95.9176 157.509 96.0836 157.562Z" fill="#0D151D"/>
<path d="M100.428 131.346C100.076 131.919 97.8735 131.108 95.1483 130.828C92.4265 130.493 90.1208 130.791 89.8837 130.153C89.7823 129.85 90.2772 129.348 91.2678 128.942C92.2518 128.536 93.7398 128.276 95.3733 128.459C97.0063 128.645 98.4151 129.233 99.3013 129.852C100.196 130.471 100.585 131.073 100.428 131.346Z" fill="#0D151D"/>
<path d="M122.375 132.484C121.868 132.914 120.419 132.016 118.545 131.564C116.687 131.044 115.004 131.122 114.749 130.494C114.643 130.193 115.001 129.727 115.798 129.392C116.584 129.057 117.814 128.916 119.096 129.25C120.378 129.585 121.399 130.313 121.943 130.995C122.497 131.682 122.604 132.27 122.375 132.484Z" fill="#0D151D"/>
<path d="M69.5932 113.373C74.445 104.281 90.814 93.7304 100.702 96.5376L114.894 109.641C112.898 114.981 107.793 118.927 102.191 119.458C99.1993 119.742 95.748 119.27 93.6072 121.391C91.4218 123.557 91.743 127.445 89.6611 129.714C86.7751 132.861 80.7494 131.422 78.3633 134.979C77.3211 136.533 77.3213 138.65 76.2516 140.186C74.8259 142.23 68.68 143.914 66.4952 142.68C64.3121 141.445 65.0511 137.423 64.6813 135.158C64.0507 131.287 64.9317 129.532 65.732 127.611C67.627 123.061 67.2782 117.71 69.5932 113.373Z" fill="#0D151D"/>
<path d="M72.9155 146.457C73.1684 145.205 72.3488 141.927 71.1712 141.455C68.0271 140.195 62.1149 139.118 60.342 147.491C57.9199 158.933 69.7303 159.245 69.82 158.921C69.8909 158.669 72.0397 150.781 72.9155 146.457Z" fill="#FBA585"/>
<path d="M67.3085 153.783C67.2662 153.736 67.0825 153.877 66.7184 153.954C66.3619 154.028 65.781 153.999 65.2401 153.637C64.1404 152.911 63.5442 150.753 63.9274 148.675C64.1195 147.624 64.546 146.682 65.0848 145.945C65.6075 145.188 66.265 144.729 66.8895 144.762C67.5169 144.763 67.8652 145.227 67.9345 145.583C68.019 145.94 67.8977 146.15 67.9535 146.184C67.9781 146.221 68.2366 146.048 68.2461 145.553C68.248 145.315 68.1725 145.013 67.9544 144.73C67.7301 144.443 67.356 144.236 66.9271 144.182C66.0432 144.039 65.087 144.669 64.4946 145.476C63.8545 146.277 63.3513 147.329 63.135 148.509C62.7177 150.835 63.424 153.272 64.9554 154.136C65.7052 154.533 66.4208 154.446 66.8203 154.257C67.2299 154.056 67.3438 153.814 67.3085 153.783Z" fill="#FB7E53"/>
<path d="M67.9185 110.197C68.5507 106.597 64.5086 103.404 61.1872 101.936C57.8669 100.469 54.0362 100.848 50.6368 101.996C48.6482 102.667 46.5765 103.765 45.8279 105.758C45.078 107.75 46.6305 110.586 48.6966 110.211C44.7581 110.805 42.0342 115.508 43.3986 119.356C44.7631 123.203 49.8426 125.144 53.2767 123.13C51.7597 126.252 49.1533 128.796 46.0274 130.206C51.7229 132.15 58.3366 130.781 62.7486 126.748C67.1608 122.714 69.2056 116.17 67.9185 110.197Z" fill="#0D151D"/>
<path d="M56.93 127.038C56.8466 127.035 56.7597 125.664 57.0798 123.484C57.3934 121.31 58.2137 118.34 59.7817 115.381C61.3589 112.424 63.3484 110.109 64.9587 108.662C66.5707 107.205 67.7392 106.541 67.7864 106.611C67.9717 106.8 63.5042 109.928 60.4569 115.759C57.3295 121.543 57.1862 127.095 56.93 127.038Z" fill="#4A6CD1"/>
<path d="M111.907 105.256C112.176 110.155 118.214 117.508 120.697 121.749C125.434 129.842 126.211 132.379 123.57 147.984C127.245 143.113 130.248 138.23 131.041 132.105C131.834 125.98 130.636 119.47 127.197 114.308C123.757 109.147 117.983 105.499 111.907 105.256Z" fill="#0D151D"/>
<path d="M158.091 334.06C157.534 334.95 156.505 335.454 155.482 335.246C155.279 335.204 155.068 335.14 154.853 335.042C153.436 334.397 153.87 331.368 153.87 331.368L146.964 329.404C146.964 329.404 137.25 334.376 133.614 337.989C129.978 341.603 122.008 337.44 122.008 337.44L113.76 325.367L134.708 311.392C134.708 311.392 133.845 312.013 134.954 309.884C136.062 307.754 140.04 309.057 140.04 309.057C140.78 308.026 143.47 307.931 143.47 307.931L154.674 310.547C156.982 311.086 158.94 312.662 159.997 314.83L164.035 323.114C164.035 323.114 166.022 328.973 165.489 330.222C164.683 332.109 162.7 331.443 162.7 331.443C162.7 331.443 161.785 335.044 160.829 335.064C159.874 335.085 158.091 334.06 158.091 334.06Z" fill="#FBA585"/>
<path d="M135.027 320.363C135.028 320.484 136.548 320.511 138.955 320.89C141.355 321.283 144.652 322.092 148.022 323.696C149.708 324.491 151.246 325.392 152.583 326.306C153.874 327.246 155.238 328.05 155.577 329.115C155.749 329.637 155.6 330.131 155.319 330.476C155.044 330.82 154.693 331.028 154.393 331.116C153.774 331.298 153.406 331.083 153.385 331.15C153.357 331.164 153.706 331.508 154.457 331.395C154.821 331.337 155.254 331.144 155.626 330.752C156.002 330.381 156.267 329.672 156.069 328.976C155.89 328.275 155.378 327.693 154.819 327.195C154.243 326.716 153.639 326.222 152.956 325.747C151.61 324.78 150.045 323.838 148.32 323.026C144.871 321.384 141.471 320.638 139.017 320.373C136.55 320.121 135.023 320.28 135.027 320.363Z" fill="#FB7E53"/>
<path d="M133.521 327.702C133.513 327.919 138.131 328.233 143.746 329.189C149.368 330.128 153.843 331.344 153.902 331.136C153.928 331.043 152.839 330.622 151.031 330.094C149.224 329.564 146.692 328.949 143.859 328.47C141.028 327.995 138.44 327.745 136.564 327.653C134.687 327.561 133.525 327.606 133.521 327.702Z" fill="#FB7E53"/>
<path d="M158.042 333.723C158.081 333.719 158.174 333.299 158.306 332.506C158.431 331.712 158.591 330.561 158.644 329.113C158.666 328.391 158.667 327.593 158.555 326.728C158.459 325.862 158.15 324.925 157.688 324.078C156.819 322.382 155.558 320.585 153.869 319.152C152.186 317.733 150.484 316.506 148.716 315.736C146.961 314.971 145.282 314.642 143.889 314.42C142.491 314.21 141.358 314.113 140.575 314.055C139.792 313.999 139.357 313.993 139.351 314.042C139.335 314.161 141.063 314.417 143.806 314.936C145.17 315.222 146.793 315.598 148.453 316.364C150.102 317.114 151.773 318.342 153.4 319.714C155.028 321.102 156.209 322.752 157.101 324.401C158.055 325.987 158.096 327.686 158.13 329.102C158.129 331.936 157.886 333.709 158.042 333.723Z" fill="#FB7E53"/>
<path d="M143.705 310.809C143.694 310.92 145.387 311.156 148.067 311.783C150.638 312.489 154.797 313.156 156.818 317.101C159.071 320.736 160.955 324.142 161.662 326.839C162.427 329.526 162.163 331.294 162.314 331.298C162.352 331.303 162.459 330.875 162.498 330.078C162.543 329.282 162.489 328.11 162.158 326.712C161.553 323.88 159.695 320.359 157.429 316.703C156.85 315.785 156.213 314.903 155.445 314.178C154.682 313.44 153.756 312.956 152.9 312.594C151.161 311.875 149.53 311.538 148.166 311.269C145.43 310.768 143.713 310.715 143.705 310.809Z" fill="#FB7E53"/>
<path d="M136.348 335.772C136.361 335.79 136.608 335.637 137.071 335.324C137.595 334.982 138.275 334.538 139.12 333.985C140.922 332.855 143.592 331.259 147.077 329.598L146.913 329.611C148.97 330.212 151.29 330.889 153.803 331.621L153.593 331.292C153.52 331.875 153.497 332.449 153.552 333.055C153.613 333.651 153.733 334.3 154.18 334.867C154.414 335.144 154.767 335.332 155.068 335.406C155.372 335.523 155.709 335.593 156.049 335.577C156.727 335.555 157.392 335.266 157.89 334.79C158.018 334.673 158.129 334.54 158.236 334.401L158.312 334.294L158.349 334.241L158.366 334.212L158.369 334.211C158.463 334.186 157.558 334.411 157.942 334.316L157.95 334.32L157.964 334.328L158.177 334.445C158.461 334.598 158.752 334.741 159.051 334.874C159.351 335.008 159.659 335.131 159.987 335.23C160.154 335.278 160.322 335.32 160.504 335.345C160.674 335.371 160.879 335.4 161.166 335.29C161.589 335.047 161.764 334.724 161.945 334.422C162.118 334.112 162.263 333.798 162.389 333.478C162.648 332.836 162.853 332.187 163.038 331.505L162.6 331.747C163.493 332.013 164.588 331.911 165.302 331.134C165.625 330.772 165.905 330.31 165.926 329.749C165.951 329.245 165.883 328.793 165.812 328.336C165.492 326.526 164.963 324.765 164.38 322.974L164.374 322.952L164.361 322.928C163.675 321.52 162.947 320.027 162.21 318.514C161.752 317.574 161.296 316.642 160.845 315.717C160.389 314.817 159.998 313.822 159.315 312.983C158.661 312.151 157.844 311.464 156.94 310.973C156.046 310.455 155.017 310.235 154.111 310.034C150.4 309.178 146.861 308.362 143.552 307.6L143.507 307.591L143.468 307.594C142.801 307.634 142.172 307.719 141.546 307.884C140.935 308.059 140.286 308.26 139.805 308.86L140.211 308.779C139.06 308.142 137.672 307.98 136.553 308.574C135.428 309.163 134.83 310.253 134.467 311.297L134.567 311.155C130.526 314.137 127.228 316.569 124.868 318.31C123.779 319.135 116.047 323.31 115.39 323.808C114.796 324.269 114.49 324.522 114.505 324.543C114.521 324.566 114.857 324.355 115.481 323.938C116.16 323.471 123.919 319.335 125.043 318.562C127.436 316.87 130.783 314.503 134.881 311.605L134.947 311.559L134.981 311.464C135.311 310.545 135.892 309.553 136.817 309.103C137.72 308.617 138.935 308.772 139.898 309.315L140.135 309.448L140.302 309.234C140.583 308.877 141.148 308.648 141.708 308.506C142.274 308.362 142.893 308.282 143.498 308.251L143.416 308.243C146.72 309.023 150.254 309.859 153.962 310.735C154.908 310.951 155.792 311.141 156.61 311.615C157.426 312.062 158.164 312.684 158.755 313.439C159.359 314.172 159.727 315.108 160.197 316.039C160.648 316.965 161.104 317.899 161.56 318.838C162.299 320.349 163.028 321.843 163.715 323.251L163.698 323.207C164.272 324.96 164.803 326.727 165.112 328.449C165.182 328.877 165.24 329.314 165.221 329.696C165.227 330.028 165.029 330.364 164.791 330.637C164.327 331.179 163.486 331.27 162.808 331.078L162.461 330.979L162.37 331.32C162.199 331.963 161.999 332.607 161.76 333.209C161.533 333.78 161.209 334.468 160.876 334.672C160.859 334.678 160.735 334.703 160.588 334.671C160.451 334.656 160.306 334.618 160.163 334.579C159.874 334.496 159.587 334.382 159.305 334.26C159.022 334.137 158.744 334.002 158.472 333.859L158.272 333.751L158.26 333.743L158.255 333.741C158.638 333.645 157.73 333.87 157.824 333.848L157.821 333.851L157.808 333.871L157.779 333.916L157.72 334.002L157.449 334.308C157.058 334.69 156.539 334.916 156.02 334.937C155.759 334.953 155.506 334.9 155.254 334.804C154.977 334.734 154.799 334.631 154.639 334.458C154.04 333.672 154.068 332.394 154.163 331.384L154.187 331.12L153.953 331.055C151.43 330.355 149.102 329.712 147.037 329.141L146.948 329.116L146.873 329.153C143.38 330.889 140.746 332.556 138.977 333.76C138.095 334.37 137.431 334.864 136.992 335.214C136.554 335.564 136.334 335.754 136.348 335.772Z" fill="#FB7E53"/>
<path d="M55.7625 298.914C54.3684 298.322 47.563 296.339 39.7785 303.453C32.1335 310.439 36.085 324.578 37.3781 326.201C38.6711 327.824 55.5771 330.423 55.5771 330.423L122.075 337.96L120.554 321.243C120.554 321.243 57.1566 299.507 55.7625 298.914Z" fill="#FCA586"/>
<path d="M197.552 318.058L180.53 290.024C180.53 290.024 172.708 277.2 163.716 276.917C155.314 276.654 151.184 283.747 151.305 286.275C151.366 287.537 151.561 291.588 152.859 293.786C153.481 294.838 194.054 332.061 194.054 332.061L197.552 318.058Z" fill="#FCA586"/>
<path d="M241.286 348.24C241.878 347.693 242.151 346.869 242.005 346.07L239.512 332.505C239.274 331.318 238.553 330.291 237.53 329.686L193.626 303.723L192.541 305.973L193.734 321.065L240.788 348.698L241.286 348.24Z" fill="#0D151D"/>
<path d="M235.281 338.979C235.047 339.284 235.176 339.791 235.571 340.11C235.966 340.429 236.478 340.44 236.712 340.135C236.948 339.828 236.817 339.323 236.422 339.003C236.027 338.683 235.516 338.673 235.281 338.979Z" fill="#FEFEFE"/>
<path d="M240.79 348.703C240.735 348.713 240.51 347.783 240.151 346.091C239.783 344.258 239.298 341.836 238.71 338.906C238.414 337.374 238.094 335.713 237.752 333.939C237.634 333.082 237.164 332.344 236.437 331.896C235.617 331.416 234.775 330.922 233.912 330.417C230.444 328.373 226.65 326.136 222.67 323.788C214.7 319.065 207.511 314.75 202.328 311.591C199.833 310.05 197.771 308.775 196.21 307.811C194.774 306.902 193.996 306.378 194.024 306.329C194.051 306.28 194.885 306.71 196.37 307.532C197.962 308.439 200.069 309.636 202.616 311.084C207.872 314.115 215.107 318.351 223.075 323.075C227.046 325.441 230.827 327.7 234.285 329.761C235.146 330.278 235.987 330.782 236.805 331.274C237.707 331.824 238.293 332.844 238.404 333.793C238.712 335.576 239 337.245 239.266 338.785C239.753 341.738 240.154 344.181 240.458 346.029C240.722 347.742 240.844 348.693 240.79 348.703Z" fill="#283C46"/>
<path d="M224.858 334.34C224.858 334.34 225.012 333.112 221.732 332.63C218.453 332.15 209.035 330.532 209.035 330.532L212.032 323.965L210.634 316.042C210.634 316.042 208.983 314.39 208.192 315.717C207.403 317.041 206.766 322.135 206.766 322.135L201.73 326.153L206.234 315.19C206.234 315.19 205.157 311.68 203.088 312.844C201.018 314.008 194.733 321.585 194.733 321.585L194.87 316.214L198.329 309.639C198.329 309.639 198.149 307.692 196.563 308.514C194.978 309.333 189.44 316.28 189.44 316.28L186.031 324.519C186.031 324.519 186.577 328.877 187.851 329.226C189.127 329.575 190.919 329.58 190.919 329.58C190.919 329.58 191.642 331.87 192.762 332.241C193.882 332.613 195.609 332.234 195.609 332.234C195.609 332.234 195.16 335.92 197.165 336.259C199.17 336.599 203.057 335.995 204.566 335.54C206.074 335.084 220.345 336.2 220.766 336.026C221.188 335.853 225.906 336.575 224.858 334.34Z" fill="#FBA585"/>
<path d="M187.872 329.477C187.78 329.509 187.409 328.75 187.133 327.414C186.854 326.083 186.74 324.164 187.112 322.097C187.49 320.033 188.275 318.278 189.002 317.133C189.731 315.982 190.346 315.405 190.42 315.468C190.631 315.609 188.594 318.279 187.905 322.244C187.154 326.194 188.118 329.419 187.872 329.477Z" fill="#FB7E53"/>
<path d="M190.59 327.42C190.402 327.305 191.06 325.839 192.205 324.25C193.345 322.659 194.515 321.582 194.678 321.729C194.846 321.882 193.967 323.178 192.849 324.738C191.729 326.293 190.781 327.541 190.59 327.42Z" fill="#FB7E53"/>
<path d="M197.538 331.293C197.351 331.181 197.992 329.726 199.21 328.228C200.424 326.727 201.7 325.814 201.841 325.982C201.991 326.157 200.995 327.306 199.827 328.754C198.652 330.195 197.732 331.412 197.538 331.293Z" fill="#FB7E53"/>
<path d="M203.192 335.455C203.091 335.242 204.52 334.352 206.058 332.99C207.607 331.64 208.683 330.326 208.873 330.462C209.053 330.576 208.218 332.18 206.578 333.613C204.946 335.056 203.274 335.654 203.192 335.455Z" fill="#FB7E53"/>
<path d="M247.997 274.991L160.557 275.725C157.721 275.725 155.01 277.13 154.586 280.023L145.029 345.786H99.99C98.5403 345.786 97.3645 346.998 97.3645 348.494C97.3645 349.991 98.5403 351.204 99.99 351.204H243.84L253.67 281.798C254.196 278.217 251.508 274.991 247.997 274.991Z" fill="#D9D9D1"/>
<path d="M247.997 274.991C247.997 274.991 248.474 274.93 249.376 275.126C250.252 275.336 251.63 275.894 252.716 277.412C253.258 278.154 253.669 279.144 253.797 280.289C253.939 281.452 253.617 282.676 253.475 284.002C253.109 286.659 252.688 289.719 252.214 293.159C250.29 306.946 247.515 326.815 244.106 351.243L244.074 351.484H243.839C206.616 351.506 157.701 351.536 104.285 351.569C103.031 351.569 101.778 351.569 100.529 351.569C99.95 351.595 99.1431 351.56 98.5423 351.178C97.9212 350.825 97.4384 350.234 97.197 349.549C96.6736 348.173 97.2988 346.488 98.5545 345.806C99.1539 345.431 99.9527 345.4 100.525 345.422H102.375C107.301 345.424 112.178 345.424 116.991 345.424C126.618 345.428 135.994 345.431 145.03 345.433L144.694 345.734C148.133 322.184 151.343 300.213 154.22 280.503C154.321 279.255 154.867 277.905 155.838 277.066C156.787 276.197 157.989 275.739 159.182 275.547C160.399 275.355 161.555 275.457 162.707 275.417C163.861 275.408 165.005 275.401 166.14 275.393C170.681 275.361 175.073 275.33 179.306 275.301C187.768 275.246 195.594 275.194 202.7 275.148C216.897 275.072 228.215 275.014 236.006 274.972C239.879 274.965 242.869 274.959 244.916 274.955C245.917 274.96 246.68 274.965 247.217 274.967C247.734 274.972 247.997 274.991 247.997 274.991C247.997 274.991 247.735 275.014 247.217 275.029C246.681 275.04 245.917 275.058 244.917 275.079C242.871 275.11 239.879 275.154 236.007 275.211C228.215 275.301 216.898 275.431 202.703 275.593C195.595 275.666 187.769 275.746 179.307 275.832C175.075 275.874 170.683 275.919 166.143 275.962C165.008 275.975 163.864 275.985 162.71 275.995C161.56 276.035 160.376 275.944 159.27 276.125C158.16 276.305 157.059 276.74 156.222 277.513C155.362 278.285 154.908 279.361 154.799 280.594C151.949 300.306 148.773 322.28 145.368 345.838L145.324 346.137H145.03C135.994 346.14 126.618 346.143 116.991 346.147C112.178 346.147 107.301 346.148 102.375 346.15H100.525C99.8727 346.13 99.3845 346.157 98.8949 346.441C97.9375 346.964 97.4601 348.25 97.8602 349.3C98.0433 349.82 98.4121 350.275 98.8868 350.542C99.379 350.831 99.8686 350.858 100.529 350.839C101.778 350.839 103.031 350.839 104.285 350.839C157.701 350.872 206.616 350.902 243.839 350.926L243.572 351.164C247.081 326.75 249.935 306.893 251.915 293.113C252.415 289.677 252.86 286.621 253.246 283.965C253.401 282.637 253.73 281.417 253.603 280.31C253.492 279.203 253.107 278.236 252.589 277.506C251.553 276.014 250.214 275.438 249.357 275.204C248.474 274.986 247.995 275.026 247.997 274.991Z" fill="#0D151D"/>
<path d="M195.094 312.261C195.094 315.38 197.544 317.91 200.568 317.91C203.591 317.91 206.043 315.38 206.043 312.261C206.043 309.14 203.591 306.613 200.568 306.613C197.544 306.613 195.094 309.14 195.094 312.261Z" fill="#FEFEFE"/>
<path d="M148.572 350.595C148.695 350.618 151.479 333.872 154.788 313.2C158.097 292.521 160.681 275.744 160.556 275.723C160.432 275.701 157.65 292.445 154.339 313.124C151.032 333.797 148.448 350.576 148.572 350.595Z" fill="#0D151D"/>
<path d="M294.408 163.708L296.032 163.741L296.133 157.1L294.401 157.065L294.33 161.772C294.104 162.185 293.699 162.386 293.114 162.374C292.501 162.362 292.199 162.01 292.21 161.317L292.275 157.022L290.549 156.988L290.483 161.339C290.479 162.129 290.656 162.732 291.014 163.148C291.373 163.565 291.898 163.78 292.591 163.794C293.343 163.809 293.936 163.555 294.371 163.032L294.408 163.708Z" fill="black"/>
<path d="M300.59 162.49C300.418 162.615 300.168 162.674 299.837 162.668C299.483 162.661 299.201 162.571 298.993 162.399C298.784 162.227 298.674 161.983 298.663 161.668L297.027 161.635C297.021 162.036 297.135 162.412 297.368 162.762C297.602 163.113 297.927 163.391 298.344 163.598C298.761 163.805 299.241 163.914 299.782 163.925C300.583 163.941 301.238 163.767 301.75 163.403C302.261 163.039 302.521 162.554 302.53 161.948C302.543 161.102 302.096 160.497 301.19 160.135C300.897 160.018 300.536 159.912 300.107 159.815C299.678 159.719 299.374 159.608 299.195 159.484C299.016 159.359 298.928 159.199 298.931 159.003C298.934 158.794 299.016 158.624 299.177 158.492C299.339 158.36 299.564 158.297 299.855 158.303C300.193 158.31 300.441 158.398 300.598 158.567C300.755 158.736 300.831 158.947 300.827 159.2L302.553 159.235C302.563 158.601 302.325 158.081 301.839 157.674C301.353 157.267 300.7 157.055 299.88 157.039C299.112 157.023 298.486 157.208 298.005 157.593C297.523 157.979 297.278 158.466 297.269 159.055C297.254 160.066 298.012 160.752 299.544 161.115C300.004 161.222 300.338 161.34 300.545 161.469C300.752 161.598 300.854 161.771 300.851 161.988C300.848 162.197 300.761 162.364 300.59 162.49Z" fill="black"/>
<path d="M307.293 158.928C307.489 159.148 307.588 159.455 307.59 159.85L307.588 159.992L305.187 159.943C305.254 159.501 305.395 159.162 305.612 158.928C305.828 158.694 306.108 158.581 306.45 158.588C306.816 158.595 307.097 158.709 307.293 158.928ZM308.039 163.761C308.484 163.559 308.838 163.273 309.103 162.901L308.27 161.909C307.888 162.396 307.365 162.633 306.7 162.62C306.27 162.611 305.917 162.473 305.64 162.205C305.363 161.938 305.2 161.587 305.151 161.152L309.265 161.235L309.276 160.511C309.292 159.459 309.051 158.642 308.552 158.059C308.053 157.476 307.361 157.176 306.478 157.158C305.888 157.146 305.362 157.278 304.898 157.553C304.434 157.828 304.072 158.226 303.813 158.746C303.555 159.267 303.42 159.861 303.41 160.527L303.408 160.699C303.393 161.693 303.678 162.495 304.264 163.105C304.85 163.714 305.617 164.028 306.565 164.047C307.102 164.058 307.594 163.963 308.039 163.761Z" fill="black"/>
<path d="M313.946 157.374C313.78 157.317 313.601 157.287 313.409 157.283C312.795 157.271 312.311 157.566 311.955 158.169L311.919 157.376L310.286 157.343L310.186 163.988L311.914 164.023L311.98 159.675C312.19 159.224 312.622 159.006 313.275 159.019C313.455 159.023 313.662 159.043 313.896 159.081L313.946 157.374Z" fill="black"/>
<path d="M314.708 157.423L314.608 164.063L316.334 164.098L316.405 159.415C316.654 158.995 317.021 158.789 317.507 158.799C317.877 158.807 318.141 158.897 318.297 159.07C318.454 159.243 318.53 159.518 318.524 159.894L318.46 164.141L320.186 164.176L320.251 159.886C320.255 159.064 320.093 158.442 319.765 158.022C319.437 157.602 318.93 157.385 318.245 157.371C317.469 157.356 316.846 157.64 316.375 158.224L316.332 157.456L314.708 157.423Z" fill="black"/>
<path d="M323.192 162.773C323.043 162.627 322.97 162.443 322.973 162.222L322.981 162.118C323.046 161.506 323.51 161.208 324.374 161.226L325.019 161.239L325.002 162.38C324.895 162.574 324.734 162.728 324.517 162.84C324.3 162.952 324.065 163.006 323.81 163.001C323.547 162.995 323.341 162.92 323.192 162.773ZM326.962 164.298L326.964 164.194C326.802 163.867 326.723 163.389 326.729 162.759L326.772 159.881C326.783 159.136 326.558 158.553 326.096 158.133C325.635 157.712 325.006 157.494 324.21 157.477C323.684 157.467 323.209 157.55 322.784 157.728C322.359 157.906 322.029 158.156 321.793 158.478C321.557 158.801 321.436 159.155 321.431 159.539L323.157 159.574C323.16 159.325 323.246 159.13 323.413 158.99C323.581 158.85 323.81 158.783 324.1 158.789C324.431 158.796 324.671 158.893 324.822 159.08C324.972 159.267 325.045 159.514 325.041 159.821L325.035 160.201L324.241 160.185C323.281 160.17 322.545 160.346 322.031 160.712C321.518 161.078 321.256 161.613 321.245 162.316C321.237 162.889 321.438 163.368 321.848 163.753C322.258 164.138 322.78 164.337 323.413 164.349C324.082 164.363 324.629 164.134 325.054 163.664C325.087 163.902 325.141 164.102 325.218 164.263L326.962 164.298Z" fill="black"/>
<path d="M328.123 157.664L328.023 164.297L329.747 164.331L329.818 159.642C330.043 159.23 330.401 159.028 330.89 159.038C331.244 159.045 331.493 159.136 331.638 159.311C331.782 159.485 331.852 159.765 331.846 160.149L331.782 164.372L333.507 164.407L333.569 159.853C333.776 159.35 334.138 159.104 334.655 159.114C335.017 159.122 335.268 159.213 335.409 159.39C335.549 159.567 335.617 159.843 335.611 160.219L335.547 164.448L337.278 164.483L337.341 160.248C337.354 159.406 337.193 158.772 336.857 158.346C336.521 157.92 336.003 157.7 335.303 157.686C334.464 157.669 333.812 157.993 333.349 158.659C333.049 157.978 332.483 157.629 331.651 157.613C330.872 157.597 330.249 157.872 329.783 158.439L329.74 157.697L328.123 157.664Z" fill="black"/>
<path d="M342.281 159.558C342.477 159.778 342.576 160.085 342.578 160.48L342.576 160.622L340.175 160.573C340.241 160.131 340.383 159.792 340.599 159.558C340.816 159.324 341.095 159.211 341.438 159.218C341.804 159.225 342.085 159.339 342.281 159.558ZM343.026 164.391C343.471 164.189 343.826 163.903 344.091 163.531L343.257 162.539C342.876 163.026 342.353 163.263 341.688 163.25C341.258 163.241 340.904 163.103 340.628 162.835C340.351 162.568 340.188 162.217 340.139 161.782L344.253 161.865L344.264 161.141C344.28 160.089 344.038 159.272 343.54 158.689C343.041 158.106 342.349 157.806 341.465 157.788C340.876 157.776 340.35 157.908 339.885 158.183C339.421 158.458 339.06 158.856 338.801 159.376C338.542 159.897 338.408 160.491 338.398 161.157L338.395 161.329C338.38 162.323 338.666 163.125 339.252 163.735C339.838 164.344 340.605 164.658 341.553 164.677C342.09 164.688 342.581 164.593 343.026 164.391Z" fill="black"/>
<path d="M349.516 160.302C349.775 159.906 350.133 159.713 350.591 159.722C350.754 159.725 350.913 159.755 351.068 159.811L350.773 162.709C350.653 163.038 350.504 163.289 350.326 163.461C350.148 163.633 349.962 163.717 349.767 163.714C349.464 163.707 349.247 163.563 349.116 163.28C348.985 162.997 348.945 162.586 348.997 162.047C349.084 161.279 349.257 160.698 349.516 160.302ZM354.58 158.654C354.234 157.829 353.704 157.189 352.99 156.735C352.276 156.28 351.419 156.043 350.42 156.023C349.437 156.003 348.55 156.23 347.761 156.703C346.971 157.176 346.343 157.856 345.875 158.743C345.408 159.629 345.142 160.637 345.077 161.765C345.012 162.942 345.154 163.959 345.506 164.815C345.858 165.671 346.4 166.325 347.134 166.776C347.868 167.226 348.76 167.462 349.811 167.483C350.229 167.492 350.645 167.45 351.059 167.358C351.472 167.266 351.802 167.141 352.047 166.982L351.834 166.033C351.57 166.154 351.256 166.249 350.892 166.317C350.529 166.386 350.182 166.417 349.851 166.41C348.597 166.385 347.662 165.97 347.045 165.166C346.428 164.361 346.162 163.236 346.247 161.789C346.306 160.836 346.514 159.994 346.871 159.263C347.229 158.532 347.711 157.972 348.318 157.583C348.925 157.194 349.613 157.007 350.381 157.023C351.611 157.048 352.534 157.45 353.15 158.23C353.765 159.009 354.028 160.113 353.939 161.539C353.904 162.25 353.76 162.823 353.507 163.258C353.253 163.693 352.943 163.907 352.577 163.899C352.338 163.894 352.165 163.805 352.059 163.631C351.952 163.457 351.921 163.209 351.965 162.886L352.323 159.345L351.951 159.074C351.553 158.796 351.069 158.651 350.5 158.64C350.038 158.63 349.606 158.763 349.204 159.037C348.802 159.311 348.466 159.709 348.197 160.229C347.929 160.749 347.753 161.346 347.672 162.02C347.579 162.845 347.689 163.512 348 164.022C348.311 164.531 348.757 164.792 349.338 164.804C349.979 164.817 350.503 164.541 350.909 163.976C351.033 164.261 351.217 164.482 351.464 164.638C351.711 164.794 352.005 164.876 352.347 164.883C353.124 164.898 353.746 164.603 354.215 163.997C354.685 163.39 354.949 162.564 355.008 161.517C355.068 160.434 354.926 159.48 354.58 158.654Z" fill="black"/>
<path d="M358.008 160.05C358.25 159.707 358.578 159.539 358.993 159.547C359.507 159.558 359.876 159.768 360.101 160.179L360.059 162.977C359.826 163.378 359.446 163.573 358.92 163.563C358.51 163.554 358.19 163.377 357.96 163.03C357.73 162.683 357.619 162.208 357.629 161.605C357.639 160.912 357.765 160.394 358.008 160.05ZM355.902 161.512C355.887 162.543 356.114 163.376 356.585 164.01C357.056 164.644 357.679 164.969 358.456 164.984C359.106 164.997 359.633 164.777 360.039 164.322L360.033 164.678C360.026 165.141 359.893 165.495 359.634 165.742C359.376 165.989 359.017 166.107 358.559 166.098C357.946 166.086 357.427 165.827 357.005 165.323L356.223 166.389C356.45 166.7 356.786 166.958 357.234 167.161C357.681 167.365 358.142 167.472 358.616 167.481C359.241 167.494 359.789 167.392 360.258 167.176C360.728 166.961 361.094 166.641 361.358 166.216C361.622 165.791 361.758 165.288 361.766 164.707L361.863 158.285L360.297 158.253L360.216 158.878C359.829 158.371 359.281 158.11 358.572 158.096C357.771 158.079 357.13 158.378 356.649 158.99C356.167 159.603 355.919 160.419 355.903 161.438L355.902 161.512Z" fill="black"/>
<path d="M363.165 158.295L363.065 164.928L364.789 164.963L364.86 160.273C365.085 159.861 365.443 159.66 365.932 159.67C366.286 159.677 366.535 159.768 366.68 159.942C366.824 160.117 366.894 160.396 366.888 160.78L366.824 165.004L368.549 165.039L368.611 160.484C368.818 159.981 369.18 159.735 369.697 159.746C370.059 159.753 370.31 159.845 370.451 160.021C370.591 160.198 370.659 160.474 370.653 160.85L370.589 165.08L372.319 165.115L372.383 160.879C372.396 160.037 372.235 159.403 371.899 158.978C371.563 158.552 371.045 158.332 370.345 158.318C369.506 158.301 368.854 158.625 368.391 159.29C368.091 158.609 367.525 158.261 366.693 158.244C365.914 158.228 365.291 158.504 364.825 159.071L364.782 158.328L363.165 158.295Z" fill="black"/>
<path d="M375.349 163.713C375.2 163.567 375.127 163.383 375.13 163.162L375.138 163.058C375.203 162.445 375.667 162.148 376.531 162.165L377.176 162.178L377.159 163.32C377.052 163.514 376.891 163.667 376.674 163.779C376.457 163.892 376.221 163.945 375.967 163.94C375.704 163.935 375.498 163.859 375.349 163.713ZM379.119 165.238L379.121 165.133C378.958 164.807 378.88 164.328 378.885 163.698L378.929 160.82C378.94 160.076 378.715 159.493 378.253 159.072C377.792 158.652 377.163 158.433 376.367 158.417C375.841 158.406 375.366 158.49 374.941 158.668C374.516 158.845 374.186 159.095 373.95 159.418C373.714 159.741 373.593 160.094 373.588 160.479L375.314 160.514C375.317 160.264 375.403 160.07 375.57 159.93C375.737 159.79 375.967 159.723 376.257 159.729C376.588 159.735 376.828 159.832 376.979 160.019C377.129 160.207 377.202 160.454 377.197 160.76L377.192 161.141L376.397 161.125C375.438 161.11 374.701 161.285 374.188 161.651C373.675 162.017 373.413 162.552 373.402 163.256C373.394 163.829 373.595 164.308 374.005 164.692C374.415 165.077 374.937 165.276 375.57 165.289C376.239 165.302 376.786 165.074 377.211 164.604C377.243 164.842 377.298 165.041 377.375 165.203L379.119 165.238Z" fill="black"/>
<path d="M380.552 157.551C380.727 157.727 380.961 157.817 381.253 157.823C381.546 157.829 381.782 157.748 381.963 157.579C382.144 157.411 382.237 157.191 382.241 156.921C382.245 156.654 382.16 156.433 381.986 156.258C381.813 156.082 381.578 155.992 381.281 155.986C380.981 155.98 380.743 156.061 380.566 156.229C380.389 156.398 380.299 156.616 380.294 156.882C380.29 157.152 380.376 157.375 380.552 157.551ZM382.112 158.639L380.37 158.605L380.269 165.254L382.011 165.289L382.112 158.639Z" fill="black"/>
<path d="M385.38 155.907L383.636 155.873L383.492 165.313L385.235 165.348L385.38 155.907Z" fill="black"/>
<path d="M387.007 165.183C387.188 165.36 387.419 165.452 387.702 165.457C387.988 165.463 388.224 165.381 388.41 165.211C388.596 165.041 388.691 164.817 388.695 164.539C388.699 164.256 388.61 164.026 388.428 163.846C388.245 163.666 388.013 163.574 387.73 163.568C387.452 163.562 387.219 163.646 387.031 163.818C386.843 163.99 386.747 164.217 386.743 164.499C386.739 164.777 386.827 165.005 387.007 165.183Z" fill="black"/>
<path d="M391.979 163.705C391.78 163.401 391.686 162.908 391.696 162.223L391.699 162.039C391.709 161.363 391.819 160.876 392.029 160.579C392.238 160.282 392.544 160.138 392.946 160.146C393.273 160.152 393.534 160.266 393.73 160.486C393.925 160.706 394.025 160.989 394.027 161.334L395.646 161.367C395.65 160.581 395.411 159.947 394.931 159.465C394.45 158.982 393.806 158.733 392.998 158.716C392.074 158.698 391.343 158.988 390.804 159.587C390.265 160.186 389.988 160.997 389.973 162.019L389.971 162.136C389.955 163.2 390.209 164.039 390.734 164.653C391.258 165.267 391.982 165.584 392.906 165.603C393.399 165.613 393.852 165.518 394.263 165.32C394.674 165.122 395 164.838 395.241 164.468C395.481 164.098 395.607 163.689 395.618 163.239L393.999 163.206C393.987 163.504 393.88 163.742 393.678 163.918C393.476 164.094 393.216 164.178 392.898 164.172C392.483 164.164 392.177 164.008 391.979 163.705Z" fill="black"/>
<path d="M398.432 160.75C398.668 160.416 398.997 160.254 399.419 160.262C399.845 160.271 400.173 160.448 400.403 160.792C400.633 161.137 400.743 161.619 400.733 162.238C400.723 162.963 400.597 163.488 400.357 163.813C400.117 164.138 399.789 164.297 399.371 164.288C398.941 164.279 398.613 164.106 398.387 163.767C398.161 163.429 398.053 162.944 398.062 162.313C398.073 161.604 398.196 161.083 398.432 160.75ZM396.338 162.232C396.322 163.287 396.587 164.127 397.133 164.752C397.679 165.377 398.418 165.699 399.349 165.718C400.28 165.737 401.027 165.444 401.59 164.839C402.153 164.235 402.442 163.423 402.457 162.405L402.452 161.95C402.403 161.008 402.106 160.257 401.563 159.698C401.02 159.139 400.313 158.85 399.441 158.833C398.828 158.82 398.287 158.951 397.819 159.223C397.351 159.496 396.99 159.888 396.735 160.398C396.481 160.909 396.349 161.493 396.339 162.152L396.338 162.232Z" fill="black"/>
<path d="M403.552 159.023L403.452 165.656L405.176 165.691L405.247 161.001C405.472 160.589 405.829 160.388 406.318 160.398C406.672 160.405 406.922 160.496 407.066 160.67C407.211 160.845 407.28 161.124 407.275 161.508L407.211 165.732L408.935 165.767L408.998 161.212C409.204 160.709 409.566 160.463 410.083 160.474C410.445 160.481 410.697 160.573 410.837 160.749C410.978 160.926 411.045 161.202 411.04 161.578L410.976 165.808L412.706 165.843L412.77 161.607C412.783 160.765 412.621 160.131 412.285 159.705C411.95 159.28 411.432 159.06 410.732 159.046C409.892 159.029 409.241 159.353 408.777 160.018C408.477 159.337 407.911 158.989 407.08 158.972C406.3 158.956 405.677 159.232 405.211 159.799L405.169 159.056L403.552 159.023Z" fill="black"/>
<path d="M311.164 202.899L312.954 204.153L314.98 200.878L317.029 204.27L318.819 202.957L316.455 199.867L320.057 198.835L319.393 196.711L315.982 198.138L316.208 194.007H314.001L314.226 198.057L310.725 196.606L310.061 198.707L313.596 199.74L311.164 202.899Z" fill="black"/>
<path d="M321.613 202.899L323.403 204.153L325.429 200.878L327.478 204.269L329.268 202.957L326.904 199.867L330.506 198.834L329.842 196.711L326.431 198.138L326.656 194.007H324.45L324.675 198.057L321.174 196.606L320.51 198.707L324.044 199.739L321.613 202.899Z" fill="black"/>
<path d="M332.062 202.899L333.852 204.153L335.878 200.878L337.927 204.27L339.717 202.957L337.353 199.867L340.955 198.835L340.291 196.711L336.88 198.138L337.105 194.007H334.899L335.124 198.057L331.623 196.606L330.959 198.707L334.493 199.74L332.062 202.899Z" fill="black"/>
<path d="M342.504 202.898L344.293 204.153L346.32 200.877L348.368 204.269L350.158 202.956L347.794 199.867L351.396 198.834L350.732 196.711L347.321 198.138L347.547 194.007H345.34L345.565 198.057L342.064 196.606L341.4 198.706L344.935 199.739L342.504 202.898Z" fill="black"/>
<path d="M352.952 202.899L354.742 204.153L356.768 200.878L358.817 204.27L360.607 202.957L358.243 199.867L361.845 198.835L361.181 196.711L357.77 198.138L357.995 194.007H355.789L356.014 198.057L352.513 196.606L351.849 198.707L355.383 199.74L352.952 202.899Z" fill="black"/>
<path d="M363.395 202.899L365.185 204.153L367.211 200.878L369.26 204.27L371.05 202.957L368.686 199.867L372.288 198.835L371.624 196.711L368.213 198.138L368.438 194.007H366.232L366.457 198.057L362.956 196.606L362.292 198.707L365.826 199.74L363.395 202.899Z" fill="black"/>
<path d="M373.844 202.899L375.633 204.153L377.66 200.878L379.708 204.269L381.498 202.957L379.134 199.867L382.737 198.834L382.072 196.711L378.662 198.138L378.887 194.007H376.68L376.906 198.057L373.405 196.606L372.74 198.707L376.275 199.739L373.844 202.899Z" fill="black"/>
<path d="M384.283 202.899L386.073 204.153L388.099 200.878L390.148 204.27L391.938 202.957L389.574 199.867L393.176 198.835L392.512 196.711L389.101 198.138L389.326 194.007H387.12L387.345 198.057L383.844 196.606L383.18 198.707L386.714 199.74L384.283 202.899Z" fill="black"/>
<path d="M504.741 405.928H293.533C288.54 405.928 284.494 401.754 284.494 396.602V283.792C284.494 278.64 288.54 274.465 293.533 274.465H504.741C509.733 274.465 513.78 278.64 513.78 283.792V396.602C513.78 401.754 509.733 405.928 504.741 405.928Z" fill="#FEFEFE"/>
<path d="M504.742 405.927C504.739 405.886 505.357 405.94 506.523 405.706C507.663 405.447 509.422 404.836 511.073 403.148C511.886 402.307 512.634 401.186 513.122 399.809C513.386 399.126 513.524 398.367 513.628 397.576C513.686 396.782 513.675 395.937 513.669 395.06C513.661 391.55 513.649 387.506 513.636 382.952C513.608 364.72 513.568 338.359 513.519 305.791C513.515 301.718 513.51 297.551 513.506 293.289C513.505 291.157 513.502 289.001 513.5 286.824C513.449 284.645 513.724 282.413 512.858 280.42C512.077 278.424 510.571 276.717 508.668 275.733C507.719 275.24 506.679 274.924 505.611 274.813C504.558 274.73 503.407 274.784 502.298 274.769C497.82 274.774 493.259 274.775 488.619 274.779C470.056 274.79 450.222 274.801 429.351 274.813C387.609 274.823 341.719 274.835 293.551 274.845C292.104 274.853 290.669 275.228 289.397 275.926C288.145 276.653 287.043 277.675 286.266 278.922C285.499 280.17 284.989 281.602 284.898 283.077C284.828 284.556 284.879 286.136 284.863 287.656C284.863 293.794 284.862 299.892 284.862 305.946C284.86 318.051 284.857 329.978 284.856 341.698C284.853 353.419 284.85 364.932 284.847 376.208C284.845 381.845 284.843 387.423 284.84 392.938C284.85 394.308 284.818 395.709 284.862 397.044C284.922 398.36 285.265 399.656 285.859 400.816C287.053 403.138 289.262 404.842 291.721 405.378C292.934 405.674 294.231 405.549 295.538 405.579C296.833 405.579 298.127 405.58 299.415 405.582C301.99 405.583 304.551 405.585 307.094 405.586C312.179 405.589 317.195 405.592 322.139 405.593C332.026 405.601 341.628 405.606 350.91 405.611C369.471 405.628 386.763 405.644 402.548 405.659C434.112 405.71 459.655 405.75 477.324 405.779C486.142 405.81 492.991 405.835 497.653 405.851C499.966 405.867 501.734 405.881 502.939 405.89C504.131 405.903 504.742 405.927 504.742 405.927C504.742 405.927 504.131 405.953 502.939 405.966C501.734 405.973 499.966 405.988 497.653 406.006C492.991 406.022 486.142 406.045 477.324 406.077C459.655 406.105 434.112 406.146 402.548 406.196C386.763 406.21 369.471 406.225 350.91 406.243C341.628 406.248 332.026 406.257 322.139 406.263C317.195 406.266 312.179 406.267 307.094 406.27C304.551 406.272 301.99 406.273 299.415 406.275C298.127 406.275 296.833 406.276 295.538 406.276C294.259 406.248 292.924 406.383 291.579 406.066C288.925 405.488 286.542 403.656 285.253 401.152C284.612 399.9 284.238 398.501 284.173 397.079C284.126 395.677 284.159 394.324 284.147 392.938C284.146 387.423 284.144 381.845 284.142 376.208C284.139 364.932 284.136 353.419 284.133 341.698C284.132 329.978 284.129 318.051 284.127 305.946C284.127 299.892 284.126 293.794 284.126 287.656C284.143 286.11 284.088 284.616 284.163 283.017C284.262 281.417 284.815 279.86 285.647 278.507C286.49 277.154 287.685 276.046 289.044 275.258C290.423 274.5 291.985 274.089 293.551 274.082C341.719 274.092 387.609 274.104 429.351 274.114C450.222 274.126 470.056 274.137 488.619 274.149C493.259 274.152 497.82 274.155 502.298 274.158C503.427 274.175 504.509 274.12 505.669 274.211C506.808 274.332 507.919 274.67 508.93 275.198C510.956 276.251 512.559 278.074 513.387 280.202C513.808 281.262 514.03 282.399 514.049 283.533C514.053 284.636 514.056 285.733 514.059 286.824C514.057 289.001 514.055 291.157 514.053 293.289C514.049 297.551 514.045 301.718 514.04 305.791C513.991 338.359 513.951 364.72 513.923 382.952C513.91 387.506 513.9 391.55 513.89 395.06C513.889 395.934 513.896 396.778 513.829 397.597C513.717 398.406 513.57 399.179 513.295 399.874C512.785 401.275 512.012 402.41 511.179 403.256C509.481 404.954 507.692 405.546 506.537 405.782C505.946 405.877 505.499 405.93 505.195 405.922C504.893 405.933 504.742 405.927 504.742 405.927Z" fill="#0D151D"/>
<path d="M364.378 320.916V322.558H357.744V313.718H364.218V315.36H359.716V317.279H363.692V318.871H359.716V320.916H364.378Z" fill="#0D151D"/>
<path d="M373.819 313.718V322.558H372.19L367.919 317.191V322.558H365.96V313.718H367.598L371.86 319.083V313.718H373.819Z" fill="#0D151D"/>
<path d="M377.627 315.385H374.886V313.718H382.352V315.385H379.611V322.558H377.627V315.385Z" fill="#0D151D"/>
<path d="M390.051 320.916V322.558H383.418V313.718H389.892V315.36H385.39V317.279H389.365V318.871H385.39V320.916H390.051Z" fill="#0D151D"/>
<path d="M397.095 322.558L395.443 320.095H393.619V322.558H391.636V313.718H395.345C397.632 313.718 399.065 314.942 399.065 316.926C399.065 318.251 398.416 319.224 397.304 319.716L399.224 322.558H397.095ZM395.234 315.385H393.619V318.468H395.234C396.448 318.468 397.058 317.886 397.058 316.926C397.058 315.954 396.448 315.385 395.234 315.385Z" fill="#0D151D"/>
<path d="M403.56 318.138C403.56 315.474 405.543 313.565 408.211 313.565C409.692 313.565 410.928 314.121 411.738 315.131L410.463 316.344C409.888 315.662 409.165 315.308 408.309 315.308C406.706 315.308 405.567 316.47 405.567 318.138C405.567 319.805 406.706 320.968 408.309 320.968C409.165 320.968 409.888 320.611 410.463 319.918L411.738 321.132C410.928 322.154 409.692 322.71 408.2 322.71C405.543 322.71 403.56 320.803 403.56 318.138Z" fill="#0D151D"/>
<path d="M412.352 318.138C412.352 315.51 414.335 313.565 417.039 313.565C419.731 313.565 421.725 315.497 421.725 318.138C421.725 320.778 419.731 322.71 417.039 322.71C414.335 322.71 412.352 320.765 412.352 318.138ZM419.719 318.138C419.719 316.458 418.569 315.309 417.039 315.309C415.509 315.309 414.357 316.458 414.357 318.138C414.357 319.817 415.509 320.968 417.039 320.968C418.569 320.968 419.719 319.817 419.719 318.138Z" fill="#0D151D"/>
<path d="M423.222 313.718H427.114C429.918 313.718 431.839 315.461 431.839 318.139C431.839 320.816 429.918 322.558 427.114 322.558H423.222V313.718ZM427.017 320.879C428.718 320.879 429.832 319.831 429.832 318.139C429.832 316.447 428.718 315.398 427.017 315.398H425.206V320.879H427.017Z" fill="#0D151D"/>
<path d="M439.969 320.916V322.558H433.336V313.718H439.81V315.36H435.306V317.279H439.284V318.871H435.306V320.916H439.969Z" fill="#0D151D"/>
<path d="M331.866 381.676H311.056C307.962 381.676 305.454 379.089 305.454 375.896V342.454C305.454 339.26 307.962 336.675 311.056 336.675H331.866C334.96 336.675 337.467 339.26 337.467 342.454V375.896C337.467 379.089 334.96 381.676 331.866 381.676Z" fill="#E7E6E0"/>
<path d="M491.605 381.155H470.796C467.702 381.155 465.194 378.568 465.194 375.376V341.933C465.194 338.739 467.702 336.154 470.796 336.154H491.605C494.699 336.154 497.206 338.739 497.206 341.933V375.376C497.206 378.568 494.699 381.155 491.605 381.155Z" fill="#E7E6E0"/>
<path d="M371.846 381.676H351.036C347.942 381.676 345.434 379.089 345.434 375.896V342.454C345.434 339.26 347.942 336.674 351.036 336.674H371.846C374.94 336.674 377.447 339.26 377.447 342.454V375.896C377.447 379.089 374.94 381.676 371.846 381.676Z" fill="#E7E6E0"/>
<path d="M411.824 381.676H391.016C387.921 381.676 385.414 379.089 385.414 375.896V342.454C385.414 339.26 387.921 336.674 391.016 336.674H411.824C414.92 336.674 417.424 339.26 417.424 342.454V375.896C417.424 379.089 414.92 381.676 411.824 381.676Z" fill="#E7E6E0"/>
<path d="M451.797 381.676H430.987C427.893 381.676 425.385 379.089 425.385 375.896V342.454C425.385 339.26 427.893 336.675 430.987 336.675H451.797C454.891 336.675 457.398 339.26 457.398 342.454V375.896C457.398 379.089 454.891 381.676 451.797 381.676Z" fill="#E7E6E0"/>
<path d="M327.727 362.65C327.727 365.864 325.319 367.949 322.058 367.949C317.582 367.949 315.224 364.634 315.224 359.135C315.224 353.186 318.288 350.124 322.789 350.124C324.248 350.124 325.611 350.374 326.657 351.026L326.145 352.057C325.271 351.481 324.078 351.253 322.789 351.253C318.97 351.253 316.463 353.84 316.463 358.935C316.463 359.463 316.488 360.239 316.609 361.044C317.316 358.735 319.455 357.43 322.035 357.43C325.441 357.43 327.727 359.486 327.727 362.65ZM326.485 362.676C326.485 360.166 324.735 358.534 321.864 358.534C319.066 358.534 317.143 360.365 317.143 362.726C317.143 364.783 318.822 366.842 322.01 366.842C324.661 366.842 326.485 365.212 326.485 362.676Z" fill="#4A6CD1"/>
<path d="M367.986 362.952H364.408V367.822H363.193V362.952H353.486V362.022L362.73 350.25H364.116L355.044 361.823H363.217V357.531H364.408V361.823H367.986V362.952Z" fill="#4A6CD1"/>
<path d="M407.72 362.743C407.72 365.631 405.692 367.772 401.808 367.772C399.323 367.772 397.03 366.827 395.848 365.431L396.476 364.461C397.513 365.681 399.491 366.603 401.808 366.603C404.849 366.603 406.464 365.109 406.464 362.743C406.464 360.403 404.921 358.883 401.542 358.883H400.48V357.963L405.476 351.364H396.476V350.22H407.068V351.116L402.002 357.814C405.836 357.912 407.72 359.904 407.72 362.743Z" fill="#4A6CD1"/>
<path d="M447.289 350.233V351.127L440.025 367.657H438.674L445.865 351.376H436.384V354.712H435.177V350.233H447.289Z" fill="#4A6CD1"/>
<path d="M473.823 358.947C473.823 353.495 476.55 350.107 480.435 350.107C484.32 350.107 487.047 353.495 487.047 358.947C487.047 364.4 484.32 367.783 480.435 367.783C476.55 367.783 473.823 364.4 473.823 358.947ZM485.817 358.947C485.817 354.091 483.62 351.277 480.435 351.277C477.25 351.277 475.055 354.091 475.055 358.947C475.055 363.801 477.25 366.615 480.435 366.615C483.62 366.615 485.817 363.801 485.817 358.947Z" fill="#4A6CD1"/>
<path d="M487.872 370.317C487.872 370.528 484.551 370.697 480.454 370.697C476.355 370.697 473.036 370.528 473.036 370.317C473.036 370.106 476.355 369.937 480.454 369.937C484.551 369.937 487.872 370.106 487.872 370.317Z" fill="#4A6CD1"/>
<path d="M302.521 287.583C302.521 289.561 300.966 291.166 299.05 291.166C297.132 291.166 295.579 289.561 295.579 287.583C295.579 285.606 297.132 284 299.05 284C300.966 284 302.521 285.606 302.521 287.583Z" fill="#0D151D"/>
<path d="M312.529 287.583C312.529 289.561 310.974 291.166 309.057 291.166C307.139 291.166 305.584 289.561 305.584 287.583C305.584 285.606 307.139 284 309.057 284C310.974 284 312.529 285.606 312.529 287.583Z" fill="#0D151D"/>
<path d="M322.352 287.583C322.352 289.561 320.798 291.166 318.881 291.166C316.963 291.166 315.41 289.561 315.41 287.583C315.41 285.606 316.963 284 318.881 284C320.798 284 322.352 285.606 322.352 287.583Z" fill="#0D151D"/>
<path d="M514.123 297.678C514.123 297.887 462.789 298.057 399.478 298.057C336.145 298.057 284.821 297.887 284.821 297.678C284.821 297.466 336.145 297.296 399.478 297.296C462.789 297.296 514.123 297.466 514.123 297.678Z" fill="#0D151D"/>
<path d="M545.457 167.327C551.709 164.621 556.154 157.97 556.191 150.131C556.232 139.862 548.703 131.501 539.37 131.457C530.042 131.412 522.444 139.7 522.403 149.968C522.372 157.879 526.847 164.612 533.167 167.327C507.169 171.368 508.347 205.422 508.347 205.422L569.827 205.715C569.827 205.715 571.23 171.343 545.457 167.327Z" fill="#F2F1EE"/>
<path d="M581.411 55.4186V130.283H491.06V55.4186H581.411Z" fill="#F3F2EF"/>
<path d="M524.629 517.953C541.455 507.931 560.22 490.126 567.24 470.423C549.039 480.79 533.885 497.696 524.629 517.953Z" fill="#0D151D"/>
<path d="M524.913 488.587C541.739 478.566 560.505 460.762 567.525 441.056C549.324 451.423 534.169 468.329 524.913 488.587Z" fill="#0D151D"/>
<path d="M526.642 459.839C543.468 449.818 562.234 432.011 569.253 412.308C551.052 422.674 535.896 439.581 526.642 459.839Z" fill="#0D151D"/>
<path d="M529.476 429.607C545.039 417.258 561.63 396.909 566.319 376.358C549.431 389.246 536.326 408.187 529.476 429.607Z" fill="#0D151D"/>
<path d="M533.587 406.226C543.964 388.291 552.589 362.513 550.008 341.502C538.572 360.49 532.733 383.51 533.587 406.226Z" fill="#0D151D"/>
<path d="M531.767 417.199C526.743 395.477 515.101 368.867 498.87 354.228C503.876 377.555 515.576 399.954 531.767 417.199Z" fill="#0D151D"/>
<path d="M528.974 442.063C521.995 419.92 507.739 393.279 489.668 379.495C496.755 403.311 510.735 425.564 528.974 442.063Z" fill="#0D151D"/>
<path d="M525.964 472.383C518.987 450.238 504.731 423.6 486.66 409.817C493.748 433.632 507.727 455.885 525.964 472.383Z" fill="#0D151D"/>
<path d="M525.055 509.254C518.078 487.11 503.821 460.471 485.751 446.688C492.838 470.502 506.818 492.755 525.055 509.254Z" fill="#0D151D"/>
<path d="M534.649 401.79C534.637 401.787 534.604 401.908 534.55 402.148C534.492 402.427 534.419 402.776 534.327 403.211C534.139 404.203 533.875 405.574 533.541 407.313C532.861 410.876 531.985 416.051 530.998 422.459C529.999 428.866 528.97 436.519 527.982 445.034C527.029 453.552 526.143 462.932 525.464 472.798C524.81 482.668 524.433 492.081 524.23 500.644C524.062 509.207 524.057 516.918 524.183 523.39C524.299 529.862 524.471 535.098 524.665 538.71C524.761 540.474 524.838 541.863 524.892 542.87C524.923 543.31 524.948 543.666 524.969 543.95C524.99 544.194 525.006 544.319 525.018 544.317C525.03 544.317 525.036 544.191 525.038 543.947C525.038 543.661 525.037 543.304 525.034 542.862C525.013 541.855 524.98 540.462 524.942 538.696C524.832 535.08 524.733 529.846 524.68 523.377C524.618 516.911 524.677 509.206 524.88 500.651C525.117 492.098 525.515 482.696 526.168 472.839C526.845 462.984 527.716 453.612 528.63 445.099C529.581 436.59 530.556 428.938 531.491 422.527C532.414 416.117 533.216 410.933 533.813 407.359C534.089 405.611 534.309 404.233 534.467 403.236C534.53 402.797 534.58 402.444 534.621 402.16C534.651 401.918 534.661 401.791 534.649 401.79Z" fill="#0D151D"/>
<path d="M517.931 530.969C524.125 514.024 527.667 490.718 522.369 473.331C515.43 491.346 513.852 511.848 517.931 530.969Z" fill="#283C46"/>
<path d="M503.552 511.2C509.746 494.255 513.29 470.949 507.991 453.565C501.051 471.58 499.472 492.079 503.552 511.2Z" fill="#283C46"/>
<path d="M490.437 490.953C496.629 474.008 500.172 450.703 494.873 433.316C487.934 451.331 486.356 471.832 490.437 490.953Z" fill="#283C46"/>
<path d="M477.387 469.011C481.555 451.309 482.346 427.672 475.046 411.162C470.261 430.03 471.094 450.606 477.387 469.011Z" fill="#283C46"/>
<path d="M468.615 450.795C466.471 432.637 459.215 410.355 446.932 398.027C448.904 417.523 456.619 436.292 468.615 450.795Z" fill="#283C46"/>
<path d="M472.753 459.37C458.628 448.137 437.722 437.68 419.764 437.849C434.677 450.149 453.523 457.805 472.753 459.37Z" fill="#283C46"/>
<path d="M483.267 477.704C467.641 467.385 444.984 458.505 426.229 460.353C442.76 471.703 463.05 477.873 483.267 477.704Z" fill="#283C46"/>
<path d="M496.325 499.786C480.697 489.469 458.041 480.587 439.287 482.435C455.819 493.783 476.106 499.955 496.325 499.786Z" fill="#283C46"/>
<path d="M514.009 524.947C498.381 514.629 475.725 505.747 456.97 507.596C473.503 518.944 493.79 525.116 514.009 524.947Z" fill="#283C46"/>
<path d="M466.61 448.022C466.6 448.029 466.637 448.127 466.72 448.315C466.821 448.538 466.945 448.808 467.098 449.14C467.468 449.91 467.974 450.961 468.612 452.287C469.927 455.019 471.917 458.926 474.45 463.714C479.512 473.291 486.907 486.307 495.894 500.145C500.399 507.059 504.866 513.52 509.032 519.321C513.229 525.097 517.096 530.23 520.448 534.456C523.786 538.692 526.547 542.07 528.503 544.361C529.455 545.473 530.207 546.352 530.758 546.997C531 547.268 531.197 547.489 531.359 547.672C531.496 547.821 531.571 547.894 531.58 547.886C531.589 547.878 531.532 547.79 531.41 547.626C531.263 547.432 531.083 547.195 530.862 546.908C530.333 546.242 529.613 545.335 528.704 544.19C526.808 541.846 524.106 538.424 520.817 534.153C517.517 529.893 513.693 524.735 509.529 518.945C505.396 513.133 500.95 506.668 496.451 499.765C487.477 485.945 480.027 472.987 474.862 463.479C472.28 458.725 470.227 454.855 468.842 452.163C468.156 450.864 467.615 449.832 467.217 449.078C467.042 448.758 466.897 448.498 466.78 448.283C466.678 448.106 466.621 448.017 466.61 448.022Z" fill="#0D151D"/>
<path d="M484.306 531.128H559.109V546.006H551.422L544.948 588.433H498.71L492.053 546.006H484.306V531.128Z" fill="#4DA9ED"/>
<path d="M484.306 545.694C484.306 545.498 500.932 545.336 521.435 545.336C541.946 545.336 558.569 545.498 558.569 545.694C558.569 545.893 541.946 546.053 521.435 546.053C500.932 546.053 484.306 545.893 484.306 545.694Z" fill="#0D151D"/>
</svg>
