<svg width="989" height="968" viewBox="0 0 989 968" fill="none" xmlns="http://www.w3.org/2000/svg">
<g clip-path="url(#clip0_1_715)">
<path d="M989 0H0V968H989V0Z" fill="#0C576C"/>
<path d="M856.924 31.8273H132.076C81.8378 31.8273 41.1116 72.5578 41.1116 122.801V847.384C41.1116 897.628 81.8378 938.358 132.076 938.358H856.924C907.162 938.358 947.888 897.628 947.888 847.384V122.801C947.888 72.5578 907.162 31.8273 856.924 31.8273Z" stroke="#D39B2D" stroke-width="3" stroke-miterlimit="10"/>
<path d="M590.935 632.666C589.159 632.666 588.34 631.846 588.34 630.07V582.944C588.34 581.1 589.159 580.349 590.935 580.349H623.169C624.944 580.349 625.764 581.168 625.764 582.944V591.618C625.764 593.462 624.944 594.214 623.169 594.214H604.73V601.795H617.295C619.071 601.795 619.891 602.614 619.891 604.39V613.132C619.891 614.976 619.071 615.728 617.295 615.728H604.73V630.07C604.73 631.915 603.91 632.666 602.135 632.666H590.935Z" fill="#D39B2D"/>
<path d="M642.632 632.666H631.978C630.203 632.666 629.383 631.846 629.383 630.07V610.879C629.383 607.942 630.271 604.322 632.183 599.268L638.466 582.739C639.012 581.1 640.173 580.349 642.154 580.349H661.617C663.529 580.349 664.622 581.1 665.236 582.739L671.519 599.268C673.5 604.39 674.319 608.01 674.319 610.879V630.07C674.319 631.915 673.5 632.666 671.724 632.666H660.797C658.817 632.666 657.997 631.846 657.997 630.07V619.894H645.227V630.07C645.227 631.915 644.407 632.666 642.632 632.666ZM645.978 606.644H657.314L653.9 595.58C653.558 594.692 653.08 594.35 652.534 594.35H650.758C650.212 594.35 649.734 594.692 649.393 595.58L645.978 606.644Z" fill="#D39B2D"/>
<path d="M685.929 632.666C684.153 632.666 683.334 631.846 683.334 630.07V582.944C683.334 581.1 684.153 580.349 685.929 580.349H693.441C695.353 580.349 696.446 580.827 697.675 582.33L711.675 598.448V582.944C711.675 581.1 712.494 580.349 714.27 580.349H725.128C726.904 580.349 727.723 581.168 727.723 582.944V630.07C727.723 631.915 726.904 632.666 725.128 632.666H714.27C712.494 632.666 711.675 631.846 711.675 630.07V621.123L699.314 606.098V630.07C699.314 631.915 698.494 632.666 696.719 632.666H685.86H685.929Z" fill="#D39B2D"/>
<path d="M759.411 633.759C741.313 633.759 736.943 627.817 736.943 618.938V594.145C736.943 585.266 741.382 579.256 759.411 579.256C777.44 579.256 781.81 585.266 781.81 594.145V618.938C781.81 627.817 777.44 633.759 759.411 633.759ZM759.411 619.757C764.669 619.757 765.488 618.323 765.488 616.342V596.809C765.488 594.897 764.669 593.462 759.411 593.462C754.152 593.462 753.333 594.897 753.333 596.809V616.342C753.333 618.323 754.22 619.757 759.411 619.757Z" fill="#D39B2D"/>
<path d="M792.327 632.666C790.552 632.666 789.732 631.846 789.732 630.07V621.533C789.732 619.689 790.552 618.938 792.327 618.938H811.79C813.019 618.938 813.702 617.982 813.702 616.82C813.702 615.181 813.019 614.498 811.79 614.362L800.932 612.859C794.103 611.835 789.732 608.966 789.732 600.77V593.121C789.732 584.857 795.332 580.349 804.688 580.349H824.902C826.678 580.349 827.497 581.168 827.497 582.944V591.618C827.497 593.462 826.678 594.214 824.902 594.214H808.034C806.805 594.214 806.054 595.101 806.054 596.399C806.054 597.697 806.805 598.585 808.034 598.721L818.824 600.156C825.653 601.18 830.092 604.117 830.092 612.244V619.894C830.092 628.158 824.424 632.666 815.137 632.666H792.259H792.327Z" fill="#D39B2D"/>
<path d="M327.739 580.212C312.442 580.212 298.237 576.456 284.442 568.806C260.676 555.625 242.033 532.403 227.35 497.912C221.75 484.662 217.106 470.046 213.35 453.245L212.599 449.966C211.302 444.639 209.936 439.107 210.209 432.209C210.209 431.799 210.55 431.457 210.892 431.389C210.892 431.389 210.96 431.389 211.028 431.389C211.37 431.389 211.711 431.594 211.848 431.935L216.082 442.727C219.155 450.581 222.092 458.094 225.028 465.47C234.999 490.399 245.243 508.02 257.262 520.997C276.247 541.487 296.666 552.961 317.837 555.078C319.749 555.283 321.661 555.352 323.573 555.352C341.261 555.352 358.607 547.292 376.636 530.696C395.894 513.006 412.284 489.853 427.445 467.724C431.952 461.099 436.459 454.406 440.966 447.712C454.966 426.745 469.444 405.094 485.288 386.243C492.663 377.433 496.146 373.608 500.722 369.374C509.668 361.178 533.433 339.459 567.648 337.956C568.945 337.956 570.174 337.888 571.404 337.888C588.34 337.888 600.769 342.805 606.71 345.811C617.364 351.07 626.72 358.924 627.744 362.202C627.949 362.749 627.881 363.227 627.676 363.637C627.471 363.978 627.061 364.388 626.173 364.388C624.739 364.388 622.349 363.295 618.593 361.656C610.193 357.968 596.125 351.821 579.667 351.821H578.642C558.087 352.162 542.926 362.202 529.541 371.081C503.112 388.634 488.088 411.309 467.19 442.795C460.088 453.45 454.693 462.055 447.932 474.554C445.61 478.857 443.766 482.477 441.991 486.028C437.893 494.224 434.001 501.942 424.645 516.421C401.426 552.483 375.953 572.768 346.861 578.368C340.305 579.598 333.885 580.281 327.671 580.281L327.739 580.212Z" fill="#D39B2D"/>
<path d="M571.404 338.707C589.979 338.707 602.954 344.854 606.369 346.494C617.978 352.231 628.086 361.178 626.993 363.158C626.856 363.363 626.583 363.5 626.242 363.5C622.076 363.5 603.364 350.933 579.735 350.933C579.394 350.933 579.052 350.933 578.711 350.933C557.95 351.274 542.789 361.314 529.131 370.33C502.566 387.951 487.746 410.285 466.576 442.249C459.405 453.108 453.942 461.782 447.318 474.076C439.601 488.35 437.484 495.18 424.098 515.875C402.86 548.795 378.07 571.402 346.861 577.412C340.441 578.641 334.09 579.324 327.807 579.324C313.261 579.324 298.988 575.841 284.92 567.987C260.403 554.327 242.033 529.944 228.238 497.571C222.297 483.638 217.789 468.612 214.238 453.04C212.804 446.756 210.824 440.404 211.028 432.209C215.672 444.093 219.906 455.02 224.209 465.812C232.813 487.189 242.921 506.791 256.647 521.612C274.813 541.282 295.027 553.712 317.768 555.966C319.749 556.171 321.661 556.239 323.573 556.239C342.968 556.239 360.655 546.609 377.182 531.379C396.167 513.894 412.352 491.355 428.128 468.202C447.044 440.541 465.142 411.514 485.902 386.79C492.936 378.389 496.556 374.291 501.268 369.988C510.214 361.793 533.707 340.278 567.648 338.776C568.877 338.776 570.106 338.707 571.335 338.707M571.335 337C570.106 337 568.877 337 567.579 337.068C533.024 338.571 509.122 360.495 500.107 368.759C495.463 372.994 491.98 376.887 484.605 385.697C468.693 404.616 454.215 426.267 440.215 447.234C435.708 453.928 431.269 460.621 426.762 467.246C411.601 489.375 395.211 512.46 376.089 530.081C358.197 546.541 341.056 554.532 323.573 554.532C321.729 554.532 319.817 554.464 317.905 554.259C296.939 552.21 276.725 540.804 257.876 520.451C245.925 507.542 235.75 489.989 225.779 465.197C222.843 457.821 219.906 450.444 216.901 442.658L212.599 431.594C212.326 430.911 211.711 430.501 211.028 430.501C210.96 430.501 210.824 430.501 210.755 430.501C209.936 430.638 209.389 431.321 209.321 432.14C209.116 439.107 210.482 444.707 211.78 450.103C212.053 451.196 212.326 452.289 212.531 453.381C216.355 470.183 220.931 484.867 226.599 498.185C241.35 532.813 260.13 556.171 284.032 569.421C297.964 577.207 312.237 580.964 327.739 580.964C334.022 580.964 340.509 580.349 347.134 579.051C376.499 573.382 402.109 553.029 425.464 516.763C434.82 502.215 438.713 494.497 442.81 486.301C444.586 482.75 446.362 479.198 448.683 474.895C455.444 462.465 460.839 453.859 467.873 443.205C488.702 411.856 503.727 389.18 529.951 371.764C543.267 362.954 558.292 352.914 578.574 352.64H579.599C595.92 352.64 609.852 358.719 618.183 362.407C622.144 364.115 624.534 365.207 626.105 365.207C627.471 365.207 628.086 364.456 628.359 363.978C628.564 363.568 628.837 362.817 628.495 361.861C627.266 358.036 617.091 349.977 606.984 344.991C600.974 341.986 588.34 337 571.267 337H571.335Z" fill="#D39B2D"/>
<path d="M180.707 511.982C180.434 509.25 180.297 506.586 180.912 503.922C182.209 498.049 185.829 494.566 191.565 494.156C200.648 493.473 209.526 498.527 213.077 507.269C216.423 515.533 214.921 525.983 207.272 533.018C201.946 537.867 195.595 540.257 188.629 540.872C180.707 541.555 172.922 540.94 165.41 537.867C153.185 532.813 144.034 524.412 140.961 510.547C138.912 501.191 139.186 491.697 144.922 483.364C148.951 477.559 154.62 474.349 161.039 472.71C173.673 469.363 186.375 470.456 199.077 472.437C213.76 474.691 227.965 478.72 242.101 483.228C254.394 487.121 266.823 490.399 279.457 492.585C294.686 495.249 309.983 496.683 325.349 495.727C337.3 494.975 349.114 493.268 360.724 490.126C370.694 487.394 380.392 483.911 389.884 479.676C390.567 479.403 391.182 479.062 391.728 478.379C389.884 478.652 387.972 478.788 386.128 479.13C371.582 482.135 357.036 484.526 342.353 486.37C327.944 488.145 313.466 488.487 299.056 485.892C287.788 483.911 276.725 480.906 265.73 477.559C253.028 473.666 240.462 469.432 227.828 465.402C210.824 460.075 193.546 455.977 175.653 456.182C166.366 456.25 157.215 457.548 148.678 461.919C139.869 466.426 133.722 473.529 130.239 483.228C127.098 491.97 126.21 500.986 127.713 510.069C129.625 521.407 135.156 530.696 143.761 537.867C157.283 549.205 172.922 553.507 189.858 551.458C201.058 550.092 211.028 545.243 217.038 534.452C222.638 524.48 224.14 513.894 219.497 502.966C217.038 497.229 212.531 493.541 207.068 491.492C200.375 488.965 193.614 488.828 186.785 491.287C180.912 493.404 176.951 498.527 177.497 504.127C177.77 507.064 178.931 509.66 180.844 512.118L180.707 511.982Z" fill="#D39B2D"/>
<path d="M247.769 467.724C251.935 464.309 255.896 460.962 259.994 457.684C270.101 449.625 281.642 443.956 294.549 440.063C307.934 436.033 321.524 432.755 335.524 431.184C347.475 429.886 359.29 429.545 371.172 430.979C391.045 433.37 409.143 439.721 426.557 447.712C427.172 447.986 427.786 448.737 429.084 448.191C424.235 442.112 418.43 436.921 411.738 432.482C397.601 423.125 381.348 418.344 363.66 416.568C356.626 415.885 349.592 415.544 342.558 416.022C340.441 416.158 339.895 415.612 339.758 413.836C339.553 411.377 339.963 409.807 342.763 408.236C349.251 404.479 351.778 398.196 349.797 391.912C347.885 385.765 343.173 382.146 335.866 381.121C328.9 380.097 322.139 382.897 318.041 388.429C315.173 392.254 314.9 396.283 315.924 400.518C317.359 400.518 317.154 399.562 317.359 398.81C318.52 394.166 323.437 390.819 329.105 390.751C334.158 390.683 339.485 394.439 340.373 398.674C341.397 403.66 338.461 408.509 333.339 410.353C332.656 410.626 331.973 411.036 331.29 411.036C328.832 411.173 328.627 412.47 329.173 414.041C329.924 416.432 328.968 417.183 326.1 417.661C302.334 421.759 280.413 429.272 262.794 444.707C256.101 450.581 251.116 457.343 248.042 465.06C247.769 465.812 247.291 466.563 247.769 467.656V467.724Z" fill="#D39B2D"/>
<path d="M621.052 410.421C633.276 410.421 639.422 404.411 639.422 392.39C639.422 380.37 633.276 374.018 621.052 374.018C608.827 374.018 602.408 380.165 602.408 392.39C602.408 404.616 608.623 410.421 621.052 410.421Z" fill="white"/>
<path d="M793.556 410.421C805.781 410.421 811.927 404.411 811.927 392.39C811.927 380.37 805.781 374.018 793.556 374.018C781.332 374.018 774.913 380.165 774.913 392.39C774.913 404.616 781.127 410.421 793.556 410.421Z" fill="white"/>
<path d="M645.637 425.72H600.086C607.12 436.58 610.671 450.035 610.671 466.153V546.063H578.779V489.785C578.779 472.027 573.521 457.343 562.935 445.664C551.257 432.687 536.438 426.13 518.409 426.13C499.014 426.13 483.444 432.823 471.629 446.142C459.815 459.46 453.942 475.852 453.942 495.249C453.942 515.602 459.747 532.13 471.424 544.833C476.137 550.092 482.693 554.6 491.024 558.357C499.356 562.113 507.004 563.957 513.902 563.957H553.716C548.184 590.389 535.55 603.571 515.882 603.571C503.385 603.571 491.912 598.995 481.327 589.774H452.644C465.142 618.391 487.132 632.666 518.682 632.666C536.438 632.666 550.984 625.426 562.389 610.947C573.247 597.629 578.642 581.988 578.642 563.957H645.5C638.739 551.458 635.324 538.004 635.324 523.524V466.222C635.324 450.923 638.739 437.399 645.5 425.789L645.637 425.72ZM553.784 546.063H536.302C528.311 546.336 522.37 546.473 518.409 546.473C505.161 546.473 495.19 540.394 488.497 528.169C483.512 518.402 480.985 506.245 480.985 491.56C480.985 459.597 492.8 443.615 516.36 443.615C529.609 443.615 539.443 449.83 545.862 462.328C551.121 472.095 553.784 484.116 553.784 498.527V546.063Z" fill="white"/>
<path d="M843.409 446.415C831.458 432.618 816.093 425.652 797.244 425.652C778.396 425.652 763.167 432.14 751.079 445.049C738.991 458.026 732.982 474.554 732.982 494.77C732.982 514.987 738.786 531.379 750.464 544.765C751.011 545.312 751.557 545.721 752.103 545.995H699.246V394.371C699.246 379.209 702.728 365.754 709.626 354.143H664.28C670.905 366.642 674.251 380.028 674.251 394.371V523.456C674.251 537.935 670.905 551.458 664.28 563.889H795.4C814.658 563.889 830.229 557.332 842.18 544.287C854.131 531.242 860.072 514.85 860.072 495.18C860.072 475.51 854.541 459.528 843.409 446.415ZM825.107 530.969C818.756 541.282 809.468 546.404 797.244 546.404C784.337 546.404 774.503 540.189 767.537 527.69C762.279 517.651 759.615 505.63 759.615 491.492C759.615 459.528 771.566 443.546 795.4 443.546C808.512 443.546 818.414 449.761 825.107 462.26C830.366 472.027 833.029 484.048 833.029 498.459C833.029 511.572 830.366 522.431 825.107 530.969Z" fill="white"/>
<path d="M319.68 539.506C312.168 542.511 303.359 541.828 296.188 538.55C289.291 535.408 283.964 530.081 280.14 524.139C280.071 524.002 278.705 525.505 278.637 525.642C278.432 525.915 277.34 527.076 277.613 527.417C281.505 533.496 286.969 538.892 294.071 542.033C301.242 545.243 309.915 545.721 317.359 542.785C318.11 542.511 318.724 541.419 319.134 540.872C319.271 540.736 320.022 539.438 319.749 539.574L319.68 539.506Z" fill="#D39B2D"/>
</g>
<defs>
<clipPath id="clip0_1_715">
<rect width="989" height="968" fill="white"/>
</clipPath>
</defs>
</svg>
