<?xml version="1.0" encoding="UTF-8"?>
<!DOCTYPE svg PUBLIC "-//W3C//DTD SVG 1.1//EN" "http://www.w3.org/Graphics/SVG/1.1/DTD/svg11.dtd">
<svg xmlns="http://www.w3.org/2000/svg" version="1.1" width="288px" height="288px" style="shape-rendering:geometricPrecision; text-rendering:geometricPrecision; image-rendering:optimizeQuality; fill-rule:evenodd; clip-rule:evenodd" xmlns:xlink="http://www.w3.org/1999/xlink">
<g><path style="opacity:0.999" fill="#fbb24b" d="M 230.5,53.5 C 230.833,54.5 231.5,55.1667 232.5,55.5C 238.587,60.2509 243.587,65.9176 247.5,72.5C 247.427,74.0269 248.094,75.0269 249.5,75.5C 250.338,75.8417 250.672,76.5084 250.5,77.5C 250.427,79.0269 251.094,80.0269 252.5,80.5C 253.338,80.8417 253.672,81.5084 253.5,82.5C 253.427,84.0269 254.094,85.0269 255.5,85.5C 263.887,99.9987 268.887,115.665 270.5,132.5C 270.198,135.059 270.532,137.393 271.5,139.5C 271.803,148.251 271.47,156.918 270.5,165.5C 269.539,167.265 269.205,169.265 269.5,171.5C 268.106,182.011 265.106,192.011 260.5,201.5C 258.992,203.181 257.992,205.181 257.5,207.5C 248.543,226.798 235.21,242.465 217.5,254.5C 215.973,254.427 214.973,255.094 214.5,256.5C 213.71,257.401 212.71,258.068 211.5,258.5C 209.973,258.427 208.973,259.094 208.5,260.5C 206.117,262.358 203.45,263.692 200.5,264.5C 198.847,264.66 197.514,265.326 196.5,266.5C 176.38,276.256 155.047,280.256 132.5,278.5C 130.393,277.532 128.059,277.198 125.5,277.5C 113.024,276.381 101.024,273.381 89.5,268.5C 88.713,266.896 87.3797,266.229 85.5,266.5C 85.0269,265.094 84.0269,264.427 82.5,264.5C 80.847,264.34 79.5137,263.674 78.5,262.5C 78.0269,261.094 77.0269,260.427 75.5,260.5C 74.5084,260.672 73.8417,260.338 73.5,259.5C 73.0269,258.094 72.0269,257.427 70.5,257.5C 65.9289,255.262 61.9289,252.262 58.5,248.5C 58.0269,247.094 57.0269,246.427 55.5,246.5C 47.7538,240.09 41.0871,232.757 35.5,224.5C 35.573,222.973 34.9063,221.973 33.5,221.5C 32.5987,220.71 31.9321,219.71 31.5,218.5C 31.573,216.973 30.9063,215.973 29.5,215.5C 22.487,204.799 17.8204,193.132 15.5,180.5C 15.7373,179.209 15.404,178.209 14.5,177.5C 13.0925,173.317 12.4258,168.984 12.5,164.5C 12.8064,161.615 12.4731,158.948 11.5,156.5C 11.5,150.833 11.5,145.167 11.5,139.5C 12.4682,137.393 12.8016,135.059 12.5,132.5C 13.4686,120.292 16.4686,108.625 21.5,97.5C 22.3382,97.1583 22.6716,96.4916 22.5,95.5C 22.8925,93.7162 23.5592,92.0495 24.5,90.5C 25.9063,90.0269 26.573,89.0269 26.5,87.5C 26.3284,86.5084 26.6618,85.8417 27.5,85.5C 28.9063,85.0269 29.573,84.0269 29.5,82.5C 29.3284,81.5084 29.6618,80.8417 30.5,80.5C 31.9063,80.0269 32.573,79.0269 32.5,77.5C 33.9063,77.0269 34.573,76.0269 34.5,74.5C 36.1108,70.9485 38.4442,67.9485 41.5,65.5C 42.9063,65.0269 43.573,64.0269 43.5,62.5C 43.8333,61.5 44.5,60.8333 45.5,60.5C 50.4397,57.2297 54.7731,53.2297 58.5,48.5C 59.5846,46.4131 61.2512,45.0798 63.5,44.5C 65.7488,43.9202 67.4154,42.5869 68.5,40.5C 71.4658,38.0116 74.7991,36.0116 78.5,34.5C 80.0269,34.573 81.0269,33.9063 81.5,32.5C 112.264,17.5343 144.264,14.3676 177.5,23C 198.01,28.577 215.676,38.7437 230.5,53.5 Z M 197.5,51.5 C 197.973,52.9063 198.973,53.573 200.5,53.5C 205.445,56.4453 210.112,59.7786 214.5,63.5C 214.5,65.5 215.5,66.5 217.5,66.5C 218.833,68.5 220.5,70.1667 222.5,71.5C 222.833,72.5 223.5,73.1667 224.5,73.5C 224.5,74.8333 225.167,75.5 226.5,75.5C 227.167,76.5 227.833,77.5 228.5,78.5C 230.177,80.5398 231.844,82.5398 233.5,84.5C 234.248,86.3325 235.248,87.9991 236.5,89.5C 236.427,91.0269 237.094,92.0269 238.5,92.5C 240.5,96.5 242.5,100.5 244.5,104.5C 243.561,105.327 243.895,105.994 245.5,106.5C 259.055,144.724 254.722,180.724 232.5,214.5C 231.167,214.5 230.5,215.167 230.5,216.5C 229.094,216.973 228.427,217.973 228.5,219.5C 226.833,220.5 225.5,221.833 224.5,223.5C 221.167,226.167 218.167,229.167 215.5,232.5C 213.012,234.255 210.678,236.255 208.5,238.5C 206.973,238.427 205.973,239.094 205.5,240.5C 161.862,267.576 118.529,267.076 75.5,239C 71.6662,235.998 67.9995,232.831 64.5,229.5C 63.1667,227.5 61.5,225.833 59.5,224.5C 29.9569,190.262 22.4569,151.596 37,108.5C 41.0952,97.9363 46.5952,88.2696 53.5,79.5C 54.9063,79.0269 55.573,78.0269 55.5,76.5C 90.5256,39.0762 132.526,28.2428 181.5,44C 186.98,46.2407 192.313,48.7407 197.5,51.5 Z M 158.5,84.5 C 159.287,86.1042 160.62,86.7709 162.5,86.5C 163.006,88.1054 163.673,88.4387 164.5,87.5C 170.925,91.0461 177.592,94.0461 184.5,96.5C 184.973,97.9063 185.973,98.573 187.5,98.5C 188.833,98.8333 190.167,99.1667 191.5,99.5C 191.443,100.609 191.11,101.609 190.5,102.5C 178.26,107.287 166.26,112.62 154.5,118.5C 152.973,118.427 151.973,119.094 151.5,120.5C 147.963,121.267 144.629,122.6 141.5,124.5C 128.976,118.44 116.309,112.773 103.5,107.5C 102.713,105.896 101.38,105.229 99.5,105.5C 96.5919,104.046 93.5919,102.546 90.5,101C 106.682,93.0765 123.015,85.4098 139.5,78C 140.833,77.3333 142.167,77.3333 143.5,78C 148.288,80.7293 153.288,82.896 158.5,84.5 Z M 79.5,114.5 C 81.1815,116.008 83.1815,117.008 85.5,117.5C 86.3149,118.837 87.4815,119.837 89,120.5C 89.3988,120.272 89.5654,119.938 89.5,119.5C 89.8333,119.5 90.1667,119.5 90.5,119.5C 90.9731,120.906 91.9731,121.573 93.5,121.5C 94.7804,122.931 96.4471,123.598 98.5,123.5C 101.378,125.105 104.378,126.439 107.5,127.5C 108.315,128.837 109.482,129.837 111,130.5C 111.399,130.272 111.565,129.938 111.5,129.5C 113.713,130.773 116.046,131.773 118.5,132.5C 119.287,134.104 120.62,134.771 122.5,134.5C 125.378,136.105 128.378,137.439 131.5,138.5C 132.827,164.264 132.827,189.931 131.5,215.5C 113.538,207.175 95.5381,198.842 77.5,190.5C 76.8426,164.811 77.5093,139.478 79.5,114.5 Z M 204.5,114.5 C 205.827,140.069 205.827,165.736 204.5,191.5C 186.588,199.13 168.921,207.13 151.5,215.5C 150.173,189.931 150.173,164.264 151.5,138.5C 162.623,133.772 173.623,128.772 184.5,123.5C 187.241,123.293 189.574,122.293 191.5,120.5C 192.492,120.672 193.158,120.338 193.5,119.5C 195.38,119.771 196.713,119.104 197.5,117.5C 199.954,116.773 202.287,115.773 204.5,114.5 Z"/></g>
<g><path style="opacity:0.545" fill="#ffeac8" d="M 81.5,32.5 C 81.0269,33.9063 80.0269,34.573 78.5,34.5C 78.9731,33.0937 79.9731,32.427 81.5,32.5 Z"/></g>
<g><path style="opacity:0.925" fill="#ffd49a" d="M 68.5,40.5 C 67.4154,42.5869 65.7488,43.9202 63.5,44.5C 64.5846,42.4131 66.2512,41.0798 68.5,40.5 Z"/></g>
<g><path style="opacity:0.125" fill="#fff3e1" d="M 197.5,51.5 C 199.027,51.427 200.027,52.0937 200.5,53.5C 198.973,53.573 197.973,52.9063 197.5,51.5 Z"/></g>
<g><path style="opacity:0.008" fill="#fdf3e3" d="M 230.5,53.5 C 231.833,53.5 232.5,54.1667 232.5,55.5C 231.5,55.1667 230.833,54.5 230.5,53.5 Z"/></g>
<g><path style="opacity:0.965" fill="#fec578" d="M 58.5,48.5 C 54.7731,53.2297 50.4397,57.2297 45.5,60.5C 49.2269,55.7703 53.5603,51.7703 58.5,48.5 Z"/></g>
<g><path style="opacity:0.999" fill="#fbb24a" d="M 193.5,214.5 C 191.973,214.427 190.973,215.094 190.5,216.5C 185.838,218.497 181.171,220.497 176.5,222.5C 174.847,222.66 173.514,223.326 172.5,224.5C 171.833,224.833 171.167,225.167 170.5,225.5C 167.759,225.707 165.426,226.707 163.5,228.5C 157.74,231.713 151.74,234.38 145.5,236.5C 143.565,237.15 141.565,237.483 139.5,237.5C 132.38,234.773 125.38,231.773 118.5,228.5C 117.713,226.896 116.38,226.229 114.5,226.5C 96.6128,218.307 78.7795,209.973 61,201.5C 60.3333,166.167 60.3333,130.833 61,95.5C 87.6438,82.7616 114.477,70.4282 141.5,58.5C 168.554,70.4448 195.387,82.7782 222,95.5C 222.667,130.833 222.667,166.167 222,201.5C 212.672,206.248 203.172,210.581 193.5,214.5 Z M 158.5,84.5 C 159.287,86.1042 160.62,86.7709 162.5,86.5C 163.006,88.1054 163.673,88.4387 164.5,87.5C 170.925,91.0461 177.592,94.0461 184.5,96.5C 184.973,97.9063 185.973,98.573 187.5,98.5C 188.833,98.8333 190.167,99.1667 191.5,99.5C 191.443,100.609 191.11,101.609 190.5,102.5C 178.26,107.287 166.26,112.62 154.5,118.5C 152.973,118.427 151.973,119.094 151.5,120.5C 147.963,121.267 144.629,122.6 141.5,124.5C 128.976,118.44 116.309,112.773 103.5,107.5C 102.713,105.896 101.38,105.229 99.5,105.5C 96.5919,104.046 93.5919,102.546 90.5,101C 106.682,93.0765 123.015,85.4098 139.5,78C 140.833,77.3333 142.167,77.3333 143.5,78C 148.288,80.7293 153.288,82.896 158.5,84.5 Z M 79.5,114.5 C 81.1815,116.008 83.1815,117.008 85.5,117.5C 86.3149,118.837 87.4815,119.837 89,120.5C 89.3988,120.272 89.5654,119.938 89.5,119.5C 89.8333,119.5 90.1667,119.5 90.5,119.5C 90.9731,120.906 91.9731,121.573 93.5,121.5C 94.7804,122.931 96.4471,123.598 98.5,123.5C 101.378,125.105 104.378,126.439 107.5,127.5C 108.315,128.837 109.482,129.837 111,130.5C 111.399,130.272 111.565,129.938 111.5,129.5C 113.713,130.773 116.046,131.773 118.5,132.5C 119.287,134.104 120.62,134.771 122.5,134.5C 125.378,136.105 128.378,137.439 131.5,138.5C 132.827,164.264 132.827,189.931 131.5,215.5C 113.538,207.175 95.5381,198.842 77.5,190.5C 76.8426,164.811 77.5093,139.478 79.5,114.5 Z M 204.5,114.5 C 205.827,140.069 205.827,165.736 204.5,191.5C 186.588,199.13 168.921,207.13 151.5,215.5C 150.173,189.931 150.173,164.264 151.5,138.5C 162.623,133.772 173.623,128.772 184.5,123.5C 187.241,123.293 189.574,122.293 191.5,120.5C 192.492,120.672 193.158,120.338 193.5,119.5C 195.38,119.771 196.713,119.104 197.5,117.5C 199.954,116.773 202.287,115.773 204.5,114.5 Z"/></g>
<g><path style="opacity:0.761" fill="#ffdca9" d="M 43.5,62.5 C 43.573,64.0269 42.9063,65.0269 41.5,65.5C 41.427,63.9731 42.0937,62.9731 43.5,62.5 Z"/></g>
<g><path style="opacity:0.004" fill="#fffdf6" d="M 214.5,63.5 C 215.833,64.1667 216.833,65.1667 217.5,66.5C 215.5,66.5 214.5,65.5 214.5,63.5 Z"/></g>
<g><path style="opacity:0.71" fill="#ffe4be" d="M 217.5,66.5 C 220.167,67.1667 221.833,68.8333 222.5,71.5C 220.5,70.1667 218.833,68.5 217.5,66.5 Z"/></g>
<g><path style="opacity:0.004" fill="#fffcf5" d="M 224.5,73.5 C 225.5,73.8333 226.167,74.5 226.5,75.5C 225.167,75.5 224.5,74.8333 224.5,73.5 Z"/></g>
<g><path style="opacity:0.255" fill="#fdeed6" d="M 247.5,72.5 C 248.906,72.9731 249.573,73.9731 249.5,75.5C 248.094,75.0269 247.427,74.0269 247.5,72.5 Z"/></g>
<g><path style="opacity:0.557" fill="#fed7a5" d="M 34.5,74.5 C 34.573,76.0269 33.9063,77.0269 32.5,77.5C 32.427,75.9731 33.0937,74.9731 34.5,74.5 Z"/></g>
<g><path style="opacity:0.02" fill="#fff0dc" d="M 55.5,76.5 C 55.573,78.0269 54.9063,79.0269 53.5,79.5C 53.427,77.9731 54.0937,76.9731 55.5,76.5 Z"/></g>
<g><path style="opacity:0.443" fill="#ffdeb2" d="M 32.5,77.5 C 32.573,79.0269 31.9063,80.0269 30.5,80.5C 30.427,78.9731 31.0937,77.9731 32.5,77.5 Z"/></g>
<g><path style="opacity:0.975" fill="#ffd295" d="M 228.5,78.5 C 231.705,79.1299 233.371,81.1299 233.5,84.5C 231.844,82.5398 230.177,80.5398 228.5,78.5 Z"/></g>
<g><path style="opacity:0.443" fill="#ffdeb2" d="M 250.5,77.5 C 251.906,77.9731 252.573,78.9731 252.5,80.5C 251.094,80.0269 250.427,79.0269 250.5,77.5 Z"/></g>
<g><path style="opacity:0.443" fill="#ffddb1" d="M 29.5,82.5 C 29.573,84.0269 28.9063,85.0269 27.5,85.5C 27.427,83.9731 28.0937,82.9731 29.5,82.5 Z"/></g>
<g><path style="opacity:0.443" fill="#ffddb1" d="M 253.5,82.5 C 254.906,82.9731 255.573,83.9731 255.5,85.5C 254.094,85.0269 253.427,84.0269 253.5,82.5 Z"/></g>
<g><path style="opacity:0.067" fill="#ffeed3" d="M 158.5,84.5 C 160.153,84.6596 161.486,85.3263 162.5,86.5C 160.62,86.7709 159.287,86.1042 158.5,84.5 Z"/></g>
<g><path style="opacity:0.341" fill="#fef1db" d="M 162.5,86.5 C 163.492,86.3284 164.158,86.6618 164.5,87.5C 163.673,88.4387 163.006,88.1054 162.5,86.5 Z"/></g>
<g><path style="opacity:0.129" fill="#fff0db" d="M 26.5,87.5 C 26.573,89.0269 25.9063,90.0269 24.5,90.5C 24.427,88.9731 25.0937,87.9731 26.5,87.5 Z"/></g>
<g><path style="opacity:0.067" fill="#fff6e2" d="M 236.5,89.5 C 237.906,89.9731 238.573,90.9731 238.5,92.5C 237.094,92.0269 236.427,91.0269 236.5,89.5 Z"/></g>
<g><path style="opacity:0.341" fill="#fef1de" d="M 22.5,95.5 C 22.6716,96.4916 22.3382,97.1583 21.5,97.5C 20.5613,96.6726 20.8946,96.0059 22.5,95.5 Z"/></g>
<g><path style="opacity:0.012" fill="#fff6e9" d="M 184.5,96.5 C 186.027,96.427 187.027,97.0937 187.5,98.5C 185.973,98.573 184.973,97.9063 184.5,96.5 Z"/></g>
<g><path style="opacity:0.627" fill="#ffe6c1" d="M 191.5,99.5 C 194.048,101.013 193.715,102.013 190.5,102.5C 191.11,101.609 191.443,100.609 191.5,99.5 Z"/></g>
<g><path style="opacity:0.341" fill="#fef1db" d="M 244.5,104.5 C 245.338,104.842 245.672,105.508 245.5,106.5C 243.895,105.994 243.561,105.327 244.5,104.5 Z"/></g>
<g><path style="opacity:0.067" fill="#ffefd6" d="M 99.5,105.5 C 101.38,105.229 102.713,105.896 103.5,107.5C 101.847,107.34 100.514,106.674 99.5,105.5 Z"/></g>
<g><path style="opacity:0.761" fill="#fbc36e" d="M 79.5,114.5 C 77.5093,139.478 76.8426,164.811 77.5,190.5C 76.5022,165.005 76.1689,139.339 76.5,113.5C 77.791,113.263 78.791,113.596 79.5,114.5 Z"/></g>
<g><path style="opacity:0.761" fill="#fbc36f" d="M 204.5,114.5 C 204.56,113.957 204.893,113.624 205.5,113.5C 205.833,126.5 206.167,139.5 206.5,152.5C 206.499,165.851 205.833,178.851 204.5,191.5C 205.827,165.736 205.827,140.069 204.5,114.5 Z"/></g>
<g><path style="opacity:0.012" fill="#fef7ed" d="M 85.5,117.5 C 87.153,117.66 88.4863,118.326 89.5,119.5C 89.5654,119.938 89.3988,120.272 89,120.5C 87.4815,119.837 86.3149,118.837 85.5,117.5 Z"/></g>
<g><path style="opacity:0.012" fill="#fef8ed" d="M 197.5,117.5 C 196.713,119.104 195.38,119.771 193.5,119.5C 194.514,118.326 195.847,117.66 197.5,117.5 Z"/></g>
<g><path style="opacity:0.761" fill="#ffdcac" d="M 154.5,118.5 C 154.027,119.906 153.027,120.573 151.5,120.5C 151.973,119.094 152.973,118.427 154.5,118.5 Z"/></g>
<g><path style="opacity:0.125" fill="#ffeed4" d="M 90.5,119.5 C 92.0269,119.427 93.0269,120.094 93.5,121.5C 91.9731,121.573 90.9731,120.906 90.5,119.5 Z"/></g>
<g><path style="opacity:0.122" fill="#fff3e0" d="M 191.5,120.5 C 189.574,122.293 187.241,123.293 184.5,123.5C 186.426,121.707 188.759,120.707 191.5,120.5 Z"/></g>
<g><path style="opacity:0.014" fill="#fff5e6" d="M 93.5,121.5 C 95.5529,121.402 97.2196,122.069 98.5,123.5C 96.4471,123.598 94.7804,122.931 93.5,121.5 Z"/></g>
<g><path style="opacity:0.016" fill="#fff4e7" d="M 107.5,127.5 C 109.153,127.66 110.486,128.326 111.5,129.5C 111.565,129.938 111.399,130.272 111,130.5C 109.482,129.837 108.315,128.837 107.5,127.5 Z"/></g>
<g><path style="opacity:0.067" fill="#fff0d8" d="M 118.5,132.5 C 120.153,132.66 121.486,133.326 122.5,134.5C 120.62,134.771 119.287,134.104 118.5,132.5 Z"/></g>
<g><path style="opacity:0.441" fill="#fee4bf" d="M 12.5,132.5 C 12.8016,135.059 12.4682,137.393 11.5,139.5C 11.2169,138.784 10.8836,137.951 10.5,137C 11.0989,135.378 11.7656,133.878 12.5,132.5 Z"/></g>
<g><path style="opacity:0.443" fill="#fde1b6" d="M 270.5,132.5 C 271.224,134.218 271.891,136.052 272.5,138C 271.944,138.383 271.611,138.883 271.5,139.5C 270.532,137.393 270.198,135.059 270.5,132.5 Z"/></g>
<g><path style="opacity:0.999" fill="#fcb44f" d="M 105.5,160.5 C 105.027,159.094 104.027,158.427 102.5,158.5C 98.3619,157.23 94.3619,155.563 90.5,153.5C 89.1667,147.167 89.1667,140.833 90.5,134.5C 100.5,139.167 110.5,143.833 120.5,148.5C 121.833,154.833 121.833,161.167 120.5,167.5C 115.625,164.896 110.625,162.562 105.5,160.5 Z"/></g>
<g><path style="opacity:0.065" fill="#fffeed" d="M 131.5,138.5 C 132.833,151.149 133.499,164.149 133.5,177.5C 133.167,190.5 132.833,203.5 132.5,216.5C 131.893,216.376 131.56,216.043 131.5,215.5C 132.827,189.931 132.827,164.264 131.5,138.5 Z"/></g>
<g><path style="opacity:0.062" fill="#fffeed" d="M 151.5,138.5 C 150.173,164.264 150.173,189.931 151.5,215.5C 151.44,216.043 151.107,216.376 150.5,216.5C 150.167,203.5 149.833,190.5 149.5,177.5C 149.501,164.149 150.167,151.149 151.5,138.5 Z"/></g>
<g><path style="opacity:0.557" fill="#fedeb2" d="M 11.5,156.5 C 12.4731,158.948 12.8064,161.615 12.5,164.5C 11.1103,161.906 10.7769,159.239 11.5,156.5 Z"/></g>
<g><path style="opacity:0.129" fill="#ffeed5" d="M 102.5,158.5 C 104.027,158.427 105.027,159.094 105.5,160.5C 103.973,160.573 102.973,159.906 102.5,158.5 Z"/></g>
<g><path style="opacity:0.999" fill="#fcb44f" d="M 95.5,167.5 C 96.5137,168.674 97.847,169.34 99.5,169.5C 106.554,172.189 113.554,175.189 120.5,178.5C 121.833,184.833 121.833,191.167 120.5,197.5C 119.583,196.873 118.583,196.539 117.5,196.5C 117.027,195.094 116.027,194.427 114.5,194.5C 106.162,191.248 97.9954,187.582 90,183.5C 89.3333,177.167 89.3333,170.833 90,164.5C 91.8761,165.609 93.7095,166.609 95.5,167.5 Z"/></g>
<g><path style="opacity:0.71" fill="#ffdba9" d="M 270.5,165.5 C 270.938,165.435 271.272,165.601 271.5,166C 270.891,167.948 270.224,169.782 269.5,171.5C 269.205,169.265 269.539,167.265 270.5,165.5 Z"/></g>
<g><path style="opacity:0.067" fill="#ffefd5" d="M 95.5,167.5 C 97.3797,167.229 98.713,167.896 99.5,169.5C 97.847,169.34 96.5137,168.674 95.5,167.5 Z"/></g>
<g><path style="opacity:0.341" fill="#fee7c5" d="M 14.5,177.5 C 15.404,178.209 15.7373,179.209 15.5,180.5C 13.5188,179.895 13.1854,178.895 14.5,177.5 Z"/></g>
<g><path style="opacity:0.016" fill="#fff6ea" d="M 114.5,194.5 C 116.027,194.427 117.027,195.094 117.5,196.5C 115.973,196.573 114.973,195.906 114.5,194.5 Z"/></g>
<g><path style="opacity:0.129" fill="#ffefd8" d="M 260.5,201.5 C 260.539,204.089 259.539,206.089 257.5,207.5C 257.992,205.181 258.992,203.181 260.5,201.5 Z"/></g>
<g><path style="opacity:0.016" fill="#fff7ea" d="M 193.5,214.5 C 193.027,215.906 192.027,216.573 190.5,216.5C 190.973,215.094 191.973,214.427 193.5,214.5 Z"/></g>
<g><path style="opacity:0.192" fill="#ffedd7" d="M 232.5,214.5 C 232.167,215.5 231.5,216.167 230.5,216.5C 230.5,215.167 231.167,214.5 232.5,214.5 Z"/></g>
<g><path style="opacity:0.008" fill="#fff6e8" d="M 29.5,215.5 C 30.9063,215.973 31.573,216.973 31.5,218.5C 30.0937,218.027 29.427,217.027 29.5,215.5 Z"/></g>
<g><path style="opacity:0.557" fill="#fedbac" d="M 230.5,216.5 C 230.573,218.027 229.906,219.027 228.5,219.5C 228.427,217.973 229.094,216.973 230.5,216.5 Z"/></g>
<g><path style="opacity:0.008" fill="#fff4e6" d="M 33.5,221.5 C 34.9063,221.973 35.573,222.973 35.5,224.5C 34.0937,224.027 33.427,223.027 33.5,221.5 Z"/></g>
<g><path style="opacity:0.012" fill="#fef8f0" d="M 176.5,222.5 C 175.713,224.104 174.38,224.771 172.5,224.5C 173.514,223.326 174.847,222.66 176.5,222.5 Z"/></g>
<g><path style="opacity:0.71" fill="#ffe3be" d="M 59.5,224.5 C 61.5,225.833 63.1667,227.5 64.5,229.5C 61.8333,228.833 60.1667,227.167 59.5,224.5 Z"/></g>
<g><path style="opacity:0.122" fill="#fff3e0" d="M 170.5,225.5 C 168.574,227.293 166.241,228.293 163.5,228.5C 165.426,226.707 167.759,225.707 170.5,225.5 Z"/></g>
<g><path style="opacity:0.014" fill="#fffbf4" d="M 114.5,226.5 C 116.38,226.229 117.713,226.896 118.5,228.5C 116.847,228.34 115.514,227.674 114.5,226.5 Z"/></g>
<g><path style="opacity:0.643" fill="#ffdbaa" d="M 224.5,223.5 C 222.5,227.5 219.5,230.5 215.5,232.5C 218.167,229.167 221.167,226.167 224.5,223.5 Z"/></g>
<g><path style="opacity:0.012" fill="#fff2df" d="M 145.5,236.5 C 143.652,239.478 141.652,239.812 139.5,237.5C 141.565,237.483 143.565,237.15 145.5,236.5 Z"/></g>
<g><path style="opacity:0.761" fill="#ffdaa6" d="M 208.5,238.5 C 208.027,239.906 207.027,240.573 205.5,240.5C 205.973,239.094 206.973,238.427 208.5,238.5 Z"/></g>
<g><path style="opacity:0.761" fill="#ffdca9" d="M 55.5,246.5 C 57.0269,246.427 58.0269,247.094 58.5,248.5C 56.9731,248.573 55.9731,247.906 55.5,246.5 Z"/></g>
<g><path style="opacity:0.016" fill="#fff7ed" d="M 217.5,254.5 C 217.027,255.906 216.027,256.573 214.5,256.5C 214.973,255.094 215.973,254.427 217.5,254.5 Z"/></g>
<g><path style="opacity:0.443" fill="#ffdeb2" d="M 70.5,257.5 C 72.0269,257.427 73.0269,258.094 73.5,259.5C 71.9731,259.573 70.9731,258.906 70.5,257.5 Z"/></g>
<g><path style="opacity:0.004" fill="#fff9f0" d="M 211.5,258.5 C 211.027,259.906 210.027,260.573 208.5,260.5C 208.973,259.094 209.973,258.427 211.5,258.5 Z"/></g>
<g><path style="opacity:0.443" fill="#ffddb1" d="M 75.5,260.5 C 77.0269,260.427 78.0269,261.094 78.5,262.5C 76.9731,262.573 75.9731,261.906 75.5,260.5 Z"/></g>
<g><path style="opacity:0.129" fill="#ffefda" d="M 82.5,264.5 C 84.0269,264.427 85.0269,265.094 85.5,266.5C 83.9731,266.573 82.9731,265.906 82.5,264.5 Z"/></g>
<g><path style="opacity:0.125" fill="#ffedd4" d="M 200.5,264.5 C 199.713,266.104 198.38,266.771 196.5,266.5C 197.514,265.326 198.847,264.66 200.5,264.5 Z"/></g>
<g><path style="opacity:0.012" fill="#fffbf4" d="M 85.5,266.5 C 87.3797,266.229 88.713,266.896 89.5,268.5C 87.847,268.34 86.5137,267.674 85.5,266.5 Z"/></g>
<g><path style="opacity:0.431" fill="#fde0b6" d="M 125.5,277.5 C 128.059,277.198 130.393,277.532 132.5,278.5C 131.883,278.611 131.383,278.944 131,279.5C 129.052,278.891 127.218,278.224 125.5,277.5 Z"/></g>
</svg>
