<?xml version="1.0" encoding="UTF-8"?>
<!DOCTYPE svg PUBLIC "-//W3C//DTD SVG 1.1//EN" "http://www.w3.org/Graphics/SVG/1.1/DTD/svg11.dtd">
<svg xmlns="http://www.w3.org/2000/svg" version="1.1" width="706px" height="353px" style="shape-rendering:geometricPrecision; text-rendering:geometricPrecision; image-rendering:optimizeQuality; fill-rule:evenodd; clip-rule:evenodd" xmlns:xlink="http://www.w3.org/1999/xlink">
<g><path style="opacity:0.897" fill="#fafafa" d="M 465.5,80.5 C 466.415,82.7541 467.748,84.7541 469.5,86.5C 466.789,90.2119 463.456,93.2119 459.5,95.5C 459.089,93.228 457.922,92.8947 456,94.5C 454.51,93.6831 453.01,92.8498 451.5,92C 420.94,59.1441 383.273,46.1441 338.5,53C 293.818,62.3603 262.318,87.8603 244,129.5C 241.897,134.302 240.731,139.302 240.5,144.5C 246.13,143.343 251.797,142.343 257.5,141.5C 245.577,145.152 233.577,148.818 221.5,152.5C 220.833,152.5 220.167,152.5 219.5,152.5C 232.581,90.5844 269.914,52.0844 331.5,37C 383.979,28.2169 428.646,42.7169 465.5,80.5 Z M 371.5,43.5 C 400.075,43.7548 425.408,53.2548 447.5,72C 451.062,75.0584 454.062,78.5584 456.5,82.5C 454.813,83.568 453.146,83.4014 451.5,82C 437.272,68.712 420.939,58.712 402.5,52C 392.074,49.351 381.74,46.5177 371.5,43.5 Z M 344.5,41.5 C 347.187,41.3359 349.854,41.5026 352.5,42C 353.308,42.3076 353.975,42.8076 354.5,43.5C 316.862,48.2353 285.029,64.2353 259,91.5C 248.863,105.436 240.53,120.436 234,136.5C 232.211,139.179 231.045,139.013 230.5,136C 245.973,90.5279 276.639,60.5279 322.5,46C 329.967,44.4603 337.301,42.9603 344.5,41.5 Z"/></g>
<g><path style="opacity:0.227" fill="#fcddcf" d="M 376.5,64.5 C 371.553,64.7172 366.886,65.7172 362.5,67.5C 361.833,67.5 361.167,67.5 360.5,67.5C 362.761,65.745 365.428,64.5784 368.5,64C 371.367,63.1993 374.034,63.3659 376.5,64.5 Z"/></g>
<g><path style="opacity:1" fill="#e87c56" d="M 376.5,64.5 C 377.167,65.5 377.833,66.5 378.5,67.5C 373.2,66.6001 367.867,66.6001 362.5,67.5C 366.886,65.7172 371.553,64.7172 376.5,64.5 Z"/></g>
<g><path style="opacity:0.043" fill="#fee3db" d="M 376.5,64.5 C 379.167,65.1667 380.833,66.8333 381.5,69.5C 380.5,68.8333 379.5,68.1667 378.5,67.5C 377.833,66.5 377.167,65.5 376.5,64.5 Z"/></g>
<g><path style="opacity:1" fill="#f16f41" d="M 378.5,67.5 C 380.212,73.1001 381.712,78.7668 383,84.5C 384.276,86.8583 385.442,89.1916 386.5,91.5C 386.952,95.1629 387.452,98.8296 388,102.5C 388.743,105.192 389.91,107.525 391.5,109.5C 392.434,110.568 392.768,111.901 392.5,113.5C 393.216,118.46 394.549,123.126 396.5,127.5C 397.53,130.95 398.863,134.283 400.5,137.5C 400.5,138.833 400.5,140.167 400.5,141.5C 401.009,146.16 402.342,150.493 404.5,154.5C 406.006,158.875 407.339,163.209 408.5,167.5C 408.5,168.167 408.5,168.833 408.5,169.5C 408.41,172.152 409.076,174.485 410.5,176.5C 410.5,176.833 410.5,177.167 410.5,177.5C 410.457,180.91 410.957,184.243 412,187.5C 412.383,188.056 412.883,188.389 413.5,188.5C 413.5,188.833 413.5,189.167 413.5,189.5C 412.925,193.155 413.925,196.155 416.5,198.5C 416.5,198.833 416.5,199.167 416.5,199.5C 416.41,202.152 417.076,204.485 418.5,206.5C 419.434,207.568 419.768,208.901 419.5,210.5C 419.41,213.152 420.076,215.485 421.5,217.5C 421.41,220.152 422.076,222.485 423.5,224.5C 423.41,227.152 424.076,229.485 425.5,231.5C 427.167,235.636 426.5,239.47 423.5,243C 421.975,244.009 420.308,244.509 418.5,244.5C 415.807,244.572 413.14,244.905 410.5,245.5C 408.307,245.281 406.307,244.615 404.5,243.5C 403.263,242.035 402.263,240.368 401.5,238.5C 397.172,221.847 392.839,205.181 388.5,188.5C 387.179,183.942 386.346,179.276 386,174.5C 385.262,171.499 384.096,168.832 382.5,166.5C 381.833,166.5 381.5,166.167 381.5,165.5C 378.372,151.155 374.372,137.155 369.5,123.5C 369.371,121.784 369.038,120.117 368.5,118.5C 366.326,109.254 363.66,100.254 360.5,91.5C 359.812,87.4163 358.812,83.4163 357.5,79.5C 357.585,74.8697 359.252,70.8697 362.5,67.5C 367.867,66.6001 373.2,66.6001 378.5,67.5 Z"/></g>
<g><path style="opacity:1" fill="#e2815d" d="M 360.5,67.5 C 361.167,67.5 361.833,67.5 362.5,67.5C 359.252,70.8697 357.585,74.8697 357.5,79.5C 357.5,76.5 357.5,73.5 357.5,70.5C 358.833,69.8333 359.833,68.8333 360.5,67.5 Z"/></g>
<g><path style="opacity:0.188" fill="#fde5d9" d="M 360.5,67.5 C 359.833,68.8333 358.833,69.8333 357.5,70.5C 357.5,68.5 358.5,67.5 360.5,67.5 Z"/></g>
<g><path style="opacity:0.09" fill="#fce6d9" d="M 381.5,69.5 C 383.277,72.5046 384.277,75.8379 384.5,79.5C 382.723,76.4954 381.723,73.1621 381.5,69.5 Z"/></g>
<g><path style="opacity:0.693" fill="#f9f9fa" d="M 282.5,134.5 C 282.5,134.833 282.5,135.167 282.5,135.5C 281.549,136.919 281.216,138.585 281.5,140.5C 280.566,139.432 280.232,138.099 280.5,136.5C 272.722,137.695 265.055,139.362 257.5,141.5C 260.227,140.295 262.727,138.628 265,136.5C 282.408,99.8771 311.242,79.0438 351.5,74C 352.833,75.3333 352.833,76.6667 351.5,78C 316.692,82.8443 290.525,100.344 273,130.5C 272.727,132.101 272.227,133.601 271.5,135C 275.188,135.45 278.854,135.283 282.5,134.5 Z"/></g>
<g><path style="opacity:1" fill="#e6805c" d="M 378.5,67.5 C 379.5,68.1667 380.5,68.8333 381.5,69.5C 381.723,73.1621 382.723,76.4954 384.5,79.5C 384.958,83.5384 385.624,87.5384 386.5,91.5C 385.442,89.1916 384.276,86.8583 383,84.5C 381.712,78.7668 380.212,73.1001 378.5,67.5 Z"/></g>
<g><path style="opacity:0.585" fill="#fbfbfb" d="M 436.5,113.5 C 423.92,99.283 408.587,88.9497 390.5,82.5C 389.11,80.5054 389.61,79.172 392,78.5C 409.811,84.7365 425.144,94.7365 438,108.5C 438.613,110.495 438.113,112.162 436.5,113.5 Z"/></g>
<g><path style="opacity:0.059" fill="#fbede8" d="M 465.5,80.5 C 467.679,80.84 469.512,81.84 471,83.5C 474.881,79.1775 477.714,79.8441 479.5,85.5C 476.773,88.2325 473.773,90.5658 470.5,92.5C 472.127,90.3702 473.96,88.3702 476,86.5C 476.483,85.552 476.649,84.552 476.5,83.5C 473.805,83.6815 471.472,84.6815 469.5,86.5C 467.748,84.7541 466.415,82.7541 465.5,80.5 Z"/></g>
<g><path style="opacity:0.557" fill="#fcdcd1" d="M 384.5,79.5 C 386.591,84.1906 387.924,89.1906 388.5,94.5C 387.833,93.5 387.167,92.5 386.5,91.5C 385.624,87.5384 384.958,83.5384 384.5,79.5 Z"/></g>
<g><path style="opacity:1" fill="#fcc14c" d="M 357.5,79.5 C 358.812,83.4163 359.812,87.4163 360.5,91.5C 360.626,95.9229 361.293,100.256 362.5,104.5C 362.291,105.086 361.957,105.586 361.5,106C 364.761,109.692 367.094,113.859 368.5,118.5C 369.038,120.117 369.371,121.784 369.5,123.5C 369.841,128.373 371.008,133.04 373,137.5C 372.946,143.843 374.446,149.343 377.5,154C 378.621,158.027 379.955,161.861 381.5,165.5C 381.5,166.167 381.833,166.5 382.5,166.5C 383.942,172.109 385.109,177.776 386,183.5C 386.374,185.491 387.207,187.158 388.5,188.5C 392.839,205.181 397.172,221.847 401.5,238.5C 398.978,237.989 396.645,236.989 394.5,235.5C 393.101,234.11 391.434,233.11 389.5,232.5C 389.167,232.5 388.833,232.5 388.5,232.5C 386.824,230.166 384.491,229.166 381.5,229.5C 377.89,228.297 374.223,227.297 370.5,226.5C 368.485,225.076 366.152,224.41 363.5,224.5C 362.833,224.5 362.167,224.5 361.5,224.5C 355.74,223 349.74,222.333 343.5,222.5C 337.26,222.333 331.26,223 325.5,224.5C 318.995,225.043 312.662,226.376 306.5,228.5C 306.672,227.508 306.338,226.842 305.5,226.5C 305.247,222.96 304.581,219.627 303.5,216.5C 302.833,215.167 302.167,213.833 301.5,212.5C 301.244,209.402 300.578,206.402 299.5,203.5C 299.5,202.167 299.5,200.833 299.5,199.5C 299.339,196.32 298.339,193.653 296.5,191.5C 296.543,188.09 296.043,184.757 295,181.5C 294.623,180.058 293.79,179.058 292.5,178.5C 292.5,177.167 292.5,175.833 292.5,174.5C 292.241,171.728 291.241,169.395 289.5,167.5C 289.5,167.167 289.5,166.833 289.5,166.5C 289.975,163.918 289.308,161.918 287.5,160.5C 287.88,158.302 287.213,156.635 285.5,155.5C 285.795,153.265 285.461,151.265 284.5,149.5C 284.812,145.325 284.145,141.325 282.5,137.5C 282.863,136.817 283.196,136.15 283.5,135.5C 284.5,135.5 285.5,135.5 286.5,135.5C 289.152,135.59 291.485,134.924 293.5,133.5C 296.152,133.59 298.485,132.924 300.5,131.5C 308.321,127.423 315.988,123.09 323.5,118.5C 327.363,117.306 330.363,114.973 332.5,111.5C 334.833,108.5 337.5,105.833 340.5,103.5C 345.647,99.0205 349.647,93.6872 352.5,87.5C 353.669,84.4887 355.336,81.822 357.5,79.5 Z"/></g>
<g><path style="opacity:0.882" fill="#f5c972" d="M 352.5,87.5 C 349.647,93.6872 345.647,99.0205 340.5,103.5C 344.122,97.8785 348.122,92.5451 352.5,87.5 Z"/></g>
<g><path style="opacity:1" fill="#e87952" d="M 470.5,92.5 C 454.741,105.419 439.408,118.919 424.5,133C 423.207,133.49 421.873,133.657 420.5,133.5C 420.744,130.737 422.077,128.571 424.5,127C 436.362,116.634 448.028,106.134 459.5,95.5C 463.456,93.2119 466.789,90.2119 469.5,86.5C 471.472,84.6815 473.805,83.6815 476.5,83.5C 476.649,84.552 476.483,85.552 476,86.5C 473.96,88.3702 472.127,90.3702 470.5,92.5 Z"/></g>
<g><path style="opacity:1" fill="#e77d57" d="M 386.5,91.5 C 387.167,92.5 387.833,93.5 388.5,94.5C 389.623,99.4462 390.623,104.446 391.5,109.5C 389.91,107.525 388.743,105.192 388,102.5C 387.452,98.8296 386.952,95.1629 386.5,91.5 Z"/></g>
<g><path style="opacity:0.133" fill="#fadccd" d="M 388.5,94.5 C 391.639,102.491 393.972,110.825 395.5,119.5C 394.5,117.5 393.5,115.5 392.5,113.5C 392.768,111.901 392.434,110.568 391.5,109.5C 390.623,104.446 389.623,99.4462 388.5,94.5 Z"/></g>
<g><path style="opacity:1" fill="#fcb34e" d="M 360.5,91.5 C 363.66,100.254 366.326,109.254 368.5,118.5C 367.094,113.859 364.761,109.692 361.5,106C 361.957,105.586 362.291,105.086 362.5,104.5C 361.293,100.256 360.626,95.9229 360.5,91.5 Z"/></g>
<g><path style="opacity:0.341" fill="#fdeccc" d="M 357.5,70.5 C 357.5,73.5 357.5,76.5 357.5,79.5C 355.336,81.822 353.669,84.4887 352.5,87.5C 348.122,92.5451 344.122,97.8785 340.5,103.5C 337.5,105.833 334.833,108.5 332.5,111.5C 329.208,113.458 326.208,115.791 323.5,118.5C 315.988,123.09 308.321,127.423 300.5,131.5C 297.848,131.41 295.515,132.076 293.5,133.5C 290.848,133.41 288.515,134.076 286.5,135.5C 285.5,135.5 284.5,135.5 283.5,135.5C 283.167,135.5 282.833,135.5 282.5,135.5C 282.5,135.167 282.5,134.833 282.5,134.5C 313.165,127.325 336.665,110.325 353,83.5C 354.711,79.1302 356.211,74.7969 357.5,70.5 Z"/></g>
<g><path style="opacity:1" fill="#f5c668" d="M 332.5,111.5 C 330.363,114.973 327.363,117.306 323.5,118.5C 326.208,115.791 329.208,113.458 332.5,111.5 Z"/></g>
<g><path style="opacity:0.565" fill="#fbf8f7" d="M 463.5,133.5 C 458.862,135.783 453.862,137.116 448.5,137.5C 448.918,136.778 449.584,136.278 450.5,136C 447.632,132.077 445.132,127.91 443,123.5C 442.51,122.207 442.343,120.873 442.5,119.5C 444.239,118.566 445.905,118.566 447.5,119.5C 449.647,124.46 452.314,129.127 455.5,133.5C 458.089,134.205 460.756,134.205 463.5,133.5 Z"/></g>
<g><path style="opacity:0.094" fill="#fcdfcf" d="M 395.5,119.5 C 397.466,124.242 398.966,129.242 400,134.5C 401.409,135.781 402.909,136.781 404.5,137.5C 403.833,137.5 403.167,137.5 402.5,137.5C 401.833,137.5 401.167,137.5 400.5,137.5C 398.863,134.283 397.53,130.95 396.5,127.5C 396.167,124.833 395.833,122.167 395.5,119.5 Z"/></g>
<g><path style="opacity:0.098" fill="#fce2d6" d="M 470.5,92.5 C 470.5,93.1667 470.5,93.8333 470.5,94.5C 469.833,94.5 469.5,94.8333 469.5,95.5C 468.833,95.5 468.5,95.8333 468.5,96.5C 459.234,103.43 450.567,111.096 442.5,119.5C 436.493,123.851 430.826,128.685 425.5,134C 421.132,136.557 418.965,135.39 419,130.5C 425.411,125.253 431.245,119.586 436.5,113.5C 444.167,107.5 451.833,101.5 459.5,95.5C 448.028,106.134 436.362,116.634 424.5,127C 422.077,128.571 420.744,130.737 420.5,133.5C 421.873,133.657 423.207,133.49 424.5,133C 439.408,118.919 454.741,105.419 470.5,92.5 Z"/></g>
<g><path style="opacity:0.961" fill="#e48360" d="M 392.5,113.5 C 393.5,115.5 394.5,117.5 395.5,119.5C 395.833,122.167 396.167,124.833 396.5,127.5C 394.549,123.126 393.216,118.46 392.5,113.5 Z"/></g>
<g><path style="opacity:1" fill="#e49376" d="M 496.5,129.5 C 496.5,128.5 496.5,127.5 496.5,126.5C 492.833,127.167 489.167,127.833 485.5,128.5C 489.098,126.308 493.098,125.308 497.5,125.5C 497.768,127.099 497.434,128.432 496.5,129.5 Z"/></g>
<g><path style="opacity:0.478" fill="#fbddd2" d="M 479.5,128.5 C 480.5,128.5 481.5,128.5 482.5,128.5C 477.535,130.292 472.535,131.959 467.5,133.5C 466.167,133.5 464.833,133.5 463.5,133.5C 468.547,131.233 473.88,129.566 479.5,128.5 Z"/></g>
<g><path style="opacity:1" fill="#f4ca75" d="M 300.5,131.5 C 298.485,132.924 296.152,133.59 293.5,133.5C 295.515,132.076 297.848,131.41 300.5,131.5 Z"/></g>
<g><path style="opacity:1" fill="#e87850" d="M 496.5,129.5 C 496.167,129.5 495.833,129.5 495.5,129.5C 485.37,132.617 475.036,135.283 464.5,137.5C 462.801,137.66 461.134,137.494 459.5,137C 462.309,135.907 464.976,134.74 467.5,133.5C 472.535,131.959 477.535,130.292 482.5,128.5C 483.5,128.5 484.5,128.5 485.5,128.5C 489.167,127.833 492.833,127.167 496.5,126.5C 496.5,127.5 496.5,128.5 496.5,129.5 Z"/></g>
<g><path style="opacity:0.89" fill="#f4ce82" d="M 293.5,133.5 C 291.485,134.924 289.152,135.59 286.5,135.5C 288.515,134.076 290.848,133.41 293.5,133.5 Z"/></g>
<g><path style="opacity:1" fill="#74bde7" d="M 281.5,140.5 C 281.5,140.833 281.5,141.167 281.5,141.5C 281.971,147.234 283.305,152.567 285.5,157.5C 286.404,158.209 286.737,159.209 286.5,160.5C 286.259,162.898 286.926,164.898 288.5,166.5C 288.676,169.727 289.343,172.727 290.5,175.5C 290.861,179.915 292.194,183.915 294.5,187.5C 295.434,188.568 295.768,189.901 295.5,191.5C 295.259,193.898 295.926,195.898 297.5,197.5C 297.5,197.833 297.5,198.167 297.5,198.5C 298.038,200.117 298.371,201.784 298.5,203.5C 298.69,206.855 299.69,209.855 301.5,212.5C 300.964,215.698 301.631,218.365 303.5,220.5C 303.259,222.898 303.926,224.898 305.5,226.5C 305.762,227.978 305.429,229.311 304.5,230.5C 303.261,230.942 302.261,231.609 301.5,232.5C 300.432,233.434 299.099,233.768 297.5,233.5C 295.219,233.077 293.552,233.744 292.5,235.5C 291.735,235.077 290.902,234.743 290,234.5C 276.633,238.196 263.466,242.196 250.5,246.5C 240.733,246.452 231.733,243.785 223.5,238.5C 221.5,235.833 219.167,233.5 216.5,231.5C 213.188,224.205 210.188,216.871 207.5,209.5C 207.165,203.992 205.998,198.659 204,193.5C 201.12,175.943 206.954,162.277 221.5,152.5C 233.577,148.818 245.577,145.152 257.5,141.5C 265.055,139.362 272.722,137.695 280.5,136.5C 280.232,138.099 280.566,139.432 281.5,140.5 Z"/></g>
<g><path style="opacity:1" fill="#fcc051" d="M 400.5,137.5 C 401.167,137.5 401.833,137.5 402.5,137.5C 404.568,138.375 406.568,139.541 408.5,141C 410.141,142.129 411.141,143.629 411.5,145.5C 411.863,148.563 412.53,151.563 413.5,154.5C 413.16,156.512 412.827,158.512 412.5,160.5C 411.431,162.969 410.098,165.302 408.5,167.5C 407.339,163.209 406.006,158.875 404.5,154.5C 403.943,149.835 402.61,145.502 400.5,141.5C 400.5,140.167 400.5,138.833 400.5,137.5 Z"/></g>
<g><path style="opacity:1" fill="#fcb24e" d="M 369.5,123.5 C 374.372,137.155 378.372,151.155 381.5,165.5C 379.955,161.861 378.621,158.027 377.5,154C 374.446,149.343 372.946,143.843 373,137.5C 371.008,133.04 369.841,128.373 369.5,123.5 Z"/></g>
<g><path style="opacity:1" fill="#e67f5b" d="M 463.5,133.5 C 464.833,133.5 466.167,133.5 467.5,133.5C 464.976,134.74 462.309,135.907 459.5,137C 461.134,137.494 462.801,137.66 464.5,137.5C 461.924,138.488 459.257,139.488 456.5,140.5C 456.953,139.542 457.619,138.708 458.5,138C 456.5,137.333 454.5,137.333 452.5,138C 448.91,139.53 445.243,140.864 441.5,142C 442.793,142.49 444.127,142.657 445.5,142.5C 441.886,144.701 437.886,146.034 433.5,146.5C 435.116,145.011 437.116,144.011 439.5,143.5C 438.311,142.571 436.978,142.238 435.5,142.5C 440,141.291 444.333,139.624 448.5,137.5C 453.862,137.116 458.862,135.783 463.5,133.5 Z"/></g>
<g><path style="opacity:0.683" fill="#fbf8f7" d="M 458.5,142.5 C 461.131,148.749 462.131,155.249 461.5,162C 460.167,162.333 458.833,162.667 457.5,163C 459.708,163.191 461.708,163.691 463.5,164.5C 462.167,164.5 460.833,164.5 459.5,164.5C 458.167,164.5 456.833,164.5 455.5,164.5C 453.485,163.076 451.152,162.41 448.5,162.5C 447.209,162.737 446.209,162.404 445.5,161.5C 449.215,161.423 452.881,161.756 456.5,162.5C 455.698,156.322 454.198,150.322 452,144.5C 451.329,143.748 450.496,143.414 449.5,143.5C 452.366,141.994 455.366,141.66 458.5,142.5 Z"/></g>
<g><path style="opacity:1" fill="#e2c474" d="M 282.5,135.5 C 282.833,135.5 283.167,135.5 283.5,135.5C 283.196,136.15 282.863,136.817 282.5,137.5C 284.145,141.325 284.812,145.325 284.5,149.5C 283.749,146.754 282.749,144.087 281.5,141.5C 281.5,141.167 281.5,140.833 281.5,140.5C 281.216,138.585 281.549,136.919 282.5,135.5 Z"/></g>
<g><path style="opacity:0.118" fill="#fbded0" d="M 495.5,129.5 C 495.167,130.167 494.833,130.833 494.5,131.5C 494.167,131.5 493.833,131.5 493.5,131.5C 488.434,133.089 483.434,134.755 478.5,136.5C 473.108,137.352 467.775,138.518 462.5,140C 460.68,140.2 459.347,141.034 458.5,142.5C 455.366,141.66 452.366,141.994 449.5,143.5C 441.865,146.65 433.865,148.483 425.5,149C 424.065,146.733 424.398,144.733 426.5,143C 433.774,140.848 441.108,139.015 448.5,137.5C 444.333,139.624 440,141.291 435.5,142.5C 433.901,142.232 432.568,142.566 431.5,143.5C 428.722,143.022 426.722,144.022 425.5,146.5C 425.887,147.72 426.72,148.387 428,148.5C 429.728,148.101 431.228,147.434 432.5,146.5C 432.833,146.5 433.167,146.5 433.5,146.5C 437.886,146.034 441.886,144.701 445.5,142.5C 449.167,141.833 452.833,141.167 456.5,140.5C 459.257,139.488 461.924,138.488 464.5,137.5C 475.036,135.283 485.37,132.617 495.5,129.5 Z"/></g>
<g><path style="opacity:1" fill="#eb744b" d="M 435.5,142.5 C 436.978,142.238 438.311,142.571 439.5,143.5C 437.116,144.011 435.116,145.011 433.5,146.5C 433.167,146.5 432.833,146.5 432.5,146.5C 426.189,146.853 425.855,145.853 431.5,143.5C 432.568,142.566 433.901,142.232 435.5,142.5 Z"/></g>
<g><path style="opacity:1" fill="#ea7247" d="M 456.5,140.5 C 452.833,141.167 449.167,141.833 445.5,142.5C 444.127,142.657 442.793,142.49 441.5,142C 445.243,140.864 448.91,139.53 452.5,138C 454.5,137.333 456.5,137.333 458.5,138C 457.619,138.708 456.953,139.542 456.5,140.5 Z"/></g>
<g><path style="opacity:0.973" fill="#e18767" d="M 431.5,143.5 C 425.855,145.853 426.189,146.853 432.5,146.5C 431.228,147.434 429.728,148.101 428,148.5C 426.72,148.387 425.887,147.72 425.5,146.5C 426.722,144.022 428.722,143.022 431.5,143.5 Z"/></g>
<g><path style="opacity:1" fill="#98bbba" d="M 281.5,141.5 C 282.749,144.087 283.749,146.754 284.5,149.5C 285.461,151.265 285.795,153.265 285.5,155.5C 285.5,156.167 285.5,156.833 285.5,157.5C 283.305,152.567 281.971,147.234 281.5,141.5 Z"/></g>
<g><path style="opacity:1" fill="#f08940" d="M 400.5,141.5 C 402.61,145.502 403.943,149.835 404.5,154.5C 402.342,150.493 401.009,146.16 400.5,141.5 Z"/></g>
<g><path style="opacity:0.851" fill="#f4c870" d="M 411.5,145.5 C 413.927,147.508 414.927,150.174 414.5,153.5C 414.684,156.205 414.017,158.538 412.5,160.5C 412.827,158.512 413.16,156.512 413.5,154.5C 412.53,151.563 411.863,148.563 411.5,145.5 Z"/></g>
<g><path style="opacity:0.153" fill="#fef0d4" d="M 402.5,137.5 C 403.167,137.5 403.833,137.5 404.5,137.5C 409.425,139.257 412.925,142.59 415,147.5C 416.677,154.904 415.344,161.57 411,167.5C 410.506,169.134 410.34,170.801 410.5,172.5C 409.833,171.5 409.167,170.5 408.5,169.5C 408.5,168.833 408.5,168.167 408.5,167.5C 410.098,165.302 411.431,162.969 412.5,160.5C 414.017,158.538 414.684,156.205 414.5,153.5C 414.927,150.174 413.927,147.508 411.5,145.5C 411.141,143.629 410.141,142.129 408.5,141C 406.568,139.541 404.568,138.375 402.5,137.5 Z"/></g>
<g><path style="opacity:1" fill="#c1c194" d="M 285.5,155.5 C 287.213,156.635 287.88,158.302 287.5,160.5C 287.167,160.5 286.833,160.5 286.5,160.5C 286.737,159.209 286.404,158.209 285.5,157.5C 285.5,156.833 285.5,156.167 285.5,155.5 Z"/></g>
<g><path style="opacity:0.427" fill="#efb29a" d="M 432.5,159.5 C 433.5,159.5 434.5,159.5 435.5,159.5C 435.833,159.5 436.167,159.5 436.5,159.5C 437.833,160.167 439.167,160.833 440.5,161.5C 437.505,161.706 434.838,161.04 432.5,159.5 Z"/></g>
<g><path style="opacity:0.039" fill="#ffebe6" d="M 436.5,159.5 C 439.829,159.215 442.829,159.882 445.5,161.5C 443.833,161.5 442.167,161.5 440.5,161.5C 439.167,160.833 437.833,160.167 436.5,159.5 Z"/></g>
<g><path style="opacity:1" fill="#e0c474" d="M 287.5,160.5 C 289.308,161.918 289.975,163.918 289.5,166.5C 289.167,166.5 288.833,166.5 288.5,166.5C 288.483,164.435 288.15,162.435 287.5,160.5 Z"/></g>
<g><path style="opacity:0.22" fill="#fadbcc" d="M 435.5,159.5 C 434.5,159.5 433.5,159.5 432.5,159.5C 431.167,159.5 429.833,159.5 428.5,159.5C 428.33,160.822 428.663,161.989 429.5,163C 433.28,163.918 436.946,164.751 440.5,165.5C 439.167,165.5 437.833,165.5 436.5,165.5C 430.45,166.675 427.45,164.342 427.5,158.5C 430.385,158.194 433.052,158.527 435.5,159.5 Z"/></g>
<g><path style="opacity:1" fill="#94bbbe" d="M 286.5,160.5 C 286.833,160.5 287.167,160.5 287.5,160.5C 288.15,162.435 288.483,164.435 288.5,166.5C 286.926,164.898 286.259,162.898 286.5,160.5 Z"/></g>
<g><path style="opacity:0.706" fill="#eca890" d="M 448.5,162.5 C 451.152,162.41 453.485,163.076 455.5,164.5C 452.848,164.59 450.515,163.924 448.5,162.5 Z"/></g>
<g><path style="opacity:0.114" fill="#f9d4c5" d="M 459.5,164.5 C 460.833,164.5 462.167,164.5 463.5,164.5C 470.173,165.502 476.84,166.502 483.5,167.5C 484.5,168.167 485.5,168.833 486.5,169.5C 477.247,168.571 468.247,166.904 459.5,164.5 Z"/></g>
<g><path style="opacity:0.141" fill="#fce1d6" d="M 436.5,165.5 C 437.833,165.5 439.167,165.5 440.5,165.5C 448.725,166.677 456.725,168.344 464.5,170.5C 463.5,170.5 462.5,170.5 461.5,170.5C 452.993,169.141 444.659,167.475 436.5,165.5 Z"/></g>
<g><path style="opacity:1" fill="#e3c572" d="M 289.5,167.5 C 291.241,169.395 292.241,171.728 292.5,174.5C 291.833,174.167 291.167,173.833 290.5,173.5C 290.483,171.435 290.15,169.435 289.5,167.5 Z"/></g>
<g><path style="opacity:1" fill="#e87a53" d="M 432.5,159.5 C 434.838,161.04 437.505,161.706 440.5,161.5C 442.167,161.5 443.833,161.5 445.5,161.5C 446.209,162.404 447.209,162.737 448.5,162.5C 450.515,163.924 452.848,164.59 455.5,164.5C 456.833,164.5 458.167,164.5 459.5,164.5C 468.247,166.904 477.247,168.571 486.5,169.5C 491.23,171.237 496.23,172.237 501.5,172.5C 501.5,173.833 501.5,175.167 501.5,176.5C 499.5,176.5 497.5,176.5 495.5,176.5C 486.824,173.755 477.824,172.089 468.5,171.5C 467.432,170.566 466.099,170.232 464.5,170.5C 456.725,168.344 448.725,166.677 440.5,165.5C 436.946,164.751 433.28,163.918 429.5,163C 428.663,161.989 428.33,160.822 428.5,159.5C 429.833,159.5 431.167,159.5 432.5,159.5 Z"/></g>
<g><path style="opacity:0.646" fill="#fafafa" d="M 461.5,170.5 C 462.5,170.5 463.5,170.5 464.5,170.5C 466.099,170.232 467.432,170.566 468.5,171.5C 466.801,171.34 465.134,171.506 463.5,172C 463.74,208.186 449.74,237.519 421.5,260C 386.434,282.635 349.767,285.468 311.5,268.5C 310.571,269.689 310.238,271.022 310.5,272.5C 308.463,269.416 306.797,266.083 305.5,262.5C 305.5,262.167 305.5,261.833 305.5,261.5C 308.079,262.228 310.746,262.728 313.5,263C 346.435,280.099 379.102,279.432 411.5,261C 442.668,239.837 458.501,210.337 459,172.5C 459.995,171.934 460.828,171.267 461.5,170.5 Z"/></g>
<g><path style="opacity:0.173" fill="#fce5d7" d="M 468.5,171.5 C 477.824,172.089 486.824,173.755 495.5,176.5C 494.833,176.5 494.167,176.5 493.5,176.5C 484.972,175.194 476.638,173.528 468.5,171.5 Z"/></g>
<g><path style="opacity:1" fill="#91bac1" d="M 288.5,166.5 C 288.833,166.5 289.167,166.5 289.5,166.5C 289.5,166.833 289.5,167.167 289.5,167.5C 290.15,169.435 290.483,171.435 290.5,173.5C 290.5,174.167 290.5,174.833 290.5,175.5C 289.343,172.727 288.676,169.727 288.5,166.5 Z"/></g>
<g><path style="opacity:1" fill="#c1c197" d="M 290.5,173.5 C 291.167,173.833 291.833,174.167 292.5,174.5C 292.5,175.833 292.5,177.167 292.5,178.5C 291.833,177.5 291.167,176.5 290.5,175.5C 290.5,174.833 290.5,174.167 290.5,173.5 Z"/></g>
<g><path style="opacity:1" fill="#ef803f" d="M 382.5,166.5 C 384.096,168.832 385.262,171.499 386,174.5C 386.346,179.276 387.179,183.942 388.5,188.5C 387.207,187.158 386.374,185.491 386,183.5C 385.109,177.776 383.942,172.109 382.5,166.5 Z"/></g>
<g><path style="opacity:0.867" fill="#e8987a" d="M 408.5,169.5 C 409.167,170.5 409.833,171.5 410.5,172.5C 410.5,173.833 410.5,175.167 410.5,176.5C 409.076,174.485 408.41,172.152 408.5,169.5 Z"/></g>
<g><path style="opacity:0.887" fill="#fbfafa" d="M 287.5,303.5 C 294.796,299.185 302.462,295.352 310.5,292C 313.288,289.477 314.621,286.31 314.5,282.5C 314.5,281.833 314.5,281.167 314.5,280.5C 315.837,284.017 315.504,287.517 313.5,291C 314.047,291.925 314.713,292.758 315.5,293.5C 364.182,310.167 407.849,301.667 446.5,268C 470.593,244.304 483.76,215.471 486,181.5C 486.928,178.965 488.762,177.965 491.5,178.5C 489.751,222.839 471.085,258.006 435.5,284C 404.354,304.306 370.354,311.306 333.5,305C 326.765,303.816 320.098,302.316 313.5,300.5C 311.128,301.363 311.128,302.529 313.5,304C 366.675,320.833 414.008,310.833 455.5,274C 480.504,248.374 494.337,217.541 497,181.5C 497.465,180.069 498.299,178.903 499.5,178C 497.292,177.809 495.292,177.309 493.5,176.5C 494.167,176.5 494.833,176.5 495.5,176.5C 497.5,176.5 499.5,176.5 501.5,176.5C 501.5,175.167 501.5,173.833 501.5,172.5C 496.23,172.237 491.23,171.237 486.5,169.5C 485.5,168.833 484.5,168.167 483.5,167.5C 484.152,166.551 484.486,165.385 484.5,164C 483.58,154.562 481.58,145.396 478.5,136.5C 483.434,134.755 488.434,133.089 493.5,131.5C 494.849,132.644 495.183,132.644 494.5,131.5C 494.833,130.833 495.167,130.167 495.5,129.5C 495.833,129.5 496.167,129.5 496.5,129.5C 497.434,128.432 497.768,127.099 497.5,125.5C 493.098,125.308 489.098,126.308 485.5,128.5C 484.5,128.5 483.5,128.5 482.5,128.5C 481.5,128.5 480.5,128.5 479.5,128.5C 478.526,126.915 477.026,125.915 475,125.5C 471.033,118.038 466.867,110.705 462.5,103.5C 464.575,101.103 466.575,98.7692 468.5,96.5C 469.167,96.5 469.5,96.1667 469.5,95.5C 470.167,95.5 470.5,95.1667 470.5,94.5C 472.17,94.2488 473.67,93.5822 475,92.5C 481.858,101.044 487.525,110.377 492,120.5C 494.216,122.674 496.549,124.674 499,126.5C 499.779,128.906 498.946,130.573 496.5,131.5C 512.307,185.944 501.14,234.277 463,276.5C 420.255,315.893 370.755,327.727 314.5,312C 306.874,308.736 299.207,305.569 291.5,302.5C 290.264,303.246 288.93,303.579 287.5,303.5 Z M 488.5,137.5 C 489.5,137.5 490.5,137.5 491.5,137.5C 493.224,146.786 494.558,156.119 495.5,165.5C 493.549,165.773 492.049,165.107 491,163.5C 489.955,156.632 488.788,149.799 487.5,143C 487.581,141.076 487.914,139.243 488.5,137.5 Z M 470.5,100.5 C 471.552,100.351 472.552,100.517 473.5,101C 478.378,107.59 482.045,114.757 484.5,122.5C 482.019,122.677 480.186,121.677 479,119.5C 475.059,113.622 472.226,107.288 470.5,100.5 Z"/></g>
<g><path style="opacity:0.314" fill="#f9dccf" d="M 410.5,172.5 C 411.768,174.905 412.435,177.572 412.5,180.5C 411.833,179.5 411.167,178.5 410.5,177.5C 410.5,177.167 410.5,176.833 410.5,176.5C 410.5,175.167 410.5,173.833 410.5,172.5 Z"/></g>
<g><path style="opacity:1" fill="#93bbc0" d="M 290.5,175.5 C 291.167,176.5 291.833,177.5 292.5,178.5C 293.578,181.402 294.244,184.402 294.5,187.5C 292.194,183.915 290.861,179.915 290.5,175.5 Z"/></g>
<g><path style="opacity:0.955" fill="#ea8e6e" d="M 410.5,177.5 C 411.167,178.5 411.833,179.5 412.5,180.5C 413.434,181.568 413.768,182.901 413.5,184.5C 413.5,185.833 413.5,187.167 413.5,188.5C 412.883,188.389 412.383,188.056 412,187.5C 410.957,184.243 410.457,180.91 410.5,177.5 Z"/></g>
<g><path style="opacity:1" fill="#e6c46d" d="M 292.5,178.5 C 293.79,179.058 294.623,180.058 295,181.5C 296.043,184.757 296.543,188.09 296.5,191.5C 296.167,191.5 295.833,191.5 295.5,191.5C 295.768,189.901 295.434,188.568 294.5,187.5C 294.244,184.402 293.578,181.402 292.5,178.5 Z"/></g>
<g><path style="opacity:1" fill="#e77d57" d="M 413.5,189.5 C 415.31,192.145 416.31,195.145 416.5,198.5C 413.925,196.155 412.925,193.155 413.5,189.5 Z"/></g>
<g><path style="opacity:0.071" fill="#d8effa" d="M 219.5,152.5 C 220.167,152.5 220.833,152.5 221.5,152.5C 206.954,162.277 201.12,175.943 204,193.5C 205.998,198.659 207.165,203.992 207.5,209.5C 203.459,199.984 201.626,189.984 202,179.5C 204.341,168.129 210.175,159.129 219.5,152.5 Z"/></g>
<g><path style="opacity:1" fill="#a5bdad" d="M 295.5,191.5 C 295.833,191.5 296.167,191.5 296.5,191.5C 297.15,193.435 297.483,195.435 297.5,197.5C 295.926,195.898 295.259,193.898 295.5,191.5 Z"/></g>
<g><path style="opacity:1" fill="#e7c56c" d="M 296.5,191.5 C 298.339,193.653 299.339,196.32 299.5,199.5C 298.833,199.167 298.167,198.833 297.5,198.5C 297.5,198.167 297.5,197.833 297.5,197.5C 297.483,195.435 297.15,193.435 296.5,191.5 Z"/></g>
<g><path style="opacity:0.114" fill="#fbdacb" d="M 413.5,184.5 C 416.784,193.541 419.451,202.874 421.5,212.5C 420.833,211.833 420.167,211.167 419.5,210.5C 419.768,208.901 419.434,207.568 418.5,206.5C 418.59,203.848 417.924,201.515 416.5,199.5C 416.5,199.167 416.5,198.833 416.5,198.5C 416.31,195.145 415.31,192.145 413.5,189.5C 413.5,189.167 413.5,188.833 413.5,188.5C 413.5,187.167 413.5,185.833 413.5,184.5 Z"/></g>
<g><path style="opacity:1" fill="#c2c194" d="M 297.5,198.5 C 298.167,198.833 298.833,199.167 299.5,199.5C 299.5,200.833 299.5,202.167 299.5,203.5C 299.167,203.5 298.833,203.5 298.5,203.5C 298.371,201.784 298.038,200.117 297.5,198.5 Z"/></g>
<g><path style="opacity:0.918" fill="#e38362" d="M 416.5,199.5 C 417.924,201.515 418.59,203.848 418.5,206.5C 417.076,204.485 416.41,202.152 416.5,199.5 Z"/></g>
<g><path style="opacity:1" fill="#9bbbb6" d="M 298.5,203.5 C 298.833,203.5 299.167,203.5 299.5,203.5C 300.578,206.402 301.244,209.402 301.5,212.5C 299.69,209.855 298.69,206.855 298.5,203.5 Z"/></g>
<g><path style="opacity:0.259" fill="#d2eaf7" d="M 207.5,209.5 C 210.188,216.871 213.188,224.205 216.5,231.5C 211.578,225.094 208.578,217.761 207.5,209.5 Z"/></g>
<g><path style="opacity:0.882" fill="#e58765" d="M 419.5,210.5 C 420.167,211.167 420.833,211.833 421.5,212.5C 421.5,214.167 421.5,215.833 421.5,217.5C 420.076,215.485 419.41,213.152 419.5,210.5 Z"/></g>
<g><path style="opacity:1" fill="#8ebbc7" d="M 301.5,212.5 C 302.167,213.833 302.833,215.167 303.5,216.5C 303.5,217.833 303.5,219.167 303.5,220.5C 301.631,218.365 300.964,215.698 301.5,212.5 Z"/></g>
<g><path style="opacity:0.348" fill="#fce7bc" d="M 361.5,224.5 C 359.167,224.5 356.833,224.5 354.5,224.5C 347.167,224.5 339.833,224.5 332.5,224.5C 330.167,224.5 327.833,224.5 325.5,224.5C 331.26,223 337.26,222.333 343.5,222.5C 349.74,222.333 355.74,223 361.5,224.5 Z"/></g>
<g><path style="opacity:0.922" fill="#e38461" d="M 421.5,217.5 C 422.924,219.515 423.59,221.848 423.5,224.5C 422.076,222.485 421.41,220.152 421.5,217.5 Z"/></g>
<g><path style="opacity:0.108" fill="#fef5e0" d="M 354.5,224.5 C 356.833,224.5 359.167,224.5 361.5,224.5C 362.167,224.5 362.833,224.5 363.5,224.5C 364.5,225.167 365.5,225.833 366.5,226.5C 362.316,226.149 358.316,225.482 354.5,224.5 Z"/></g>
<g><path style="opacity:0.761" fill="#f5d697" d="M 363.5,224.5 C 366.152,224.41 368.485,225.076 370.5,226.5C 369.167,226.5 367.833,226.5 366.5,226.5C 365.5,225.833 364.5,225.167 363.5,224.5 Z"/></g>
<g><path style="opacity:1" fill="#afbfa5" d="M 303.5,216.5 C 304.581,219.627 305.247,222.96 305.5,226.5C 303.926,224.898 303.259,222.898 303.5,220.5C 303.5,219.167 303.5,217.833 303.5,216.5 Z"/></g>
<g><path style="opacity:0.227" fill="#fcecc9" d="M 325.5,224.5 C 327.833,224.5 330.167,224.5 332.5,224.5C 323.592,225.562 314.925,227.895 306.5,231.5C 306.5,230.5 306.5,229.5 306.5,228.5C 312.662,226.376 318.995,225.043 325.5,224.5 Z"/></g>
<g><path style="opacity:0.957" fill="#f5cd7d" d="M 381.5,229.5 C 384.491,229.166 386.824,230.166 388.5,232.5C 385.843,232.065 383.509,231.065 381.5,229.5 Z"/></g>
<g><path style="opacity:0.906" fill="#e38563" d="M 423.5,224.5 C 424.924,226.515 425.59,228.848 425.5,231.5C 424.076,229.485 423.41,227.152 423.5,224.5 Z"/></g>
<g><path style="opacity:0.063" fill="#cde2e7" d="M 305.5,226.5 C 306.338,226.842 306.672,227.508 306.5,228.5C 306.5,229.5 306.5,230.5 306.5,231.5C 304.958,232.301 303.292,232.634 301.5,232.5C 302.261,231.609 303.261,230.942 304.5,230.5C 305.429,229.311 305.762,227.978 305.5,226.5 Z"/></g>
<g><path style="opacity:0.067" fill="#fef2d9" d="M 366.5,226.5 C 367.833,226.5 369.167,226.5 370.5,226.5C 374.223,227.297 377.89,228.297 381.5,229.5C 383.509,231.065 385.843,232.065 388.5,232.5C 388.833,232.5 389.167,232.5 389.5,232.5C 389.833,233.167 390.167,233.833 390.5,234.5C 382.489,231.608 374.489,228.941 366.5,226.5 Z"/></g>
<g><path style="opacity:0.004" fill="#e9f6fd" d="M 216.5,231.5 C 219.167,233.5 221.5,235.833 223.5,238.5C 220.167,237.167 217.833,234.833 216.5,231.5 Z"/></g>
<g><path style="opacity:0.635" fill="#f9dda7" d="M 389.5,232.5 C 391.434,233.11 393.101,234.11 394.5,235.5C 393.833,235.5 393.167,235.5 392.5,235.5C 391.508,235.672 390.842,235.338 390.5,234.5C 390.167,233.833 389.833,233.167 389.5,232.5 Z"/></g>
<g><path style="opacity:1" fill="#4075a1" d="M 292.5,235.5 C 292.5,236.167 292.833,236.5 293.5,236.5C 294.351,240.535 296.017,244.202 298.5,247.5C 299.674,248.514 300.34,249.847 300.5,251.5C 300.304,256.102 301.97,259.769 305.5,262.5C 306.797,266.083 308.463,269.416 310.5,272.5C 311.674,273.514 312.34,274.847 312.5,276.5C 312.259,278.898 312.926,280.898 314.5,282.5C 314.621,286.31 313.288,289.477 310.5,292C 302.462,295.352 294.796,299.185 287.5,303.5C 283.556,303.887 279.889,303.22 276.5,301.5C 275.59,298.008 273.924,295.008 271.5,292.5C 271.771,290.62 271.104,289.287 269.5,288.5C 263.724,274.279 257.391,260.279 250.5,246.5C 263.466,242.196 276.633,238.196 290,234.5C 290.902,234.743 291.735,235.077 292.5,235.5 Z"/></g>
<g><path style="opacity:0.204" fill="#d9eaf5" d="M 297.5,233.5 C 296.167,234.5 294.833,235.5 293.5,236.5C 292.833,236.5 292.5,236.167 292.5,235.5C 293.552,233.744 295.219,233.077 297.5,233.5 Z"/></g>
<g><path style="opacity:0.333" fill="#fbdccd" d="M 421.5,212.5 C 424.353,220.055 426.686,227.889 428.5,236C 428.296,239.832 426.629,242.832 423.5,245C 417.665,247.971 411.665,248.637 405.5,247C 403.47,245.104 401.803,242.937 400.5,240.5C 397.769,238.808 395.102,237.142 392.5,235.5C 393.167,235.5 393.833,235.5 394.5,235.5C 396.645,236.989 398.978,237.989 401.5,238.5C 402.263,240.368 403.263,242.035 404.5,243.5C 405.692,245.922 407.692,246.922 410.5,246.5C 413.438,246.432 416.105,245.766 418.5,244.5C 420.308,244.509 421.975,244.009 423.5,243C 426.5,239.47 427.167,235.636 425.5,231.5C 425.59,228.848 424.924,226.515 423.5,224.5C 423.59,221.848 422.924,219.515 421.5,217.5C 421.5,215.833 421.5,214.167 421.5,212.5 Z"/></g>
<g><path style="opacity:0.106" fill="#cadbe9" d="M 293.5,236.5 C 295.957,239.751 297.624,243.418 298.5,247.5C 296.017,244.202 294.351,240.535 293.5,236.5 Z"/></g>
<g><path style="opacity:0.897" fill="#f4f8fa" d="M 223.5,238.5 C 231.733,243.785 240.733,246.452 250.5,246.5C 257.391,260.279 263.724,274.279 269.5,288.5C 255.832,277.209 244.998,263.542 237,247.5C 232.176,244.849 227.676,241.849 223.5,238.5 Z"/></g>
<g><path style="opacity:0.945" fill="#e47a54" d="M 404.5,243.5 C 406.307,244.615 408.307,245.281 410.5,245.5C 413.14,244.905 415.807,244.572 418.5,244.5C 416.105,245.766 413.438,246.432 410.5,246.5C 407.692,246.922 405.692,245.922 404.5,243.5 Z"/></g>
<g><path style="opacity:1" fill="#83a1bc" d="M 300.5,251.5 C 302.677,254.52 304.343,257.853 305.5,261.5C 305.5,261.833 305.5,262.167 305.5,262.5C 301.97,259.769 300.304,256.102 300.5,251.5 Z"/></g>
<g><path style="opacity:0.855" fill="#98b2c9" d="M 312.5,276.5 C 313.674,277.514 314.34,278.847 314.5,280.5C 314.5,281.167 314.5,281.833 314.5,282.5C 312.926,280.898 312.259,278.898 312.5,276.5 Z"/></g>
<g><path style="opacity:0.165" fill="#cce1eb" d="M 269.5,288.5 C 271.104,289.287 271.771,290.62 271.5,292.5C 270.326,291.486 269.66,290.153 269.5,288.5 Z"/></g>
<g><path style="opacity:0.329" fill="#b6cade" d="M 271.5,292.5 C 273.924,295.008 275.59,298.008 276.5,301.5C 274.076,298.992 272.41,295.992 271.5,292.5 Z"/></g>
<g><path style="opacity:0.416" fill="#c8dae6" d="M 276.5,301.5 C 279.889,303.22 283.556,303.887 287.5,303.5C 283.455,305.915 279.788,305.249 276.5,301.5 Z"/></g>
</svg>
