<?xml version="1.0" encoding="UTF-8"?>
<!DOCTYPE svg PUBLIC "-//W3C//DTD SVG 1.1//EN" "http://www.w3.org/Graphics/SVG/1.1/DTD/svg11.dtd">
<svg xmlns="http://www.w3.org/2000/svg" version="1.1" width="500px" height="500px" style="shape-rendering:geometricPrecision; text-rendering:geometricPrecision; image-rendering:optimizeQuality; fill-rule:evenodd; clip-rule:evenodd" xmlns:xlink="http://www.w3.org/1999/xlink">
<g><path style="opacity:1" fill="#e56454" d="M 296.5,-0.5 C 315.5,-0.5 334.5,-0.5 353.5,-0.5C 354.93,0.53747 356.597,1.20414 358.5,1.5C 359.11,3.43406 360.11,5.10072 361.5,6.5C 361.614,14.4174 362.614,22.084 364.5,29.5C 365.084,32.4726 365.751,35.4726 366.5,38.5C 370.407,39.4662 374.074,40.7995 377.5,42.5C 378.78,43.9313 380.447,44.5979 382.5,44.5C 385.912,45.0421 388.912,46.3754 391.5,48.5C 392.514,49.6737 393.847,50.3404 395.5,50.5C 396.68,52.913 398.68,53.913 401.5,53.5C 401.973,54.9063 402.973,55.573 404.5,55.5C 405.659,57.2503 407.326,58.2503 409.5,58.5C 409.973,59.9063 410.973,60.573 412.5,60.5C 413.035,62.4456 414.368,63.4456 416.5,63.5C 422.26,67.4682 427.76,71.8016 433,76.5C 438.132,74.3481 443.299,72.3481 448.5,70.5C 452.165,70.4982 455.165,69.1648 457.5,66.5C 462.943,64.5638 467.943,65.2305 472.5,68.5C 474.25,69.6594 475.25,71.326 475.5,73.5C 474.697,74.4232 474.53,75.4232 475,76.5C 477.333,80.5 479.667,84.5 482,88.5C 482.759,90.0629 483.926,91.0629 485.5,91.5C 486.026,93.2303 487.026,94.5637 488.5,95.5C 487.314,97.1942 487.481,98.8608 489,100.5C 492.112,104.092 494.946,107.759 497.5,111.5C 498.167,112.167 498.833,112.833 499.5,113.5C 499.5,116.5 499.5,119.5 499.5,122.5C 497.098,124.909 494.431,126.909 491.5,128.5C 490.127,128.343 488.793,128.51 487.5,129C 488.598,129.77 488.598,130.603 487.5,131.5C 486.738,133.262 485.404,134.262 483.5,134.5C 482.504,134.586 481.671,134.252 481,133.5C 480.079,134.708 479.579,136.042 479.5,137.5C 479.5,138.167 479.167,138.5 478.5,138.5C 476.833,138.5 475.167,138.5 473.5,138.5C 473.567,139.959 473.234,141.292 472.5,142.5C 471.699,144.042 471.366,145.708 471.5,147.5C 471.527,153.278 472.36,158.944 474,164.5C 474.667,177.5 474.667,190.5 474,203.5C 472.327,208.363 471.494,213.363 471.5,218.5C 471.5,218.833 471.5,219.167 471.5,219.5C 470.024,221.709 470.691,223.042 473.5,223.5C 473.973,224.906 474.973,225.573 476.5,225.5C 477.035,227.446 478.368,228.446 480.5,228.5C 481.035,230.446 482.368,231.446 484.5,231.5C 485.035,233.446 486.368,234.446 488.5,234.5C 489.035,236.446 490.368,237.446 492.5,237.5C 494.23,238.026 495.564,239.026 496.5,240.5C 496.427,242.027 497.094,243.027 498.5,243.5C 498.833,243.5 499.167,243.5 499.5,243.5C 499.5,246.5 499.5,249.5 499.5,252.5C 497.252,255.328 495.252,258.328 493.5,261.5C 491.75,262.659 490.75,264.326 490.5,266.5C 489.094,266.973 488.427,267.973 488.5,269.5C 488.34,271.153 487.674,272.486 486.5,273.5C 484.75,274.659 483.75,276.326 483.5,278.5C 481.75,279.659 480.75,281.326 480.5,283.5C 480.672,284.492 480.338,285.158 479.5,285.5C 477.75,286.659 476.75,288.326 476.5,290.5C 476.672,291.492 476.338,292.158 475.5,292.5C 474.094,292.973 473.427,293.973 473.5,295.5C 473.573,297.027 472.906,298.027 471.5,298.5C 470.85,298.196 470.183,297.863 469.5,297.5C 466.101,299.312 462.434,299.979 458.5,299.5C 452.196,297.344 446.196,294.678 440.5,291.5C 439.365,289.787 437.698,289.12 435.5,289.5C 434.504,289.586 433.671,289.252 433,288.5C 423.789,297.513 413.622,305.179 402.5,311.5C 400.669,312.052 399.003,312.052 397.5,311.5C 396.016,312.467 395.016,313.8 394.5,315.5C 392.847,315.66 391.514,316.326 390.5,317.5C 390.158,318.338 389.492,318.672 388.5,318.5C 380.711,321.263 372.878,323.93 365,326.5C 363.237,338.133 361.737,349.8 360.5,361.5C 358.99,362.836 357.323,364.003 355.5,365C 350.511,365.499 345.511,365.666 340.5,365.5C 345.005,341.989 345.671,318.323 342.5,294.5C 388.691,286.816 419.524,260.816 435,216.5C 448.611,162.317 432.778,119.15 387.5,87C 332.619,57.4112 283.452,64.9112 240,109.5C 227.66,124.004 219.827,140.671 216.5,159.5C 205.035,156.718 193.369,155.052 181.5,154.5C 181.5,154.167 181.5,153.833 181.5,153.5C 181.955,150.797 182.622,148.13 183.5,145.5C 183.457,144.584 183.124,143.917 182.5,143.5C 180.998,141.825 179.665,139.992 178.5,138C 177.207,137.51 175.873,137.343 174.5,137.5C 167.624,133.563 161.291,128.896 155.5,123.5C 155.5,119.833 155.5,116.167 155.5,112.5C 156.906,112.027 157.573,111.027 157.5,109.5C 161.251,108.318 162.584,105.985 161.5,102.5C 161.66,100.847 162.326,99.5137 163.5,98.5C 165.759,97.656 166.759,95.9893 166.5,93.5C 166.66,91.847 167.326,90.5137 168.5,89.5C 169.906,89.0269 170.573,88.0269 170.5,86.5C 170.328,85.5084 170.662,84.8417 171.5,84.5C 173.25,83.3406 174.25,81.674 174.5,79.5C 176.559,77.7396 177.892,75.4062 178.5,72.5C 180.411,70.243 182.411,67.9096 184.5,65.5C 187.5,65.5 190.5,65.5 193.5,65.5C 194.976,67.5 196.809,69.1666 199,70.5C 200.011,69.6634 201.178,69.33 202.5,69.5C 208.275,71.5534 213.941,73.8867 219.5,76.5C 221.743,77.8584 223.409,77.1917 224.5,74.5C 227.764,72.9059 230.431,70.5725 232.5,67.5C 234.749,66.9202 236.415,65.5869 237.5,63.5C 239.404,63.2624 240.738,62.2624 241.5,60.5C 243.027,60.573 244.027,59.9063 244.5,58.5C 246.027,58.573 247.027,57.9063 247.5,56.5C 249.027,56.573 250.027,55.9063 250.5,54.5C 253.992,53.5903 256.992,51.9236 259.5,49.5C 259.842,48.6618 260.508,48.3284 261.5,48.5C 264.912,47.9579 267.912,46.6246 270.5,44.5C 273.01,44.9465 275.01,44.2798 276.5,42.5C 279.152,42.5905 281.485,41.9238 283.5,40.5C 284.641,39.661 285.974,38.9943 287.5,38.5C 289.055,29.8272 290.388,21.1605 291.5,12.5C 292.369,10.283 292.702,7.94965 292.5,5.5C 292.328,4.50838 292.662,3.84171 293.5,3.5C 294.833,2.83333 295.833,1.83333 296.5,0.5C 296.5,0.166667 296.5,-0.166667 296.5,-0.5 Z"/></g>
<g><path style="opacity:0.004" fill="#fadcd6" d="M 353.5,-0.5 C 354.833,-0.5 356.167,-0.5 357.5,-0.5C 357.833,0.166667 358.167,0.833333 358.5,1.5C 356.597,1.20414 354.93,0.53747 353.5,-0.5 Z"/></g>
<g><path style="opacity:0.196" fill="#fae4e1" d="M 296.5,0.5 C 295.833,1.83333 294.833,2.83333 293.5,3.5C 293.5,1.5 294.5,0.5 296.5,0.5 Z"/></g>
<g><path style="opacity:0.525" fill="#f5c4bd" d="M 358.5,1.5 C 360.727,2.40058 361.727,4.06725 361.5,6.5C 360.11,5.10072 359.11,3.43406 358.5,1.5 Z"/></g>
<g><path style="opacity:0.643" fill="#f7c6c0" d="M 292.5,5.5 C 292.702,7.94965 292.369,10.283 291.5,12.5C 290.903,12.2648 290.57,11.7648 290.5,11C 290.954,8.97009 291.62,7.13675 292.5,5.5 Z"/></g>
<g><path style="opacity:0.678" fill="#f7cac3" d="M 361.5,6.5 C 363.291,13.9267 364.291,21.5934 364.5,29.5C 362.614,22.084 361.614,14.4174 361.5,6.5 Z"/></g>
<g><path style="opacity:0.906" fill="#f2a095" d="M 283.5,40.5 C 281.485,41.9238 279.152,42.5905 276.5,42.5C 278.515,41.0762 280.848,40.4095 283.5,40.5 Z"/></g>
<g><path style="opacity:0.973" fill="#f6afa3" d="M 276.5,42.5 C 275.01,44.2798 273.01,44.9465 270.5,44.5C 272.214,43.2616 274.214,42.595 276.5,42.5 Z"/></g>
<g><path style="opacity:0.267" fill="#fad7d3" d="M 377.5,42.5 C 379.553,42.4021 381.22,43.0687 382.5,44.5C 380.447,44.5979 378.78,43.9313 377.5,42.5 Z"/></g>
<g><path style="opacity:0.129" fill="#fae1de" d="M 270.5,44.5 C 267.912,46.6246 264.912,47.9579 261.5,48.5C 264.088,46.3754 267.088,45.0421 270.5,44.5 Z"/></g>
<g><path style="opacity:0.141" fill="#f8dcd6" d="M 391.5,48.5 C 393.38,48.2291 394.713,48.8958 395.5,50.5C 393.847,50.3404 392.514,49.6737 391.5,48.5 Z"/></g>
<g><path style="opacity:0.184" fill="#fadcd9" d="M 259.5,49.5 C 256.992,51.9236 253.992,53.5903 250.5,54.5C 253.008,52.0764 256.008,50.4097 259.5,49.5 Z"/></g>
<g><path style="opacity:1" fill="#f7aa9d" d="M 395.5,50.5 C 397.819,50.9925 399.819,51.9925 401.5,53.5C 398.68,53.913 396.68,52.913 395.5,50.5 Z"/></g>
<g><path style="opacity:0.176" fill="#f8dad5" d="M 401.5,53.5 C 403.027,53.427 404.027,54.0937 404.5,55.5C 402.973,55.573 401.973,54.9063 401.5,53.5 Z"/></g>
<g><path style="opacity:0.49" fill="#f7ccc6" d="M 250.5,54.5 C 250.027,55.9063 249.027,56.573 247.5,56.5C 247.973,55.0937 248.973,54.427 250.5,54.5 Z"/></g>
<g><path style="opacity:0.251" fill="#f8d4cf" d="M 404.5,55.5 C 406.674,55.7497 408.341,56.7497 409.5,58.5C 407.326,58.2503 405.659,57.2503 404.5,55.5 Z"/></g>
<g><path style="opacity:0.592" fill="#f4bdb7" d="M 247.5,56.5 C 247.027,57.9063 246.027,58.573 244.5,58.5C 244.973,57.0937 245.973,56.427 247.5,56.5 Z"/></g>
<g><path style="opacity:0.647" fill="#f3b6ad" d="M 244.5,58.5 C 244.027,59.9063 243.027,60.573 241.5,60.5C 241.973,59.0937 242.973,58.427 244.5,58.5 Z"/></g>
<g><path style="opacity:0.09" fill="#fcdddb" d="M 409.5,58.5 C 411.027,58.427 412.027,59.0937 412.5,60.5C 410.973,60.573 409.973,59.9063 409.5,58.5 Z"/></g>
<g><path style="opacity:0.561" fill="#f5bab3" d="M 241.5,60.5 C 240.738,62.2624 239.404,63.2624 237.5,63.5C 238.262,61.7376 239.596,60.7376 241.5,60.5 Z"/></g>
<g><path style="opacity:0.827" fill="#f6b8b0" d="M 412.5,60.5 C 414.23,61.0256 415.564,62.0256 416.5,63.5C 414.368,63.4456 413.035,62.4456 412.5,60.5 Z"/></g>
<g><path style="opacity:0.737" fill="#f3b0a7" d="M 193.5,65.5 C 190.5,65.5 187.5,65.5 184.5,65.5C 187.461,62.983 190.461,62.983 193.5,65.5 Z"/></g>
<g><path style="opacity:0.788" fill="#f3b0a7" d="M 472.5,68.5 C 467.943,65.2305 462.943,64.5638 457.5,66.5C 461.963,62.8508 466.63,62.6841 471.5,66C 472.252,66.6708 472.586,67.5041 472.5,68.5 Z"/></g>
<g><path style="opacity:0.855" fill="#f1a196" d="M 237.5,63.5 C 236.415,65.5869 234.749,66.9202 232.5,67.5C 233.585,65.4131 235.251,64.0798 237.5,63.5 Z"/></g>
<g><path style="opacity:0.627" fill="#f4b5ac" d="M 184.5,65.5 C 182.411,67.9096 180.411,70.243 178.5,72.5C 179.092,68.9111 181.092,66.5778 184.5,65.5 Z"/></g>
<g><path style="opacity:1" fill="#f3998b" d="M 193.5,65.5 C 196.912,66.0421 199.912,67.3754 202.5,69.5C 201.178,69.33 200.011,69.6634 199,70.5C 196.809,69.1666 194.976,67.5 193.5,65.5 Z"/></g>
<g><path style="opacity:0.875" fill="#f09c90" d="M 457.5,66.5 C 455.165,69.1648 452.165,70.4982 448.5,70.5C 451.088,68.4082 454.088,67.0749 457.5,66.5 Z"/></g>
<g><path style="opacity:1" fill="#d35745" d="M 342.5,294.5 C 341.5,290.5 340.5,286.5 339.5,282.5C 342.833,282.167 346.167,281.833 349.5,281.5C 352.152,281.59 354.485,280.924 356.5,279.5C 359.716,279.655 362.383,278.655 364.5,276.5C 369.152,276.67 372.819,275.003 375.5,271.5C 376.847,270.829 378.014,270.829 379,271.5C 379.513,270.473 380.013,269.473 380.5,268.5C 382.027,268.573 383.027,267.906 383.5,266.5C 385.404,266.262 386.738,265.262 387.5,263.5C 393.783,260.217 398.783,255.55 402.5,249.5C 410.525,239.815 416.859,229.148 421.5,217.5C 423.245,215.967 424.245,213.967 424.5,211.5C 425.646,207.246 426.313,202.913 426.5,198.5C 427.302,197.048 427.802,195.382 428,193.5C 429.608,179.673 428.108,166.34 423.5,153.5C 422.262,151.786 421.595,149.786 421.5,147.5C 421.293,144.759 420.293,142.426 418.5,140.5C 415.419,134.669 412.085,129.002 408.5,123.5C 408.446,121.368 407.446,120.035 405.5,119.5C 404.5,119.167 403.833,118.5 403.5,117.5C 402.92,115.251 401.587,113.585 399.5,112.5C 398.167,111.833 397.167,110.833 396.5,109.5C 394.761,106.757 392.427,104.757 389.5,103.5C 388.415,101.413 386.749,100.08 384.5,99.5C 384.027,98.0937 383.027,97.427 381.5,97.5C 380.508,97.6716 379.842,97.3382 379.5,96.5C 379.027,95.0937 378.027,94.427 376.5,94.5C 348.297,80.7151 319.297,78.8817 289.5,89C 282.152,92.3377 275.152,96.1711 268.5,100.5C 266.973,100.427 265.973,101.094 265.5,102.5C 265.5,103.167 265.167,103.5 264.5,103.5C 262.973,103.427 261.973,104.094 261.5,105.5C 257.833,109.833 253.833,113.833 249.5,117.5C 248.094,117.973 247.427,118.973 247.5,120.5C 247.5,121.167 247.167,121.5 246.5,121.5C 245.094,121.973 244.427,122.973 244.5,124.5C 244.068,125.71 243.401,126.71 242.5,127.5C 241.094,127.973 240.427,128.973 240.5,130.5C 240.672,131.492 240.338,132.158 239.5,132.5C 238.094,132.973 237.427,133.973 237.5,135.5C 232.24,143.705 228.907,152.705 227.5,162.5C 223.761,161.697 220.095,160.697 216.5,159.5C 219.827,140.671 227.66,124.004 240,109.5C 283.452,64.9112 332.619,57.4112 387.5,87C 432.778,119.15 448.611,162.317 435,216.5C 419.524,260.816 388.691,286.816 342.5,294.5 Z"/></g>
<g><path style="opacity:0.816" fill="#f1a295" d="M 232.5,67.5 C 230.431,70.5725 227.764,72.9059 224.5,74.5C 226.569,71.4275 229.236,69.0941 232.5,67.5 Z"/></g>
<g><path style="opacity:0.404" fill="#f8d5d0" d="M 224.5,74.5 C 223.409,77.1917 221.743,77.8584 219.5,76.5C 221.167,75.8333 222.833,75.1667 224.5,74.5 Z"/></g>
<g><path style="opacity:0.984" fill="#f9b3a9" d="M 178.5,72.5 C 177.892,75.4062 176.559,77.7396 174.5,79.5C 175.079,76.6689 176.412,74.3356 178.5,72.5 Z"/></g>
<g><path style="opacity:0.149" fill="#f9ddda" d="M 174.5,79.5 C 174.25,81.674 173.25,83.3406 171.5,84.5C 171.75,82.326 172.75,80.6594 174.5,79.5 Z"/></g>
<g><path style="opacity:1" fill="#f08878" d="M 475.5,73.5 C 478.623,76.9758 480.957,80.9758 482.5,85.5C 482.427,87.0269 483.094,88.0269 484.5,88.5C 485.338,88.8417 485.672,89.5084 485.5,90.5C 485.5,90.8333 485.5,91.1667 485.5,91.5C 483.926,91.0629 482.759,90.0629 482,88.5C 479.667,84.5 477.333,80.5 475,76.5C 474.53,75.4232 474.697,74.4232 475.5,73.5 Z"/></g>
<g><path style="opacity:0.278" fill="#f9d2ce" d="M 482.5,85.5 C 483.906,85.9731 484.573,86.9731 484.5,88.5C 483.094,88.0269 482.427,87.0269 482.5,85.5 Z"/></g>
<g><path style="opacity:0.157" fill="#fae0de" d="M 170.5,86.5 C 170.573,88.0269 169.906,89.0269 168.5,89.5C 168.427,87.9731 169.094,86.9731 170.5,86.5 Z"/></g>
<g><path style="opacity:0.22" fill="#f8d7d2" d="M 485.5,90.5 C 487.25,91.6594 488.25,93.326 488.5,95.5C 487.026,94.5637 486.026,93.2303 485.5,91.5C 485.5,91.1667 485.5,90.8333 485.5,90.5 Z"/></g>
<g><path style="opacity:0.975" fill="#f29b8f" d="M 166.5,93.5 C 166.759,95.9893 165.759,97.656 163.5,98.5C 164.11,96.5659 165.11,94.8993 166.5,93.5 Z"/></g>
<g><path style="opacity:0.553" fill="#edafa6" d="M 376.5,94.5 C 378.027,94.427 379.027,95.0937 379.5,96.5C 377.973,96.573 376.973,95.9063 376.5,94.5 Z"/></g>
<g><path style="opacity:0.6" fill="#eca99f" d="M 381.5,97.5 C 383.027,97.427 384.027,98.0937 384.5,99.5C 382.973,99.573 381.973,98.9063 381.5,97.5 Z"/></g>
<g><path style="opacity:0.208" fill="#f9dcd7" d="M 489.5,97.5 C 490.906,97.9731 491.573,98.9731 491.5,100.5C 490.094,100.027 489.427,99.0269 489.5,97.5 Z"/></g>
<g><path style="opacity:0.012" fill="#f7dfdc" d="M 268.5,100.5 C 268.027,101.906 267.027,102.573 265.5,102.5C 265.973,101.094 266.973,100.427 268.5,100.5 Z"/></g>
<g><path style="opacity:0.376" fill="#f1bab1" d="M 384.5,99.5 C 386.749,100.08 388.415,101.413 389.5,103.5C 387.251,102.92 385.585,101.587 384.5,99.5 Z"/></g>
<g><path style="opacity:0.675" fill="#f3c3bc" d="M 389.5,103.5 C 392.427,104.757 394.761,106.757 396.5,109.5C 393.573,108.243 391.239,106.243 389.5,103.5 Z"/></g>
<g><path style="opacity:1" fill="#f28f81" d="M 488.5,95.5 C 489.338,95.8417 489.672,96.5084 489.5,97.5C 489.427,99.0269 490.094,100.027 491.5,100.5C 494.258,103.678 496.258,107.345 497.5,111.5C 494.946,107.759 492.112,104.092 489,100.5C 487.481,98.8608 487.314,97.1942 488.5,95.5 Z"/></g>
<g><path style="opacity:0.994" fill="#ef8c7d" d="M 161.5,102.5 C 162.584,105.985 161.251,108.318 157.5,109.5C 158.079,106.669 159.412,104.336 161.5,102.5 Z"/></g>
<g><path style="opacity:0.02" fill="#f8e0da" d="M 264.5,103.5 C 264.027,104.906 263.027,105.573 261.5,105.5C 261.973,104.094 262.973,103.427 264.5,103.5 Z"/></g>
<g><path style="opacity:0.49" fill="#f4b6ae" d="M 157.5,109.5 C 157.573,111.027 156.906,112.027 155.5,112.5C 155.427,110.973 156.094,109.973 157.5,109.5 Z"/></g>
<g><path style="opacity:0.016" fill="#f7dad6" d="M 399.5,112.5 C 401.587,113.585 402.92,115.251 403.5,117.5C 401.413,116.415 400.08,114.749 399.5,112.5 Z"/></g>
<g><path style="opacity:0.584" fill="#e69d93" d="M 336.5,115.5 C 328.149,115.482 319.816,115.815 311.5,116.5C 316.245,115.001 321.245,114.334 326.5,114.5C 330.018,114.502 333.351,114.835 336.5,115.5 Z"/></g>
<g><path style="opacity:1" fill="#d15341" d="M 336.5,115.5 C 338.95,115.298 341.283,115.631 343.5,116.5C 344.918,118.308 346.918,118.975 349.5,118.5C 357.617,120.72 364.617,124.72 370.5,130.5C 372.833,133.5 375.5,136.167 378.5,138.5C 379.08,140.749 380.413,142.415 382.5,143.5C 382.427,145.027 383.094,146.027 384.5,146.5C 384.427,148.027 385.094,149.027 386.5,149.5C 387.674,150.514 388.34,151.847 388.5,153.5C 390.836,160.681 392.669,168.014 394,175.5C 394.673,184.236 394.173,192.903 392.5,201.5C 390.926,203.102 390.259,205.102 390.5,207.5C 386.87,218.436 380.536,227.436 371.5,234.5C 369.973,234.427 368.973,235.094 368.5,236.5C 368.5,237.167 368.167,237.5 367.5,237.5C 365.147,238.34 363.147,239.674 361.5,241.5C 358.515,242.326 355.849,243.659 353.5,245.5C 351.447,245.402 349.78,246.069 348.5,247.5C 343.651,248.216 338.985,249.216 334.5,250.5C 333.167,250.5 331.833,250.5 330.5,250.5C 329.5,250.5 328.5,250.5 327.5,250.5C 311.697,219.7 289.031,195.367 259.5,177.5C 260.244,173.881 260.577,170.215 260.5,166.5C 262.794,161.358 264.794,156.025 266.5,150.5C 267.906,150.027 268.573,149.027 268.5,147.5C 270.369,145.966 271.702,143.966 272.5,141.5C 275.243,139.761 277.243,137.427 278.5,134.5C 281.427,133.243 283.761,131.243 285.5,128.5C 287.027,128.573 288.027,127.906 288.5,126.5C 290.027,126.573 291.027,125.906 291.5,124.5C 293.027,124.573 294.027,123.906 294.5,122.5C 296.05,121.559 297.716,120.893 299.5,120.5C 303.144,119.685 306.811,118.852 310.5,118C 311.056,117.617 311.389,117.117 311.5,116.5C 319.816,115.815 328.149,115.482 336.5,115.5 Z"/></g>
<g><path style="opacity:0.884" fill="#f3a79d" d="M 155.5,112.5 C 155.5,116.167 155.5,119.833 155.5,123.5C 152.935,119.865 152.935,116.199 155.5,112.5 Z"/></g>
<g><path style="opacity:0.922" fill="#e89a8e" d="M 343.5,116.5 C 345.786,116.595 347.786,117.262 349.5,118.5C 346.918,118.975 344.918,118.308 343.5,116.5 Z"/></g>
<g><path style="opacity:0.051" fill="#f9dbd8" d="M 249.5,117.5 C 249.573,119.027 248.906,120.027 247.5,120.5C 247.427,118.973 248.094,117.973 249.5,117.5 Z"/></g>
<g><path style="opacity:0.957" fill="#df7f71" d="M 311.5,116.5 C 311.389,117.117 311.056,117.617 310.5,118C 306.811,118.852 303.144,119.685 299.5,120.5C 303.085,118.194 307.085,116.861 311.5,116.5 Z"/></g>
<g><path style="opacity:0.902" fill="#efaea4" d="M 405.5,119.5 C 407.446,120.035 408.446,121.368 408.5,123.5C 407.026,122.564 406.026,121.23 405.5,119.5 Z"/></g>
<g><path style="opacity:0.055" fill="#fadcda" d="M 246.5,121.5 C 246.573,123.027 245.906,124.027 244.5,124.5C 244.427,122.973 245.094,121.973 246.5,121.5 Z"/></g>
<g><path style="opacity:0.58" fill="#f1c3bd" d="M 294.5,122.5 C 294.027,123.906 293.027,124.573 291.5,124.5C 291.973,123.094 292.973,122.427 294.5,122.5 Z"/></g>
<g><path style="opacity:0.714" fill="#edafa6" d="M 291.5,124.5 C 291.027,125.906 290.027,126.573 288.5,126.5C 288.973,125.094 289.973,124.427 291.5,124.5 Z"/></g>
<g><path style="opacity:0.627" fill="#eeb7b1" d="M 288.5,126.5 C 288.027,127.906 287.027,128.573 285.5,128.5C 285.973,127.094 286.973,126.427 288.5,126.5 Z"/></g>
<g><path style="opacity:0.994" fill="#f4a396" d="M 491.5,128.5 C 490.738,130.262 489.404,131.262 487.5,131.5C 488.598,130.603 488.598,129.77 487.5,129C 488.793,128.51 490.127,128.343 491.5,128.5 Z"/></g>
<g><path style="opacity:0.094" fill="#f5e2e0" d="M 242.5,127.5 C 242.573,129.027 241.906,130.027 240.5,130.5C 240.427,128.973 241.094,127.973 242.5,127.5 Z"/></g>
<g><path style="opacity:0.004" fill="#f5d7d2" d="M 370.5,130.5 C 374.167,132.167 376.833,134.833 378.5,138.5C 375.5,136.167 372.833,133.5 370.5,130.5 Z"/></g>
<g><path style="opacity:0.62" fill="#eeb7ae" d="M 285.5,128.5 C 283.761,131.243 281.427,133.243 278.5,134.5C 280.239,131.757 282.573,129.757 285.5,128.5 Z"/></g>
<g><path style="opacity:0.986" fill="#f5a194" d="M 483.5,134.5 C 482.738,136.262 481.404,137.262 479.5,137.5C 479.579,136.042 480.079,134.708 481,133.5C 481.671,134.252 482.504,134.586 483.5,134.5 Z"/></g>
<g><path style="opacity:0.125" fill="#f6e1df" d="M 239.5,132.5 C 239.573,134.027 238.906,135.027 237.5,135.5C 237.427,133.973 238.094,132.973 239.5,132.5 Z"/></g>
<g><path style="opacity:1" fill="#f08d7e" d="M 174.5,137.5 C 175.873,137.343 177.207,137.51 178.5,138C 179.665,139.992 180.998,141.825 182.5,143.5C 179.467,141.984 176.8,139.984 174.5,137.5 Z"/></g>
<g><path style="opacity:0.627" fill="#eeb8b0" d="M 278.5,134.5 C 277.243,137.427 275.243,139.761 272.5,141.5C 273.757,138.573 275.757,136.239 278.5,134.5 Z"/></g>
<g><path style="opacity:1" fill="#f49f92" d="M 478.5,138.5 C 476.777,140.218 474.777,141.551 472.5,142.5C 473.234,141.292 473.567,139.959 473.5,138.5C 475.167,138.5 476.833,138.5 478.5,138.5 Z"/></g>
<g><path style="opacity:0.008" fill="#f9e6e3" d="M 418.5,140.5 C 420.293,142.426 421.293,144.759 421.5,147.5C 419.707,145.574 418.707,143.241 418.5,140.5 Z"/></g>
<g><path style="opacity:0.396" fill="#edb3aa" d="M 378.5,138.5 C 380.587,139.585 381.92,141.251 382.5,143.5C 380.413,142.415 379.08,140.749 378.5,138.5 Z"/></g>
<g><path style="opacity:0.478" fill="#edb3ac" d="M 382.5,143.5 C 383.906,143.973 384.573,144.973 384.5,146.5C 383.094,146.027 382.427,145.027 382.5,143.5 Z"/></g>
<g><path style="opacity:0.929" fill="#eca398" d="M 272.5,141.5 C 271.702,143.966 270.369,145.966 268.5,147.5C 268.845,144.802 270.178,142.802 272.5,141.5 Z"/></g>
<g><path style="opacity:0.341" fill="#f0c6c0" d="M 384.5,146.5 C 385.906,146.973 386.573,147.973 386.5,149.5C 385.094,149.027 384.427,148.027 384.5,146.5 Z"/></g>
<g><path style="opacity:0.635" fill="#f4b8b0" d="M 182.5,143.5 C 183.124,143.917 183.457,144.584 183.5,145.5C 182.622,148.13 181.955,150.797 181.5,153.5C 181.167,153.5 180.833,153.5 180.5,153.5C 180.851,150.097 181.518,146.763 182.5,143.5 Z"/></g>
<g><path style="opacity:0.42" fill="#f2c8c2" d="M 237.5,135.5 C 234.096,143.818 231.096,152.318 228.5,161C 228.743,161.902 229.077,162.735 229.5,163.5C 228.508,163.672 227.842,163.338 227.5,162.5C 228.907,152.705 232.24,143.705 237.5,135.5 Z"/></g>
<g><path style="opacity:0.275" fill="#f2cdc7" d="M 268.5,147.5 C 268.573,149.027 267.906,150.027 266.5,150.5C 266.427,148.973 267.094,147.973 268.5,147.5 Z"/></g>
<g><path style="opacity:0.804" fill="#fde7ac" d="M 180.5,153.5 C 180.833,153.5 181.167,153.5 181.5,153.5C 181.5,153.833 181.5,154.167 181.5,154.5C 170.148,154.373 158.815,154.706 147.5,155.5C 149.631,154.686 151.964,154.186 154.5,154C 163.16,153.5 171.827,153.334 180.5,153.5 Z"/></g>
<g><path style="opacity:0.992" fill="#f2a79d" d="M 471.5,147.5 C 478.167,171.167 478.167,194.833 471.5,218.5C 471.494,213.363 472.327,208.363 474,203.5C 474.667,190.5 474.667,177.5 474,164.5C 472.36,158.944 471.527,153.278 471.5,147.5 Z"/></g>
<g><path style="opacity:1" fill="#fcd463" d="M 181.5,154.5 C 193.369,155.052 205.035,156.718 216.5,159.5C 220.095,160.697 223.761,161.697 227.5,162.5C 227.842,163.338 228.508,163.672 229.5,163.5C 237.138,165.156 244.138,168.156 250.5,172.5C 252.181,174.008 254.181,175.008 256.5,175.5C 257.29,176.401 258.29,177.068 259.5,177.5C 289.031,195.367 311.697,219.7 327.5,250.5C 327.328,251.492 327.662,252.158 328.5,252.5C 329.892,254.273 331.059,256.273 332,258.5C 335.21,266.294 337.71,274.294 339.5,282.5C 340.5,286.5 341.5,290.5 342.5,294.5C 345.671,318.323 345.005,341.989 340.5,365.5C 339.699,367.042 339.366,368.708 339.5,370.5C 336.86,381.762 332.86,392.429 327.5,402.5C 325.659,404.849 324.326,407.515 323.5,410.5C 323.672,411.492 323.338,412.158 322.5,412.5C 321.094,412.973 320.427,413.973 320.5,415.5C 320.672,416.492 320.338,417.158 319.5,417.5C 316.336,419.147 314.67,421.814 314.5,425.5C 314.5,426.167 314.167,426.5 313.5,426.5C 312.094,426.973 311.427,427.973 311.5,429.5C 311.5,430.167 311.167,430.5 310.5,430.5C 309.094,430.973 308.427,431.973 308.5,433.5C 297.573,447.304 284.906,459.304 270.5,469.5C 269.417,469.461 268.417,469.127 267.5,468.5C 265.123,471.307 262.123,472.974 258.5,473.5C 258.5,474.5 258.5,475.5 258.5,476.5C 254.285,476.061 251.285,477.727 249.5,481.5C 243.875,483.316 238.541,485.649 233.5,488.5C 224.356,491.032 215.356,493.698 206.5,496.5C 196.683,497.432 187.016,498.432 177.5,499.5C 171.833,499.5 166.167,499.5 160.5,499.5C 155.384,498.194 150.051,497.527 144.5,497.5C 144.167,497.5 143.833,497.5 143.5,497.5C 140.411,496.215 137.078,495.549 133.5,495.5C 129.239,495.102 125.239,494.102 121.5,492.5C 120.22,491.069 118.553,490.402 116.5,490.5C 115.209,490.737 114.209,490.404 113.5,489.5C 112.22,488.069 110.553,487.402 108.5,487.5C 107.209,487.737 106.209,487.404 105.5,486.5C 105.175,484.868 104.175,483.868 102.5,483.5C 99.3248,481.909 95.9915,480.909 92.5,480.5C 89.3611,475.449 85.0278,472.783 79.5,472.5C 76.7261,471.277 74.0594,469.777 71.5,468C 67.641,464.968 63.9743,461.802 60.5,458.5C 58.7607,455.757 56.4274,453.757 53.5,452.5C 50.5,450.167 47.8333,447.5 45.5,444.5C 45.1667,442.167 43.8333,440.833 41.5,440.5C 35.0311,433.037 29.3644,425.037 24.5,416.5C 24.573,414.973 23.9063,413.973 22.5,413.5C 21.6618,413.158 21.3284,412.492 21.5,411.5C 19.6745,406.516 17.3411,401.849 14.5,397.5C 12.7073,395.574 11.7073,393.241 11.5,390.5C 11.2671,387.458 10.2671,384.792 8.5,382.5C 7.59603,381.791 7.26269,380.791 7.5,379.5C 7.25759,375.521 6.25759,371.854 4.5,368.5C 2.26993,356.139 0.603267,343.806 -0.5,331.5C -0.5,323.5 -0.5,315.5 -0.5,307.5C -0.166667,307.5 0.166667,307.5 0.5,307.5C 2.48354,296.213 4.81687,284.879 7.5,273.5C 7.40206,271.447 8.06873,269.78 9.5,268.5C 11.9897,265.374 13.323,261.708 13.5,257.5C 14.3257,254.515 15.659,251.849 17.5,249.5C 19.6003,247.54 21.6003,245.373 23.5,243C 22.5868,241.586 22.5868,240.086 23.5,238.5C 26.6686,231.338 31.002,225.005 36.5,219.5C 38.2624,218.738 39.2624,217.404 39.5,215.5C 40.5,213.833 41.8333,212.5 43.5,211.5C 46.2427,209.761 48.2427,207.427 49.5,204.5C 52.7642,202.906 55.4309,200.573 57.5,197.5C 59.7157,196.797 61.549,195.464 63,193.5C 63.3333,193.833 63.6667,194.167 64,194.5C 65.332,192.34 66.832,190.34 68.5,188.5C 73.6786,183.331 79.6786,179.331 86.5,176.5C 88.0269,176.573 89.0269,175.906 89.5,174.5C 92.5154,172.326 95.8487,170.659 99.5,169.5C 101.199,169.66 102.866,169.494 104.5,169C 106.993,167.581 109.326,166.081 111.5,164.5C 123.081,159.938 135.081,156.938 147.5,155.5C 158.815,154.706 170.148,154.373 181.5,154.5 Z"/></g>
<g><path style="opacity:0.753" fill="#efbdb6" d="M 266.5,150.5 C 264.794,156.025 262.794,161.358 260.5,166.5C 261.138,160.577 263.138,155.244 266.5,150.5 Z"/></g>
<g><path style="opacity:0.99" fill="#ffe39d" d="M 111.5,164.5 C 109.326,166.081 106.993,167.581 104.5,169C 102.866,169.494 101.199,169.66 99.5,169.5C 103.099,167.072 107.099,165.406 111.5,164.5 Z"/></g>
<g><path style="opacity:0.141" fill="#fff3d6" d="M 250.5,172.5 C 253.089,172.461 255.089,173.461 256.5,175.5C 254.181,175.008 252.181,174.008 250.5,172.5 Z"/></g>
<g><path style="opacity:0.129" fill="#f5d3ca" d="M 260.5,166.5 C 260.577,170.215 260.244,173.881 259.5,177.5C 258.29,177.068 257.29,176.401 256.5,175.5C 258.323,172.813 259.657,169.813 260.5,166.5 Z"/></g>
<g><path style="opacity:0.588" fill="#fdeec5" d="M 89.5,174.5 C 89.0269,175.906 88.0269,176.573 86.5,176.5C 86.9731,175.094 87.9731,174.427 89.5,174.5 Z"/></g>
<g><path style="opacity:0.242" fill="#f3cdc8" d="M 423.5,153.5 C 428.108,166.34 429.608,179.673 428,193.5C 427.802,195.382 427.302,197.048 426.5,198.5C 428.074,183.331 427.074,168.331 423.5,153.5 Z"/></g>
<g><path style="opacity:1" fill="#f5c257" d="M 159.5,182.5 C 219.088,180.542 264.922,204.542 297,254.5C 316.798,290.947 321.132,329.281 310,369.5C 289.207,426.611 248.707,460.111 188.5,470C 136.739,474.256 94.0724,456.756 60.5,417.5C 23.2145,367.236 18.3812,313.902 46,257.5C 71.4766,213.866 109.31,188.866 159.5,182.5 Z"/></g>
<g><path style="opacity:0.263" fill="#efc1bb" d="M 388.5,153.5 C 396.101,168.991 397.434,184.991 392.5,201.5C 394.173,192.903 394.673,184.236 394,175.5C 392.669,168.014 390.836,160.681 388.5,153.5 Z"/></g>
<g><path style="opacity:0.812" fill="#fee298" d="M 68.5,188.5 C 66.832,190.34 65.332,192.34 64,194.5C 63.6667,194.167 63.3333,193.833 63,193.5C 61.549,195.464 59.7157,196.797 57.5,197.5C 60.2901,193.372 63.9568,190.372 68.5,188.5 Z"/></g>
<g><path style="opacity:0.682" fill="#feebb8" d="M 57.5,197.5 C 55.4309,200.573 52.7642,202.906 49.5,204.5C 51.5691,201.427 54.2358,199.094 57.5,197.5 Z"/></g>
<g><path style="opacity:0.184" fill="#f7dedc" d="M 426.5,198.5 C 426.313,202.913 425.646,207.246 424.5,211.5C 424.167,211.5 423.833,211.5 423.5,211.5C 424.057,206.948 425.057,202.615 426.5,198.5 Z"/></g>
<g><path style="opacity:0.514" fill="#eeb9b2" d="M 392.5,201.5 C 392.405,203.786 391.738,205.786 390.5,207.5C 390.259,205.102 390.926,203.102 392.5,201.5 Z"/></g>
<g><path style="opacity:0.612" fill="#feeec3" d="M 49.5,204.5 C 48.2427,207.427 46.2427,209.761 43.5,211.5C 44.7573,208.573 46.7573,206.239 49.5,204.5 Z"/></g>
<g><path style="opacity:1" fill="#dc8744" d="M 166.5,214.5 C 172.167,214.5 177.833,214.5 183.5,214.5C 183.5,219.167 183.5,223.833 183.5,228.5C 204.312,229.713 222.979,236.546 239.5,249C 233.943,256.225 228.776,263.725 224,271.5C 223.275,272.059 222.442,272.392 221.5,272.5C 209.815,265.271 197.149,260.604 183.5,258.5C 183.333,275.17 183.5,291.837 184,308.5C 200.076,311.746 214.909,317.912 228.5,327C 239.837,336.679 245.17,349.012 244.5,364C 244.307,386.181 234.307,402.181 214.5,412C 205.01,416.539 195.01,418.873 184.5,419C 183.522,425.41 183.189,431.91 183.5,438.5C 177.833,438.5 172.167,438.5 166.5,438.5C 166.5,431.833 166.5,425.167 166.5,418.5C 140.839,416.496 118.839,406.663 100.5,389C 105.653,382.511 110.819,376.011 116,369.5C 117.062,368.101 118.395,367.101 120,366.5C 131.031,376.103 143.531,383.269 157.5,388C 160.432,388.953 163.432,389.453 166.5,389.5C 166.5,371.833 166.5,354.167 166.5,336.5C 150.088,333.752 135.088,327.585 121.5,318C 108.694,304.697 104.194,288.864 108,270.5C 114.231,249.27 128.064,235.77 149.5,230C 155.161,229.367 160.828,228.867 166.5,228.5C 166.5,223.833 166.5,219.167 166.5,214.5 Z"/></g>
<g><path style="opacity:0.922" fill="#eea598" d="M 423.5,211.5 C 423.833,211.5 424.167,211.5 424.5,211.5C 424.245,213.967 423.245,215.967 421.5,217.5C 421.595,215.214 422.262,213.214 423.5,211.5 Z"/></g>
<g><path style="opacity:0.741" fill="#feedc3" d="M 39.5,215.5 C 39.2624,217.404 38.2624,218.738 36.5,219.5C 36.7376,217.596 37.7376,216.262 39.5,215.5 Z"/></g>
<g><path style="opacity:0.255" fill="#f6c8c3" d="M 471.5,219.5 C 471.733,221.062 472.4,222.395 473.5,223.5C 470.691,223.042 470.024,221.709 471.5,219.5 Z"/></g>
<g><path style="opacity:0.106" fill="#fbdfdd" d="M 473.5,223.5 C 475.027,223.427 476.027,224.094 476.5,225.5C 474.973,225.573 473.973,224.906 473.5,223.5 Z"/></g>
<g><path style="opacity:0.537" fill="#f6c1bb" d="M 476.5,225.5 C 478.23,226.026 479.564,227.026 480.5,228.5C 478.368,228.446 477.035,227.446 476.5,225.5 Z"/></g>
<g><path style="opacity:0.827" fill="#f6bab1" d="M 480.5,228.5 C 482.23,229.026 483.564,230.026 484.5,231.5C 482.368,231.446 481.035,230.446 480.5,228.5 Z"/></g>
<g><path style="opacity:0.851" fill="#f6b6ad" d="M 484.5,231.5 C 486.23,232.026 487.564,233.026 488.5,234.5C 486.368,234.446 485.035,233.446 484.5,231.5 Z"/></g>
<g><path style="opacity:0.035" fill="#f6e0dd" d="M 371.5,234.5 C 371.027,235.906 370.027,236.573 368.5,236.5C 368.973,235.094 369.973,234.427 371.5,234.5 Z"/></g>
<g><path style="opacity:0.882" fill="#f5b1a8" d="M 488.5,234.5 C 490.23,235.026 491.564,236.026 492.5,237.5C 490.368,237.446 489.035,236.446 488.5,234.5 Z"/></g>
<g><path style="opacity:0.043" fill="#f8e3df" d="M 367.5,237.5 C 366.198,239.822 364.198,241.155 361.5,241.5C 363.147,239.674 365.147,238.34 367.5,237.5 Z"/></g>
<g><path style="opacity:0.761" fill="#f6b3a9" d="M 496.5,240.5 C 497.906,240.973 498.573,241.973 498.5,243.5C 497.094,243.027 496.427,242.027 496.5,240.5 Z"/></g>
<g><path style="opacity:0.122" fill="#f8dfdd" d="M 361.5,241.5 C 359.421,243.873 356.754,245.206 353.5,245.5C 355.849,243.659 358.515,242.326 361.5,241.5 Z"/></g>
<g><path style="opacity:0.994" fill="#ffe295" d="M 23.5,238.5 C 22.5868,240.086 22.5868,241.586 23.5,243C 21.6003,245.373 19.6003,247.54 17.5,249.5C 18.7417,245.345 20.7417,241.678 23.5,238.5 Z"/></g>
<g><path style="opacity:0.082" fill="#f8dedb" d="M 353.5,245.5 C 352.22,246.931 350.553,247.598 348.5,247.5C 349.78,246.069 351.447,245.402 353.5,245.5 Z"/></g>
<g><path style="opacity:0.012" fill="#f8e2df" d="M 348.5,247.5 C 344.213,249.735 339.546,250.735 334.5,250.5C 338.985,249.216 343.651,248.216 348.5,247.5 Z"/></g>
<g><path style="opacity:0.047" fill="#fdeee4" d="M 327.5,250.5 C 328.5,250.5 329.5,250.5 330.5,250.5C 329.833,251.167 329.167,251.833 328.5,252.5C 327.662,252.158 327.328,251.492 327.5,250.5 Z"/></g>
<g><path style="opacity:0.631" fill="#efb2ab" d="M 402.5,249.5 C 398.783,255.55 393.783,260.217 387.5,263.5C 392.474,258.861 397.474,254.195 402.5,249.5 Z"/></g>
<g><path style="opacity:1" fill="#f5c157" d="M 159.5,257.5 C 161.833,257.5 164.167,257.5 166.5,257.5C 166.5,272.833 166.5,288.167 166.5,303.5C 157.651,301.993 150.151,297.993 144,291.5C 137.269,278.93 139.769,268.764 151.5,261C 154.476,260.295 157.142,259.129 159.5,257.5 Z"/></g>
<g><path style="opacity:0.91" fill="#ffe7a6" d="M 13.5,257.5 C 13.323,261.708 11.9897,265.374 9.5,268.5C 10.0653,264.463 11.3987,260.797 13.5,257.5 Z"/></g>
<g><path style="opacity:0.122" fill="#fce3de" d="M 493.5,261.5 C 493.25,263.674 492.25,265.341 490.5,266.5C 490.75,264.326 491.75,262.659 493.5,261.5 Z"/></g>
<g><path style="opacity:0.498" fill="#efbdb6" d="M 387.5,263.5 C 386.738,265.262 385.404,266.262 383.5,266.5C 384.262,264.738 385.596,263.738 387.5,263.5 Z"/></g>
<g><path style="opacity:0.631" fill="#ecafa6" d="M 383.5,266.5 C 383.027,267.906 382.027,268.573 380.5,268.5C 380.973,267.094 381.973,266.427 383.5,266.5 Z"/></g>
<g><path style="opacity:0.188" fill="#f9d6d3" d="M 490.5,266.5 C 490.573,268.027 489.906,269.027 488.5,269.5C 488.427,267.973 489.094,266.973 490.5,266.5 Z"/></g>
<g><path style="opacity:1" fill="#e79082" d="M 380.5,268.5 C 380.013,269.473 379.513,270.473 379,271.5C 378.014,270.829 376.847,270.829 375.5,271.5C 376.659,269.75 378.326,268.75 380.5,268.5 Z"/></g>
<g><path style="opacity:1" fill="#e17e6f" d="M 375.5,271.5 C 372.819,275.003 369.152,276.67 364.5,276.5C 367.979,274.597 371.646,272.93 375.5,271.5 Z"/></g>
<g><path style="opacity:0.212" fill="#f9dbd5" d="M 486.5,273.5 C 486.25,275.674 485.25,277.341 483.5,278.5C 483.75,276.326 484.75,274.659 486.5,273.5 Z"/></g>
<g><path style="opacity:0.851" fill="#ffefc6" d="M 7.5,273.5 C 4.81687,284.879 2.48354,296.213 0.5,307.5C 0.961965,295.67 3.2953,284.337 7.5,273.5 Z"/></g>
<g><path style="opacity:0.843" fill="#e49083" d="M 364.5,276.5 C 362.383,278.655 359.716,279.655 356.5,279.5C 358.936,278.129 361.603,277.129 364.5,276.5 Z"/></g>
<g><path style="opacity:0.808" fill="#e59488" d="M 356.5,279.5 C 354.485,280.924 352.152,281.59 349.5,281.5C 351.515,280.076 353.848,279.41 356.5,279.5 Z"/></g>
<g><path style="opacity:0.282" fill="#f7cdc9" d="M 483.5,278.5 C 483.25,280.674 482.25,282.341 480.5,283.5C 480.75,281.326 481.75,279.659 483.5,278.5 Z"/></g>
<g><path style="opacity:0.29" fill="#f8cfcb" d="M 479.5,285.5 C 479.25,287.674 478.25,289.341 476.5,290.5C 476.75,288.326 477.75,286.659 479.5,285.5 Z"/></g>
<g><path style="opacity:0.941" fill="#f6b2a8" d="M 435.5,289.5 C 437.698,289.12 439.365,289.787 440.5,291.5C 438.447,291.598 436.78,290.931 435.5,289.5 Z"/></g>
<g><path style="opacity:0.271" fill="#f8cec8" d="M 475.5,292.5 C 475.573,294.027 474.906,295.027 473.5,295.5C 473.427,293.973 474.094,292.973 475.5,292.5 Z"/></g>
<g><path style="opacity:0.961" fill="#ef9284" d="M 471.5,298.5 C 469.969,300.68 467.802,301.68 465,301.5C 462.516,301.503 460.349,300.837 458.5,299.5C 462.434,299.979 466.101,299.312 469.5,297.5C 470.183,297.863 470.85,298.196 471.5,298.5 Z"/></g>
<g><path style="opacity:0.992" fill="#f4a296" d="M 402.5,311.5 C 400.151,313.341 397.485,314.674 394.5,315.5C 395.016,313.8 396.016,312.467 397.5,311.5C 399.003,312.052 400.669,312.052 402.5,311.5 Z"/></g>
<g><path style="opacity:0.208" fill="#f9d8d4" d="M 394.5,315.5 C 393.713,317.104 392.38,317.771 390.5,317.5C 391.514,316.326 392.847,315.66 394.5,315.5 Z"/></g>
<g><path style="opacity:1" fill="#f5c157" d="M 183.5,342.5 C 194.403,344.03 203.236,349.03 210,357.5C 213.943,371.782 209.11,381.949 195.5,388C 191.56,389.156 187.56,389.99 183.5,390.5C 183.5,374.5 183.5,358.5 183.5,342.5 Z"/></g>
<g><path style="opacity:0.196" fill="#f9d6d2" d="M 388.5,318.5 C 381.43,322.361 373.93,325.361 366,327.5C 364.927,336.158 363.927,344.825 363,353.5C 362.902,356.522 362.068,359.189 360.5,361.5C 361.737,349.8 363.237,338.133 365,326.5C 372.878,323.93 380.711,321.263 388.5,318.5 Z"/></g>
<g><path style="opacity:0.227" fill="#ffefc8" d="M -0.5,331.5 C 0.603267,343.806 2.26993,356.139 4.5,368.5C 2.29793,361.616 0.631265,354.616 -0.5,347.5C -0.5,342.167 -0.5,336.833 -0.5,331.5 Z"/></g>
<g><path style="opacity:0.417" fill="#f9dcd5" d="M 360.5,361.5 C 360.084,363.752 358.751,365.252 356.5,366C 351.657,367.605 346.823,367.771 342,366.5C 341.066,367.858 340.232,369.192 339.5,370.5C 339.366,368.708 339.699,367.042 340.5,365.5C 345.511,365.666 350.511,365.499 355.5,365C 357.323,364.003 358.99,362.836 360.5,361.5 Z"/></g>
<g><path style="opacity:0.024" fill="#fff5da" d="M 4.5,368.5 C 6.25759,371.854 7.25759,375.521 7.5,379.5C 5.74241,376.146 4.74241,372.479 4.5,368.5 Z"/></g>
<g><path style="opacity:0.235" fill="#fef4da" d="M 8.5,382.5 C 10.2671,384.792 11.2671,387.458 11.5,390.5C 9.73292,388.208 8.73292,385.542 8.5,382.5 Z"/></g>
<g><path style="opacity:0.22" fill="#fef3d5" d="M 14.5,397.5 C 17.3411,401.849 19.6745,406.516 21.5,411.5C 18.1263,407.419 15.793,402.753 14.5,397.5 Z"/></g>
<g><path style="opacity:0.169" fill="#fff4d8" d="M 327.5,402.5 C 327.206,405.754 325.873,408.421 323.5,410.5C 324.326,407.515 325.659,404.849 327.5,402.5 Z"/></g>
<g><path style="opacity:0.173" fill="#fef2d9" d="M 322.5,412.5 C 322.573,414.027 321.906,415.027 320.5,415.5C 320.427,413.973 321.094,412.973 322.5,412.5 Z"/></g>
<g><path style="opacity:0.149" fill="#fef4da" d="M 22.5,413.5 C 23.9063,413.973 24.573,414.973 24.5,416.5C 23.0937,416.027 22.427,415.027 22.5,413.5 Z"/></g>
<g><path style="opacity:0.98" fill="#ffeab2" d="M 319.5,417.5 C 318.331,420.511 316.664,423.178 314.5,425.5C 314.67,421.814 316.336,419.147 319.5,417.5 Z"/></g>
<g><path style="opacity:0.008" fill="#fef5e0" d="M 313.5,426.5 C 313.573,428.027 312.906,429.027 311.5,429.5C 311.427,427.973 312.094,426.973 313.5,426.5 Z"/></g>
<g><path style="opacity:0.012" fill="#fef5df" d="M 310.5,430.5 C 310.573,432.027 309.906,433.027 308.5,433.5C 308.427,431.973 309.094,430.973 310.5,430.5 Z"/></g>
<g><path style="opacity:0.502" fill="#fef0cf" d="M 41.5,440.5 C 43.8333,440.833 45.1667,442.167 45.5,444.5C 43.8333,443.5 42.5,442.167 41.5,440.5 Z"/></g>
<g><path style="opacity:0.678" fill="#fff0cb" d="M 53.5,452.5 C 56.4274,453.757 58.7607,455.757 60.5,458.5C 57.5726,457.243 55.2393,455.243 53.5,452.5 Z"/></g>
<g><path style="opacity:1" fill="#ffe08d" d="M 92.5,480.5 C 87.6566,478.582 83.3233,475.916 79.5,472.5C 85.0278,472.783 89.3611,475.449 92.5,480.5 Z"/></g>
<g><path style="opacity:0.992" fill="#ffe297" d="M 270.5,469.5 C 266.836,472.335 262.836,474.668 258.5,476.5C 258.5,475.5 258.5,474.5 258.5,473.5C 262.123,472.974 265.123,471.307 267.5,468.5C 268.417,469.127 269.417,469.461 270.5,469.5 Z"/></g>
<g><path style="opacity:1" fill="#ffe49f" d="M 258.5,476.5 C 255.992,478.924 252.992,480.59 249.5,481.5C 251.285,477.727 254.285,476.061 258.5,476.5 Z"/></g>
<g><path style="opacity:0.839" fill="#ffe9b1" d="M 92.5,480.5 C 95.9915,480.909 99.3248,481.909 102.5,483.5C 104.175,483.868 105.175,484.868 105.5,486.5C 100.75,485.257 96.4164,483.257 92.5,480.5 Z"/></g>
<g><path style="opacity:0.302" fill="#fef1cf" d="M 249.5,481.5 C 244.693,484.9 239.36,487.234 233.5,488.5C 238.541,485.649 243.875,483.316 249.5,481.5 Z"/></g>
<g><path style="opacity:0.137" fill="#fef5e0" d="M 108.5,487.5 C 110.553,487.402 112.22,488.069 113.5,489.5C 111.447,489.598 109.78,488.931 108.5,487.5 Z"/></g>
<g><path style="opacity:0.078" fill="#fffae9" d="M 116.5,490.5 C 118.553,490.402 120.22,491.069 121.5,492.5C 119.447,492.598 117.78,491.931 116.5,490.5 Z"/></g>
<g><path style="opacity:0.051" fill="#fff6df" d="M 233.5,488.5 C 225.015,492.543 216.015,495.209 206.5,496.5C 215.356,493.698 224.356,491.032 233.5,488.5 Z"/></g>
<g><path style="opacity:0.157" fill="#fef7e1" d="M 133.5,495.5 C 137.078,495.549 140.411,496.215 143.5,497.5C 139.878,497.678 136.544,497.011 133.5,495.5 Z"/></g>
<g><path style="opacity:0.38" fill="#fef1d0" d="M 144.5,497.5 C 150.051,497.527 155.384,498.194 160.5,499.5C 157.5,499.5 154.5,499.5 151.5,499.5C 149.167,498.833 146.833,498.167 144.5,497.5 Z"/></g>
<g><path style="opacity:0.204" fill="#fef3d6" d="M 206.5,496.5 C 201.863,497.663 197.196,498.663 192.5,499.5C 187.5,499.5 182.5,499.5 177.5,499.5C 187.016,498.432 196.683,497.432 206.5,496.5 Z"/></g>
</svg>
