<?xml version="1.0" encoding="UTF-8"?>
<!DOCTYPE svg PUBLIC "-//W3C//DTD SVG 1.1//EN" "http://www.w3.org/Graphics/SVG/1.1/DTD/svg11.dtd">
<svg xmlns="http://www.w3.org/2000/svg" version="1.1" width="598px" height="417px" style="shape-rendering:geometricPrecision; text-rendering:geometricPrecision; image-rendering:optimizeQuality; fill-rule:evenodd; clip-rule:evenodd" xmlns:xlink="http://www.w3.org/1999/xlink">
<g><path style="opacity:0.353" fill="#f0ce8b" d="M 209.5,19.5 C 215.142,19.4964 220.475,20.4964 225.5,22.5C 219.84,22.5593 214.506,21.5593 209.5,19.5 Z"/></g>
<g><path style="opacity:0.282" fill="#f3d593" d="M 225.5,22.5 C 227.786,22.595 229.786,23.2616 231.5,24.5C 229.102,24.7406 227.102,24.0739 225.5,22.5 Z"/></g>
<g><path style="opacity:0.161" fill="#e4bf7f" d="M 231.5,24.5 C 234.542,24.7329 237.208,25.7329 239.5,27.5C 236.364,27.3969 233.698,26.3969 231.5,24.5 Z"/></g>
<g><path style="opacity:0.388" fill="#e7bd79" d="M 182.5,20.5 C 174.314,23.3431 166.314,26.6764 158.5,30.5C 165.526,25.0408 173.526,21.7074 182.5,20.5 Z"/></g>
<g><path style="opacity:0.176" fill="#e0c08b" d="M 239.5,27.5 C 241.153,27.6596 242.486,28.3263 243.5,29.5C 241.62,29.7709 240.287,29.1042 239.5,27.5 Z"/></g>
<g><path style="opacity:0.561" fill="#e8b853" d="M 360.5,34.5 C 366.71,35.605 372.044,38.2717 376.5,42.5C 374.94,42.4809 373.44,42.1476 372,41.5C 368.054,38.9625 364.221,36.6292 360.5,34.5 Z"/></g>
<g><path style="opacity:0.878" fill="#ecb558" d="M 158.5,30.5 C 156.32,34.8702 152.987,37.8702 148.5,39.5C 149.167,38.5 149.833,37.5 150.5,36.5C 152.443,33.5293 155.109,31.5293 158.5,30.5 Z"/></g>
<g><path style="opacity:1" fill="#f9a921" d="M 209.5,19.5 C 214.506,21.5593 219.84,22.5593 225.5,22.5C 227.102,24.0739 229.102,24.7406 231.5,24.5C 233.698,26.3969 236.364,27.3969 239.5,27.5C 240.287,29.1042 241.62,29.7709 243.5,29.5C 246.331,30.0787 248.664,31.412 250.5,33.5C 252.8,35.984 255.467,37.984 258.5,39.5C 258.414,40.4959 258.748,41.3292 259.5,42C 262.065,44.0795 264.732,45.9128 267.5,47.5C 267.738,49.4044 268.738,50.7377 270.5,51.5C 271.106,56.7393 273.773,59.0726 278.5,58.5C 284.457,57.8519 289.79,55.8519 294.5,52.5C 301.019,51.3301 307.019,48.9968 312.5,45.5C 318.314,44.5854 323.647,42.5854 328.5,39.5C 338.49,33.7885 349.157,32.1218 360.5,34.5C 364.221,36.6292 368.054,38.9625 372,41.5C 373.44,42.1476 374.94,42.4809 376.5,42.5C 377.362,45.5356 379.196,47.869 382,49.5C 382.743,51.4406 382.576,53.2739 381.5,55C 383.42,56.1223 385.42,56.9556 387.5,57.5C 389.685,61.8843 390.685,66.551 390.5,71.5C 391.675,71.281 392.675,71.6143 393.5,72.5C 394.304,75.0328 395.637,77.0328 397.5,78.5C 398.537,79.9303 399.204,81.597 399.5,83.5C 400.411,87.9983 401.911,92.3317 404,96.5C 404.417,97.756 405.25,98.4226 406.5,98.5C 407.688,103.565 409.188,108.565 411,113.5C 412.276,116.599 414.11,119.266 416.5,121.5C 416.656,124.066 416.322,126.566 415.5,129C 416.137,130.713 417.137,130.879 418.5,129.5C 419.288,130.77 420.288,131.77 421.5,132.5C 421.166,135.491 422.166,137.824 424.5,139.5C 424.574,146.522 427.241,152.189 432.5,156.5C 432.319,161.304 433.985,165.304 437.5,168.5C 438.943,173.067 440.11,177.734 441,182.5C 442.942,186.598 445.442,190.265 448.5,193.5C 449.092,196.127 449.425,198.794 449.5,201.5C 450.5,201.5 451.5,201.5 452.5,201.5C 452.338,203.527 452.505,205.527 453,207.5C 454.816,213.138 457.649,218.138 461.5,222.5C 461.198,226.38 462.531,229.38 465.5,231.5C 465.804,234.522 466.304,237.522 467,240.5C 468.634,242.837 470.467,244.837 472.5,246.5C 472.166,249.491 473.166,251.824 475.5,253.5C 475.343,254.873 475.51,256.207 476,257.5C 476.902,259.431 478.069,261.097 479.5,262.5C 479.502,266.165 480.835,269.165 483.5,271.5C 483.623,276.33 485.123,280.663 488,284.5C 488.202,290.762 489.035,296.928 490.5,303C 489.562,306.792 488.896,310.625 488.5,314.5C 487.5,316.5 486.5,318.5 485.5,320.5C 480.829,321.555 478.829,324.555 479.5,329.5C 476.268,329.772 474.268,331.438 473.5,334.5C 472.609,335.11 471.609,335.443 470.5,335.5C 468.62,335.229 467.287,335.896 466.5,337.5C 466.167,337.5 465.833,337.5 465.5,337.5C 460.617,338.016 455.95,339.349 451.5,341.5C 451.137,342.183 450.804,342.85 450.5,343.5C 446.175,343.349 442.509,344.682 439.5,347.5C 436.654,347.552 434.32,348.552 432.5,350.5C 429.603,350.319 426.77,350.652 424,351.5C 421.743,350.289 419.576,348.956 417.5,347.5C 417.167,347.833 416.833,348.167 416.5,348.5C 418.911,350.319 419.078,352.319 417,354.5C 414.252,355.686 411.419,356.686 408.5,357.5C 407.807,358.518 407.141,359.518 406.5,360.5C 403.364,360.603 400.698,361.603 398.5,363.5C 390.879,365.633 383.212,367.8 375.5,370C 375.833,370.333 376.167,370.667 376.5,371C 372.89,372.203 369.224,373.203 365.5,374C 364.748,374.671 364.414,375.504 364.5,376.5C 361.193,377.051 357.86,377.384 354.5,377.5C 354.5,378.5 354.5,379.5 354.5,380.5C 351.351,380.415 348.684,381.415 346.5,383.5C 345.486,384.674 344.153,385.34 342.5,385.5C 339.99,385.054 337.99,385.72 336.5,387.5C 336.158,388.338 335.492,388.672 334.5,388.5C 332.447,388.402 330.78,389.069 329.5,390.5C 327.143,390.337 324.81,390.503 322.5,391C 317.858,393.818 312.858,395.818 307.5,397C 306.619,397.708 305.953,398.542 305.5,399.5C 305.167,399.5 304.833,399.5 304.5,399.5C 297.825,399.666 291.158,399.5 284.5,399C 281.753,397.396 278.753,396.562 275.5,396.5C 275.027,395.094 274.027,394.427 272.5,394.5C 271.415,392.413 269.749,391.08 267.5,390.5C 266.5,390.167 265.833,389.5 265.5,388.5C 262.666,383.63 259.666,378.963 256.5,374.5C 255.828,370.812 254.995,367.145 254,363.5C 252.562,360.012 251.062,356.679 249.5,353.5C 248.262,351.786 247.595,349.786 247.5,347.5C 246.516,338.543 243.849,330.209 239.5,322.5C 239.482,319.264 238.482,316.597 236.5,314.5C 236.663,312.143 236.497,309.81 236,307.5C 232.928,298.116 229.761,288.783 226.5,279.5C 226.666,275.486 226.499,271.486 226,267.5C 224.667,266.833 223.333,266.167 222,265.5C 220.964,262.247 220.297,258.914 220,255.5C 218.458,251.914 216.625,248.581 214.5,245.5C 213.659,241.802 212.659,238.135 211.5,234.5C 210.817,234.137 210.15,233.804 209.5,233.5C 209.829,230.772 209.163,228.438 207.5,226.5C 207.196,223.478 206.696,220.478 206,217.5C 205.583,216.244 204.75,215.577 203.5,215.5C 202.501,210.94 201.668,206.273 201,201.5C 199.97,199.654 198.804,197.987 197.5,196.5C 197.868,192.956 196.868,189.956 194.5,187.5C 194.5,186.167 194.5,184.833 194.5,183.5C 194.663,181.143 194.497,178.81 194,176.5C 192.337,174.842 191.504,172.842 191.5,170.5C 192.552,170.649 193.552,170.483 194.5,170C 192.511,168.009 190.844,165.843 189.5,163.5C 191.849,161.796 192.849,159.463 192.5,156.5C 190.178,154.588 187.512,153.255 184.5,152.5C 184.856,149.224 183.856,146.557 181.5,144.5C 180.833,144.167 180.167,143.833 179.5,143.5C 177.786,134.632 177.12,125.632 177.5,116.5C 179.074,114.898 179.741,112.898 179.5,110.5C 181.008,108.819 182.008,106.819 182.5,104.5C 184.167,103.5 185.5,102.167 186.5,100.5C 188.886,99.6267 190.886,98.1267 192.5,96C 193.793,95.51 195.127,95.3433 196.5,95.5C 196.281,94.325 196.614,93.325 197.5,92.5C 199.419,91.3875 201.086,90.0542 202.5,88.5C 205.491,88.8337 207.824,87.8337 209.5,85.5C 213.775,86.2503 217.109,84.917 219.5,81.5C 224.14,81.6831 228.14,80.3498 231.5,77.5C 232.514,76.3263 233.847,75.6596 235.5,75.5C 239.775,76.2503 243.109,74.917 245.5,71.5C 247.861,71.3259 250.194,70.9926 252.5,70.5C 253.019,66.5208 251.352,64.1874 247.5,63.5C 246.5,60.5 244.5,58.5 241.5,57.5C 241.027,56.0937 240.027,55.427 238.5,55.5C 237.522,52.6752 235.522,51.3419 232.5,51.5C 229.111,46.9651 224.444,45.2984 218.5,46.5C 216.901,46.7678 215.568,46.4345 214.5,45.5C 210.258,44.0324 205.758,43.3657 201,43.5C 197.979,43.5022 195.146,43.8356 192.5,44.5C 190.283,45.3686 187.95,45.702 185.5,45.5C 181.353,45.1257 177.686,46.1257 174.5,48.5C 174.5,49.1667 174.5,49.8333 174.5,50.5C 174.167,50.5 173.833,50.5 173.5,50.5C 170.021,51.2036 166.688,52.3702 163.5,54C 164.34,55.6665 163.84,55.8331 162,54.5C 159.977,56.7693 159.144,59.4359 159.5,62.5C 158.094,62.9731 157.427,63.9731 157.5,65.5C 152.197,69.7305 149.53,75.3972 149.5,82.5C 147.926,84.1016 147.259,86.1016 147.5,88.5C 146.883,88.6107 146.383,88.944 146,89.5C 145.674,93.6282 144.84,97.6282 143.5,101.5C 144.222,109.992 144.889,118.492 145.5,127C 145.385,129.042 145.051,131.042 144.5,133C 146.024,134.194 147.19,135.694 148,137.5C 148.333,141.167 148.667,144.833 149,148.5C 150.357,151.686 151.857,154.686 153.5,157.5C 155.255,160.68 157.255,163.68 159.5,166.5C 159.53,169.852 160.863,172.518 163.5,174.5C 163.031,177.393 164.031,179.393 166.5,180.5C 166.715,185.271 168.715,188.938 172.5,191.5C 175.579,194.65 177.913,198.317 179.5,202.5C 181.35,206.568 182.35,210.901 182.5,215.5C 184.621,215.325 186.621,215.659 188.5,216.5C 188.241,218.989 189.241,220.656 191.5,221.5C 191.913,223.89 192.579,226.223 193.5,228.5C 198.375,236.918 202.709,245.584 206.5,254.5C 207.577,265.807 207.743,277.14 207,288.5C 204.957,295.7 203.457,303.034 202.5,310.5C 202.768,312.099 202.434,313.432 201.5,314.5C 199.552,316.32 198.552,318.654 198.5,321.5C 197.542,321.953 196.708,322.619 196,323.5C 194.782,328.849 191.949,332.849 187.5,335.5C 187.599,338.237 187.265,340.904 186.5,343.5C 186.5,343.833 186.5,344.167 186.5,344.5C 184.685,345.63 182.685,346.296 180.5,346.5C 180.5,348.167 180.5,349.833 180.5,351.5C 179.833,352.5 179.167,353.5 178.5,354.5C 176.167,354.833 174.833,356.167 174.5,358.5C 172.192,360.471 169.858,362.471 167.5,364.5C 166.167,364.5 164.833,364.5 163.5,364.5C 163.5,365.5 163.5,366.5 163.5,367.5C 160.313,369.178 156.98,370.512 153.5,371.5C 153.5,372.5 153.5,373.5 153.5,374.5C 153.5,375.167 153.167,375.5 152.5,375.5C 150.297,375.604 148.297,376.27 146.5,377.5C 143.003,377.294 140.337,378.628 138.5,381.5C 135.36,382.641 132.027,382.808 128.5,382C 127.058,381.623 126.058,380.79 125.5,379.5C 125.107,377.716 124.441,376.05 123.5,374.5C 123.301,371.059 123.801,367.726 125,364.5C 129.639,360.774 134.472,357.44 139.5,354.5C 143.542,353.149 146.875,350.815 149.5,347.5C 152.126,345.177 154.793,342.843 157.5,340.5C 159.017,340.489 160.184,339.823 161,338.5C 162.75,336.266 164.25,333.932 165.5,331.5C 166.5,331.5 167.5,331.5 168.5,331.5C 172.298,324.223 175.298,316.557 177.5,308.5C 177.5,308.167 177.5,307.833 177.5,307.5C 180.222,304.883 180.889,301.883 179.5,298.5C 179.833,297.833 180.167,297.167 180.5,296.5C 182.068,294.189 182.902,291.522 183,288.5C 183.5,279.506 183.666,270.506 183.5,261.5C 182.787,256.676 181.12,252.343 178.5,248.5C 177.662,248.158 177.328,247.492 177.5,246.5C 176.68,244.188 175.847,241.854 175,239.5C 174.124,237.365 172.624,236.031 170.5,235.5C 169.833,234.167 169.167,232.833 168.5,231.5C 167.03,226.186 164.363,221.852 160.5,218.5C 159.097,213.355 156.43,209.021 152.5,205.5C 152.083,202.657 151.083,199.99 149.5,197.5C 145.912,192.653 142.578,187.653 139.5,182.5C 137.895,176.409 136.062,170.409 134,164.5C 133.623,163.058 132.79,162.058 131.5,161.5C 130.637,159.579 129.971,157.579 129.5,155.5C 127.196,147.344 125.863,139.01 125.5,130.5C 126.822,130.67 127.989,130.337 129,129.5C 129.667,125.833 129.667,122.167 129,118.5C 128.132,122.27 126.966,125.936 125.5,129.5C 122.535,119.458 121.702,109.125 123,98.5C 125.546,90.5183 127.046,82.185 127.5,73.5C 128.99,69.2066 130.323,64.8733 131.5,60.5C 133.669,58.6597 135.002,56.3263 135.5,53.5C 137.984,51.1997 139.984,48.5331 141.5,45.5C 143.833,43.5 146.167,41.5 148.5,39.5C 152.987,37.8702 156.32,34.8702 158.5,30.5C 166.314,26.6764 174.314,23.3431 182.5,20.5C 187.933,19.0687 193.599,18.4021 199.5,18.5C 203.018,18.5016 206.351,18.8349 209.5,19.5 Z M 294.5,81.5 C 295.391,82.1098 296.391,82.4431 297.5,82.5C 298.833,84.5 300.5,86.1667 302.5,87.5C 303.512,88.8717 304.512,90.205 305.5,91.5C 308.781,101.031 307.781,110.031 302.5,118.5C 300.142,120.529 297.808,122.529 295.5,124.5C 293.167,125.167 290.833,125.833 288.5,126.5C 275.797,127.9 266.63,122.9 261,111.5C 258.529,103.666 259.529,96.3328 264,89.5C 265.189,91.2331 266.356,92.8998 267.5,94.5C 268.263,98.1368 269.597,101.47 271.5,104.5C 271.166,107.491 272.166,109.824 274.5,111.5C 274.973,112.906 275.973,113.573 277.5,113.5C 279.29,114.997 281.456,115.664 284,115.5C 285.707,115.492 287.207,115.158 288.5,114.5C 291.204,114.33 292.871,112.997 293.5,110.5C 294.906,110.027 295.573,109.027 295.5,107.5C 296.579,99.3645 294.913,91.6978 290.5,84.5C 290.5,84.1667 290.5,83.8333 290.5,83.5C 290.586,82.5041 290.252,81.6708 289.5,81C 291.197,80.6155 292.863,80.7822 294.5,81.5 Z M 379.5,160.5 C 379.167,162.5 378.833,164.5 378.5,166.5C 376.796,169.939 375.462,173.605 374.5,177.5C 372.06,181.817 370.393,186.483 369.5,191.5C 368.463,192.93 367.796,194.597 367.5,196.5C 365.796,199.939 364.462,203.605 363.5,207.5C 363.5,207.833 363.5,208.167 363.5,208.5C 361.6,211.518 360.267,214.851 359.5,218.5C 357.399,221.797 356.065,225.463 355.5,229.5C 353.459,233.952 351.792,238.618 350.5,243.5C 346.256,253.56 342.59,263.894 339.5,274.5C 337.266,278.522 335.599,282.856 334.5,287.5C 333.331,290.341 332.331,293.341 331.5,296.5C 328.928,302.359 326.428,308.359 324,314.5C 322.855,315.636 321.688,316.636 320.5,317.5C 315.649,318.589 310.983,320.256 306.5,322.5C 306.167,321.667 305.833,320.833 305.5,320C 306.322,317.528 306.989,315.028 307.5,312.5C 309.208,309.05 310.541,305.383 311.5,301.5C 313.734,297.478 315.401,293.144 316.5,288.5C 316.5,288.167 316.5,287.833 316.5,287.5C 319.584,281.532 321.918,275.199 323.5,268.5C 325.737,264.466 327.404,260.132 328.5,255.5C 329.738,253.786 330.405,251.786 330.5,249.5C 333.02,244.443 335.02,239.109 336.5,233.5C 338.267,231.208 339.267,228.542 339.5,225.5C 342.07,221.257 343.737,216.59 344.5,211.5C 345.338,211.158 345.672,210.492 345.5,209.5C 348.337,202.329 351.004,194.996 353.5,187.5C 354.871,185.064 355.871,182.397 356.5,179.5C 356.5,179.167 356.5,178.833 356.5,178.5C 358.344,174.99 360.011,171.323 361.5,167.5C 364.406,165.55 367.406,163.883 370.5,162.5C 373.426,161.539 376.426,160.873 379.5,160.5 Z M 301.5,182.5 C 304.421,183.696 307.421,184.696 310.5,185.5C 312.833,187.5 315.167,189.5 317.5,191.5C 323.083,198.331 326.75,205.997 328.5,214.5C 328.5,215.833 328.5,217.167 328.5,218.5C 327.809,223.236 326.475,227.902 324.5,232.5C 321.908,236.432 318.908,240.099 315.5,243.5C 312.996,244.584 310.663,245.917 308.5,247.5C 304.473,249.065 300.473,250.398 296.5,251.5C 296.167,251.5 295.833,251.5 295.5,251.5C 288.07,252.192 281.07,250.859 274.5,247.5C 274.167,247.5 273.833,247.5 273.5,247.5C 272.055,245.937 270.389,244.604 268.5,243.5C 264.736,239.618 261.736,235.285 259.5,230.5C 255.268,217.02 257.268,204.687 265.5,193.5C 266.167,193.5 266.5,193.167 266.5,192.5C 270.377,190.401 274.044,188.067 277.5,185.5C 279.403,185.204 281.07,184.537 282.5,183.5C 288.789,182.628 295.122,182.295 301.5,182.5 Z M 385.5,232.5 C 394.094,231.826 402.427,232.826 410.5,235.5C 410.973,236.906 411.973,237.573 413.5,237.5C 415.5,240.167 417.833,242.5 420.5,244.5C 420.5,244.833 420.5,245.167 420.5,245.5C 421.846,247.537 423.18,249.537 424.5,251.5C 428.499,261.172 428.499,270.839 424.5,280.5C 421.179,285.152 417.513,289.485 413.5,293.5C 412.508,293.328 411.842,293.662 411.5,294.5C 408.515,295.326 405.849,296.659 403.5,298.5C 398.989,299.025 394.489,299.692 390,300.5C 386.189,299.638 382.356,298.971 378.5,298.5C 372.394,295.114 367.06,290.781 362.5,285.5C 361.342,282.011 360.009,278.678 358.5,275.5C 358.334,269.158 358.5,262.825 359,256.5C 360.747,251.333 363.247,246.667 366.5,242.5C 367.167,242.5 367.5,242.167 367.5,241.5C 371.584,238.76 375.918,236.426 380.5,234.5C 382.306,233.976 383.972,233.309 385.5,232.5 Z"/></g>
<g><path style="opacity:0.149" fill="#e6cb8e" d="M 250.5,33.5 C 253.891,34.5293 256.557,36.5293 258.5,39.5C 255.467,37.984 252.8,35.984 250.5,33.5 Z"/></g>
<g><path style="opacity:0.255" fill="#f6d599" d="M 150.5,36.5 C 149.833,37.5 149.167,38.5 148.5,39.5C 146.167,41.5 143.833,43.5 141.5,45.5C 143.5,41.5 146.5,38.5 150.5,36.5 Z"/></g>
<g><path style="opacity:0.224" fill="#e7c176" d="M 192.5,44.5 C 195.146,43.8356 197.979,43.5022 201,43.5C 205.758,43.3657 210.258,44.0324 214.5,45.5C 207.191,44.7516 199.858,44.4183 192.5,44.5 Z"/></g>
<g><path style="opacity:0.016" fill="#f8e1a1" d="M 258.5,39.5 C 262.12,41.4528 265.12,44.1195 267.5,47.5C 264.732,45.9128 262.065,44.0795 259.5,42C 258.748,41.3292 258.414,40.4959 258.5,39.5 Z"/></g>
<g><path style="opacity:0.533" fill="#eec370" d="M 328.5,39.5 C 323.647,42.5854 318.314,44.5854 312.5,45.5C 317.537,42.929 322.871,40.929 328.5,39.5 Z"/></g>
<g><path style="opacity:0.792" fill="#eab654" d="M 185.5,45.5 C 183.064,46.871 180.397,47.871 177.5,48.5C 176.5,48.5 175.5,48.5 174.5,48.5C 177.686,46.1257 181.353,45.1257 185.5,45.5 Z"/></g>
<g><path style="opacity:0.965" fill="#eab24b" d="M 218.5,46.5 C 224.444,45.2984 229.111,46.9651 232.5,51.5C 227.748,49.8068 223.081,48.1401 218.5,46.5 Z"/></g>
<g><path style="opacity:0.212" fill="#e5c07f" d="M 141.5,45.5 C 139.984,48.5331 137.984,51.1997 135.5,53.5C 136.529,50.1092 138.529,47.4426 141.5,45.5 Z"/></g>
<g><path style="opacity:0.129" fill="#fad9a6" d="M 174.5,48.5 C 175.5,48.5 176.5,48.5 177.5,48.5C 176.71,49.4013 175.71,50.0679 174.5,50.5C 174.5,49.8333 174.5,49.1667 174.5,48.5 Z"/></g>
<g><path style="opacity:0.282" fill="#e7c08b" d="M 267.5,47.5 C 269.262,48.2623 270.262,49.5956 270.5,51.5C 268.738,50.7377 267.738,49.4044 267.5,47.5 Z"/></g>
<g><path style="opacity:0.537" fill="#f0cd7f" d="M 312.5,45.5 C 307.019,48.9968 301.019,51.3301 294.5,52.5C 300.22,49.6472 306.22,47.3138 312.5,45.5 Z"/></g>
<g><path style="opacity:0.847" fill="#e1ba5a" d="M 232.5,51.5 C 235.522,51.3419 237.522,52.6752 238.5,55.5C 236.147,54.6597 234.147,53.3264 232.5,51.5 Z"/></g>
<g><path style="opacity:0.969" fill="#efb14d" d="M 173.5,50.5 C 168.564,54.0963 163.897,58.0963 159.5,62.5C 159.144,59.4359 159.977,56.7693 162,54.5C 163.84,55.8331 164.34,55.6665 163.5,54C 166.688,52.3702 170.021,51.2036 173.5,50.5 Z"/></g>
<g><path style="opacity:0.475" fill="#e8c073" d="M 294.5,52.5 C 289.79,55.8519 284.457,57.8519 278.5,58.5C 283.547,55.9868 288.88,53.9868 294.5,52.5 Z"/></g>
<g><path style="opacity:0.875" fill="#eebe6d" d="M 270.5,51.5 C 272.543,54.5431 275.21,56.8764 278.5,58.5C 273.773,59.0726 271.106,56.7393 270.5,51.5 Z"/></g>
<g><path style="opacity:0.184" fill="#e8b575" d="M 238.5,55.5 C 240.027,55.427 241.027,56.0937 241.5,57.5C 239.973,57.573 238.973,56.9063 238.5,55.5 Z"/></g>
<g><path style="opacity:0.114" fill="#f4d898" d="M 135.5,53.5 C 135.002,56.3263 133.669,58.6597 131.5,60.5C 132.079,57.6689 133.412,55.3356 135.5,53.5 Z"/></g>
<g><path style="opacity:0.282" fill="#e9c363" d="M 241.5,57.5 C 244.5,58.5 246.5,60.5 247.5,63.5C 245.167,61.8333 243.167,59.8333 241.5,57.5 Z"/></g>
<g><path style="opacity:0.016" fill="#ecbc7b" d="M 159.5,62.5 C 159.573,64.0269 158.906,65.0269 157.5,65.5C 157.427,63.9731 158.094,62.9731 159.5,62.5 Z"/></g>
<g><path style="opacity:0.357" fill="#e1b55f" d="M 247.5,63.5 C 251.352,64.1874 253.019,66.5208 252.5,70.5C 250.194,70.9926 247.861,71.3259 245.5,71.5C 247.406,70.5176 249.406,69.5176 251.5,68.5C 250.143,66.8144 248.81,65.1477 247.5,63.5 Z"/></g>
<g><path style="opacity:0.969" fill="#e9b04a" d="M 376.5,42.5 C 381.509,46.1762 385.343,50.8429 388,56.5C 391.454,63.7384 394.621,71.0717 397.5,78.5C 395.637,77.0328 394.304,75.0328 393.5,72.5C 392.675,71.6143 391.675,71.281 390.5,71.5C 390.685,66.551 389.685,61.8843 387.5,57.5C 385.42,56.9556 383.42,56.1223 381.5,55C 382.576,53.2739 382.743,51.4406 382,49.5C 379.196,47.869 377.362,45.5356 376.5,42.5 Z"/></g>
<g><path style="opacity:0.882" fill="#ecc164" d="M 157.5,65.5 C 154.54,71.0843 151.873,76.7509 149.5,82.5C 149.53,75.3972 152.197,69.7305 157.5,65.5 Z"/></g>
<g><path style="opacity:0.42" fill="#e7c381" d="M 131.5,60.5 C 130.323,64.8733 128.99,69.2066 127.5,73.5C 126.833,74.1667 126.167,74.8333 125.5,75.5C 126.338,69.9748 128.338,64.9748 131.5,60.5 Z"/></g>
<g><path style="opacity:0.82" fill="#e6b452" d="M 245.5,71.5 C 243.109,74.917 239.775,76.2503 235.5,75.5C 238.54,73.6541 241.873,72.3208 245.5,71.5 Z"/></g>
<g><path style="opacity:0.576" fill="#ebb861" d="M 231.5,77.5 C 228.14,80.3498 224.14,81.6831 219.5,81.5C 223.233,79.589 227.233,78.2556 231.5,77.5 Z"/></g>
<g><path style="opacity:0.141" fill="#e2c58b" d="M 294.5,81.5 C 292.863,80.7822 291.197,80.6155 289.5,81C 290.252,81.6708 290.586,82.5041 290.5,83.5C 288.896,82.713 288.229,81.3797 288.5,79.5C 291.01,79.0535 293.01,79.7202 294.5,81.5 Z"/></g>
<g><path style="opacity:0.169" fill="#f8e3a8" d="M 125.5,75.5 C 125.258,79.479 124.258,83.1456 122.5,86.5C 122.742,82.521 123.742,78.8544 125.5,75.5 Z"/></g>
<g><path style="opacity:0.337" fill="#e5c478" d="M 297.5,82.5 C 300.167,83.1667 301.833,84.8333 302.5,87.5C 300.5,86.1667 298.833,84.5 297.5,82.5 Z"/></g>
<g><path style="opacity:0.839" fill="#e9b559" d="M 219.5,81.5 C 217.109,84.917 213.775,86.2503 209.5,85.5C 212.54,83.6541 215.873,82.3208 219.5,81.5 Z"/></g>
<g><path style="opacity:0.647" fill="#e9b45d" d="M 399.5,83.5 C 402.397,88.1666 404.73,93.1666 406.5,98.5C 405.25,98.4226 404.417,97.756 404,96.5C 401.911,92.3317 400.411,87.9983 399.5,83.5 Z"/></g>
<g><path style="opacity:0.176" fill="#e6be7e" d="M 149.5,82.5 C 149.435,85.4282 148.768,88.0948 147.5,90.5C 147.5,89.8333 147.5,89.1667 147.5,88.5C 147.259,86.1016 147.926,84.1016 149.5,82.5 Z"/></g>
<g><path style="opacity:0.6" fill="#e4b060" d="M 209.5,85.5 C 207.824,87.8337 205.491,88.8337 202.5,88.5C 204.426,86.7073 206.759,85.7073 209.5,85.5 Z"/></g>
<g><path style="opacity:0.514" fill="#eec576" d="M 290.5,84.5 C 294.913,91.6978 296.579,99.3645 295.5,107.5C 295.93,101.295 294.43,95.6283 291,90.5C 290.505,88.5273 290.338,86.5273 290.5,84.5 Z"/></g>
<g><path style="opacity:0.878" fill="#efb046" d="M 202.5,88.5 C 201.086,90.0542 199.419,91.3875 197.5,92.5C 196.614,93.325 196.281,94.325 196.5,95.5C 195.127,95.3433 193.793,95.51 192.5,96C 190.886,98.1267 188.886,99.6267 186.5,100.5C 187.833,98.8333 189.167,97.1667 190.5,95.5C 193.538,91.6433 197.538,89.31 202.5,88.5 Z"/></g>
<g><path style="opacity:0.196" fill="#e9c689" d="M 190.5,95.5 C 189.167,97.1667 187.833,98.8333 186.5,100.5C 185.5,102.167 184.167,103.5 182.5,104.5C 184.022,100.436 186.689,97.436 190.5,95.5 Z"/></g>
<g><path style="opacity:0.231" fill="#e9c684" d="M 267.5,94.5 C 269.785,97.335 271.118,100.668 271.5,104.5C 269.597,101.47 268.263,98.1368 267.5,94.5 Z"/></g>
<g><path style="opacity:0.153" fill="#e6c27f" d="M 305.5,91.5 C 306.793,92.842 307.626,94.5087 308,96.5C 309.231,103.85 308.231,110.85 305,117.5C 304.329,118.252 303.496,118.586 302.5,118.5C 303.496,118.586 304.329,118.252 305,117.5C 308.231,110.85 309.231,103.85 308,96.5C 307.626,94.5087 306.793,92.842 305.5,91.5 Z"/></g>
<g><path style="opacity:0.157" fill="#e8cc92" d="M 147.5,91.5 C 146.854,100.152 146.521,108.818 146.5,117.5C 145.835,114.518 145.502,111.352 145.5,108C 145.415,102.266 146.082,96.7658 147.5,91.5 Z"/></g>
<g><path style="opacity:0.22" fill="#eed394" d="M 182.5,104.5 C 182.008,106.819 181.008,108.819 179.5,110.5C 179.461,107.911 180.461,105.911 182.5,104.5 Z"/></g>
<g><path style="opacity:0.749" fill="#e8b85d" d="M 267.5,94.5 C 266.356,92.8998 265.189,91.2331 264,89.5C 259.529,96.3328 258.529,103.666 261,111.5C 266.63,122.9 275.797,127.9 288.5,126.5C 282.709,127.942 276.876,127.609 271,125.5C 269.382,123.217 267.215,121.717 264.5,121C 258.804,113.835 256.971,105.668 259,96.5C 260.197,93.9109 261.197,91.2442 262,88.5C 262.561,87.9781 263.228,87.6448 264,87.5C 266.223,89.2802 267.39,91.6135 267.5,94.5 Z"/></g>
<g><path style="opacity:0.075" fill="#e6cb93" d="M 271.5,104.5 C 272.736,106.649 273.736,108.982 274.5,111.5C 272.166,109.824 271.166,107.491 271.5,104.5 Z"/></g>
<g><path style="opacity:0.165" fill="#f2dba7" d="M 122.5,87.5 C 121.715,99.8169 121.382,112.15 121.5,124.5C 120.834,119.678 120.501,114.678 120.5,109.5C 120.321,101.938 120.988,94.6048 122.5,87.5 Z"/></g>
<g><path style="opacity:0.173" fill="#e5bb79" d="M 274.5,111.5 C 276.027,111.427 277.027,112.094 277.5,113.5C 275.973,113.573 274.973,112.906 274.5,111.5 Z"/></g>
<g><path style="opacity:0.478" fill="#e7b87a" d="M 179.5,110.5 C 179.741,112.898 179.074,114.898 177.5,116.5C 177.259,114.102 177.926,112.102 179.5,110.5 Z"/></g>
<g><path style="opacity:0.082" fill="#fade98" d="M 293.5,110.5 C 292.871,112.997 291.204,114.33 288.5,114.5C 289.945,112.937 291.611,111.604 293.5,110.5 Z"/></g>
<g><path style="opacity:0.192" fill="#e3c071" d="M 277.5,113.5 C 281.135,114.114 284.802,114.448 288.5,114.5C 287.207,115.158 285.707,115.492 284,115.5C 281.456,115.664 279.29,114.997 277.5,113.5 Z"/></g>
<g><path style="opacity:0.682" fill="#e7b65b" d="M 406.5,98.5 C 410.204,105.925 413.537,113.591 416.5,121.5C 414.11,119.266 412.276,116.599 411,113.5C 409.188,108.565 407.688,103.565 406.5,98.5 Z"/></g>
<g><path style="opacity:1" fill="#ecac35" d="M 127.5,73.5 C 127.046,82.185 125.546,90.5183 123,98.5C 121.702,109.125 122.535,119.458 125.5,129.5C 126.966,125.936 128.132,122.27 129,118.5C 129.667,122.167 129.667,125.833 129,129.5C 127.989,130.337 126.822,130.67 125.5,130.5C 125.863,139.01 127.196,147.344 129.5,155.5C 127.968,152.235 126.635,148.902 125.5,145.5C 124.656,138.283 123.322,131.283 121.5,124.5C 121.382,112.15 121.715,99.8169 122.5,87.5C 122.5,87.1667 122.5,86.8333 122.5,86.5C 124.258,83.1456 125.258,79.479 125.5,75.5C 126.167,74.8333 126.833,74.1667 127.5,73.5 Z"/></g>
<g><path style="opacity:0.867" fill="#e9b75b" d="M 302.5,118.5 C 302.5,119.833 302.5,121.167 302.5,122.5C 300.263,123.449 297.929,124.116 295.5,124.5C 297.808,122.529 300.142,120.529 302.5,118.5 Z"/></g>
<g><path style="opacity:0.259" fill="#edcb89" d="M 146.5,118.5 C 147.593,123.306 148.259,128.306 148.5,133.5C 147.732,132.737 147.232,131.737 147,130.5C 146.501,126.514 146.334,122.514 146.5,118.5 Z"/></g>
<g><path style="opacity:1" fill="#edb348" d="M 416.5,121.5 C 418.951,124.74 420.618,128.407 421.5,132.5C 420.288,131.77 419.288,130.77 418.5,129.5C 417.137,130.879 416.137,130.713 415.5,129C 416.322,126.566 416.656,124.066 416.5,121.5 Z"/></g>
<g><path style="opacity:0.999" fill="#ebab35" d="M 147.5,88.5 C 147.5,89.1667 147.5,89.8333 147.5,90.5C 147.5,90.8333 147.5,91.1667 147.5,91.5C 146.082,96.7658 145.415,102.266 145.5,108C 145.502,111.352 145.835,114.518 146.5,117.5C 146.5,117.833 146.5,118.167 146.5,118.5C 146.334,122.514 146.501,126.514 147,130.5C 147.232,131.737 147.732,132.737 148.5,133.5C 149.451,134.919 149.784,136.585 149.5,138.5C 149.32,142.286 150.32,145.619 152.5,148.5C 152.5,148.833 152.5,149.167 152.5,149.5C 152.833,152.167 153.167,154.833 153.5,157.5C 151.857,154.686 150.357,151.686 149,148.5C 148.667,144.833 148.333,141.167 148,137.5C 147.19,135.694 146.024,134.194 144.5,133C 145.051,131.042 145.385,129.042 145.5,127C 144.889,118.492 144.222,109.992 143.5,101.5C 144.84,97.6282 145.674,93.6282 146,89.5C 146.383,88.944 146.883,88.6107 147.5,88.5 Z"/></g>
<g><path style="opacity:0.663" fill="#e6b761" d="M 421.5,132.5 C 423.293,134.426 424.293,136.759 424.5,139.5C 422.166,137.824 421.166,135.491 421.5,132.5 Z"/></g>
<g><path style="opacity:0.153" fill="#e7c788" d="M 177.5,116.5 C 177.12,125.632 177.786,134.632 179.5,143.5C 175.767,134.663 175.101,125.663 177.5,116.5 Z"/></g>
<g><path style="opacity:0.208" fill="#e5c69a" d="M 121.5,124.5 C 123.322,131.283 124.656,138.283 125.5,145.5C 124.073,143.852 123.24,141.852 123,139.5C 122.088,134.536 121.588,129.536 121.5,124.5 Z"/></g>
<g><path style="opacity:0.275" fill="#e4c57c" d="M 149.5,138.5 C 150.87,141.619 151.87,144.952 152.5,148.5C 150.32,145.619 149.32,142.286 149.5,138.5 Z"/></g>
<g><path style="opacity:0.212" fill="#f4d29a" d="M 179.5,143.5 C 180.167,143.833 180.833,144.167 181.5,144.5C 181.993,146.806 182.326,149.139 182.5,151.5C 180.903,149.152 179.903,146.486 179.5,143.5 Z"/></g>
<g><path style="opacity:0.976" fill="#e9b14a" d="M 424.5,139.5 C 427.537,144.918 430.203,150.584 432.5,156.5C 427.241,152.189 424.574,146.522 424.5,139.5 Z"/></g>
<g><path style="opacity:0.341" fill="#f9dc9b" d="M 182.5,151.5 C 184.253,154.146 185.253,157.146 185.5,160.5C 183.528,157.916 182.528,154.916 182.5,151.5 Z"/></g>
<g><path style="opacity:1" fill="#f0aa2c" d="M 181.5,144.5 C 183.856,146.557 184.856,149.224 184.5,152.5C 187.512,153.255 190.178,154.588 192.5,156.5C 192.849,159.463 191.849,161.796 189.5,163.5C 190.844,165.843 192.511,168.009 194.5,170C 193.552,170.483 192.552,170.649 191.5,170.5C 191.504,172.842 192.337,174.842 194,176.5C 194.497,178.81 194.663,181.143 194.5,183.5C 193.359,180.746 192.025,178.079 190.5,175.5C 190.923,173.219 190.256,171.552 188.5,170.5C 188.68,166.714 187.68,163.381 185.5,160.5C 185.253,157.146 184.253,154.146 182.5,151.5C 182.326,149.139 181.993,146.806 181.5,144.5 Z"/></g>
<g><path style="opacity:0.98" fill="#eab252" d="M 379.5,160.5 C 376.426,160.873 373.426,161.539 370.5,162.5C 371.806,161.533 372.473,160.199 372.5,158.5C 375.388,157.99 377.721,158.656 379.5,160.5 Z"/></g>
<g><path style="opacity:0.102" fill="#ecc88f" d="M 125.5,145.5 C 126.635,148.902 127.968,152.235 129.5,155.5C 129.971,157.579 130.637,159.579 131.5,161.5C 132.167,164.167 132.833,166.833 133.5,169.5C 129.459,162.043 126.792,154.043 125.5,145.5 Z"/></g>
<g><path style="opacity:0.667" fill="#e6b55b" d="M 152.5,149.5 C 155.076,154.995 157.409,160.662 159.5,166.5C 157.255,163.68 155.255,160.68 153.5,157.5C 153.167,154.833 152.833,152.167 152.5,149.5 Z"/></g>
<g><path style="opacity:0.978" fill="#efb44d" d="M 370.5,162.5 C 367.406,163.883 364.406,165.55 361.5,167.5C 361.714,165.856 361.38,164.356 360.5,163C 363.817,162.502 367.15,162.335 370.5,162.5 Z"/></g>
<g><path style="opacity:0.243" fill="#f3da98" d="M 185.5,160.5 C 187.68,163.381 188.68,166.714 188.5,170.5C 187.13,167.381 186.13,164.048 185.5,160.5 Z"/></g>
<g><path style="opacity:0.529" fill="#e0b766" d="M 379.5,160.5 C 380.147,161.274 380.48,162.274 380.5,163.5C 380.36,165.03 379.693,166.03 378.5,166.5C 378.833,164.5 379.167,162.5 379.5,160.5 Z"/></g>
<g><path style="opacity:0.616" fill="#e9b95b" d="M 432.5,156.5 C 434.679,160.203 436.345,164.203 437.5,168.5C 433.985,165.304 432.319,161.304 432.5,156.5 Z"/></g>
<g><path style="opacity:0.976" fill="#ecb552" d="M 361.5,167.5 C 360.011,171.323 358.344,174.99 356.5,178.5C 357.114,174.865 357.448,171.198 357.5,167.5C 358.833,167.5 360.167,167.5 361.5,167.5 Z"/></g>
<g><path style="opacity:0.576" fill="#e6bb6f" d="M 159.5,166.5 C 161.195,168.897 162.528,171.563 163.5,174.5C 160.863,172.518 159.53,169.852 159.5,166.5 Z"/></g>
<g><path style="opacity:0.416" fill="#e3be79" d="M 188.5,170.5 C 190.256,171.552 190.923,173.219 190.5,175.5C 189.069,174.22 188.402,172.553 188.5,170.5 Z"/></g>
<g><path style="opacity:0.604" fill="#e5b764" d="M 131.5,161.5 C 132.79,162.058 133.623,163.058 134,164.5C 136.062,170.409 137.895,176.409 139.5,182.5C 136.716,178.595 134.716,174.262 133.5,169.5C 132.833,166.833 132.167,164.167 131.5,161.5 Z"/></g>
<g><path style="opacity:0.525" fill="#e7bf69" d="M 378.5,166.5 C 378.524,170.787 377.19,174.453 374.5,177.5C 375.462,173.605 376.796,169.939 378.5,166.5 Z"/></g>
<g><path style="opacity:0.678" fill="#e1b65d" d="M 163.5,174.5 C 165.008,176.181 166.008,178.181 166.5,180.5C 164.031,179.393 163.031,177.393 163.5,174.5 Z"/></g>
<g><path style="opacity:0.2" fill="#e7c481" d="M 190.5,175.5 C 192.025,178.079 193.359,180.746 194.5,183.5C 194.5,184.833 194.5,186.167 194.5,187.5C 192.595,183.784 191.261,179.784 190.5,175.5 Z"/></g>
<g><path style="opacity:0.859" fill="#ecaf4b" d="M 288.5,181.5 C 293.68,180.185 299.014,180.185 304.5,181.5C 306.711,182.66 308.711,183.993 310.5,185.5C 307.421,184.696 304.421,183.696 301.5,182.5C 297.366,181.515 293.032,181.182 288.5,181.5 Z"/></g>
<g><path style="opacity:0.925" fill="#e8af4b" d="M 437.5,168.5 C 441.403,176.648 445.07,184.981 448.5,193.5C 445.442,190.265 442.942,186.598 441,182.5C 440.11,177.734 438.943,173.067 437.5,168.5 Z"/></g>
<g><path style="opacity:0.051" fill="#e8d09d" d="M 288.5,181.5 C 293.032,181.182 297.366,181.515 301.5,182.5C 295.122,182.295 288.789,182.628 282.5,183.5C 284.102,181.926 286.102,181.259 288.5,181.5 Z"/></g>
<g><path style="opacity:0.067" fill="#e1bb75" d="M 282.5,183.5 C 281.07,184.537 279.403,185.204 277.5,185.5C 278.635,183.787 280.302,183.12 282.5,183.5 Z"/></g>
<g><path style="opacity:0.176" fill="#ebc27c" d="M 356.5,179.5 C 355.871,182.397 354.871,185.064 353.5,187.5C 353.307,184.189 354.307,181.522 356.5,179.5 Z"/></g>
<g><path style="opacity:0.929" fill="#eab757" d="M 277.5,185.5 C 274.044,188.067 270.377,190.401 266.5,192.5C 266.5,191.5 266.5,190.5 266.5,189.5C 269.5,189.833 270.833,188.5 270.5,185.5C 272.833,185.5 275.167,185.5 277.5,185.5 Z"/></g>
<g><path style="opacity:0.769" fill="#e4b652" d="M 166.5,180.5 C 169.258,183.678 171.258,187.345 172.5,191.5C 168.715,188.938 166.715,185.271 166.5,180.5 Z"/></g>
<g><path style="opacity:0.216" fill="#e3c57f" d="M 374.5,177.5 C 373.607,182.517 371.94,187.183 369.5,191.5C 370.393,186.483 372.06,181.817 374.5,177.5 Z"/></g>
<g><path style="opacity:0.902" fill="#edc477" d="M 139.5,182.5 C 142.578,187.653 145.912,192.653 149.5,197.5C 151.083,199.99 152.083,202.657 152.5,205.5C 147.244,198.448 142.911,190.781 139.5,182.5 Z"/></g>
<g><path style="opacity:0.451" fill="#eec874" d="M 194.5,187.5 C 196.868,189.956 197.868,192.956 197.5,196.5C 195.928,193.785 194.928,190.785 194.5,187.5 Z"/></g>
<g><path style="opacity:0.325" fill="#f2cb8d" d="M 317.5,191.5 C 319.09,191.628 320.423,192.295 321.5,193.5C 324.428,198.678 326.761,204.011 328.5,209.5C 328.5,211.167 328.5,212.833 328.5,214.5C 326.75,205.997 323.083,198.331 317.5,191.5 Z"/></g>
<g><path style="opacity:0.596" fill="#ecba66" d="M 353.5,187.5 C 351.004,194.996 348.337,202.329 345.5,209.5C 346.017,201.273 348.684,193.939 353.5,187.5 Z"/></g>
<g><path style="opacity:0.494" fill="#f5cd76" d="M 301.5,199.5 C 303.754,200.124 305.421,201.457 306.5,203.5C 304.205,202.864 302.539,201.531 301.5,199.5 Z"/></g>
<g><path style="opacity:0.584" fill="#e1ba69" d="M 367.5,196.5 C 367.523,200.764 366.19,204.431 363.5,207.5C 364.462,203.605 365.796,199.939 367.5,196.5 Z"/></g>
<g><path style="opacity:0.941" fill="#edb653" d="M 448.5,193.5 C 450.341,195.849 451.674,198.515 452.5,201.5C 451.5,201.5 450.5,201.5 449.5,201.5C 449.425,198.794 449.092,196.127 448.5,193.5 Z"/></g>
<g><path style="opacity:0.427" fill="#e6b665" d="M 265.5,193.5 C 257.268,204.687 255.268,217.02 259.5,230.5C 253.942,219.52 254.275,208.52 260.5,197.5C 261.774,195.549 263.44,194.215 265.5,193.5 Z"/></g>
<g><path style="opacity:0.302" fill="#eac579" d="M 288.5,198.5 C 286.351,200.746 283.684,202.246 280.5,203C 278.291,204.873 276.458,207.04 275,209.5C 274.324,214.871 274.491,220.204 275.5,225.5C 269.304,211.556 273.638,202.556 288.5,198.5 Z"/></g>
<g><path style="opacity:0.176" fill="#e9c26f" d="M 197.5,196.5 C 198.804,197.987 199.97,199.654 201,201.5C 201.668,206.273 202.501,210.94 203.5,215.5C 201.054,209.407 199.054,203.074 197.5,196.5 Z"/></g>
<g><path style="opacity:0.741" fill="#ebb555" d="M 452.5,201.5 C 456.065,208.177 459.065,215.177 461.5,222.5C 457.649,218.138 454.816,213.138 453,207.5C 452.505,205.527 452.338,203.527 452.5,201.5 Z"/></g>
<g><path style="opacity:1" fill="#f8aa23" d="M 301.5,199.5 C 302.539,201.531 304.205,202.864 306.5,203.5C 308.837,207.889 310.17,212.722 310.5,218C 310.333,219.5 310.167,221 310,222.5C 308.644,225.329 307.144,227.996 305.5,230.5C 303.596,230.738 302.262,231.738 301.5,233.5C 301.167,233.5 300.833,233.5 300.5,233.5C 294.842,234.768 289.175,234.768 283.5,233.5C 280.788,231.115 278.122,228.782 275.5,226.5C 275.5,226.167 275.5,225.833 275.5,225.5C 274.491,220.204 274.324,214.871 275,209.5C 276.458,207.04 278.291,204.873 280.5,203C 283.684,202.246 286.351,200.746 288.5,198.5C 292.93,197.139 297.263,197.473 301.5,199.5 Z"/></g>
<g><path style="opacity:0.243" fill="#e4c074" d="M 152.5,205.5 C 156.43,209.021 159.097,213.355 160.5,218.5C 157.084,214.677 154.418,210.343 152.5,205.5 Z"/></g>
<g><path style="opacity:0.537" fill="#eac579" d="M 363.5,208.5 C 363.23,212.358 361.897,215.691 359.5,218.5C 360.267,214.851 361.6,211.518 363.5,208.5 Z"/></g>
<g><path style="opacity:1" fill="#efb348" d="M 179.5,202.5 C 182.996,206.819 185.996,211.485 188.5,216.5C 186.621,215.659 184.621,215.325 182.5,215.5C 182.35,210.901 181.35,206.568 179.5,202.5 Z"/></g>
<g><path style="opacity:0.259" fill="#e4b65c" d="M 188.5,216.5 C 189.89,217.899 190.89,219.566 191.5,221.5C 189.241,220.656 188.241,218.989 188.5,216.5 Z"/></g>
<g><path style="opacity:0.161" fill="#e9c971" d="M 203.5,215.5 C 204.75,215.577 205.583,216.244 206,217.5C 206.696,220.478 207.196,223.478 207.5,226.5C 206.026,222.974 204.693,219.307 203.5,215.5 Z"/></g>
<g><path style="opacity:0.541" fill="#e4c67c" d="M 359.5,218.5 C 358.977,221.89 358.143,225.223 357,228.5C 356.617,229.056 356.117,229.389 355.5,229.5C 356.065,225.463 357.399,221.797 359.5,218.5 Z"/></g>
<g><path style="opacity:0.275" fill="#e9c073" d="M 306.5,203.5 C 311.925,209.545 313.425,216.545 311,224.5C 309.669,226.996 307.836,228.996 305.5,230.5C 307.144,227.996 308.644,225.329 310,222.5C 310.167,221 310.333,219.5 310.5,218C 310.17,212.722 308.837,207.889 306.5,203.5 Z"/></g>
<g><path style="opacity:0.11" fill="#e7c386" d="M 344.5,211.5 C 343.737,216.59 342.07,221.257 339.5,225.5C 340.083,220.356 341.75,215.69 344.5,211.5 Z"/></g>
<g><path style="opacity:0.176" fill="#e5bb7c" d="M 160.5,218.5 C 164.363,221.852 167.03,226.186 168.5,231.5C 165.586,227.342 162.919,223.009 160.5,218.5 Z"/></g>
<g><path style="opacity:0.62" fill="#edca76" d="M 328.5,218.5 C 328.665,221.518 328.498,224.518 328,227.5C 327.451,229.76 326.284,231.426 324.5,232.5C 326.475,227.902 327.809,223.236 328.5,218.5 Z"/></g>
<g><path style="opacity:0.357" fill="#e8c276" d="M 339.5,225.5 C 339.267,228.542 338.267,231.208 336.5,233.5C 336.674,231.139 337.007,228.806 337.5,226.5C 338.167,226.167 338.833,225.833 339.5,225.5 Z"/></g>
<g><path style="opacity:0.18" fill="#efcb89" d="M 207.5,226.5 C 209.163,228.438 209.829,230.772 209.5,233.5C 208.388,231.401 207.721,229.067 207.5,226.5 Z"/></g>
<g><path style="opacity:0.204" fill="#f2d181" d="M 275.5,226.5 C 278.122,228.782 280.788,231.115 283.5,233.5C 279.593,232.593 276.926,230.26 275.5,226.5 Z"/></g>
<g><path style="opacity:1" fill="#f1ac2d" d="M 328.5,209.5 C 329.586,209.62 330.253,210.287 330.5,211.5C 331.015,213.636 331.349,215.803 331.5,218C 328.181,223.921 329.015,229.087 334,233.5C 335.788,231.667 335.954,229.667 334.5,227.5C 335.325,226.614 336.325,226.281 337.5,226.5C 337.007,228.806 336.674,231.139 336.5,233.5C 332.989,238.166 330.989,243.5 330.5,249.5C 330.405,251.786 329.738,253.786 328.5,255.5C 328.167,255.5 327.833,255.5 327.5,255.5C 327.064,253.254 326.397,251.087 325.5,249C 326.563,247.812 327.897,247.312 329.5,247.5C 329.354,244.174 330.021,241.007 331.5,238C 330.747,236.123 329.914,234.289 329,232.5C 327.294,233.308 326.461,234.641 326.5,236.5C 329.957,236.667 330.29,237.667 327.5,239.5C 326.431,238.09 325.097,237.09 323.5,236.5C 324.234,235.292 324.567,233.959 324.5,232.5C 326.284,231.426 327.451,229.76 328,227.5C 328.498,224.518 328.665,221.518 328.5,218.5C 328.5,217.167 328.5,215.833 328.5,214.5C 328.5,212.833 328.5,211.167 328.5,209.5 Z"/></g>
<g><path style="opacity:0.91" fill="#e7b14d" d="M 461.5,222.5 C 463.592,225.088 464.925,228.088 465.5,231.5C 462.531,229.38 461.198,226.38 461.5,222.5 Z"/></g>
<g><path style="opacity:0.588" fill="#e8b65c" d="M 191.5,221.5 C 196.204,228.749 200.371,236.415 204,244.5C 205.352,247.72 206.186,251.053 206.5,254.5C 202.709,245.584 198.375,236.918 193.5,228.5C 192.579,226.223 191.913,223.89 191.5,221.5 Z"/></g>
<g><path style="opacity:0.827" fill="#efba6c" d="M 410.5,235.5 C 402.427,232.826 394.094,231.826 385.5,232.5C 387.915,231.186 390.748,230.519 394,230.5C 399.63,230.485 405.13,231.152 410.5,232.5C 410.5,233.5 410.5,234.5 410.5,235.5 Z"/></g>
<g><path style="opacity:0.078" fill="#ebc488" d="M 305.5,230.5 C 304.738,232.262 303.404,233.262 301.5,233.5C 302.262,231.738 303.596,230.738 305.5,230.5 Z"/></g>
<g><path style="opacity:0.043" fill="#fad8ae" d="M 385.5,232.5 C 383.972,233.309 382.306,233.976 380.5,234.5C 380.5,234.167 380.5,233.833 380.5,233.5C 381.919,232.549 383.585,232.216 385.5,232.5 Z"/></g>
<g><path style="opacity:0.922" fill="#ecc46e" d="M 209.5,233.5 C 210.15,233.804 210.817,234.137 211.5,234.5C 212.659,238.135 213.659,241.802 214.5,245.5C 214.5,246.5 214.5,247.5 214.5,248.5C 212.664,243.659 210.997,238.659 209.5,233.5 Z"/></g>
<g><path style="opacity:0.294" fill="#eabc62" d="M 283.5,233.5 C 289.175,234.768 294.842,234.768 300.5,233.5C 300.082,234.222 299.416,234.722 298.5,235C 294.167,235.667 289.833,235.667 285.5,235C 284.584,234.722 283.918,234.222 283.5,233.5 Z"/></g>
<g><path style="opacity:0.471" fill="#e3b65b" d="M 380.5,233.5 C 380.5,233.833 380.5,234.167 380.5,234.5C 375.918,236.426 371.584,238.76 367.5,241.5C 367.5,240.5 367.5,239.5 367.5,238.5C 371.582,236.249 375.915,234.583 380.5,233.5 Z"/></g>
<g><path style="opacity:0.216" fill="#eed393" d="M 410.5,235.5 C 412.027,235.427 413.027,236.094 413.5,237.5C 411.973,237.573 410.973,236.906 410.5,235.5 Z"/></g>
<g><path style="opacity:0.447" fill="#e9c172" d="M 324.5,232.5 C 324.567,233.959 324.234,235.292 323.5,236.5C 321.457,239.543 318.79,241.876 315.5,243.5C 318.908,240.099 321.908,236.432 324.5,232.5 Z"/></g>
<g><path style="opacity:0.325" fill="#eec172" d="M 413.5,237.5 C 416.833,238.833 419.167,241.167 420.5,244.5C 417.833,242.5 415.5,240.167 413.5,237.5 Z"/></g>
<g><path style="opacity:0.875" fill="#e6b14b" d="M 465.5,231.5 C 468.07,236.311 470.403,241.311 472.5,246.5C 470.467,244.837 468.634,242.837 467,240.5C 466.304,237.522 465.804,234.522 465.5,231.5 Z"/></g>
<g><path style="opacity:0.596" fill="#ebc064" d="M 336.5,233.5 C 335.02,239.109 333.02,244.443 330.5,249.5C 330.989,243.5 332.989,238.166 336.5,233.5 Z"/></g>
<g><path style="opacity:0.424" fill="#eabf6d" d="M 170.5,235.5 C 172.624,236.031 174.124,237.365 175,239.5C 175.847,241.854 176.68,244.188 177.5,246.5C 174.931,243.039 172.597,239.372 170.5,235.5 Z"/></g>
<g><path style="opacity:0.831" fill="#e6b962" d="M 355.5,229.5 C 355.07,234.74 353.403,239.407 350.5,243.5C 351.792,238.618 353.459,233.952 355.5,229.5 Z"/></g>
<g><path style="opacity:0.592" fill="#ebbb6a" d="M 268.5,243.5 C 270.389,244.604 272.055,245.937 273.5,247.5C 270.796,247.33 269.129,245.997 268.5,243.5 Z"/></g>
<g><path style="opacity:0.149" fill="#e5c284" d="M 315.5,243.5 C 313.948,246.112 311.614,247.445 308.5,247.5C 310.663,245.917 312.996,244.584 315.5,243.5 Z"/></g>
<g><path style="opacity:0.518" fill="#edc482" d="M 407.5,254.5 C 399.599,247.186 390.933,246.019 381.5,251C 378.882,253.106 376.882,255.606 375.5,258.5C 374.833,259.167 374.167,259.833 373.5,260.5C 373.5,259.833 373.5,259.167 373.5,258.5C 379.611,247.848 388.611,244.348 400.5,248C 402.5,249.333 404.5,250.667 406.5,252C 407.252,252.671 407.586,253.504 407.5,254.5 Z"/></g>
<g><path style="opacity:0.635" fill="#eec570" d="M 472.5,246.5 C 474.065,248.509 475.065,250.843 475.5,253.5C 473.166,251.824 472.166,249.491 472.5,246.5 Z"/></g>
<g><path style="opacity:0.388" fill="#e9c871" d="M 178.5,248.5 C 181.12,252.343 182.787,256.676 183.5,261.5C 183.167,261.5 182.833,261.5 182.5,261.5C 181.013,257.217 179.679,252.884 178.5,248.5 Z"/></g>
<g><path style="opacity:0.49" fill="#f0c978" d="M 308.5,247.5 C 305.285,250.573 301.285,251.906 296.5,251.5C 300.473,250.398 304.473,249.065 308.5,247.5 Z"/></g>
<g><path style="opacity:0.031" fill="#f1c481" d="M 420.5,245.5 C 421.5,245.5 422.5,245.5 423.5,245.5C 423.833,247.5 424.167,249.5 424.5,251.5C 423.18,249.537 421.846,247.537 420.5,245.5 Z"/></g>
<g><path style="opacity:0.357" fill="#e5b96e" d="M 274.5,247.5 C 281.07,250.859 288.07,252.192 295.5,251.5C 288.812,253.046 282.145,252.546 275.5,250C 274.748,249.329 274.414,248.496 274.5,247.5 Z"/></g>
<g><path style="opacity:1" fill="#edbd61" d="M 366.5,242.5 C 363.247,246.667 360.747,251.333 359,256.5C 358.5,262.825 358.334,269.158 358.5,275.5C 357.351,275.209 356.684,274.376 356.5,273C 355.392,265.791 355.725,258.624 357.5,251.5C 360.169,249.489 361.502,246.822 361.5,243.5C 363.292,243.634 364.958,243.301 366.5,242.5 Z"/></g>
<g><path style="opacity:0.459" fill="#e5be6a" d="M 214.5,248.5 C 215.999,251.047 217.499,253.714 219,256.5C 219.495,258.473 219.662,260.473 219.5,262.5C 217.313,258.105 215.646,253.438 214.5,248.5 Z"/></g>
<g><path style="opacity:0.569" fill="#e5b767" d="M 475.5,253.5 C 477.584,256.053 478.917,259.053 479.5,262.5C 478.069,261.097 476.902,259.431 476,257.5C 475.51,256.207 475.343,254.873 475.5,253.5 Z"/></g>
<g><path style="opacity:1" fill="#f9a921" d="M 407.5,254.5 C 408.244,258.644 408.91,262.811 409.5,267C 409.519,270.073 408.853,272.907 407.5,275.5C 404.699,280.356 400.366,283.023 394.5,283.5C 392.143,283.663 389.81,283.497 387.5,283C 384.757,280.962 381.757,279.462 378.5,278.5C 378.5,277.833 378.5,277.167 378.5,276.5C 375.949,270.8 374.949,264.8 375.5,258.5C 376.882,255.606 378.882,253.106 381.5,251C 390.933,246.019 399.599,247.186 407.5,254.5 Z"/></g>
<g><path style="opacity:0.169" fill="#e3b873" d="M 327.5,255.5 C 327.833,255.5 328.167,255.5 328.5,255.5C 327.404,260.132 325.737,264.466 323.5,268.5C 324.338,263.938 325.672,259.604 327.5,255.5 Z"/></g>
<g><path style="opacity:1" fill="#e5ad3e" d="M 375.5,258.5 C 374.949,264.8 375.949,270.8 378.5,276.5C 377.5,275.833 376.5,275.167 375.5,274.5C 374.016,269.967 373.35,265.301 373.5,260.5C 374.167,259.833 374.833,259.167 375.5,258.5 Z"/></g>
<g><path style="opacity:1" fill="#e8b64f" d="M 350.5,243.5 C 350.39,248.947 348.89,253.947 346,258.5C 345.667,261.5 345.333,264.5 345,267.5C 342.664,269.54 340.831,271.873 339.5,274.5C 342.59,263.894 346.256,253.56 350.5,243.5 Z"/></g>
<g><path style="opacity:0.655" fill="#edc06e" d="M 479.5,262.5 C 481.625,265.088 482.958,268.088 483.5,271.5C 480.835,269.165 479.502,266.165 479.5,262.5 Z"/></g>
<g><path style="opacity:1" fill="#efae35" d="M 214.5,245.5 C 216.625,248.581 218.458,251.914 220,255.5C 220.297,258.914 220.964,262.247 222,265.5C 223.333,266.167 224.667,266.833 226,267.5C 226.499,271.486 226.666,275.486 226.5,279.5C 225.978,277.781 224.978,276.448 223.5,275.5C 221.768,271.303 220.435,266.969 219.5,262.5C 219.662,260.473 219.495,258.473 219,256.5C 217.499,253.714 215.999,251.047 214.5,248.5C 214.5,247.5 214.5,246.5 214.5,245.5 Z"/></g>
<g><path style="opacity:0.269" fill="#e9d1a9" d="M 373.5,258.5 C 373.5,259.167 373.5,259.833 373.5,260.5C 373.35,265.301 374.016,269.967 375.5,274.5C 371.212,269.53 370.545,264.197 373.5,258.5 Z"/></g>
<g><path style="opacity:0.824" fill="#e2ad3d" d="M 407.5,254.5 C 409.008,256.181 410.008,258.181 410.5,260.5C 410.663,265.547 410.329,270.547 409.5,275.5C 408.833,275.5 408.167,275.5 407.5,275.5C 408.853,272.907 409.519,270.073 409.5,267C 408.91,262.811 408.244,258.644 407.5,254.5 Z"/></g>
<g><path style="opacity:0.137" fill="#e7c480" d="M 410.5,260.5 C 411.647,264.646 411.814,268.98 411,273.5C 410.722,274.416 410.222,275.082 409.5,275.5C 410.329,270.547 410.663,265.547 410.5,260.5 Z"/></g>
<g><path style="opacity:0.259" fill="#eec478" d="M 323.5,268.5 C 321.918,275.199 319.584,281.532 316.5,287.5C 318.089,281.892 319.589,276.225 321,270.5C 321.417,269.244 322.25,268.577 323.5,268.5 Z"/></g>
<g><path style="opacity:0.729" fill="#e5b965" d="M 424.5,251.5 C 426.105,253.48 427.272,255.813 428,258.5C 428.667,264.167 428.667,269.833 428,275.5C 427.098,277.431 425.931,279.097 424.5,280.5C 428.499,270.839 428.499,261.172 424.5,251.5 Z"/></g>
<g><path style="opacity:0.043" fill="#f5d796" d="M 375.5,274.5 C 376.5,275.167 377.5,275.833 378.5,276.5C 378.5,277.167 378.5,277.833 378.5,278.5C 376.738,277.738 375.738,276.404 375.5,274.5 Z"/></g>
<g><path style="opacity:0.235" fill="#e6be71" d="M 206.5,254.5 C 207.268,255.263 207.768,256.263 208,257.5C 208.667,268.5 208.667,279.5 208,290.5C 206.764,297.456 204.931,304.122 202.5,310.5C 203.457,303.034 204.957,295.7 207,288.5C 207.743,277.14 207.577,265.807 206.5,254.5 Z"/></g>
<g><path style="opacity:0.463" fill="#e7b352" d="M 378.5,278.5 C 381.757,279.462 384.757,280.962 387.5,283C 389.81,283.497 392.143,283.663 394.5,283.5C 394.5,283.833 394.5,284.167 394.5,284.5C 387.934,285.427 382.601,283.427 378.5,278.5 Z"/></g>
<g><path style="opacity:0.137" fill="#ebcf9b" d="M 182.5,261.5 C 182.833,261.5 183.167,261.5 183.5,261.5C 183.666,270.506 183.5,279.506 183,288.5C 182.902,291.522 182.068,294.189 180.5,296.5C 182.192,284.907 182.858,273.24 182.5,261.5 Z"/></g>
<g><path style="opacity:0.651" fill="#e6ba67" d="M 339.5,274.5 C 339.182,279.47 337.515,283.804 334.5,287.5C 335.599,282.856 337.266,278.522 339.5,274.5 Z"/></g>
<g><path style="opacity:0.886" fill="#eab253" d="M 358.5,275.5 C 360.009,278.678 361.342,282.011 362.5,285.5C 361.504,285.586 360.671,285.252 360,284.5C 359.304,281.522 358.804,278.522 358.5,275.5 Z"/></g>
<g><path style="opacity:0.106" fill="#e6b976" d="M 407.5,275.5 C 408.167,275.5 408.833,275.5 409.5,275.5C 406.293,281.259 401.293,284.259 394.5,284.5C 394.5,284.167 394.5,283.833 394.5,283.5C 400.366,283.023 404.699,280.356 407.5,275.5 Z"/></g>
<g><path style="opacity:0.89" fill="#ebb24b" d="M 424.5,280.5 C 423.31,285.219 420.977,289.385 417.5,293C 416.207,293.49 414.873,293.657 413.5,293.5C 417.513,289.485 421.179,285.152 424.5,280.5 Z"/></g>
<g><path style="opacity:0.898" fill="#e4ba5c" d="M 489.5,284.5 C 492.034,290.803 493.034,297.47 492.5,304.5C 492.167,304.5 491.833,304.5 491.5,304.5C 490.622,297.862 489.956,291.195 489.5,284.5 Z"/></g>
<g><path style="opacity:0.957" fill="#edb450" d="M 362.5,285.5 C 367.06,290.781 372.394,295.114 378.5,298.5C 378.5,298.833 378.5,299.167 378.5,299.5C 375.869,298.522 373.202,297.522 370.5,296.5C 368.494,293.662 365.994,291.328 363,289.5C 362.51,288.207 362.343,286.873 362.5,285.5 Z"/></g>
<g><path style="opacity:0.569" fill="#e8b662" d="M 316.5,288.5 C 315.401,293.144 313.734,297.478 311.5,301.5C 311.428,297.311 312.261,293.311 314,289.5C 314.671,288.748 315.504,288.414 316.5,288.5 Z"/></g>
<g><path style="opacity:0.557" fill="#e7bd66" d="M 411.5,294.5 C 409.685,297.407 407.019,298.741 403.5,298.5C 405.849,296.659 408.515,295.326 411.5,294.5 Z"/></g>
<g><path style="opacity:1" fill="#ecad36" d="M 483.5,271.5 C 486.257,275.416 488.257,279.75 489.5,284.5C 489.956,291.195 490.622,297.862 491.5,304.5C 491.101,308.116 490.101,311.45 488.5,314.5C 488.896,310.625 489.562,306.792 490.5,303C 489.035,296.928 488.202,290.762 488,284.5C 485.123,280.663 483.623,276.33 483.5,271.5 Z"/></g>
<g><path style="opacity:0.773" fill="#e9b75e" d="M 223.5,275.5 C 224.978,276.448 225.978,277.781 226.5,279.5C 229.761,288.783 232.928,298.116 236,307.5C 236.497,309.81 236.663,312.143 236.5,314.5C 231.994,301.647 227.66,288.647 223.5,275.5 Z"/></g>
<g><path style="opacity:0.378" fill="#ebbe6c" d="M 378.5,299.5 C 378.5,299.167 378.5,298.833 378.5,298.5C 382.356,298.971 386.189,299.638 390,300.5C 394.489,299.692 398.989,299.025 403.5,298.5C 395.394,301.88 387.061,302.213 378.5,299.5 Z"/></g>
<g><path style="opacity:0.459" fill="#eec479" d="M 179.5,298.5 C 180.889,301.883 180.222,304.883 177.5,307.5C 178.578,304.598 179.244,301.598 179.5,298.5 Z"/></g>
<g><path style="opacity:0.525" fill="#eabd6c" d="M 311.5,301.5 C 310.541,305.383 309.208,309.05 307.5,312.5C 307.768,309.26 308.434,306.094 309.5,303C 309.836,301.97 310.503,301.47 311.5,301.5 Z"/></g>
<g><path style="opacity:0.094" fill="#f3da9a" d="M 491.5,304.5 C 491.833,304.5 492.167,304.5 492.5,304.5C 492.108,311.358 489.774,317.358 485.5,322.5C 485.5,321.833 485.5,321.167 485.5,320.5C 486.5,318.5 487.5,316.5 488.5,314.5C 490.101,311.45 491.101,308.116 491.5,304.5 Z"/></g>
<g><path style="opacity:0.6" fill="#e4b55f" d="M 331.5,296.5 C 330.084,303.5 327.751,310.167 324.5,316.5C 323.311,317.429 321.978,317.762 320.5,317.5C 321.688,316.636 322.855,315.636 324,314.5C 326.428,308.359 328.928,302.359 331.5,296.5 Z"/></g>
<g><path style="opacity:0.169" fill="#e8c175" d="M 236.5,314.5 C 238.482,316.597 239.482,319.264 239.5,322.5C 237.903,320.152 236.903,317.486 236.5,314.5 Z"/></g>
<g><path style="opacity:0.718" fill="#e8b556" d="M 307.5,312.5 C 306.989,315.028 306.322,317.528 305.5,320C 305.833,320.833 306.167,321.667 306.5,322.5C 310.983,320.256 315.649,318.589 320.5,317.5C 319.828,319.668 318.328,321.001 316,321.5C 311.916,322.73 307.749,323.397 303.5,323.5C 302.657,318.906 303.991,315.239 307.5,312.5 Z"/></g>
<g><path style="opacity:0.173" fill="#efc87a" d="M 201.5,314.5 C 201.293,317.241 200.293,319.574 198.5,321.5C 198.552,318.654 199.552,316.32 201.5,314.5 Z"/></g>
<g><path style="opacity:0.702" fill="#e5b159" d="M 177.5,308.5 C 175.298,316.557 172.298,324.223 168.5,331.5C 167.5,331.5 166.5,331.5 165.5,331.5C 169.774,323.952 173.774,316.285 177.5,308.5 Z"/></g>
<g><path style="opacity:0.894" fill="#e9af4a" d="M 485.5,320.5 C 485.5,321.167 485.5,321.833 485.5,322.5C 484.2,325.432 482.2,327.766 479.5,329.5C 478.829,324.555 480.829,321.555 485.5,320.5 Z"/></g>
<g><path style="opacity:0.129" fill="#eac684" d="M 479.5,329.5 C 477.54,331.156 475.54,332.823 473.5,334.5C 474.268,331.438 476.268,329.772 479.5,329.5 Z"/></g>
<g><path style="opacity:0.651" fill="#e7b95c" d="M 239.5,322.5 C 243.849,330.209 246.516,338.543 247.5,347.5C 244.463,339.385 241.796,331.052 239.5,322.5 Z"/></g>
<g><path style="opacity:0.314" fill="#ebc771" d="M 165.5,331.5 C 164.25,333.932 162.75,336.266 161,338.5C 160.184,339.823 159.017,340.489 157.5,340.5C 159.472,336.895 162.139,333.895 165.5,331.5 Z"/></g>
<g><path style="opacity:0.984" fill="#ebb659" d="M 198.5,321.5 C 195.742,329.571 191.742,336.904 186.5,343.5C 187.265,340.904 187.599,338.237 187.5,335.5C 191.949,332.849 194.782,328.849 196,323.5C 196.708,322.619 197.542,321.953 198.5,321.5 Z"/></g>
<g><path style="opacity:0.02" fill="#f4cc94" d="M 470.5,335.5 C 469.486,336.674 468.153,337.34 466.5,337.5C 467.287,335.896 468.62,335.229 470.5,335.5 Z"/></g>
<g><path style="opacity:0.851" fill="#f0c263" d="M 465.5,337.5 C 460.883,340.266 455.883,342.266 450.5,343.5C 450.804,342.85 451.137,342.183 451.5,341.5C 455.95,339.349 460.617,338.016 465.5,337.5 Z"/></g>
<g><path style="opacity:0.353" fill="#eeba61" d="M 450.5,343.5 C 447.05,345.208 443.383,346.541 439.5,347.5C 442.509,344.682 446.175,343.349 450.5,343.5 Z"/></g>
<g><path style="opacity:0.875" fill="#edba61" d="M 186.5,344.5 C 184.471,346.858 182.471,349.192 180.5,351.5C 180.5,349.833 180.5,348.167 180.5,346.5C 182.685,346.296 184.685,345.63 186.5,344.5 Z"/></g>
<g><path style="opacity:1" fill="#f2b13e" d="M 432.5,350.5 C 430.11,352.02 427.443,353.02 424.5,353.5C 422.302,353.12 420.635,353.787 419.5,355.5C 415.478,357.734 411.144,359.401 406.5,360.5C 407.141,359.518 407.807,358.518 408.5,357.5C 411.419,356.686 414.252,355.686 417,354.5C 419.078,352.319 418.911,350.319 416.5,348.5C 416.833,348.167 417.167,347.833 417.5,347.5C 419.576,348.956 421.743,350.289 424,351.5C 426.77,350.652 429.603,350.319 432.5,350.5 Z"/></g>
<g><path style="opacity:0.243" fill="#e6bf6a" d="M 439.5,347.5 C 437.491,349.065 435.157,350.065 432.5,350.5C 434.32,348.552 436.654,347.552 439.5,347.5 Z"/></g>
<g><path style="opacity:0.173" fill="#e8ba6f" d="M 149.5,347.5 C 146.875,350.815 143.542,353.149 139.5,354.5C 142.475,351.677 145.808,349.344 149.5,347.5 Z"/></g>
<g><path style="opacity:0.29" fill="#ecc480" d="M 424.5,353.5 C 423.22,354.931 421.553,355.598 419.5,355.5C 420.635,353.787 422.302,353.12 424.5,353.5 Z"/></g>
<g><path style="opacity:0.02" fill="#e1d08a" d="M 178.5,354.5 C 177.5,356.167 176.167,357.5 174.5,358.5C 174.833,356.167 176.167,354.833 178.5,354.5 Z"/></g>
<g><path style="opacity:0.173" fill="#e1c17b" d="M 249.5,353.5 C 251.062,356.679 252.562,360.012 254,363.5C 254.995,367.145 255.828,370.812 256.5,374.5C 253.197,367.926 250.864,360.926 249.5,353.5 Z"/></g>
<g><path style="opacity:0.4" fill="#e4bd6f" d="M 406.5,360.5 C 404.208,362.267 401.542,363.267 398.5,363.5C 400.698,361.603 403.364,360.603 406.5,360.5 Z"/></g>
<g><path style="opacity:0.639" fill="#f0c670" d="M 167.5,364.5 C 166.738,366.262 165.404,367.262 163.5,367.5C 163.5,366.5 163.5,365.5 163.5,364.5C 164.833,364.5 166.167,364.5 167.5,364.5 Z"/></g>
<g><path style="opacity:0.988" fill="#e6ae44" d="M 139.5,354.5 C 134.472,357.44 129.639,360.774 125,364.5C 123.801,367.726 123.301,371.059 123.5,374.5C 122.053,373.866 121.387,372.699 121.5,371C 122.206,367.715 123.206,364.548 124.5,361.5C 129.07,358.384 134.07,356.05 139.5,354.5 Z"/></g>
<g><path style="opacity:0.635" fill="#ebb658" d="M 398.5,363.5 C 387.543,368.6 376.21,372.934 364.5,376.5C 364.414,375.504 364.748,374.671 365.5,374C 369.224,373.203 372.89,372.203 376.5,371C 376.167,370.667 375.833,370.333 375.5,370C 383.212,367.8 390.879,365.633 398.5,363.5 Z"/></g>
<g><path style="opacity:0.122" fill="#e7c584" d="M 124.5,361.5 C 123.206,364.548 122.206,367.715 121.5,371C 121.387,372.699 122.053,373.866 123.5,374.5C 124.441,376.05 125.107,377.716 125.5,379.5C 120.335,375.58 119.168,370.58 122,364.5C 122.377,363.058 123.21,362.058 124.5,361.5 Z"/></g>
<g><path style="opacity:0.741" fill="#efc370" d="M 163.5,367.5 C 160.725,370.605 157.392,372.938 153.5,374.5C 153.5,373.5 153.5,372.5 153.5,371.5C 156.98,370.512 160.313,369.178 163.5,367.5 Z"/></g>
<g><path style="opacity:0.094" fill="#fbdfa9" d="M 152.5,375.5 C 150.819,377.008 148.819,378.008 146.5,378.5C 146.5,378.167 146.5,377.833 146.5,377.5C 148.297,376.27 150.297,375.604 152.5,375.5 Z"/></g>
<g><path style="opacity:0.906" fill="#ecb049" d="M 364.5,376.5 C 361.482,378.4 358.149,379.733 354.5,380.5C 354.5,379.5 354.5,378.5 354.5,377.5C 357.86,377.384 361.193,377.051 364.5,376.5 Z"/></g>
<g><path style="opacity:0.827" fill="#eebf65" d="M 146.5,377.5 C 146.5,377.833 146.5,378.167 146.5,378.5C 144.316,380.585 141.649,381.585 138.5,381.5C 140.337,378.628 143.003,377.294 146.5,377.5 Z"/></g>
<g><path style="opacity:0.906" fill="#f0c679" d="M 256.5,374.5 C 259.666,378.963 262.666,383.63 265.5,388.5C 264.504,388.586 263.671,388.252 263,387.5C 259.762,383.691 257.596,379.358 256.5,374.5 Z"/></g>
<g><path style="opacity:0.161" fill="#e7b76e" d="M 354.5,380.5 C 352.208,382.267 349.542,383.267 346.5,383.5C 348.684,381.415 351.351,380.415 354.5,380.5 Z"/></g>
<g><path style="opacity:0.302" fill="#efce88" d="M 342.5,385.5 C 340.786,386.738 338.786,387.405 336.5,387.5C 337.99,385.72 339.99,385.054 342.5,385.5 Z"/></g>
<g><path style="opacity:0.082" fill="#f7dca4" d="M 334.5,388.5 C 333.22,389.931 331.553,390.598 329.5,390.5C 330.78,389.069 332.447,388.402 334.5,388.5 Z"/></g>
<g><path style="opacity:0.471" fill="#edbb6d" d="M 267.5,390.5 C 269.749,391.08 271.415,392.413 272.5,394.5C 270.251,393.92 268.585,392.587 267.5,390.5 Z"/></g>
<g><path style="opacity:0.584" fill="#e7b761" d="M 329.5,390.5 C 321.776,394.02 313.776,397.02 305.5,399.5C 305.953,398.542 306.619,397.708 307.5,397C 312.858,395.818 317.858,393.818 322.5,391C 324.81,390.503 327.143,390.337 329.5,390.5 Z"/></g>
<g><path style="opacity:0.141" fill="#f8dc87" d="M 272.5,394.5 C 274.027,394.427 275.027,395.094 275.5,396.5C 273.973,396.573 272.973,395.906 272.5,394.5 Z"/></g>
<g><path style="opacity:0.486" fill="#e4b960" d="M 275.5,396.5 C 278.753,396.562 281.753,397.396 284.5,399C 291.158,399.5 297.825,399.666 304.5,399.5C 294.457,402.533 284.791,401.533 275.5,396.5 Z"/></g>
</svg>
