<?xml version="1.0" encoding="UTF-8"?>
<!DOCTYPE svg PUBLIC "-//W3C//DTD SVG 1.1//EN" "http://www.w3.org/Graphics/SVG/1.1/DTD/svg11.dtd">
<svg xmlns="http://www.w3.org/2000/svg" version="1.1" width="500px" height="500px" style="shape-rendering:geometricPrecision; text-rendering:geometricPrecision; image-rendering:optimizeQuality; fill-rule:evenodd; clip-rule:evenodd" xmlns:xlink="http://www.w3.org/1999/xlink">
<g><path style="opacity:1" fill="#04c8c8" d="M 228.5,-0.5 C 242.5,-0.5 256.5,-0.5 270.5,-0.5C 368.172,11.909 438.006,62.5756 480,151.5C 490.292,176.669 496.792,202.669 499.5,229.5C 499.5,236.5 499.5,243.5 499.5,250.5C 463.188,214.854 427.188,178.854 391.5,142.5C 390.583,141.873 389.583,141.539 388.5,141.5C 355.17,100.999 312.17,78.6652 259.5,74.5C 255.681,73.8344 251.681,73.5011 247.5,73.5C 240.608,73.3897 233.942,74.0564 227.5,75.5C 152.753,87.7474 103.253,129.747 79,201.5C 63.478,263.734 76.1447,319.401 117,368.5C 124.401,376.405 132.235,383.738 140.5,390.5C 140.369,391.239 140.536,391.906 141,392.5C 176.701,428.035 212.201,463.701 247.5,499.5C 241.833,499.5 236.167,499.5 230.5,499.5C 140.344,489.486 72.8441,445.153 28,366.5C 12.4887,335.813 2.98874,303.479 -0.5,269.5C -0.5,256.167 -0.5,242.833 -0.5,229.5C 10.0174,139.85 54.3507,72.6835 132.5,28C 162.864,12.5807 194.864,3.08074 228.5,-0.5 Z M 211.5,133.5 C 212.479,134.765 213.479,136.099 214.5,137.5C 225.991,141.272 236.991,146.106 247.5,152C 248.066,152.995 248.733,153.828 249.5,154.5C 249.611,155.117 249.944,155.617 250.5,156C 249.263,156.232 248.263,156.732 247.5,157.5C 232.388,158.775 222.888,166.775 219,181.5C 219.12,194.411 218.286,207.077 216.5,219.5C 205.833,219.5 195.167,219.5 184.5,219.5C 183.206,213.071 182.539,206.405 182.5,199.5C 179.81,171.855 189.476,149.855 211.5,133.5 Z M 294.5,139.5 C 306.894,150.283 314.061,163.949 316,180.5C 316.813,193.575 316.646,206.575 315.5,219.5C 305.5,219.5 295.5,219.5 285.5,219.5C 284.081,218.549 282.415,218.216 280.5,218.5C 280.927,204.774 280.427,191.107 279,177.5C 274.763,167.093 267.263,160.426 256.5,157.5C 259.541,156.771 262.541,155.604 265.5,154C 267.305,151.597 269.638,149.93 272.5,149C 277.944,148.093 283.277,146.76 288.5,145C 291.023,143.64 293.023,141.807 294.5,139.5 Z"/></g>
<g><path style="opacity:1" fill="#3a8189" d="M 259.5,74.5 C 256.167,74.5 252.833,74.5 249.5,74.5C 242.155,74.6291 234.822,74.9625 227.5,75.5C 233.942,74.0564 240.608,73.3897 247.5,73.5C 251.681,73.5011 255.681,73.8344 259.5,74.5 Z"/></g>
<g><path style="opacity:1" fill="#626978" d="M 249.5,74.5 C 249.5,83.8333 249.5,93.1667 249.5,102.5C 252.059,102.198 254.393,102.532 256.5,103.5C 196.495,102.577 150.995,127.577 120,178.5C 101.329,211.862 96.3294,247.195 105,284.5C 122.468,345.804 162.302,383.138 224.5,396.5C 226.292,397.309 228.292,397.809 230.5,398C 236.825,398.5 243.158,398.666 249.5,398.5C 249.5,408.167 249.5,417.833 249.5,427.5C 208.923,427.308 172.589,414.975 140.5,390.5C 132.235,383.738 124.401,376.405 117,368.5C 76.1447,319.401 63.478,263.734 79,201.5C 103.253,129.747 152.753,87.7474 227.5,75.5C 234.822,74.9625 242.155,74.6291 249.5,74.5 Z"/></g>
<g><path style="opacity:1" fill="#404952" d="M 249.5,74.5 C 252.833,74.5 256.167,74.5 259.5,74.5C 312.17,78.6652 355.17,100.999 388.5,141.5C 412.106,172.41 424.773,207.41 426.5,246.5C 433.86,239.806 440.86,232.806 447.5,225.5C 454.652,232.152 461.652,238.985 468.5,246C 449.333,265.167 430.167,284.333 411,303.5C 392.452,283.953 373.619,264.786 354.5,246C 360.637,238.695 367.304,231.862 374.5,225.5C 381.819,232.319 388.986,239.319 396,246.5C 395.002,202.006 377.502,165.506 343.5,137C 318.195,116.352 289.195,105.185 256.5,103.5C 254.393,102.532 252.059,102.198 249.5,102.5C 249.5,93.1667 249.5,83.8333 249.5,74.5 Z"/></g>
<g><path style="opacity:1" fill="#1dacb4" d="M 256.5,103.5 C 289.195,105.185 318.195,116.352 343.5,137C 377.502,165.506 395.002,202.006 396,246.5C 388.986,239.319 381.819,232.319 374.5,225.5C 367.304,231.862 360.637,238.695 354.5,246C 373.619,264.786 392.452,283.953 411,303.5C 430.167,284.333 449.333,265.167 468.5,246C 461.652,238.985 454.652,232.152 447.5,225.5C 440.86,232.806 433.86,239.806 426.5,246.5C 424.773,207.41 412.106,172.41 388.5,141.5C 389.583,141.539 390.583,141.873 391.5,142.5C 427.188,178.854 463.188,214.854 499.5,250.5C 499.5,257.167 499.5,263.833 499.5,270.5C 487.22,368.267 436.553,438.101 347.5,480C 322.316,490.296 296.316,496.796 269.5,499.5C 262.167,499.5 254.833,499.5 247.5,499.5C 212.201,463.701 176.701,428.035 141,392.5C 140.536,391.906 140.369,391.239 140.5,390.5C 172.589,414.975 208.923,427.308 249.5,427.5C 303.4,426.128 348.233,405.462 384,365.5C 386.874,362.247 389.374,358.747 391.5,355C 384.28,349.138 376.78,343.638 369,338.5C 350.837,361.012 328.337,377.845 301.5,389C 292.562,391.95 283.562,394.45 274.5,396.5C 257.833,397.833 241.167,397.833 224.5,396.5C 162.302,383.138 122.468,345.804 105,284.5C 96.3294,247.195 101.329,211.862 120,178.5C 150.995,127.577 196.495,102.577 256.5,103.5 Z M 211.5,133.5 C 212.479,134.765 213.479,136.099 214.5,137.5C 225.991,141.272 236.991,146.106 247.5,152C 248.066,152.995 248.733,153.828 249.5,154.5C 249.611,155.117 249.944,155.617 250.5,156C 249.263,156.232 248.263,156.732 247.5,157.5C 232.388,158.775 222.888,166.775 219,181.5C 219.12,194.411 218.286,207.077 216.5,219.5C 205.833,219.5 195.167,219.5 184.5,219.5C 183.206,213.071 182.539,206.405 182.5,199.5C 179.81,171.855 189.476,149.855 211.5,133.5 Z M 294.5,139.5 C 306.894,150.283 314.061,163.949 316,180.5C 316.813,193.575 316.646,206.575 315.5,219.5C 305.5,219.5 295.5,219.5 285.5,219.5C 284.081,218.549 282.415,218.216 280.5,218.5C 280.927,204.774 280.427,191.107 279,177.5C 274.763,167.093 267.263,160.426 256.5,157.5C 259.541,156.771 262.541,155.604 265.5,154C 267.305,151.597 269.638,149.93 272.5,149C 277.944,148.093 283.277,146.76 288.5,145C 291.023,143.64 293.023,141.807 294.5,139.5 Z"/></g>
<g><path style="opacity:0.958" fill="#fdfefe" d="M 249.5,121.5 C 249.5,132.5 249.5,143.5 249.5,154.5C 248.733,153.828 248.066,152.995 247.5,152C 236.991,146.106 225.991,141.272 214.5,137.5C 213.479,136.099 212.479,134.765 211.5,133.5C 222.641,124.943 235.308,120.943 249.5,121.5 Z"/></g>
<g><path style="opacity:0.988" fill="#e8ecf4" d="M 249.5,121.5 C 267.138,121.261 282.138,127.261 294.5,139.5C 293.023,141.807 291.023,143.64 288.5,145C 283.277,146.76 277.944,148.093 272.5,149C 269.638,149.93 267.305,151.597 265.5,154C 262.541,155.604 259.541,156.771 256.5,157.5C 253.5,157.5 250.5,157.5 247.5,157.5C 248.263,156.732 249.263,156.232 250.5,156C 249.944,155.617 249.611,155.117 249.5,154.5C 249.5,143.5 249.5,132.5 249.5,121.5 Z"/></g>
<g><path style="opacity:1" fill="#22adb4" d="M 247.5,157.5 C 250.5,157.5 253.5,157.5 256.5,157.5C 267.263,160.426 274.763,167.093 279,177.5C 280.427,191.107 280.927,204.774 280.5,218.5C 282.415,218.216 284.081,218.549 285.5,219.5C 273.5,219.5 261.5,219.5 249.5,219.5C 238.5,219.5 227.5,219.5 216.5,219.5C 218.286,207.077 219.12,194.411 219,181.5C 222.888,166.775 232.388,158.775 247.5,157.5 Z"/></g>
<g><path style="opacity:1" fill="#fecd00" d="M 170.5,219.5 C 175.167,219.5 179.833,219.5 184.5,219.5C 195.167,219.5 205.833,219.5 216.5,219.5C 227.5,219.5 238.5,219.5 249.5,219.5C 249.5,233.167 249.5,246.833 249.5,260.5C 243.31,260.177 237.31,260.51 231.5,261.5C 231.5,280.833 231.5,300.167 231.5,319.5C 237.31,320.49 243.31,320.823 249.5,320.5C 249.5,330.167 249.5,339.833 249.5,349.5C 223.167,349.5 196.833,349.5 170.5,349.5C 170.5,306.167 170.5,262.833 170.5,219.5 Z"/></g>
<g><path style="opacity:1" fill="#b5c23a" d="M 170.5,219.5 C 170.5,262.833 170.5,306.167 170.5,349.5C 196.833,349.5 223.167,349.5 249.5,349.5C 249.5,349.833 249.5,350.167 249.5,350.5C 222.833,350.5 196.167,350.5 169.5,350.5C 169.168,306.663 169.501,262.997 170.5,219.5 Z"/></g>
<g><path style="opacity:1" fill="#fcb912" d="M 249.5,219.5 C 261.5,219.5 273.5,219.5 285.5,219.5C 295.5,219.5 305.5,219.5 315.5,219.5C 319.833,219.5 324.167,219.5 328.5,219.5C 328.5,262.833 328.5,306.167 328.5,349.5C 302.167,349.5 275.833,349.5 249.5,349.5C 249.5,339.833 249.5,330.167 249.5,320.5C 243.31,320.823 237.31,320.49 231.5,319.5C 237.5,319.5 243.5,319.5 249.5,319.5C 255.5,319.5 261.5,319.5 267.5,319.5C 267.5,300.167 267.5,280.833 267.5,261.5C 261.5,261.5 255.5,261.5 249.5,261.5C 243.5,261.5 237.5,261.5 231.5,261.5C 237.31,260.51 243.31,260.177 249.5,260.5C 249.5,246.833 249.5,233.167 249.5,219.5 Z"/></g>
<g><path style="opacity:1" fill="#b4b646" d="M 328.5,219.5 C 329.499,262.997 329.832,306.663 329.5,350.5C 302.833,350.5 276.167,350.5 249.5,350.5C 249.5,350.167 249.5,349.833 249.5,349.5C 275.833,349.5 302.167,349.5 328.5,349.5C 328.5,306.167 328.5,262.833 328.5,219.5 Z"/></g>
<g><path style="opacity:1" fill="#424950" d="M 231.5,261.5 C 237.5,261.5 243.5,261.5 249.5,261.5C 249.5,280.833 249.5,300.167 249.5,319.5C 243.5,319.5 237.5,319.5 231.5,319.5C 231.5,300.167 231.5,280.833 231.5,261.5 Z"/></g>
<g><path style="opacity:1" fill="#25282a" d="M 249.5,261.5 C 255.5,261.5 261.5,261.5 267.5,261.5C 267.5,280.833 267.5,300.167 267.5,319.5C 261.5,319.5 255.5,319.5 249.5,319.5C 249.5,300.167 249.5,280.833 249.5,261.5 Z"/></g>
<g><path style="opacity:1" fill="#404952" d="M 249.5,427.5 C 249.5,417.833 249.5,408.167 249.5,398.5C 258.068,398.898 266.401,398.231 274.5,396.5C 283.562,394.45 292.562,391.95 301.5,389C 328.337,377.845 350.837,361.012 369,338.5C 376.78,343.638 384.28,349.138 391.5,355C 389.374,358.747 386.874,362.247 384,365.5C 348.233,405.462 303.4,426.128 249.5,427.5 Z"/></g>
<g><path style="opacity:1" fill="#397e88" d="M 224.5,396.5 C 241.167,397.833 257.833,397.833 274.5,396.5C 266.401,398.231 258.068,398.898 249.5,398.5C 243.158,398.666 236.825,398.5 230.5,398C 228.292,397.809 226.292,397.309 224.5,396.5 Z"/></g>
</svg>
