<svg width="41" height="41" viewBox="0 0 41 41" fill="none" xmlns="http://www.w3.org/2000/svg">
<circle cx="20.8477" cy="20.4769" r="19.8675" fill="#F2F5FA"/>
<path d="M12.9833 25.03H27.884L24.9866 22.5466V15.9241L22.9171 12.6128H17.9502L15.4668 15.9241V22.5466L12.9833 25.03Z" stroke="#020B2A" stroke-width="2"/>
<circle cx="24.9866" cy="14.2684" r="3.72517" fill="white"/>
<circle cx="24.9866" cy="14.2684" r="2.89735" fill="#A74DED"/>
<mask id="path-5-inside-1_1628_2422" fill="white">
<path d="M20.4337 27.5134L19.192 26.6856V25.4438H22.0893V26.6856L20.4337 27.5134Z"/>
</mask>
<path d="M19.192 26.6856H16.192V28.2911L17.5279 29.1817L19.192 26.6856ZM20.4337 27.5134L18.7696 30.0095L20.2181 30.9753L21.7753 30.1967L20.4337 27.5134ZM22.0893 26.6856L23.4309 29.3689L25.0893 28.5397V26.6856H22.0893ZM22.0893 25.4438H25.0893V22.4438H22.0893V25.4438ZM19.192 25.4438V22.4438H16.192V25.4438H19.192ZM17.5279 29.1817L18.7696 30.0095L22.0978 25.0172L20.8561 24.1894L17.5279 29.1817ZM21.7753 30.1967L23.4309 29.3689L20.7477 24.0023L19.092 24.8301L21.7753 30.1967ZM25.0893 26.6856V25.4438H19.0893V26.6856H25.0893ZM22.0893 22.4438H19.192V28.4438H22.0893V22.4438ZM16.192 25.4438V26.6856H22.192V25.4438H16.192Z" fill="#020B2A" mask="url(#path-5-inside-1_1628_2422)"/>
</svg>
