<svg width="34" height="34" viewBox="0 0 34 34" fill="none" xmlns="http://www.w3.org/2000/svg">
<g clip-path="url(#clip0_4_84)">
<rect x="6.47619" y="12.9524" width="21.0476" height="10.5238" fill="white"/>
<path d="M17.009 10.946C20.1445 10.946 23.28 10.9406 26.4156 10.9487C27.5788 10.9518 28.6041 11.8822 28.744 13.0339C28.7723 13.2672 28.7859 13.5038 28.7861 13.7388C28.789 16.9018 28.7891 20.0648 28.7881 23.2278C28.7877 24.3826 28.2037 25.2584 27.1317 25.66C26.8626 25.7607 26.5571 25.8055 26.2683 25.8059C20.0894 25.8139 13.9106 25.8142 7.73172 25.8103C6.31939 25.8094 5.22693 24.7305 5.22278 23.3196C5.21312 20.0132 5.21256 16.7068 5.22233 13.4004C5.22642 12.0121 6.31166 10.9465 7.70345 10.9442C10.8053 10.939 13.9071 10.9426 17.009 10.9426V10.9459V10.946ZM18.9266 18.3818C18.9214 17.3118 18.0681 16.4545 17.012 16.4581C15.9531 16.4618 15.0776 17.3156 15.0812 18.341C15.0851 19.4324 15.9237 20.2894 16.996 20.298C18.047 20.3065 18.9316 19.4286 18.9265 18.3818H18.9266ZM23.5446 16.4593C22.4853 16.4606 21.6136 17.3195 21.6235 18.3517C21.634 19.4396 22.4953 20.3057 23.5608 20.2999C24.6061 20.2941 25.4665 19.4244 25.4634 18.3764C25.4602 17.2926 24.6248 16.4579 23.5446 16.4592L23.5446 16.4593ZM10.4779 16.4585C9.38006 16.4597 8.54115 17.2974 8.54408 18.3894C8.54686 19.4259 9.41617 20.3046 10.4337 20.2997C11.5291 20.2943 12.3834 19.4375 12.3852 18.3423C12.3869 17.3178 11.5157 16.4574 10.4779 16.4585H10.4779Z" fill="#D39B2D"/>
<path d="M27.7934 3.86438C27.7934 3.0085 27.7897 2.19676 27.7954 1.38507C27.7975 1.08784 27.9313 0.858878 28.2065 0.725976C28.4743 0.596616 28.7255 0.634826 28.9577 0.811001C29.1546 0.960403 29.2289 1.17342 29.2295 1.40972C29.2325 2.76542 29.2353 4.12117 29.2278 5.47687C29.2261 5.79759 29.0683 6.03698 28.7571 6.15632C28.4495 6.27434 28.1923 6.17965 27.9713 5.95954C26.6392 4.63249 25.116 3.58349 23.4023 2.81138C22.2406 2.28791 21.0323 1.91886 19.7781 1.68955C18.3851 1.43482 16.9833 1.37424 15.5781 1.50507C13.1879 1.72761 10.9532 2.4484 8.90603 3.71199C6.13336 5.42338 4.07311 7.76396 2.74621 10.747C2.10026 12.1993 1.69917 13.718 1.52092 15.2932C1.40388 16.3273 1.40019 17.3647 1.4972 18.405C1.68566 20.4259 2.24552 22.3328 3.17492 24.1342C3.37673 24.5254 3.25914 24.9547 2.90812 25.1409C2.52498 25.3441 2.12095 25.2051 1.90184 24.7859C1.06611 23.1875 0.513584 21.4957 0.216936 19.7165C0.00966098 18.4731 -0.039047 17.222 0.0284259 15.9683C0.0914479 14.7972 0.290984 13.6451 0.601238 12.5112C1.05645 10.8475 1.74236 9.28667 2.6797 7.8424C4.58376 4.90857 7.14293 2.73991 10.3552 1.3539C11.5479 0.839292 12.7911 0.477377 14.0704 0.257627C15.2473 0.0554894 16.4359 -0.0391015 17.6314 0.0151529C21.2548 0.179535 24.5193 1.3413 27.404 3.55135C27.5248 3.64387 27.6414 3.7419 27.7934 3.86443L27.7934 3.86438Z" fill="#D39B2D"/>
<path d="M6.21778 30.1343C6.21778 30.5547 6.21778 30.9347 6.21778 31.3147C6.21778 31.7375 6.21965 32.1604 6.21722 32.5832C6.2147 33.024 5.91613 33.344 5.50851 33.3481C5.09487 33.3522 4.7837 33.0442 4.78193 32.6018C4.77652 31.2528 4.77935 29.9037 4.78036 28.5547C4.78062 28.2298 4.91941 27.9856 5.22278 27.8544C5.53992 27.7173 5.81122 27.8129 6.04455 28.0448C7.13509 29.1283 8.35962 30.0276 9.71626 30.7513C10.9793 31.4251 12.3131 31.9045 13.7071 32.2108C15.0736 32.511 16.4615 32.6207 17.8579 32.536C21.2578 32.33 24.2913 31.1629 26.9226 28.9922C28.9436 27.3249 30.454 25.2706 31.4434 22.8422C31.8907 21.7443 32.2034 20.6063 32.3867 19.4316C32.5757 18.2205 32.6364 17.0059 32.5354 15.7855C32.3631 13.7036 31.806 11.7298 30.8392 9.87555C30.6961 9.60104 30.6829 9.33569 30.8613 9.08066C31.0285 8.84178 31.2667 8.73702 31.5588 8.78216C31.7825 8.81673 31.9589 8.92949 32.0665 9.1335C32.6821 10.3015 33.1689 11.521 33.4638 12.8086C33.6394 13.5756 33.8016 14.3503 33.8953 15.1304C34.0313 16.2634 34.0284 17.4033 33.9243 18.5436C33.7879 20.0366 33.4626 21.4848 32.9443 22.8885C32.1249 25.1079 30.8955 27.0723 29.2536 28.7777C27.6636 30.4291 25.8178 31.7118 23.7149 32.6198C22.3981 33.1883 21.0287 33.5785 19.6094 33.7965C18.3256 33.9937 17.0369 34.0513 15.7426 33.9529C13.6447 33.7935 11.6411 33.2687 9.73801 32.3678C8.48824 31.7761 7.32759 31.0424 6.21783 30.1342L6.21778 30.1343Z" fill="#D39B2D"/>
<path d="M21.718 10.9414H20.6582V10.7773C20.6582 10.1828 20.6585 9.58828 20.6582 8.99381C20.6571 7.3428 19.5021 5.86183 17.9009 5.45817C16.0986 5.00379 14.2294 5.98532 13.5766 7.73325C13.4242 8.14138 13.347 8.56615 13.3464 9.00317C13.3456 9.59268 13.3462 10.1822 13.3462 10.7717C13.3462 10.8254 13.3462 10.8792 13.3462 10.9394H12.3057C12.298 10.9175 12.2891 10.9039 12.2892 10.8904C12.2926 10.1062 12.2458 9.31771 12.3123 8.53882C12.4218 7.2563 13.0073 6.19399 13.998 5.36646C14.7036 4.77705 15.5203 4.42668 16.4302 4.31721C17.4312 4.1967 18.3845 4.37566 19.2691 4.86724C20.4536 5.52543 21.2219 6.51906 21.5682 7.82501C21.6629 8.18207 21.6992 8.56129 21.7117 8.93206C21.7341 9.59551 21.718 10.2603 21.718 10.9414Z" fill="#D39B2D"/>
</g>
<defs>
<clipPath id="clip0_4_84">
<rect width="34" height="34" fill="white"/>
</clipPath>
</defs>
</svg>
