<svg width="35" height="32" viewBox="0 0 35 32" fill="none" xmlns="http://www.w3.org/2000/svg">
<path d="M31.0714 31.7442H1.89305C1.78222 31.7266 1.6704 31.7133 1.56075 31.6909C0.620732 31.4991 0.000964483 30.7632 0.000821482 29.8298C-0.000215277 23.1406 -0.000358278 16.4514 0.000857232 9.76219C0.00107173 8.6374 0.851071 7.85607 2.07127 7.85599C11.6711 7.85534 21.2709 7.85541 30.8707 7.85734C31.0422 7.85734 31.2177 7.86664 31.3848 7.8997C32.3377 8.08824 32.9431 8.8215 32.9454 9.7916C32.9491 11.3704 32.9465 12.9492 32.946 14.528C32.946 14.5856 32.9389 14.6432 32.9347 14.7081H32.7012C29.0768 14.7081 25.4523 14.7071 21.8278 14.7102C21.561 14.7104 21.2896 14.7157 21.0282 14.7593C19.0827 15.0833 17.7594 16.5531 17.7548 18.3838C17.7526 19.2805 17.7439 20.1773 17.7601 21.0737C17.7658 21.3899 17.8012 21.7134 17.8845 22.0193C18.327 23.6451 19.8741 24.7438 21.7073 24.7452C25.3735 24.7479 29.0396 24.746 32.7057 24.746C32.7807 24.746 32.8557 24.746 32.9327 24.746C32.939 24.787 32.9451 24.8083 32.9451 24.8296C32.9452 26.5184 32.9513 28.2072 32.9412 29.896C32.9372 30.5783 32.6177 31.1272 31.9743 31.4674C31.7046 31.6101 31.3742 31.6549 31.0714 31.7442L31.0714 31.7442Z" fill="#D39B2D"/>
<path d="M35 21.94C34.9622 22.0769 34.9341 22.2167 34.8851 22.3501C34.6419 23.0116 34.2061 23.493 33.4291 23.6374C33.2966 23.662 33.1568 23.6582 33.0203 23.6583C29.1216 23.6592 25.2228 23.6429 21.3244 23.6691C20.1833 23.6767 19.5366 22.9191 19.3642 22.187C19.3214 22.0056 19.2977 21.8168 19.2968 21.6312C19.2909 20.4099 19.2914 19.1885 19.2948 17.9672C19.2963 17.4471 19.441 16.966 19.8005 16.555C20.1574 16.1468 20.6139 15.9304 21.1922 15.9308C25.1206 15.9335 29.049 15.9322 32.9774 15.9322C33.9252 15.9322 34.5752 16.3667 34.8702 17.2046C34.925 17.3601 34.9573 17.5225 35 17.6817V21.94ZM24.0285 21.1181C24.7421 21.12 25.3238 20.5292 25.3263 19.8C25.3288 19.0721 24.748 18.4755 24.0355 18.4742C23.3193 18.4729 22.7423 19.0609 22.741 19.7933C22.7397 20.5279 23.3114 21.1161 24.0285 21.1181Z" fill="#D39B2D"/>
<path d="M12.7897 6.57492C13.1878 6.46412 13.5863 6.35507 13.9837 6.24226C17.7038 5.18643 21.4243 4.13228 25.1428 3.07077C25.608 2.93795 26.0667 2.7914 26.5575 2.81891C26.9966 2.84352 27.3971 2.97764 27.7459 3.25611C27.9949 3.45493 28.1721 3.69374 28.257 4.01882C28.4693 4.83234 28.707 5.63901 28.9341 6.44856C28.9468 6.49408 28.9564 6.54059 28.9706 6.59949H12.795C12.7932 6.59132 12.7915 6.58312 12.7897 6.57496V6.57492Z" fill="#D39B2D"/>
<path d="M22.1454 2.62637C21.1664 2.90848 20.2011 3.1872 19.2354 3.46479C15.6574 4.49324 12.0795 5.52195 8.50057 6.54698C8.36579 6.58558 8.22093 6.60187 8.0805 6.60326C7.47482 6.60927 6.86903 6.60581 6.26328 6.60581C6.25945 6.58762 6.25563 6.56943 6.2518 6.55125C6.29799 6.52384 6.34282 6.49362 6.39055 6.46942C10.4971 4.38831 14.6063 2.31241 18.7089 0.223245C19.6402 -0.250981 20.5471 0.0861272 21.1681 0.711357C21.1971 0.740552 21.2211 0.777219 21.24 0.814323C21.5364 1.39458 21.8316 1.97545 22.1265 2.55647C22.1343 2.57181 22.136 2.5904 22.1455 2.62641L22.1454 2.62637Z" fill="#D39B2D"/>
</svg>
