<svg width="32" height="38" viewBox="0 0 32 38" fill="none" xmlns="http://www.w3.org/2000/svg">
<path d="M9.46283 19.4688C10.6405 23.9369 13.0536 27.5565 15.9755 30.9408C18.9346 27.5844 21.3002 23.941 22.4706 19.5359C23.189 19.7237 23.8929 19.9012 24.5916 20.0943C24.9002 20.1799 25.1985 20.3038 25.5051 20.4008C27.6003 21.0665 28.9018 22.5032 29.6666 24.5324C30.5738 26.9393 31.1456 29.4246 31.5801 31.9482C31.7308 32.8224 31.8629 33.7007 31.9723 34.5801C32.2066 36.4699 30.9309 37.9365 29.0287 37.9861C28.9647 37.9881 28.8997 37.9861 28.8357 37.9861C20.3145 37.9861 11.7934 37.9861 3.27218 37.9861C1.55989 37.9861 0.250111 36.9612 0.0292378 35.348C-0.0522997 34.7524 0.0529896 34.1187 0.14588 33.5128C0.563889 30.7911 1.09233 28.0911 2.00163 25.485C2.29682 24.6397 2.68488 23.8233 3.07192 23.0131C3.63856 21.8272 4.65727 21.1316 5.83904 20.6857C7.01256 20.2429 8.21706 19.8817 9.46179 19.4678L9.46283 19.4688Z" fill="#D39B2D"/>
<path d="M16.0293 28.5165C15.4906 27.7589 14.991 27.0736 14.5183 26.3717C14.4409 26.2561 14.4378 26.0518 14.4719 25.9052C14.6669 25.0671 14.8981 24.2373 15.0839 23.3972C15.1324 23.1773 15.1097 22.9162 15.0385 22.7005C14.8878 22.2412 14.6834 21.7994 14.4873 21.3164H17.7808C17.5919 21.7788 17.3917 22.2051 17.2472 22.6509C17.1688 22.8935 17.1265 23.1773 17.1678 23.425C17.3061 24.2476 17.5032 25.0609 17.6466 25.8835C17.6776 26.0611 17.625 26.2953 17.5238 26.445C17.0614 27.121 16.5691 27.7764 16.0293 28.5175V28.5165Z" fill="#D39B2D"/>
<path d="M21.4575 16.1012C21.0457 15.772 20.5977 15.4252 20.1642 15.0619C20.0063 14.9288 19.8845 14.9081 19.6884 15C19.2704 15.195 18.839 15.3653 18.4003 15.5088C18.1846 15.58 18.0855 15.6729 18.068 15.9031C18.0298 16.3902 17.9514 16.8743 17.9152 17.3614C17.8977 17.5968 17.8048 17.6649 17.5798 17.6628C16.7304 17.6536 15.8809 17.6515 15.0315 17.6628C14.79 17.6659 14.6857 17.5957 14.6672 17.3449C14.631 16.8578 14.5526 16.3737 14.5144 15.8866C14.4979 15.675 14.4174 15.5811 14.212 15.5129C13.762 15.3633 13.3316 15.1589 12.8816 15.0082C12.7557 14.9659 12.5565 14.9845 12.4533 15.0598C11.9868 15.4004 11.5419 15.772 11.1053 16.1198C10.3653 15.3777 9.63869 14.6511 8.88937 13.9008C9.28054 13.4074 9.69337 12.8862 10.0608 12.4228C9.82342 11.8252 9.61804 11.275 9.38066 10.7383C9.33421 10.6331 9.16907 10.5299 9.04832 10.5154C8.50129 10.4514 7.95117 10.4204 7.34635 10.373C7.34635 9.84865 7.34635 9.35221 7.34635 8.85576C7.34635 8.40472 7.35667 7.95471 7.34222 7.50471C7.33499 7.27145 7.41963 7.18889 7.65082 7.1796C8.10083 7.16205 8.54877 7.11149 8.99878 7.08878C9.23307 7.07743 9.35278 6.99795 9.42606 6.75025C9.55198 6.32088 9.72125 5.89977 9.91632 5.49724C10.0195 5.28462 9.99271 5.15872 9.84718 4.99358C9.48903 4.58898 9.14841 4.16994 8.82226 3.78084C9.55816 3.0439 10.2838 2.31729 11.0403 1.55971C11.4201 1.8776 11.8474 2.22233 12.2572 2.5846C12.4233 2.73219 12.5462 2.75697 12.7567 2.64654C13.1768 2.4267 13.6155 2.23988 14.0593 2.07267C14.2616 1.9963 14.34 1.89825 14.3482 1.68769C14.3668 1.23769 14.4174 0.789744 14.437 0.33974C14.4473 0.108545 14.5072 -0.00499231 14.7724 0.000168285C15.6343 0.0156501 16.4971 0.0115236 17.36 0.00223454C17.5695 0.000170301 17.6572 0.0672531 17.6758 0.280902C17.716 0.742259 17.7893 1.20053 17.8285 1.66189C17.8471 1.87864 17.9122 1.9963 18.1361 2.07577C18.5707 2.23059 18.9959 2.41842 19.4056 2.62897C19.6182 2.73838 19.7524 2.75283 19.9392 2.58047C20.3366 2.21613 20.7618 1.88173 21.153 1.55248C21.892 2.29354 22.6176 3.02016 23.369 3.77257C23.0366 4.1689 22.6837 4.60651 22.3121 5.02762C22.18 5.17728 22.18 5.28771 22.2605 5.46627C22.4504 5.88634 22.631 6.31467 22.7652 6.75539C22.8405 7.0031 22.9654 7.0764 23.1987 7.08672C23.6353 7.10736 24.0708 7.15792 24.5084 7.17443C24.7438 7.18269 24.8531 7.24462 24.848 7.50884C24.8335 8.37066 24.8366 9.23352 24.847 10.0964C24.849 10.3131 24.7665 10.3957 24.5611 10.4081C24.3041 10.4236 24.0471 10.4917 23.7932 10.4772C23.3803 10.4545 23.1687 10.6166 23.0604 11.018C22.9706 11.3494 22.8292 11.6786 22.6486 11.9707C22.4638 12.269 22.5226 12.463 22.7383 12.7056C23.08 13.0885 23.3855 13.5034 23.6827 13.875C22.9417 14.616 22.2161 15.3416 21.4575 16.0992V16.1012ZM11.5543 8.80519C11.5419 11.2554 13.5401 13.2701 16.0058 13.2928C18.5128 13.3155 20.5379 11.3287 20.5565 8.82686C20.575 6.32087 18.5923 4.31134 16.077 4.28863C13.5401 4.26489 11.5667 6.23624 11.5533 8.80519H11.5543Z" fill="#D39B2D"/>
<path d="M16.0392 10.7617C14.9545 10.7524 14.0782 9.87302 14.0771 8.79239C14.0771 7.70144 14.9854 6.79731 16.0712 6.8097C17.1508 6.82208 18.0291 7.70766 18.0333 8.78622C18.0374 9.8813 17.1394 10.771 16.0392 10.7617Z" fill="#D39B2D"/>
</svg>
