<svg width="32" height="32" viewBox="0 0 32 32" fill="none" xmlns="http://www.w3.org/2000/svg">
<path d="M32.0002 31.9988H11.334V15.0615H32.0002V31.9988ZM16.1559 21.621C16.1901 21.6911 16.2185 21.7454 16.2444 21.8014C16.7571 22.8768 17.6046 23.4821 18.7986 23.4888C19.9934 23.4955 20.8526 22.8985 21.3627 21.8222C21.4504 21.6377 21.5573 21.6218 21.7218 21.6218C24.0638 21.6243 26.4059 21.6235 28.748 21.6235H29.0995V19.7423H21.4638C21.4329 19.6814 21.4078 19.6363 21.3861 19.5887C20.8835 18.5066 20.0385 17.8971 18.8453 17.8837C17.6371 17.8695 16.7721 18.4715 16.2553 19.5586C16.186 19.7048 16.1116 19.754 15.9547 19.7515C15.3543 19.7432 14.754 19.7482 14.1453 19.7482V21.6202H16.1567L16.1559 21.621ZM21.7869 25.3842H14.147V27.2487H21.7819C21.8128 27.3079 21.8378 27.353 21.8604 27.3998C21.8871 27.4557 21.908 27.515 21.938 27.5701C22.4657 28.5487 23.2823 29.0989 24.3962 29.1156C25.51 29.1323 26.3692 28.6213 26.8852 27.6361C27.0564 27.3088 27.2334 27.2136 27.569 27.2428C27.8788 27.2704 28.1927 27.2487 28.505 27.2487C28.7079 27.2487 28.9108 27.2487 29.1087 27.2487V25.3733C28.5326 25.3733 27.9723 25.3616 27.4137 25.3783C27.1774 25.3859 27.0555 25.3232 26.9478 25.0945C26.3124 23.7477 24.7594 23.144 23.395 23.7017C22.6219 24.0182 22.1017 24.5901 21.7877 25.3833L21.7869 25.3842Z" fill="#D39B2D"/>
<path d="M26.3122 0V7.54223H0V0H26.3122ZM13.1732 2.89649H5.71282V4.73341H13.1732V2.89649ZM15.0761 4.7284H16.913V2.89148H15.0761V4.7284ZM20.6637 4.73759V2.88981H18.8293V4.73759H20.6637Z" fill="#D39B2D"/>
<path d="M9.43 13.176V24.4221H0.0224609V9.45703H26.2963V13.176H9.43Z" fill="#D39B2D"/>
<path d="M19.7487 20.6919C19.7453 21.1979 19.3212 21.6221 18.8152 21.6229C18.2975 21.6246 17.865 21.1837 17.8767 20.666C17.8876 20.16 18.3201 19.7434 18.8261 19.7501C19.3329 19.7576 19.7529 20.1851 19.7495 20.6911L19.7487 20.6919Z" fill="#D39B2D"/>
<path d="M25.3736 26.311C25.3736 26.8179 24.9519 27.2428 24.4459 27.2479C23.9282 27.2529 23.4932 26.8145 23.5016 26.296C23.5099 25.79 23.9391 25.3709 24.4451 25.375C24.9519 25.3792 25.3736 25.8042 25.3736 26.311Z" fill="#D39B2D"/>
</svg>
