<svg width="32" height="33" viewBox="0 0 32 33" fill="none" xmlns="http://www.w3.org/2000/svg">
<path d="M4.26557 30.6285C4.26557 30.9277 4.27269 31.1814 4.26379 31.4343C4.25132 31.7886 4.05279 31.996 3.70022 31.9978C2.65588 32.0058 1.61154 32.0058 0.567205 31.9978C0.191493 31.9952 0.00274248 31.7761 0.00185216 31.3684C-0.0017091 30.4024 0.000960977 29.4355 0.000960977 28.4695C0.000960977 25.6374 0.000960977 22.8044 0.000960977 19.9723C0.000960977 19.3598 0.154989 19.2049 0.766635 19.2049C1.71126 19.2049 2.65499 19.2031 3.59962 19.2049C4.07861 19.2058 4.2629 19.3927 4.26646 19.87C4.26913 20.1789 4.26646 20.4887 4.26646 20.7701C5.04371 20.8938 5.80404 20.9499 6.52697 21.1449C7.47516 21.4013 8.38862 21.785 9.32879 22.0788C9.80956 22.2293 10.3117 22.3851 10.8076 22.3967C12.4511 22.435 14.0955 22.4029 15.7399 22.4082C16.9597 22.4118 17.923 23.3698 17.9123 24.553C17.9016 25.7354 16.9641 26.6657 15.7515 26.672C13.9299 26.6809 12.1075 26.6737 10.2859 26.6764C10.1541 26.6764 10.0143 26.6729 9.89058 26.7102C9.6226 26.7922 9.49706 26.9898 9.52466 27.2703C9.55137 27.5373 9.71341 27.6967 9.97249 27.7305C10.1586 27.7555 10.3491 27.7412 10.5387 27.7412C12.2606 27.7412 13.9825 27.7492 15.7043 27.7386C17.4778 27.7279 18.8008 26.5001 18.9647 24.7337C18.97 24.6785 18.9914 24.618 18.9762 24.5681C18.8151 24.0464 19.1196 23.8862 19.5425 23.709C21.4139 22.9246 23.2667 22.0949 25.1328 21.2962C26.2688 20.8101 27.4663 21.4351 27.7031 22.6157C27.8545 23.3671 27.4814 24.1176 26.7416 24.5316C23.5658 26.3096 20.3892 28.0849 17.2125 29.862C16.6899 30.154 16.1397 30.4068 15.6482 30.746C14.6609 31.4271 13.5987 31.5099 12.4396 31.3853C9.73567 31.095 7.02377 30.8787 4.26557 30.6276V30.6285Z" fill="#D39B2D"/>
<path d="M28.7741 1.07495C28.7883 1.00728 28.7981 0.985915 28.7963 0.964547C28.7304 0.103613 29.0064 -0.0263714 29.7766 0.00389936C30.309 0.0252669 30.8432 0.00389914 31.3765 0.00924103C31.794 0.0136926 31.9979 0.207781 31.9979 0.618216C32.0006 4.47239 32.0006 8.32656 31.9979 12.1807C31.9979 12.6108 31.7967 12.8013 31.3569 12.8048C30.7568 12.8084 30.1567 12.8066 29.5576 12.8057C28.9646 12.8057 28.8177 12.6606 28.799 12.0632C28.7981 12.0214 28.7901 11.9795 28.7848 11.9314C28.0974 12.3472 27.4199 12.7559 26.6836 13.201C26.6747 13.0274 26.6667 12.9339 26.6667 12.8413C26.6667 11.497 26.6685 10.1535 26.6631 8.80911C26.6631 8.61859 26.6863 8.4886 26.8839 8.38621C27.208 8.21794 27.2873 7.9001 27.119 7.63034C26.9543 7.36502 26.6489 7.3027 26.3302 7.48967C25.4701 7.99536 24.5736 8.0844 23.6476 7.71848C23.442 7.63746 23.3645 7.75053 23.2577 7.85648C22.0317 9.08155 20.8111 10.3111 19.5798 11.5299C18.7384 12.3624 17.4706 12.3748 16.6435 11.5771C15.8271 10.7901 15.8227 9.5454 16.664 8.68536C17.7279 7.59739 18.8132 6.52991 19.8887 5.45441C20.0454 5.29771 20.2084 5.14547 20.357 4.97987C20.5903 4.7199 20.5903 4.42253 20.3704 4.20797C20.1576 3.99963 19.8398 4.00408 19.5967 4.2418C19.1044 4.72257 18.6236 5.21669 18.1313 5.69746C18.0511 5.77581 17.9327 5.86395 17.8312 5.86484C16.6453 5.87642 15.4585 5.87197 14.2139 5.87197C14.31 5.76068 14.367 5.68678 14.432 5.6209C15.5547 4.49732 16.6827 3.37908 17.7992 2.24927C18.5915 1.4471 19.5379 1.06426 20.6669 1.06961C23.2443 1.08207 25.8218 1.07317 28.3984 1.07317H28.7741V1.07495Z" fill="#D39B2D"/>
<path d="M16.9056 6.94043C16.578 7.26272 16.2984 7.49955 16.0678 7.77644C15.7856 8.11476 15.5238 8.47444 15.2959 8.85193C15.1935 9.02198 15.1009 9.07718 14.9149 9.07629C12.86 9.07095 10.8043 9.07273 8.74942 9.07273C8.19475 9.07273 8.06655 9.18402 7.99354 9.72266C7.9241 10.2328 7.54127 10.6067 7.02221 10.6691C6.54411 10.7269 6.40166 10.8792 6.40077 11.3502C6.39899 12.1497 6.3981 12.9492 6.40077 13.7496C6.40255 14.1965 6.5548 14.3568 7.01064 14.4084C7.56085 14.4707 7.93656 14.8509 7.99799 15.41C8.04607 15.84 8.21434 16.0047 8.63724 16.0047C12.836 16.0065 17.0356 16.0065 21.2343 16.0047C21.6554 16.0047 21.821 15.84 21.8682 15.4047C21.9288 14.8518 22.3107 14.4698 22.8609 14.4084C23.3096 14.3585 23.4637 14.1938 23.4654 13.7442C23.4681 12.9447 23.4681 12.1452 23.4654 11.3448C23.4645 10.8899 23.3132 10.7367 22.8725 10.6637C22.6642 10.629 22.4647 10.5337 22.1825 10.4403C22.7229 9.90251 23.1974 9.42708 23.6773 8.9561C23.7112 8.92227 23.7753 8.90179 23.8242 8.90446C24.4047 8.93652 24.9852 8.97391 25.6004 9.01219C25.6004 9.05938 25.6004 9.16889 25.6004 9.2784C25.6004 11.9769 25.6004 14.6764 25.6004 17.3749C25.6004 17.9848 25.4446 18.1397 24.8312 18.1397C18.2331 18.1397 11.634 18.1397 5.03592 18.1397C4.42338 18.1397 4.26758 17.9848 4.26758 17.3749C4.26758 14.1431 4.26758 10.9103 4.26758 7.6785C4.26758 7.10959 4.43317 6.94221 4.99763 6.94221C8.84112 6.94221 12.6846 6.94221 16.5281 6.94221H16.9056V6.94043Z" fill="#D39B2D"/>
<path d="M14.9735 10.1824C14.9868 11.1733 15.3972 11.9683 16.1611 12.5746C17.4165 13.5709 19.1366 13.4498 20.3421 12.2835C20.716 11.9211 21.073 11.541 21.4309 11.1759C21.7657 11.3656 22.0702 11.5383 22.3996 11.7244C22.3996 12.206 22.4049 12.7162 22.3933 13.2254C22.3916 13.3029 22.3292 13.416 22.2625 13.4498C21.3739 13.9012 21.2457 14.0285 20.8486 14.9251C20.7525 14.9295 20.6456 14.9384 20.5379 14.9384C16.8066 14.9384 13.0753 14.9366 9.34399 14.9446C9.10093 14.9446 8.97896 14.8921 8.88548 14.6473C8.66913 14.081 8.24801 13.6902 7.67821 13.4828C7.50994 13.4222 7.45919 13.3421 7.46364 13.1729C7.47433 12.7402 7.45741 12.3066 7.47522 11.874C7.47878 11.784 7.56781 11.6505 7.64972 11.6175C8.27472 11.3691 8.70297 10.94 8.94691 10.3132C8.97629 10.2376 9.09826 10.1476 9.17661 10.1467C11.0863 10.1414 12.9961 10.1467 14.9058 10.1521C14.9156 10.1521 14.9254 10.1601 14.9735 10.1815V10.1824Z" fill="#D39B2D"/>
</svg>
