<svg width="34" height="30" viewBox="0 0 34 30" fill="none" xmlns="http://www.w3.org/2000/svg">
<path fill-rule="evenodd" clip-rule="evenodd" d="M5 0H28.3333C31.09 0 33.3333 2.24333 33.3333 5V13.3333H0V5C0 2.24333 2.24333 0 5 0ZM5 23.3333C2.24333 23.3333 0 21.09 0 18.3333V16.6667H33.3333V18.3333C33.3333 21.09 31.09 23.3333 28.3333 23.3333H18.3333V26.6667H25C25.9167 26.6667 26.6667 27.4167 26.6667 28.3333C26.6667 29.25 25.9167 30 25 30H8.33333C7.41667 30 6.66667 29.25 6.66667 28.3333C6.66667 27.4167 7.41667 26.6667 8.33333 26.6667H15V23.3333H5Z" fill="#231F20"/>
<mask id="mask0_12_72" style="mask-type:luminance" maskUnits="userSpaceOnUse" x="0" y="0" width="34" height="30">
<path fill-rule="evenodd" clip-rule="evenodd" d="M5 0H28.3333C31.09 0 33.3333 2.24333 33.3333 5V13.3333H0V5C0 2.24333 2.24333 0 5 0ZM5 23.3333C2.24333 23.3333 0 21.09 0 18.3333V16.6667H33.3333V18.3333C33.3333 21.09 31.09 23.3333 28.3333 23.3333H18.3333V26.6667H25C25.9167 26.6667 26.6667 27.4167 26.6667 28.3333C26.6667 29.25 25.9167 30 25 30H8.33333C7.41667 30 6.66667 29.25 6.66667 28.3333C6.66667 27.4167 7.41667 26.6667 8.33333 26.6667H15V23.3333H5Z" fill="white"/>
</mask>
<g mask="url(#mask0_12_72)">
<rect x="-3.33333" y="-5" width="40" height="40" fill="#D39B2D"/>
</g>
</svg>
