<svg width="25" height="20" viewBox="0 0 25 20" fill="none" xmlns="http://www.w3.org/2000/svg">
<path d="M23.9547 2.71163C23.1921 3.03985 22.3903 3.2684 21.5692 3.39164C21.9531 3.32583 22.5179 2.63486 22.7428 2.35518C23.0843 1.9333 23.3447 1.4517 23.5105 0.934836C23.5105 0.896448 23.5489 0.841609 23.5105 0.814189C23.4912 0.803629 23.4695 0.798096 23.4474 0.798096C23.4254 0.798096 23.4037 0.803629 23.3844 0.814189C22.4928 1.29701 21.5439 1.66551 20.5601 1.91098C20.5259 1.92145 20.4894 1.92239 20.4546 1.9137C20.4198 1.905 20.388 1.887 20.3627 1.86162C20.2861 1.77044 20.2037 1.68434 20.1159 1.60388C19.7147 1.24438 19.2595 0.95014 18.7669 0.73193C18.102 0.459146 17.3838 0.341009 16.6665 0.386441C15.9706 0.430394 15.2911 0.617062 14.6704 0.934836C14.0591 1.26986 13.5219 1.72501 13.091 2.27292C12.6378 2.83686 12.3105 3.49133 12.1313 4.1923C11.9836 4.85906 11.9668 5.54819 12.082 6.22136C12.082 6.33652 12.082 6.35297 11.9833 6.33652C8.07321 5.7607 4.8651 4.37327 2.24378 1.39549C2.12861 1.26387 2.06829 1.26387 1.97506 1.39549C0.834404 3.12841 1.38828 5.87038 2.81411 7.22492C3.00605 7.40589 3.20347 7.58137 3.41186 7.74589C2.75813 7.69948 2.12036 7.52232 1.53635 7.22492C1.42667 7.15363 1.36635 7.19201 1.36086 7.32363C1.34532 7.5061 1.34532 7.68955 1.36086 7.87202C1.47529 8.74649 1.81991 9.57488 2.35949 10.2725C2.89907 10.9701 3.61424 11.5118 4.43187 11.8424C4.63119 11.9278 4.83888 11.9921 5.05156 12.0343C4.44636 12.1535 3.82566 12.172 3.21443 12.0892C3.08282 12.0618 3.03346 12.133 3.08282 12.2592C3.88896 14.4528 5.63834 15.1218 6.92158 15.4947C7.09707 15.5221 7.27255 15.5221 7.46997 15.566C7.46997 15.566 7.46997 15.566 7.43707 15.5989C7.05868 16.2899 5.52866 16.756 4.82671 16.9973C3.54549 17.4575 2.17946 17.6334 0.823436 17.5128C0.609563 17.4799 0.560207 17.4854 0.505368 17.5128C0.450528 17.5402 0.505368 17.6005 0.565691 17.6554C0.839888 17.8363 1.11409 17.9954 1.39925 18.1489C2.24819 18.612 3.14569 18.9798 4.07541 19.2457C8.89032 20.5728 14.3084 19.5967 17.9224 16.0047C20.7631 13.186 21.7611 9.29785 21.7611 5.40425C21.7611 5.25618 21.9421 5.16844 22.0463 5.09166C22.765 4.53169 23.3986 3.87038 23.9273 3.12841C24.0188 3.01781 24.0658 2.87699 24.0589 2.73357C24.0589 2.65131 24.0589 2.66776 23.9547 2.71163Z" fill="#263238"/>
</svg>
