<svg width="24" height="29" viewBox="0 0 24 29" fill="none" xmlns="http://www.w3.org/2000/svg">
<path d="M8.84088 15.9546C8.97236 16.8243 8.57549 17.4011 7.85764 17.7469C7.04649 18.1376 6.20674 18.4637 5.38911 18.8406C4.01475 19.474 2.66992 20.158 1.51276 21.1876C0.209087 22.3474 -0.21167 23.8088 0.0959721 25.5204C0.231213 26.2729 0.703556 26.8041 1.29975 27.2201C2.21873 27.8614 3.25938 28.1785 4.32627 28.4107C6.66599 28.9199 9.04189 29.0144 11.4201 28.9984C13.2582 28.9859 15.0999 28.9459 16.9327 28.8113C18.6087 28.6882 20.2716 28.3976 21.8159 27.6436C22.836 27.1455 23.6864 26.4508 23.9157 25.2253C24.1842 23.7909 23.816 22.5193 22.744 21.565C22.0167 20.9176 21.2277 20.3181 20.3928 19.8343C19.1248 19.0995 17.7926 18.4845 16.4886 17.8166C16.2379 17.6882 15.976 17.5747 15.7464 17.4129C15.0888 16.9494 14.8743 16.162 15.2173 15.4119C15.3646 15.0898 15.5706 14.7904 15.7834 14.5078C16.9666 12.9368 17.8662 11.2214 18.2185 9.24303C18.5521 7.36953 18.5593 5.50397 17.7861 3.7274C16.8494 1.57549 15.2097 0.389239 12.9685 0.0819229C11.7378 -0.0868491 10.5243 -0.012602 9.36305 0.468965C7.24769 1.3462 6.10435 3.04941 5.68075 5.31014C5.25696 7.57181 5.64116 9.73121 6.56269 11.8015C6.61495 11.9189 8.83275 15.9007 8.84088 15.9546Z" fill="#D39B2D"/>
</svg>
