<svg width="324" height="90" viewBox="0 0 324 90" fill="none" xmlns="http://www.w3.org/2000/svg">
<path d="M52.7056 32.1702V37.2737H37.2959V16.7678C41.5507 16.7678 45.404 18.4926 48.1911 21.2797C50.9814 24.0668 52.7056 27.9162 52.7056 32.1702Z" fill="#4DA9ED"/>
<path d="M37.2959 52.6743H52.7056V73.1802C44.1943 73.1802 37.2959 66.2842 37.2959 57.7778V52.6743Z" fill="#4DA9ED"/>
<path d="M45.0007 15.4008C49.256 15.4008 52.7056 11.9532 52.7056 7.70038C52.7056 3.44758 49.256 0 45.0007 0C40.7455 0 37.2959 3.44758 37.2959 7.70038C37.2959 11.9532 40.7455 15.4008 45.0007 15.4008Z" fill="#4DA9ED"/>
<path d="M45.0007 89.9479C49.256 89.9479 52.7056 86.5003 52.7056 82.2475C52.7056 77.9947 49.256 74.5471 45.0007 74.5471C40.7455 74.5471 37.2959 77.9947 37.2959 82.2475C37.2959 86.5003 40.7455 89.9479 45.0007 89.9479Z" fill="#4DA9ED"/>
<path d="M52.7056 37.2737H37.2959V52.6744H52.7056V37.2737Z" fill="#138E47"/>
<path d="M32.1886 37.2737H37.2951V52.6744H16.7773C16.7773 44.1681 23.6773 37.2737 32.1886 37.2737Z" fill="#5ECD81"/>
<path d="M73.2228 37.2737C73.2228 41.5277 71.497 45.3771 68.7083 48.1642C65.9196 50.9513 62.068 52.6744 57.8115 52.6744H52.7051V37.2737H73.2228Z" fill="#5ECD81"/>
<path d="M82.2947 52.6744C86.55 52.6744 89.9995 49.2269 89.9995 44.9741C89.9995 40.7213 86.55 37.2737 82.2947 37.2737C78.0394 37.2737 74.5898 40.7213 74.5898 44.9741C74.5898 49.2269 78.0394 52.6744 82.2947 52.6744Z" fill="#5ECD81"/>
<path d="M7.70484 52.6744C11.9601 52.6744 15.4097 49.2269 15.4097 44.9741C15.4097 40.7213 11.9601 37.2737 7.70484 37.2737C3.44957 37.2737 0 40.7213 0 44.9741C0 49.2269 3.44957 52.6744 7.70484 52.6744Z" fill="#5ECD81"/>
<path d="M102 55.6348V34.3574H111.215C113.12 34.3574 114.763 34.6677 116.142 35.2842C117.521 35.9008 118.586 36.7883 119.337 37.9429C120.087 39.0975 120.461 40.4759 120.461 42.0782C120.461 43.6609 120.083 45.0236 119.337 46.1664C118.586 47.3131 117.521 48.1889 116.142 48.7976C114.763 49.4063 113.12 49.7087 111.215 49.7087H104.739L106.928 47.5488V55.6348H102ZM106.928 48.0946L104.739 45.7855H110.943C112.464 45.7855 113.6 45.4556 114.35 44.7958C115.101 44.1361 115.474 43.2289 115.474 42.0743C115.474 40.9001 115.097 39.989 114.35 39.3371C113.6 38.6891 112.464 38.3631 110.943 38.3631H104.739L106.928 36.0225V48.0946ZM115.537 55.6348L110.213 47.914H115.474L120.857 55.6348H115.537Z" fill="#5ECD81"/>
<path d="M135.338 51.6802H146.925V55.6309H130.438V34.3535H146.529V38.3042H135.338V51.6802ZM134.972 42.9265H145.224V46.7555H134.972V42.9265Z" fill="#5ECD81"/>
<path d="M161.857 55.6348H156.93V34.3574H161.857V55.6348ZM171.897 46.9087H161.496V42.7459H171.897V46.9087ZM171.531 34.3535H176.459V55.6309H171.531V34.3535Z" fill="#5ECD81"/>
<path d="M187.591 55.6348V34.3574H191.666L204.228 49.6773H202.252V34.3574H207.116V55.6348H203.073L190.479 40.3149H192.455V55.6348H187.591Z" fill="#5ECD81"/>
<path d="M215.451 55.6348L224.941 34.3574H229.805L239.326 55.6348H234.155L226.367 36.8472H228.312L220.497 55.6348H215.451ZM220.198 51.0754L221.506 47.3367H232.458L233.798 51.0754H220.198Z" fill="#5ECD81"/>
<path d="M247.633 55.6348V34.3574H251.708L264.27 49.6773H262.294V34.3574H267.158V55.6348H263.115L250.521 40.3149H252.497V55.6348H247.633Z" fill="#5ECD81"/>
<path d="M288.484 56C286.842 56 285.317 55.733 283.906 55.1949C282.496 54.6569 281.274 53.895 280.24 52.9015C279.207 51.9079 278.401 50.7415 277.823 49.4063C277.246 48.0671 276.955 46.5984 276.955 45C276.955 43.3977 277.242 41.9289 277.823 40.5937C278.401 39.2545 279.215 38.0921 280.256 37.0985C281.301 36.105 282.523 35.3392 283.922 34.8051C285.321 34.267 286.853 34 288.515 34C290.362 34 292.028 34.3181 293.518 34.9582C295.007 35.5984 296.26 36.533 297.274 37.7701L294.111 40.688C293.38 39.8554 292.571 39.2349 291.679 38.8186C290.787 38.4024 289.812 38.1942 288.759 38.1942C287.765 38.1942 286.853 38.3552 286.02 38.6812C285.187 39.0071 284.468 39.4705 283.859 40.0792C283.25 40.688 282.779 41.4066 282.445 42.2392C282.111 43.0717 281.942 43.9907 281.942 45.0039C281.942 46.0171 282.111 46.94 282.445 47.7686C282.779 48.6012 283.25 49.3199 283.859 49.9286C284.468 50.5373 285.187 51.0046 286.02 51.3267C286.853 51.6526 287.765 51.8136 288.759 51.8136C289.812 51.8136 290.787 51.6055 291.679 51.1892C292.571 50.7729 293.38 50.1407 294.111 49.2885L297.274 52.2063C296.26 53.4434 295.007 54.3859 293.518 55.0339C292.024 55.674 290.347 56 288.484 56Z" fill="#5ECD81"/>
<path d="M311.569 51.6802H323.157V55.6309H306.673V34.3535H322.764V38.3042H311.569V51.6802ZM311.204 42.9265H321.455V46.7555H311.204V42.9265Z" fill="#5ECD81"/>
</svg>
