<svg width="44" height="44" viewBox="0 0 44 44" fill="none" xmlns="http://www.w3.org/2000/svg">
<g id="Icon/Fill/credit-card">
<path id="Mask" fill-rule="evenodd" clip-rule="evenodd" d="M36.6667 16.5H7.33333V14.6667C7.33333 13.6565 8.15467 12.8333 9.16667 12.8333H34.8333C35.8453 12.8333 36.6667 13.6565 36.6667 14.6667V16.5ZM31.1667 27.5H27.5C26.4917 27.5 25.6667 26.675 25.6667 25.6667C25.6667 24.6583 26.4917 23.8333 27.5 23.8333H31.1667C32.175 23.8333 33 24.6583 33 25.6667C33 26.675 32.175 27.5 31.1667 27.5ZM20.1667 27.5H12.8333C11.825 27.5 11 26.675 11 25.6667C11 24.6583 11.825 23.8333 12.8333 23.8333H20.1667C21.175 23.8333 22 24.6583 22 25.6667C22 26.675 21.175 27.5 20.1667 27.5ZM34.8333 9.16667H9.16667C6.13433 9.16667 3.66667 11.6343 3.66667 14.6667V29.3333C3.66667 32.3657 6.13433 34.8333 9.16667 34.8333H34.8333C37.8657 34.8333 40.3333 32.3657 40.3333 29.3333V14.6667C40.3333 11.6343 37.8657 9.16667 34.8333 9.16667Z" fill="#231F20"/>
<mask id="mask0_12_91" style="mask-type:luminance" maskUnits="userSpaceOnUse" x="3" y="9" width="38" height="26">
<path id="Mask_2" fill-rule="evenodd" clip-rule="evenodd" d="M36.6667 16.5H7.33333V14.6667C7.33333 13.6565 8.15467 12.8333 9.16667 12.8333H34.8333C35.8453 12.8333 36.6667 13.6565 36.6667 14.6667V16.5ZM31.1667 27.5H27.5C26.4917 27.5 25.6667 26.675 25.6667 25.6667C25.6667 24.6583 26.4917 23.8333 27.5 23.8333H31.1667C32.175 23.8333 33 24.6583 33 25.6667C33 26.675 32.175 27.5 31.1667 27.5ZM20.1667 27.5H12.8333C11.825 27.5 11 26.675 11 25.6667C11 24.6583 11.825 23.8333 12.8333 23.8333H20.1667C21.175 23.8333 22 24.6583 22 25.6667C22 26.675 21.175 27.5 20.1667 27.5ZM34.8333 9.16667H9.16667C6.13433 9.16667 3.66667 11.6343 3.66667 14.6667V29.3333C3.66667 32.3657 6.13433 34.8333 9.16667 34.8333H34.8333C37.8657 34.8333 40.3333 32.3657 40.3333 29.3333V14.6667C40.3333 11.6343 37.8657 9.16667 34.8333 9.16667Z" fill="white"/>
</mask>
<g mask="url(#mask0_12_91)">
<g id="&#240;&#159;&#142;&#168; Color">
<rect id="Base" width="44" height="44" fill="#D39B2D"/>
</g>
</g>
</g>
</svg>
